<svg width="131" height="39" viewBox="0 0 131 39" fill="none" xmlns="http://www.w3.org/2000/svg">
<g clip-path="url(#clip0_1782_10815)">
<path d="M127.708 0.696289H2.711C1.53127 0.696289 0.574911 1.65153 0.574911 2.82987V35.9004C0.574911 37.0787 1.53127 38.0339 2.711 38.0339H127.708C128.888 38.0339 129.845 37.0787 129.845 35.9004V2.82987C129.845 1.65153 128.888 0.696289 127.708 0.696289Z" stroke="#3866DF" stroke-width="1.30184"/>
<path d="M46.8312 10.2209C46.8312 10.9558 46.6473 11.5989 46.1874 12.0582C45.6356 12.6093 44.9918 12.8849 44.1641 12.8849C43.3364 12.8849 42.6925 12.6093 42.1407 12.0582C41.5889 11.507 41.313 10.864 41.313 10.0372C41.313 9.21043 41.5889 8.56743 42.1407 8.01622C42.6925 7.46506 43.3364 7.18945 44.1641 7.18945C44.532 7.18945 44.8999 7.2813 45.2677 7.46506C45.6356 7.64876 45.9115 7.83251 46.0954 8.10807L45.6356 8.56737C45.2677 8.10807 44.8078 7.92436 44.1641 7.92436C43.6122 7.92436 43.0604 8.10807 42.6925 8.56737C42.2327 8.93483 42.0488 9.48604 42.0488 10.129C42.0488 10.7721 42.2327 11.3233 42.6925 11.6907C43.1524 12.0582 43.6122 12.3337 44.1641 12.3337C44.8078 12.3337 45.2677 12.15 45.7276 11.6907C46.0035 11.4151 46.1874 11.0477 46.1874 10.5884H44.1641V9.94534H46.8312C46.8312 9.94534 46.8312 10.0372 46.8312 10.2209Z" fill="#3866DF" stroke="#3866DF" stroke-width="0.130185" stroke-miterlimit="10"/>
<path d="M51.0616 7.92436H48.5784V9.66974H50.8776V10.3128H48.5784V12.0582H51.0616V12.7012H47.8426V7.18945H51.0616V7.92436Z" fill="#3866DF" stroke="#3866DF" stroke-width="0.130185" stroke-miterlimit="10"/>
<path d="M54.0951 12.7012H53.3591V7.83251H51.7956V7.18945H55.6582V7.83251H54.0951V12.7012Z" fill="#3866DF" stroke="#3866DF" stroke-width="0.130185" stroke-miterlimit="10"/>
<path d="M58.3288 12.7012V7.18945H59.0642V12.7012H58.3288Z" fill="#3866DF" stroke="#3866DF" stroke-width="0.130185" stroke-miterlimit="10"/>
<path d="M62.1903 12.7012H61.4549V7.83251H59.8913V7.18945H63.6621V7.83251H62.0984V12.7012H62.1903Z" fill="#3866DF" stroke="#3866DF" stroke-width="0.130185" stroke-miterlimit="10"/>
<path d="M70.9279 12.0582C70.3763 12.6093 69.7322 12.8849 68.9045 12.8849C68.0768 12.8849 67.4333 12.6093 66.8811 12.0582C66.3294 11.507 66.0533 10.864 66.0533 10.0372C66.0533 9.21043 66.3294 8.56743 66.8811 8.01622C67.4333 7.46506 68.0768 7.18945 68.9045 7.18945C69.7322 7.18945 70.3763 7.46506 70.9279 8.01622C71.4795 8.56743 71.7556 9.21043 71.7556 10.0372C71.7556 10.7721 71.4795 11.507 70.9279 12.0582ZM67.4333 11.5989C67.8012 11.9663 68.3528 12.2419 68.9045 12.2419C69.4567 12.2419 70.0083 12.0582 70.3763 11.5989C70.7442 11.2314 71.0197 10.6803 71.0197 10.0372C71.0197 9.39413 70.836 8.84298 70.3763 8.47552C70.0083 8.10807 69.4567 7.83251 68.9045 7.83251C68.3528 7.83251 67.8012 8.01621 67.4333 8.47552C67.0653 8.84298 66.7892 9.39413 66.7892 10.0372C66.7892 10.5884 66.9735 11.1396 67.4333 11.5989Z" fill="#3866DF" stroke="#3866DF" stroke-width="0.130185" stroke-miterlimit="10"/>
<path d="M72.7683 12.7012V7.18945H73.596L76.2629 11.507V10.4047V7.18945H76.9988V12.7012H76.2629L73.4118 8.19997V9.30228V12.7012H72.7683Z" fill="#3866DF" stroke="#3866DF" stroke-width="0.130185" stroke-miterlimit="10"/>
<path d="M65.8698 20.7853C63.6627 20.7853 61.9153 22.4388 61.9153 24.7354C61.9153 26.9401 63.6627 28.6854 65.8698 28.6854C68.0769 28.6854 69.8248 27.0319 69.8248 24.7354C69.8248 22.4388 68.0769 20.7853 65.8698 20.7853ZM65.8698 27.0319C64.6741 27.0319 63.6627 26.0215 63.6627 24.6435C63.6627 23.2656 64.6741 22.2551 65.8698 22.2551C67.0655 22.2551 68.0769 23.1737 68.0769 24.6435C68.0769 26.1133 67.0655 27.0319 65.8698 27.0319ZM57.3164 20.7853C55.1092 20.7853 53.3619 22.4388 53.3619 24.7354C53.3619 26.9401 55.1092 28.6854 57.3164 28.6854C59.524 28.6854 61.2713 27.0319 61.2713 24.7354C61.2713 22.4388 59.524 20.7853 57.3164 20.7853ZM57.3164 27.0319C56.1212 27.0319 55.1092 26.0215 55.1092 24.6435C55.1092 23.2656 56.1212 22.2551 57.3164 22.2551C58.512 22.2551 59.524 23.1737 59.524 24.6435C59.524 26.1133 58.512 27.0319 57.3164 27.0319ZM47.1079 21.9795V23.633H51.0626C50.9706 24.5517 50.6027 25.2865 50.1429 25.7459C49.5911 26.297 48.6713 26.9401 47.1079 26.9401C44.6247 26.9401 42.7852 25.0109 42.7852 22.5307C42.7852 20.0504 44.7166 18.1213 47.1079 18.1213C48.3955 18.1213 49.4071 18.6725 50.1429 19.3155L51.3385 18.1213C50.3268 17.2027 49.0392 16.4678 47.1998 16.4678C43.8889 16.4678 41.0378 19.2237 41.0378 22.5307C41.0378 25.8377 43.8889 28.5936 47.1998 28.5936C49.0392 28.5936 50.3268 28.0424 51.4305 26.8482C52.5341 25.7459 52.902 24.1842 52.902 22.99C52.902 22.6226 52.902 22.2551 52.81 21.9795H47.1079ZM88.8626 23.2656C88.4947 22.347 87.5746 20.7853 85.5517 20.7853C83.5283 20.7853 81.8728 22.347 81.8728 24.7354C81.8728 26.9401 83.5283 28.6854 85.7354 28.6854C87.4827 28.6854 88.5866 27.5831 88.9545 26.9401L87.667 26.0215C87.2072 26.6645 86.655 27.1238 85.7354 27.1238C84.8158 27.1238 84.2636 26.7564 83.8039 25.9296L89.0463 23.7249L88.8626 23.2656ZM83.5283 24.5517C83.5283 23.0819 84.724 22.2551 85.5517 22.2551C86.1952 22.2551 86.8392 22.6226 87.0229 23.0819L83.5283 24.5517ZM79.2054 28.318H80.9527V16.8352H79.2054V28.318ZM76.4466 21.612C75.9863 21.1527 75.251 20.6934 74.3308 20.6934C72.3998 20.6934 70.5601 22.4388 70.5601 24.6435C70.5601 26.8482 72.308 28.5017 74.3308 28.5017C75.251 28.5017 75.9863 28.0424 76.3542 27.5831H76.4466V28.1343C76.4466 29.6041 75.6189 30.4308 74.3308 30.4308C73.3194 30.4308 72.5835 29.696 72.3998 29.0529L70.928 29.696C71.3878 30.7064 72.4917 31.9925 74.4232 31.9925C76.4466 31.9925 78.1021 30.7983 78.1021 27.9506V20.969H76.4466V21.612ZM74.4232 27.0319C73.2275 27.0319 72.2156 26.0215 72.2156 24.6435C72.2156 23.2656 73.2275 22.2551 74.4232 22.2551C75.6189 22.2551 76.5385 23.2656 76.5385 24.6435C76.5385 26.0215 75.6189 27.0319 74.4232 27.0319ZM96.8639 16.8352H92.7252V28.318H94.4725V24.0005H96.8639C98.7949 24.0005 100.635 22.6226 100.635 20.4179C100.635 18.2131 98.7949 16.8352 96.8639 16.8352ZM96.9558 22.4388H94.4725V18.4888H96.9558C98.2433 18.4888 98.9792 19.5911 98.9792 20.4179C98.8873 21.3365 98.1514 22.4388 96.9558 22.4388ZM107.533 20.7853C106.245 20.7853 104.957 21.3365 104.497 22.5307L106.061 23.1737C106.429 22.5307 106.98 22.347 107.624 22.347C108.544 22.347 109.372 22.8982 109.464 23.8168V23.9086C109.188 23.7249 108.452 23.4493 107.716 23.4493C106.061 23.4493 104.405 24.3679 104.405 26.0215C104.405 27.5831 105.785 28.5936 107.257 28.5936C108.452 28.5936 109.004 28.0424 109.464 27.4913H109.555V28.4099H111.211V24.0005C111.027 21.8877 109.464 20.7853 107.533 20.7853ZM107.348 27.0319C106.797 27.0319 105.969 26.7564 105.969 26.0215C105.969 25.1028 106.98 24.8272 107.808 24.8272C108.544 24.8272 108.912 25.011 109.372 25.1947C109.188 26.2971 108.268 27.0319 107.348 27.0319ZM117.005 20.969L115.074 25.9296H114.982L112.959 20.969H111.119L114.154 27.9506L112.407 31.8088H114.154L118.845 20.969H117.005ZM101.554 28.318H103.302V16.8352H101.554V28.318Z" fill="#3866DF"/>
<path d="M12.3437 30.6133C11.9758 30.4296 11.7919 29.9703 11.7919 29.5109C11.7919 29.419 11.7919 29.2353 11.7919 29.1435C11.7919 22.3457 11.7919 15.5478 11.7919 8.84189C11.7919 8.47444 11.8838 8.19889 11.9758 7.83143C12.0678 7.64768 12.2517 7.46397 12.4357 7.28027C16.3904 11.2303 20.2531 15.1804 24.1159 19.1305C20.1612 22.8049 16.2984 26.6632 12.3437 30.6133Z" fill="#3866DF"/>
<path d="M27.9754 15.0887C26.8717 16.1911 25.6761 17.2934 24.5725 18.4876C20.8937 14.7212 17.1229 10.9549 13.4441 7.18853C13.4441 7.18853 13.4441 7.09668 13.536 7.09668C18.3185 9.76067 23.1009 12.4247 27.9754 15.0887Z" fill="#3866DF"/>
<path d="M13.4441 30.6143C17.1229 26.9398 20.8937 23.2653 24.5725 19.5908C25.5841 20.6013 26.6878 21.6118 27.8834 22.7141C23.1009 25.3782 18.3185 28.0421 13.536 30.6143H13.4441Z" fill="#3866DF"/>
<path d="M28.5307 22.3457C27.3351 21.2434 26.2315 20.141 25.0359 19.0387C26.2315 17.8445 27.4271 16.6503 28.6227 15.4561C28.9906 15.6398 29.3584 15.8235 29.7263 16.0991C30.646 16.6503 31.6577 17.1096 32.5774 17.6607C32.8533 17.7526 33.0373 17.9363 33.2212 18.2119C33.5891 18.6712 33.5891 19.1306 33.2212 19.5899C33.0373 19.7736 32.8533 19.9573 32.5774 20.0492C31.2898 20.8759 29.9103 21.6108 28.5307 22.3457Z" fill="#3866DF"/>
</g>
<defs>
<clipPath id="clip0_1782_10815">
<rect width="130.835" height="38.4044" fill="white" transform="translate(0.041708 0.162109)"/>
</clipPath>
</defs>
</svg>
