<svg width="97" height="26" viewBox="0 0 97 26" fill="none" xmlns="http://www.w3.org/2000/svg">
<path d="M6.9172 1.03516L0.517456 19.7864H4.2773L6.08523 14.3146H11.285L13.1409 19.7864H16.9808L10.581 1.03516H6.9172ZM10.3891 11.2107H7.02919L8.42113 7.08291C8.51713 6.79492 8.61313 6.52293 8.69312 6.23494C8.78912 6.52293 8.86911 6.81092 8.98111 7.09891L10.3891 11.2107Z" fill="black"/>
<path d="M23.317 11.265C21.5891 10.5771 21.3971 10.2571 21.3971 9.7611C21.3971 9.13713 21.925 8.73714 22.773 8.73714C23.797 8.73714 24.5809 9.13712 24.9649 9.37711L25.7009 9.8411L26.6769 6.86522L26.2449 6.57723C25.3969 6.01725 24.117 5.69727 22.821 5.69727C19.9251 5.69727 17.8292 7.52119 17.8292 10.0491C17.8292 12.369 19.8771 13.6009 21.6051 14.2249C23.317 14.8649 23.461 15.3129 23.461 15.8569C23.461 16.8808 22.373 17.0408 21.749 17.0408C20.7571 17.0408 19.6851 16.6088 19.0772 16.2568L18.3412 15.8249L17.3812 18.8647L17.8452 19.1367C18.9012 19.7607 20.2931 20.1127 21.7011 20.1127C24.8849 20.1127 27.0288 18.3207 27.0288 15.6649C27.0288 12.961 24.9009 11.857 23.317 11.265Z" fill="black"/>
<path d="M32.6662 2.72852L29.0823 3.81647V5.96039H27.1624V9.04826H29.0983V15.176C29.0983 16.888 29.4503 18.1039 30.1543 18.9199C30.8423 19.6878 31.8982 20.1038 33.0982 20.1038C34.1861 20.1038 34.9701 19.8798 35.3381 19.7518L35.8181 19.5758L35.6261 16.472L34.8101 16.728C34.5541 16.792 34.2821 16.856 33.6901 16.856C33.2582 16.856 32.6662 16.856 32.6662 15.112V9.04826H35.9141V5.96039H32.6822L32.6662 2.72852Z" fill="black"/>
<path d="M44.6459 5.82526L43.9899 5.74526C43.7979 5.71327 43.6059 5.69727 43.3499 5.69727C42.214 5.69727 41.174 6.16125 40.374 6.97721L40.342 5.95326H36.9822L37.0302 6.67323C37.0942 7.72919 37.1422 8.96113 37.1422 10.5291V19.8087H40.774V12.465C40.774 12.113 40.806 11.777 40.838 11.521C41.11 10.0811 42.006 9.18513 43.2059 9.18513C43.4939 9.18513 43.6699 9.18513 43.8299 9.21713L44.6459 9.39312V5.82526Z" fill="black"/>
<path d="M51.2693 5.69727C47.2215 5.69727 44.3896 8.68914 44.3896 12.993C44.3896 17.1688 47.1255 20.0967 51.0453 20.0967C54.3732 20.0967 57.941 17.8088 57.941 12.785C57.973 8.60915 55.2212 5.69727 51.2693 5.69727ZM54.2932 12.849C54.2932 15.2649 52.9812 17.0248 51.1893 17.0248C49.3974 17.0248 48.1014 15.2809 48.1014 12.913C48.1014 11.377 48.7734 8.76914 51.2533 8.76914C53.6532 8.75314 54.2932 11.425 54.2932 12.849Z" fill="black"/>
<path d="M69.8559 2.49631C68.6559 1.42435 66.864 0.880371 64.5281 0.880371C62.9602 0.880371 61.4722 0.992366 60.1123 1.23236L59.5523 1.32835V19.7756H63.1522V12.9119C63.5202 12.9439 63.9041 12.9599 64.2721 12.9599C66.704 12.9599 68.7679 12.2079 70.0799 10.848C71.1039 9.80802 71.6158 8.40007 71.6158 6.65614C71.5998 4.97621 70.9919 3.50427 69.8559 2.49631ZM68 6.76814C68 9.39203 65.6961 9.77602 64.3201 9.77602C63.8561 9.77602 63.4722 9.76002 63.1362 9.71202V4.08024C63.4882 4.03225 63.9681 4.01624 64.5761 4.01624C66.144 4.03224 68 4.51223 68 6.76814Z" fill="black"/>
<path d="M82.6473 16.1288V11.457C82.6473 7.72918 80.7114 5.69727 77.2235 5.69727C75.6076 5.69727 73.9116 6.14525 72.7277 6.88122L72.2797 7.1692L73.2557 10.0491L74.0076 9.53711C74.7596 9.02513 75.8476 8.72114 76.9195 8.72114C77.6395 8.70514 78.1835 8.88114 78.5355 9.23312C78.8234 9.52111 78.9994 9.95309 79.0634 10.4971C76.2316 10.5771 74.1516 11.265 72.9037 12.513C72.0237 13.3769 71.5757 14.4969 71.5757 15.8248C71.5757 17.9368 73.1117 20.0967 76.0716 20.0967C77.3355 20.0967 78.5195 19.6967 79.4474 18.9767L79.5434 19.7927H82.9833L82.8713 19.0087C82.6953 18.2567 82.6473 17.2808 82.6473 16.1288ZM76.5995 17.0568C76.0556 17.0568 75.1596 16.8648 75.1596 15.5689C75.1596 15.0729 75.3036 14.6889 75.6236 14.3689C76.0556 13.9529 76.9835 13.4729 79.0954 13.4249V14.9129C79.0954 15.0249 79.0794 15.2169 79.0314 15.4249C78.7595 16.1768 77.9755 17.0568 76.5995 17.0568Z" fill="black"/>
<path d="M92.6584 5.97645L90.0345 13.7681C89.9705 13.9601 89.9065 14.1681 89.8425 14.3601C89.7785 14.1681 89.7145 13.9761 89.6345 13.8001L86.7706 5.97645H82.8028L87.7626 18.4079L87.7786 18.4399C87.8586 18.5999 87.8906 18.6959 87.8906 18.7279C87.8586 18.7919 87.8106 18.9199 87.7786 18.9999C87.3466 19.9279 86.7066 20.7758 86.0667 21.2878L86.0507 21.3038C85.3307 21.9118 84.5787 22.1998 84.2907 22.2798L83.6508 22.4878L84.5787 25.5916L85.1707 25.4797C85.5387 25.4157 86.8186 25.1117 88.2906 23.8797C90.0505 22.3278 91.2185 19.8319 92.7544 15.784L96.5142 5.96045L92.6584 5.97645Z" fill="black"/>
<path d="M13.827 6.21646C16.1629 3.83255 20.1308 2.40861 24.4346 2.40861C26.1145 2.40861 27.7465 2.6166 29.2824 3.04859L29.4104 3.08058L32.1783 2.24862L30.9304 1.78463C28.5784 0.888671 25.8586 0.408691 23.0747 0.408691C19.0268 0.408691 15.267 1.38465 12.4351 3.16058L12.1311 3.35257L13.2991 6.76044L13.827 6.21646Z" fill="#FF0000"/>
</svg>
