<svg width="107" height="22" viewBox="0 0 107 22" fill="none" xmlns="http://www.w3.org/2000/svg">
<path d="M99.321 20.869C99.6506 20.869 99.9753 20.8476 100.294 20.8061L100.27 20.6259C100.911 20.5423 101.526 20.3752 102.103 20.1358L102.173 20.3036C102.779 20.0524 103.344 19.7237 103.856 19.3298L103.746 19.1857C104.249 18.7988 104.701 18.3474 105.088 17.8439L105.232 17.9546C105.626 17.442 105.954 16.8766 106.206 16.2709L106.038 16.2013C106.277 15.6241 106.444 15.0094 106.528 14.3684L106.708 14.3919C106.749 14.0734 106.771 13.7487 106.771 13.4191V12.6241H106.589V11.0342H106.771V9.44429H106.589V7.85436H106.771V6.26444H106.589V4.67452H106.771V3.08459H106.589V1.49467H106.771V0.699707V0.518002H106.589H105.681V0.699707H103.864V0.518002H102.047V0.699707H100.23V0.518002H98.4125V0.699707H96.5954V0.518002H94.7783V0.699707H92.9613V0.518002H91.1442V0.699707H89.3272V0.518002H87.5101V0.699707H85.6931V0.518002H83.876V0.699707H82.059V0.518002H80.2419V0.699707H78.4249V0.518002H76.6078V0.699707H74.7907V0.518002H72.9737V0.699707H71.1566V0.518002H69.3396V0.699707H67.5225V0.518002H65.7055V0.699707H63.8884V0.518002H62.0714V0.699707H60.2543V0.518002H58.4372V0.699707H56.6202V0.518002H54.8031V0.699707H52.9861V0.518002H51.169V0.699707H49.352V0.518002H47.5349V0.699707H45.7179V0.518002H43.9008V0.699707H42.0838V0.518002H40.2667V0.699707H38.4496V0.518002H36.6326V0.699707H34.8155V0.518002H32.9985V0.699707H31.1814V0.518002H29.3644V0.699707H27.5473V0.518002H25.7303V0.699707H23.9132V0.518002H22.0962V0.699707H20.2791V0.518002H18.462V0.699707H16.645V0.518002H14.8279V0.699707H13.0109V0.518002H11.1938V0.699707H9.37677V0.518002H8.46823C8.13861 0.518002 7.8139 0.53942 7.49543 0.580961L7.51894 0.76114C6.87797 0.844749 6.26324 1.01187 5.68605 1.25122L5.61644 1.08338C5.01068 1.33457 4.44532 1.66334 3.93274 2.05725L4.04346 2.20132C3.53995 2.58825 3.08856 3.03964 2.70163 3.54315L2.55755 3.43243C2.16365 3.94501 1.83488 4.51037 1.58368 5.11613L1.75153 5.18574C1.51217 5.76293 1.34505 6.37766 1.26145 7.01863L1.08127 6.99512C1.03973 7.31359 1.01831 7.6383 1.01831 7.96792V8.76289H1.20001V10.3528H1.01831V11.9427H1.20001V13.5327H1.01831V15.1226H1.20001V16.7125H1.01831V18.3024H1.20001V19.8923H1.01831V20.6873V20.869H1.20001H2.10854V20.6873H3.92559V20.869H5.74265V20.6873H7.5597V20.869H9.37676V20.6873H11.1938V20.869H13.0109V20.6873H14.8279V20.869H16.645V20.6873H18.462V20.869H20.2791V20.6873H22.0961V20.869H23.9132V20.6873H25.7303V20.869H27.5473V20.6873H29.3644V20.869H31.1814V20.6873H32.9985V20.869H34.8155V20.6873H36.6326V20.869H38.4496V20.6873H40.2667V20.869H42.0837V20.6873H43.9008V20.869H45.7179V20.6873H47.5349V20.869H49.352V20.6873H51.169V20.869H52.9861V20.6873H54.8031V20.869H56.6202V20.6873H58.4372V20.869H60.2543V20.6873H62.0714V20.869H63.8884V20.6873H65.7055V20.869H67.5225V20.6873H69.3396V20.869H71.1566V20.6873H72.9737V20.869H74.7907V20.6873H76.6078V20.869H78.4248V20.6873H80.2419V20.869H82.059V20.6873H83.876V20.869H85.6931V20.6873H87.5101V20.869H89.3272V20.6873H91.1442V20.869H92.9613V20.6873H94.7783V20.869H96.5954V20.6873H98.4124V20.869H99.321Z" fill="#EAF9EA" stroke="#2ABF2D" stroke-width="0.363411" stroke-miterlimit="6.59042" stroke-dasharray="1.82 1.82"/>
<path fill-rule="evenodd" clip-rule="evenodd" d="M20.8236 9.8735L21.2598 10.3096C21.6052 10.6488 21.793 11.1091 21.793 11.5936C21.7991 12.0782 21.6112 12.5391 21.2719 12.8838C21.2679 12.8882 21.2638 12.8921 21.2598 12.896C21.2578 12.898 21.2558 12.8999 21.2537 12.9019L20.8236 13.332C20.6539 13.5016 20.557 13.7317 20.557 13.9746V14.5978C20.557 15.6033 19.739 16.4216 18.7332 16.4216H18.1091C17.8667 16.4216 17.6365 16.5179 17.4668 16.6875L17.0306 17.1236C16.6731 17.4815 16.2066 17.6566 15.74 17.6566C15.2735 17.6566 14.8069 17.4815 14.4494 17.1302L14.0071 16.6875C13.8375 16.5179 13.6072 16.4216 13.3649 16.4216H12.7408C11.735 16.4216 10.917 15.6033 10.917 14.5978V13.9746C10.917 13.7317 10.8201 13.5016 10.6504 13.3259L10.2142 12.8959C9.50526 12.1878 9.4992 11.0304 10.2081 10.3163L10.6504 9.8735C10.8201 9.70391 10.917 9.47375 10.917 9.22542V8.60762C10.917 7.60218 11.735 6.78511 12.7408 6.78511H13.3649C13.6072 6.78511 13.8375 6.6876 14.0071 6.51801L14.4434 6.08191C15.1523 5.36781 16.3096 5.36781 17.0245 6.07646L17.4668 6.51801C17.6365 6.6876 17.8667 6.78511 18.1091 6.78511H18.7332C19.739 6.78511 20.557 7.60218 20.557 8.60762V9.23208C20.557 9.47375 20.6539 9.70391 20.8236 9.8735ZM14.1768 13.6893C14.3222 13.6893 14.4555 13.6348 14.5524 13.5318L17.6668 10.4192C17.8728 10.2133 17.8728 9.87346 17.6668 9.66753C17.4608 9.4622 17.1275 9.4622 16.9215 9.66753L13.8072 12.7807C13.6012 12.9867 13.6012 13.3259 13.8072 13.5318C13.9041 13.6348 14.0374 13.6893 14.1768 13.6893ZM16.764 13.1563C16.764 13.4531 17.0003 13.6893 17.2972 13.6893C17.588 13.6893 17.8243 13.4531 17.8243 13.1563C17.8243 12.8662 17.588 12.6293 17.2972 12.6293C17.0003 12.6293 16.764 12.8662 16.764 13.1563ZM14.1828 9.51612C14.4737 9.51612 14.71 9.75234 14.71 10.0431C14.71 10.3405 14.4737 10.5761 14.1828 10.5761C13.892 10.5761 13.6496 10.3405 13.6496 10.0431C13.6496 9.75234 13.892 9.51612 14.1828 9.51612Z" fill="#2ABF2D"/>
<path d="M31.314 15.1023V7.21991H36.2854L36.28 8.10845H32.3279V10.6814H35.8875V11.5645H32.3224V14.192L36.389 14.2029V15.1023H31.314ZM42.7325 15.1023H41.6369L39.9961 12.8946L38.3662 15.1023H37.2596L39.4346 12.175L37.434 9.46579H38.5351L39.9961 11.4446L41.4624 9.46579H42.5636L40.5575 12.175L42.7325 15.1023ZM46.6828 10.2017H45.4126V13.7068C45.4126 13.9067 45.4326 14.0539 45.4726 14.1483C45.5162 14.2392 45.5871 14.2973 45.6852 14.3228C45.787 14.3482 45.925 14.3609 46.0995 14.3609H46.7155V15.0369C46.6464 15.0623 46.541 15.0841 46.3993 15.1023C46.2612 15.1205 46.0886 15.1296 45.8814 15.1296C45.4926 15.1296 45.191 15.0769 44.9765 14.9715C44.7621 14.8661 44.6113 14.7098 44.5241 14.5027C44.4405 14.2955 44.3987 14.0411 44.3987 13.7395V10.2017H43.4829V9.46579H44.426L44.6713 7.82499H45.4126V9.46034H46.6828V10.2017ZM48.1311 15.1023V9.46579H49.0905V10.5506C49.185 10.2816 49.3176 10.06 49.4884 9.88553C49.6592 9.70746 49.8536 9.57481 50.0717 9.4876C50.2934 9.40038 50.5223 9.35677 50.7585 9.35677C50.8421 9.35677 50.9239 9.36222 51.0038 9.37312C51.0838 9.38402 51.1456 9.40219 51.1892 9.42763V10.4034C51.1347 10.378 51.0638 10.3616 50.9766 10.3543C50.893 10.3434 50.8221 10.338 50.764 10.338C50.5387 10.3234 50.3279 10.338 50.1316 10.3816C49.9354 10.4216 49.7628 10.4924 49.6138 10.5942C49.4648 10.6959 49.3467 10.8304 49.2595 10.9976C49.1759 11.1611 49.1341 11.361 49.1341 11.5972V15.1023H48.1311ZM53.7785 15.2113C53.4151 15.2113 53.0934 15.1477 52.8136 15.0205C52.5338 14.8897 52.3139 14.7025 52.154 14.4591C51.9978 14.2156 51.9196 13.9212 51.9196 13.576C51.9196 12.9509 52.1377 12.4857 52.5738 12.1805C53.0099 11.8752 53.7094 11.7117 54.6725 11.6899L55.6809 11.6626V11.2211C55.6809 10.8758 55.5774 10.6033 55.3702 10.4034C55.1631 10.1999 54.8414 10.0981 54.4054 10.0981C54.0819 10.1018 53.7966 10.1781 53.5495 10.3271C53.306 10.4761 53.148 10.7196 53.0753 11.0575H52.1867C52.2085 10.6905 52.3121 10.3816 52.4974 10.1308C52.6828 9.87645 52.9408 9.68384 53.2715 9.55301C53.6058 9.42218 54.0002 9.35677 54.4544 9.35677C54.945 9.35677 55.352 9.42582 55.6755 9.56391C56.0025 9.70201 56.246 9.90552 56.4059 10.1744C56.5695 10.4434 56.6512 10.7741 56.6512 11.1666V15.1023H55.7899L55.7191 14.0448C55.501 14.4845 55.223 14.7898 54.8851 14.9606C54.5507 15.1277 54.1819 15.2113 53.7785 15.2113ZM54.0837 14.4863C54.2727 14.4863 54.4599 14.4518 54.6452 14.3827C54.8342 14.3137 55.0068 14.221 55.1631 14.1047C55.3193 13.9848 55.4429 13.8522 55.5337 13.7068C55.6282 13.5578 55.6773 13.4052 55.6809 13.2489V12.284L54.8414 12.3004C54.4126 12.3077 54.0528 12.3513 53.7621 12.4312C53.475 12.5112 53.2588 12.6366 53.1134 12.8074C52.9717 12.9782 52.9008 13.2017 52.9008 13.4778C52.9008 13.794 53.0099 14.0411 53.2279 14.2192C53.4496 14.3973 53.7349 14.4863 54.0837 14.4863ZM62.0797 15.1023V8.82801H60.5589V8.16841C61.0313 8.16841 61.3983 8.13389 61.66 8.06484C61.9217 7.99579 62.107 7.8904 62.216 7.74867C62.3287 7.60694 62.3905 7.43069 62.4014 7.21991H63.1209V15.1023H62.0797ZM65.7672 7.21991H70.4715L70.4443 8.0921H66.6285L66.4268 10.6378C66.6884 10.3943 66.9737 10.2217 67.2826 10.1199C67.5952 10.0145 67.9331 9.96185 68.2965 9.96185C68.7726 9.96185 69.2105 10.06 69.6103 10.2562C70.0137 10.4488 70.3371 10.7359 70.5806 11.1175C70.8241 11.4954 70.9458 11.9642 70.9458 12.5239C70.9458 13.069 70.8277 13.5433 70.5915 13.9466C70.3553 14.35 70.0227 14.6644 69.5939 14.8897C69.1651 15.1114 68.6618 15.2222 68.0839 15.2222C67.597 15.2222 67.1463 15.1368 66.7321 14.966C66.3178 14.7952 65.9616 14.5572 65.6636 14.2519C65.3693 13.9466 65.153 13.596 65.0149 13.1998L65.8871 12.8346C66.0179 13.1326 66.1815 13.3979 66.3777 13.6305C66.5776 13.8631 66.8138 14.0448 67.0864 14.1756C67.3589 14.3064 67.6678 14.3718 68.0131 14.3718C68.5727 14.3718 69.0215 14.2101 69.3595 13.8867C69.7011 13.5596 69.8719 13.1163 69.8719 12.5566C69.8719 12.2077 69.792 11.9043 69.6321 11.6463C69.4722 11.3846 69.2559 11.1811 68.9834 11.0357C68.7145 10.8904 68.4165 10.8177 68.0894 10.8177C67.875 10.8177 67.6751 10.8377 67.4898 10.8776C67.3044 10.914 67.1209 10.9867 66.9392 11.0957C66.7575 11.2047 66.5667 11.3701 66.3668 11.5917C66.345 11.6026 66.3287 11.6081 66.3178 11.6081C66.3069 11.6045 66.2887 11.5972 66.2633 11.5863L65.4129 11.3192L65.7672 7.21991ZM73.929 7.09999C74.2815 7.09999 74.5976 7.19266 74.8775 7.378C75.1573 7.56334 75.3771 7.82499 75.537 8.16296C75.6969 8.50094 75.7769 8.89887 75.7769 9.35677C75.7769 9.81467 75.6969 10.2108 75.537 10.5451C75.3808 10.8795 75.1627 11.1393 74.8829 11.3246C74.6031 11.5063 74.2851 11.5972 73.929 11.5972C73.5692 11.5972 73.2476 11.5063 72.9641 11.3246C72.6843 11.1393 72.4626 10.8795 72.2991 10.5451C72.1355 10.2108 72.0538 9.81467 72.0538 9.35677C72.0538 8.89887 72.1355 8.50094 72.2991 8.16296C72.4626 7.82499 72.6843 7.56334 72.9641 7.378C73.2476 7.19266 73.5692 7.09999 73.929 7.09999ZM73.9181 11.0357C74.2669 11.0357 74.534 10.8813 74.7194 10.5724C74.9083 10.2635 75.0028 9.85828 75.0028 9.35677C75.0028 8.84799 74.9083 8.43916 74.7194 8.13026C74.5304 7.81772 74.2633 7.66146 73.9181 7.66146C73.6855 7.66146 73.4874 7.73414 73.3239 7.8795C73.164 8.02123 73.0404 8.21929 72.9532 8.47368C72.8696 8.72807 72.8278 9.02243 72.8278 9.35677C72.8278 9.85464 72.9223 10.2598 73.1113 10.5724C73.3003 10.8813 73.5692 11.0357 73.9181 11.0357ZM78.8623 10.7032C79.2184 10.7032 79.5364 10.7977 79.8162 10.9867C80.096 11.172 80.3159 11.4337 80.4758 11.7716C80.6357 12.1096 80.7157 12.5057 80.7157 12.96C80.7157 13.4179 80.6357 13.8158 80.4758 14.1538C80.3195 14.4918 80.1015 14.7534 79.8217 14.9388C79.5418 15.1205 79.222 15.2113 78.8623 15.2113C78.5025 15.2113 78.1809 15.1205 77.8974 14.9388C77.6139 14.7534 77.3923 14.4918 77.2324 14.1538C77.0725 13.8158 76.9925 13.4179 76.9925 12.96C76.9925 12.5057 77.0725 12.1096 77.2324 11.7716C77.3959 11.4337 77.6194 11.172 77.9029 10.9867C78.1863 10.7977 78.5061 10.7032 78.8623 10.7032ZM78.8514 14.6389C79.0767 14.6389 79.2711 14.5681 79.4346 14.4264C79.5982 14.281 79.7235 14.0829 79.8108 13.8322C79.898 13.5814 79.9416 13.2943 79.9416 12.9709C79.9416 12.6402 79.8962 12.3476 79.8053 12.0933C79.7181 11.8352 79.5927 11.6335 79.4292 11.4882C79.2656 11.3428 79.073 11.2701 78.8514 11.2701C78.6297 11.2701 78.4371 11.3446 78.2735 11.4936C78.11 11.639 77.9846 11.8407 77.8974 12.0987C77.8102 12.3531 77.7666 12.6438 77.7666 12.9709C77.7666 13.2943 77.8102 13.5814 77.8974 13.8322C77.9846 14.0829 78.1082 14.281 78.2681 14.4264C78.4316 14.5681 78.626 14.6389 78.8514 14.6389ZM79.3147 7.13269L74.0162 15.1459L73.3348 15.1405L78.6551 7.13269H79.3147ZM86.7836 15.2113C86.2639 15.2113 85.8096 15.1005 85.4208 14.8788C85.0319 14.6535 84.7303 14.3246 84.5159 13.8921C84.3015 13.4597 84.1943 12.9309 84.1943 12.3058C84.1943 11.7171 84.2942 11.2011 84.4941 10.7577C84.694 10.3144 84.9865 9.97093 85.3717 9.72745C85.7606 9.48033 86.2312 9.35677 86.7836 9.35677C87.3032 9.35677 87.7539 9.47124 88.1355 9.70019C88.5207 9.92551 88.8187 10.258 89.0294 10.6978C89.2402 11.1375 89.3456 11.6735 89.3456 12.3058C89.3456 12.88 89.2475 13.3852 89.0512 13.8213C88.8586 14.2574 88.5715 14.599 88.19 14.8461C87.812 15.0896 87.3432 15.2113 86.7836 15.2113ZM86.7836 14.4154C87.1215 14.4154 87.4068 14.33 87.6394 14.1592C87.872 13.9884 88.0482 13.7431 88.1682 13.4233C88.2881 13.1035 88.348 12.7238 88.348 12.284C88.348 11.8807 88.2954 11.5191 88.19 11.1993C88.0846 10.8758 87.9156 10.6196 87.683 10.4306C87.4541 10.2417 87.1542 10.1472 86.7836 10.1472C86.442 10.1472 86.153 10.2326 85.9168 10.4034C85.6806 10.5706 85.5007 10.814 85.3772 11.1338C85.2572 11.4536 85.1973 11.837 85.1973 12.284C85.1973 12.6802 85.2518 13.0399 85.3608 13.3634C85.4698 13.6868 85.6406 13.943 85.8732 14.132C86.1058 14.321 86.4092 14.4154 86.7836 14.4154ZM93.6249 9.46579V10.2017H92.2567V15.1023H91.2428V10.2017H90.0544V9.46579H91.2428V8.59361C91.2428 8.14661 91.3573 7.80682 91.5862 7.57424C91.8152 7.33802 92.1568 7.21991 92.611 7.21991H93.674L93.6795 7.93401H92.8345C92.6056 7.93401 92.4493 7.99579 92.3657 8.11935C92.2821 8.24291 92.2403 8.43007 92.2403 8.68082V9.46579H93.6249ZM97.8517 9.46579V10.2017H96.4835V15.1023H95.4696V10.2017H94.2812V9.46579H95.4696V8.59361C95.4696 8.14661 95.584 7.80682 95.813 7.57424C96.0419 7.33802 96.3835 7.21991 96.8378 7.21991H97.9008L97.9062 7.93401H97.0613C96.8324 7.93401 96.6761 7.99579 96.5925 8.11935C96.5089 8.24291 96.4671 8.43007 96.4671 8.68082V9.46579H97.8517Z" fill="#2ABF2D"/>
</svg>
