<svg width="77" height="32" viewBox="0 0 77 32" fill="none" xmlns="http://www.w3.org/2000/svg">
<path fill-rule="evenodd" clip-rule="evenodd" d="M35.569 25.0309V15.6399H40.3089C42.2512 15.6399 43.8905 14.9744 45.227 13.6619L45.5477 13.3292C47.9889 10.6117 47.8285 6.37839 45.227 3.86428C43.9262 2.53328 42.1442 1.81232 40.3089 1.84929H32.7001V25.0309H35.569ZM35.5694 12.7929V4.69595H40.3813C41.415 4.69595 42.3952 5.10264 43.1259 5.84209C44.6764 7.39492 44.712 9.98298 43.215 11.5913C42.4843 12.3862 41.4506 12.8298 40.3813 12.7929H35.5694Z" fill="#3C4043"/>
<path fill-rule="evenodd" clip-rule="evenodd" d="M58.9299 10.4082C57.7004 9.24359 56.0254 8.65204 53.9049 8.65204C51.1786 8.65204 49.1294 9.68726 47.7752 11.7392L50.3055 13.3845C51.2321 11.9795 52.4972 11.2771 54.1009 11.2771C55.1166 11.2771 56.0967 11.6653 56.8629 12.3677C57.6113 13.0332 58.039 13.9945 58.039 15.0113V15.6953C56.9342 15.0667 55.5443 14.734 53.8337 14.734C51.8379 14.734 50.2342 15.2146 49.0403 16.1944C47.8464 17.1741 47.2406 18.4682 47.2406 20.1134C47.2049 21.6108 47.8286 23.0342 48.9334 23.9955C50.056 25.0307 51.4815 25.5484 53.1565 25.5484C55.1345 25.5484 56.7025 24.6425 57.8964 22.8309H58.0212V25.0307H60.7653V15.2516C60.7653 13.1996 60.1594 11.5728 58.9299 10.4082ZM51.1435 22.11C50.5553 21.6663 50.1989 20.9454 50.1989 20.169C50.1989 19.3001 50.591 18.5792 51.3573 18.0061C52.1415 17.433 53.1217 17.1372 54.2801 17.1372C55.8841 17.1188 57.1316 17.4885 58.0227 18.2279C58.0227 19.485 57.5416 20.5757 56.597 21.5C55.7415 22.3873 54.5831 22.8864 53.3712 22.8864C52.5692 22.9049 51.7851 22.6276 51.1435 22.11Z" fill="#3C4043"/>
<path d="M66.9308 32L76.5175 9.16963H73.3991L68.9622 20.5571H68.9087L64.3648 9.16963H61.2465L67.5366 24.014L63.9728 32H66.9308Z" fill="#3C4043"/>
<path d="M25.6646 13.6065C25.6646 12.7007 25.5933 11.7949 25.4508 10.9076H13.3516V16.0282H20.2832C19.9981 17.6735 19.0715 19.1524 17.7172 20.0767V23.4042H21.8513C24.2747 21.0934 25.6646 17.6735 25.6646 13.6065Z" fill="#4285F4"/>
<path d="M13.3521 26.6209C16.809 26.6209 19.7308 25.4377 21.8513 23.4042L17.7172 20.0767C16.559 20.8901 15.0805 21.3524 13.3521 21.3524C10.0021 21.3524 7.16882 19.0046 6.15313 15.862H1.89436V19.3004C4.06829 23.7925 8.50525 26.6209 13.3521 26.6209Z" fill="#34A853"/>
<path d="M6.15313 15.862C5.61847 14.2167 5.61898 12.4235 6.15364 10.7597V7.33979H1.89419C0.0585252 11.0925 0.0585252 15.5291 1.89419 19.2818L6.15313 15.862Z" fill="#FBBC04"/>
<path d="M13.3521 5.26935C15.1874 5.23238 16.9515 5.95334 18.2701 7.26585L21.9409 3.45771C19.6066 1.2024 16.5417 -0.0361677 13.3521 0.000804534C8.50525 0.000804534 4.06812 2.84766 1.89419 7.33979L6.15313 10.7782C7.16882 7.61709 10.0021 5.26935 13.3521 5.26935Z" fill="#EA4335"/>
</svg>
