<svg width="132" height="39" viewBox="0 0 132 39" fill="none" xmlns="http://www.w3.org/2000/svg">
<g clip-path="url(#clip0_1782_10829)">
<path d="M128.404 0.696289H3.40669C2.22696 0.696289 1.2706 1.65153 1.2706 2.82987V35.9004C1.2706 37.0787 2.22696 38.0339 3.40669 38.0339H128.404C129.584 38.0339 130.54 37.0787 130.54 35.9004V2.82987C130.54 1.65153 129.584 0.696289 128.404 0.696289Z" stroke="#3866DF" stroke-width="1.30184"/>
<path d="M31.6051 18.4676C31.5804 15.5141 34.0271 14.0745 34.1411 14.0101C32.7542 11.9917 30.6046 11.7146 29.8468 11.6948C28.0389 11.5069 26.2905 12.7733 25.3693 12.7733C24.4331 12.7733 23.0165 11.7146 21.4861 11.7443C19.5197 11.774 17.6821 12.9119 16.6767 14.6731C14.5964 18.2697 16.1467 23.5533 18.1428 26.4623C19.1383 27.8871 20.3023 29.4752 21.8278 29.4207C23.3187 29.3613 23.8784 28.4708 25.6763 28.4708C27.4594 28.4708 27.9844 29.4207 29.5397 29.3861C31.1395 29.3613 32.15 27.9563 33.1108 26.5217C34.2649 24.8891 34.7255 23.2812 34.7454 23.2021C34.7057 23.1773 31.6348 22.0049 31.6051 18.4676ZM28.668 9.78025C29.4703 8.77598 30.0201 7.4155 29.8666 6.03027C28.7076 6.07972 27.2514 6.8317 26.4193 7.81128C25.6813 8.67703 25.0176 10.0919 25.191 11.4227C26.4886 11.5167 27.8309 10.7647 28.668 9.78025Z" fill="#3866DF"/>
<path d="M53.2127 29.209H51.1276L49.9834 25.6272H46.016L44.9263 29.209H42.8956L46.8283 17.0091H49.2553L53.2127 29.209ZM49.6416 24.1232L48.6064 20.9372C48.4975 20.6107 48.2894 19.8439 47.9923 18.6368H47.9576C47.8387 19.1562 47.6406 19.923 47.3781 20.9372L46.3627 24.1232H49.6416ZM63.3073 24.702C63.3073 26.1961 62.9009 27.3785 62.0887 28.2492C61.3603 29.021 60.454 29.4069 59.3742 29.4069C58.2053 29.4069 57.3685 28.9913 56.8585 28.1601V32.7759H54.9018V23.302C54.9018 22.362 54.8772 21.3973 54.8276 20.4128H56.5509L56.6603 21.8079H56.6945C57.3487 20.7591 58.3393 20.2297 59.6664 20.2297C60.7066 20.2297 61.5733 20.6404 62.267 21.4616C62.9602 22.2829 63.3073 23.3663 63.3073 24.702ZM61.3159 24.7762C61.3159 23.9204 61.1226 23.213 60.7365 22.6589C60.3152 22.08 59.7459 21.7931 59.0325 21.7931C58.5524 21.7931 58.1113 21.9563 57.7198 22.273C57.3289 22.5945 57.071 23.0151 56.9525 23.5295C56.898 23.7225 56.8681 23.9253 56.8633 24.1232V25.5925C56.8633 26.2308 57.0614 26.77 57.4528 27.2152C57.8437 27.6556 58.3543 27.8781 58.9828 27.8781C59.7208 27.8781 60.2954 27.5912 60.7066 27.0273C61.1077 26.4534 61.3159 25.7063 61.3159 24.7762ZM73.4409 24.702C73.4409 26.1961 73.0351 27.3785 72.2223 28.2492C71.4944 29.021 70.5882 29.4069 69.5084 29.4069C68.3394 29.4069 67.5021 28.9913 66.9921 28.1601V32.7759H65.0354V23.302C65.0354 22.362 65.0108 21.3973 64.9612 20.4128H66.685L66.7939 21.8079H66.8287C67.4823 20.7591 68.4729 20.2297 69.8005 20.2297C70.8408 20.2297 71.7075 20.6404 72.4006 21.4616C73.0895 22.2829 73.4409 23.3663 73.4409 24.702ZM71.4447 24.7762C71.4447 23.9204 71.252 23.213 70.8653 22.6589C70.4445 22.08 69.8747 21.7931 69.1618 21.7931C68.6812 21.7931 68.2401 21.9563 67.8438 22.273C67.4529 22.5945 67.195 23.0151 67.0764 23.5295C67.0166 23.772 66.9825 23.9699 66.9825 24.1232V25.5925C66.9825 26.2308 67.1806 26.77 67.5715 27.2152C67.9629 27.6556 68.4729 27.8781 69.1073 27.8781C69.8448 27.8781 70.4194 27.5912 70.8306 27.0273C71.2418 26.4534 71.4447 25.7063 71.4447 24.7762ZM84.7686 25.7904C84.7686 26.8294 84.4071 27.6753 83.684 28.3234C82.8915 29.0358 81.777 29.392 80.3554 29.392C79.0428 29.392 77.9881 29.1397 77.1903 28.6301L77.641 27.0025C78.4981 27.5121 79.4439 27.7644 80.4692 27.7644C81.2072 27.7644 81.7818 27.5962 82.193 27.2647C82.6042 26.9332 82.8119 26.488 82.8119 25.9339C82.8119 25.4392 82.6389 25.0236 82.3019 24.6823C81.965 24.3458 81.4053 24.0292 80.6182 23.7423C78.4784 22.9458 77.4082 21.7782 77.4082 20.2496C77.4082 19.2502 77.7847 18.429 78.5424 17.7908C79.2954 17.1526 80.2962 16.8311 81.5442 16.8311C82.6539 16.8311 83.5799 17.024 84.3179 17.4098L83.8277 19.0029C83.134 18.6269 82.3564 18.4438 81.4796 18.4438C80.7912 18.4438 80.2465 18.612 79.8599 18.9484C79.533 19.2502 79.3696 19.6163 79.3696 20.0517C79.3696 20.5315 79.5581 20.9323 79.9346 21.2439C80.2615 21.5309 80.8505 21.8475 81.7076 22.1839C82.7575 22.6094 83.5302 23.0991 84.0258 23.6681C84.5208 24.237 84.7686 24.9445 84.7686 25.7904ZM91.257 21.8821H89.0974V26.1516C89.0974 27.24 89.4787 27.7792 90.2418 27.7792C90.5932 27.7792 90.8805 27.7495 91.1133 27.6902L91.1678 29.1743C90.7817 29.3178 90.2765 29.392 89.6474 29.392C88.8747 29.392 88.2702 29.1546 87.8344 28.6846C87.3987 28.2146 87.1808 27.423 87.1808 26.3149V21.8821H85.8981V20.4178H87.1808V18.805L89.1027 18.2261V20.4178H91.2618L91.257 21.8821ZM100.97 24.7416C100.97 26.0922 100.584 27.2054 99.8109 28.0711C99.0035 28.9665 97.929 29.4118 96.5865 29.4118C95.2936 29.4118 94.2635 28.9814 93.4956 28.1305C92.7282 27.2746 92.3469 26.1912 92.3469 24.8901C92.3469 23.5246 92.7432 22.4115 93.5356 21.5408C94.3281 20.6701 95.393 20.2397 96.735 20.2397C98.0278 20.2397 99.0681 20.6701 99.8505 21.5259C100.593 22.3521 100.97 23.4257 100.97 24.7416ZM98.9394 24.7862C98.9394 23.9798 98.7659 23.2872 98.4139 22.7133C98.0033 22.0157 97.4185 21.6645 96.6559 21.6645C95.8731 21.6645 95.2691 22.0157 94.8627 22.7133C94.5113 23.2921 94.3377 23.9946 94.3377 24.8257C94.3377 25.6321 94.5113 26.3247 94.8627 26.9036C95.284 27.6011 95.8784 27.9524 96.641 27.9524C97.3892 27.9524 97.9734 27.5962 98.3995 26.8887C98.7611 26.2901 98.9394 25.5925 98.9394 24.7862ZM107.335 22.1344C107.131 22.0998 106.924 22.08 106.715 22.08C106.027 22.08 105.497 22.3373 105.121 22.8568C104.794 23.3168 104.63 23.8957 104.63 24.5932V29.209H102.674V23.1833C102.674 22.2581 102.659 21.3379 102.619 20.4128H104.323L104.392 22.0949H104.447C104.655 21.516 104.977 21.051 105.428 20.6998C105.834 20.393 106.334 20.2297 106.844 20.2297C107.028 20.2297 107.186 20.2446 107.335 20.2644V22.1344ZM116.087 24.3953C116.092 24.6922 116.067 24.989 116.017 25.2809H110.143C110.163 26.1516 110.45 26.8145 110.995 27.2746C111.49 27.6852 112.129 27.8881 112.917 27.8881C113.788 27.8881 114.581 27.7495 115.294 27.4725L115.601 28.828C114.769 29.1892 113.784 29.3722 112.649 29.3722C111.282 29.3722 110.212 28.9715 109.43 28.1701C108.652 27.3686 108.261 26.2901 108.261 24.9395C108.261 23.6137 108.622 22.5104 109.351 21.6298C110.108 20.6898 111.139 20.2199 112.431 20.2199C113.699 20.2199 114.66 20.6898 115.314 21.6298C115.824 22.3769 116.087 23.297 116.087 24.3953ZM114.219 23.8907C114.234 23.3119 114.106 22.8122 113.838 22.3867C113.501 21.8426 112.976 21.5705 112.278 21.5705C111.639 21.5705 111.119 21.8376 110.717 22.3669C110.39 22.7875 110.198 23.297 110.138 23.8858L114.219 23.8907Z" fill="#3866DF"/>
<path d="M45.4507 12.6991C44.9059 12.6991 44.4354 12.6743 44.044 12.6298V6.72779C44.5939 6.64367 45.1486 6.59913 45.7034 6.60409C47.947 6.60409 48.9822 7.70731 48.9822 9.50315C48.9773 11.576 47.7589 12.6991 45.4507 12.6991ZM45.7825 7.36103C45.4805 7.36103 45.2229 7.38082 45.0099 7.42531V11.9075C45.1238 11.9273 45.3467 11.9322 45.6588 11.9322C47.1298 11.9322 47.9669 11.0962 47.9669 9.53286C47.9619 8.1328 47.2041 7.36103 45.7825 7.36103ZM52.2017 12.7436C50.9387 12.7436 50.1165 11.7987 50.1165 10.5173C50.1165 9.18156 50.9535 8.23175 52.2711 8.23175C53.5192 8.23175 54.3564 9.13212 54.3564 10.4481C54.3564 11.7987 53.4945 12.7436 52.2017 12.7436ZM52.2364 8.93423C51.5429 8.93423 51.0972 9.5823 51.0972 10.4926C51.0972 11.3831 51.5529 12.0312 52.2265 12.0312C52.9051 12.0312 53.3558 11.3386 53.3558 10.4728C53.3607 9.59222 52.9149 8.93423 52.2364 8.93423ZM61.5679 8.32077L60.2157 12.6446H59.3341L58.7744 10.7696C58.6356 10.3095 58.517 9.84452 58.4278 9.37454H58.4081C58.3386 9.84452 58.2046 10.3195 58.0609 10.7696L57.4666 12.6446H56.5753L55.3022 8.32077H56.2928L56.783 10.3739C56.8973 10.8636 56.9961 11.3237 57.0757 11.764H57.0954C57.1649 11.3979 57.2834 10.9477 57.4522 10.3838L58.0663 8.32077H58.8486L59.4382 10.3392C59.5818 10.829 59.6956 11.3089 59.7848 11.764H59.8093C59.8739 11.3188 59.9679 10.8488 60.102 10.3392L60.6269 8.32077H61.5679ZM66.5556 12.6446H65.5949V10.1611C65.5949 9.39433 65.3023 9.01338 64.7229 9.01338C64.1536 9.01338 63.7622 9.50315 63.7622 10.0721V12.6446H62.8015V9.55755C62.8015 9.17666 62.7913 8.76605 62.7667 8.32077H63.6137L63.658 8.98863H63.6826C63.9405 8.52858 64.4655 8.23175 65.055 8.23175C65.9613 8.23175 66.5604 8.92436 66.5604 10.0572L66.5556 12.6446ZM69.2055 12.6446H68.2447V6.33691H69.2055V12.6446ZM72.7172 12.7436C71.4542 12.7436 70.6318 11.7987 70.6318 10.5173C70.6318 9.18156 71.4692 8.23175 72.7866 8.23175C74.0346 8.23175 74.872 9.13212 74.872 10.4481C74.872 11.7987 74.0052 12.7436 72.7172 12.7436ZM72.7519 8.93423C72.0582 8.93423 71.6128 9.5823 71.6128 10.4926C71.6128 11.3831 72.0683 12.0312 72.7417 12.0312C73.4205 12.0312 73.8712 11.3386 73.8712 10.4728C73.8712 9.59222 73.4306 8.93423 72.7519 8.93423ZM78.6657 12.6446L78.5962 12.1449H78.5717C78.2796 12.5457 77.8486 12.7386 77.3039 12.7386C76.5258 12.7386 75.9763 12.1944 75.9763 11.4672C75.9763 10.3986 76.9023 9.84948 78.5071 9.84948V9.77032C78.5071 9.20135 78.2053 8.91444 77.611 8.91444C77.1848 8.91444 76.8083 9.0233 76.4815 9.23602L76.2882 8.60278C76.6898 8.35539 77.1896 8.22679 77.7744 8.22679C78.9033 8.22679 79.4779 8.82045 79.4779 10.0127V11.6057C79.4779 12.0411 79.4977 12.3824 79.5425 12.6397L78.6657 12.6446ZM78.5322 10.4926C77.462 10.4926 76.9274 10.7498 76.9274 11.3633C76.9274 11.8185 77.2046 12.0411 77.5859 12.0411C78.0766 12.0411 78.5322 11.67 78.5322 11.1605V10.4926ZM84.1389 12.6446L84.0945 11.952H84.0694C83.7923 12.4764 83.3266 12.7436 82.6778 12.7436C81.6327 12.7436 80.86 11.8284 80.86 10.5371C80.86 9.18652 81.6626 8.23175 82.7568 8.23175C83.3368 8.23175 83.7474 8.42467 83.9754 8.82045H83.9952V6.33691H84.9559V11.4771C84.9559 11.8926 84.9661 12.2884 84.9906 12.6397H84.1389V12.6446ZM84 10.1018C84 9.49819 83.599 8.97877 82.9848 8.97877C82.2714 8.97877 81.8356 9.61201 81.8356 10.4976C81.8356 11.3683 82.2863 11.9669 82.9651 11.9669C83.5691 11.9669 84 11.4425 84 10.8191V10.1018ZM91.0683 12.7436C89.8054 12.7436 88.983 11.7987 88.983 10.5173C88.983 9.18156 89.8198 8.23175 91.1377 8.23175C92.3858 8.23175 93.2226 9.13212 93.2226 10.4481C93.2226 11.7987 92.3612 12.7436 91.0683 12.7436ZM91.103 8.93423C90.4093 8.93423 89.9634 9.5823 89.9634 10.4926C89.9634 11.3831 90.4195 12.0312 91.0929 12.0312C91.7716 12.0312 92.2223 11.3386 92.2223 10.4728C92.2271 9.59222 91.7812 8.93423 91.103 8.93423ZM98.3988 12.6446H97.4376V10.1611C97.4376 9.39433 97.1455 9.01338 96.5661 9.01338C95.9963 9.01338 95.6054 9.50315 95.6054 10.0721V12.6446H94.6441V9.55755C94.6441 9.17666 94.6345 8.76605 94.6094 8.32077H95.4564L95.5012 8.98863H95.5258C95.7837 8.52858 96.3087 8.23175 96.8977 8.23175C97.8045 8.23175 98.4036 8.92436 98.4036 10.0572V12.6446H98.3988ZM104.867 9.04304H103.807V11.1407C103.807 11.675 103.991 11.9421 104.367 11.9421C104.535 11.9421 104.679 11.9224 104.793 11.8976L104.818 12.6248C104.63 12.6941 104.382 12.7337 104.07 12.7337C103.312 12.7337 102.856 12.3181 102.856 11.2198V9.03813H102.222V8.31581H102.856V7.52425L103.803 7.23734V8.31581H104.863L104.867 9.04304ZM109.964 12.6446H109.003V10.1809C109.003 9.40916 108.711 9.01834 108.131 9.01834C107.631 9.01834 107.171 9.35475 107.171 10.0424V12.6496H106.209V6.33691H107.171V8.93423H107.19C107.493 8.46425 107.933 8.23175 108.493 8.23175C109.409 8.23175 109.969 8.94409 109.969 10.0721L109.964 12.6446ZM115.179 10.7152H112.292C112.312 11.5315 112.852 11.9966 113.654 11.9966C114.08 11.9966 114.476 11.9273 114.823 11.7937L114.972 12.4616C114.561 12.6397 114.08 12.7287 113.52 12.7287C112.168 12.7287 111.366 11.8729 111.366 10.552C111.366 9.2261 112.188 8.23175 113.411 8.23175C114.516 8.23175 115.209 9.048 115.209 10.2848C115.219 10.4234 115.209 10.5717 115.179 10.7152ZM114.298 10.0276C114.298 9.35966 113.961 8.88969 113.347 8.88969C112.792 8.88969 112.357 9.36958 112.297 10.0276H114.298Z" fill="#3866DF"/>
</g>
<defs>
<clipPath id="clip0_1782_10829">
<rect width="130.835" height="38.4044" fill="white" transform="translate(0.735443 0.162109)"/>
</clipPath>
</defs>
</svg>
