<svg width="52" height="49" viewBox="0 0 52 49" fill="none" xmlns="http://www.w3.org/2000/svg">
<path d="M47.0745 0.272461H4.71879C2.13704 0.272461 0.041708 2.36779 0.041708 4.94954V43.6477C0.041708 46.2388 2.13704 48.3248 4.71879 48.3248H47.0745C49.6656 48.3248 51.7515 46.2388 51.7515 43.6477V4.94954C51.7515 2.36779 49.6656 0.272461 47.0745 0.272461ZM6.99185 5.44531H16.4957V7.78386H6.99185V5.44531ZM44.792 25.9871C44.792 26.0993 44.7827 26.2116 44.7827 26.3238C44.7733 26.4267 44.7733 26.5203 44.764 26.6138C44.7546 26.7448 44.7453 26.8757 44.7359 27.016C44.7172 27.2312 44.6985 27.4463 44.6704 27.6615C44.6611 27.7831 44.6424 27.8953 44.6237 28.0076C44.605 28.1292 44.5956 28.2414 44.5769 28.3537C44.5582 28.4659 44.5395 28.5782 44.5208 28.6904C44.5114 28.7091 44.5114 28.7372 44.5021 28.7653C44.4834 28.8775 44.4646 28.9898 44.4366 29.0926C44.4272 29.1301 44.4272 29.1768 44.4179 29.2143C44.4085 29.2517 44.3992 29.2891 44.3898 29.3359C44.3711 29.4013 44.3524 29.4762 44.343 29.551C44.3337 29.551 44.3337 29.5604 44.3337 29.5604C44.3337 29.5791 44.3243 29.6071 44.3243 29.6258C44.315 29.6258 44.315 29.6446 44.315 29.6539C44.3056 29.6726 44.3056 29.6913 44.3056 29.71C44.2776 29.8223 44.2401 29.9439 44.2121 30.0561C44.2121 30.0748 44.2027 30.0842 44.2027 30.0936C44.1653 30.2339 44.1279 30.3742 44.0811 30.5145C44.0718 30.58 44.0531 30.6267 44.0344 30.6642C44.0063 30.7671 43.9782 30.8606 43.9408 30.9541C43.9221 31.029 43.9034 31.1038 43.8753 31.1693C43.8566 31.2441 43.8286 31.3096 43.8005 31.3844V31.4031C43.7537 31.5154 43.7163 31.6183 43.6789 31.7305C43.6695 31.7586 43.6602 31.7773 43.6508 31.8054C43.6415 31.8241 43.6415 31.8428 43.6321 31.8615C43.5854 31.9644 43.5479 32.0673 43.5105 32.1702C43.5012 32.1795 43.4918 32.1982 43.4825 32.2169C43.4357 32.3573 43.3796 32.4882 43.3141 32.6285C43.2486 32.7595 43.1925 32.8998 43.127 33.0308C43.1083 33.0869 43.0802 33.1337 43.0522 33.1898C43.0147 33.274 42.9773 33.3488 42.9399 33.433C42.9025 33.4985 42.8744 33.5639 42.837 33.6294C42.7996 33.6949 42.7715 33.751 42.7341 33.8165C42.6593 33.9475 42.5845 34.0784 42.519 34.2094C42.229 34.7239 41.911 35.2196 41.5742 35.6967C41.4807 35.837 41.3778 35.968 41.2749 36.1083C41.2094 36.1925 41.1533 36.2673 41.0878 36.3421C40.9568 36.5199 40.8165 36.6976 40.6669 36.866C40.6388 36.9034 40.6107 36.9408 40.5827 36.9689C40.4985 37.0624 40.4236 37.1559 40.3488 37.2401C40.3114 37.2869 40.2646 37.3337 40.2272 37.3804C40.2179 37.3898 40.2085 37.3992 40.1991 37.3992C40.0682 37.5488 39.9279 37.6891 39.7969 37.8294C39.7595 37.8575 39.7314 37.8949 39.7034 37.9136C39.5818 38.0446 39.4602 38.1662 39.3386 38.2785L39.3105 38.3065C39.3105 38.3065 39.2824 38.3252 39.2824 38.3346C39.1982 38.4188 39.1141 38.4936 39.0299 38.5684C38.9644 38.6339 38.8989 38.69 38.8334 38.7462C38.7492 38.821 38.6557 38.8958 38.5622 38.98C38.5248 39.0081 38.4967 39.0361 38.4593 39.0642C38.3751 39.139 38.2815 39.2045 38.1974 39.2793C38.1786 39.2887 38.1693 39.3074 38.1506 39.3168C38.1225 39.3355 38.0945 39.3635 38.0757 39.3822C38.0664 39.3822 38.057 39.3916 38.0477 39.4009C38.0477 39.4103 38.029 39.4103 38.0196 39.4197L37.9916 39.4477C37.9354 39.4758 37.898 39.5132 37.8512 39.5506C37.6548 39.7003 37.4584 39.8406 37.2526 39.9809C37.1778 40.037 37.1029 40.0838 37.0281 40.1399C36.9158 40.2148 36.8036 40.2896 36.6913 40.3644C36.5791 40.4299 36.4575 40.5047 36.3452 40.5796C36.3078 40.5983 36.2704 40.6263 36.233 40.6451C36.102 40.7292 35.9617 40.8041 35.8214 40.8789C35.7466 40.9257 35.6624 40.9724 35.5875 41.0099C35.5127 41.0566 35.4379 41.0941 35.3537 41.1315C35.2414 41.197 35.1292 41.2531 35.0169 41.3092C34.8673 41.384 34.7082 41.4589 34.5586 41.5337C34.4089 41.5992 34.2499 41.674 34.0909 41.7395C33.9599 41.7956 33.829 41.8517 33.6886 41.9079C33.5483 41.964 33.3893 42.0201 33.2396 42.0762C33.1929 42.0949 33.1461 42.1137 33.1087 42.1324C33.0619 42.1324 33.0151 42.1604 32.9684 42.1698C32.9403 42.1885 32.9122 42.1978 32.8748 42.2072C32.8468 42.2165 32.8281 42.2259 32.8 42.2353C32.7719 42.2446 32.7439 42.254 32.7252 42.2633C32.669 42.282 32.6223 42.2914 32.5661 42.3101C32.5474 42.3101 32.5287 42.3288 32.51 42.3288C32.5007 42.3382 32.4913 42.3382 32.4913 42.3382C32.4726 42.3475 32.4539 42.3475 32.4258 42.3569C32.2762 42.4036 32.1171 42.4504 31.9581 42.4972C31.8365 42.5252 31.7149 42.5627 31.5933 42.6001H31.5746C31.5746 42.6001 31.5185 42.6001 31.4904 42.6188C31.4811 42.6188 31.4623 42.6281 31.453 42.6281C31.4436 42.6281 31.4343 42.6375 31.4249 42.6375C31.3501 42.6562 31.2846 42.6655 31.2191 42.6843C31.1443 42.703 31.0788 42.7217 31.004 42.731C30.9759 42.7404 30.9385 42.7497 30.9011 42.7591C30.7421 42.7872 30.5831 42.8152 30.424 42.8526C30.2837 42.8807 30.1341 42.8994 29.9844 42.9275C29.9563 42.9368 29.9283 42.9368 29.9002 42.9368C29.8721 42.9462 29.8441 42.9462 29.816 42.9555C29.7692 42.9555 29.7318 42.9555 29.6851 42.9742C29.657 42.9836 29.6196 42.9836 29.5822 42.9836C29.5354 42.9929 29.498 43.0023 29.4512 43.0023C29.4231 43.0023 29.3951 43.0117 29.367 43.0117C29.3296 43.0117 29.2828 43.0117 29.2454 43.0304C29.1986 43.0304 29.1519 43.0397 29.1145 43.0397C29.0209 43.0491 28.9274 43.0678 28.8338 43.0678C28.7496 43.0678 28.6748 43.0865 28.6 43.0958C28.5251 43.0958 28.4503 43.1052 28.3755 43.1052C28.3474 43.1145 28.31 43.1146 28.2726 43.1146C28.1978 43.1239 28.1229 43.1239 28.0387 43.1239C27.9733 43.1333 27.9078 43.1333 27.8423 43.1333C27.7768 43.1333 27.7113 43.1333 27.6458 43.1333C27.571 43.1333 27.4962 43.1333 27.4214 43.1426H26.963C26.8882 43.1333 26.8133 43.1333 26.7385 43.1333C26.6169 43.1333 26.4953 43.1333 26.3737 43.1146H26.2895C26.1866 43.1146 26.0837 43.1052 25.9902 43.0958H25.8592C25.7095 43.0771 25.5692 43.0584 25.4196 43.0491H25.3728C25.3728 43.0491 25.3354 43.0397 25.3167 43.0397C25.2886 43.0397 25.2512 43.0304 25.2231 43.0304C25.1483 43.021 25.0828 43.0117 25.0173 43.0023L24.7928 42.9742C24.7928 42.9742 24.7648 42.9649 24.7461 42.9649C24.6899 42.9555 24.6432 42.9462 24.587 42.9462C24.4187 42.9181 24.2503 42.89 24.0819 42.862C23.979 42.8433 23.8761 42.8246 23.7732 42.8059C23.7639 42.7965 23.7545 42.7965 23.7452 42.7965C23.689 42.7872 23.6329 42.7778 23.5861 42.7591C23.53 42.7497 23.4739 42.7404 23.4178 42.7217C23.2213 42.6843 23.0342 42.6375 22.8472 42.5907C22.6694 42.5439 22.4823 42.4972 22.3046 42.4411C22.1643 42.4036 22.0333 42.3569 21.9024 42.3194C21.7621 42.2727 21.6311 42.2353 21.5002 42.1885C21.4066 42.1511 21.3037 42.123 21.2195 42.0856C21.0886 42.0388 20.9576 41.992 20.836 41.9359C20.7986 41.9266 20.7612 41.9172 20.7331 41.8985C20.7144 41.8985 20.7051 41.8985 20.6957 41.8985C20.6957 41.8892 20.677 41.8892 20.6676 41.8892C20.6396 41.8704 20.6022 41.8611 20.5741 41.8424C20.546 41.833 20.5086 41.8237 20.4806 41.805C20.359 41.7582 20.2467 41.7114 20.1345 41.6553C20.0035 41.5992 19.8632 41.5337 19.7229 41.4776C19.7042 41.4682 19.6855 41.4589 19.6667 41.4495C19.648 41.4402 19.6293 41.4308 19.62 41.4214C19.6106 41.4214 19.6013 41.4214 19.6013 41.4121C19.5639 41.3934 19.5171 41.3747 19.4797 41.356C19.4235 41.3279 19.3768 41.3092 19.3206 41.2811H19.3113C19.2177 41.2344 19.1242 41.1876 19.0307 41.1315C18.9184 41.0753 18.8062 41.0192 18.7033 40.9537C18.591 40.8976 18.4788 40.8321 18.3759 40.776C18.2636 40.7105 18.1607 40.645 18.0485 40.5796C17.9643 40.5328 17.8801 40.4767 17.7866 40.4205C17.7211 40.3738 17.6462 40.327 17.5714 40.2802C17.5246 40.2522 17.4779 40.2148 17.4217 40.1773C17.3188 40.1119 17.216 40.037 17.1131 39.9715C16.8979 39.8125 16.6828 39.6629 16.477 39.4945C16.3928 39.429 16.3086 39.3635 16.2244 39.298C16.1309 39.2232 16.0373 39.1484 15.9438 39.0735C15.9438 39.0642 15.9344 39.0642 15.9344 39.0642H15.9251C15.7474 38.9052 15.5696 38.7462 15.3919 38.5965C15.3732 38.5684 15.3451 38.5497 15.3171 38.5217C15.158 38.3813 14.999 38.2317 14.8493 38.0727C14.8306 38.0633 14.8119 38.0446 14.7932 38.0259L14.709 37.9323C14.55 37.7733 14.391 37.6143 14.2413 37.4459L14.1571 37.3617C14.101 37.2962 14.0355 37.2308 13.9794 37.156C13.9233 37.0998 13.8672 37.0343 13.811 36.9689C13.7923 36.9501 13.783 36.9314 13.7643 36.9221C13.7175 36.8566 13.6707 36.8005 13.6146 36.7444C13.6052 36.7257 13.5865 36.707 13.5772 36.6882C13.3901 36.4637 13.2124 36.2392 13.044 36.0054C12.9411 35.8744 12.8476 35.7341 12.754 35.6032C12.6605 35.4628 12.5669 35.3319 12.4734 35.1916C12.3799 35.0513 12.2957 34.9109 12.2115 34.7706C12.1366 34.6584 12.0712 34.5461 12.0057 34.4339C11.9496 34.3497 11.9028 34.2562 11.856 34.172C11.8092 34.0878 11.7531 33.9942 11.7063 33.9101C11.6315 33.7604 11.5567 33.6107 11.4725 33.461C11.3322 33.1804 11.1919 32.8811 11.0703 32.5817C11.0235 32.4882 10.9767 32.3853 10.9393 32.2918C10.9019 32.1982 10.8551 32.0953 10.8177 32.0018C10.8177 31.9924 10.8177 31.9737 10.8177 31.9644C10.7148 31.7118 10.6213 31.4499 10.5277 31.188C10.5277 31.1786 10.5184 31.1599 10.5184 31.1412C10.4622 30.9822 10.4155 30.8232 10.3687 30.6642C10.3594 30.6454 10.35 30.6267 10.35 30.608C10.3126 30.4958 10.2845 30.3835 10.2471 30.2713C10.2377 30.2432 10.2284 30.2058 10.219 30.1684C10.1816 30.0374 10.1536 29.8878 10.1161 29.7474C10.1068 29.71 10.0974 29.6726 10.0881 29.6352C10.0507 29.4855 10.0132 29.3265 9.98518 29.1768C9.97583 29.1488 9.97583 29.1207 9.96648 29.0926C9.94777 29.0272 9.93842 28.9523 9.92906 28.8775C9.91971 28.8401 9.91035 28.7933 9.901 28.7465C9.89165 28.7185 9.89164 28.6904 9.88229 28.6717C9.85423 28.4846 9.81681 28.3069 9.7981 28.1198C9.7794 28.0076 9.76068 27.8953 9.75133 27.7831C9.74198 27.7082 9.73262 27.6334 9.72327 27.5679C9.71391 27.4463 9.69521 27.3341 9.68585 27.2125C9.6765 27.147 9.6765 27.0815 9.66715 27.016C9.65779 26.9505 9.65779 26.8851 9.64843 26.8196C9.64843 26.7541 9.64843 26.698 9.63908 26.6325C9.63908 26.5764 9.62973 26.5109 9.62973 26.4548V26.4361C9.62037 26.2958 9.62037 26.1461 9.61102 25.9964V9.36471H16.5144V18.1763H16.5237V27.7176C16.5237 28.5688 16.8698 29.3452 17.4217 29.8971C17.4966 29.9719 17.5714 30.0374 17.6556 30.1122C17.7398 30.1777 17.824 30.2432 17.9269 30.2993C18.2823 30.5426 18.7126 30.7109 19.1616 30.7671C19.2177 30.7858 19.2739 30.7858 19.33 30.7951C19.4235 30.7951 19.5077 30.7951 19.6106 30.7951H21.5189C21.6405 30.8045 21.7714 30.8138 21.9024 30.8138C24.0539 30.7951 26.2147 30.7951 28.3661 30.7951C29.0396 30.7951 29.7131 30.8045 30.3866 30.8045H33.0245C34.6147 30.7951 35.8214 29.8223 36.1394 28.2788C36.5604 26.2303 36.9626 24.1724 37.3742 22.1238L37.5426 21.2539C37.6548 20.702 37.7764 20.1501 37.8887 19.5982C37.9074 19.5046 37.9167 19.4111 37.9167 19.3175C37.9167 19.0463 37.8419 18.7657 37.6548 18.5599C37.4023 18.2792 37.0374 18.167 36.5978 18.1576H34.9515C33.0151 18.1576 31.0975 18.1576 29.1706 18.1576H26.6824C26.2147 18.1576 25.747 18.1576 25.2792 18.1576H25.2699C24.4093 18.1576 23.5487 18.1576 22.6881 18.1576C21.6966 18.1576 20.7144 18.1576 19.7229 18.1576C19.6948 18.1576 19.6761 18.1576 19.648 18.1576H17.9269V10.5901C18.0672 10.4966 18.2169 10.403 18.3665 10.3282C18.7687 10.0756 19.1897 9.86048 19.6106 9.65469C19.62 9.65469 19.6387 9.64533 19.648 9.63598C19.8632 9.53308 20.0783 9.43019 20.3028 9.346C21.3037 8.91571 22.3607 8.56961 23.4458 8.3264C23.6329 8.28898 23.82 8.25157 24.0164 8.21415C24.11 8.19545 24.2035 8.17673 24.2971 8.16738C24.4561 8.13932 24.6058 8.11125 24.7648 8.09255C25.008 8.05513 25.2512 8.02706 25.4944 7.999L25.8873 7.97094H25.934C25.9995 7.96158 26.0556 7.95224 26.1211 7.95224C26.1866 7.95224 26.2427 7.94288 26.3082 7.94288H26.3363C26.4111 7.94288 26.4766 7.93353 26.5421 7.93353C26.6262 7.93353 26.7011 7.93353 26.7853 7.92418C26.9349 7.92418 27.1875 7.92418 27.3372 7.92418C27.3933 7.92418 27.4494 7.92418 27.5149 7.92418C27.5897 7.92418 27.6739 7.92417 27.7487 7.93353H28.0107C28.1136 7.94288 28.2165 7.94288 28.3194 7.95224H28.3381C28.3942 7.95224 28.4503 7.96159 28.5064 7.96159C28.5251 7.97094 28.5439 7.97094 28.5626 7.97094H28.5906C28.7029 7.97094 28.8151 7.98964 28.9367 7.999C28.9929 8.00835 29.0396 8.01771 29.0957 8.01771C29.1425 8.02706 29.1893 8.02707 29.2361 8.03642C29.3109 8.03642 29.3857 8.05513 29.4512 8.06448C29.5073 8.06448 29.5541 8.07384 29.6009 8.0832H29.6289C29.6289 8.0832 29.657 8.08319 29.6757 8.09255C29.7131 8.09255 29.7505 8.09255 29.7786 8.09255C29.816 8.1019 29.8534 8.1019 29.8909 8.11126C30.0218 8.12997 30.1434 8.14867 30.265 8.17673C30.2931 8.17673 30.3211 8.18609 30.3492 8.18609C30.4895 8.21416 30.6205 8.24221 30.7608 8.27028C30.7889 8.27028 30.8169 8.27964 30.8543 8.28899C30.873 8.28899 30.8918 8.29834 30.9105 8.29834C31.0882 8.33576 31.2753 8.38253 31.453 8.4293C31.5091 8.4293 31.5652 8.45735 31.6214 8.46671C31.6588 8.47606 31.7056 8.48541 31.743 8.49477C31.8365 8.52283 31.9301 8.5509 32.033 8.57897C32.3136 8.66315 32.5848 8.73798 32.8561 8.83152C32.9403 8.85958 33.0245 8.897 33.1087 8.92507C33.1648 8.94377 33.2116 8.96248 33.2677 8.98119C33.3706 9.01861 33.4641 9.05603 33.567 9.09345C33.7541 9.16828 33.9412 9.24312 34.1283 9.3273C34.306 9.40214 34.4838 9.47696 34.6521 9.55179C34.6615 9.56115 34.6802 9.57051 34.6895 9.57051C34.7737 9.60792 34.8579 9.6547 34.9421 9.69211C35.0356 9.73888 35.1292 9.78565 35.2227 9.83242C35.4005 9.92596 35.5688 10.0102 35.7372 10.113C35.8495 10.1692 35.9617 10.2347 36.0646 10.3001C36.1581 10.3469 36.2517 10.403 36.3359 10.4591L36.7007 10.6837C36.7007 10.6837 36.7568 10.7211 36.7849 10.7398H36.7942C36.7942 10.7398 36.8316 10.7678 36.8504 10.7866C36.9532 10.8427 37.0561 10.9175 37.159 10.983C37.159 10.9923 37.1684 10.9923 37.1684 10.9923C37.2152 11.0298 37.2619 11.0578 37.3087 11.0952C37.4022 11.1607 37.4864 11.2168 37.58 11.2823C37.5893 11.2917 37.608 11.3104 37.6268 11.3197C37.6922 11.3665 37.7671 11.4226 37.8419 11.4787C37.8887 11.5162 37.9448 11.5629 38.0009 11.6004C38.029 11.6284 38.0477 11.6471 38.0757 11.6658C38.1506 11.7126 38.2161 11.7687 38.2909 11.8342C38.3283 11.8623 38.3751 11.8997 38.4125 11.9278C38.4686 11.9839 38.5341 12.0307 38.5996 12.0868C38.6276 12.1148 38.6651 12.1429 38.7025 12.171C38.7305 12.199 38.768 12.2271 38.796 12.2551C38.8615 12.3113 38.9176 12.3674 38.9737 12.4235C39.0299 12.4609 39.0766 12.5077 39.1328 12.5545C39.1795 12.6013 39.2357 12.648 39.2824 12.6948L39.3105 12.7229C39.3105 12.7229 39.3386 12.7603 39.3573 12.7696C39.4602 12.8725 39.5631 12.9661 39.6566 13.069L39.7127 13.1251C39.825 13.228 39.9185 13.3309 40.0308 13.4431C40.0588 13.4712 40.0775 13.4993 40.1056 13.5273C40.1991 13.6302 40.2927 13.7331 40.3769 13.8267H40.3862C40.4611 13.9202 40.5359 14.0137 40.6107 14.0979C40.6575 14.1447 40.6949 14.1915 40.7417 14.2476C40.751 14.2663 40.7698 14.285 40.7885 14.3037C40.9194 14.4627 41.0504 14.6218 41.172 14.7901C41.2936 14.9398 41.4058 15.0895 41.5181 15.2485C41.5368 15.2765 41.5461 15.2953 41.5649 15.3233C41.6771 15.473 41.7706 15.6133 41.8735 15.763C41.9016 15.8097 41.939 15.8659 41.9671 15.9126C42.07 16.0717 42.1729 16.2213 42.2664 16.3897C42.388 16.5861 42.5003 16.7826 42.6219 16.9884C42.6406 17.0258 42.6686 17.0725 42.6874 17.1193C42.7809 17.2877 42.8744 17.4561 42.9586 17.6244C42.996 17.7086 43.0428 17.7928 43.0802 17.8864C43.1176 17.9705 43.1644 18.0547 43.2018 18.1389C43.2767 18.3073 43.3609 18.485 43.4357 18.6628C43.4918 18.7937 43.5386 18.9247 43.5947 19.0556C43.6508 19.1866 43.6976 19.3269 43.7537 19.4579C43.8005 19.5982 43.8473 19.7291 43.894 19.8694C43.9876 20.1407 44.0718 20.4213 44.1466 20.6926C44.1934 20.8329 44.2214 20.9732 44.2589 21.1135C44.2963 21.2445 44.3243 21.3661 44.3524 21.4971C44.4179 21.7496 44.4646 22.0022 44.5114 22.2641C44.5395 22.3764 44.5582 22.4886 44.5769 22.6009V22.6383C44.5956 22.7505 44.6143 22.8628 44.633 22.9657C44.6517 23.0873 44.6704 23.2089 44.6798 23.3305C44.7078 23.5269 44.7266 23.7234 44.7453 23.9291C44.764 24.0882 44.7733 24.2472 44.7827 24.4156C44.7827 24.5278 44.8014 24.6494 44.8014 24.7804C44.8014 24.8739 44.8108 24.9768 44.8108 25.0797C44.8108 25.22 44.8201 25.3697 44.8201 25.51C44.8201 25.6597 44.8108 25.8093 44.8108 25.959L44.792 25.9871Z" fill="#3866DF"/>
<path d="M16.496 5.44482H6.9922V7.78337H16.496V5.44482Z" fill="white"/>
<path d="M44.8025 25.5377C44.8025 25.6874 44.7931 25.8371 44.7931 25.9867C44.7931 26.099 44.7838 26.2112 44.7838 26.3235C44.7744 26.4264 44.7744 26.5199 44.7651 26.6134C44.7557 26.7444 44.7463 26.8754 44.737 27.0157C44.7183 27.2308 44.6996 27.446 44.6715 27.6611C44.6622 27.7827 44.6435 27.895 44.6247 28.0072C44.606 28.1288 44.5967 28.2411 44.578 28.3533C44.5593 28.4656 44.5406 28.5778 44.5218 28.6901C44.5125 28.7088 44.5125 28.7368 44.5031 28.7649C44.4844 28.8772 44.4657 28.9894 44.4377 29.0923C44.4283 29.1297 44.4283 29.1765 44.4189 29.2139C44.4096 29.2513 44.4002 29.2887 44.3909 29.3355C44.3722 29.401 44.3535 29.4758 44.3441 29.5507C44.3348 29.5507 44.3348 29.56 44.3348 29.56C44.3348 29.5787 44.3254 29.6068 44.3254 29.6255C44.3161 29.6255 44.3161 29.6442 44.3161 29.6536C44.3067 29.6723 44.3067 29.691 44.3067 29.7097C44.2786 29.8219 44.2412 29.9435 44.2132 30.0558C44.2132 30.0745 44.2038 30.0838 44.2038 30.0932C44.1664 30.2335 44.129 30.3738 44.0822 30.5141C44.0728 30.5796 44.0541 30.6264 44.0354 30.6638C44.0074 30.7667 43.9793 30.8602 43.9419 30.9538C43.9232 31.0286 43.9045 31.1034 43.8764 31.1689C43.8577 31.2438 43.8296 31.3092 43.8016 31.3841V31.4028C43.7548 31.515 43.7174 31.6179 43.68 31.7302C43.6706 31.7582 43.6613 31.777 43.6519 31.805C43.6426 31.8237 43.6426 31.8424 43.6332 31.8611C43.5864 31.964 43.549 32.0669 43.5116 32.1698C43.5022 32.1792 43.4929 32.1979 43.4835 32.2166C43.4368 32.3569 43.3806 32.4879 43.3152 32.6282C43.2497 32.7591 43.1936 32.8995 43.1281 33.0304C43.1094 33.0865 43.0813 33.1333 43.0532 33.1894C43.0158 33.2736 42.9784 33.3484 42.941 33.4326C42.9036 33.4981 42.8755 33.5636 42.8381 33.6291C42.8007 33.6946 42.7726 33.7507 42.7352 33.8162C42.6604 33.9471 42.5855 34.0781 42.5201 34.209C42.2301 34.7235 41.912 35.2193 41.5753 35.6963C41.4817 35.8367 41.3788 35.9676 41.2759 36.1079C41.2105 36.1921 41.1543 36.2669 41.0889 36.3418C40.9579 36.5195 40.8176 36.6972 40.6679 36.8656C40.6399 36.903 40.6118 36.9404 40.5837 36.9685C40.4996 37.062 40.4247 37.1556 40.3499 37.2398C40.3125 37.2866 40.2657 37.3333 40.2283 37.3801C40.2189 37.3894 40.2096 37.3988 40.2002 37.3988C40.0693 37.5485 39.929 37.6888 39.798 37.8291C39.7606 37.8571 39.7325 37.8946 39.7044 37.9133C39.5828 38.0442 39.4612 38.1658 39.3396 38.2781L39.3116 38.3062C39.3116 38.3062 39.2835 38.3249 39.2835 38.3342C39.1993 38.4184 39.1151 38.4932 39.031 38.5681C38.9655 38.6336 38.9 38.6897 38.8345 38.7458C38.7503 38.8206 38.6568 38.8955 38.5632 38.9797C38.5258 39.0077 38.4978 39.0358 38.4604 39.0638C38.3762 39.1387 38.2826 39.2042 38.1984 39.279C38.1797 39.2883 38.1704 39.3071 38.1517 39.3164C38.1236 39.3351 38.0955 39.3632 38.0768 39.3819C38.0675 39.3819 38.0581 39.3912 38.0488 39.4006C38.0488 39.4099 38.0301 39.41 38.0207 39.4193L37.9926 39.4474C37.9365 39.4754 37.8991 39.5128 37.8523 39.5503C37.6559 39.6999 37.4595 39.8402 37.2537 39.9805C37.1788 40.0367 37.104 40.0834 37.0292 40.1396C36.9169 40.2144 36.8047 40.2892 36.6924 40.3641C36.5802 40.4296 36.4586 40.5044 36.3463 40.5792C36.3089 40.5979 36.2715 40.626 36.2341 40.6447C36.1031 40.7289 35.9628 40.8037 35.8225 40.8786C35.7476 40.9253 35.6635 40.9721 35.5886 41.0095C35.5138 41.0563 35.439 41.0937 35.3548 41.1311C35.2425 41.1966 35.1303 41.2527 35.018 41.3088C34.8683 41.3837 34.7093 41.4585 34.5597 41.5333C34.41 41.5988 34.251 41.6737 34.0919 41.7391C33.961 41.7953 33.83 41.8514 33.6897 41.9075C33.5494 41.9636 33.3904 42.0198 33.2407 42.0759C33.194 42.0946 33.1472 42.1133 33.1098 42.132C33.063 42.132 33.0162 42.1601 32.9695 42.1694C32.9414 42.1881 32.9133 42.1975 32.8759 42.2068C32.8478 42.2162 32.8291 42.2256 32.8011 42.2349C32.773 42.2443 32.7449 42.2536 32.7262 42.263C32.6701 42.2817 32.6233 42.291 32.5672 42.3097C32.5485 42.3097 32.5298 42.3285 32.5111 42.3285C32.5017 42.3378 32.4924 42.3378 32.4924 42.3378C32.4737 42.3472 32.455 42.3472 32.4269 42.3565C32.2772 42.4033 32.1182 42.4501 31.9592 42.4968C31.8376 42.5249 31.716 42.5623 31.5944 42.5997H31.5757C31.5757 42.5997 31.5196 42.5997 31.4915 42.6184C31.4821 42.6184 31.4634 42.6278 31.4541 42.6278C31.4447 42.6278 31.4354 42.6371 31.426 42.6371C31.3512 42.6558 31.2857 42.6652 31.2202 42.6839C31.1454 42.7026 31.0799 42.7213 31.0051 42.7307C30.977 42.74 30.9396 42.7494 30.9022 42.7587C30.7432 42.7868 30.5841 42.8149 30.4251 42.8523C30.2848 42.8803 30.1351 42.8991 29.9855 42.9271C29.9574 42.9365 29.9293 42.9365 29.9013 42.9365C29.8732 42.9458 29.8452 42.9458 29.8171 42.9552C29.7703 42.9552 29.7329 42.9552 29.6861 42.9739C29.6581 42.9832 29.6207 42.9832 29.5832 42.9832C29.5365 42.9926 29.4991 43.002 29.4523 43.002C29.4242 43.002 29.3962 43.0113 29.3681 43.0113C29.3307 43.0113 29.2839 43.0113 29.2465 43.03C29.1997 43.03 29.1529 43.0394 29.1155 43.0394C29.022 43.0487 28.9285 43.0674 28.8349 43.0674C28.7507 43.0674 28.6759 43.0861 28.6011 43.0955C28.5262 43.0955 28.4514 43.1048 28.3766 43.1048C28.3485 43.1142 28.3111 43.1142 28.2737 43.1142C28.1988 43.1236 28.124 43.1236 28.0398 43.1236C27.9743 43.1329 27.9088 43.1329 27.8434 43.1329C27.7779 43.1329 27.7124 43.1329 27.6469 43.1329C27.5721 43.1329 27.4973 43.1329 27.4224 43.1423H26.9641C26.8892 43.1329 26.8144 43.1329 26.7396 43.1329C26.618 43.1329 26.4964 43.1329 26.3748 43.1142H26.2906C26.1877 43.1142 26.0848 43.1048 25.9912 43.0955H25.8603C25.7106 43.0768 25.5703 43.0581 25.4206 43.0487H25.3739C25.3739 43.0487 25.3365 43.0394 25.3177 43.0394C25.2897 43.0394 25.2523 43.03 25.2242 43.03C25.1494 43.0207 25.0839 43.0113 25.0184 43.002L24.7939 42.9739C24.7939 42.9739 24.7658 42.9645 24.7471 42.9645C24.691 42.9552 24.6442 42.9458 24.5881 42.9458C24.4197 42.9178 24.2514 42.8897 24.083 42.8616C23.9801 42.8429 23.8772 42.8242 23.7743 42.8055C23.7649 42.7962 23.7556 42.7962 23.7462 42.7962C23.6901 42.7868 23.634 42.7774 23.5872 42.7587C23.5311 42.7494 23.475 42.74 23.4188 42.7213C23.2224 42.6839 23.0353 42.6371 22.8482 42.5904C22.6705 42.5436 22.4834 42.4968 22.3057 42.4407C22.1654 42.4033 22.0344 42.3565 21.9035 42.3191C21.7632 42.2723 21.6322 42.2349 21.5012 42.1881C21.4077 42.1507 21.3048 42.1227 21.2206 42.0852C21.0897 42.0385 20.9587 41.9917 20.8371 41.9356C20.7997 41.9262 20.7623 41.9169 20.7342 41.8982C20.7155 41.8982 20.7061 41.8982 20.6968 41.8982C20.6968 41.8888 20.6781 41.8888 20.6687 41.8888C20.6407 41.8701 20.6032 41.8607 20.5752 41.842C20.5471 41.8327 20.5097 41.8233 20.4816 41.8046C20.36 41.7578 20.2478 41.7111 20.1355 41.655C20.0046 41.5988 19.8643 41.5333 19.724 41.4772C19.7052 41.4679 19.6865 41.4585 19.6678 41.4492C19.6491 41.4398 19.6304 41.4305 19.6211 41.4211C19.6117 41.4211 19.6023 41.4211 19.6023 41.4117C19.5649 41.393 19.5182 41.3743 19.4807 41.3556C19.4246 41.3275 19.3778 41.3088 19.3217 41.2808H19.3124C19.2188 41.234 19.1253 41.1872 19.0317 41.1311C18.9195 41.075 18.8072 41.0189 18.7043 40.9534C18.5921 40.8973 18.4798 40.8318 18.377 40.7757C18.2647 40.7102 18.1618 40.6447 18.0496 40.5792C17.9654 40.5324 17.8812 40.4763 17.7876 40.4202C17.7222 40.3734 17.6473 40.3267 17.5725 40.2799C17.5257 40.2518 17.4789 40.2144 17.4228 40.177C17.3199 40.1115 17.217 40.0367 17.1141 39.9712C16.899 39.8122 16.6838 39.6625 16.4781 39.4941C16.3939 39.4287 16.3097 39.3632 16.2255 39.2977C16.1319 39.2229 16.0384 39.148 15.9449 39.0732C15.9449 39.0638 15.9355 39.0638 15.9355 39.0638H15.9262C15.7484 38.9048 15.5707 38.7458 15.393 38.5961C15.3743 38.5681 15.3462 38.5494 15.3181 38.5213C15.1591 38.381 15.0001 38.2313 14.8504 38.0723C14.8317 38.063 14.813 38.0442 14.7943 38.0255L14.7101 37.932C14.5511 37.773 14.3921 37.614 14.2424 37.4456L14.1582 37.3614C14.1021 37.2959 14.0366 37.2304 13.9805 37.1556C13.9244 37.0995 13.8682 37.034 13.8121 36.9685C13.7934 36.9498 13.7841 36.9311 13.7653 36.9217C13.7186 36.8563 13.6718 36.8001 13.6157 36.744C13.6063 36.7253 13.5876 36.7066 13.5783 36.6879C13.3912 36.4634 13.2134 36.2389 13.0451 36.005C12.9422 35.8741 12.8486 35.7338 12.7551 35.6028C12.6616 35.4625 12.568 35.3315 12.4745 35.1912C12.3809 35.0509 12.2967 34.9106 12.2126 34.7703C12.1377 34.658 12.0722 34.5458 12.0068 34.4335C11.9506 34.3493 11.9039 34.2558 11.8571 34.1716C11.8103 34.0874 11.7542 33.9939 11.7074 33.9097C11.6326 33.76 11.5578 33.6104 11.4736 33.4607C11.3333 33.1801 11.193 32.8807 11.0713 32.5814C11.0246 32.4879 10.9778 32.385 10.9404 32.2914C10.903 32.1979 10.8562 32.095 10.8188 32.0014C10.8188 31.9921 10.8188 31.9734 10.8188 31.964C10.7159 31.7115 10.6223 31.4496 10.5288 31.1876C10.5288 31.1783 10.5195 31.1596 10.5195 31.1409C10.4633 30.9818 10.4166 30.8228 10.3698 30.6638C10.3604 30.6451 10.3511 30.6264 10.3511 30.6077C10.3137 30.4954 10.2856 30.3832 10.2482 30.2709C10.2388 30.2429 10.2295 30.2055 10.2201 30.168C10.1827 30.0371 10.1546 29.8874 10.1172 29.7471C10.1079 29.7097 10.0985 29.6723 10.0892 29.6348C10.0517 29.4852 10.0143 29.3261 9.98626 29.1765C9.97691 29.1484 9.97691 29.1204 9.96756 29.0923C9.94885 29.0268 9.93949 28.952 9.93014 28.8772C9.92079 28.8397 9.91143 28.793 9.90208 28.7462C9.89272 28.7181 9.89272 28.6901 9.88337 28.6714C9.8553 28.4843 9.81789 28.3066 9.79918 28.1195C9.78047 28.0072 9.76176 27.895 9.75241 27.7827C9.74305 27.7079 9.7337 27.6331 9.72435 27.5676C9.71499 27.446 9.69628 27.3337 9.68693 27.2121C9.67758 27.1466 9.67758 27.0812 9.66822 27.0157C9.65887 26.9502 9.65887 26.8847 9.64951 26.8192C9.64951 26.7538 9.64951 26.6976 9.64016 26.6322C9.64016 26.576 9.63081 26.5106 9.63081 26.4544V26.4357C9.62145 26.2954 9.62145 26.1457 9.61209 25.9961V9.36436H16.5155V18.176H16.5248V27.7172C16.5248 28.5685 16.8709 29.3449 17.4228 29.8968C17.4977 29.9716 17.5725 30.0371 17.6567 30.1119C17.7409 30.1774 17.8251 30.2429 17.9279 30.299C18.2834 30.5422 18.7137 30.7106 19.1627 30.7667C19.2188 30.7854 19.2749 30.7854 19.3311 30.7948C19.4246 30.7948 19.5088 30.7948 19.6117 30.7948H21.52C21.6416 30.8041 21.7725 30.8135 21.9035 30.8135C24.0549 30.7948 26.2157 30.7948 28.3672 30.7948C29.0407 30.7948 29.7142 30.8041 30.3877 30.8041H33.0256C34.6158 30.7948 35.8225 29.8219 36.1405 28.2785C36.5615 26.2299 36.9637 24.172 37.3753 22.1234L37.5436 21.2535C37.6559 20.7016 37.7775 20.1497 37.8897 19.5978C37.9085 19.5043 37.9178 19.4107 37.9178 19.3172C37.9178 19.0459 37.843 18.7653 37.6559 18.5595C37.4033 18.2789 37.0385 18.1666 36.5989 18.1573H34.9525C33.0162 18.1573 31.0986 18.1573 29.1717 18.1573H26.6834C26.2157 18.1573 25.748 18.1573 25.2803 18.1573H25.271C24.4104 18.1573 23.5498 18.1573 22.6892 18.1573C21.6977 18.1573 20.7155 18.1573 19.724 18.1573C19.6959 18.1573 19.6772 18.1573 19.6491 18.1573H17.9279V10.5898C18.0683 10.4962 18.2179 10.4027 18.3676 10.3278C18.7698 10.0753 19.1908 9.86013 19.6117 9.65434C19.6211 9.65434 19.6398 9.64498 19.6491 9.63563C19.8643 9.53273 20.0794 9.42984 20.3039 9.34565C21.3048 8.91536 22.3618 8.56926 23.4469 8.32605C23.634 8.28863 23.8211 8.25122 24.0175 8.21381C24.1111 8.1951 24.2046 8.17639 24.2981 8.16703C24.4572 8.13897 24.6068 8.1109 24.7659 8.0922C25.0091 8.05478 25.2523 8.02671 25.4955 7.99865L25.8883 7.97059H25.9351C26.0006 7.96123 26.0567 7.95189 26.1222 7.95189C26.1877 7.95189 26.2438 7.94253 26.3093 7.94253H26.3374C26.4122 7.94253 26.4777 7.93318 26.5431 7.93318C26.6273 7.93318 26.7022 7.93318 26.7863 7.92383C26.936 7.92383 27.1886 7.92383 27.3382 7.92383C27.3944 7.92383 27.4505 7.92383 27.516 7.92383C27.5908 7.92383 27.675 7.92382 27.7498 7.93318H28.0117C28.1146 7.94253 28.2175 7.94254 28.3204 7.95189H28.3391C28.3953 7.95189 28.4514 7.96124 28.5075 7.96124C28.5262 7.97059 28.5449 7.97059 28.5636 7.97059H28.5917C28.704 7.97059 28.8162 7.98929 28.9378 7.99865C28.9939 8.008 29.0407 8.01736 29.0968 8.01736C29.1436 8.02672 29.1904 8.02672 29.2371 8.03607C29.312 8.03607 29.3868 8.05478 29.4523 8.06413C29.5084 8.06413 29.5552 8.07349 29.602 8.08285H29.63C29.63 8.08285 29.6581 8.08284 29.6768 8.0922C29.7142 8.0922 29.7516 8.0922 29.7797 8.0922C29.8171 8.10155 29.8545 8.10155 29.8919 8.11091C30.0229 8.12962 30.1445 8.14832 30.2661 8.17638C30.2942 8.17638 30.3222 8.18574 30.3503 8.18574C30.4906 8.21381 30.6216 8.24187 30.7619 8.26993C30.7899 8.26993 30.818 8.27929 30.8554 8.28864C30.8741 8.28864 30.8928 8.29799 30.9115 8.29799C31.0893 8.33541 31.2763 8.38218 31.4541 8.42895C31.5102 8.42895 31.5663 8.457 31.6224 8.46636C31.6599 8.47571 31.7066 8.48506 31.7441 8.49442C31.8376 8.52248 31.9311 8.55055 32.034 8.57862C32.3147 8.6628 32.5859 8.73763 32.8572 8.83117C32.9414 8.85923 33.0256 8.89665 33.1098 8.92472C33.1659 8.94342 33.2127 8.96213 33.2688 8.98084C33.3717 9.01826 33.4652 9.05568 33.5681 9.0931C33.7552 9.16793 33.9423 9.24277 34.1294 9.32695C34.3071 9.40179 34.4848 9.47661 34.6532 9.55144C34.6626 9.5608 34.6813 9.57016 34.6906 9.57016C34.7748 9.60757 34.859 9.65435 34.9432 9.69177C35.0367 9.73854 35.1303 9.7853 35.2238 9.83207C35.4015 9.92561 35.5699 10.0098 35.7383 10.1127C35.8505 10.1688 35.9628 10.2343 36.0657 10.2998C36.1592 10.3466 36.2528 10.4027 36.337 10.4588L36.7018 10.6833C36.7018 10.6833 36.7579 10.7207 36.786 10.7394H36.7953C36.7953 10.7394 36.8327 10.7675 36.8514 10.7862C36.9543 10.8423 37.0572 10.9172 37.1601 10.9826C37.1601 10.992 37.1695 10.992 37.1695 10.992C37.2162 11.0294 37.263 11.0575 37.3098 11.0949C37.4033 11.1604 37.4875 11.2165 37.5811 11.282C37.5904 11.2913 37.6091 11.31 37.6278 11.3194C37.6933 11.3662 37.7681 11.4223 37.843 11.4784C37.8897 11.5158 37.9459 11.5626 38.002 11.6C38.0301 11.6281 38.0488 11.6468 38.0768 11.6655C38.1517 11.7123 38.2171 11.7684 38.292 11.8339C38.3294 11.8619 38.3762 11.8993 38.4136 11.9274C38.4697 11.9835 38.5352 12.0303 38.6007 12.0864C38.6287 12.1145 38.6661 12.1426 38.7036 12.1706C38.7316 12.1987 38.769 12.2267 38.7971 12.2548C38.8626 12.3109 38.9187 12.3671 38.9748 12.4232C39.0309 12.4606 39.0777 12.5074 39.1339 12.5541C39.1806 12.6009 39.2367 12.6477 39.2835 12.6944L39.3116 12.7225C39.3116 12.7225 39.3396 12.7599 39.3583 12.7693C39.4612 12.8722 39.5641 12.9657 39.6577 13.0686L39.7138 13.1247C39.8261 13.2276 39.9196 13.3305 40.0319 13.4428C40.0599 13.4708 40.0786 13.4989 40.1067 13.527C40.2002 13.6299 40.2938 13.7328 40.3779 13.8263H40.3873C40.4621 13.9198 40.537 14.0134 40.6118 14.0976C40.6586 14.1443 40.696 14.1911 40.7428 14.2472C40.7521 14.2659 40.7708 14.2847 40.7895 14.3034C40.9205 14.4624 41.0514 14.6214 41.1731 14.7898C41.2947 14.9394 41.4069 15.0891 41.5192 15.2481C41.5379 15.2762 41.5472 15.2949 41.5659 15.323C41.6782 15.4726 41.7717 15.6129 41.8746 15.7626C41.9027 15.8094 41.9401 15.8655 41.9682 15.9123C42.0711 16.0713 42.174 16.221 42.2675 16.3893C42.3891 16.5858 42.5013 16.7822 42.623 16.988C42.6417 17.0254 42.6697 17.0722 42.6884 17.119C42.782 17.2873 42.8755 17.4557 42.9597 17.6241C42.9971 17.7083 43.0439 17.7925 43.0813 17.886C43.1187 17.9702 43.1655 18.0544 43.2029 18.1386C43.2777 18.307 43.3619 18.4847 43.4368 18.6624C43.4929 18.7934 43.5397 18.9243 43.5958 19.0553C43.6519 19.1862 43.6987 19.3265 43.7548 19.4575C43.8016 19.5978 43.8483 19.7288 43.8951 19.8691C43.9887 20.1404 44.0728 20.421 44.1477 20.6923C44.1945 20.8326 44.2225 20.9729 44.2599 21.1132C44.2973 21.2442 44.3254 21.3658 44.3535 21.4967C44.4189 21.7493 44.4657 22.0018 44.5125 22.2638C44.5406 22.376 44.5593 22.4883 44.578 22.6005V22.6379C44.5967 22.7502 44.6154 22.8624 44.6341 22.9653C44.6528 23.0869 44.6715 23.2085 44.6809 23.3301C44.7089 23.5266 44.7276 23.723 44.7463 23.9288C44.7651 24.0878 44.7744 24.2468 44.7838 24.4152C44.7838 24.5275 44.8025 24.6491 44.8025 24.78C44.8025 24.8736 44.8118 24.9765 44.8118 25.0794C44.8118 25.2197 44.8212 25.3693 44.8212 25.5097L44.8025 25.5377Z" fill="white"/>
</svg>
