<svg width="99" height="18" viewBox="0 0 99 18" fill="none" xmlns="http://www.w3.org/2000/svg">
<path d="M86.9457 7.70277C86.4201 8.06913 85.6573 8.25025 84.6135 8.25025H83.5783L84.3721 3.96321H85.1333C85.9997 3.96321 86.6326 4.10266 87.0687 4.38568C87.4095 4.60765 87.8134 5.04704 87.8134 5.88085C87.8134 6.88546 87.3435 7.42593 86.9457 7.70277ZM25.1951 13.0831H17.1842L17.702 10.2809H22.7267L23.2977 7.12475H18.3212L18.8023 4.35144H26.7992L25.1951 13.0831ZM91.2613 1.94614C90.0834 1.13873 88.301 0.731934 85.9642 0.731934H79.8441L77.5692 13.0835H69.5521L70.0661 10.2814H74.8961L75.4704 7.13383L70.6433 7.14249L71.1603 4.35226H76.1343L76.796 0.732346H66.6921L64.5327 12.4498H60.8278L63.0029 0.732346H57.7207L55.5613 12.4498H51.9488L54.126 0.732346H48.8492L46.5684 13.084H38.4944L39.0031 10.2818H43.855L44.4264 7.1524L39.5819 7.14786L40.0964 4.35226H45.1257L45.7841 0.732346H14.3061L12.5143 10.5206L8.94467 0.731934H3.46612L0.517456 16.7055H5.7493L7.53367 6.64823L10.9981 16.7055H29.7503L32.0298 4.35185H34.964L32.6833 16.7055H82.0262L83.4554 8.90666L85.772 16.7055H91.0067L88.6084 10.3333L89.1559 10.2149C90.3623 9.95665 91.3066 9.40009 91.9618 8.56628C92.6182 7.72463 92.9516 6.64411 92.9516 5.34615C92.952 3.83448 92.4 2.72301 91.2613 1.94614Z" fill="#8DC640"/>
<path d="M95.5751 14.8164L96.288 14.7792C96.439 14.7722 96.5583 14.7495 96.6416 14.7136C96.725 14.6786 96.7881 14.6249 96.8285 14.5527C96.8689 14.4809 96.8883 14.4054 96.883 14.3246C96.8768 14.2049 96.8285 14.1096 96.739 14.0366C96.649 13.9644 96.5104 13.9347 96.3243 13.9433L95.531 13.9838L95.5751 14.8164ZM95.3115 16.2348L95.1832 13.7222L96.298 13.6661C96.5207 13.6545 96.6911 13.6686 96.8104 13.7082C96.93 13.747 97.0261 13.8221 97.1021 13.933C97.1776 14.0436 97.2196 14.1666 97.225 14.3052C97.2353 14.4834 97.1846 14.6361 97.0756 14.7648C96.9667 14.8923 96.793 14.9793 96.5542 15.0247C96.6437 15.0635 96.7134 15.1006 96.7604 15.139C96.8624 15.2232 96.9597 15.3304 97.053 15.46L97.5216 16.1217L97.1074 16.1428L96.7485 15.637C96.6437 15.4905 96.5579 15.3791 96.491 15.3024C96.4246 15.2256 96.3648 15.1732 96.3136 15.1435C96.2637 15.1138 96.2101 15.0944 96.1593 15.0837C96.1205 15.0779 96.0591 15.0771 95.9733 15.0816L95.5896 15.101L95.6448 16.2179L95.3115 16.2348Z" fill="#8DC640"/>
<path d="M94.2231 15.0189C94.1975 14.4991 94.3741 14.0007 94.7227 13.6154C95.0714 13.2292 95.5508 13.001 96.0714 12.9746C97.1433 12.9189 98.0605 13.747 98.1157 14.8201C98.1174 14.8531 98.1195 14.8881 98.1195 14.9199C98.1195 15.9497 97.3083 16.8124 96.2691 16.8668C95.1955 16.9213 94.2792 16.0924 94.2231 15.0189ZM96.0492 12.574C95.4241 12.6074 94.8465 12.8806 94.4269 13.3464C94.0069 13.8117 93.7924 14.4141 93.8246 15.0408C93.8922 16.333 94.9975 17.3302 96.2905 17.2654C97.5819 17.1986 98.5811 16.0924 98.5143 14.8003V14.799C98.4491 13.5064 97.3438 12.5084 96.0492 12.574Z" fill="#8DC640"/>
</svg>
