<svg width="78" height="18" viewBox="0 0 78 18" fill="none" xmlns="http://www.w3.org/2000/svg">
<rect x="0.727997" y="0.930664" width="47.4667" height="16.6133" rx="8.30667" fill="#82AE04"/>
<path d="M5.76567 6.06463C5.76567 5.75263 5.83867 5.49363 5.98467 5.28763C6.13267 5.08163 6.33167 4.92763 6.58167 4.82563C6.83167 4.72163 7.10967 4.66963 7.41567 4.66963C7.73967 4.66963 8.02767 4.71163 8.27967 4.79563C8.53367 4.87963 8.73367 5.00763 8.87967 5.17963C9.02567 5.35163 9.09867 5.56963 9.09867 5.83363C9.09867 6.04763 9.03667 6.23663 8.91267 6.40063C8.78867 6.56263 8.58667 6.69163 8.30667 6.78763C8.46667 6.83163 8.61467 6.89863 8.75067 6.98863C8.88667 7.07863 8.99567 7.19363 9.07767 7.33363C9.15967 7.47363 9.20067 7.64163 9.20067 7.83763C9.20067 8.04963 9.15367 8.23663 9.05967 8.39863C8.96567 8.56063 8.83567 8.69663 8.66967 8.80663C8.50367 8.91663 8.31167 8.99863 8.09367 9.05263C7.87567 9.10663 7.64267 9.13363 7.39467 9.13363C7.04667 9.13163 6.74967 9.07463 6.50367 8.96263C6.25967 8.84863 6.07167 8.68663 5.93967 8.47663C5.80967 8.26663 5.74267 8.01663 5.73867 7.72663H6.58167C6.62367 7.97263 6.71967 8.15063 6.86967 8.26063C7.01967 8.37063 7.19767 8.42563 7.40367 8.42563C7.58367 8.42563 7.73767 8.39963 7.86567 8.34763C7.99567 8.29563 8.09467 8.22363 8.16267 8.13163C8.23267 8.03763 8.26767 7.93063 8.26767 7.81063C8.26767 7.68663 8.23167 7.57963 8.15967 7.48963C8.08967 7.39963 7.99167 7.32963 7.86567 7.27963C7.73967 7.22763 7.59567 7.19963 7.43367 7.19563L7.01967 7.18063V6.48463L7.39167 6.46363C7.54767 6.45763 7.68367 6.42863 7.79967 6.37663C7.91567 6.32463 8.00567 6.25563 8.06967 6.16963C8.13567 6.08163 8.16867 5.98263 8.16867 5.87263C8.16867 5.76663 8.13567 5.67463 8.06967 5.59663C8.00367 5.51863 7.91267 5.45763 7.79667 5.41363C7.68067 5.36963 7.54767 5.34763 7.39767 5.34763C7.25967 5.34763 7.13267 5.37063 7.01667 5.41663C6.90067 5.46263 6.80567 5.53863 6.73167 5.64463C6.65767 5.74863 6.61467 5.88863 6.60267 6.06463H5.76567ZM9.7619 9.06763V8.11363H10.7219V9.06763H9.7619ZM11.7991 4.72963H14.5861L14.5531 5.44663H12.4921L12.4081 6.49363C12.5681 6.40363 12.7201 6.33863 12.8641 6.29863C13.0101 6.25863 13.1701 6.23863 13.3441 6.23863C13.6341 6.23863 13.8931 6.29363 14.1211 6.40363C14.3511 6.51163 14.5331 6.67063 14.6671 6.88063C14.8011 7.09063 14.8681 7.34663 14.8681 7.64863C14.8681 7.95463 14.7991 8.21863 14.6611 8.44063C14.5231 8.66263 14.3271 8.83363 14.0731 8.95363C13.8211 9.07363 13.5221 9.13363 13.1761 9.13363C12.8921 9.13363 12.6281 9.08963 12.3841 9.00163C12.1401 8.91363 11.9291 8.79363 11.7511 8.64163C11.5731 8.48763 11.4381 8.31163 11.3461 8.11363L12.0301 7.70863C12.1081 7.84463 12.1961 7.96763 12.2941 8.07763C12.3921 8.18563 12.5051 8.27163 12.6331 8.33563C12.7631 8.39763 12.9141 8.42863 13.0861 8.42863C13.3461 8.42863 13.5551 8.35963 13.7131 8.22163C13.8711 8.08363 13.9501 7.90363 13.9501 7.68163C13.9501 7.54163 13.9141 7.41663 13.8421 7.30663C13.7721 7.19463 13.6751 7.10663 13.5511 7.04263C13.4271 6.97863 13.2821 6.94663 13.1161 6.94663C13.0281 6.94663 12.9441 6.95463 12.8641 6.97063C12.7861 6.98463 12.7061 7.01263 12.6241 7.05463C12.5441 7.09463 12.4551 7.15263 12.3571 7.22863C12.3291 7.24063 12.3091 7.24663 12.2971 7.24663C12.2871 7.24663 12.2671 7.23963 12.2371 7.22563L11.6011 6.93163L11.7991 4.72963Z" fill="white"/>
<path d="M41.0265 7.94386C40.8729 8.09279 40.8022 8.30817 40.8373 8.5194L41.3647 11.4386C41.4092 11.686 41.3048 11.9364 41.0977 12.0794C40.8948 12.2277 40.6248 12.2455 40.4035 12.1269L37.7757 10.7563C37.6843 10.7076 37.5828 10.6815 37.479 10.6785H37.3182C37.2624 10.6868 37.2078 10.7046 37.158 10.7319L34.5295 12.1091C34.3996 12.1743 34.2524 12.1975 34.1083 12.1743C33.757 12.1079 33.5226 11.7732 33.5802 11.4202L34.1083 8.501C34.1433 8.288 34.0727 8.07143 33.919 7.92013L31.7765 5.84346C31.5973 5.66962 31.535 5.40855 31.6169 5.173C31.6964 4.93804 31.8993 4.76656 32.1443 4.728L35.0932 4.3002C35.3175 4.27706 35.5145 4.1406 35.6153 3.93886L36.9147 1.2748C36.9456 1.21546 36.9853 1.16088 37.0334 1.1146L37.0868 1.07306C37.1147 1.04221 37.1467 1.0167 37.1823 0.995931L37.247 0.972197L37.3479 0.930664H37.5977C37.8207 0.953804 38.0171 1.0873 38.1198 1.28666L39.4364 3.93886C39.5313 4.13288 39.7159 4.26757 39.9289 4.3002L42.8777 4.728C43.1269 4.7636 43.3352 4.93566 43.4177 5.173C43.4954 5.41092 43.4283 5.67199 43.2456 5.84346L41.0265 7.94386Z" fill="white"/>
<path d="M51.5857 14.5005C51.3932 14.0403 51.2332 13.5882 51.1059 13.1443C50.9819 12.6971 50.9019 12.2336 50.866 11.7538C50.8301 11.2739 50.8529 10.7566 50.9345 10.2017C51.0553 9.39218 51.292 8.61532 51.6445 7.8711C52.0003 7.12362 52.4181 6.44795 52.8979 5.84409H53.6079C53.2031 6.47732 52.8441 7.16932 52.5307 7.92006C52.2173 8.67081 52.0035 9.43461 51.8893 10.2115C51.7848 10.9459 51.7685 11.6607 51.8403 12.356C51.9154 13.0513 52.0656 13.7661 52.2908 14.5005H51.5857ZM55.7346 13.345C55.245 13.3418 54.8305 13.252 54.491 13.0757C54.1515 12.8962 53.9018 12.6432 53.7419 12.3168C53.5852 11.9904 53.533 11.6052 53.5852 11.1613H54.5987C54.602 11.5889 54.7211 11.9137 54.9561 12.1357C55.1912 12.3544 55.5012 12.4637 55.8864 12.4637C56.203 12.4637 56.4837 12.4131 56.7286 12.3119C56.9734 12.2075 57.1725 12.0655 57.3259 11.886C57.4793 11.7032 57.5723 11.491 57.605 11.2495C57.6441 10.9883 57.6066 10.7664 57.4924 10.5836C57.3781 10.4008 57.2084 10.2621 56.9832 10.1674C56.7612 10.0695 56.5017 10.0173 56.2047 10.0107L55.5828 9.99604L55.7053 9.12452L56.2928 9.10494C56.5735 9.09841 56.8297 9.04292 57.0615 8.93847C57.2932 8.83075 57.4826 8.69039 57.6294 8.5174C57.7796 8.3444 57.8694 8.15345 57.8987 7.94454C57.9249 7.75522 57.8938 7.58223 57.8057 7.42555C57.7176 7.26887 57.5772 7.14484 57.3846 7.05344C57.1921 6.95878 56.9521 6.91145 56.6649 6.91145C56.4299 6.91145 56.2014 6.95715 55.9794 7.04854C55.7575 7.13994 55.5649 7.28519 55.4017 7.4843C55.2385 7.68015 55.1291 7.93638 55.0736 8.253H54.065C54.1336 7.77971 54.3001 7.38148 54.5644 7.05834C54.8288 6.73192 55.1553 6.48385 55.5437 6.31412C55.9354 6.14438 56.3532 6.05952 56.7971 6.05952C57.2802 6.05952 57.6964 6.1297 58.0456 6.27005C58.3981 6.41041 58.6609 6.61768 58.8339 6.89187C59.0102 7.16605 59.0689 7.50389 59.0102 7.90537C58.9612 8.25463 58.8127 8.56962 58.5646 8.85034C58.3198 9.12778 57.9673 9.34485 57.507 9.50153C57.7812 9.58313 58.0162 9.7039 58.2121 9.86384C58.4079 10.0205 58.5516 10.2164 58.643 10.4514C58.7344 10.6864 58.7572 10.959 58.7115 11.269C58.6658 11.5987 58.5565 11.8925 58.3835 12.1504C58.2137 12.4082 57.9934 12.6269 57.7225 12.8064C57.4548 12.986 57.1513 13.1214 56.8118 13.2128C56.4756 13.3042 56.1165 13.3483 55.7346 13.345ZM59.4179 13.2373L59.6089 11.9741H60.784L60.5979 13.2373H59.4179ZM62.2651 13.2373C62.35 12.9239 62.4855 12.5339 62.6715 12.0671C62.8608 11.6004 63.0975 11.0895 63.3815 10.5346C63.6687 9.97645 64.0033 9.39871 64.3852 8.80137C64.7671 8.20404 65.1947 7.61813 65.668 7.04365H61.942L62.0742 6.15744H66.9116L66.7696 7.04365C66.4954 7.37332 66.2131 7.7487 65.9226 8.16977C65.6321 8.59084 65.3497 9.03313 65.0755 9.49663C64.8046 9.95687 64.5533 10.4171 64.3215 10.8774C64.0898 11.3343 63.8907 11.7668 63.7242 12.1748C63.561 12.5796 63.4451 12.9337 63.3766 13.2373H62.2651ZM67.0107 13.2373L68.0683 5.96159H69.0965L68.4257 10.5885L70.8836 8.17466H72.0293L69.9974 10.1282L71.383 13.2373H70.3254L69.2434 10.7941L68.2544 11.7391L68.0389 13.2373H67.0107ZM73.649 5.85388C73.8415 6.31412 73.9998 6.76783 74.1239 7.21501C74.2512 7.65893 74.3328 8.12081 74.3687 8.60063C74.4046 9.08046 74.3817 9.59782 74.3001 10.1527C74.1794 10.9622 73.9411 11.7407 73.5853 12.4882C73.2328 13.2324 72.8166 13.9064 72.3368 14.5103H71.6268C72.0316 13.8771 72.3906 13.1851 72.704 12.4343C73.0173 11.6836 73.2311 10.9198 73.3454 10.1429C73.4498 9.4085 73.4645 8.69366 73.3895 7.9984C73.3176 7.30314 73.1691 6.5883 72.9439 5.85388H73.649Z" fill="#B3B5BA"/>
</svg>
