<svg width="142" height="22" viewBox="0 0 142 22" fill="none" xmlns="http://www.w3.org/2000/svg">
<path fill-rule="evenodd" clip-rule="evenodd" d="M77.4752 10.3477C77.4752 10.3477 76.1006 9.49769 75.2506 9.16881C75.2506 9.16881 72.6196 7.94941 72.0976 7.36924C72.0976 7.36924 71.0722 6.40288 71.6726 5.28047C71.6726 5.28047 71.9239 4.54601 73.0076 4.54601C73.0076 4.54601 74.4183 4.6236 74.4183 5.78304V7.41862H79.474L79.4652 5.00979C79.4652 5.00979 79.854 1.06502 73.5101 0.891324C73.5101 0.891324 68.5205 0.563324 67.0895 3.25077C67.0895 3.25077 66.5279 3.85034 66.5279 5.93823V7.44683C66.5279 7.44683 66.4706 9.18733 67.3593 10.3089C67.3593 10.3089 67.8619 11.0442 69.0998 11.8554C69.0998 11.8554 71.6136 13.2088 73.1222 13.9838C73.1222 13.9838 74.6449 14.8532 74.4447 16.2366C74.4447 16.2366 74.3204 17.657 72.8497 17.5988C72.8497 17.5988 71.5051 17.5389 71.5051 16.1458V14.5111H66.1179V16.8855C66.1179 16.8855 65.9671 21.4263 72.8894 21.4263C72.8894 21.4263 79.504 21.5603 79.8126 16.7665V14.8329C79.8117 14.8329 80.0462 11.8951 77.4752 10.3477ZM51.5917 1.4565L49.8988 12.0652H49.5029L47.8859 1.55172H39.4409L39.0177 20.7633H44.0178L44.0778 6.28827H44.471L47.1214 20.7606H52.3817L54.9995 6.29355H55.3478L55.4686 20.7633H60.4952L59.9538 1.4565H51.5917ZM21.827 1.53674L18.5003 20.7412H23.8831L25.8537 5.85094H26.2964L28.2661 20.7412H33.648L30.3222 1.53674H21.827ZM134.776 10.0831V12.9161H136.156V15.9571C136.156 17.4436 134.886 17.471 134.886 17.471C133.341 17.471 133.399 16.0585 133.399 16.0585V5.53969C133.399 4.45607 134.77 4.39788 134.77 4.39788C136.086 4.39788 136.095 5.69047 136.095 5.69047V7.28988H141.163C141.329 4.16775 140.706 3.41213 140.706 3.41213C139.449 0.588899 134.693 0.743197 134.693 0.743197C127.384 0.743197 128.195 6.35087 128.195 6.35087V16.5214C128.352 21.7808 135.554 21.2465 135.676 21.2421C138.879 20.8876 139.846 19.8692 139.846 19.8692C140.737 19.208 140.966 18.2919 140.966 18.2919C141.221 17.7584 141.284 16.0585 141.284 16.0585V10.0831H134.776ZM117.976 13.2088H117.756L112.613 1.46179H106.46V20.765H111.468L111.168 9.0198H111.392L116.72 20.765H122.687V1.46002H117.615L117.976 13.2088ZM94.2347 15.9553C94.2347 15.9553 94.307 17.5398 92.8381 17.5398C92.8381 17.5398 91.2933 17.6226 91.2933 15.995L91.2775 1.47325H85.7844V15.8795C85.7844 15.8795 85.221 21.332 92.9157 21.332C92.9157 21.332 99.6026 21.4113 99.6026 16.1299V1.47413H94.2347V15.9553ZM11.3549 10.3477C11.3549 10.3477 9.98209 9.49769 9.13124 9.16969C9.13124 9.16969 6.50199 7.95117 5.98002 7.37012C5.98002 7.37012 4.95459 6.402 5.55591 5.28223C5.55591 5.28223 5.80632 4.54777 6.88906 4.54777C6.88906 4.54777 8.30067 4.62448 8.30067 5.78392V7.4195H13.3582L13.3485 5.00979C13.3485 5.00979 13.7346 1.06502 7.39339 0.892205C7.39339 0.892205 6.91551 0.861343 6.21455 0.896611C6.21455 0.896611 2.37294 1.10293 0.99924 3.21022C0.991305 3.22609 0.979843 3.23755 0.971907 3.25166C0.971907 3.25166 0.411141 3.85034 0.411141 5.93911V7.44771C0.411141 7.44771 0.352947 9.18821 1.24259 10.3097C1.24259 10.3097 1.74517 11.0451 2.98309 11.8563C2.98309 11.8563 5.49596 13.2097 7.00456 13.9847C7.00456 13.9847 8.52904 14.8523 8.32712 16.2375C8.32712 16.2375 8.2028 17.6579 6.73299 17.5997C6.73299 17.5997 5.38839 17.5398 5.38839 16.1467V14.5111H0.000262715V16.8873C0.000262715 16.8873 -0.150509 21.4281 6.77179 21.4281C6.77179 21.4281 13.3846 21.5621 13.6959 16.7683V14.8364C13.6959 14.8347 13.9269 11.8951 11.3549 10.3477Z" fill="white"/>
</svg>
