<svg width="80" height="22" viewBox="0 0 80 22" fill="none" xmlns="http://www.w3.org/2000/svg">
<path d="M9.70508 0.774902H69.2656C75.0438 0.774902 79.728 5.45908 79.728 11.2373C79.728 17.0155 75.0438 21.6997 69.2656 21.6997H10.3889C10.0112 21.6997 9.70508 21.3936 9.70508 21.0159V0.774902Z" fill="#1D861F"/>
<path d="M29.0497 15.7179C28.6558 15.7179 28.296 15.6535 27.9703 15.5247C27.6445 15.3959 27.3851 15.1933 27.1919 14.9168C26.9987 14.6403 26.9022 14.2862 26.9022 13.8544H27.9703C27.9854 14.0778 28.0479 14.2634 28.1578 14.4111C28.2714 14.5551 28.4153 14.663 28.5895 14.735C28.7638 14.8032 28.9569 14.8373 29.1691 14.8373C29.5213 14.8373 29.8148 14.771 30.0497 14.6384C30.2883 14.5021 30.4265 14.2937 30.4644 14.0134C30.4947 13.8127 30.4587 13.6517 30.3565 13.5305C30.2542 13.4093 30.08 13.3203 29.8338 13.2635L28.7657 12.9851C28.3112 12.8715 27.9608 12.6916 27.7146 12.4454C27.4684 12.1954 27.3756 11.8469 27.4362 11.4C27.4855 11.0553 27.6104 10.7485 27.8112 10.4796C28.0157 10.2107 28.2922 10.0005 28.6407 9.84896C28.9929 9.69367 29.4134 9.61602 29.902 9.61602C30.5383 9.61602 31.0307 9.76374 31.3791 10.0592C31.7276 10.3546 31.8696 10.7826 31.8052 11.3432H30.7712C30.7712 11.0743 30.6841 10.864 30.5099 10.7125C30.3356 10.5572 30.0894 10.4796 29.7713 10.4796C29.438 10.4796 29.1558 10.5497 28.9248 10.6898C28.6975 10.8262 28.5649 11.0364 28.5271 11.3205C28.5005 11.5136 28.5555 11.667 28.6918 11.7806C28.832 11.8905 29.0516 11.9814 29.3509 12.0534L30.3735 12.3317C30.6387 12.4075 30.8527 12.5079 31.0155 12.6329C31.1784 12.7541 31.2996 12.8885 31.3791 13.0362C31.4625 13.184 31.5136 13.3374 31.5325 13.4964C31.5515 13.6555 31.5496 13.8051 31.5268 13.9453C31.4776 14.3165 31.3431 14.6346 31.1235 14.8998C30.9076 15.1611 30.6235 15.3637 30.2713 15.5077C29.919 15.6478 29.5118 15.7179 29.0497 15.7179ZM34.7184 15.644C34.298 15.644 33.9798 15.5853 33.7639 15.4679C33.548 15.3505 33.4098 15.1819 33.3492 14.9622C33.2886 14.7388 33.281 14.4699 33.3264 14.1555L33.8378 10.6046H32.9287L33.0651 9.72965H33.9968L34.4627 8.0025H35.4115L35.1672 9.72397H36.4285L36.2978 10.6046H35.0365L34.5366 14.0816C34.4987 14.3657 34.5233 14.5475 34.6104 14.627C34.7013 14.7028 34.8566 14.7407 35.0763 14.7407H35.7297L35.6104 15.5304C35.5384 15.5607 35.4286 15.5872 35.2809 15.6099C35.1331 15.6327 34.9456 15.644 34.7184 15.644ZM38.5537 15.7179C38.1901 15.7179 37.8776 15.6497 37.6163 15.5133C37.3587 15.377 37.1693 15.18 37.0481 14.9225C36.9269 14.6649 36.8909 14.3543 36.9402 13.9907C37.0311 13.3393 37.3208 12.8525 37.8094 12.5306C38.3018 12.2086 39.0328 12.0382 40.0025 12.0193L40.9058 11.9909L40.9683 11.5648C41.0176 11.2125 40.9494 10.9436 40.7638 10.758C40.582 10.5724 40.315 10.4815 39.9627 10.4853C39.6748 10.4853 39.3983 10.561 39.1332 10.7125C38.8719 10.864 38.6825 11.097 38.5651 11.4114H37.5367C37.6087 11.0553 37.764 10.7428 38.0026 10.4739C38.2412 10.2012 38.5442 9.991 38.9116 9.84328C39.279 9.69178 39.69 9.61602 40.1445 9.61602C40.6558 9.61602 41.0668 9.69367 41.3774 9.84896C41.688 10.0043 41.9039 10.222 42.0251 10.5023C42.1463 10.7826 42.1804 11.114 42.1273 11.4966L41.5251 15.6042H40.5195L40.5763 14.5589C40.2998 15.0058 39.9911 15.3107 39.6502 15.4736C39.3131 15.6364 38.9476 15.7179 38.5537 15.7179ZM39.048 14.8713C39.2222 14.8713 39.3983 14.8391 39.5764 14.7748C39.7544 14.7066 39.921 14.6157 40.0763 14.5021C40.2316 14.3846 40.3604 14.254 40.4627 14.11C40.5687 13.9661 40.635 13.8184 40.6615 13.6669L40.7979 12.6954L40.0593 12.7124C39.6843 12.7162 39.3567 12.7579 39.0764 12.8374C38.7999 12.9169 38.5783 13.04 38.4117 13.2067C38.2488 13.3733 38.1446 13.5949 38.0992 13.8714C38.0575 14.1858 38.1257 14.432 38.3037 14.61C38.4855 14.7842 38.7336 14.8713 39.048 14.8713ZM43.289 15.6042L44.1526 9.72965H45.3059L45.198 10.5307C45.3267 10.3717 45.4764 10.2258 45.6468 10.0933C45.8172 9.9607 46.0161 9.85464 46.2433 9.7751C46.4706 9.69556 46.7338 9.65579 47.0331 9.65579C47.3853 9.65579 47.6978 9.73723 47.9705 9.90009C48.247 10.0592 48.4515 10.294 48.5841 10.6046C48.7204 10.9114 48.7545 11.2864 48.6864 11.7295L48.1239 15.6042H46.9308L47.4762 11.8545C47.5368 11.4644 47.4743 11.1652 47.2887 10.9568C47.1031 10.7447 46.8494 10.6387 46.5274 10.6387C46.3002 10.6387 46.0786 10.6784 45.8627 10.758C45.6506 10.8375 45.4707 10.9549 45.323 11.1102C45.1752 11.2655 45.0862 11.4606 45.0559 11.6954L44.4821 15.6042H43.289ZM51.7757 15.7179C51.0333 15.7179 50.486 15.4546 50.1338 14.9282C49.7815 14.3979 49.6717 13.6347 49.8043 12.6385C49.9293 11.7219 50.2209 10.989 50.6792 10.4398C51.1375 9.89063 51.7416 9.61602 52.4916 9.61602C52.7416 9.61602 52.9594 9.64822 53.1449 9.71261C53.3343 9.777 53.4972 9.86032 53.6335 9.96259C53.7699 10.0649 53.8797 10.1747 53.9631 10.2921C54.0502 10.4095 54.1146 10.5194 54.1562 10.6216L54.6221 7.16165H55.8266L54.6846 15.6042H53.7926L53.821 14.3998C53.768 14.5286 53.6885 14.6687 53.5824 14.8202C53.4764 14.9717 53.3419 15.1156 53.179 15.252C53.0162 15.3884 52.8192 15.5001 52.5882 15.5872C52.3571 15.6743 52.0863 15.7179 51.7757 15.7179ZM52.1337 14.8032C52.645 14.8032 53.0389 14.6327 53.3154 14.2918C53.5919 13.9472 53.7832 13.3828 53.8892 12.5988C53.946 12.1556 53.9441 11.7806 53.8835 11.4738C53.8229 11.1671 53.6979 10.936 53.5086 10.7807C53.323 10.6216 53.0616 10.5421 52.7245 10.5421C52.2965 10.5421 51.9253 10.705 51.611 11.0307C51.3004 11.3526 51.0977 11.8753 51.003 12.5988C50.9046 13.3108 50.9538 13.8563 51.1508 14.235C51.3477 14.6138 51.6754 14.8032 52.1337 14.8032ZM57.9061 15.7179C57.5425 15.7179 57.23 15.6497 56.9686 15.5133C56.7111 15.377 56.5217 15.18 56.4005 14.9225C56.2793 14.6649 56.2433 14.3543 56.2925 13.9907C56.3834 13.3393 56.6732 12.8525 57.1618 12.5306C57.6542 12.2086 58.3852 12.0382 59.3548 12.0193L60.2582 11.9909L60.3207 11.5648C60.3699 11.2125 60.3017 10.9436 60.1161 10.758C59.9343 10.5724 59.6673 10.4815 59.3151 10.4853C59.0272 10.4853 58.7507 10.561 58.4856 10.7125C58.2242 10.864 58.0349 11.097 57.9174 11.4114H56.8891C56.9611 11.0553 57.1164 10.7428 57.355 10.4739C57.5936 10.2012 57.8966 9.991 58.264 9.84328C58.6314 9.69178 59.0424 9.61602 59.4969 9.61602C60.0082 9.61602 60.4192 9.69367 60.7297 9.84896C61.0403 10.0043 61.2562 10.222 61.3774 10.5023C61.4986 10.7826 61.5327 11.114 61.4797 11.4966L60.8775 15.6042H59.8718L59.9287 14.5589C59.6522 15.0058 59.3435 15.3107 59.0026 15.4736C58.6655 15.6364 58.3 15.7179 57.9061 15.7179ZM58.4004 14.8713C58.5746 14.8713 58.7507 14.8391 58.9287 14.7748C59.1067 14.7066 59.2734 14.6157 59.4287 14.5021C59.584 14.3846 59.7128 14.254 59.815 14.11C59.9211 13.9661 59.9874 13.8184 60.0139 13.6669L60.1502 12.6954L59.4117 12.7124C59.0367 12.7162 58.709 12.7579 58.4288 12.8374C58.1523 12.9169 57.9307 13.04 57.764 13.2067C57.6012 13.3733 57.497 13.5949 57.4516 13.8714C57.4099 14.1858 57.4781 14.432 57.6561 14.61C57.8379 14.7842 58.086 14.8713 58.4004 14.8713ZM62.6414 15.6042L63.4709 9.72965H64.6128L64.4481 10.9341C64.5806 10.6463 64.7454 10.4057 64.9423 10.2126C65.1393 10.0156 65.3571 9.8679 65.5957 9.76942C65.8343 9.66716 66.0824 9.61602 66.34 9.61602C66.4119 9.61602 66.4801 9.6217 66.5445 9.63307C66.6127 9.64064 66.6638 9.65579 66.6979 9.67852L66.5331 10.8489C66.4915 10.8262 66.4347 10.811 66.3627 10.8034C66.2907 10.7959 66.2301 10.7902 66.1809 10.7864C65.8476 10.7637 65.5503 10.7959 65.2889 10.883C65.0276 10.9663 64.8155 11.1083 64.6526 11.3091C64.4897 11.506 64.3856 11.7598 64.3401 12.0704L63.8458 15.6042H62.6414ZM68.9532 15.7179C68.2108 15.7179 67.6635 15.4546 67.3112 14.9282C66.959 14.3979 66.8491 13.6347 66.9817 12.6385C67.1067 11.7219 67.3983 10.989 67.8567 10.4398C68.315 9.89063 68.9191 9.61602 69.669 9.61602C69.919 9.61602 70.1368 9.64822 70.3224 9.71261C70.5118 9.777 70.6746 9.86032 70.811 9.96259C70.9473 10.0649 71.0572 10.1747 71.1405 10.2921C71.2276 10.4095 71.292 10.5194 71.3337 10.6216L71.7996 7.16165H73.004L71.8621 15.6042H70.9701L70.9985 14.3998C70.9455 14.5286 70.8659 14.6687 70.7599 14.8202C70.6538 14.9717 70.5193 15.1156 70.3565 15.252C70.1936 15.3884 69.9967 15.5001 69.7656 15.5872C69.5346 15.6743 69.2638 15.7179 68.9532 15.7179ZM69.3111 14.8032C69.8224 14.8032 70.2163 14.6327 70.4928 14.2918C70.7693 13.9472 70.9606 13.3828 71.0667 12.5988C71.1235 12.1556 71.1216 11.7806 71.061 11.4738C71.0004 11.1671 70.8754 10.936 70.686 10.7807C70.5004 10.6216 70.2391 10.5421 69.902 10.5421C69.474 10.5421 69.1028 10.705 68.7884 11.0307C68.4778 11.3526 68.2752 11.8753 68.1805 12.5988C68.082 13.3108 68.1313 13.8563 68.3282 14.235C68.5252 14.6138 68.8528 14.8032 69.3111 14.8032Z" fill="white"/>
<path d="M0.200012 11.2373C0.200012 5.48474 4.86339 0.774902 10.616 0.774902H22.9028V11.2838C22.9028 17.0363 18.2394 21.6997 12.4868 21.6997H10.616C4.86339 21.6997 0.200012 16.9899 0.200012 11.2373Z" fill="#3866DF"/>
<path fill-rule="evenodd" clip-rule="evenodd" d="M17.4539 8.74964L17.9295 9.22769C18.3061 9.59951 18.5109 10.1041 18.5109 10.6353C18.5175 11.1665 18.3127 11.6717 17.9427 12.0495C17.9383 12.0544 17.9339 12.0587 17.9295 12.063C17.9273 12.0651 17.9251 12.0672 17.9229 12.0695L17.4539 12.5409C17.269 12.7268 17.1633 12.9791 17.1633 13.2453V13.9285C17.1633 15.0307 16.2715 15.9277 15.1749 15.9277H14.4945C14.2303 15.9277 13.9792 16.0333 13.7943 16.2192L13.3186 16.6973C12.9289 17.0897 12.4203 17.2816 11.9116 17.2816C11.4029 17.2816 10.8943 17.0897 10.5046 16.7046L10.0223 16.2192C9.83736 16.0333 9.58634 15.9277 9.3221 15.9277H8.6417C7.54513 15.9277 6.65333 15.0307 6.65333 13.9285V13.2453C6.65333 12.9791 6.54764 12.7268 6.36268 12.5342L5.88705 12.0628C5.11417 11.2866 5.10756 10.0178 5.88045 9.23499L6.36268 8.74964C6.54764 8.56373 6.65333 8.31142 6.65333 8.0392V7.36195C6.65333 6.25978 7.54513 5.36409 8.6417 5.36409H9.3221C9.58634 5.36409 9.83736 5.25719 10.0223 5.07128L10.4979 4.59323C11.2708 3.81042 12.5325 3.81042 13.312 4.58725L13.7943 5.07128C13.9792 5.25719 14.2303 5.36409 14.4945 5.36409H15.1749C16.2715 5.36409 17.1633 6.25978 17.1633 7.36195V8.0465C17.1633 8.31142 17.269 8.56373 17.4539 8.74964ZM10.2083 12.9324C10.3668 12.9324 10.5122 12.8726 10.6178 12.7598L14.0133 9.34766C14.2379 9.12191 14.2379 8.74943 14.0133 8.52368C13.7887 8.2986 13.4253 8.2986 13.2007 8.52368L9.80533 11.9365C9.58073 12.1622 9.58073 12.534 9.80533 12.7598C9.91102 12.8726 10.0563 12.9324 10.2083 12.9324ZM13.0285 12.348C13.0285 12.6733 13.2861 12.9323 13.6098 12.9323C13.9269 12.9323 14.1845 12.6733 14.1845 12.348C14.1845 12.03 13.9269 11.7703 13.6098 11.7703C13.2861 11.7703 13.0285 12.03 13.0285 12.348ZM10.2143 8.35811C10.5313 8.35811 10.789 8.61705 10.789 8.93575C10.789 9.26176 10.5313 9.52004 10.2143 9.52004C9.89718 9.52004 9.63295 9.26176 9.63295 8.93575C9.63295 8.61705 9.89718 8.35811 10.2143 8.35811Z" fill="white"/>
</svg>
