<svg width="64" height="22" viewBox="0 0 64 22" fill="none" xmlns="http://www.w3.org/2000/svg">
<path fill-rule="evenodd" clip-rule="evenodd" d="M16.0006 21.3524H10.4618L6.30844 5.04082C6.1113 4.29049 5.69272 3.62716 5.07699 3.31452C3.54039 2.52885 1.84716 1.90357 0 1.58821V0.96022H8.92255C10.154 0.96022 11.0776 1.90357 11.2315 2.99916L13.3865 14.7652L18.9226 0.96022H24.3075L16.0006 21.3524ZM27.3851 21.3524H22.1542L26.4616 0.96022H31.6925L27.3851 21.3524ZM38.4623 6.60637C38.6162 5.50805 39.5398 4.88006 40.6173 4.88006C42.3106 4.72238 44.155 5.03774 45.6943 5.82069L46.6179 1.43017C45.0786 0.802173 43.3854 0.486816 41.8488 0.486816C36.7718 0.486816 33.0775 3.31143 33.0775 7.23164C33.0775 10.2139 35.6943 11.7798 37.5414 12.7232C39.5398 13.6638 40.3095 14.2918 40.1555 15.2325C40.1555 16.6434 38.6162 17.2714 37.0796 17.2714C35.2325 17.2714 33.3853 16.8011 31.6948 16.0154L30.7712 20.4087C32.6184 21.1916 34.6168 21.507 36.4639 21.507C42.1566 21.6619 45.6943 18.84 45.6943 14.6045C45.6943 9.27058 38.4623 8.95795 38.4623 6.60637ZM63.998 21.3524L59.8445 0.96022H55.3833C54.4597 0.96022 53.5361 1.58821 53.2282 2.52885L45.5371 21.3524H50.922L51.9968 18.3728H58.6131L59.2288 21.3524H63.998ZM56.1536 6.44957L57.6902 14.135H53.3829L56.1536 6.44957Z" fill="#172B85"/>
</svg>
