<svg width="32" height="32" viewBox="0 0 32 32" fill="none" xmlns="http://www.w3.org/2000/svg">
<path fill-rule="evenodd" clip-rule="evenodd" d="M21.5302 19.2195C19.8237 19.2195 18.4402 20.603 18.4402 22.3095C18.4402 24.0161 19.8237 25.3995 21.5302 25.3995C23.2368 25.3995 24.6202 24.0161 24.6202 22.3095C24.6202 20.603 23.2368 19.2195 21.5302 19.2195ZM17.2402 22.3095C17.2402 19.9402 19.1609 18.0195 21.5302 18.0195C23.8995 18.0195 25.8202 19.9402 25.8202 22.3095C25.8202 24.6788 23.8995 26.5995 21.5302 26.5995C19.1609 26.5995 17.2402 24.6788 17.2402 22.3095Z" fill="#232323"/>
<path fill-rule="evenodd" clip-rule="evenodd" d="M10.2699 10.4492C10.6013 10.4492 10.8699 10.7178 10.8699 11.0492V17.8192C10.8699 18.1506 10.6013 18.4192 10.2699 18.4192C9.93855 18.4192 9.66992 18.1506 9.66992 17.8192V11.0492C9.66992 10.7178 9.93855 10.4492 10.2699 10.4492Z" fill="#232323"/>
<path fill-rule="evenodd" clip-rule="evenodd" d="M15.5944 5.48393C15.7827 5.3726 16.0166 5.37254 16.205 5.48377L24.755 10.5338C24.9878 10.6713 25.0999 10.9477 25.0286 11.2086C24.9573 11.4694 24.7203 11.6504 24.4498 11.6504H22.1298V16.2604C22.1298 16.5918 21.8612 16.8604 21.5298 16.8604C21.1984 16.8604 20.9298 16.5918 20.9298 16.2604V11.0504C20.9298 10.719 21.1984 10.4504 21.5298 10.4504H22.2542L15.9 6.69734L9.55325 10.4504H17.6498C17.9812 10.4504 18.2498 10.719 18.2498 11.0504V17.8204C18.2498 18.1518 17.9812 18.4204 17.6498 18.4204C17.3184 18.4204 17.0498 18.1518 17.0498 17.8204V11.6504H7.35982C7.08942 11.6504 6.85243 11.4695 6.78108 11.2087C6.70974 10.9479 6.82167 10.6716 7.05442 10.5339L15.5944 5.48393Z" fill="#232323"/>
<path fill-rule="evenodd" clip-rule="evenodd" d="M8.11969 19.9809C8.11969 19.6495 8.38832 19.3809 8.71969 19.3809H11.2097C11.5411 19.3809 11.8097 19.6495 11.8097 19.9809C11.8097 20.3122 11.5411 20.5809 11.2097 20.5809H9.31969V21.9209C9.31969 22.2522 9.05106 22.5209 8.71969 22.5209H7.37969V23.8809H15.8697C16.2011 23.8809 16.4697 24.1495 16.4697 24.4809C16.4697 24.8122 16.2011 25.0809 15.8697 25.0809H6.77969C6.44832 25.0809 6.17969 24.8122 6.17969 24.4809V21.9209C6.17969 21.5895 6.44832 21.3209 6.77969 21.3209H8.11969V19.9809Z" fill="#232323"/>
<path fill-rule="evenodd" clip-rule="evenodd" d="M21.5297 19.9609C21.8611 19.9609 22.1297 20.2296 22.1297 20.5609V24.0609C22.1297 24.3923 21.8611 24.6609 21.5297 24.6609C21.1983 24.6609 20.9297 24.3923 20.9297 24.0609V20.5609C20.9297 20.2296 21.1983 19.9609 21.5297 19.9609Z" fill="#232323"/>
<path fill-rule="evenodd" clip-rule="evenodd" d="M19.1895 22.3109C19.1895 21.9796 19.4581 21.7109 19.7895 21.7109H23.2795C23.6108 21.7109 23.8795 21.9796 23.8795 22.3109C23.8795 22.6423 23.6108 22.9109 23.2795 22.9109H19.7895C19.4581 22.9109 19.1895 22.6423 19.1895 22.3109Z" fill="#232323"/>
</svg>
