<svg width="32" height="32" viewBox="0 0 32 32" fill="none" xmlns="http://www.w3.org/2000/svg">
<path d="M24.37 19.7009C23.6216 18.3353 22.6746 17.0884 21.56 16.0009C20.4057 14.8413 19.0926 13.8515 17.66 13.0609C16.9187 12.6618 16.154 12.3079 15.37 12.0009C14.98 11.8509 14.57 11.7009 14.15 11.5709V8.21094L10.07 11.6709L6 15.1309L10.07 18.5809L14.15 22.0009V18.3309C14.7328 18.2958 15.3172 18.2958 15.9 18.3309C17.1326 18.4099 18.3479 18.6624 19.51 19.0809C20.7605 19.5079 21.9377 20.1251 23 20.9109C24.1156 21.7427 25.1234 22.7102 26 23.7909C25.6288 22.3651 25.0813 20.9912 24.37 19.7009V19.7009Z" stroke="#232323" stroke-width="1.3" stroke-linecap="round" stroke-linejoin="round"/>
</svg>
