<svg width="32" height="32" viewBox="0 0 32 32" fill="none" xmlns="http://www.w3.org/2000/svg">
<path d="M14.5 26C15.3284 26 16 25.3284 16 24.5C16 23.6716 15.3284 23 14.5 23C13.6716 23 13 23.6716 13 24.5C13 25.3284 13.6716 26 14.5 26Z" fill="#232323"/>
<path d="M21.5 26C22.3284 26 23 25.3284 23 24.5C23 23.6716 22.3284 23 21.5 23C20.6716 23 20 23.6716 20 24.5C20 25.3284 20.6716 26 21.5 26Z" fill="#232323"/>
<path d="M4 8H8.55L12.2625 19.7548H23.375L28 8" stroke="#232323" stroke-width="1.2" stroke-linecap="round" stroke-linejoin="round"/>
<rect x="12.5" y="2" width="11.6364" height="11.6364" rx="5.81818" fill="#0072BC"/>
<path d="M18.2741 4.95484C18.51 4.95656 18.7425 4.9996 18.9714 5.08397C19.2004 5.16833 19.4071 5.30608 19.5913 5.49719C19.7772 5.68831 19.9253 5.94657 20.0355 6.27198C20.1474 6.59568 20.2042 6.99857 20.2059 7.48066C20.2059 7.94382 20.1595 8.35618 20.0665 8.71775C19.9735 9.0776 19.8401 9.38149 19.6662 9.62942C19.494 9.87736 19.2848 10.0659 19.0386 10.195C18.7924 10.3242 18.5152 10.3887 18.207 10.3887C17.8919 10.3887 17.6121 10.3267 17.3676 10.2028C17.1231 10.0788 16.9243 9.90749 16.771 9.68882C16.6178 9.46844 16.5222 9.21534 16.4844 8.92953H17.2721C17.3237 9.1568 17.4287 9.34103 17.5871 9.48221C17.7473 9.62167 17.9539 9.69141 18.207 9.69141C18.5944 9.69141 18.8965 9.52267 19.1135 9.18521C19.3304 8.84602 19.4398 8.37254 19.4415 7.76475H19.4002C19.3106 7.91283 19.1987 8.04024 19.0644 8.14698C18.9318 8.25373 18.7829 8.33638 18.6176 8.39492C18.4523 8.45346 18.2759 8.48273 18.0882 8.48273C17.7834 8.48273 17.5062 8.40783 17.2566 8.25804C17.0069 8.10825 16.8081 7.90249 16.66 7.64079C16.5119 7.37908 16.4379 7.08035 16.4379 6.74461C16.4379 6.41059 16.5136 6.10756 16.6651 5.83552C16.8184 5.56348 17.0319 5.34826 17.3056 5.18986C17.5811 5.02973 17.904 4.95139 18.2741 4.95484ZM18.2767 5.62632C18.0753 5.62632 17.8936 5.67625 17.7318 5.77612C17.5717 5.87426 17.4451 6.00769 17.3521 6.17643C17.2592 6.34344 17.2127 6.52939 17.2127 6.73428C17.2127 6.93917 17.2574 7.12512 17.347 7.29213C17.4382 7.45742 17.5622 7.58913 17.7189 7.68727C17.8773 7.78369 18.0581 7.8319 18.2612 7.8319C18.4127 7.8319 18.5539 7.80263 18.6848 7.74409C18.8156 7.68555 18.9301 7.60463 19.0283 7.50132C19.1264 7.3963 19.203 7.27749 19.2581 7.14492C19.3132 7.01234 19.3408 6.87288 19.3408 6.72653C19.3408 6.53197 19.2943 6.35119 19.2013 6.18418C19.11 6.01716 18.9844 5.88287 18.8242 5.78128C18.6641 5.67798 18.4816 5.62632 18.2767 5.62632Z" fill="white"/>
</svg>
