<svg width="32" height="32" viewBox="0 0 32 32" fill="none" xmlns="http://www.w3.org/2000/svg">
<path d="M26.45 6H6.45C6.33065 6 6.21619 6.04741 6.1318 6.1318C6.04741 6.21619 6 6.33065 6 6.45V26.45C6 26.5693 6.04741 26.6838 6.1318 26.7682C6.21619 26.8526 6.33065 26.9 6.45 26.9H26.45C26.5693 26.9 26.6838 26.8526 26.7682 26.7682C26.8526 26.6838 26.9 26.5693 26.9 26.45V6.45C26.9 6.33065 26.8526 6.21619 26.7682 6.1318C26.6838 6.04741 26.5693 6 26.45 6ZM21.91 14L15.31 20.6C15.2006 20.7124 15.0701 20.8021 14.9259 20.8639C14.7818 20.9256 14.6268 20.9583 14.47 20.96C14.3093 20.9585 14.1504 20.9251 14.0028 20.8615C13.8551 20.798 13.7216 20.7057 13.61 20.59L10.99 17.97C10.8747 17.8586 10.7834 17.7249 10.7215 17.5771C10.6596 17.4292 10.6284 17.2703 10.63 17.11C10.63 16.9529 10.6619 16.7974 10.7238 16.6531C10.7857 16.5087 10.8762 16.3783 10.99 16.27C11.0986 16.1551 11.2308 16.0651 11.3776 16.0064C11.5244 15.9477 11.6821 15.9216 11.84 15.93C11.9947 15.93 12.1478 15.961 12.2904 16.0211C12.4329 16.0813 12.562 16.1693 12.67 16.28L14.45 18.06L20.22 12.31C20.323 12.1948 20.4495 12.1031 20.5909 12.041C20.7324 11.9789 20.8855 11.9479 21.04 11.95C21.2003 11.9484 21.3592 11.9796 21.5071 12.0415C21.6549 12.1034 21.7886 12.1947 21.9 12.31C22.0125 12.4191 22.1019 12.5496 22.163 12.6939C22.2241 12.8382 22.2556 12.9933 22.2556 13.15C22.2556 13.3067 22.2241 13.4618 22.163 13.6061C22.1019 13.7504 22.0125 13.8809 21.9 13.99L21.91 14Z" fill="#232323"/>
</svg>
