<svg width="32" height="32" viewBox="0 0 32 32" fill="none" xmlns="http://www.w3.org/2000/svg">
<path d="M12.0008 15.65C12.319 15.65 12.6243 15.5236 12.8493 15.2985C13.0744 15.0735 13.2008 14.7683 13.2008 14.45C13.2008 14.1317 13.0744 13.8265 12.8493 13.6015C12.6243 13.3764 12.319 13.25 12.0008 13.25C11.6825 13.25 11.3773 13.3764 11.1523 13.6015C10.9272 13.8265 10.8008 14.1317 10.8008 14.45C10.8008 14.7683 10.9272 15.0735 11.1523 15.2985C11.3773 15.5236 11.6825 15.65 12.0008 15.65Z" fill="#232323"/>
<path d="M16.0008 15.65C16.319 15.65 16.6243 15.5236 16.8493 15.2985C17.0744 15.0735 17.2008 14.7683 17.2008 14.45C17.2008 14.1317 17.0744 13.8265 16.8493 13.6015C16.6243 13.3764 16.319 13.25 16.0008 13.25C15.6825 13.25 15.3773 13.3764 15.1523 13.6015C14.9272 13.8265 14.8008 14.1317 14.8008 14.45C14.8008 14.7683 14.9272 15.0735 15.1523 15.2985C15.3773 15.5236 15.6825 15.65 16.0008 15.65Z" fill="#232323"/>
<path d="M20.0008 15.65C20.319 15.65 20.6243 15.5236 20.8493 15.2985C21.0744 15.0735 21.2008 14.7683 21.2008 14.45C21.2008 14.1317 21.0744 13.8265 20.8493 13.6015C20.6243 13.3764 20.319 13.25 20.0008 13.25C19.6825 13.25 19.3773 13.3764 19.1523 13.6015C18.9272 13.8265 18.8008 14.1317 18.8008 14.45C18.8008 14.7683 18.9272 15.0735 19.1523 15.2985C19.3773 15.5236 19.6825 15.65 20.0008 15.65Z" fill="#232323"/>
<path d="M11.15 21.2504H25.2C25.4122 21.2504 25.6157 21.1661 25.7657 21.0161C25.9157 20.866 26 20.6626 26 20.4504V8.45039C26 8.23822 25.9157 8.03473 25.7657 7.88471C25.6157 7.73468 25.4122 7.65039 25.2 7.65039H6.80001C6.58784 7.65039 6.38435 7.73468 6.23432 7.88471C6.08429 8.03473 6.00001 8.23822 6.00001 8.45039V23.5504C5.99931 23.7025 6.04201 23.8517 6.12309 23.9804C6.20417 24.1091 6.32026 24.2121 6.45777 24.2771C6.59527 24.3422 6.74848 24.3667 6.89943 24.3478C7.05038 24.3289 7.1928 24.2674 7.31001 24.1704L10.64 21.4304C10.7831 21.3115 10.964 21.2476 11.15 21.2504V21.2504Z" stroke="#232323" stroke-width="1.2" stroke-linecap="round" stroke-linejoin="round"/>
</svg>
