<svg width="32" height="32" viewBox="0 0 32 32" fill="none" xmlns="http://www.w3.org/2000/svg">
    <path d="M9.51002 19.67H9.09002C8.29959 19.625 7.55632 19.2794 7.01262 18.7039C6.46892 18.1284 6.16602 17.3667 6.16602 16.575C6.16602 15.7833 6.46892 15.0216 7.01262 14.4461C7.55632 13.8706 8.29959 13.5249 9.09002 13.48H9.51002"
          stroke="#232323" stroke-width="1.2" stroke-linecap="round" stroke-linejoin="round"/>
    <path d="M12 13H10V20H12V13Z" stroke="#232323" stroke-width="1.2" stroke-linecap="round" stroke-linejoin="round"/>
    <path d="M22.4902 13.48H22.9102C23.7007 13.5249 24.4439 13.8706 24.9876 14.4461C25.5313 15.0216 25.8342 15.7833 25.8342 16.575C25.8342 17.3667 25.5313 18.1284 24.9876 18.7039C24.4439 19.2794 23.7007 19.625 22.9102 19.67H22.4902"
          stroke="#232323" stroke-width="1.2" stroke-linecap="round" stroke-linejoin="round"/>
    <path d="M20 20H22V13H20V20Z" stroke="#232323" stroke-width="1.2" stroke-linecap="round" stroke-linejoin="round"/>
    <path d="M8.51953 13.54C8.92044 11.8465 9.87273 10.3343 11.2267 9.24094C12.5807 8.14762 14.2596 7.53522 15.9995 7.5C17.7341 7.53298 19.4088 8.13963 20.7621 9.22516C22.1154 10.3107 23.071 11.8139 23.4795 13.5"
          stroke="#232323" stroke-width="1.2" stroke-linecap="round" stroke-linejoin="round"/>
    <path d="M17.7599 21.8501H16.7099C15.9753 21.8501 15.3799 22.4433 15.3799 23.1751C15.3799 23.9069 15.9753 24.5001 16.7099 24.5001H17.7599C18.4944 24.5001 19.0899 23.9069 19.0899 23.1751C19.0899 22.4433 18.4944 21.8501 17.7599 21.8501Z"
          stroke="#232323" stroke-width="1.2" stroke-linecap="round" stroke-linejoin="round"/>
    <path d="M23.4798 19.6099V20.4999C23.4772 21.2089 23.1937 21.888 22.6914 22.3884C22.1891 22.8889 21.5089 23.1699 20.7998 23.1699H19.0898"
          stroke="#232323" stroke-width="1.2" stroke-linecap="round" stroke-linejoin="round"/>
</svg>
