<svg width="32" height="32" viewBox="0 0 32 32" fill="none" xmlns="http://www.w3.org/2000/svg">
<path d="M9.51002 19.6705H9.09002C8.29959 19.6255 7.55632 19.2799 7.01262 18.7044C6.46892 18.1289 6.16602 17.3672 6.16602 16.5755C6.16602 15.7838 6.46892 15.0221 7.01262 14.4466C7.55632 13.8711 8.29959 13.5254 9.09002 13.4805H9.51002" stroke="#232323" stroke-width="1.2" stroke-linecap="round" stroke-linejoin="round"/>
<path d="M12 13H10V20H12V13Z" stroke="#232323" stroke-width="1.2" stroke-linecap="round" stroke-linejoin="round"/>
<path d="M22.4902 13.4805H22.9102C23.7007 13.5254 24.4439 13.8711 24.9876 14.4466C25.5313 15.0221 25.8342 15.7838 25.8342 16.5755C25.8342 17.3672 25.5313 18.1289 24.9876 18.7044C24.4439 19.2799 23.7007 19.6255 22.9102 19.6705H22.4902" stroke="#232323" stroke-width="1.2" stroke-linecap="round" stroke-linejoin="round"/>
<path d="M20 20H22V13H20V20Z" stroke="#232323" stroke-width="1.2" stroke-linecap="round" stroke-linejoin="round"/>
<path d="M8.51953 13.54C8.92044 11.8465 9.87273 10.3343 11.2267 9.24094C12.5807 8.14762 14.2596 7.53522 15.9995 7.5C17.7341 7.53298 19.4088 8.13963 20.7621 9.22516C22.1154 10.3107 23.071 11.8139 23.4795 13.5" stroke="#232323" stroke-width="1.2" stroke-linecap="round" stroke-linejoin="round"/>
<path d="M17.7609 21.8496H16.7109C15.9763 21.8496 15.3809 22.4428 15.3809 23.1746C15.3809 23.9064 15.9763 24.4996 16.7109 24.4996H17.7609C18.4954 24.4996 19.0909 23.9064 19.0909 23.1746C19.0909 22.4428 18.4954 21.8496 17.7609 21.8496Z" stroke="#232323" stroke-width="1.2" stroke-linecap="round" stroke-linejoin="round"/>
<path d="M23.4798 19.6094V20.4994C23.4772 21.2084 23.1937 21.8875 22.6914 22.388C22.1891 22.8884 21.5089 23.1694 20.7998 23.1694H19.0898" stroke="#232323" stroke-width="1.2" stroke-linecap="round" stroke-linejoin="round"/>
</svg>
