<svg width="65" height="21" viewBox="0 0 65 21" fill="none" xmlns="http://www.w3.org/2000/svg">
<rect x="0.399994" y="0.281982" width="63.972" height="19.986" rx="1.32985" fill="#E53420"/>
<path d="M10.9685 11.4328V12.3438L8.07344 12.3549V11.4384L10.9685 11.4328ZM12.8753 14.7749V8.44836H11.3439V7.70505C11.8209 7.70505 12.1953 7.66779 12.4673 7.59327C12.743 7.51503 12.9405 7.40139 13.0597 7.25235C13.1827 7.09959 13.2516 6.9133 13.2665 6.69347H14.0992V14.7749H12.8753ZM19.1919 6.58169C19.6539 6.58169 20.0805 6.66739 20.4717 6.83878C20.8667 7.01017 21.1908 7.25794 21.4442 7.58209C21.7013 7.90252 21.854 8.29187 21.9025 8.75016H20.7903C20.686 8.37757 20.4978 8.08695 20.2258 7.8783C19.9575 7.66592 19.6203 7.55974 19.2142 7.55974C18.7634 7.55974 18.3852 7.68828 18.0797 7.94537C17.7779 8.19873 17.5581 8.56945 17.4202 9.05754C17.2861 9.54563 17.2432 10.1343 17.2917 10.8236C17.396 10.5777 17.5488 10.3635 17.75 10.1809C17.9549 9.9946 18.1896 9.85115 18.4541 9.75055C18.7187 9.64995 19.0019 9.59966 19.3036 9.59966C19.8402 9.59966 20.3096 9.70212 20.712 9.90704C21.1144 10.112 21.4274 10.4044 21.651 10.7845C21.8782 11.1645 21.9919 11.6154 21.9919 12.137C21.9919 12.6735 21.8726 13.1504 21.6342 13.5677C21.3995 13.9813 21.066 14.3073 20.6338 14.5458C20.2016 14.7805 19.693 14.8979 19.108 14.8979C18.4672 14.8979 17.9102 14.7358 17.437 14.4116C16.9675 14.0838 16.6042 13.6199 16.3472 13.02C16.0938 12.4164 15.9671 11.6992 15.9671 10.8683C15.9671 9.99646 16.0919 9.24011 16.3416 8.59926C16.5912 7.95468 16.9563 7.45727 17.437 7.10704C17.9176 6.75681 18.5026 6.58169 19.1919 6.58169ZM19.0801 10.5442C18.8007 10.5442 18.5343 10.6094 18.2809 10.7398C18.0275 10.8665 17.8207 11.0341 17.6605 11.2428C17.5003 11.4514 17.4202 11.6787 17.4202 11.9246C17.4128 12.3233 17.478 12.6735 17.6158 12.9753C17.7574 13.2771 17.953 13.5137 18.2027 13.6851C18.456 13.8527 18.7504 13.9366 19.0857 13.9366C19.3987 13.9366 19.6762 13.8639 19.9184 13.7186C20.1643 13.5696 20.3581 13.3647 20.4997 13.1038C20.6412 12.8393 20.712 12.5356 20.712 12.1929C20.712 11.8464 20.6468 11.5502 20.5164 11.3042C20.386 11.0583 20.1979 10.8702 19.952 10.7398C19.7098 10.6094 19.4192 10.5442 19.0801 10.5442ZM25.0413 6.57052C25.4101 6.57052 25.7399 6.66739 26.0305 6.86113C26.3248 7.05488 26.5558 7.32687 26.7235 7.6771C26.8912 8.02361 26.975 8.426 26.975 8.88429C26.975 9.34257 26.8912 9.7431 26.7235 10.0859C26.5596 10.4287 26.3304 10.6969 26.0361 10.8907C25.7455 11.0807 25.4139 11.1757 25.0413 11.1757C24.6687 11.1757 24.3352 11.0807 24.0409 10.8907C23.7465 10.6969 23.5137 10.4287 23.3423 10.0859C23.1746 9.7431 23.0908 9.34257 23.0908 8.88429C23.0908 8.426 23.1765 8.02361 23.3479 7.6771C23.5192 7.32687 23.7521 7.05488 24.0465 6.86113C24.3408 6.66739 24.6724 6.57052 25.0413 6.57052ZM25.0301 10.5274C25.3729 10.5274 25.6318 10.3784 25.8069 10.0803C25.9821 9.78222 26.0696 9.38355 26.0696 8.88429C26.0696 8.37757 25.9802 7.97331 25.8013 7.67151C25.6225 7.36599 25.3654 7.21323 25.0301 7.21323C24.8065 7.21323 24.6184 7.28402 24.4656 7.42561C24.3129 7.56346 24.1955 7.75907 24.1135 8.01243C24.0316 8.26207 23.9906 8.55268 23.9906 8.88429C23.9906 9.37983 24.08 9.7785 24.2588 10.0803C24.4377 10.3784 24.6948 10.5274 25.0301 10.5274ZM30.1662 10.2703C30.5388 10.2703 30.8704 10.369 31.161 10.5665C31.4554 10.764 31.6864 11.036 31.854 11.3825C32.0217 11.729 32.1055 12.1295 32.1055 12.5841C32.1055 13.0461 32.0217 13.4504 31.854 13.7969C31.6901 14.1396 31.461 14.4079 31.1666 14.6016C30.876 14.7917 30.5425 14.8867 30.1662 14.8867C29.7936 14.8867 29.4583 14.7917 29.1602 14.6016C28.8659 14.4079 28.6349 14.1396 28.4672 13.7969C28.2996 13.4504 28.2157 13.0461 28.2157 12.5841C28.2157 12.1295 28.2996 11.729 28.4672 11.3825C28.6386 11.036 28.8715 10.764 29.1658 10.5665C29.4639 10.369 29.7974 10.2703 30.1662 10.2703ZM30.155 14.2272C30.3749 14.2272 30.563 14.1583 30.7195 14.0204C30.876 13.8826 30.9952 13.6925 31.0772 13.4504C31.1592 13.2044 31.2001 12.9194 31.2001 12.5953C31.2001 12.2637 31.1573 11.973 31.0716 11.7234C30.9896 11.4738 30.8704 11.2782 30.7139 11.1366C30.5612 10.995 30.3749 10.9242 30.155 10.9242C29.9389 10.9242 29.7526 10.995 29.5962 11.1366C29.4434 11.2782 29.326 11.4756 29.2441 11.729C29.1621 11.9786 29.1211 12.2674 29.1211 12.5953C29.1211 12.9194 29.1621 13.2044 29.2441 13.4504C29.326 13.6925 29.4434 13.8826 29.5962 14.0204C29.7526 14.1583 29.9389 14.2272 30.155 14.2272ZM30.6301 6.60405L25.1978 14.8196L24.4265 14.8084L29.8812 6.60405H30.6301ZM39.4009 14.8867C38.6669 14.8867 38.0316 14.7246 37.4951 14.4005C36.9623 14.0726 36.5506 13.6013 36.26 12.9865C35.9731 12.368 35.8296 11.6228 35.8296 10.751C35.8296 9.87164 35.9749 9.12274 36.2655 8.50425C36.5599 7.88203 36.9735 7.40698 37.5063 7.0791C38.0428 6.74749 38.6743 6.58169 39.4009 6.58169C40.1237 6.58169 40.7496 6.74749 41.2787 7.0791C41.8115 7.40698 42.2214 7.88203 42.5083 8.50425C42.7989 9.12274 42.9442 9.87164 42.9442 10.751C42.9442 11.6228 42.8007 12.3661 42.5138 12.9809C42.2269 13.5957 41.8171 14.067 41.2843 14.3949C40.7552 14.7227 40.1274 14.8867 39.4009 14.8867ZM39.4009 13.8639C39.8703 13.8639 40.2709 13.7559 40.6025 13.5398C40.9378 13.3237 41.193 12.9865 41.3681 12.5282C41.5432 12.0699 41.6308 11.4831 41.6308 10.7677C41.6308 10.0337 41.5414 9.43385 41.3625 8.96812C41.1874 8.50238 40.9322 8.1596 40.5969 7.93978C40.2653 7.71622 39.8666 7.60445 39.4009 7.60445C38.9351 7.60445 38.5327 7.71622 38.1937 7.93978C37.8584 8.16333 37.5994 8.50797 37.4168 8.97371C37.2343 9.43944 37.143 10.0374 37.143 10.7677C37.143 11.4868 37.2343 12.0755 37.4168 12.5338C37.5994 12.9883 37.8584 13.3237 38.1937 13.5398C38.5327 13.7559 38.9351 13.8639 39.4009 13.8639ZM44.5505 6.69347H49.7146L49.709 7.72181H45.7689V10.22H49.2731V11.2372H45.7689V14.7749H44.5505V6.69347ZM51.2418 6.69347H56.4059L56.4003 7.72181H52.4602V10.22H55.9644V11.2372H52.4602V14.7749H51.2418V6.69347Z" fill="#F2F2F2"/>
</svg>
