<svg width="32" height="32" viewBox="0 0 32 32" fill="none" xmlns="http://www.w3.org/2000/svg">
<path d="M25.63 15.8L16.2 6.37004C16.0701 6.23957 15.9134 6.1389 15.7407 6.07501C15.5681 6.01112 15.3836 5.98554 15.2 6.00004L7.53004 6.37004C7.21648 6.38464 6.91967 6.51576 6.69772 6.73772C6.47576 6.95967 6.34464 7.25648 6.33004 7.57004L6.00004 15.24C5.98554 15.4236 6.01112 15.6081 6.07501 15.7807C6.1389 15.9534 6.23957 16.1101 6.37004 16.24L15.8 25.67C16.038 25.9064 16.3597 26.039 16.695 26.039C17.0304 26.039 17.3521 25.9064 17.59 25.67L25.59 17.67C25.722 17.5539 25.8285 17.4116 25.9026 17.2521C25.9767 17.0927 26.017 16.9196 26.0207 16.7438C26.0245 16.568 25.9917 16.3934 25.9244 16.2309C25.8572 16.0685 25.7569 15.9217 25.63 15.8ZM8.63004 8.67004C8.98052 8.31764 9.42773 8.07723 9.915 7.97927C10.4023 7.88131 10.9076 7.93022 11.3671 8.11979C11.8265 8.30937 12.2193 8.63107 12.4957 9.04414C12.7721 9.4572 12.9197 9.94302 12.9197 10.44C12.9197 10.9371 12.7721 11.4229 12.4957 11.8359C12.2193 12.249 11.8265 12.5707 11.3671 12.7603C10.9076 12.9499 10.4023 12.9988 9.915 12.9008C9.42773 12.8028 8.98052 12.5624 8.63004 12.21C8.17238 11.732 7.92026 11.0936 7.92773 10.4319C7.93521 9.77011 8.20169 9.13763 8.67004 8.67004H8.63004Z" fill="#232323"/>
<path d="M25.2702 16.1717L15.8302 6.73172C15.6897 6.59103 15.4991 6.51189 15.3002 6.51172L7.62022 6.88172C7.43578 6.8935 7.26196 6.97209 7.13127 7.10277C7.00059 7.23345 6.922 7.40728 6.91022 7.59172L6.54022 15.2717C6.53433 15.3754 6.55095 15.4791 6.58892 15.5758C6.6269 15.6725 6.68533 15.7598 6.76022 15.8317L16.2002 25.2717C16.3408 25.4122 16.5315 25.4911 16.7302 25.4911C16.929 25.4911 17.1196 25.4122 17.2602 25.2717L25.2602 17.2717C25.3991 17.13 25.4779 16.9401 25.4802 16.7417C25.4869 16.6373 25.4717 16.5327 25.4355 16.4345C25.3993 16.3363 25.343 16.2468 25.2702 16.1717ZM12.2702 12.1717C11.9197 12.5241 11.4725 12.7645 10.9853 12.8625C10.498 12.9604 9.99262 12.9115 9.53318 12.722C9.07374 12.5324 8.68092 12.2107 8.40452 11.7976C8.12811 11.3846 7.98056 10.8987 7.98056 10.4017C7.98056 9.90471 8.12811 9.41888 8.40452 9.00582C8.68092 8.59275 9.07374 8.27105 9.53318 8.08148C9.99262 7.8919 10.498 7.84299 10.9853 7.94095C11.4725 8.03891 11.9197 8.27932 12.2702 8.63172C12.5022 8.86996 12.685 9.15159 12.808 9.46052C12.9311 9.76944 12.992 10.0996 12.9874 10.4321C12.9827 10.7646 12.9126 11.0929 12.7809 11.3983C12.6493 11.7036 12.4588 11.9801 12.2202 12.2117L12.2702 12.1717Z" fill="#232323"/>
<path d="M25.9998 15.441L16.5598 6.00098C16.386 5.82437 16.1767 5.68669 15.9457 5.59705C15.7147 5.50741 15.4673 5.46784 15.2198 5.48098L7.53983 5.84098C7.09701 5.86297 6.67834 6.04943 6.36577 6.36385C6.05319 6.67828 5.86921 7.09804 5.84983 7.54098L5.48983 15.221C5.47411 15.4678 5.5115 15.7151 5.59947 15.9463C5.68745 16.1775 5.82397 16.3871 5.99983 16.561L15.4398 26.001C15.6047 26.1671 15.8011 26.2986 16.0174 26.3879C16.2338 26.4772 16.4658 26.5224 16.6998 26.521C16.9407 26.5291 17.1807 26.487 17.4044 26.3975C17.6282 26.308 17.831 26.173 17.9998 26.001L25.9998 18.001C26.1652 17.8365 26.2965 17.6409 26.386 17.4256C26.4756 17.2102 26.5217 16.9792 26.5217 16.746C26.5217 16.5127 26.4756 16.2818 26.386 16.0664C26.2965 15.851 26.1652 15.6555 25.9998 15.491V15.441ZM12.2198 12.211C11.8693 12.5634 11.4221 12.8038 10.9349 12.9017C10.4476 12.9997 9.94222 12.9508 9.48278 12.7612C9.02335 12.5716 8.63053 12.2499 8.35412 11.8369C8.07772 11.4238 7.93016 10.938 7.93016 10.441C7.93016 9.94396 8.07772 9.45814 8.35412 9.04507C8.63053 8.63201 9.02335 8.31031 9.48278 8.12073C9.94222 7.93116 10.4476 7.88225 10.9349 7.98021C11.4221 8.07817 11.8693 8.31858 12.2198 8.67098C12.6828 9.14382 12.9421 9.77922 12.9421 10.441C12.9421 11.1027 12.6828 11.7381 12.2198 12.211Z" fill="#232323"/>
</svg>
