<svg width="32" height="32" viewBox="0 0 32 32" fill="none" xmlns="http://www.w3.org/2000/svg">
<path d="M16.0006 6C13.8497 6 11.7869 6.85444 10.266 8.37536C8.74507 9.89628 7.89063 11.9591 7.89062 14.11C7.89063 17.57 12.7206 23.16 14.8906 25.53C15.0283 25.6791 15.1953 25.798 15.3812 25.8794C15.567 25.9608 15.7677 26.0028 15.9706 26.0028C16.1735 26.0028 16.3742 25.9608 16.5601 25.8794C16.746 25.798 16.913 25.6791 17.0506 25.53C19.2506 23.16 24.0506 17.53 24.0506 14.11C24.0507 11.9694 23.2045 9.91568 21.6965 8.39647C20.1885 6.87727 18.1411 6.01584 16.0006 6ZM16.0006 17.8C15.2708 17.8 14.5574 17.5836 13.9506 17.1781C13.3438 16.7727 12.8708 16.1964 12.5915 15.5221C12.3122 14.8478 12.2391 14.1059 12.3815 13.3901C12.5239 12.6743 12.8753 12.0168 13.3914 11.5008C13.9075 10.9847 14.565 10.6333 15.2807 10.4909C15.9965 10.3485 16.7385 10.4216 17.4127 10.7009C18.087 10.9802 18.6633 11.4531 19.0687 12.0599C19.4742 12.6668 19.6906 13.3802 19.6906 14.11C19.6906 15.0886 19.3019 16.0272 18.6098 16.7192C17.9178 17.4112 16.9793 17.8 16.0006 17.8Z" fill="#232323" stroke="#232323" stroke-width="1.2" stroke-linecap="round" stroke-linejoin="round"/>
</svg>
