<svg width="32" height="32" viewBox="0 0 32 32" fill="none" xmlns="http://www.w3.org/2000/svg">
<path d="M25.63 15.8L16.2 6.37004C16.0701 6.23957 15.9134 6.1389 15.7407 6.07501C15.5681 6.01112 15.3836 5.98554 15.2 6.00004L7.53004 6.37004C7.21648 6.38464 6.91967 6.51576 6.69772 6.73772C6.47576 6.95967 6.34464 7.25648 6.33004 7.57004L6.00004 15.24C5.98554 15.4236 6.01112 15.6081 6.07501 15.7807C6.1389 15.9534 6.23957 16.1101 6.37004 16.24L15.8 25.67C16.038 25.9064 16.3597 26.039 16.695 26.039C17.0304 26.039 17.3521 25.9064 17.59 25.67L25.59 17.67C25.722 17.5539 25.8285 17.4116 25.9026 17.2521C25.9767 17.0927 26.017 16.9196 26.0207 16.7438C26.0245 16.568 25.9917 16.3934 25.9244 16.2309C25.8572 16.0685 25.7569 15.9217 25.63 15.8ZM9.00004 9.00004C9.27927 8.71914 9.63561 8.52748 10.0239 8.44934C10.4122 8.37121 10.8149 8.41012 11.1811 8.56114C11.5472 8.71217 11.8603 8.9685 12.0806 9.29766C12.3009 9.62682 12.4185 10.014 12.4185 10.41C12.4185 10.8061 12.3009 11.1933 12.0806 11.5224C11.8603 11.8516 11.5472 12.1079 11.1811 12.2589C10.8149 12.41 10.4122 12.4489 10.0239 12.3707C9.63561 12.2926 9.27927 12.1009 9.00004 11.82C8.62754 11.4453 8.41845 10.9384 8.41845 10.41C8.41845 9.88167 8.62754 9.37476 9.00004 9.00004Z" fill="#232323"/>
<path d="M25.2702 16.1717L15.8302 6.73172C15.6897 6.59103 15.4991 6.51189 15.3002 6.51172L7.62022 6.88172C7.43578 6.8935 7.26196 6.97209 7.13127 7.10277C7.00059 7.23345 6.922 7.40728 6.91022 7.59172L6.54022 15.2717C6.53433 15.3754 6.55095 15.4791 6.58892 15.5758C6.6269 15.6725 6.68533 15.7598 6.76022 15.8317L16.2002 25.2717C16.3408 25.4122 16.5315 25.4911 16.7302 25.4911C16.929 25.4911 17.1196 25.4122 17.2602 25.2717L25.2602 17.2717C25.3991 17.13 25.4779 16.9401 25.4802 16.7417C25.4869 16.6373 25.4717 16.5327 25.4355 16.4345C25.3993 16.3363 25.343 16.2468 25.2702 16.1717ZM11.8602 11.8517C11.581 12.1326 11.2246 12.3243 10.8364 12.4024C10.4481 12.4805 10.0453 12.4416 9.67919 12.2906C9.31304 12.1396 8.99998 11.8833 8.77969 11.5541C8.5594 11.2249 8.44181 10.8378 8.44181 10.4417C8.44181 10.0456 8.5594 9.6585 8.77969 9.32934C8.99998 9.00019 9.31304 8.74385 9.67919 8.59282C10.0453 8.4418 10.4481 8.40289 10.8364 8.48102C11.2246 8.55916 11.581 8.75082 11.8602 9.03172C12.2327 9.40644 12.4418 9.91335 12.4418 10.4417C12.4418 10.9701 12.2327 11.477 11.8602 11.8517Z" fill="#232323"/>
<path d="M25.9998 15.441L16.5598 6.00098C16.386 5.82437 16.1767 5.68669 15.9457 5.59705C15.7147 5.50741 15.4673 5.46784 15.2198 5.48098L7.53983 5.84098C7.09701 5.86297 6.67834 6.04943 6.36577 6.36385C6.05319 6.67828 5.86921 7.09804 5.84983 7.54098L5.48983 15.221C5.47411 15.4678 5.5115 15.7151 5.59947 15.9463C5.68745 16.1775 5.82397 16.3871 5.99983 16.561L15.4398 26.001C15.6047 26.1671 15.8011 26.2986 16.0174 26.3879C16.2338 26.4772 16.4658 26.5224 16.6998 26.521C16.9407 26.5291 17.1807 26.487 17.4044 26.3975C17.6282 26.308 17.831 26.173 17.9998 26.001L25.9998 18.001C26.1652 17.8365 26.2965 17.6409 26.386 17.4256C26.4756 17.2102 26.5217 16.9792 26.5217 16.746C26.5217 16.5127 26.4756 16.2818 26.386 16.0664C26.2965 15.851 26.1652 15.6555 25.9998 15.491V15.441ZM11.8598 11.851C11.5806 12.1319 11.2243 12.3235 10.836 12.4017C10.4477 12.4798 10.0449 12.4409 9.67879 12.2899C9.31265 12.1388 8.99959 11.8825 8.7793 11.5534C8.55901 11.2242 8.44141 10.837 8.44141 10.441C8.44141 10.0449 8.55901 9.65775 8.7793 9.3286C8.99959 8.99944 9.31265 8.7431 9.67879 8.59208C10.0449 8.44105 10.4477 8.40214 10.836 8.48028C11.2243 8.55842 11.5806 8.75008 11.8598 9.03097C12.2323 9.4057 12.4414 9.9126 12.4414 10.441C12.4414 10.9693 12.2323 11.4763 11.8598 11.851Z" fill="#232323"/>
</svg>
