<svg width="32" height="32" viewBox="0 0 32 32" fill="none" xmlns="http://www.w3.org/2000/svg">
<path d="M25.291 8.85938H15.291" stroke="#232323" stroke-width="1.2" stroke-linecap="round" stroke-linejoin="round"/>
<path d="M9.57094 8.85938H6.71094" stroke="#232323" stroke-width="1.2" stroke-linecap="round" stroke-linejoin="round"/>
<path d="M12.4303 11.72C14.0098 11.72 15.2903 10.4395 15.2903 8.86C15.2903 7.28047 14.0098 6 12.4303 6C10.8508 6 9.57031 7.28047 9.57031 8.86C9.57031 10.4395 10.8508 11.72 12.4303 11.72Z" stroke="#232323" stroke-width="1.2" stroke-linecap="round" stroke-linejoin="round"/>
<path d="M25.291 23.1406H15.291" stroke="#232323" stroke-width="1.2" stroke-linecap="round" stroke-linejoin="round"/>
<path d="M9.57094 23.1406H6.71094" stroke="#232323" stroke-width="1.2" stroke-linecap="round" stroke-linejoin="round"/>
<path d="M12.4303 25.9993C14.0098 25.9993 15.2903 24.7188 15.2903 23.1393C15.2903 21.5598 14.0098 20.2793 12.4303 20.2793C10.8508 20.2793 9.57031 21.5598 9.57031 23.1393C9.57031 24.7188 10.8508 25.9993 12.4303 25.9993Z" stroke="#232323" stroke-width="1.2" stroke-linecap="round" stroke-linejoin="round"/>
<path d="M6.71094 16H16.7109" stroke="#232323" stroke-width="1.2" stroke-linecap="round" stroke-linejoin="round"/>
<path d="M22.4316 16H25.2916" stroke="#232323" stroke-width="1.2" stroke-linecap="round" stroke-linejoin="round"/>
<path d="M19.5709 18.8606C21.1505 18.8606 22.4309 17.5802 22.4309 16.0006C22.4309 14.4211 21.1505 13.1406 19.5709 13.1406C17.9914 13.1406 16.7109 14.4211 16.7109 16.0006C16.7109 17.5802 17.9914 18.8606 19.5709 18.8606Z" stroke="#232323" stroke-width="1.2" stroke-linecap="round" stroke-linejoin="round"/>
</svg>
