<svg width="20" height="20" viewBox="0 0 20 20" fill="none" xmlns="http://www.w3.org/2000/svg">
<path d="M18.3153 10.2941C18.3258 9.6691 18.2631 9.04511 18.1286 8.43555H9.83398V11.8092H14.7028C14.6106 12.4008 14.4031 12.967 14.0927 13.4739C13.7823 13.9807 13.3755 14.4178 12.8967 14.7587L12.8797 14.8717L15.5025 16.9623L15.6841 16.981C17.3527 15.3951 18.315 13.0617 18.315 10.2941" fill="#4285F4"/>
<path d="M9.83571 19.1817C12.221 19.1817 14.2235 18.3735 15.6863 16.9796L12.8984 14.7572C12.1524 15.2927 11.1512 15.6665 9.83571 15.6665C8.71851 15.6598 7.63174 15.2912 6.72958 14.6131C5.82741 13.935 5.15568 12.9818 4.80968 11.8887L4.70614 11.8978L1.979 14.0694L1.94336 14.1714C2.67784 15.6777 3.80503 16.944 5.19889 17.8288C6.59274 18.7137 8.1983 19.1821 9.83605 19.1817" fill="#34A853"/>
<path d="M4.80866 11.8898C4.61542 11.3111 4.5157 10.7037 4.51349 10.0919C4.51705 9.48098 4.61308 8.87439 4.79813 8.29394L4.79321 8.17342L2.03264 5.9668L1.94234 6.01099C1.32274 7.27682 1 8.67444 1 10.0918C1 11.5091 1.32274 12.9067 1.94234 14.1726L4.80866 11.8898Z" fill="#FBBC05"/>
<path d="M9.83409 4.51579C11.1 4.49556 12.3244 4.9807 13.2502 5.86939L15.7436 3.36427C14.1444 1.82053 12.0267 0.973497 9.83409 1.00063C8.19637 1.00023 6.59082 1.46861 5.19696 2.35338C3.80311 3.23816 2.67591 4.50446 1.94141 6.01069L4.79822 8.29364C5.14763 7.20073 5.82159 6.24823 6.72508 5.57045C7.62857 4.89266 8.71601 4.52377 9.83409 4.51579Z" fill="#EB4335"/>
</svg>
