<svg width="32" height="32" viewBox="0 0 32 32" fill="none" xmlns="http://www.w3.org/2000/svg">
<path d="M16 9.88175C15.4601 8.82575 14.5809 7.98183 13.5037 7.48549C12.4266 6.98916 11.2138 6.86921 10.0603 7.14491C8.90675 7.42061 7.87932 8.07595 7.14297 9.00572C6.40663 9.93548 6.00409 11.0857 6 12.2717C6 16.2017 10.66 20.2717 16 25.5417C21.29 20.2717 26 16.2717 26 12.2717C25.9959 11.0857 25.5934 9.93548 24.857 9.00572C24.1207 8.07595 23.0933 7.42061 21.9397 7.14491C20.7862 6.86921 19.5734 6.98916 18.4963 7.48549C17.4191 7.98183 16.5399 8.82575 16 9.88175Z" fill="#232323" stroke="#232323" stroke-width="1.2" stroke-linecap="round" stroke-linejoin="round"/>
</svg>
