<svg width="32" height="32" viewBox="0 0 32 32" fill="none" xmlns="http://www.w3.org/2000/svg">
<path d="M16 9.61026C15.4601 8.55426 14.5809 7.71034 13.5037 7.21401C12.4266 6.71768 11.2138 6.59773 10.0603 6.87343C8.90675 7.14912 7.87932 7.80447 7.14297 8.73423C6.40663 9.664 6.00409 10.8142 6 12.0003C6 15.9303 10.66 20.0003 16 25.2703C21.29 20.0003 26 16.0003 26 12.0003C25.9959 10.8142 25.5934 9.664 24.857 8.73423C24.1207 7.80447 23.0933 7.14912 21.9397 6.87343C20.7862 6.59773 19.5734 6.71768 18.4963 7.21401C17.4191 7.71034 16.5399 8.55426 16 9.61026V9.61026Z" stroke="#232323" stroke-width="1.2" stroke-linecap="round" stroke-linejoin="round"/>
</svg>
