<svg width="32" height="32" viewBox="0 0 32 32" fill="none" xmlns="http://www.w3.org/2000/svg">
<path d="M14.001 11.21H8.79102V6" stroke="#232323" stroke-width="1.2" stroke-linecap="round" stroke-linejoin="round"/>
<path d="M8.92063 11.15C9.12063 10.91 9.33063 10.67 9.56063 10.44C11.0511 8.95031 13.0119 8.02343 15.109 7.81719C17.2062 7.61095 19.31 8.13811 21.0621 9.30889C22.8141 10.4797 24.1062 12.2216 24.7181 14.2381C25.33 16.2546 25.2239 18.4208 24.4179 20.3678C23.612 22.3149 22.1559 23.9223 20.2978 24.9163C18.4397 25.9103 16.2945 26.2294 14.2275 25.8192C12.1606 25.4091 10.2997 24.2951 8.96192 22.6669C7.62412 21.0388 6.89213 18.9972 6.89062 16.89" stroke="#232323" stroke-width="1.2" stroke-linecap="round" stroke-linejoin="round"/>
</svg>
