<svg width="17" height="17" viewBox="0 0 17 17" fill="none" xmlns="http://www.w3.org/2000/svg">
<path d="M2.48113 11.3336C3.61958 12.4736 5.13564 13.158 6.7437 13.2578C8.35176 13.3576 9.94081 12.8659 11.2115 11.8753L15.5837 16.2475C15.7387 16.3973 15.9464 16.4801 16.162 16.4783C16.3775 16.4764 16.5837 16.3899 16.7362 16.2375C16.8886 16.0851 16.9751 15.8789 16.9769 15.6633C16.9788 15.4477 16.8959 15.2401 16.7462 15.085L12.374 10.7128C13.4085 9.3852 13.8976 7.71295 13.7415 6.0371C13.5855 4.36126 12.796 2.80807 11.5342 1.69428C10.2723 0.580494 8.63311 -0.00998744 6.95085 0.0432594C5.2686 0.0965062 3.67002 0.78947 2.48113 1.98083C1.86682 2.59482 1.37951 3.32384 1.04703 4.12623C0.714547 4.92862 0.543419 5.78865 0.543419 6.65719C0.543419 7.52573 0.714547 8.38577 1.04703 9.18815C1.37951 9.99054 1.86682 10.7196 2.48113 11.3336ZM3.64364 3.14499C4.45639 2.33225 5.5258 1.82646 6.66965 1.71379C7.81351 1.60112 8.96104 1.88854 9.91674 2.52708C10.8724 3.16562 11.5772 4.11577 11.9109 5.21565C12.2446 6.31554 12.1866 7.4971 11.7468 8.55903C11.3071 9.62096 10.5127 10.4976 9.49907 11.0395C8.48544 11.5814 7.31528 11.7551 6.18795 11.531C5.06062 11.3068 4.04587 10.6988 3.31659 9.8104C2.58731 8.922 2.18862 7.80823 2.18844 6.65884C2.18619 6.0057 2.31366 5.35862 2.56346 4.75514C2.81327 4.15166 3.18043 3.6038 3.64364 3.14334V3.14499Z" fill="white"/>
</svg>
