<svg width="320" height="80" viewBox="0 0 320 80" fill="none" xmlns="http://www.w3.org/2000/svg">
<rect x="0.5" y="0.5" width="319" height="79" rx="4.5" stroke="#9747FF" stroke-dasharray="10 5"/>
<rect x="16.5" y="16.5" width="47" height="47" rx="5.5" stroke="#E4E4EE"/>
<path d="M51.04 31.8398H28.96C28.4298 31.8398 28 32.2697 28 32.7998V47.1998C28 47.73 28.4298 48.1598 28.96 48.1598H51.04C51.5702 48.1598 52 47.73 52 47.1998V32.7998C52 32.2697 51.5702 31.8398 51.04 31.8398Z" stroke="#232323" stroke-width="1.2" stroke-linecap="round" stroke-linejoin="round"/>
<path d="M28.3242 32.0801L39.3282 41.7521C39.5091 41.9252 39.7498 42.0218 40.0002 42.0218C40.2506 42.0218 40.4913 41.9252 40.6722 41.7521L51.6762 32.0801" stroke="#232323" stroke-width="1.2" stroke-linecap="round" stroke-linejoin="round"/>
<rect x="96.5" y="16.5" width="47" height="47" rx="5.5" stroke="#E4E4EE"/>
<path d="M128.01 31H111.99C111.727 31 111.476 31.1043 111.29 31.29C111.104 31.4756 111 31.7274 111 31.99V48.01C111 48.14 111.026 48.2687 111.075 48.3889C111.125 48.509 111.198 48.6181 111.29 48.71C111.382 48.802 111.491 48.8749 111.611 48.9246C111.731 48.9744 111.86 49 111.99 49H120.612V42.025H118.272V39.325H120.612V37.3C120.564 36.8246 120.62 36.3443 120.776 35.8929C120.933 35.4415 121.187 35.0298 121.52 34.6868C121.852 34.3437 122.256 34.0777 122.703 33.9072C123.149 33.7368 123.627 33.666 124.104 33.7C124.804 33.6957 125.505 33.7317 126.201 33.808V36.238H124.77C123.636 36.238 123.42 36.778 123.42 37.561V39.298H126.12L125.769 41.998H123.42V49H128.01C128.14 49 128.269 48.9744 128.389 48.9246C128.509 48.8749 128.618 48.802 128.71 48.71C128.802 48.6181 128.875 48.509 128.925 48.3889C128.974 48.2687 129 48.14 129 48.01V31.99C129 31.86 128.974 31.7313 128.925 31.6111C128.875 31.491 128.802 31.3819 128.71 31.29C128.618 31.198 128.509 31.1251 128.389 31.0754C128.269 31.0256 128.14 31 128.01 31Z" fill="#25252E"/>
<rect x="176.5" y="16.5" width="47" height="47" rx="5.5" stroke="#E4E4EE"/>
<path d="M196.723 49C194.426 49 192.326 48.3948 190.304 47.1493C190.051 46.9936 189.938 46.6772 190.034 46.3897C190.131 46.1021 190.416 45.9226 190.701 45.9602C192.116 46.141 193.632 45.8297 194.814 45.1742C193.467 44.6519 192.296 43.5018 191.68 42.0102C191.585 41.7779 191.629 41.5105 191.795 41.3246C191.868 41.243 191.958 41.184 192.055 41.1501C191.176 40.2976 190.408 39.0181 190.408 37.3407C190.408 37.0883 190.551 36.8598 190.774 36.7556C190.888 36.7028 191.013 36.6878 191.131 36.7054C190.594 35.4372 190.44 33.8025 191.302 32.2091C191.405 32.0195 191.594 31.8952 191.805 31.8802C192.016 31.8576 192.221 31.9605 192.348 32.1363C193.146 33.2287 195.361 35.7122 199.287 36.2107C199.225 34.9237 199.486 32.8771 201.087 31.8525C202.005 31.2637 202.802 31 203.669 31C204.788 31 205.716 31.388 206.638 32.2506C207.308 32.0635 208.293 31.5939 208.498 31.4369C208.71 31.275 208.997 31.2687 209.218 31.4181C209.437 31.5688 209.541 31.845 209.478 32.1087C209.402 32.4188 209.266 32.7478 209.092 33.0679C209.335 32.9361 209.633 32.9914 209.824 33.1935C210.02 33.4019 210.056 33.7196 209.913 33.9682C209.421 34.8195 208.64 35.6168 208.087 36.0776C208.286 39.1374 207.061 42.5639 204.84 45.1064C202.651 47.6138 199.774 48.9962 196.74 49C196.734 49 196.728 49 196.723 49H196.723Z" fill="#25252E"/>
<rect x="256.5" y="16.5" width="47" height="47" rx="5.5" stroke="#E4E4EE"/>
<path fill-rule="evenodd" clip-rule="evenodd" d="M280 29C273.926 29 269 33.9248 269 40.0005C269 44.5036 271.709 48.3742 275.586 50.0751C275.555 49.3078 275.58 48.3843 275.776 47.5488C275.988 46.6559 277.191 41.5556 277.191 41.5556C277.191 41.5556 276.84 40.853 276.84 39.8144C276.84 38.1845 277.786 36.9672 278.962 36.9672C279.961 36.9672 280.445 37.7189 280.445 38.619C280.445 39.6242 279.804 41.1289 279.474 42.5218C279.199 43.69 280.059 44.6406 281.21 44.6406C283.294 44.6406 284.698 41.964 284.698 38.7923C284.698 36.3824 283.074 34.5779 280.121 34.5779C276.785 34.5779 274.706 37.0653 274.706 39.8442C274.706 40.8039 274.988 41.479 275.43 42.002C275.635 42.2435 275.662 42.3393 275.588 42.6162C275.536 42.8169 275.415 43.306 275.364 43.4985C275.291 43.7767 275.066 43.8775 274.814 43.7739C273.277 43.1465 272.561 41.4639 272.561 39.571C272.561 36.447 275.197 32.6983 280.423 32.6983C284.623 32.6983 287.387 35.7398 287.387 39.0004C287.387 43.316 284.989 46.54 281.451 46.54C280.264 46.54 279.147 45.8983 278.764 45.1695C278.764 45.1695 278.125 47.7041 277.99 48.1927C277.757 49.0406 277.301 49.8885 276.883 50.5485C277.873 50.841 278.918 51 280 51C286.075 51 291 46.0752 291 40.0005C291 33.9248 286.075 29 280 29Z" fill="#25252E"/>
</svg>
