<svg width="32" height="32" viewBox="0 0 32 32" fill="none" xmlns="http://www.w3.org/2000/svg">
<path d="M25.63 17.59L17.63 25.59C17.3921 25.8264 17.0704 25.959 16.735 25.959C16.3997 25.959 16.078 25.8264 15.84 25.59L6.37004 16.2C6.23957 16.0701 6.1389 15.9134 6.07501 15.7407C6.01112 15.5681 5.98554 15.3836 6.00004 15.2L6.37004 7.53004C6.38464 7.21648 6.51576 6.91967 6.73772 6.69772C6.95967 6.47576 7.25648 6.34464 7.57004 6.33004L15.24 6.00004C15.4236 5.98554 15.6081 6.01112 15.7807 6.07501C15.9534 6.1389 16.1101 6.23957 16.24 6.37004L25.67 15.8C25.9011 16.0432 26.0266 16.3679 26.0191 16.7033C26.0116 17.0387 25.8718 17.3574 25.63 17.59V17.59Z" stroke="#232323" stroke-width="1.2" stroke-linecap="round" stroke-linejoin="round"/>
<path d="M10.4397 11.6997C11.1356 11.6997 11.6997 11.1356 11.6997 10.4397C11.6997 9.74381 11.1356 9.17969 10.4397 9.17969C9.74381 9.17969 9.17969 9.74381 9.17969 10.4397C9.17969 11.1356 9.74381 11.6997 10.4397 11.6997Z" stroke="#232323" stroke-width="1.2" stroke-linecap="round" stroke-linejoin="round"/>
</svg>
