<svg width="32" height="32" viewBox="0 0 32 32" fill="none" xmlns="http://www.w3.org/2000/svg">
    <path d="M16 9.60977C15.4601 8.55377 14.5809 7.70985 13.5037 7.21352C12.4266 6.71719 11.2138 6.59724 10.0603 6.87294C8.90675 7.14863 7.87932 7.80398 7.14297 8.73374C6.40663 9.66351 6.00409 10.8138 6 11.9998C6 15.9298 10.66 19.9998 16 25.2698C21.29 19.9998 26 15.9998 26 11.9998C25.9959 10.8138 25.5934 9.66351 24.857 8.73374C24.1207 7.80398 23.0933 7.14863 21.9397 6.87294C20.7862 6.59724 19.5734 6.71719 18.4963 7.21352C17.4191 7.70985 16.5399 8.55377 16 9.60977V9.60977Z"
          stroke="#232323" stroke-width="1.2" stroke-linecap="round" stroke-linejoin="round"/>
</svg>
