<svg width="163" height="34" viewBox="0 0 163 34" fill="none" xmlns="http://www.w3.org/2000/svg">
<g filter="url(#filter0_d_685_50236)">
<rect x="2.25" y="1" width="157.995" height="30" rx="5" fill="white"/>
<rect x="2.75" y="1.5" width="156.995" height="29" rx="4.5" stroke="#404553" stroke-opacity="0.3"/>
<path d="M30.422 9.01024C29.362 7.94744 27.9568 7.29878 26.4603 7.18141C24.9639 7.06404 23.4748 7.4857 22.262 8.37024C20.9897 7.42387 19.406 6.99475 17.8299 7.16927C16.2538 7.3438 14.8024 8.10901 13.768 9.31082C12.7335 10.5126 12.1928 12.0618 12.2548 13.6463C12.3168 15.2307 12.9768 16.7329 14.102 17.8502L20.312 24.0702C20.832 24.582 21.5324 24.8688 22.262 24.8688C22.9916 24.8688 23.692 24.582 24.212 24.0702L30.422 17.8502C31.5896 16.6755 32.2449 15.0865 32.2449 13.4302C32.2449 11.774 31.5896 10.185 30.422 9.01024ZM29.012 16.4702L22.802 22.6802C22.7313 22.7516 22.6472 22.8082 22.5545 22.8469C22.4618 22.8855 22.3624 22.9054 22.262 22.9054C22.1616 22.9054 22.0621 22.8855 21.9695 22.8469C21.8768 22.8082 21.7927 22.7516 21.722 22.6802L15.512 16.4402C14.7278 15.6386 14.2886 14.5617 14.2886 13.4402C14.2886 12.3188 14.7278 11.2419 15.512 10.4402C16.3111 9.65122 17.389 9.20881 18.512 9.20881C19.635 9.20881 20.7128 9.65122 21.512 10.4402C21.605 10.534 21.7156 10.6084 21.8374 10.6591C21.9593 10.7099 22.09 10.736 22.222 10.736C22.354 10.736 22.4847 10.7099 22.6066 10.6591C22.7284 10.6084 22.839 10.534 22.932 10.4402C23.7311 9.65122 24.809 9.20881 25.932 9.20881C27.055 9.20881 28.1328 9.65122 28.932 10.4402C29.727 11.2314 30.1806 12.3024 30.1955 13.4239C30.2105 14.5454 29.7856 15.6282 29.012 16.4402V16.4702Z" fill="#3866DF"/>
<path d="M43.8992 20.1312V10.0092H46.0132L48.8622 18.0592L51.7532 10.0092H53.8532V20.1312H52.3202V12.0672L49.5202 20.1312H48.2112L45.4252 12.1302V20.1312H43.8992ZM58.9879 20.2712C58.3112 20.2712 57.7209 20.1265 57.2169 19.8372C56.7129 19.5432 56.3209 19.1185 56.0409 18.5632C55.7609 18.0078 55.6209 17.3358 55.6209 16.5472C55.6209 15.7865 55.7539 15.1215 56.0199 14.5522C56.2859 13.9828 56.6685 13.5418 57.1679 13.2292C57.6719 12.9118 58.2809 12.7532 58.9949 12.7532C59.6762 12.7532 60.2665 12.9025 60.7659 13.2012C61.2652 13.4952 61.6525 13.9268 61.9279 14.4962C62.2032 15.0608 62.3409 15.7445 62.3409 16.5472C62.3409 17.2798 62.2126 17.9262 61.9559 18.4862C61.6992 19.0462 61.3212 19.4848 60.8219 19.8022C60.3272 20.1148 59.7159 20.2712 58.9879 20.2712ZM58.9949 19.1162C59.4102 19.1162 59.7555 19.0088 60.0309 18.7942C60.3062 18.5748 60.5139 18.2692 60.6539 17.8772C60.7939 17.4805 60.8639 17.0232 60.8639 16.5052C60.8639 16.0245 60.8009 15.5882 60.6749 15.1962C60.5535 14.7995 60.3552 14.4845 60.0799 14.2512C59.8092 14.0178 59.4475 13.9012 58.9949 13.9012C58.5795 13.9012 58.2295 14.0085 57.9449 14.2232C57.6649 14.4332 57.4549 14.7342 57.3149 15.1262C57.1749 15.5135 57.1049 15.9732 57.1049 16.5052C57.1049 16.9765 57.1679 17.4105 57.2939 17.8072C57.4199 18.2038 57.6205 18.5212 57.8959 18.7592C58.1759 18.9972 58.5422 19.1162 58.9949 19.1162ZM65.7379 20.1312L63.0919 12.8932H64.4779L66.3119 18.2342H66.4099L68.2439 12.8932H69.6299L66.9979 20.1312H65.7379ZM73.9078 20.2712C73.2218 20.2712 72.6175 20.1242 72.0948 19.8302C71.5722 19.5315 71.1638 19.1068 70.8698 18.5562C70.5805 18.0055 70.4358 17.3498 70.4358 16.5892C70.4358 15.8378 70.5688 15.1752 70.8348 14.6012C71.1008 14.0225 71.4858 13.5698 71.9898 13.2432C72.4938 12.9165 73.1005 12.7532 73.8098 12.7532C74.5052 12.7532 75.0932 12.9025 75.5738 13.2012C76.0545 13.4998 76.4185 13.9198 76.6658 14.4612C76.9132 14.9978 77.0368 15.6325 77.0368 16.3652V16.8622H71.9408C71.9362 17.2962 72.0062 17.6858 72.1508 18.0312C72.2955 18.3718 72.5102 18.6425 72.7948 18.8432C73.0842 19.0392 73.4435 19.1372 73.8728 19.1372C74.3068 19.1372 74.6802 19.0392 74.9928 18.8432C75.3102 18.6472 75.5178 18.3555 75.6158 17.9682H77.0018C76.9178 18.4628 76.7195 18.8828 76.4068 19.2282C76.0942 19.5735 75.7185 19.8348 75.2798 20.0122C74.8412 20.1848 74.3838 20.2712 73.9078 20.2712ZM71.9408 15.8892H75.6088C75.6088 15.5112 75.5435 15.1682 75.4128 14.8602C75.2822 14.5475 75.0815 14.3025 74.8108 14.1252C74.5448 13.9432 74.2088 13.8522 73.8028 13.8522C73.3875 13.8522 73.0422 13.9525 72.7668 14.1532C72.4915 14.3538 72.2838 14.6105 72.1438 14.9232C72.0085 15.2358 71.9408 15.5578 71.9408 15.8892ZM84.7754 20.1802C84.2388 20.1802 83.8234 20.1078 83.5294 19.9632C83.2354 19.8185 83.0301 19.6108 82.9134 19.3402C82.7968 19.0648 82.7384 18.7335 82.7384 18.3462V13.9712H81.5624V12.8932H82.7874L83.1514 10.7652H84.2434V12.8862H85.8674V13.9712H84.2434L84.2504 18.2902C84.2504 18.5282 84.2738 18.7032 84.3204 18.8152C84.3718 18.9225 84.4558 18.9925 84.5724 19.0252C84.6938 19.0532 84.8571 19.0672 85.0624 19.0672H85.9024V20.0402C85.8138 20.0775 85.6761 20.1102 85.4894 20.1382C85.3074 20.1662 85.0694 20.1802 84.7754 20.1802ZM90.3101 20.2712C89.6335 20.2712 89.0431 20.1265 88.5391 19.8372C88.0351 19.5432 87.6431 19.1185 87.3631 18.5632C87.0831 18.0078 86.9431 17.3358 86.9431 16.5472C86.9431 15.7865 87.0761 15.1215 87.3421 14.5522C87.6081 13.9828 87.9908 13.5418 88.4901 13.2292C88.9941 12.9118 89.6031 12.7532 90.3171 12.7532C90.9985 12.7532 91.5888 12.9025 92.0881 13.2012C92.5875 13.4952 92.9748 13.9268 93.2501 14.4962C93.5255 15.0608 93.6631 15.7445 93.6631 16.5472C93.6631 17.2798 93.5348 17.9262 93.2781 18.4862C93.0215 19.0462 92.6435 19.4848 92.1441 19.8022C91.6495 20.1148 91.0381 20.2712 90.3101 20.2712ZM90.3171 19.1162C90.7325 19.1162 91.0778 19.0088 91.3531 18.7942C91.6285 18.5748 91.8361 18.2692 91.9761 17.8772C92.1161 17.4805 92.1861 17.0232 92.1861 16.5052C92.1861 16.0245 92.1231 15.5882 91.9971 15.1962C91.8758 14.7995 91.6775 14.4845 91.4021 14.2512C91.1315 14.0178 90.7698 13.9012 90.3171 13.9012C89.9018 13.9012 89.5518 14.0085 89.2671 14.2232C88.9871 14.4332 88.7771 14.7342 88.6371 15.1262C88.4971 15.5135 88.4271 15.9732 88.4271 16.5052C88.4271 16.9765 88.4901 17.4105 88.6161 17.8072C88.7421 18.2038 88.9428 18.5212 89.2181 18.7592C89.4981 18.9972 89.8645 19.1162 90.3171 19.1162ZM100.478 20.1312L97.5453 10.0092H99.0433L101.185 17.6952L103.355 10.0092H104.503L106.673 17.6952L108.843 10.0092H110.334L107.373 20.1312H106.057L103.922 12.6202L101.759 20.1312H100.478ZM111.686 20.1312V12.8932H113.128V20.1312H111.686ZM111.651 11.4932V10.0162H113.156V11.4932H111.651ZM117.887 20.2712C117.383 20.2712 116.909 20.1918 116.466 20.0332C116.027 19.8745 115.658 19.6248 115.36 19.2842C115.066 18.9435 114.881 18.5072 114.807 17.9752H116.144C116.204 18.2505 116.319 18.4792 116.487 18.6612C116.659 18.8385 116.865 18.9715 117.103 19.0602C117.345 19.1442 117.604 19.1862 117.88 19.1862C118.337 19.1862 118.708 19.1045 118.993 18.9412C119.277 18.7732 119.42 18.5165 119.42 18.1712C119.42 17.9238 119.343 17.7255 119.189 17.5762C119.035 17.4268 118.794 17.3172 118.468 17.2472L117.026 16.9042C116.428 16.7642 115.95 16.5425 115.591 16.2392C115.231 15.9312 115.049 15.5018 115.045 14.9512C115.045 14.5265 115.15 14.1485 115.36 13.8172C115.574 13.4858 115.892 13.2268 116.312 13.0402C116.736 12.8488 117.259 12.7532 117.88 12.7532C118.696 12.7532 119.352 12.9352 119.847 13.2992C120.346 13.6632 120.603 14.1905 120.617 14.8812H119.322C119.275 14.5498 119.123 14.2908 118.867 14.1042C118.615 13.9128 118.281 13.8172 117.866 13.8172C117.436 13.8172 117.084 13.9035 116.809 14.0762C116.533 14.2442 116.396 14.5032 116.396 14.8532C116.396 15.0912 116.496 15.2802 116.697 15.4202C116.902 15.5555 117.203 15.6675 117.6 15.7562L118.972 16.0992C119.326 16.1925 119.618 16.3162 119.847 16.4702C120.075 16.6195 120.255 16.7852 120.386 16.9672C120.516 17.1492 120.607 17.3382 120.659 17.5342C120.715 17.7302 120.743 17.9145 120.743 18.0872C120.743 18.5445 120.626 18.9365 120.393 19.2632C120.164 19.5852 119.837 19.8348 119.413 20.0122C118.988 20.1848 118.479 20.2712 117.887 20.2712ZM122.356 20.1312V9.72916H123.833V13.9502C123.949 13.7588 124.106 13.5768 124.302 13.4042C124.502 13.2315 124.745 13.0915 125.03 12.9842C125.319 12.8722 125.655 12.8162 126.038 12.8162C126.509 12.8162 126.934 12.9048 127.312 13.0822C127.694 13.2548 127.998 13.5068 128.222 13.8382C128.45 14.1648 128.565 14.5545 128.565 15.0072V20.1312H127.067V15.2802C127.067 14.8742 126.927 14.5615 126.647 14.3422C126.367 14.1228 126.007 14.0132 125.569 14.0132C125.275 14.0132 124.995 14.0645 124.729 14.1672C124.467 14.2652 124.255 14.4145 124.092 14.6152C123.933 14.8112 123.854 15.0585 123.854 15.3572V20.1312H122.356ZM132.451 20.2292C132.021 20.2292 131.676 20.1732 131.415 20.0612C131.158 19.9492 130.962 19.7998 130.827 19.6132C130.691 19.4218 130.6 19.2072 130.554 18.9692C130.512 18.7265 130.491 18.4768 130.491 18.2202V9.72916H131.968V18.0662C131.968 18.4022 132.033 18.6588 132.164 18.8362C132.299 19.0135 132.504 19.1138 132.78 19.1372L133.158 19.1512V20.1032C133.041 20.1405 132.92 20.1708 132.794 20.1942C132.672 20.2175 132.558 20.2292 132.451 20.2292ZM134.791 20.1312V12.8932H136.233V20.1312H134.791ZM134.756 11.4932V10.0162H136.261V11.4932H134.756ZM140.992 20.2712C140.488 20.2712 140.015 20.1918 139.571 20.0332C139.133 19.8745 138.764 19.6248 138.465 19.2842C138.171 18.9435 137.987 18.5072 137.912 17.9752H139.249C139.31 18.2505 139.424 18.4792 139.592 18.6612C139.765 18.8385 139.97 18.9715 140.208 19.0602C140.451 19.1442 140.71 19.1862 140.985 19.1862C141.443 19.1862 141.814 19.1045 142.098 18.9412C142.383 18.7732 142.525 18.5165 142.525 18.1712C142.525 17.9238 142.448 17.7255 142.294 17.5762C142.14 17.4268 141.9 17.3172 141.573 17.2472L140.131 16.9042C139.534 16.7642 139.056 16.5425 138.696 16.2392C138.337 15.9312 138.155 15.5018 138.15 14.9512C138.15 14.5265 138.255 14.1485 138.465 13.8172C138.68 13.4858 138.997 13.2268 139.417 13.0402C139.842 12.8488 140.365 12.7532 140.985 12.7532C141.802 12.7532 142.458 12.9352 142.952 13.2992C143.452 13.6632 143.708 14.1905 143.722 14.8812H142.427C142.381 14.5498 142.229 14.2908 141.972 14.1042C141.72 13.9128 141.387 13.8172 140.971 13.8172C140.542 13.8172 140.19 13.9035 139.914 14.0762C139.639 14.2442 139.501 14.5032 139.501 14.8532C139.501 15.0912 139.602 15.2802 139.802 15.4202C140.008 15.5555 140.309 15.6675 140.705 15.7562L142.077 16.0992C142.432 16.1925 142.724 16.3162 142.952 16.4702C143.181 16.6195 143.361 16.7852 143.491 16.9672C143.622 17.1492 143.713 17.3382 143.764 17.5342C143.82 17.7302 143.848 17.9145 143.848 18.0872C143.848 18.5445 143.732 18.9365 143.498 19.2632C143.27 19.5852 142.943 19.8348 142.518 20.0122C142.094 20.1848 141.585 20.2712 140.992 20.2712ZM148.117 20.1802C147.581 20.1802 147.165 20.1078 146.871 19.9632C146.577 19.8185 146.372 19.6108 146.255 19.3402C146.139 19.0648 146.08 18.7335 146.08 18.3462V13.9712H144.904V12.8932H146.129L146.493 10.7652H147.585V12.8862H149.209V13.9712H147.585L147.592 18.2902C147.592 18.5282 147.616 18.7032 147.662 18.8152C147.714 18.9225 147.798 18.9925 147.914 19.0252C148.036 19.0532 148.199 19.0672 148.404 19.0672H149.244V20.0402C149.156 20.0775 149.018 20.1102 148.831 20.1382C148.649 20.1662 148.411 20.1802 148.117 20.1802Z" fill="#3866DF"/>
</g>
<defs>
<filter id="filter0_d_685_50236" x="0.25" y="0" width="161.996" height="34" filterUnits="userSpaceOnUse" color-interpolation-filters="sRGB">
<feFlood flood-opacity="0" result="BackgroundImageFix"/>
<feColorMatrix in="SourceAlpha" type="matrix" values="0 0 0 0 0 0 0 0 0 0 0 0 0 0 0 0 0 0 127 0" result="hardAlpha"/>
<feOffset dy="1"/>
<feGaussianBlur stdDeviation="1"/>
<feColorMatrix type="matrix" values="0 0 0 0 0.220833 0 0 0 0 0.220833 0 0 0 0 0.220833 0 0 0 0.08 0"/>
<feBlend mode="normal" in2="BackgroundImageFix" result="effect1_dropShadow_685_50236"/>
<feBlend mode="normal" in="SourceGraphic" in2="effect1_dropShadow_685_50236" result="shape"/>
</filter>
</defs>
</svg>
