<svg width="98" height="19" viewBox="0 0 98 19" fill="none" xmlns="http://www.w3.org/2000/svg">
<rect width="97.6129" height="18.5376" rx="3.26882" fill="#3866DF"/>
<path d="M10.7429 13.2688V6.17876H13.0229C13.8859 6.17876 14.538 6.3373 14.9793 6.65438C15.4239 6.97145 15.6461 7.42909 15.6461 8.02728C15.6461 8.40319 15.5481 8.72517 15.3519 8.99322C15.1591 9.26126 14.8191 9.4819 14.3321 9.65515C14.6099 9.71399 14.8436 9.79898 15.0332 9.91012C15.2261 10.0213 15.3797 10.152 15.4941 10.3024C15.6118 10.4495 15.6952 10.6129 15.7442 10.7927C15.7965 10.9725 15.8227 11.1621 15.8227 11.3615C15.8227 12.0022 15.5938 12.481 15.1362 12.7981C14.6818 13.1119 14.0019 13.2688 13.0965 13.2688H10.7429ZM11.65 12.5137H13.0867C13.6783 12.5137 14.1278 12.4173 14.435 12.2244C14.7456 12.0283 14.9008 11.7276 14.9008 11.3222C14.9008 11.0248 14.824 10.7845 14.6704 10.6015C14.52 10.4152 14.3157 10.2795 14.0575 10.1945C13.7993 10.1095 13.5116 10.067 13.1945 10.067H11.65V12.5137ZM11.65 9.29722H13.1945C13.3808 9.29722 13.5655 9.27924 13.7486 9.24328C13.9316 9.20732 14.1 9.14522 14.2536 9.05696C14.4073 8.9687 14.5315 8.85102 14.6263 8.70393C14.7211 8.55356 14.7685 8.3656 14.7685 8.14006C14.7685 7.72818 14.6099 7.42418 14.2928 7.22805C13.979 7.02866 13.5704 6.92896 13.067 6.92896H11.65V9.29722ZM16.7446 13.2688L19.309 6.17876H20.3338L22.8982 13.2688H21.9715L21.2752 11.3272H18.3676L17.6664 13.2688H16.7446ZM18.6078 10.4936H21.0251L19.8189 7.06625L18.6078 10.4936ZM26.4953 13.3669C26.1488 13.3669 25.8203 13.326 25.5097 13.2443C25.1992 13.1593 24.9165 13.0335 24.6615 12.8668C24.4098 12.7001 24.2006 12.4941 24.0339 12.249C23.8704 12.0005 23.7675 11.7129 23.725 11.386H24.6762C24.735 11.654 24.8511 11.8796 25.0243 12.0626C25.2008 12.2457 25.4182 12.383 25.6765 12.4745C25.938 12.566 26.224 12.6118 26.5345 12.6118C26.8352 12.6118 27.1115 12.5644 27.3632 12.4696C27.6181 12.3748 27.8224 12.2375 27.9761 12.0577C28.1297 11.8747 28.2065 11.6557 28.2065 11.4007C28.2065 11.1196 28.115 10.894 27.9319 10.7241C27.7489 10.5508 27.4661 10.4119 27.0837 10.3073L25.6225 9.92973C25.2924 9.84801 24.9998 9.7336 24.7448 9.58651C24.4931 9.43614 24.2954 9.24001 24.1515 8.99812C24.0077 8.75296 23.9358 8.44896 23.9358 8.08612C23.9358 7.68405 24.0469 7.33429 24.2692 7.03683C24.4915 6.7361 24.7922 6.50401 25.1714 6.34057C25.5539 6.17386 25.9854 6.09051 26.4659 6.09051C27.0216 6.09051 27.489 6.18694 27.8682 6.3798C28.2506 6.57266 28.5399 6.82599 28.7361 7.1398C28.9322 7.4536 29.0303 7.78866 29.0303 8.14496H28.0986C28.0692 7.82135 27.9744 7.56638 27.8143 7.38005C27.6541 7.19046 27.4547 7.05481 27.2161 6.97309C26.9774 6.8881 26.7176 6.8456 26.4365 6.8456C25.9298 6.8456 25.5457 6.96165 25.2842 7.19373C25.026 7.42255 24.8968 7.6955 24.8968 8.01257C24.8968 8.3035 24.99 8.53231 25.1763 8.69902C25.3626 8.86573 25.6372 8.99485 26.0001 9.08638L27.422 9.45412C27.8437 9.55218 28.1787 9.69438 28.4272 9.8807C28.6789 10.067 28.8586 10.2844 28.9665 10.5328C29.0777 10.778 29.1332 11.0444 29.1332 11.3321C29.1332 11.7243 29.0237 12.0741 28.8047 12.3813C28.5857 12.6886 28.2784 12.9305 27.8829 13.107C27.4906 13.2803 27.0281 13.3669 26.4953 13.3669ZM30.624 13.2688V6.17876H31.5654V9.84638L34.7427 6.17876H35.8263L33.458 8.9638L36.0322 13.2688H35.0074L32.7961 9.62573L31.5654 11.033V13.2688H30.624ZM37.3084 13.2688V6.17876H41.7802L41.7753 6.97799H38.2204V9.29231H41.4222V10.0866H38.2155V12.45L41.8733 12.4598V13.2688H37.3084ZM45.1312 13.2688V7.01231H42.8414V6.17876H48.2055V7.01231H46.0432V13.2688H45.1312ZM54.1621 13.3669C53.8156 13.3669 53.4871 13.326 53.1766 13.2443C52.866 13.1593 52.5833 13.0335 52.3283 12.8668C52.0766 12.7001 51.8674 12.4941 51.7007 12.249C51.5373 12.0005 51.4343 11.7129 51.3918 11.386H52.343C52.4019 11.654 52.5179 11.8796 52.6912 12.0626C52.8677 12.2457 53.0851 12.383 53.3433 12.4745C53.6048 12.566 53.8908 12.6118 54.2014 12.6118C54.5021 12.6118 54.7783 12.5644 55.03 12.4696C55.285 12.3748 55.4893 12.2375 55.6429 12.0577C55.7965 11.8747 55.8734 11.6557 55.8734 11.4007C55.8734 11.1196 55.7818 10.894 55.5988 10.7241C55.4157 10.5508 55.133 10.4119 54.7505 10.3073L53.2894 9.92973C52.9592 9.84801 52.6666 9.7336 52.4117 9.58651C52.16 9.43614 51.9622 9.24001 51.8184 8.99812C51.6746 8.75296 51.6026 8.44896 51.6026 8.08612C51.6026 7.68405 51.7138 7.33429 51.9361 7.03683C52.1583 6.7361 52.4591 6.50401 52.8383 6.34057C53.2207 6.17386 53.6522 6.09051 54.1327 6.09051C54.6884 6.09051 55.1558 6.18694 55.535 6.3798C55.9175 6.57266 56.2068 6.82599 56.4029 7.1398C56.599 7.4536 56.6971 7.78866 56.6971 8.14496H55.7655C55.7361 7.82135 55.6413 7.56638 55.4811 7.38005C55.3209 7.19046 55.1215 7.05481 54.8829 6.97309C54.6443 6.8881 54.3844 6.8456 54.1033 6.8456C53.5966 6.8456 53.2125 6.96165 52.951 7.19373C52.6928 7.42255 52.5637 7.6955 52.5637 8.01257C52.5637 8.3035 52.6568 8.53231 52.8432 8.69902C53.0295 8.86573 53.3041 8.99485 53.6669 9.08638L55.0888 9.45412C55.5105 9.55218 55.8456 9.69438 56.094 9.8807C56.3457 10.067 56.5255 10.2844 56.6334 10.5328C56.7445 10.778 56.8001 11.0444 56.8001 11.3321C56.8001 11.7243 56.6906 12.0741 56.4715 12.3813C56.2525 12.6886 55.9453 12.9305 55.5497 13.107C55.1575 13.2803 54.6949 13.3669 54.1621 13.3669ZM58.2908 13.2688V6.17876H62.7625L62.7576 6.97799H59.2028V9.29231H62.4046V10.0866H59.1979V12.45L62.8557 12.4598V13.2688H58.2908ZM64.439 13.2688L64.4439 6.17876H65.3706V12.4549H68.7195V13.2688H64.439ZM70.0988 13.2688V6.17876H74.5705L74.5656 6.97799H71.0108V9.29231H74.2126V10.0866H71.0059V12.45L74.6637 12.4598V13.2688H70.0988ZM78.7693 13.3669C78.1319 13.3669 77.5876 13.2214 77.1365 12.9305C76.6887 12.6396 76.3454 12.2212 76.1068 11.6753C75.8715 11.1294 75.7538 10.4707 75.7538 9.69928C75.7538 8.93111 75.8715 8.27735 76.1068 7.73799C76.3422 7.19864 76.6838 6.7884 77.1316 6.50728C77.5827 6.22289 78.1286 6.0807 78.7693 6.0807C79.2694 6.0807 79.7123 6.1853 80.098 6.39451C80.4838 6.60044 80.7943 6.87666 81.0297 7.22315C81.265 7.56965 81.4039 7.95046 81.4464 8.3656H80.4805C80.4282 8.08775 80.3285 7.83605 80.1814 7.61051C80.0343 7.38496 79.8414 7.20517 79.6028 7.07115C79.3642 6.93713 79.0782 6.87012 78.7448 6.87012C78.3165 6.87012 77.9537 6.97145 77.6562 7.17412C77.362 7.37352 77.1381 7.68242 76.9845 8.10083C76.8341 8.51924 76.759 9.05532 76.759 9.70909C76.759 10.6963 76.9273 11.4219 77.264 11.8861C77.6039 12.347 78.0975 12.5775 78.7448 12.5775C79.0782 12.5775 79.3642 12.5072 79.6028 12.3666C79.8414 12.2261 80.0343 12.0381 80.1814 11.8028C80.3285 11.5674 80.4282 11.3124 80.4805 11.0379H81.4464C81.4105 11.3386 81.3288 11.6295 81.2013 11.9106C81.0771 12.1885 80.9054 12.4369 80.6864 12.6559C80.4674 12.8749 80.1977 13.0482 79.8774 13.1757C79.5603 13.3032 79.191 13.3669 78.7693 13.3669ZM84.3187 13.2688V7.01231H82.0289V6.17876H87.3931V7.01231H85.2307V13.2688H84.3187Z" fill="#FAFAFA"/>
</svg>
