<svg width="9" height="9" viewBox="0 0 9 9" fill="none" xmlns="http://www.w3.org/2000/svg">
<circle cx="4.5" cy="4.49268" r="4.5" fill="#3866DF"/>
<path d="M4.71223 5.80272V6.75864H3.7318V5.80272H4.71223ZM2.74831 3.272C2.87904 2.94927 3.07818 2.7011 3.34576 2.52749C3.61538 2.35387 3.93606 2.26706 4.3078 2.26706C4.59989 2.26706 4.85521 2.31404 5.07376 2.408C5.29231 2.50196 5.46184 2.62757 5.58236 2.78485C5.70491 2.94213 5.76619 3.11676 5.76619 3.30876C5.76619 3.50893 5.72533 3.67949 5.64363 3.82042C5.56397 3.96136 5.46593 4.088 5.3495 4.20034C5.23308 4.31064 5.11563 4.42093 4.99716 4.53123C4.88074 4.63949 4.7827 4.76102 4.70304 4.89583C4.62338 5.02859 4.58355 5.18791 4.58355 5.37379H3.86355C3.86355 5.1491 3.89725 4.95506 3.96465 4.79166C4.0341 4.62621 4.11887 4.48221 4.21895 4.35966C4.32108 4.23506 4.42218 4.12068 4.52227 4.01651C4.62236 3.91234 4.7061 3.80817 4.7735 3.704C4.84295 3.59779 4.87767 3.48136 4.87767 3.35472C4.87767 3.2097 4.82253 3.0943 4.71223 3.00851C4.60397 2.92272 4.46712 2.87983 4.30167 2.87983C4.19138 2.87983 4.08414 2.90434 3.97997 2.95336C3.8758 3.00034 3.78184 3.06672 3.6981 3.15251C3.6164 3.2383 3.55308 3.3394 3.50814 3.45583L2.74831 3.272Z" fill="white"/>
</svg>
