<svg width="39" height="18" viewBox="0 0 39 18" fill="none" xmlns="http://www.w3.org/2000/svg">
<g filter="url(#filter0_d_662_41234)">
<rect x="2" y="1.00006" width="35" height="14" rx="7" fill="#22C55E"/>
<path d="M14.566 3.32406H15.856V8.75406H17.266V9.86406H15.856V12.0001H14.608V9.86406H10.546V8.73606L14.566 3.32406ZM11.758 8.75406H14.59V4.95606L11.758 8.75406ZM18.2709 12.0001V10.4521H19.7529V12.0001H18.2709ZM24.5026 3.20406C24.9986 3.20406 25.4566 3.29606 25.8766 3.48006C26.3006 3.66406 26.6486 3.93006 26.9206 4.27806C27.1966 4.62206 27.3606 5.04006 27.4126 5.53206H26.2186C26.1066 5.13206 25.9046 4.82006 25.6126 4.59606C25.3246 4.36806 24.9626 4.25406 24.5266 4.25406C24.0426 4.25406 23.6366 4.39206 23.3086 4.66806C22.9846 4.94006 22.7486 5.33806 22.6006 5.86206C22.4566 6.38606 22.4106 7.01806 22.4626 7.75806C22.5746 7.49406 22.7386 7.26406 22.9546 7.06806C23.1746 6.86806 23.4266 6.71406 23.7106 6.60606C23.9946 6.49806 24.2986 6.44406 24.6226 6.44406C25.1986 6.44406 25.7026 6.55406 26.1346 6.77406C26.5666 6.99406 26.9026 7.30806 27.1426 7.71606C27.3866 8.12406 27.5086 8.60806 27.5086 9.16806C27.5086 9.74406 27.3806 10.2561 27.1246 10.7041C26.8726 11.1481 26.5146 11.4981 26.0506 11.7541C25.5866 12.0061 25.0406 12.1321 24.4126 12.1321C23.7246 12.1321 23.1266 11.9581 22.6186 11.6101C22.1146 11.2581 21.7246 10.7601 21.4486 10.1161C21.1766 9.46806 21.0406 8.69806 21.0406 7.80606C21.0406 6.87006 21.1746 6.05806 21.4426 5.37006C21.7106 4.67806 22.1026 4.14406 22.6186 3.76806C23.1346 3.39206 23.7626 3.20406 24.5026 3.20406ZM24.3826 7.45806C24.0826 7.45806 23.7966 7.52806 23.5246 7.66806C23.2526 7.80406 23.0306 7.98406 22.8586 8.20806C22.6866 8.43206 22.6006 8.67606 22.6006 8.94006C22.5926 9.36806 22.6626 9.74406 22.8106 10.0681C22.9626 10.3921 23.1726 10.6461 23.4406 10.8301C23.7126 11.0101 24.0286 11.1001 24.3886 11.1001C24.7246 11.1001 25.0226 11.0221 25.2826 10.8661C25.5466 10.7061 25.7546 10.4861 25.9066 10.2061C26.0586 9.92206 26.1346 9.59606 26.1346 9.22806C26.1346 8.85606 26.0646 8.53806 25.9246 8.27406C25.7846 8.01006 25.5826 7.80806 25.3186 7.66806C25.0586 7.52806 24.7466 7.45806 24.3826 7.45806Z" fill="#F0FDF4"/>
</g>
<defs>
<filter id="filter0_d_662_41234" x="0" y="6.10352e-05" width="39" height="18" filterUnits="userSpaceOnUse" color-interpolation-filters="sRGB">
<feFlood flood-opacity="0" result="BackgroundImageFix"/>
<feColorMatrix in="SourceAlpha" type="matrix" values="0 0 0 0 0 0 0 0 0 0 0 0 0 0 0 0 0 0 127 0" result="hardAlpha"/>
<feOffset dy="1"/>
<feGaussianBlur stdDeviation="1"/>
<feColorMatrix type="matrix" values="0 0 0 0 0.411765 0 0 0 0 0.317647 0 0 0 0 1 0 0 0 0.05 0"/>
<feBlend mode="normal" in2="BackgroundImageFix" result="effect1_dropShadow_662_41234"/>
<feBlend mode="normal" in="SourceGraphic" in2="effect1_dropShadow_662_41234" result="shape"/>
</filter>
</defs>
</svg>
