<svg width="17" height="15" viewBox="0 0 17 15" fill="none" xmlns="http://www.w3.org/2000/svg">
<path d="M14.5569 2.0379C13.7087 1.18745 12.5843 0.668379 11.3868 0.57446C10.1893 0.48054 8.99771 0.817958 8.02726 1.52577C7.00912 0.768483 5.74187 0.425095 4.48069 0.564751C3.21951 0.704407 2.05809 1.31673 1.23031 2.27842C0.402524 3.24011 -0.0301334 4.47973 0.0194623 5.74765C0.069058 7.01557 0.597223 8.2176 1.4976 9.11169L6.46686 14.089C6.88298 14.4985 7.44342 14.728 8.02726 14.728C8.6111 14.728 9.17153 14.4985 9.58765 14.089L14.5569 9.11169C15.4912 8.17167 16.0156 6.90015 16.0156 5.57479C16.0156 4.24944 15.4912 2.97792 14.5569 2.0379ZM13.4286 8.00741L8.45937 12.9767C8.40282 13.0338 8.33552 13.0791 8.26135 13.11C8.18718 13.141 8.10762 13.1569 8.02726 13.1569C7.9469 13.1569 7.86733 13.141 7.79317 13.11C7.719 13.0791 7.65169 13.0338 7.59515 12.9767L2.62588 7.98341C1.99833 7.34192 1.64692 6.4802 1.64692 5.5828C1.64692 4.6854 1.99833 3.82367 2.62588 3.18219C3.26537 2.55082 4.12784 2.19679 5.02649 2.19679C5.92514 2.19679 6.78762 2.55082 7.4271 3.18219C7.50149 3.25719 7.59 3.31672 7.68751 3.35734C7.78502 3.39797 7.88961 3.41889 7.99525 3.41889C8.10089 3.41889 8.20548 3.39797 8.30299 3.35734C8.4005 3.31672 8.489 3.25719 8.56339 3.18219C9.20288 2.55082 10.0654 2.19679 10.964 2.19679C11.8627 2.19679 12.7251 2.55082 13.3646 3.18219C14.0008 3.81527 14.3637 4.67232 14.3757 5.56974C14.3877 6.46717 14.0477 7.33359 13.4286 7.98341V8.00741Z" fill="#3866DF"/>
</svg>
