<svg width="36" height="36" viewBox="0 0 36 36" fill="none" xmlns="http://www.w3.org/2000/svg">
<path fill-rule="evenodd" clip-rule="evenodd" d="M11.505 2.99985H24.51C29.595 2.99985 33 6.56985 33 11.8799V24.1364C33 29.4299 29.595 32.9999 24.51 32.9999H11.505C6.42 32.9999 3 29.4299 3 24.1364V11.8799C3 6.56985 6.42 2.99985 11.505 2.99985ZM17.1471 22.4848L24.2721 15.3598C24.7821 14.8498 24.7821 14.0248 24.2721 13.4998C23.7621 12.9899 22.9221 12.9899 22.4121 13.4998L16.2171 19.6949L13.5921 17.0698C13.0821 16.5598 12.2421 16.5598 11.7321 17.0698C11.2221 17.5799 11.2221 18.4049 11.7321 18.9298L15.3021 22.4848C15.5571 22.7399 15.8871 22.8598 16.2171 22.8598C16.5621 22.8598 16.8921 22.7399 17.1471 22.4848Z" fill="#C6C7CB"/>
</svg>
