<svg width="274" height="52" viewBox="0 0 274 52" fill="none" xmlns="http://www.w3.org/2000/svg">
<path d="M95.24 20.7372C92.31 20.7372 90.04 22.9272 90.04 26.0472C90.04 29.1672 92.31 31.3672 95.24 31.3672C98.17 31.3672 100.48 29.1672 100.48 26.0472C100.48 22.9272 98.2 20.7372 95.24 20.7372ZM95.24 20.7372C92.31 20.7372 90.04 22.9272 90.04 26.0472C90.04 29.1672 92.31 31.3672 95.24 31.3672C98.17 31.3672 100.48 29.1672 100.48 26.0472C100.48 22.9272 98.2 20.7372 95.24 20.7372ZM95.24 20.7372C92.31 20.7372 90.04 22.9272 90.04 26.0472C90.04 29.1672 92.31 31.3672 95.24 31.3672C98.17 31.3672 100.48 29.1672 100.48 26.0472C100.48 22.9272 98.2 20.7372 95.24 20.7372ZM152.72 20.6172C149.68 20.6172 147.41 22.8172 147.41 26.0472C147.41 29.2772 149.68 31.4772 152.72 31.4772C155.76 31.4772 158.07 29.2872 158.07 26.0472C158.07 22.8072 155.8 20.6172 152.72 20.6172ZM152.72 20.6172C149.68 20.6172 147.41 22.8172 147.41 26.0472C147.41 29.2772 149.68 31.4772 152.72 31.4772C155.76 31.4772 158.07 29.2872 158.07 26.0472C158.07 22.8072 155.8 20.6172 152.72 20.6172ZM95.24 20.7372C92.31 20.7372 90.04 22.9272 90.04 26.0472C90.04 29.1672 92.31 31.3672 95.24 31.3672C98.17 31.3672 100.48 29.1672 100.48 26.0472C100.48 22.9272 98.2 20.7372 95.24 20.7372ZM95.24 20.7372C92.31 20.7372 90.04 22.9272 90.04 26.0472C90.04 29.1672 92.31 31.3672 95.24 31.3672C98.17 31.3672 100.48 29.1672 100.48 26.0472C100.48 22.9272 98.2 20.7372 95.24 20.7372ZM152.72 20.6172C149.68 20.6172 147.41 22.8172 147.41 26.0472C147.41 29.2772 149.68 31.4772 152.72 31.4772C155.76 31.4772 158.07 29.2872 158.07 26.0472C158.07 22.8072 155.8 20.6172 152.72 20.6172ZM173.28 27.7472C171.08 27.7472 170.08 28.7472 170.08 30.1272C170.08 31.5072 171.08 32.5172 173.28 32.5172C175.48 32.5172 176.82 31.5172 176.82 30.1272C176.82 28.6672 175.47 27.7472 173.28 27.7472ZM173.28 27.7472C171.08 27.7472 170.08 28.7472 170.08 30.1272C170.08 31.5072 171.08 32.5172 173.28 32.5172C175.48 32.5172 176.82 31.5172 176.82 30.1272C176.82 28.6672 175.47 27.7472 173.28 27.7472ZM152.72 20.6172C149.68 20.6172 147.41 22.8172 147.41 26.0472C147.41 29.2772 149.68 31.4772 152.72 31.4772C155.76 31.4772 158.07 29.2872 158.07 26.0472C158.07 22.8072 155.8 20.6172 152.72 20.6172ZM95.24 20.7372C92.31 20.7372 90.04 22.9272 90.04 26.0472C90.04 29.1672 92.31 31.3672 95.24 31.3672C98.17 31.3672 100.48 29.1672 100.48 26.0472C100.48 22.9272 98.2 20.7372 95.24 20.7372ZM95.24 20.7372C92.31 20.7372 90.04 22.9272 90.04 26.0472C90.04 29.1672 92.31 31.3672 95.24 31.3672C98.17 31.3672 100.48 29.1672 100.48 26.0472C100.48 22.9272 98.2 20.7372 95.24 20.7372ZM152.72 20.6172C149.68 20.6172 147.41 22.8172 147.41 26.0472C147.41 29.2772 149.68 31.4772 152.72 31.4772C155.76 31.4772 158.07 29.2872 158.07 26.0472C158.07 22.8072 155.8 20.6172 152.72 20.6172ZM173.28 27.7472C171.08 27.7472 170.08 28.7472 170.08 30.1272C170.08 31.5072 171.08 32.5172 173.28 32.5172C175.48 32.5172 176.82 31.5172 176.82 30.1272C176.82 28.6672 175.47 27.7472 173.28 27.7472ZM232.03 20.3572C229.37 20.3572 227.6 21.7772 226.99 24.1972H236.69C236.11 21.4272 234.11 20.3572 232.03 20.3572ZM232.03 20.3572C229.37 20.3572 227.6 21.7772 226.99 24.1972H236.69C236.11 21.4272 234.11 20.3572 232.03 20.3572ZM173.28 27.7472C171.08 27.7472 170.08 28.7472 170.08 30.1272C170.08 31.5072 171.08 32.5172 173.28 32.5172C175.48 32.5172 176.82 31.5172 176.82 30.1272C176.82 28.6672 175.47 27.7472 173.28 27.7472ZM152.72 20.6172C149.68 20.6172 147.41 22.8172 147.41 26.0472C147.41 29.2772 149.68 31.4772 152.72 31.4772C155.76 31.4772 158.07 29.2872 158.07 26.0472C158.07 22.8072 155.8 20.6172 152.72 20.6172ZM95.24 20.7372C92.31 20.7372 90.04 22.9272 90.04 26.0472C90.04 29.1672 92.31 31.3672 95.24 31.3672C98.17 31.3672 100.48 29.1672 100.48 26.0472C100.48 22.9272 98.2 20.7372 95.24 20.7372ZM95.24 20.7372C92.31 20.7372 90.04 22.9272 90.04 26.0472C90.04 29.1672 92.31 31.3672 95.24 31.3672C98.17 31.3672 100.48 29.1672 100.48 26.0472C100.48 22.9272 98.2 20.7372 95.24 20.7372ZM152.72 20.6172C149.68 20.6172 147.41 22.8172 147.41 26.0472C147.41 29.2772 149.68 31.4772 152.72 31.4772C155.76 31.4772 158.07 29.2872 158.07 26.0472C158.07 22.8072 155.8 20.6172 152.72 20.6172ZM173.28 27.7472C171.08 27.7472 170.08 28.7472 170.08 30.1272C170.08 31.5072 171.08 32.5172 173.28 32.5172C175.48 32.5172 176.82 31.5172 176.82 30.1272C176.82 28.6672 175.47 27.7472 173.28 27.7472ZM232.03 20.3572C229.37 20.3572 227.6 21.7772 226.99 24.1972H236.69C236.11 21.4272 234.11 20.3572 232.03 20.3572ZM232.03 20.3572C229.37 20.3572 227.6 21.7772 226.99 24.1972H236.69C236.11 21.4272 234.11 20.3572 232.03 20.3572ZM173.28 27.7472C171.08 27.7472 170.08 28.7472 170.08 30.1272C170.08 31.5072 171.08 32.5172 173.28 32.5172C175.48 32.5172 176.82 31.5172 176.82 30.1272C176.82 28.6672 175.47 27.7472 173.28 27.7472ZM152.72 20.6172C149.68 20.6172 147.41 22.8172 147.41 26.0472C147.41 29.2772 149.68 31.4772 152.72 31.4772C155.76 31.4772 158.07 29.2872 158.07 26.0472C158.07 22.8072 155.8 20.6172 152.72 20.6172ZM95.24 20.7372C92.31 20.7372 90.04 22.9272 90.04 26.0472C90.04 29.1672 92.31 31.3672 95.24 31.3672C98.17 31.3672 100.48 29.1672 100.48 26.0472C100.48 22.9272 98.2 20.7372 95.24 20.7372ZM268.54 0.367188H5C2.23 0.367188 0 2.60719 0 5.36719V46.7272C0 49.4872 2.23 51.7272 5 51.7272H268.54C271.3 51.7272 273.54 49.4872 273.54 46.7272V5.36719C273.54 2.60719 271.3 0.367188 268.54 0.367188ZM18.71 5.89719H28.87V8.39719H18.71V5.89719ZM59.12 27.8572C59.12 27.9772 59.11 28.0972 59.11 28.2172C59.1 28.3272 59.1 28.4272 59.09 28.5272C59.08 28.6672 59.07 28.8072 59.06 28.9572C59.04 29.1872 59.02 29.4172 58.99 29.6472C58.98 29.7772 58.96 29.8972 58.94 30.0172C58.92 30.1472 58.91 30.2672 58.89 30.3872C58.87 30.5072 58.85 30.6272 58.83 30.7472C58.82 30.7672 58.82 30.7972 58.81 30.8272C58.79 30.9472 58.77 31.0672 58.74 31.1772C58.73 31.2172 58.73 31.2672 58.72 31.3072C58.71 31.3472 58.7 31.3872 58.69 31.4372C58.66 31.5372 58.64 31.6472 58.62 31.7472C58.61 31.7572 58.61 31.7672 58.61 31.7772C58.6 31.7972 58.6 31.8172 58.6 31.8372C58.57 31.9572 58.53 32.0872 58.5 32.2072C58.5 32.2272 58.5 32.2372 58.5 32.2472C58.46 32.3972 58.42 32.5472 58.37 32.6972C58.36 32.7672 58.34 32.8172 58.32 32.8572C58.29 32.9672 58.26 33.0672 58.22 33.1672C58.2 33.2472 58.18 33.3272 58.15 33.3972C58.13 33.4772 58.1 33.5472 58.07 33.6272V33.6472C58.02 33.7672 57.98 33.8772 57.94 33.9972C57.93 34.0272 57.92 34.0472 57.91 34.0772C57.9 34.0972 57.9 34.1172 57.89 34.1372C57.84 34.2472 57.8 34.3572 57.76 34.4672C57.76 34.4772 57.74 34.4972 57.73 34.5172C57.68 34.6672 57.62 34.8072 57.55 34.9572C57.48 35.0972 57.42 35.2472 57.35 35.3872C57.33 35.4472 57.3 35.4972 57.27 35.5572C57.23 35.6472 57.19 35.7272 57.15 35.8172C57.11 35.8872 57.08 35.9572 57.04 36.0272C57 36.0972 56.97 36.1572 56.93 36.2272C56.85 36.3672 56.77 36.5072 56.7 36.6472C56.39 37.1972 56.05 37.7272 55.69 38.2372C55.59 38.3872 55.48 38.5272 55.37 38.6772C55.3 38.7672 55.24 38.8472 55.17 38.9272C55.03 39.1172 54.88 39.3072 54.72 39.4872C54.69 39.5272 54.66 39.5672 54.63 39.5972C54.54 39.6972 54.46 39.7972 54.38 39.8872C54.34 39.9372 54.29 39.9872 54.25 40.0372C54.24 40.0372 54.23 40.0572 54.22 40.0572C54.08 40.2172 53.93 40.3672 53.79 40.5172C53.75 40.5472 53.72 40.5872 53.69 40.6072C53.56 40.7472 53.43 40.8772 53.3 40.9972L53.27 41.0272C53.27 41.0272 53.24 41.0472 53.24 41.0572C53.15 41.1472 53.06 41.2272 52.97 41.3072C52.9 41.3772 52.83 41.4372 52.76 41.4972C52.67 41.5772 52.57 41.6572 52.47 41.7472C52.43 41.7772 52.4 41.8072 52.36 41.8372C52.27 41.9172 52.17 41.9872 52.08 42.0672C52.06 42.0772 52.05 42.0972 52.03 42.1072C52 42.1272 51.97 42.1572 51.95 42.1772C51.95 42.1772 51.93 42.1872 51.92 42.1972C51.91 42.2072 51.9 42.2072 51.89 42.2172C51.89 42.2272 51.87 42.2372 51.86 42.2472C51.8 42.2772 51.76 42.3172 51.71 42.3572C51.5 42.5172 51.29 42.6672 51.07 42.8172C50.99 42.8772 50.91 42.9272 50.83 42.9872L50.47 43.2272C50.35 43.2972 50.22 43.3772 50.1 43.4572C50.06 43.4772 50.02 43.5072 49.98 43.5272C49.84 43.6172 49.69 43.6972 49.54 43.7772C49.46 43.8272 49.37 43.8772 49.29 43.9172C49.21 43.9672 49.13 44.0072 49.04 44.0472C48.92 44.1172 48.8 44.1772 48.68 44.2372C48.52 44.3172 48.35 44.3972 48.19 44.4772C48.03 44.5472 47.86 44.6272 47.69 44.6972C47.55 44.7572 47.41 44.8172 47.26 44.8772C47.11 44.9372 46.94 44.9972 46.78 45.0572C46.73 45.0772 46.68 45.0972 46.64 45.1172C46.59 45.1272 46.54 45.1472 46.49 45.1572C46.46 45.1772 46.43 45.1872 46.39 45.1972C46.36 45.2072 46.34 45.2172 46.31 45.2272C46.28 45.2272 46.25 45.2472 46.23 45.2572C46.17 45.2772 46.12 45.2872 46.06 45.3072C46.04 45.3172 46.02 45.3272 46 45.3272C45.99 45.3372 45.98 45.3372 45.98 45.3372C45.96 45.3472 45.94 45.3472 45.91 45.3572C45.75 45.4072 45.58 45.4572 45.41 45.5072C45.24 45.5472 45.08 45.5972 44.91 45.6372C44.9 45.6372 44.88 45.6472 44.87 45.6472C44.86 45.6472 44.85 45.6572 44.84 45.6572C44.76 45.6772 44.69 45.6872 44.62 45.7072C44.54 45.7272 44.47 45.7472 44.39 45.7572C44.36 45.7672 44.32 45.7772 44.28 45.7872C44.11 45.8172 43.94 45.8472 43.77 45.8872C43.62 45.9172 43.46 45.9372 43.3 45.9672C43.27 45.9772 43.24 45.9772 43.21 45.9772C43.18 45.9772 43.15 45.9772 43.12 45.9972C43.07 45.9972 43.03 46.0072 42.98 46.0172C42.95 46.0272 42.91 46.0272 42.87 46.0272C42.82 46.0372 42.78 46.0472 42.73 46.0472C42.7 46.0472 42.67 46.0572 42.64 46.0572C42.6 46.0672 42.55 46.0672 42.51 46.0772C42.46 46.0772 42.41 46.0872 42.37 46.0872C42.27 46.0972 42.17 46.1172 42.07 46.1172C41.98 46.1272 41.9 46.1372 41.82 46.1472C41.74 46.1472 41.66 46.1572 41.58 46.1572C41.55 46.1572 41.51 46.1572 41.47 46.1572C41.39 46.1672 41.31 46.1672 41.22 46.1672C41.15 46.1772 41.08 46.1772 41.01 46.1772C40.94 46.1872 40.87 46.1872 40.8 46.1872C40.72 46.1872 40.64 46.1872 40.56 46.1972H40.07C39.99 46.1872 39.91 46.1872 39.83 46.1872C39.7 46.1872 39.57 46.1772 39.44 46.1672H39.35C39.24 46.1672 39.13 46.1572 39.03 46.1472H38.89C38.73 46.1272 38.58 46.1072 38.42 46.0972H38.37C38.37 46.0972 38.33 46.0972 38.31 46.0972C38.28 46.0972 38.24 46.0872 38.21 46.0872C38.13 46.0772 38.06 46.0672 37.99 46.0572H37.98C37.9 46.0472 37.82 46.0372 37.74 46.0272C37.72 46.0272 37.71 46.0172 37.69 46.0172C37.63 46.0072 37.58 45.9972 37.52 45.9972C37.34 45.9672 37.16 45.9372 36.98 45.9072C36.87 45.8872 36.76 45.8672 36.65 45.8472C36.64 45.8372 36.63 45.8372 36.62 45.8372C36.56 45.8272 36.5 45.8172 36.45 45.7972C36.39 45.7972 36.33 45.7772 36.27 45.7572C36.06 45.7172 35.86 45.6672 35.66 45.6172C35.47 45.5672 35.27 45.5172 35.08 45.4572C34.93 45.4172 34.79 45.3672 34.65 45.3272C34.5 45.2772 34.36 45.2372 34.22 45.1872C34.12 45.1472 34.01 45.1172 33.92 45.0772C33.78 45.0272 33.64 44.9772 33.51 44.9172C33.47 44.9172 33.43 44.8972 33.4 44.8772C33.38 44.8672 33.37 44.8672 33.36 44.8672C33.35 44.8572 33.34 44.8572 33.33 44.8572C33.3 44.8372 33.26 44.8272 33.23 44.8072C33.2 44.7972 33.16 44.7872 33.13 44.7672C33 44.7172 32.88 44.6672 32.76 44.6072C32.62 44.5472 32.47 44.4772 32.32 44.4172C32.3 44.4172 32.28 44.3972 32.26 44.3872C32.24 44.3772 32.22 44.3672 32.21 44.3572C32.2 44.3572 32.19 44.3572 32.19 44.3572C32.15 44.3372 32.1 44.3172 32.06 44.2972C32 44.2672 31.95 44.2472 31.89 44.2172C31.79 44.1672 31.69 44.1172 31.59 44.0572C31.47 43.9972 31.35 43.9372 31.24 43.8672C31.12 43.8072 31 43.7372 30.89 43.6772C30.77 43.6072 30.66 43.5372 30.54 43.4672C30.45 43.4172 30.36 43.3572 30.26 43.2972C30.19 43.2472 30.11 43.1972 30.03 43.1472C29.98 43.1172 29.93 43.0772 29.87 43.0372C29.76 42.9672 29.65 42.8872 29.54 42.8172C29.31 42.6472 29.08 42.4872 28.86 42.3072C28.77 42.2372 28.68 42.1672 28.59 42.0972C28.49 42.0172 28.39 41.9372 28.29 41.8572C28.29 41.8472 28.28 41.8472 28.28 41.8472H28.27C28.08 41.6772 27.89 41.5072 27.7 41.3472C27.68 41.3172 27.65 41.2972 27.62 41.2672C27.45 41.1172 27.28 40.9572 27.12 40.7872C27.1 40.7772 27.08 40.7572 27.06 40.7372L26.97 40.6372C26.8 40.4672 26.63 40.2972 26.47 40.1172L26.38 40.0272C26.32 39.9572 26.25 39.8872 26.19 39.8072C26.13 39.7472 26.07 39.6772 26.01 39.6072C25.99 39.5872 25.98 39.5672 25.96 39.5572C25.91 39.4872 25.86 39.4272 25.8 39.3672C25.79 39.3472 25.77 39.3272 25.76 39.3072C25.56 39.0672 25.37 38.8272 25.19 38.5772C25.08 38.4372 24.98 38.2872 24.88 38.1472C24.78 37.9972 24.68 37.8572 24.58 37.7072C24.48 37.5572 24.39 37.4072 24.3 37.2572C24.22 37.1372 24.15 37.0172 24.08 36.8972C24.02 36.8072 23.97 36.7072 23.92 36.6172C23.87 36.5272 23.81 36.4272 23.76 36.3372C23.68 36.1772 23.6 36.0172 23.51 35.8572C23.36 35.5572 23.21 35.2372 23.08 34.9172C23.03 34.8172 22.98 34.7072 22.94 34.6072C22.9 34.5072 22.85 34.3972 22.81 34.2972C22.81 34.2872 22.8 34.2672 22.8 34.2572C22.69 33.9872 22.59 33.7072 22.49 33.4272C22.49 33.4272 22.48 33.3972 22.48 33.3772C22.42 33.2072 22.37 33.0372 22.32 32.8672C22.31 32.8472 22.3 32.8272 22.3 32.8072C22.26 32.6872 22.23 32.5672 22.19 32.4472C22.18 32.4172 22.17 32.3772 22.16 32.3372C22.12 32.1972 22.09 32.0372 22.05 31.8872C22.04 31.8472 22.03 31.8072 22.02 31.7672C21.98 31.6072 21.94 31.4372 21.91 31.2772C21.9 31.2472 21.9 31.2172 21.89 31.1872C21.87 31.1172 21.86 31.0372 21.85 30.9572C21.84 30.9172 21.83 30.8672 21.82 30.8172C21.81 30.7872 21.81 30.7572 21.8 30.7372C21.77 30.5372 21.73 30.3472 21.71 30.1472C21.69 30.0272 21.67 29.9072 21.66 29.7872C21.65 29.7072 21.64 29.6272 21.63 29.5572C21.62 29.4272 21.6 29.3072 21.59 29.1772C21.59 29.1072 21.59 29.0372 21.57 28.9672C21.55 28.8972 21.56 28.8272 21.55 28.7572C21.55 28.6872 21.55 28.6272 21.54 28.5572C21.54 28.4972 21.53 28.4272 21.53 28.3672V28.3472C21.52 28.1972 21.52 28.0372 21.51 27.8772V10.0972H28.89V19.5172V29.7172C28.89 30.6272 29.26 31.4572 29.85 32.0472C29.93 32.1272 30.01 32.1972 30.1 32.2772C30.19 32.3472 30.28 32.4172 30.39 32.4772C30.82 32.7672 31.34 32.9572 31.89 33.0072C31.99 33.0172 32.08 33.0172 32.19 33.0172H34.23C34.36 33.0272 34.5 33.0372 34.64 33.0372C38.6 32.9972 42.56 33.0272 46.52 33.0272C48.22 33.0172 49.52 31.9772 49.86 30.3272C50.31 28.1372 50.74 25.9372 51.18 23.7472L51.36 22.8172C51.48 22.2272 51.61 21.6372 51.73 21.0472C51.75 20.9472 51.76 20.8472 51.76 20.7472C51.76 20.4572 51.68 20.1572 51.48 19.9372C51.19 19.6172 50.77 19.4972 50.25 19.5072H48.59C46.52 19.5172 44.47 19.5072 42.41 19.5072C40.1 19.5072 37.79 19.5072 35.48 19.5172C34.42 19.5072 33.37 19.5172 32.31 19.5172C32.28 19.5172 32.26 19.5172 32.23 19.5072L30.39 19.5172V11.4272C30.96 11.0572 31.57 10.7272 32.19 10.4272C32.19 10.4272 32.22 10.4272 32.23 10.4072C33.51 9.79719 34.87 9.32719 36.29 9.00719C36.49 8.96719 36.69 8.92718 36.9 8.88718C37 8.86718 37.1 8.84719 37.2 8.83719C37.37 8.80719 37.53 8.77719 37.7 8.75719C37.96 8.71719 38.22 8.68719 38.48 8.65719C38.62 8.64719 38.76 8.63718 38.9 8.62718H38.95C39.02 8.61718 39.08 8.60719 39.15 8.60719C39.22 8.60719 39.28 8.59718 39.35 8.59718H39.38C39.46 8.59718 39.53 8.58719 39.6 8.58719C39.69 8.58719 39.77 8.58719 39.86 8.57719C40.02 8.56719 40.29 8.56718 40.45 8.56718C40.51 8.56718 40.57 8.57719 40.64 8.57719C40.72 8.57719 40.81 8.57719 40.89 8.58719H41.17C41.28 8.59719 41.39 8.59719 41.5 8.60719H41.52C41.58 8.60719 41.64 8.60719 41.7 8.60719C41.72 8.61719 41.74 8.61719 41.76 8.61719H41.79C41.91 8.62719 42.03 8.63719 42.16 8.64719C42.22 8.65719 42.27 8.66718 42.33 8.66718C42.38 8.67718 42.43 8.67719 42.48 8.68719C42.56 8.68719 42.64 8.70719 42.71 8.71719C42.77 8.71719 42.82 8.72718 42.87 8.73718H42.9C42.9 8.73718 42.93 8.73718 42.95 8.74718C42.99 8.74718 43.03 8.75719 43.06 8.75719C43.1 8.76719 43.14 8.76718 43.18 8.77718C43.32 8.79718 43.45 8.81718 43.58 8.84718C43.61 8.84718 43.64 8.84718 43.67 8.84718C43.82 8.87718 43.96 8.90719 44.11 8.93719C44.14 8.93719 44.17 8.94718 44.21 8.95718C44.23 8.95718 44.25 8.96719 44.27 8.96719C44.46 9.00719 44.66 9.05719 44.85 9.10719C44.95 9.12719 45.06 9.15718 45.16 9.17719C45.26 9.20718 45.36 9.23718 45.47 9.26718C45.77 9.35718 46.06 9.43719 46.35 9.53719C46.44 9.56719 46.53 9.60718 46.62 9.63718C46.68 9.65718 46.73 9.67718 46.79 9.69718C46.9 9.73718 47 9.77718 47.11 9.81718C47.31 9.89718 47.51 9.97718 47.71 10.0672C47.9 10.1472 48.09 10.2272 48.27 10.3072C48.28 10.3172 48.3 10.3272 48.31 10.3272C48.4 10.3672 48.49 10.4172 48.58 10.4572C48.68 10.5072 48.78 10.5572 48.88 10.6072C49.07 10.7072 49.25 10.7972 49.43 10.9072C49.55 10.9672 49.67 11.0372 49.78 11.1072C49.88 11.1572 49.98 11.2172 50.07 11.2772C50.2 11.3572 50.33 11.4372 50.46 11.5172C50.49 11.5372 50.52 11.5572 50.55 11.5772H50.56C50.56 11.5772 50.6 11.6072 50.62 11.6272C50.73 11.6872 50.84 11.7672 50.95 11.8372H50.96C51.01 11.8772 51.06 11.9072 51.11 11.9472C51.21 12.0172 51.3 12.0772 51.4 12.1472C51.41 12.1572 51.43 12.1772 51.45 12.1872C51.52 12.2372 51.6 12.2972 51.68 12.3572C51.73 12.3972 51.79 12.4472 51.85 12.4872C51.88 12.5172 51.9 12.5372 51.93 12.5572C52.01 12.6072 52.08 12.6672 52.16 12.7372C52.2 12.7672 52.25 12.8072 52.29 12.8372C52.35 12.8972 52.42 12.9472 52.49 13.0072C52.52 13.0372 52.56 13.0672 52.6 13.0972C52.63 13.1272 52.67 13.1572 52.7 13.1872C52.77 13.2472 52.83 13.3072 52.89 13.3672C52.95 13.4072 53 13.4572 53.06 13.5072C53.11 13.5572 53.17 13.6072 53.22 13.6572L53.25 13.6872C53.25 13.6872 53.28 13.7272 53.3 13.7372C53.41 13.8472 53.52 13.9472 53.62 14.0572L53.68 14.1172C53.8 14.2272 53.9 14.3372 54.02 14.4572C54.05 14.4872 54.07 14.5172 54.1 14.5472C54.2 14.6572 54.3 14.7672 54.39 14.8672H54.4C54.48 14.9672 54.56 15.0672 54.64 15.1572C54.69 15.2072 54.73 15.2572 54.78 15.3172C54.79 15.3372 54.81 15.3572 54.83 15.3772C54.97 15.5472 55.11 15.7172 55.24 15.8972C55.37 16.0572 55.49 16.2172 55.61 16.3872C55.63 16.4172 55.64 16.4372 55.66 16.4672C55.78 16.6272 55.88 16.7772 55.99 16.9372C56.02 16.9872 56.06 17.0472 56.09 17.0972C56.2 17.2672 56.31 17.4272 56.41 17.6072C56.54 17.8172 56.66 18.0272 56.79 18.2472C56.81 18.2872 56.84 18.3372 56.86 18.3872C56.96 18.5672 57.06 18.7472 57.15 18.9272C57.19 19.0172 57.24 19.1072 57.28 19.2072C57.41 19.4772 57.54 19.7472 57.66 20.0372C57.72 20.1772 57.77 20.3172 57.83 20.4572C57.89 20.5972 57.94 20.7472 58 20.8872C58.05 21.0372 58.1 21.1772 58.15 21.3272C58.25 21.6172 58.34 21.9172 58.42 22.2072C58.47 22.3572 58.5 22.5072 58.54 22.6572C58.58 22.7972 58.61 22.9272 58.64 23.0672C58.71 23.3372 58.76 23.6072 58.81 23.8872C58.84 24.0072 58.86 24.1272 58.88 24.2472V24.2872C58.9 24.4072 58.92 24.5272 58.94 24.6372C58.96 24.7672 58.98 24.8972 58.99 25.0272C59.02 25.2372 59.04 25.4472 59.06 25.6672C59.08 25.8372 59.09 26.0072 59.1 26.1872C59.11 26.3072 59.12 26.4372 59.12 26.5772C59.12 26.6772 59.13 26.7872 59.13 26.8972C59.13 27.0472 59.13 27.2072 59.13 27.3572C59.13 27.5172 59.13 27.6772 59.13 27.8372L59.12 27.8572ZM75.07 43.3772H69.79L72.49 35.4072L65.14 16.4272H70.41L74.95 28.5572L78.88 16.4272H84.19L75.07 43.3772ZM95.24 36.2172C89.58 36.2172 85.08 31.7872 85.08 26.0472C85.08 20.3072 89.58 15.8872 95.24 15.8872C100.9 15.8872 105.44 20.3172 105.44 26.0472C105.44 31.7772 100.9 36.2172 95.24 36.2172ZM124.92 35.6772H119.96V33.6772C118.88 35.3272 117.11 36.2172 114.72 36.2172C111.14 36.2172 108.45 33.4372 108.45 28.7072V16.4272H113.41V28.3572C113.41 30.5572 114.72 31.5972 116.45 31.5972C118.42 31.5972 119.96 30.4772 119.96 27.5472V16.4272H124.92V35.6772ZM139.71 21.5872C137.13 21.2772 134.43 22.4272 134.43 26.1672V35.6772H129.47V16.4272H134.43V19.3172C135.4 17.0472 137.36 16.0372 139.71 16.0372V21.5872ZM153.64 36.2172C150.83 36.2172 148.76 35.1372 147.41 33.4072V35.6772H142.44V8.72719H147.41V18.6972C148.76 16.9672 150.83 15.8872 153.64 15.8872C158.8 15.8872 163.04 20.3172 163.04 26.0472C163.04 31.7772 158.8 36.2172 153.64 36.2172ZM181.67 35.6772H176.82V34.0172C175.7 35.3672 174.01 36.2172 171.59 36.2172C168.16 36.2172 165.12 34.1772 165.12 30.1272C165.12 26.0772 168.16 24.0872 171.59 24.0872C174.01 24.0872 175.7 24.8172 176.82 25.7772V23.7372C176.82 21.4672 175.66 20.5072 173.82 20.5072C171.98 20.5072 170.85 21.4672 170.85 22.9672H166C166 18.4272 169.58 15.8872 173.82 15.8872C178.06 15.8872 181.67 18.4272 181.67 23.4272V35.6772ZM192.68 36.2172C188.45 36.2172 184.91 34.0572 184.91 29.5572H189.76C189.76 31.0572 190.87 31.8272 192.68 31.8272C194.49 31.8272 195.49 31.2072 195.49 30.0872C195.49 26.7772 185.14 29.3972 185.14 22.0072C185.14 17.9672 188.68 15.8872 192.68 15.8872C196.68 15.8872 200.07 18.0472 200.07 22.5472H195.22C195.22 21.0472 194.11 20.2772 192.68 20.2772C191.1 20.2772 190.1 20.8872 190.1 22.0072C190.1 25.3572 200.46 22.6672 200.46 30.0872C200.46 34.1772 196.92 36.2172 192.68 36.2172ZM215.9 35.6772L209.16 26.9772V35.6772H204.2V8.72719H209.16V24.8972L215.51 16.4272H221.25L213.93 25.9372L221.63 35.6772H215.9ZM241.46 28.0872H227.02C227.68 30.8272 229.76 32.0972 232.22 32.0972C233.99 32.0972 235.53 31.2472 236.19 30.1672L241.07 30.1272C239.88 34.0172 236.49 36.2172 232.18 36.2172C225.91 36.2172 221.86 31.7872 221.86 26.0472C221.86 20.3072 225.98 15.8872 232.07 15.8872C237.72 15.8872 241.65 20.3872 241.65 26.0472C241.65 26.7772 241.61 27.4372 241.46 28.0872ZM254.82 21.1972H251.51V35.6772H246.54V21.1972H243.2V16.4272H246.54V10.2672H251.51V16.4272H254.82V21.1972ZM232.03 20.3572C229.37 20.3572 227.6 21.7772 226.99 24.1972H236.69C236.11 21.4272 234.11 20.3572 232.03 20.3572ZM173.28 27.7472C171.08 27.7472 170.08 28.7472 170.08 30.1272C170.08 31.5072 171.08 32.5172 173.28 32.5172C175.48 32.5172 176.82 31.5172 176.82 30.1272C176.82 28.6672 175.47 27.7472 173.28 27.7472ZM152.72 20.6172C149.68 20.6172 147.41 22.8172 147.41 26.0472C147.41 29.2772 149.68 31.4772 152.72 31.4772C155.76 31.4772 158.07 29.2872 158.07 26.0472C158.07 22.8072 155.8 20.6172 152.72 20.6172ZM95.24 20.7372C92.31 20.7372 90.04 22.9272 90.04 26.0472C90.04 29.1672 92.31 31.3672 95.24 31.3672C98.17 31.3672 100.48 29.1672 100.48 26.0472C100.48 22.9272 98.2 20.7372 95.24 20.7372ZM95.24 20.7372C92.31 20.7372 90.04 22.9272 90.04 26.0472C90.04 29.1672 92.31 31.3672 95.24 31.3672C98.17 31.3672 100.48 29.1672 100.48 26.0472C100.48 22.9272 98.2 20.7372 95.24 20.7372ZM152.72 20.6172C149.68 20.6172 147.41 22.8172 147.41 26.0472C147.41 29.2772 149.68 31.4772 152.72 31.4772C155.76 31.4772 158.07 29.2872 158.07 26.0472C158.07 22.8072 155.8 20.6172 152.72 20.6172ZM173.28 27.7472C171.08 27.7472 170.08 28.7472 170.08 30.1272C170.08 31.5072 171.08 32.5172 173.28 32.5172C175.48 32.5172 176.82 31.5172 176.82 30.1272C176.82 28.6672 175.47 27.7472 173.28 27.7472ZM232.03 20.3572C229.37 20.3572 227.6 21.7772 226.99 24.1972H236.69C236.11 21.4272 234.11 20.3572 232.03 20.3572ZM232.03 20.3572C229.37 20.3572 227.6 21.7772 226.99 24.1972H236.69C236.11 21.4272 234.11 20.3572 232.03 20.3572ZM173.28 27.7472C171.08 27.7472 170.08 28.7472 170.08 30.1272C170.08 31.5072 171.08 32.5172 173.28 32.5172C175.48 32.5172 176.82 31.5172 176.82 30.1272C176.82 28.6672 175.47 27.7472 173.28 27.7472ZM152.72 20.6172C149.68 20.6172 147.41 22.8172 147.41 26.0472C147.41 29.2772 149.68 31.4772 152.72 31.4772C155.76 31.4772 158.07 29.2872 158.07 26.0472C158.07 22.8072 155.8 20.6172 152.72 20.6172ZM95.24 20.7372C92.31 20.7372 90.04 22.9272 90.04 26.0472C90.04 29.1672 92.31 31.3672 95.24 31.3672C98.17 31.3672 100.48 29.1672 100.48 26.0472C100.48 22.9272 98.2 20.7372 95.24 20.7372ZM95.24 20.7372C92.31 20.7372 90.04 22.9272 90.04 26.0472C90.04 29.1672 92.31 31.3672 95.24 31.3672C98.17 31.3672 100.48 29.1672 100.48 26.0472C100.48 22.9272 98.2 20.7372 95.24 20.7372ZM152.72 20.6172C149.68 20.6172 147.41 22.8172 147.41 26.0472C147.41 29.2772 149.68 31.4772 152.72 31.4772C155.76 31.4772 158.07 29.2872 158.07 26.0472C158.07 22.8072 155.8 20.6172 152.72 20.6172ZM173.28 27.7472C171.08 27.7472 170.08 28.7472 170.08 30.1272C170.08 31.5072 171.08 32.5172 173.28 32.5172C175.48 32.5172 176.82 31.5172 176.82 30.1272C176.82 28.6672 175.47 27.7472 173.28 27.7472ZM173.28 27.7472C171.08 27.7472 170.08 28.7472 170.08 30.1272C170.08 31.5072 171.08 32.5172 173.28 32.5172C175.48 32.5172 176.82 31.5172 176.82 30.1272C176.82 28.6672 175.47 27.7472 173.28 27.7472ZM152.72 20.6172C149.68 20.6172 147.41 22.8172 147.41 26.0472C147.41 29.2772 149.68 31.4772 152.72 31.4772C155.76 31.4772 158.07 29.2872 158.07 26.0472C158.07 22.8072 155.8 20.6172 152.72 20.6172ZM95.24 20.7372C92.31 20.7372 90.04 22.9272 90.04 26.0472C90.04 29.1672 92.31 31.3672 95.24 31.3672C98.17 31.3672 100.48 29.1672 100.48 26.0472C100.48 22.9272 98.2 20.7372 95.24 20.7372ZM95.24 20.7372C92.31 20.7372 90.04 22.9272 90.04 26.0472C90.04 29.1672 92.31 31.3672 95.24 31.3672C98.17 31.3672 100.48 29.1672 100.48 26.0472C100.48 22.9272 98.2 20.7372 95.24 20.7372ZM152.72 20.6172C149.68 20.6172 147.41 22.8172 147.41 26.0472C147.41 29.2772 149.68 31.4772 152.72 31.4772C155.76 31.4772 158.07 29.2872 158.07 26.0472C158.07 22.8072 155.8 20.6172 152.72 20.6172ZM173.28 27.7472C171.08 27.7472 170.08 28.7472 170.08 30.1272C170.08 31.5072 171.08 32.5172 173.28 32.5172C175.48 32.5172 176.82 31.5172 176.82 30.1272C176.82 28.6672 175.47 27.7472 173.28 27.7472ZM173.28 27.7472C171.08 27.7472 170.08 28.7472 170.08 30.1272C170.08 31.5072 171.08 32.5172 173.28 32.5172C175.48 32.5172 176.82 31.5172 176.82 30.1272C176.82 28.6672 175.47 27.7472 173.28 27.7472ZM152.72 20.6172C149.68 20.6172 147.41 22.8172 147.41 26.0472C147.41 29.2772 149.68 31.4772 152.72 31.4772C155.76 31.4772 158.07 29.2872 158.07 26.0472C158.07 22.8072 155.8 20.6172 152.72 20.6172ZM95.24 20.7372C92.31 20.7372 90.04 22.9272 90.04 26.0472C90.04 29.1672 92.31 31.3672 95.24 31.3672C98.17 31.3672 100.48 29.1672 100.48 26.0472C100.48 22.9272 98.2 20.7372 95.24 20.7372ZM95.24 20.7372C92.31 20.7372 90.04 22.9272 90.04 26.0472C90.04 29.1672 92.31 31.3672 95.24 31.3672C98.17 31.3672 100.48 29.1672 100.48 26.0472C100.48 22.9272 98.2 20.7372 95.24 20.7372ZM95.24 20.7372C92.31 20.7372 90.04 22.9272 90.04 26.0472C90.04 29.1672 92.31 31.3672 95.24 31.3672C98.17 31.3672 100.48 29.1672 100.48 26.0472C100.48 22.9272 98.2 20.7372 95.24 20.7372ZM95.24 20.7372C92.31 20.7372 90.04 22.9272 90.04 26.0472C90.04 29.1672 92.31 31.3672 95.24 31.3672C98.17 31.3672 100.48 29.1672 100.48 26.0472C100.48 22.9272 98.2 20.7372 95.24 20.7372ZM95.24 20.7372C92.31 20.7372 90.04 22.9272 90.04 26.0472C90.04 29.1672 92.31 31.3672 95.24 31.3672C98.17 31.3672 100.48 29.1672 100.48 26.0472C100.48 22.9272 98.2 20.7372 95.24 20.7372Z" fill="#FEEE00"/>
<path d="M28.8709 5.89648H18.7109V8.39648H28.8709V5.89648Z" fill="black"/>
<path d="M59.1315 27.3764C59.1315 27.5364 59.1315 27.6964 59.1315 27.8564C59.1315 27.9764 59.1215 28.0964 59.1215 28.2164C59.1115 28.3264 59.1115 28.4264 59.1015 28.5264C59.0915 28.6664 59.0815 28.8064 59.0715 28.9564C59.0515 29.1864 59.0315 29.4164 59.0015 29.6464C58.9915 29.7764 58.9715 29.8964 58.9515 30.0164C58.9315 30.1464 58.9215 30.2664 58.9015 30.3864C58.8815 30.5064 58.8615 30.6264 58.8415 30.7464C58.8315 30.7664 58.8315 30.7964 58.8215 30.8264C58.8015 30.9464 58.7815 31.0664 58.7515 31.1764C58.7415 31.2164 58.7415 31.2664 58.7315 31.3064C58.7215 31.3464 58.7115 31.3864 58.7015 31.4364C58.6715 31.5364 58.6515 31.6464 58.6315 31.7464C58.6215 31.7564 58.6215 31.7664 58.6215 31.7764C58.6115 31.7964 58.6115 31.8164 58.6115 31.8364C58.5815 31.9564 58.5415 32.0864 58.5115 32.2064C58.5115 32.2264 58.5115 32.2364 58.5115 32.2464C58.4715 32.3964 58.4315 32.5464 58.3815 32.6964C58.3715 32.7664 58.3515 32.8164 58.3315 32.8564C58.3015 32.9664 58.2715 33.0664 58.2315 33.1664C58.2115 33.2464 58.1915 33.3264 58.1615 33.3964C58.1415 33.4764 58.1115 33.5464 58.0815 33.6264V33.6464C58.0315 33.7664 57.9915 33.8764 57.9515 33.9964C57.9415 34.0264 57.9315 34.0464 57.9215 34.0764C57.9115 34.0964 57.9115 34.1164 57.9015 34.1364C57.8515 34.2464 57.8115 34.3564 57.7715 34.4664C57.7715 34.4764 57.7515 34.4964 57.7415 34.5164C57.6915 34.6664 57.6315 34.8064 57.5615 34.9564C57.4915 35.0964 57.4315 35.2464 57.3615 35.3864C57.3415 35.4464 57.3115 35.4964 57.2815 35.5564C57.2415 35.6464 57.2015 35.7264 57.1615 35.8164C57.1215 35.8864 57.0915 35.9564 57.0515 36.0264C57.0115 36.0964 56.9815 36.1564 56.9415 36.2264C56.8615 36.3664 56.7815 36.5064 56.7115 36.6464C56.4015 37.1964 56.0615 37.7264 55.7015 38.2364C55.6015 38.3864 55.4915 38.5264 55.3815 38.6764C55.3115 38.7664 55.2515 38.8464 55.1815 38.9264C55.0415 39.1164 54.8915 39.3064 54.7315 39.4864C54.7015 39.5264 54.6715 39.5664 54.6415 39.5964C54.5515 39.6964 54.4715 39.7964 54.3915 39.8864C54.3515 39.9364 54.3015 39.9864 54.2615 40.0364C54.2515 40.0364 54.2415 40.0564 54.2315 40.0564C54.0915 40.2164 53.9415 40.3664 53.8015 40.5164C53.7615 40.5464 53.7315 40.5864 53.7015 40.6064C53.5715 40.7464 53.4415 40.8764 53.3115 40.9964L53.2815 41.0264C53.2815 41.0264 53.2515 41.0464 53.2515 41.0564C53.1615 41.1464 53.0715 41.2264 52.9815 41.3064C52.9115 41.3764 52.8415 41.4364 52.7715 41.4964C52.6815 41.5764 52.5815 41.6564 52.4815 41.7464C52.4415 41.7764 52.4115 41.8064 52.3715 41.8364C52.2815 41.9164 52.1815 41.9864 52.0915 42.0664C52.0715 42.0764 52.0615 42.0964 52.0415 42.1064C52.0115 42.1264 51.9815 42.1564 51.9615 42.1764C51.9615 42.1764 51.9415 42.1864 51.9315 42.1964C51.9215 42.2064 51.9115 42.2064 51.9015 42.2164C51.9015 42.2264 51.8815 42.2364 51.8715 42.2464C51.8115 42.2764 51.7715 42.3164 51.7215 42.3564C51.5115 42.5164 51.3015 42.6664 51.0815 42.8164C51.0015 42.8764 50.9215 42.9264 50.8415 42.9864L50.4815 43.2264C50.3615 43.2964 50.2315 43.3764 50.1115 43.4564C50.0715 43.4764 50.0315 43.5064 49.9915 43.5264C49.8515 43.6164 49.7015 43.6964 49.5515 43.7764C49.4715 43.8264 49.3815 43.8764 49.3015 43.9164C49.2215 43.9664 49.1415 44.0064 49.0515 44.0464C48.9315 44.1164 48.8115 44.1764 48.6915 44.2364C48.5315 44.3164 48.3615 44.3964 48.2015 44.4764C48.0415 44.5464 47.8715 44.6264 47.7015 44.6964C47.5615 44.7564 47.4215 44.8164 47.2715 44.8764C47.1215 44.9364 46.9515 44.9964 46.7915 45.0564C46.7415 45.0764 46.6915 45.0964 46.6515 45.1164C46.6015 45.1264 46.5515 45.1464 46.5015 45.1564C46.4715 45.1764 46.4415 45.1864 46.4015 45.1964C46.3715 45.2064 46.3515 45.2164 46.3215 45.2264C46.2915 45.2264 46.2615 45.2464 46.2415 45.2564C46.1815 45.2764 46.1315 45.2864 46.0715 45.3064C46.0515 45.3164 46.0315 45.3264 46.0115 45.3264C46.0015 45.3364 45.9915 45.3364 45.9915 45.3364C45.9715 45.3464 45.9515 45.3464 45.9215 45.3564C45.7615 45.4064 45.5915 45.4564 45.4215 45.5064C45.2515 45.5464 45.0915 45.5964 44.9215 45.6364C44.9115 45.6364 44.8915 45.6464 44.8815 45.6464C44.8715 45.6464 44.8615 45.6564 44.8515 45.6564C44.7715 45.6764 44.7015 45.6864 44.6315 45.7064C44.5515 45.7264 44.4815 45.7464 44.4015 45.7564C44.3715 45.7664 44.3315 45.7764 44.2915 45.7864C44.1215 45.8164 43.9515 45.8464 43.7815 45.8864C43.6315 45.9164 43.4715 45.9364 43.3115 45.9664C43.2815 45.9764 43.2515 45.9764 43.2215 45.9764C43.1915 45.9764 43.1615 45.9764 43.1315 45.9964C43.0815 45.9964 43.0415 46.0064 42.9915 46.0164C42.9615 46.0264 42.9215 46.0264 42.8815 46.0264C42.8315 46.0364 42.7915 46.0464 42.7415 46.0464C42.7115 46.0464 42.6815 46.0564 42.6515 46.0564C42.6115 46.0664 42.5615 46.0664 42.5215 46.0764C42.4715 46.0764 42.4215 46.0864 42.3815 46.0864C42.2815 46.0964 42.1815 46.1164 42.0815 46.1164C41.9915 46.1264 41.9115 46.1364 41.8315 46.1464C41.7515 46.1464 41.6715 46.1564 41.5915 46.1564C41.5615 46.1564 41.5215 46.1564 41.4815 46.1564C41.4015 46.1664 41.3215 46.1664 41.2315 46.1664C41.1615 46.1764 41.0915 46.1764 41.0215 46.1764C40.9515 46.1864 40.8815 46.1864 40.8115 46.1864C40.7315 46.1864 40.6515 46.1864 40.5715 46.1964H40.0815C40.0015 46.1864 39.9215 46.1864 39.8415 46.1864C39.7115 46.1864 39.5815 46.1764 39.4515 46.1664H39.3615C39.2515 46.1664 39.1415 46.1564 39.0415 46.1464H38.9015C38.7415 46.1264 38.5915 46.1064 38.4315 46.0964H38.3815C38.3815 46.0964 38.3415 46.0964 38.3215 46.0964C38.2915 46.0964 38.2515 46.0864 38.2215 46.0864C38.1415 46.0764 38.0715 46.0664 38.0015 46.0564H37.9915C37.9115 46.0464 37.8315 46.0364 37.7515 46.0264C37.7315 46.0264 37.7215 46.0164 37.7015 46.0164C37.6415 46.0064 37.5915 45.9964 37.5315 45.9964C37.3515 45.9664 37.1715 45.9364 36.9915 45.9064C36.8815 45.8864 36.7715 45.8664 36.6615 45.8464C36.6515 45.8364 36.6415 45.8364 36.6315 45.8364C36.5715 45.8264 36.5115 45.8164 36.4615 45.7964C36.4015 45.7964 36.3415 45.7764 36.2815 45.7564C36.0715 45.7164 35.8715 45.6664 35.6715 45.6164C35.4815 45.5664 35.2815 45.5164 35.0915 45.4564C34.9415 45.4164 34.8015 45.3664 34.6615 45.3264C34.5115 45.2764 34.3715 45.2364 34.2315 45.1864C34.1315 45.1464 34.0215 45.1164 33.9315 45.0764C33.7915 45.0264 33.6515 44.9764 33.5215 44.9164C33.4815 44.9164 33.4415 44.8964 33.4115 44.8764C33.3915 44.8664 33.3815 44.8664 33.3715 44.8664C33.3615 44.8564 33.3515 44.8564 33.3415 44.8564C33.3115 44.8364 33.2715 44.8264 33.2415 44.8064C33.2115 44.7964 33.1715 44.7864 33.1415 44.7664C33.0115 44.7164 32.8915 44.6664 32.7715 44.6064C32.6315 44.5464 32.4815 44.4764 32.3315 44.4164C32.3115 44.4164 32.2915 44.3964 32.2715 44.3864C32.2515 44.3764 32.2315 44.3664 32.2215 44.3564C32.2115 44.3564 32.2015 44.3564 32.2015 44.3564C32.1615 44.3364 32.1115 44.3164 32.0715 44.2964C32.0115 44.2664 31.9615 44.2464 31.9015 44.2164C31.8015 44.1664 31.7015 44.1164 31.6015 44.0564C31.4815 43.9964 31.3615 43.9364 31.2515 43.8664C31.1315 43.8064 31.0115 43.7364 30.9015 43.6764C30.7815 43.6064 30.6715 43.5364 30.5515 43.4664C30.4615 43.4164 30.3715 43.3564 30.2715 43.2964C30.2015 43.2464 30.1215 43.1964 30.0415 43.1464C29.9915 43.1164 29.9415 43.0764 29.8815 43.0364C29.7715 42.9664 29.6615 42.8864 29.5515 42.8164C29.3215 42.6464 29.0915 42.4864 28.8715 42.3064C28.7815 42.2364 28.6915 42.1664 28.6015 42.0964C28.5015 42.0164 28.4015 41.9364 28.3015 41.8564C28.3015 41.8464 28.2915 41.8464 28.2915 41.8464H28.2815C28.0915 41.6764 27.9015 41.5064 27.7115 41.3464C27.6915 41.3164 27.6615 41.2964 27.6315 41.2664C27.4615 41.1164 27.2915 40.9564 27.1315 40.7864C27.1115 40.7764 27.0915 40.7564 27.0715 40.7364L26.9815 40.6364C26.8115 40.4664 26.6415 40.2964 26.4815 40.1164L26.3915 40.0264C26.3315 39.9564 26.2615 39.8864 26.2015 39.8064C26.1415 39.7464 26.0815 39.6764 26.0215 39.6064C26.0015 39.5864 25.9915 39.5664 25.9715 39.5564C25.9215 39.4864 25.8715 39.4264 25.8115 39.3664C25.8015 39.3464 25.7815 39.3264 25.7715 39.3064C25.5715 39.0664 25.3815 38.8264 25.2015 38.5764C25.0915 38.4364 24.9915 38.2864 24.8915 38.1464C24.7915 37.9964 24.6915 37.8564 24.5915 37.7064C24.4915 37.5564 24.4015 37.4064 24.3115 37.2564C24.2315 37.1364 24.1615 37.0164 24.0915 36.8964C24.0315 36.8064 23.9815 36.7064 23.9315 36.6164C23.8815 36.5264 23.8215 36.4264 23.7715 36.3364C23.6915 36.1764 23.6115 36.0164 23.5215 35.8564C23.3715 35.5564 23.2215 35.2364 23.0915 34.9164C23.0415 34.8164 22.9915 34.7064 22.9515 34.6064C22.9115 34.5064 22.8615 34.3964 22.8215 34.2964C22.8215 34.2864 22.8115 34.2664 22.8115 34.2564C22.7015 33.9864 22.6015 33.7064 22.5015 33.4264C22.5015 33.4264 22.4915 33.3964 22.4915 33.3764C22.4315 33.2064 22.3815 33.0364 22.3315 32.8664C22.3215 32.8464 22.3115 32.8264 22.3115 32.8064C22.2715 32.6864 22.2415 32.5664 22.2015 32.4464C22.1915 32.4164 22.1815 32.3764 22.1715 32.3364C22.1315 32.1964 22.1015 32.0364 22.0615 31.8864C22.0515 31.8464 22.0415 31.8064 22.0315 31.7664C21.9915 31.6064 21.9515 31.4364 21.9215 31.2764C21.9115 31.2464 21.9115 31.2164 21.9015 31.1864C21.8815 31.1164 21.8715 31.0364 21.8615 30.9564C21.8515 30.9164 21.8415 30.8664 21.8315 30.8164C21.8215 30.7864 21.8215 30.7564 21.8115 30.7364C21.7815 30.5364 21.7415 30.3464 21.7215 30.1464C21.7015 30.0264 21.6815 29.9064 21.6715 29.7864C21.6615 29.7064 21.6515 29.6264 21.6415 29.5564C21.6315 29.4264 21.6115 29.3064 21.6015 29.1764C21.6015 29.1064 21.6015 29.0364 21.5815 28.9664C21.5615 28.8964 21.5715 28.8264 21.5615 28.7564C21.5615 28.6864 21.5615 28.6264 21.5515 28.5564C21.5515 28.4964 21.5415 28.4264 21.5415 28.3664V28.3464C21.5315 28.1964 21.5315 28.0364 21.5215 27.8764V10.0964H28.9015V19.5164V29.7164C28.9015 30.6264 29.2715 31.4564 29.8615 32.0464C29.9415 32.1264 30.0215 32.1964 30.1115 32.2764C30.2015 32.3464 30.2915 32.4164 30.4015 32.4764C30.8315 32.7664 31.3515 32.9564 31.9015 33.0064C32.0015 33.0164 32.0915 33.0164 32.2015 33.0164H34.2415C34.3715 33.0264 34.5115 33.0364 34.6515 33.0364C38.6115 32.9964 42.5715 33.0264 46.5315 33.0264C48.2315 33.0164 49.5315 31.9764 49.8715 30.3264C50.3215 28.1364 50.7515 25.9364 51.1915 23.7464L51.3715 22.8164C51.4915 22.2264 51.6215 21.6364 51.7415 21.0464C51.7615 20.9464 51.7715 20.8464 51.7715 20.7464C51.7715 20.4564 51.6915 20.1564 51.4915 19.9364C51.2015 19.6164 50.7815 19.4964 50.2615 19.5064H48.6015C46.5315 19.5164 44.4815 19.5064 42.4215 19.5064C40.1115 19.5064 37.8015 19.5064 35.4915 19.5164C34.4315 19.5064 33.3815 19.5164 32.3215 19.5164C32.2915 19.5164 32.2715 19.5164 32.2415 19.5064L30.4015 19.5164V11.4264C30.9715 11.0564 31.5815 10.7264 32.2015 10.4264C32.2015 10.4264 32.2315 10.4264 32.2415 10.4064C33.5215 9.79641 34.8815 9.32641 36.3015 9.00641C36.5015 8.96641 36.7015 8.92641 36.9115 8.88641C37.0115 8.86641 37.1115 8.84641 37.2115 8.83641C37.3815 8.80641 37.5415 8.77641 37.7115 8.75641C37.9715 8.71641 38.2315 8.68641 38.4915 8.65641C38.6315 8.64641 38.7715 8.6364 38.9115 8.6264H38.9615C39.0315 8.6164 39.0915 8.60641 39.1615 8.60641C39.2315 8.60641 39.2915 8.59641 39.3615 8.59641H39.3915C39.4715 8.59641 39.5415 8.58641 39.6115 8.58641C39.7015 8.58641 39.7815 8.58641 39.8715 8.57641C40.0315 8.56641 40.3015 8.56641 40.4615 8.56641C40.5215 8.56641 40.5815 8.57641 40.6515 8.57641C40.7315 8.57641 40.8215 8.57641 40.9015 8.58641H41.1815C41.2915 8.59641 41.4015 8.59641 41.5115 8.60641H41.5315C41.5915 8.60641 41.6515 8.60641 41.7115 8.60641C41.7315 8.61641 41.7515 8.61641 41.7715 8.61641H41.8015C41.9215 8.62641 42.0415 8.63641 42.1715 8.64641C42.2315 8.65641 42.2815 8.6664 42.3415 8.6664C42.3915 8.6764 42.4415 8.67641 42.4915 8.68641C42.5715 8.68641 42.6515 8.70641 42.7215 8.71641C42.7815 8.71641 42.8315 8.7264 42.8815 8.7364H42.9115C42.9115 8.7364 42.9415 8.73641 42.9615 8.74641C43.0015 8.74641 43.0415 8.75641 43.0715 8.75641C43.1115 8.76641 43.1515 8.76641 43.1915 8.77641C43.3315 8.79641 43.4615 8.81641 43.5915 8.84641C43.6215 8.84641 43.6515 8.84641 43.6815 8.84641C43.8315 8.87641 43.9715 8.90641 44.1215 8.93641C44.1515 8.93641 44.1815 8.94641 44.2215 8.95641C44.2415 8.95641 44.2615 8.96641 44.2815 8.96641C44.4715 9.00641 44.6715 9.05641 44.8615 9.10641C44.9615 9.12641 45.0715 9.15641 45.1715 9.17641C45.2715 9.20641 45.3715 9.2364 45.4815 9.2664C45.7815 9.3564 46.0715 9.43641 46.3615 9.53641C46.4515 9.56641 46.5415 9.60641 46.6315 9.63641C46.6915 9.65641 46.7415 9.6764 46.8015 9.6964C46.9115 9.7364 47.0115 9.77641 47.1215 9.81641C47.3215 9.89641 47.5215 9.97641 47.7215 10.0664C47.9115 10.1464 48.1015 10.2264 48.2815 10.3064C48.2915 10.3164 48.3115 10.3264 48.3215 10.3264C48.4115 10.3664 48.5015 10.4164 48.5915 10.4564C48.6915 10.5064 48.7915 10.5564 48.8915 10.6064C49.0815 10.7064 49.2615 10.7964 49.4415 10.9064C49.5615 10.9664 49.6815 11.0364 49.7915 11.1064C49.8915 11.1564 49.9915 11.2164 50.0815 11.2764C50.2115 11.3564 50.3415 11.4364 50.4715 11.5164C50.5015 11.5364 50.5315 11.5564 50.5615 11.5764H50.5715C50.5715 11.5764 50.6115 11.6064 50.6315 11.6264C50.7415 11.6864 50.8515 11.7664 50.9615 11.8364H50.9715C51.0215 11.8764 51.0715 11.9064 51.1215 11.9464C51.2215 12.0164 51.3115 12.0764 51.4115 12.1464C51.4215 12.1564 51.4415 12.1764 51.4615 12.1864C51.5315 12.2364 51.6115 12.2964 51.6915 12.3564C51.7415 12.3964 51.8015 12.4464 51.8615 12.4864C51.8915 12.5164 51.9115 12.5364 51.9415 12.5564C52.0215 12.6064 52.0915 12.6664 52.1715 12.7364C52.2115 12.7664 52.2615 12.8064 52.3015 12.8364C52.3615 12.8964 52.4315 12.9464 52.5015 13.0064C52.5315 13.0364 52.5715 13.0664 52.6115 13.0964C52.6415 13.1264 52.6815 13.1564 52.7115 13.1864C52.7815 13.2464 52.8415 13.3064 52.9015 13.3664C52.9615 13.4064 53.0115 13.4564 53.0715 13.5064C53.1215 13.5564 53.1815 13.6064 53.2315 13.6564L53.2615 13.6864C53.2615 13.6864 53.2915 13.7264 53.3115 13.7364C53.4215 13.8464 53.5315 13.9464 53.6315 14.0564L53.6915 14.1164C53.8115 14.2264 53.9115 14.3364 54.0315 14.4564C54.0615 14.4864 54.0815 14.5164 54.1115 14.5464C54.2115 14.6564 54.3115 14.7664 54.4015 14.8664H54.4115C54.4915 14.9664 54.5715 15.0664 54.6515 15.1564C54.7015 15.2064 54.7415 15.2564 54.7915 15.3164C54.8015 15.3364 54.8215 15.3564 54.8415 15.3764C54.9815 15.5464 55.1215 15.7164 55.2515 15.8964C55.3815 16.0564 55.5015 16.2164 55.6215 16.3864C55.6415 16.4164 55.6515 16.4364 55.6715 16.4664C55.7915 16.6264 55.8915 16.7764 56.0015 16.9364C56.0315 16.9864 56.0715 17.0464 56.1015 17.0964C56.2115 17.2664 56.3215 17.4264 56.4215 17.6064C56.5515 17.8164 56.6715 18.0264 56.8015 18.2464C56.8215 18.2864 56.8515 18.3364 56.8715 18.3864C56.9715 18.5664 57.0715 18.7464 57.1615 18.9264C57.2015 19.0164 57.2515 19.1064 57.2915 19.2064C57.4215 19.4764 57.5515 19.7464 57.6715 20.0364C57.7315 20.1764 57.7815 20.3164 57.8415 20.4564C57.9015 20.5964 57.9515 20.7464 58.0115 20.8864C58.0615 21.0364 58.1115 21.1764 58.1615 21.3264C58.2615 21.6164 58.3515 21.9164 58.4315 22.2064C58.4815 22.3564 58.5115 22.5064 58.5515 22.6564C58.5915 22.7964 58.6215 22.9264 58.6515 23.0664C58.7215 23.3364 58.7715 23.6064 58.8215 23.8864C58.8515 24.0064 58.8715 24.1264 58.8915 24.2464V24.2864C58.9115 24.4064 58.9315 24.5264 58.9515 24.6364C58.9715 24.7664 58.9915 24.8964 59.0015 25.0264C59.0315 25.2364 59.0515 25.4464 59.0715 25.6664C59.0915 25.8364 59.1015 26.0064 59.1115 26.1864C59.1215 26.3064 59.1315 26.4364 59.1315 26.5764C59.1315 26.6764 59.1415 26.7864 59.1415 26.8964C59.1415 27.0464 59.1415 27.2064 59.1415 27.3564L59.1315 27.3764Z" fill="black"/>
<path d="M84.1906 16.4258L75.0706 43.3758H69.7906L72.4906 35.4058L65.1406 16.4258H70.4106L74.9506 28.5558L78.8806 16.4258H84.1906Z" fill="black"/>
<path d="M95.2401 15.8867C89.5801 15.8867 85.0801 20.3167 85.0801 26.0467C85.0801 31.7767 89.5801 36.2167 95.2401 36.2167C100.9 36.2167 105.44 31.7867 105.44 26.0467C105.44 20.3067 100.9 15.8867 95.2401 15.8867ZM95.2401 31.3667C92.3101 31.3667 90.0401 29.1667 90.0401 26.0467C90.0401 22.9267 92.3101 20.7367 95.2401 20.7367C98.1701 20.7367 100.48 22.9267 100.48 26.0467C100.48 29.1667 98.2001 31.3667 95.2401 31.3667Z" fill="black"/>
<path d="M124.921 16.4258V35.6758H119.961V33.6758C118.881 35.3258 117.111 36.2158 114.721 36.2158C111.141 36.2158 108.451 33.4358 108.451 28.7058V16.4258H113.411V28.3558C113.411 30.5558 114.721 31.5958 116.451 31.5958C118.421 31.5958 119.961 30.4758 119.961 27.5458V16.4258H124.921Z" fill="black"/>
<path d="M139.711 16.0371V21.5871C137.131 21.2771 134.431 22.4271 134.431 26.1671V35.6771H129.471V16.4271H134.431V19.3171C135.401 17.0471 137.361 16.0371 139.711 16.0371Z" fill="black"/>
<path d="M153.641 15.8866C150.831 15.8866 148.761 16.9666 147.411 18.6966V8.72656H142.441V35.6766H147.411V33.4066C148.761 35.1366 150.831 36.2166 153.641 36.2166C158.801 36.2166 163.041 31.7866 163.041 26.0466C163.041 20.3066 158.801 15.8866 153.641 15.8866ZM152.721 31.4766C149.681 31.4766 147.411 29.2866 147.411 26.0466C147.411 22.8066 149.681 20.6166 152.721 20.6166C155.761 20.6166 158.071 22.8166 158.071 26.0466C158.071 29.2766 155.801 31.4766 152.721 31.4766Z" fill="black"/>
<path d="M173.821 15.8867C169.581 15.8867 166.001 18.4267 166.001 22.9667H170.851C170.851 21.4667 172.011 20.5067 173.821 20.5067C175.631 20.5067 176.821 21.4667 176.821 23.7367V25.7767C175.701 24.8167 174.011 24.0867 171.591 24.0867C168.161 24.0867 165.121 26.0867 165.121 30.1267C165.121 34.1667 168.161 36.2167 171.591 36.2167C174.011 36.2167 175.701 35.3667 176.821 34.0167V35.6767H181.671V23.4267C181.671 18.4267 178.091 15.8867 173.821 15.8867ZM173.281 32.5167C171.081 32.5167 170.081 31.5167 170.081 30.1267C170.081 28.7367 171.081 27.7467 173.281 27.7467C175.481 27.7467 176.821 28.6667 176.821 30.1267C176.821 31.5867 175.471 32.5167 173.281 32.5167Z" fill="black"/>
<path d="M200.46 30.0867C200.46 34.1767 196.92 36.2167 192.68 36.2167C188.44 36.2167 184.91 34.0567 184.91 29.5567H189.76C189.76 31.0567 190.87 31.8267 192.68 31.8267C194.49 31.8267 195.49 31.2067 195.49 30.0867C195.49 26.7767 185.14 29.3967 185.14 22.0067C185.14 17.9667 188.68 15.8867 192.68 15.8867C196.68 15.8867 200.07 18.0467 200.07 22.5467H195.22C195.22 21.0467 194.11 20.2767 192.68 20.2767C191.1 20.2767 190.1 20.8867 190.1 22.0067C190.1 25.3567 200.46 22.6667 200.46 30.0867Z" fill="black"/>
<path d="M221.631 35.6766H215.901L209.161 26.9766V35.6766H204.201V8.72656H209.161V24.8966L215.511 16.4266H221.251L213.931 25.9366L221.631 35.6766Z" fill="black"/>
<path d="M241.651 26.0467C241.651 20.3867 237.721 15.8867 232.071 15.8867C225.981 15.8867 221.861 20.3167 221.861 26.0467C221.861 31.7767 225.911 36.2167 232.181 36.2167C236.491 36.2167 239.881 34.0167 241.071 30.1267L236.191 30.1667C235.531 31.2467 233.991 32.0967 232.221 32.0967C229.761 32.0967 227.681 30.8267 227.021 28.0867H241.461C241.611 27.4367 241.651 26.7767 241.651 26.0467ZM226.991 24.1967C227.601 21.7767 229.371 20.3567 232.031 20.3567C234.111 20.3567 236.111 21.4267 236.691 24.1967H226.991Z" fill="black"/>
<path d="M254.821 16.4256V21.1956H251.511V35.6756H246.541V21.1956H243.201V16.4256H246.541V10.2656H251.511V16.4256H254.821Z" fill="black"/>
</svg>
