<svg width="1163" height="307" viewBox="0 0 1163 307" fill="none" xmlns="http://www.w3.org/2000/svg">
<path d="M139 0.691406H1010C1094.5 0.691406 1163 69.1918 1163 153.691C1163 238.191 1094.5 306.691 1010 306.691H149C143.477 306.691 139 302.214 139 296.691V0.691406Z" fill="#1D861F"/>
<path d="M422.391 216.353C416.63 216.353 411.368 215.411 406.605 213.528C401.841 211.645 398.047 208.682 395.222 204.638C392.397 200.595 390.985 195.416 390.985 189.102H406.605C406.826 192.37 407.74 195.084 409.347 197.244C411.008 199.349 413.113 200.927 415.661 201.98C418.264 202.977 421.089 203.475 424.136 203.475C429.287 203.475 433.579 202.506 437.014 200.567C440.503 198.573 442.525 195.527 443.079 191.428C443.522 188.492 442.996 186.138 441.5 184.366C440.005 182.593 437.457 181.292 433.856 180.461L418.237 176.39C411.59 174.728 406.466 172.097 402.866 168.497C399.266 164.841 397.909 159.745 398.795 153.209C399.515 148.169 401.343 143.682 404.278 139.75C407.27 135.817 411.313 132.743 416.409 130.527C421.56 128.256 427.708 127.121 434.853 127.121C444.159 127.121 451.359 129.281 456.455 133.601C461.551 137.922 463.628 144.181 462.687 152.378H447.565C447.565 148.446 446.291 145.372 443.743 143.156C441.195 140.885 437.595 139.75 432.942 139.75C428.068 139.75 423.942 140.774 420.563 142.824C417.24 144.818 415.301 147.892 414.747 152.046C414.359 154.871 415.162 157.114 417.156 158.776C419.206 160.382 422.418 161.712 426.794 162.764L441.749 166.835C445.627 167.943 448.756 169.411 451.138 171.238C453.52 173.011 455.292 174.977 456.455 177.137C457.674 179.298 458.422 181.541 458.698 183.867C458.975 186.194 458.948 188.381 458.615 190.431C457.895 195.859 455.929 200.512 452.716 204.389C449.559 208.211 445.405 211.174 440.254 213.279C435.103 215.328 429.148 216.353 422.391 216.353ZM503.551 215.273C497.347 215.273 492.667 214.414 489.51 212.697C486.408 210.98 484.414 208.515 483.528 205.303C482.641 202.035 482.531 198.102 483.195 193.505L490.673 141.577H477.379L479.29 128.783H492.999L499.729 103.525H513.687L510.114 128.699H528.559L526.648 141.577H508.204L500.892 192.425C500.283 196.579 500.615 199.238 501.889 200.401C503.219 201.509 505.489 202.063 508.702 202.063H518.257L516.595 213.611C515.487 214.054 513.853 214.442 511.693 214.774C509.588 215.107 506.874 215.273 503.551 215.273ZM558.933 216.353C553.615 216.353 549.046 215.356 545.224 213.362C541.402 211.368 538.605 208.488 536.832 204.721C535.06 200.955 534.534 196.413 535.254 191.096C536.639 181.569 540.904 174.451 548.049 169.743C555.194 165.035 565.884 162.542 580.119 162.265L593.247 161.85L594.244 155.619C594.964 150.467 593.967 146.535 591.252 143.821C588.538 141.107 584.606 139.777 579.455 139.833C575.245 139.833 571.202 140.941 567.324 143.156C563.502 145.372 560.733 148.778 559.016 153.375H544.061C545.113 148.169 547.356 143.599 550.791 139.667C554.28 135.679 558.711 132.604 564.084 130.444C569.457 128.229 575.494 127.121 582.196 127.121C589.619 127.121 595.601 128.256 600.142 130.527C604.684 132.798 607.842 135.983 609.614 140.082C611.442 144.181 611.94 149.027 611.11 154.622L602.386 214.691H587.68L588.428 199.404C584.384 205.94 579.898 210.399 574.968 212.78C570.038 215.162 564.693 216.353 558.933 216.353ZM566.161 203.974C568.654 203.974 571.202 203.503 573.805 202.561C576.464 201.564 578.901 200.235 581.116 198.573C583.387 196.856 585.298 194.945 586.849 192.84C588.4 190.736 589.342 188.575 589.674 186.36L591.668 172.152L580.867 172.402C575.383 172.457 570.62 173.066 566.577 174.23C562.533 175.393 559.293 177.193 556.856 179.63C554.419 182.067 552.895 185.307 552.286 189.351C551.677 193.948 552.674 197.548 555.277 200.152C557.88 202.7 561.508 203.974 566.161 203.974ZM625.577 214.691L638.122 128.783H654.988L653.41 140.497C655.293 138.171 657.481 136.039 659.973 134.1C662.466 132.161 665.374 130.61 668.697 129.447C672.076 128.284 675.925 127.702 680.246 127.702C685.452 127.702 690.05 128.893 694.038 131.275C698.026 133.601 700.989 137.036 702.928 141.577C704.922 146.064 705.448 151.548 704.506 158.028L696.198 214.691H678.75L686.726 159.856C687.613 154.151 686.699 149.775 683.985 146.729C681.326 143.627 677.615 142.076 672.851 142.076C669.528 142.076 666.288 142.658 663.131 143.821C660.029 144.984 657.398 146.701 655.238 148.972C653.077 151.243 651.776 154.095 651.333 157.53L642.941 214.691H625.577ZM749.447 216.353C738.646 216.353 730.67 212.504 725.519 204.804C720.368 197.05 718.761 185.889 720.7 171.322C722.472 157.917 726.71 147.2 733.412 139.168C740.169 131.137 749.032 127.121 759.999 127.121C763.599 127.121 766.784 127.592 769.553 128.533C772.323 129.475 774.677 130.693 776.615 132.189C778.609 133.685 780.243 135.291 781.517 137.008C782.791 138.725 783.705 140.331 784.259 141.827L791.072 91.2286H808.769L792.069 214.691H779.025L779.44 197.078C778.609 198.961 777.419 201.01 775.868 203.226C774.372 205.441 772.434 207.546 770.052 209.54C767.67 211.534 764.79 213.168 761.411 214.442C758.032 215.716 754.044 216.353 749.447 216.353ZM754.681 202.977C762.214 202.977 767.975 200.484 771.963 195.499C776.006 190.459 778.831 182.206 780.437 170.74C781.213 164.259 781.157 158.776 780.271 154.289C779.44 149.803 777.64 146.424 774.871 144.153C772.101 141.827 768.252 140.664 763.322 140.664C757.118 140.664 751.718 143.045 747.121 147.809C742.523 152.517 739.532 160.161 738.148 170.74C736.763 181.153 737.483 189.129 740.308 194.668C743.188 200.207 747.979 202.977 754.681 202.977ZM839.179 216.353C833.862 216.353 829.292 215.356 825.47 213.362C821.648 211.368 818.851 208.488 817.079 204.721C815.306 200.955 814.78 196.413 815.5 191.096C816.885 181.569 821.15 174.451 828.295 169.743C835.44 165.035 846.13 162.542 860.365 162.265L873.493 161.85L874.49 155.619C875.21 150.467 874.213 146.535 871.499 143.821C868.785 141.107 864.852 139.777 859.701 139.833C855.491 139.833 851.448 140.941 847.57 143.156C843.749 145.372 840.979 148.778 839.262 153.375H824.307C825.359 148.169 827.603 143.599 831.037 139.667C834.526 135.679 838.957 132.604 844.33 130.444C849.703 128.229 855.74 127.121 862.443 127.121C869.865 127.121 875.847 128.256 880.389 130.527C884.931 132.798 888.088 135.983 889.86 140.082C891.688 144.181 892.187 149.027 891.356 154.622L882.632 214.691H867.926L868.674 199.404C864.63 205.94 860.144 210.399 855.214 212.78C850.285 215.162 844.939 216.353 839.179 216.353ZM846.407 203.974C848.9 203.974 851.448 203.503 854.051 202.561C856.71 201.564 859.147 200.235 861.362 198.573C863.633 196.856 865.544 194.945 867.095 192.84C868.646 190.736 869.588 188.575 869.92 186.36L871.914 172.152L861.113 172.402C855.63 172.457 850.866 173.066 846.823 174.23C842.779 175.393 839.539 177.193 837.102 179.63C834.665 182.067 833.142 185.307 832.532 189.351C831.923 193.948 832.92 197.548 835.523 200.152C838.127 202.7 841.755 203.974 846.407 203.974ZM905.74 214.691L917.87 128.783H934.653L932.16 146.396C934.099 142.187 936.508 138.67 939.389 135.845C942.269 132.964 945.454 130.804 948.943 129.364C952.433 127.869 956.061 127.121 959.827 127.121C960.88 127.121 961.877 127.204 962.818 127.37C963.815 127.481 964.563 127.702 965.062 128.035L962.652 145.15C962.043 144.818 961.212 144.596 960.16 144.485C959.107 144.375 958.221 144.292 957.501 144.236C952.627 143.904 948.279 144.375 944.457 145.649C940.635 146.867 937.533 148.944 935.151 151.88C932.77 154.76 931.246 158.471 930.582 163.013L923.353 214.691H905.74ZM998.699 216.353C987.898 216.353 979.922 212.504 974.771 204.804C969.62 197.05 968.013 185.889 969.952 171.322C971.724 157.917 975.962 147.2 982.664 139.168C989.421 131.137 998.284 127.121 1009.25 127.121C1012.85 127.121 1016.04 127.592 1018.81 128.533C1021.57 129.475 1023.93 130.693 1025.87 132.189C1027.86 133.685 1029.5 135.291 1030.77 137.008C1032.04 138.725 1032.96 140.331 1033.51 141.827L1040.32 91.2286H1058.02L1041.32 214.691H1028.28L1028.69 197.078C1027.86 198.961 1026.67 201.01 1025.12 203.226C1023.62 205.441 1021.69 207.546 1019.3 209.54C1016.92 211.534 1014.04 213.168 1010.66 214.442C1007.28 215.716 1003.3 216.353 998.699 216.353ZM1003.93 202.977C1011.47 202.977 1017.23 200.484 1021.21 195.499C1025.26 190.459 1028.08 182.206 1029.69 170.74C1030.46 164.259 1030.41 158.776 1029.52 154.289C1028.69 149.803 1026.89 146.424 1024.12 144.153C1021.35 141.827 1017.5 140.664 1012.57 140.664C1006.37 140.664 1000.97 143.045 996.373 147.809C991.775 152.517 988.784 160.161 987.4 170.74C986.015 181.153 986.735 189.129 989.56 194.668C992.44 200.207 997.231 202.977 1003.93 202.977Z" fill="white"/>
<path d="M0 153.691C0 69.5671 68.1963 0.691406 152.321 0.691406H332V154.371C332 238.495 263.804 306.691 179.679 306.691H152.321C68.1963 306.691 0 237.816 0 153.691Z" fill="#3866DF"/>
<path fill-rule="evenodd" clip-rule="evenodd" d="M252.317 117.313L259.273 124.304C264.779 129.741 267.774 137.12 267.774 144.888C267.87 152.656 264.876 160.045 259.466 165.57C259.401 165.641 259.337 165.703 259.273 165.766C259.24 165.797 259.208 165.829 259.176 165.861L252.317 172.755C249.612 175.474 248.067 179.163 248.067 183.057V193.048C248.067 209.166 235.025 222.284 218.989 222.284H209.039C205.175 222.284 201.504 223.828 198.799 226.546L191.844 233.537C186.144 239.276 178.706 242.082 171.268 242.082C163.829 242.082 156.391 239.276 150.691 233.644L143.639 226.546C140.934 223.828 137.263 222.284 133.399 222.284H123.449C107.413 222.284 94.3719 209.166 94.3719 193.048V183.057C94.3719 179.163 92.8262 175.474 90.1214 172.658L83.166 165.764C71.8635 154.413 71.7669 135.858 83.0694 124.41L90.1214 117.313C92.8262 114.594 94.3719 110.904 94.3719 106.923V97.0196C94.3719 80.9015 107.413 67.8032 123.449 67.8032H133.399C137.263 67.8032 140.934 66.24 143.639 63.5213L150.595 56.5303C161.897 45.0826 180.348 45.0826 191.747 56.4429L198.799 63.5213C201.504 66.24 205.175 67.8032 209.039 67.8032H218.989C235.025 67.8032 248.067 80.9015 248.067 97.0196V107.03C248.067 110.904 249.612 114.594 252.317 117.313ZM146.359 178.481C148.677 178.481 150.802 177.607 152.348 175.956L202.002 126.058C205.286 122.757 205.286 117.31 202.002 114.009C198.717 110.717 193.404 110.717 190.12 114.009L140.466 163.916C137.181 167.218 137.181 172.655 140.466 175.956C142.012 177.607 144.137 178.481 146.359 178.481ZM187.6 169.934C187.6 174.692 191.368 178.479 196.101 178.479C200.738 178.479 204.506 174.692 204.506 169.934C204.506 165.283 200.738 161.487 196.101 161.487C191.368 161.487 187.6 165.283 187.6 169.934ZM146.446 111.587C151.083 111.587 154.851 115.374 154.851 120.035C154.851 124.802 151.083 128.579 146.446 128.579C141.809 128.579 137.945 124.802 137.945 120.035C137.945 115.374 141.809 111.587 146.446 111.587Z" fill="white"/>
</svg>
