<svg width="274" height="52" viewBox="0 0 274 52" fill="none" xmlns="http://www.w3.org/2000/svg">
<g clip-path="url(#clip0_2_12381)">
<path d="M268.55 0.0976562H5C2.23858 0.0976562 0 2.33623 0 5.09766V46.4677C0 49.2291 2.23858 51.4677 5 51.4677H268.55C271.311 51.4677 273.55 49.2291 273.55 46.4677V5.09766C273.55 2.33623 271.311 0.0976562 268.55 0.0976562Z" fill="#FEEE00"/>
<path d="M28.8807 5.62695H18.7207V8.12695H28.8807V5.62695Z" fill="#404553"/>
<path d="M59.1415 27.1071C59.1415 27.2671 59.1315 27.4271 59.1315 27.5871C59.1315 27.7071 59.1315 27.8271 59.1315 27.9471C59.1215 28.0571 59.1215 28.1571 59.1115 28.2571C59.1015 28.3971 59.0915 28.5371 59.0815 28.6871C59.0615 28.9171 59.0415 29.1471 59.0115 29.3771C59.0015 29.5071 58.9815 29.6271 58.9615 29.7471C58.9415 29.8771 58.9315 29.9971 58.9115 30.1171C58.8915 30.2371 58.8715 30.3571 58.8515 30.4771C58.8415 30.4971 58.8415 30.5271 58.8315 30.5571C58.8115 30.6771 58.7915 30.7971 58.7615 30.9071C58.7515 30.9471 58.7515 30.9971 58.7415 31.0371C58.7315 31.0771 58.7215 31.1171 58.7115 31.1671C58.6815 31.2671 58.6615 31.3771 58.6415 31.4771C58.6415 31.4871 58.6415 31.4971 58.6415 31.5071C58.6315 31.5271 58.6315 31.5471 58.6315 31.5671C58.6015 31.6871 58.5615 31.8171 58.5315 31.9371C58.5315 31.9571 58.5215 31.9671 58.5215 31.9771C58.4815 32.1271 58.4415 32.2771 58.3915 32.4271C58.3815 32.4971 58.3615 32.5471 58.3415 32.5871C58.3115 32.6971 58.2815 32.7971 58.2415 32.8971C58.2215 32.9771 58.2015 33.0571 58.1715 33.1271C58.1515 33.2071 58.1215 33.2771 58.0915 33.3571V33.3771C58.0415 33.4971 58.0015 33.6071 57.9615 33.7271C57.9615 33.7571 57.9415 33.7771 57.9315 33.8071C57.9215 33.8271 57.9215 33.8471 57.9115 33.8671C57.8615 33.9771 57.8215 34.0871 57.7815 34.1971C57.7715 34.2071 57.7615 34.2271 57.7515 34.2471C57.7015 34.3971 57.6415 34.5371 57.5715 34.6871C57.5015 34.8271 57.4415 34.9771 57.3715 35.1171C57.3515 35.1771 57.3215 35.2271 57.2915 35.2871C57.2515 35.3771 57.2115 35.4571 57.1715 35.5471C57.1315 35.6171 57.1015 35.6871 57.0615 35.7571C57.0215 35.8271 56.9915 35.8871 56.9515 35.9571C56.8715 36.0971 56.7915 36.2371 56.7215 36.3771C56.4115 36.9271 56.0715 37.4571 55.7115 37.9671C55.6115 38.1171 55.5015 38.2571 55.3915 38.4071C55.3215 38.4971 55.2615 38.5771 55.1915 38.6571C55.0515 38.8471 54.9015 39.0371 54.7415 39.2171C54.7115 39.2571 54.6815 39.2971 54.6515 39.3271C54.5615 39.4271 54.4815 39.5271 54.4015 39.6171C54.3615 39.6671 54.3115 39.7171 54.2715 39.7671C54.2615 39.7771 54.2515 39.7871 54.2415 39.7871C54.1015 39.9471 53.9515 40.0971 53.8115 40.2471C53.7715 40.2771 53.7415 40.3171 53.7115 40.3371C53.5815 40.4771 53.4515 40.6071 53.3215 40.7271L53.2915 40.7571C53.2915 40.7571 53.2615 40.7771 53.2615 40.7871C53.1715 40.8771 53.0815 40.9571 52.9915 41.0371C52.9215 41.1071 52.8515 41.1671 52.7815 41.2271C52.6915 41.3071 52.5915 41.3871 52.4915 41.4771C52.4515 41.5071 52.4215 41.5371 52.3815 41.5671C52.2915 41.6471 52.1915 41.7171 52.1015 41.7971C52.0815 41.8071 52.0715 41.8271 52.0515 41.8371C52.0215 41.8571 51.9915 41.8871 51.9715 41.9071C51.9615 41.9071 51.9515 41.9071 51.9415 41.9271C51.9315 41.9471 51.9215 41.9371 51.9115 41.9471C51.9015 41.9571 51.8915 41.9671 51.8815 41.9771C51.8215 42.0071 51.7815 42.0471 51.7315 42.0871C51.5215 42.2471 51.3115 42.3971 51.0915 42.5471C51.0115 42.6071 50.9315 42.6571 50.8515 42.7171C50.7315 42.7971 50.6115 42.8771 50.4915 42.9571C50.3715 43.0271 50.2415 43.1071 50.1215 43.1871C50.0815 43.2071 50.0415 43.2371 50.0015 43.2571C49.8615 43.3471 49.7115 43.4271 49.5615 43.5071C49.4815 43.5571 49.3915 43.6071 49.3115 43.6471C49.2315 43.6971 49.1515 43.7371 49.0615 43.7771C48.9415 43.8471 48.8215 43.9071 48.7015 43.9671C48.5415 44.0471 48.3715 44.1271 48.2115 44.2071C48.0515 44.2771 47.8815 44.3571 47.7115 44.4271C47.5715 44.4871 47.4315 44.5471 47.2815 44.6071C47.1315 44.6671 46.9615 44.7271 46.8015 44.7871C46.7515 44.8071 46.7015 44.8271 46.6615 44.8471C46.6115 44.8471 46.5615 44.8771 46.5115 44.8871C46.4815 44.9071 46.4515 44.9171 46.4115 44.9271C46.3815 44.9371 46.3615 44.9471 46.3315 44.9571C46.3015 44.9671 46.2715 44.9771 46.2515 44.9871C46.1915 45.0071 46.1415 45.0171 46.0815 45.0371C46.0615 45.0471 46.0415 45.0571 46.0215 45.0571C46.0115 45.0671 46.0015 45.0671 46.0015 45.0671C45.9815 45.0771 45.9615 45.0771 45.9315 45.0871C45.7715 45.1371 45.6015 45.1871 45.4315 45.2371C45.2615 45.2771 45.1015 45.3271 44.9315 45.3671C44.9215 45.3671 44.9015 45.3771 44.8915 45.3771C44.8815 45.3771 44.8715 45.3871 44.8615 45.3871C44.7815 45.4071 44.7115 45.4171 44.6415 45.4371C44.5615 45.4571 44.4915 45.4771 44.4115 45.4871C44.3815 45.4971 44.3415 45.5071 44.3015 45.5171C44.1315 45.5471 43.9615 45.5771 43.7915 45.6171C43.6415 45.6471 43.4815 45.6671 43.3215 45.6971C43.2915 45.7071 43.2615 45.7071 43.2315 45.7071C43.2015 45.7171 43.1715 45.7171 43.1415 45.7271C43.0915 45.7271 43.0515 45.7371 43.0015 45.7471C42.9715 45.7571 42.9315 45.7571 42.8915 45.7571C42.8415 45.7671 42.8015 45.7771 42.7515 45.7771C42.7215 45.7771 42.6915 45.7771 42.6615 45.7771C42.6215 45.7871 42.5715 45.7871 42.5315 45.7971C42.4815 45.7971 42.4315 45.8071 42.3915 45.8071C42.2915 45.8171 42.1915 45.8371 42.0915 45.8371C42.0015 45.8371 41.9215 45.8571 41.8415 45.8671C41.7615 45.8671 41.6815 45.8771 41.6015 45.8771C41.5715 45.8871 41.5315 45.8871 41.4915 45.8871C41.4115 45.8971 41.3315 45.8971 41.2415 45.8971C41.1715 45.8971 41.1015 45.8971 41.0315 45.8971C40.9615 45.9071 40.8915 45.9071 40.8215 45.9071C40.7415 45.9071 40.6615 45.9071 40.5815 45.9171H40.0915C40.0115 45.9071 39.9315 45.9071 39.8515 45.9071C39.7215 45.9071 39.5915 45.8971 39.4615 45.8871H39.3715C39.2615 45.8871 39.1515 45.8771 39.0515 45.8671H38.9115C38.7515 45.8471 38.6015 45.8271 38.4415 45.8171H38.3915C38.3915 45.8171 38.3515 45.8071 38.3315 45.8071C38.3015 45.8071 38.2615 45.7971 38.2315 45.7971C38.1515 45.7871 38.0815 45.7771 38.0115 45.7671H38.0015C37.9215 45.7671 37.8415 45.7471 37.7615 45.7371C37.7415 45.7371 37.7315 45.7271 37.7115 45.7271C37.6515 45.7171 37.6015 45.7071 37.5415 45.7071C37.3615 45.6771 37.1815 45.6471 37.0015 45.6171C36.8915 45.5971 36.7815 45.5771 36.6715 45.5571C36.6615 45.5471 36.6515 45.5471 36.6415 45.5471C36.5815 45.5371 36.5215 45.5271 36.4715 45.5071C36.4115 45.4971 36.3515 45.4871 36.2915 45.4671C36.0815 45.4271 35.8815 45.3771 35.6815 45.3271C35.4915 45.2771 35.2915 45.2271 35.1015 45.1671C34.9515 45.1271 34.8115 45.0771 34.6715 45.0371C34.5215 44.9871 34.3815 44.9471 34.2415 44.8971C34.1415 44.8571 34.0315 44.8271 33.9415 44.7871C33.8015 44.7371 33.6615 44.6871 33.5315 44.6271C33.4915 44.6171 33.4515 44.6071 33.4215 44.5871C33.4015 44.5871 33.3915 44.5871 33.3815 44.5871C33.3715 44.5771 33.3615 44.5771 33.3515 44.5771C33.3215 44.5571 33.2815 44.5471 33.2515 44.5271C33.2215 44.5271 33.1815 44.5071 33.1515 44.4871C33.0215 44.4371 32.9015 44.3871 32.7815 44.3271C32.6415 44.2671 32.4915 44.1971 32.3415 44.1371L32.2815 44.1071C32.2815 44.1071 32.2415 44.0871 32.2315 44.0771C32.2215 44.0771 32.2115 44.0771 32.2115 44.0671C32.1715 44.0471 32.1215 44.0271 32.0815 44.0071C32.0215 43.9771 31.9715 43.9571 31.9115 43.9271H31.9015C31.8015 43.8771 31.7015 43.8271 31.6015 43.7671C31.4815 43.7071 31.3615 43.6471 31.2515 43.5771C31.1315 43.5171 31.0115 43.4471 30.9015 43.3871C30.7815 43.3171 30.6715 43.2471 30.5515 43.1771C30.4615 43.1271 30.3715 43.0671 30.2715 43.0071C30.2015 42.9571 30.1215 42.9071 30.0415 42.8571C29.9915 42.8271 29.9415 42.7871 29.8815 42.7471C29.7715 42.6771 29.6615 42.5971 29.5515 42.5271C29.3215 42.3571 29.0915 42.1971 28.8715 42.0171C28.7815 41.9471 28.6915 41.8771 28.6015 41.8071C28.5015 41.7271 28.4015 41.6471 28.3015 41.5671C28.3015 41.5571 28.2915 41.5571 28.2915 41.5571H28.2815C28.0915 41.3871 27.9015 41.2171 27.7115 41.0571C27.6915 41.0271 27.6615 41.0071 27.6315 40.9771C27.4615 40.8271 27.2915 40.6671 27.1315 40.4971C27.1115 40.4871 27.0915 40.4671 27.0715 40.4471L26.9815 40.3471C26.8115 40.1771 26.6415 40.0071 26.4815 39.8271C26.4515 39.7971 26.4215 39.7671 26.3915 39.7371C26.3315 39.6671 26.2615 39.5971 26.2015 39.5171C26.1415 39.4571 26.0815 39.3871 26.0215 39.3171C26.0015 39.2971 25.9915 39.2771 25.9715 39.2671C25.9215 39.1971 25.8715 39.1371 25.8115 39.0771C25.8015 39.0571 25.7815 39.0371 25.7715 39.0171C25.5715 38.7771 25.3815 38.5371 25.2015 38.2871C25.0915 38.1471 24.9915 37.9971 24.8915 37.8571C24.7915 37.7071 24.6915 37.5671 24.5915 37.4171C24.4915 37.2671 24.4015 37.1171 24.3115 36.9671C24.2315 36.8471 24.1615 36.7271 24.0915 36.6071C24.0315 36.5171 23.9815 36.4171 23.9315 36.3271C23.8815 36.2371 23.8215 36.1371 23.7715 36.0471C23.6915 35.8871 23.6115 35.7271 23.5215 35.5671C23.3715 35.2671 23.2215 34.9471 23.0915 34.6271C23.0415 34.5271 22.9915 34.4171 22.9515 34.3171C22.9115 34.2171 22.8615 34.1071 22.8215 34.0071C22.8215 33.9971 22.8115 33.9771 22.8115 33.9671C22.7015 33.6971 22.6015 33.4171 22.5015 33.1371C22.5015 33.1271 22.4915 33.1071 22.4915 33.0871C22.4315 32.9171 22.3815 32.7471 22.3315 32.5771C22.3215 32.5571 22.3115 32.5371 22.3115 32.5171C22.2715 32.3971 22.2415 32.2771 22.2015 32.1571C22.1915 32.1271 22.1815 32.0871 22.1715 32.0471C22.1315 31.9071 22.1015 31.7471 22.0615 31.5971C22.0515 31.5571 22.0415 31.5171 22.0315 31.4771C21.9915 31.3171 21.9515 31.1471 21.9215 30.9871C21.9115 30.9571 21.9115 30.9271 21.9015 30.8971C21.8815 30.8271 21.8715 30.7471 21.8615 30.6671C21.8515 30.6271 21.8415 30.5771 21.8315 30.5271C21.8215 30.4971 21.8215 30.4671 21.8115 30.4471C21.7815 30.2471 21.7415 30.0571 21.7215 29.8571C21.7015 29.7371 21.6815 29.6171 21.6715 29.4971C21.6615 29.4171 21.6515 29.3371 21.6415 29.2671C21.6315 29.1371 21.6115 29.0171 21.6015 28.8871C21.5915 28.8171 21.5915 28.7471 21.5815 28.6771C21.5715 28.6071 21.5715 28.5371 21.5615 28.4671C21.5615 28.3971 21.5615 28.3371 21.5515 28.2671C21.5515 28.2071 21.5415 28.1371 21.5415 28.0771V28.0571C21.5315 27.9071 21.5315 27.7471 21.5215 27.5871V9.81711H28.9015V19.2371H28.9115V29.4371C28.9115 30.3471 29.2815 31.1771 29.8715 31.7671C29.9515 31.8471 30.0315 31.9171 30.1215 31.9971C30.2115 32.0671 30.3015 32.1371 30.4115 32.1971C30.8415 32.4871 31.3615 32.6771 31.9115 32.7271C32.0115 32.7371 32.1015 32.7371 32.2115 32.7371H34.2515C34.3815 32.7471 34.5215 32.7571 34.6615 32.7571C38.6215 32.7171 42.5815 32.7471 46.5415 32.7471C48.2415 32.7371 49.5415 31.6971 49.8815 30.0471C50.3315 27.8571 50.7615 25.6571 51.2015 23.4671C51.2615 23.1571 51.3215 22.8471 51.3815 22.5371C51.5015 21.9471 51.6315 21.3571 51.7515 20.7671C51.7715 20.6671 51.7815 20.5671 51.7815 20.4671C51.7815 20.1771 51.7015 19.8771 51.5015 19.6571C51.2115 19.3371 50.7915 19.2171 50.2715 19.2271H48.6115C46.5415 19.2371 44.4915 19.2271 42.4315 19.2271C40.1215 19.2271 37.8115 19.2271 35.5015 19.2371C34.4415 19.2271 33.3915 19.2371 32.3315 19.2371C32.3015 19.2371 32.2815 19.2371 32.2515 19.2271L30.4115 19.2371V11.1471C30.9815 10.7771 31.5915 10.4471 32.2115 10.1471C32.2215 10.1471 32.2415 10.1371 32.2515 10.1271C33.5315 9.51711 34.8915 9.04711 36.3115 8.72711C36.5115 8.68711 36.7115 8.64711 36.9215 8.60711C37.0215 8.58711 37.1215 8.56711 37.2215 8.55711C37.3915 8.52711 37.5515 8.49711 37.7215 8.47711C37.9815 8.43711 38.2415 8.40711 38.5015 8.37711C38.6415 8.36711 38.7815 8.35711 38.9215 8.34711H38.9715C39.0415 8.33711 39.1015 8.32711 39.1715 8.32711C39.2415 8.32711 39.3015 8.31711 39.3715 8.31711H39.4015C39.4815 8.31711 39.5515 8.30711 39.6215 8.30711C39.7115 8.30711 39.7915 8.30711 39.8815 8.29711C40.0415 8.28711 40.3115 8.28711 40.4715 8.28711C40.5315 8.28711 40.5915 8.29711 40.6615 8.29711C40.7415 8.29711 40.8315 8.29711 40.9115 8.30711H41.1915C41.3015 8.31711 41.4115 8.31711 41.5215 8.32711H41.5415C41.6015 8.32711 41.6615 8.33711 41.7215 8.33711C41.7415 8.34711 41.7615 8.34711 41.7815 8.34711H41.8115C41.9315 8.34711 42.0515 8.36711 42.1815 8.37711C42.2415 8.38711 42.2915 8.39711 42.3515 8.39711C42.4015 8.40711 42.4515 8.40711 42.5015 8.41711C42.5815 8.41711 42.6615 8.43711 42.7315 8.44711C42.7915 8.44711 42.8415 8.45711 42.8915 8.46711H42.9215C42.9215 8.46711 42.9515 8.46711 42.9715 8.46711C43.0115 8.46711 43.0515 8.47711 43.0815 8.47711C43.1215 8.48711 43.1615 8.48711 43.2015 8.49711C43.3415 8.51711 43.4715 8.53711 43.6015 8.56711C43.6315 8.56711 43.6615 8.57711 43.6915 8.57711C43.8415 8.60711 43.9815 8.63711 44.1315 8.66711C44.1615 8.66711 44.1915 8.67711 44.2315 8.68711C44.2515 8.68711 44.2715 8.69711 44.2915 8.69711C44.4815 8.73711 44.6815 8.78711 44.8715 8.83711C44.9715 8.85711 45.0815 8.88711 45.1815 8.90711C45.2815 8.93711 45.3815 8.96711 45.4915 8.99711C45.7915 9.08711 46.0815 9.16711 46.3715 9.26711C46.4615 9.29711 46.5515 9.33711 46.6415 9.36711C46.7015 9.38711 46.7515 9.40711 46.8115 9.42711C46.9215 9.46711 47.0215 9.50711 47.1315 9.54711C47.3315 9.62711 47.5315 9.70711 47.7315 9.79711C47.9215 9.87711 48.1115 9.95711 48.2915 10.0371C48.3015 10.0471 48.3215 10.0571 48.3315 10.0571C48.4215 10.0971 48.5115 10.1471 48.6015 10.1871C48.7015 10.2371 48.8015 10.2871 48.9015 10.3371C49.0915 10.4371 49.2715 10.5271 49.4515 10.6371C49.5715 10.6971 49.6915 10.7671 49.8015 10.8371C49.9015 10.8871 50.0015 10.9471 50.0915 11.0071C50.2215 11.0871 50.3515 11.1671 50.4815 11.2471C50.5115 11.2671 50.5415 11.2871 50.5715 11.3071H50.5815C50.5815 11.3071 50.6215 11.3371 50.6415 11.3571C50.7515 11.4171 50.8615 11.4971 50.9715 11.5671C50.9715 11.5771 50.9815 11.5771 50.9815 11.5771C51.0315 11.6171 51.0815 11.6471 51.1315 11.6871C51.2315 11.7571 51.3215 11.8171 51.4215 11.8871C51.4315 11.8971 51.4515 11.9171 51.4715 11.9271C51.5415 11.9771 51.6215 12.0371 51.7015 12.0971C51.7515 12.1371 51.8115 12.1871 51.8715 12.2271C51.9015 12.2571 51.9215 12.2771 51.9515 12.2971C52.0315 12.3471 52.1015 12.4071 52.1815 12.4771C52.2215 12.5071 52.2715 12.5471 52.3115 12.5771C52.3715 12.6371 52.4415 12.6871 52.5115 12.7471C52.5415 12.7771 52.5815 12.8071 52.6215 12.8371C52.6515 12.8671 52.6915 12.8971 52.7215 12.9271C52.7915 12.9871 52.8515 13.0471 52.9115 13.1071C52.9715 13.1471 53.0215 13.1971 53.0815 13.2471C53.1315 13.2971 53.1915 13.3471 53.2415 13.3971C53.2515 13.3971 53.2615 13.4171 53.2715 13.4271C53.2915 13.4471 53.3015 13.4671 53.3215 13.4771C53.4315 13.5871 53.5415 13.6871 53.6415 13.7971L53.7015 13.8571C53.8215 13.9671 53.9215 14.0771 54.0415 14.1971C54.0715 14.2271 54.0915 14.2571 54.1215 14.2871C54.2215 14.3971 54.3215 14.5071 54.4115 14.6071H54.4215C54.5015 14.7071 54.5815 14.8071 54.6615 14.8971C54.7115 14.9471 54.7515 14.9971 54.8015 15.0571C54.8115 15.0771 54.8315 15.0971 54.8515 15.1171C54.9915 15.2871 55.1315 15.4571 55.2615 15.6371C55.3915 15.7971 55.5115 15.9571 55.6315 16.1271C55.6515 16.1571 55.6615 16.1771 55.6815 16.2071C55.8015 16.3671 55.9015 16.5171 56.0115 16.6771C56.0415 16.7271 56.0815 16.7871 56.1115 16.8371C56.2215 17.0071 56.3315 17.1671 56.4315 17.3471C56.5615 17.5571 56.6815 17.7671 56.8115 17.9871C56.8315 18.0271 56.8615 18.0771 56.8815 18.1271C56.9815 18.3071 57.0815 18.4871 57.1715 18.6671C57.2115 18.7571 57.2615 18.8471 57.3015 18.9471C57.4315 19.2171 57.5615 19.4871 57.6815 19.7771C57.7415 19.9171 57.7915 20.0571 57.8515 20.1971C57.9115 20.3371 57.9615 20.4871 58.0215 20.6271C58.0715 20.7771 58.1215 20.9171 58.1715 21.0671C58.2715 21.3571 58.3615 21.6571 58.4415 21.9471C58.4915 22.0971 58.5215 22.2471 58.5615 22.3971C58.6015 22.5371 58.6315 22.6671 58.6615 22.8071C58.7315 23.0771 58.7815 23.3471 58.8315 23.6271C58.8615 23.7471 58.8815 23.8671 58.9015 23.9871V24.0271C58.9215 24.1471 58.9415 24.2671 58.9615 24.3771C58.9815 24.5071 59.0015 24.6371 59.0115 24.7671C59.0415 24.9771 59.0615 25.1871 59.0815 25.4071C59.1015 25.5771 59.1115 25.7471 59.1215 25.9271C59.1315 26.0471 59.1415 26.1771 59.1415 26.3171C59.1415 26.4171 59.1415 26.5271 59.1415 26.6371C59.1415 26.7871 59.1515 26.9471 59.1515 27.0971L59.1415 27.1071Z" fill="#404553"/>
<path d="M84.2004 16.1562L75.0804 43.1062H69.8004L72.5004 35.1363L65.1504 16.1562H70.4204L74.9604 28.2863L78.8904 16.1562H84.2004Z" fill="#404553"/>
<path d="M95.2498 15.6172C89.5898 15.6172 85.0898 20.0472 85.0898 25.7772C85.0898 31.5072 89.5898 35.9472 95.2498 35.9472C100.91 35.9472 105.45 31.5172 105.45 25.7772C105.45 20.0372 100.91 15.6172 95.2498 15.6172ZM95.2498 31.0972C92.3198 31.0972 90.0499 28.8972 90.0499 25.7772C90.0499 22.6572 92.3198 20.4672 95.2498 20.4672C98.1798 20.4672 100.49 22.6572 100.49 25.7772C100.49 28.8972 98.2098 31.0972 95.2498 31.0972Z" fill="#404553"/>
<path d="M124.931 16.1562V35.4063H119.971V33.4063C118.891 35.0563 117.121 35.9462 114.731 35.9462C111.151 35.9462 108.461 33.1663 108.461 28.4363V16.1562H113.421V28.0863C113.421 30.2863 114.731 31.3263 116.461 31.3263C118.431 31.3263 119.971 30.2063 119.971 27.2763V16.1562H124.931Z" fill="#404553"/>
<path d="M139.72 15.7676V21.3176C137.14 21.0076 134.44 22.1576 134.44 25.8976V35.4076H129.48V16.1576H134.44V19.0476C135.41 16.7776 137.37 15.7676 139.72 15.7676Z" fill="#404553"/>
<path d="M153.651 15.617C150.841 15.617 148.771 16.697 147.421 18.427V8.45703H142.451V35.407H147.421V33.137C148.771 34.867 150.841 35.947 153.651 35.947C158.811 35.947 163.051 31.517 163.051 25.777C163.051 20.037 158.811 15.617 153.651 15.617ZM152.731 31.207C149.691 31.207 147.421 29.017 147.421 25.777C147.421 22.537 149.691 20.347 152.731 20.347C155.771 20.347 158.081 22.547 158.081 25.777C158.081 29.007 155.811 31.207 152.731 31.207Z" fill="#404553"/>
<path d="M173.831 15.6172C169.591 15.6172 166.011 18.1572 166.011 22.6972H170.861C170.861 21.1972 172.021 20.2372 173.831 20.2372C175.641 20.2372 176.831 21.1972 176.831 23.4672V25.5072C175.711 24.5472 174.021 23.8172 171.601 23.8172C168.171 23.8172 165.131 25.8172 165.131 29.8572C165.131 33.8972 168.171 35.9472 171.601 35.9472C174.021 35.9472 175.711 35.0972 176.831 33.7472V35.4072H181.681V23.1572C181.681 18.1572 178.101 15.6172 173.831 15.6172ZM173.291 32.2472C171.091 32.2472 170.091 31.2472 170.091 29.8572C170.091 28.4672 171.091 27.4772 173.291 27.4772C175.491 27.4772 176.831 28.3972 176.831 29.8572C176.831 31.3172 175.481 32.2472 173.291 32.2472Z" fill="#404553"/>
<path d="M200.47 29.8172C200.47 33.9072 196.93 35.9472 192.69 35.9472C188.45 35.9472 184.92 33.7872 184.92 29.2872H189.77C189.77 30.7872 190.88 31.5572 192.69 31.5572C194.5 31.5572 195.5 30.9372 195.5 29.8172C195.5 26.5072 185.15 29.1272 185.15 21.7372C185.15 17.6972 188.69 15.6172 192.69 15.6172C196.69 15.6172 200.08 17.7772 200.08 22.2772H195.23C195.23 20.7772 194.12 20.0072 192.69 20.0072C191.11 20.0072 190.11 20.6172 190.11 21.7372C190.11 25.0872 200.47 22.3972 200.47 29.8172Z" fill="#404553"/>
<path d="M221.641 35.407H215.911L209.171 26.707V35.407H204.211V8.45703H209.171V24.627L215.521 16.157H221.261L213.941 25.667L221.641 35.407Z" fill="#404553"/>
<path d="M241.661 25.7772C241.661 20.1172 237.731 15.6172 232.081 15.6172C225.991 15.6172 221.871 20.0472 221.871 25.7772C221.871 31.5072 225.921 35.9472 232.191 35.9472C236.501 35.9472 239.891 33.7472 241.081 29.8572L236.201 29.8972C235.541 30.9772 234.001 31.8272 232.231 31.8272C229.771 31.8272 227.691 30.5572 227.031 27.8172H241.471C241.621 27.1672 241.661 26.5072 241.661 25.7772ZM227.001 23.9272C227.611 21.5072 229.381 20.0872 232.041 20.0872C234.121 20.0872 236.121 21.1572 236.701 23.9272H227.001Z" fill="#404553"/>
<path d="M254.831 16.1561V20.9261H251.521V35.4061H246.551V20.9261H243.211V16.1561H246.551V9.99609H251.521V16.1561H254.831Z" fill="#404553"/>
</g>
<defs>
<clipPath id="clip0_2_12381">
<rect width="274" height="51" fill="white" transform="translate(0 0.0976562)"/>
</clipPath>
</defs>
</svg>
