<svg width="1385" height="306" viewBox="0 0 1385 306" fill="none" xmlns="http://www.w3.org/2000/svg">
<g clip-path="url(#clip0_1050_83737)">
<path d="M1344.45 0.919922H114.088L52.2676 153.276L114.088 305.692H1344.45C1366.7 305.692 1384.73 287.715 1384.73 265.467V41.2041C1384.73 18.9559 1366.7 0.919922 1344.45 0.919922ZM656.412 102.55L634.342 122.069L615.653 138.563L597.914 122.069L576.912 102.55H656.412ZM426.395 121.179C427.641 116.73 429.717 113.111 432.743 110.381C435.709 107.652 439.684 105.695 444.609 104.449C449.592 103.203 455.822 102.55 463.238 102.55H544.34L566.292 122.069H534.076L463.238 121.773C461.399 121.773 459.737 121.891 458.314 122.069H426.157C426.217 121.773 426.335 121.476 426.395 121.179ZM132.243 33.7287H192.521V48.5609H132.243V33.7287ZM371.99 164.015C371.99 164.727 371.931 165.439 371.931 166.151C371.872 166.803 371.872 167.396 371.812 167.99C371.753 168.82 371.694 169.651 371.634 170.541C371.516 171.905 371.397 173.27 371.219 174.635C371.219 175.406 371.041 176.118 370.922 176.83C370.804 177.601 370.744 178.313 370.626 179.025L370.27 181.161C370.27 181.161 370.21 181.457 370.151 181.635C370.032 182.347 369.914 183.059 369.736 183.712C369.736 183.949 369.736 184.246 369.617 184.483C369.558 184.72 369.498 184.958 369.439 185.254C369.32 185.67 369.202 186.144 369.142 186.619C369.083 186.619 369.083 186.678 369.083 186.678C369.083 186.797 369.024 186.975 369.024 187.094C368.964 187.153 368.964 187.212 368.964 187.272C368.905 187.39 368.905 187.509 368.905 187.628C368.727 188.339 368.49 189.111 368.312 189.823C368.312 189.941 368.253 190.001 368.253 190.06C368.015 190.95 367.778 191.84 367.481 192.73C367.422 193.145 367.303 193.442 367.185 193.679C367.007 194.332 366.829 194.925 366.591 195.518C366.473 195.993 366.354 196.467 366.176 196.883C366.057 197.357 365.879 197.773 365.701 198.247V198.366C365.405 199.078 365.167 199.731 364.93 200.443C364.871 200.621 364.811 200.739 364.752 200.917C364.693 201.036 364.693 201.154 364.633 201.273C364.337 201.926 364.1 202.578 363.862 203.231C363.803 203.231 363.744 203.409 363.684 203.528C363.388 204.418 363.032 205.248 362.616 206.138C362.201 206.969 361.845 207.859 361.43 208.689C361.311 209.045 361.133 209.342 360.955 209.698C360.718 210.232 360.48 210.706 360.243 211.24C360.006 211.656 359.828 212.071 359.591 212.486C359.353 212.902 359.175 213.258 358.938 213.673C358.463 214.503 357.989 215.334 357.573 216.165C355.734 219.428 353.717 222.572 351.581 225.598C350.988 226.488 350.335 227.318 349.683 228.208C349.267 228.742 348.911 229.217 348.496 229.692C347.665 230.819 346.776 231.946 345.826 233.014C345.648 233.251 345.47 233.489 345.292 233.667C344.758 234.26 344.284 234.853 343.809 235.387C343.572 235.684 343.275 235.98 343.038 236.277C343.038 236.277 342.919 236.396 342.86 236.396C342.029 237.345 341.139 238.235 340.309 239.125C340.071 239.303 339.893 239.54 339.715 239.659C338.944 240.489 338.173 241.261 337.402 241.973L337.224 242.151C337.224 242.151 337.046 242.269 337.046 242.329C336.512 242.863 335.978 243.337 335.444 243.812C335.028 244.227 334.613 244.583 334.198 244.939C333.664 245.414 333.071 245.888 332.477 246.422C332.24 246.6 332.062 246.778 331.825 246.956C331.291 247.431 330.697 247.846 330.163 248.321C330.045 248.38 329.985 248.499 329.867 248.558C329.689 248.677 329.511 248.855 329.392 248.973C329.333 248.973 329.274 249.033 329.214 249.092C329.155 249.151 329.096 249.151 329.036 249.211L328.858 249.389C328.502 249.567 328.265 249.804 327.968 250.041C326.722 250.991 325.477 251.881 324.171 252.77C323.697 253.126 323.222 253.423 322.747 253.779C322.035 254.254 321.323 254.728 320.612 255.203C319.9 255.618 319.128 256.093 318.416 256.568C318.179 256.686 317.942 256.864 317.704 256.983C316.874 257.517 315.984 257.991 315.094 258.466C314.619 258.763 314.085 259.059 313.611 259.297C313.136 259.593 312.661 259.831 312.128 260.068C311.416 260.483 310.704 260.839 309.992 261.195C309.042 261.67 308.034 262.144 307.085 262.619C306.135 263.034 305.127 263.509 304.118 263.924C303.288 264.28 302.457 264.636 301.567 264.992C300.677 265.348 299.668 265.704 298.719 266.06C298.423 266.179 298.126 266.297 297.889 266.416C297.592 266.475 297.295 266.594 296.999 266.653C296.821 266.772 296.643 266.831 296.405 266.891C296.227 266.95 296.109 267.009 295.931 267.069C295.753 267.128 295.575 267.187 295.456 267.247C295.1 267.365 294.804 267.425 294.448 267.543C294.329 267.603 294.21 267.662 294.092 267.662C294.092 267.721 293.973 267.721 293.973 267.721C293.854 267.781 293.736 267.781 293.558 267.84C292.608 268.137 291.6 268.433 290.591 268.73C289.82 268.908 289.049 269.145 288.277 269.383H288.159C288.159 269.383 287.803 269.442 287.625 269.501C287.565 269.501 287.447 269.561 287.387 269.561C287.328 269.561 287.269 269.62 287.209 269.62C286.735 269.739 286.32 269.798 285.904 269.917C285.43 270.035 285.014 270.154 284.54 270.213C284.362 270.272 284.124 270.332 283.887 270.391C282.878 270.569 281.87 270.747 280.861 270.984C279.971 271.162 279.022 271.281 278.073 271.459C277.895 271.459 277.717 271.459 277.539 271.459C277.361 271.518 277.183 271.518 277.005 271.578C276.708 271.578 276.471 271.637 276.174 271.696C275.996 271.756 275.759 271.756 275.522 271.756C275.225 271.815 274.988 271.874 274.691 271.874C274.513 271.874 274.335 271.934 274.157 271.934C273.92 271.993 273.623 271.993 273.386 272.052C273.089 272.052 272.793 272.112 272.555 272.112C271.962 272.171 271.369 272.29 270.775 272.29C270.241 272.349 269.767 272.408 269.292 272.468C268.818 272.468 268.343 272.527 267.868 272.527C267.69 272.527 267.453 272.527 267.216 272.527C266.741 272.586 266.266 272.586 265.732 272.586C265.317 272.646 264.902 272.646 264.487 272.646C264.071 272.705 263.656 272.705 263.241 272.705C262.766 272.705 262.291 272.705 261.817 272.764H258.91C258.435 272.705 257.96 272.705 257.486 272.705C256.714 272.705 255.943 272.646 255.172 272.586H254.638C253.985 272.586 253.333 272.527 252.739 272.468H251.909C250.96 272.349 250.07 272.23 249.12 272.171H248.824C248.824 272.171 248.586 272.171 248.468 272.171C248.29 272.171 248.052 272.112 247.874 272.112C247.4 272.052 246.985 271.993 246.569 271.934H246.51C246.035 271.874 245.561 271.815 245.086 271.756C244.967 271.756 244.908 271.696 244.789 271.696C244.433 271.637 244.137 271.578 243.781 271.578C242.713 271.4 241.645 271.222 240.577 271.044C239.924 270.925 239.272 270.806 238.619 270.688C238.56 270.628 238.501 270.628 238.441 270.628C238.085 270.569 237.729 270.51 237.433 270.391C237.077 270.391 236.721 270.272 236.365 270.154C235.119 269.917 233.932 269.62 232.746 269.323C231.618 269.027 230.432 268.73 229.305 268.374C228.415 268.137 227.584 267.84 226.753 267.603C225.864 267.306 225.033 267.069 224.202 266.772C223.609 266.535 222.956 266.357 222.422 266.119C221.592 265.823 220.761 265.526 219.99 265.17C219.753 265.17 219.515 265.052 219.337 264.933C219.219 264.874 219.159 264.874 219.1 264.874C219.041 264.814 218.981 264.814 218.922 264.814C218.744 264.696 218.507 264.636 218.329 264.518C218.151 264.458 217.913 264.399 217.735 264.28C216.964 263.984 216.252 263.687 215.54 263.331C214.71 262.975 213.82 262.56 212.93 262.204L212.574 262.026C212.574 262.026 212.337 261.907 212.277 261.848C212.218 261.848 212.159 261.848 212.159 261.848C211.921 261.729 211.625 261.61 211.387 261.492C211.031 261.314 210.735 261.195 210.379 261.017H210.319C209.726 260.721 209.133 260.424 208.54 260.068C207.828 259.712 207.116 259.356 206.463 258.941C205.751 258.585 205.039 258.169 204.387 257.813C203.675 257.398 203.022 256.983 202.31 256.568C201.776 256.271 201.242 255.915 200.649 255.559C200.233 255.262 199.759 254.966 199.284 254.669C198.988 254.491 198.691 254.254 198.335 254.016C197.682 253.601 197.03 253.126 196.377 252.711C195.013 251.703 193.648 250.753 192.343 249.685C191.809 249.27 191.275 248.855 190.741 248.439C190.148 247.965 189.554 247.49 188.961 247.016C188.961 246.956 188.902 246.956 188.902 246.956H188.842C187.715 245.948 186.588 244.939 185.461 243.99C185.342 243.812 185.164 243.693 184.986 243.515C183.977 242.625 182.969 241.676 182.02 240.667C181.901 240.608 181.782 240.489 181.664 240.371L181.13 239.777C180.121 238.769 179.112 237.76 178.163 236.692C177.985 236.514 177.807 236.336 177.629 236.158C177.273 235.743 176.858 235.328 176.502 234.853C176.146 234.497 175.79 234.082 175.434 233.667C175.315 233.548 175.256 233.429 175.137 233.37C174.841 232.955 174.544 232.599 174.188 232.243C174.129 232.124 174.01 232.005 173.951 231.887C172.764 230.463 171.637 229.039 170.569 227.556C169.916 226.725 169.323 225.835 168.73 225.005C168.137 224.115 167.543 223.284 166.95 222.394C166.357 221.504 165.823 220.614 165.289 219.724C164.814 219.012 164.399 218.3 163.984 217.589C163.628 217.055 163.331 216.461 163.034 215.927C162.738 215.393 162.382 214.8 162.085 214.266C161.61 213.317 161.136 212.368 160.602 211.418C159.712 209.638 158.822 207.74 158.051 205.841C157.754 205.248 157.457 204.596 157.22 204.002C156.983 203.409 156.686 202.756 156.449 202.163C156.449 202.104 156.39 201.985 156.39 201.926C155.737 200.324 155.144 198.663 154.55 197.001C154.55 197.001 154.491 196.823 154.491 196.705C154.135 195.696 153.838 194.688 153.542 193.679C153.542 193.56 153.423 193.442 153.423 193.323C153.186 192.611 153.008 191.899 152.77 191.187C152.711 191.009 152.652 190.772 152.593 190.535C152.355 189.704 152.177 188.755 151.94 187.865C151.881 187.628 151.821 187.39 151.762 187.153C151.525 186.204 151.287 185.195 151.109 184.246C151.05 184.068 151.05 183.89 150.991 183.712C150.872 183.297 150.813 182.822 150.753 182.347C150.694 182.11 150.635 181.813 150.575 181.517C150.575 181.339 150.575 181.161 150.457 181.042C150.279 179.855 150.041 178.728 149.923 177.542C149.804 176.83 149.685 176.118 149.626 175.406C149.567 174.931 149.507 174.457 149.448 174.041C149.389 173.27 149.27 172.558 149.211 171.787C149.151 171.371 149.151 170.956 149.092 170.541C149.092 170.126 149.092 169.71 148.973 169.295C148.973 168.88 148.973 168.524 148.914 168.108C148.914 167.752 148.855 167.337 148.855 166.981V166.862C148.795 165.973 148.795 165.023 148.736 164.074V58.5875H192.521V114.475H192.58V174.99C192.58 180.389 194.775 185.314 198.276 188.814C198.75 189.289 199.225 189.704 199.759 190.179C200.293 190.594 200.827 191.009 201.479 191.365C203.734 192.908 206.463 193.976 209.311 194.332C209.667 194.45 210.023 194.45 210.379 194.51C210.972 194.569 211.506 194.569 212.159 194.569H224.262C225.033 194.628 225.864 194.688 226.694 194.688C240.34 194.569 254.045 194.569 267.69 194.569C271.962 194.569 276.234 194.628 280.505 194.628H297.236C307.322 194.569 314.975 188.399 316.992 178.61C319.662 165.617 322.213 152.564 324.824 139.571L325.892 134.054C326.604 130.553 327.375 127.053 328.087 123.552C328.206 122.959 328.265 122.366 328.265 121.773C328.265 120.052 327.79 118.272 326.604 116.967C325.002 115.187 322.688 114.475 319.9 114.416H309.458C297.177 114.475 285.014 114.416 272.793 114.416H257.011C254.045 114.416 251.078 114.416 248.112 114.475C242.654 114.416 237.195 114.475 231.737 114.475C225.448 114.416 219.219 114.475 212.93 114.475C212.752 114.475 212.633 114.475 212.455 114.416L201.539 114.475V66.4782C202.429 65.8849 203.378 65.2916 204.327 64.817C206.878 63.2151 209.548 61.8506 212.218 60.5453C212.277 60.5453 212.396 60.5453 212.455 60.4267C213.82 59.774 215.184 59.1214 216.608 58.5875C222.956 55.8584 229.661 53.6632 236.543 52.1206C237.729 51.8833 238.916 51.646 240.162 51.4087C240.755 51.29 241.348 51.1714 241.942 51.112C242.95 50.9341 243.899 50.7561 244.908 50.6374C246.451 50.4001 247.993 50.2221 249.536 50.0441L252.027 49.8661H252.324C252.739 49.8068 253.095 49.7475 253.511 49.7475C253.926 49.7475 254.282 49.6882 254.697 49.6882H254.875C255.35 49.6882 255.765 49.6288 256.181 49.6288C256.714 49.6288 257.189 49.6288 257.723 49.5695C258.672 49.5102 260.274 49.5102 261.223 49.5102C261.579 49.5102 261.935 49.5695 262.351 49.5695C262.825 49.5695 263.359 49.5695 263.834 49.6288H265.495C266.148 49.6882 266.8 49.6882 267.453 49.7475H267.572C267.928 49.7475 268.284 49.7475 268.64 49.7475C268.758 49.8068 268.877 49.8068 268.996 49.8068H269.173C269.885 49.8661 270.597 49.9255 271.369 49.9848C271.725 50.0441 272.021 50.1035 272.377 50.1035C272.674 50.1628 272.971 50.1628 273.267 50.2221C273.742 50.2221 274.216 50.3408 274.632 50.4001C274.988 50.4001 275.284 50.4001 275.581 50.5188H275.759C275.759 50.5188 275.937 50.5188 276.056 50.5781C276.293 50.5781 276.53 50.6374 276.708 50.6374C276.946 50.6968 277.183 50.6967 277.42 50.7561C278.251 50.8747 279.022 50.9934 279.793 51.1714C279.971 51.1714 280.149 51.1714 280.327 51.1714C281.217 51.3494 282.048 51.5274 282.938 51.7053C283.116 51.7053 283.294 51.7647 283.531 51.824C283.65 51.824 283.768 51.824 283.887 51.824C285.014 52.0613 286.201 52.358 287.328 52.6546C287.684 52.7139 288.04 52.8326 288.396 52.8919C288.633 52.8919 288.93 53.0106 289.167 53.0699C289.761 53.2479 290.354 53.4259 291.006 53.6039C292.786 54.1378 294.507 54.6124 296.227 55.2057C296.761 55.3837 297.295 55.621 297.829 55.799C298.185 55.9177 298.482 56.0363 298.838 56.155C299.49 56.3923 300.084 56.6296 300.736 56.8669C301.923 57.3416 303.11 57.8162 304.296 58.3502C305.423 58.8248 306.551 59.2994 307.619 59.774C307.678 59.8334 307.797 59.8927 307.856 59.8927C308.39 60.13 308.924 60.4267 309.458 60.664C310.051 60.9606 310.644 61.2573 311.238 61.5539C312.365 62.1472 313.433 62.6812 314.501 63.3338C315.213 63.6898 315.925 64.105 316.577 64.5204C317.17 64.817 317.764 65.173 318.298 65.5289L320.612 66.9528C320.612 66.9528 320.967 67.1901 321.146 67.3088C321.146 67.3088 321.383 67.4868 321.501 67.6054C322.154 67.9614 322.807 68.436 323.459 68.8513H323.519C323.815 69.0887 324.112 69.2667 324.409 69.504C325.002 69.9193 325.536 70.2752 326.129 70.6905C326.188 70.7499 326.307 70.8685 326.426 70.9279C326.841 71.2245 327.316 71.5805 327.79 71.9364C328.087 72.1738 328.443 72.4704 328.799 72.7077C328.977 72.8857 329.096 73.0044 329.274 73.123C329.748 73.4197 330.163 73.7756 330.638 74.1909C330.875 74.3689 331.172 74.6062 331.409 74.7842C331.765 75.1402 332.181 75.4368 332.596 75.7928C332.774 75.9708 333.011 76.1488 333.249 76.3268C333.427 76.5048 333.664 76.6827 333.842 76.8607C334.257 77.2167 334.613 77.5727 334.969 77.9286C335.325 78.166 335.622 78.4626 335.978 78.7592C336.274 79.0559 336.63 79.3525 336.927 79.6492L337.105 79.8272C337.105 79.8272 337.283 80.0645 337.402 80.1238C338.054 80.7764 338.707 81.3697 339.3 82.0223L339.656 82.3783C340.368 83.0309 340.961 83.6835 341.673 84.3955C341.851 84.5735 341.97 84.7515 342.148 84.9294C342.741 85.5821 343.334 86.2347 343.868 86.828H343.928C344.402 87.4212 344.877 88.0145 345.352 88.5485C345.648 88.8451 345.886 89.1418 346.182 89.4978C346.242 89.6164 346.36 89.7351 346.479 89.8537C347.309 90.8623 348.14 91.8709 348.911 92.9388C349.683 93.8881 350.395 94.8373 351.107 95.8459C351.225 96.0239 351.284 96.1426 351.403 96.3206C352.115 97.2698 352.708 98.1598 353.361 99.109C353.539 99.4057 353.776 99.7616 353.954 100.058C354.607 101.067 355.26 102.016 355.853 103.084C356.624 104.33 357.336 105.576 358.107 106.881C358.226 107.118 358.404 107.415 358.523 107.712C359.116 108.78 359.709 109.848 360.243 110.915C360.48 111.449 360.777 111.983 361.014 112.577C361.252 113.111 361.548 113.645 361.786 114.179C362.26 115.246 362.794 116.374 363.269 117.501C363.625 118.332 363.922 119.162 364.277 119.993C364.633 120.823 364.93 121.713 365.286 122.544C365.583 123.434 365.879 124.264 366.176 125.154C366.769 126.875 367.303 128.655 367.778 130.375C368.075 131.265 368.253 132.155 368.49 133.045C368.727 133.876 368.905 134.647 369.083 135.478C369.498 137.079 369.795 138.681 370.092 140.342C370.27 141.054 370.388 141.766 370.507 142.478V142.716C370.626 143.428 370.744 144.14 370.863 144.792C370.982 145.563 371.1 146.335 371.16 147.106C371.338 148.352 371.456 149.598 371.575 150.903C371.694 151.912 371.753 152.92 371.812 153.988C371.872 154.7 371.931 155.471 371.931 156.302C371.931 156.895 371.99 157.548 371.99 158.2C371.99 159.09 372.05 160.04 372.05 160.93C372.05 161.879 371.99 162.828 371.99 163.777V164.015ZM424.556 144.258H591.21L599.397 151.556L587.532 162.235H424.556V144.258ZM541.077 204.062H463.238C455.822 204.062 449.592 203.468 444.609 202.222C439.684 200.976 435.709 199.019 432.743 196.29C429.717 193.56 427.641 189.941 426.395 185.551C426.335 185.314 426.276 185.136 426.217 184.898H562.376L541.077 204.062ZM572.64 204.062L593.227 184.898L614.289 165.261L635.469 184.898L656.116 204.062H572.64ZM818.202 144.08C818.202 150.132 817.609 155.175 816.422 159.15C815.235 163.125 813.159 166.269 810.252 168.642C807.285 171.015 803.429 172.677 798.564 173.626C793.699 174.575 787.529 175.05 780.113 175.05H721.437V204.062H689.043L668.278 184.898L643.775 162.235L632.028 151.378L640.097 144.258L665.134 122.069L687.204 102.55H780.113C787.351 102.55 793.402 103.143 798.267 104.271C803.132 105.398 807.048 107.296 810.014 109.966C812.981 112.577 815.117 115.958 816.363 120.111C817.549 124.324 818.202 129.367 818.202 135.3V144.08ZM914.018 204.062L854.689 167.159V204.062H832.203V102.55H911.645C918.823 102.55 924.934 103.025 929.977 103.915C935.02 104.805 939.173 106.406 942.377 108.661C945.64 110.975 947.954 114.06 949.496 118.035C950.98 122.01 951.692 127.053 951.692 133.104V140.105C951.692 145.919 950.92 150.784 949.318 154.581C947.716 158.438 945.284 161.464 941.962 163.659C938.639 165.913 934.427 167.456 929.384 168.346C924.341 169.236 918.289 169.71 911.348 169.71H893.49L953.056 204.062H914.018ZM1074.5 122.01L1003.66 121.773C1000.34 121.773 997.671 122.069 995.595 122.603C993.518 123.137 991.857 124.027 990.611 125.214C989.365 126.4 988.535 128.002 988.119 129.96C987.645 131.918 987.407 134.41 987.407 137.376V144.258H1073.91V162.235H987.407V169.414C987.407 172.499 987.645 174.99 988.119 177.008C988.535 178.966 989.365 180.567 990.552 181.754C991.738 182.941 993.4 183.771 995.536 184.186C997.671 184.661 1000.34 184.898 1003.66 184.898H1074.5V204.062H1003.66C996.188 204.062 990.018 203.468 985.034 202.222C980.051 200.976 976.135 199.019 973.109 196.29C970.143 193.56 968.066 189.941 966.82 185.551C965.575 181.161 964.922 175.702 964.922 169.236V137.376C964.922 131.028 965.575 125.629 966.82 121.179C968.066 116.73 970.143 113.111 973.109 110.381C976.135 107.652 980.051 105.695 985.034 104.449C990.018 103.203 996.188 102.55 1003.66 102.55H1074.5V122.01ZM1195.35 121.654L1117.04 121.773C1113.6 121.773 1111.05 122.425 1109.39 123.79C1107.73 125.095 1106.95 127.824 1106.95 131.918V135.181C1106.95 138.325 1107.67 140.58 1109.15 141.944C1110.63 143.25 1113.24 143.962 1116.92 143.962H1164.39C1170.02 143.962 1174.83 144.436 1178.74 145.385C1182.66 146.335 1185.86 147.818 1188.35 149.894C1190.85 151.971 1192.63 154.641 1193.69 157.963C1194.82 161.226 1195.35 165.142 1195.35 169.71V177.72C1195.35 182.525 1194.82 186.56 1193.69 189.882C1192.63 193.204 1190.85 195.874 1188.35 197.951C1185.86 200.087 1182.66 201.57 1178.74 202.578C1174.83 203.587 1170.02 204.062 1164.39 204.062H1086.07V184.898H1163.2C1167.23 184.898 1170.2 184.305 1171.98 183.178C1173.76 182.051 1174.65 179.737 1174.65 176.236V170.719C1174.65 167.574 1173.76 165.32 1171.98 163.955C1170.2 162.65 1167.29 161.938 1163.32 161.938H1114.96C1109.33 161.938 1104.64 161.464 1100.9 160.396C1097.17 159.328 1094.26 157.785 1092.06 155.649C1089.87 153.513 1088.33 150.844 1087.5 147.581C1086.66 144.377 1086.25 140.58 1086.25 136.189V131.147C1086.25 125.985 1086.78 121.595 1087.91 117.916C1088.98 114.238 1090.64 111.271 1092.95 109.076C1095.21 106.822 1098.17 105.161 1101.85 104.152C1105.53 103.084 1109.92 102.55 1114.96 102.55H1195.35V121.654ZM1315.73 121.654L1237.48 121.773C1233.98 121.773 1231.43 122.425 1229.77 123.79C1228.16 125.095 1227.33 127.824 1227.33 131.918V135.181C1227.33 138.325 1228.1 140.58 1229.59 141.944C1231.07 143.25 1233.62 143.962 1237.3 143.962H1284.76C1290.46 143.962 1295.21 144.436 1299.12 145.385C1303.1 146.335 1306.24 147.818 1308.73 149.894C1311.22 151.971 1313 154.641 1314.13 157.963C1315.2 161.226 1315.73 165.142 1315.73 169.71V177.72C1315.73 182.525 1315.2 186.56 1314.13 189.882C1313 193.204 1311.22 195.874 1308.73 197.951C1306.24 200.087 1303.1 201.57 1299.12 202.578C1295.21 203.587 1290.46 204.062 1284.76 204.062H1206.51V184.898H1283.58C1287.67 184.898 1290.58 184.305 1292.36 183.178C1294.14 182.051 1295.03 179.737 1295.03 176.236V170.719C1295.03 167.574 1294.14 165.32 1292.36 163.955C1290.58 162.65 1287.73 161.938 1283.75 161.938H1235.34C1229.71 161.938 1225.02 161.464 1221.28 160.396C1217.6 159.328 1214.64 157.785 1212.44 155.649C1210.25 153.513 1208.76 150.844 1207.93 147.581C1207.04 144.377 1206.63 140.58 1206.63 136.189V131.147C1206.63 125.985 1207.16 121.595 1208.29 117.916C1209.36 114.238 1211.08 111.271 1213.33 109.076C1215.65 106.822 1218.61 105.161 1222.29 104.152C1225.97 103.084 1230.3 102.55 1235.34 102.55H1315.73V121.654Z" fill="#FEEE00"/>
<path d="M114.088 305.688H19.7557C5.75414 305.688 -3.79779 291.509 1.48247 278.516L12.9329 250.275L52.2679 153.332L114.088 305.688Z" fill="#FFFAB3"/>
<path d="M114.088 0.919922L52.2679 153.276L12.6956 55.7397L1.48247 28.0925C-3.79779 15.0995 5.75414 0.919922 19.7557 0.919922H114.088Z" fill="#FFFAB3"/>
<path d="M192.52 33.7285H132.242V48.5607H192.52V33.7285Z" fill="black"/>
<path d="M372.052 161.168C372.052 162.118 371.992 163.067 371.992 164.016C371.992 164.728 371.933 165.44 371.933 166.152C371.874 166.805 371.874 167.398 371.814 167.991C371.755 168.822 371.696 169.652 371.636 170.542C371.518 171.907 371.399 173.272 371.221 174.636C371.221 175.407 371.043 176.119 370.924 176.831C370.806 177.603 370.747 178.314 370.628 179.026L370.272 181.162C370.272 181.162 370.213 181.459 370.153 181.637C370.035 182.349 369.916 183.061 369.738 183.713C369.738 183.951 369.738 184.247 369.619 184.485C369.56 184.722 369.501 184.959 369.441 185.256C369.323 185.671 369.204 186.146 369.145 186.62C369.085 186.62 369.085 186.68 369.085 186.68C369.085 186.798 369.026 186.976 369.026 187.095C368.967 187.154 368.967 187.214 368.967 187.273C368.907 187.392 368.907 187.51 368.907 187.629C368.729 188.341 368.492 189.112 368.314 189.824C368.314 189.943 368.255 190.002 368.255 190.062C368.017 190.951 367.78 191.841 367.483 192.731C367.424 193.147 367.305 193.443 367.187 193.681C367.009 194.333 366.831 194.927 366.594 195.52C366.475 195.994 366.356 196.469 366.178 196.884C366.06 197.359 365.882 197.774 365.704 198.249V198.368C365.407 199.08 365.17 199.732 364.932 200.444C364.873 200.622 364.814 200.741 364.754 200.919C364.695 201.037 364.695 201.156 364.636 201.275C364.339 201.927 364.102 202.58 363.864 203.233C363.805 203.233 363.746 203.411 363.686 203.529C363.39 204.419 363.034 205.25 362.618 206.14C362.203 206.97 361.847 207.86 361.432 208.691C361.313 209.047 361.135 209.343 360.957 209.699C360.72 210.233 360.483 210.708 360.245 211.242C360.008 211.657 359.83 212.073 359.593 212.488C359.355 212.903 359.177 213.259 358.94 213.674C358.465 214.505 357.991 215.336 357.576 216.166C355.736 219.429 353.719 222.574 351.583 225.599C350.99 226.489 350.337 227.32 349.685 228.21C349.269 228.744 348.914 229.219 348.498 229.693C347.668 230.82 346.778 231.948 345.828 233.016C345.65 233.253 345.472 233.49 345.294 233.668C344.761 234.261 344.286 234.855 343.811 235.389C343.574 235.685 343.277 235.982 343.04 236.279C343.04 236.279 342.921 236.397 342.862 236.397C342.031 237.347 341.141 238.237 340.311 239.126C340.074 239.304 339.896 239.542 339.718 239.66C338.946 240.491 338.175 241.262 337.404 241.974L337.226 242.152C337.226 242.152 337.048 242.271 337.048 242.33C336.514 242.864 335.98 243.339 335.446 243.813C335.031 244.229 334.615 244.585 334.2 244.941C333.666 245.415 333.073 245.89 332.479 246.424C332.242 246.602 332.064 246.78 331.827 246.958C331.293 247.432 330.7 247.848 330.166 248.322C330.047 248.382 329.988 248.5 329.869 248.56C329.691 248.678 329.513 248.856 329.394 248.975C329.335 248.975 329.276 249.034 329.216 249.094C329.157 249.153 329.098 249.153 329.038 249.212L328.86 249.39C328.504 249.568 328.267 249.806 327.97 250.043C326.725 250.992 325.479 251.882 324.173 252.772C323.699 253.128 323.224 253.425 322.75 253.781C322.038 254.255 321.326 254.73 320.614 255.205C319.902 255.62 319.13 256.094 318.419 256.569C318.181 256.688 317.944 256.866 317.707 256.984C316.876 257.518 315.986 257.993 315.096 258.468C314.622 258.764 314.088 259.061 313.613 259.298C313.138 259.595 312.664 259.832 312.13 260.07C311.418 260.485 310.706 260.841 309.994 261.197C309.045 261.671 308.036 262.146 307.087 262.621C306.137 263.036 305.129 263.511 304.12 263.926C303.29 264.282 302.459 264.638 301.569 264.994C300.679 265.35 299.671 265.706 298.721 266.062C298.425 266.18 298.128 266.299 297.891 266.418C297.594 266.477 297.298 266.596 297.001 266.655C296.823 266.774 296.645 266.833 296.408 266.892C296.23 266.952 296.111 267.011 295.933 267.07C295.755 267.13 295.577 267.189 295.458 267.248C295.102 267.367 294.806 267.426 294.45 267.545C294.331 267.604 294.212 267.664 294.094 267.664C294.094 267.723 293.975 267.723 293.975 267.723C293.856 267.782 293.738 267.782 293.56 267.842C292.611 268.138 291.602 268.435 290.593 268.731C289.822 268.909 289.051 269.147 288.28 269.384H288.161C288.161 269.384 287.805 269.443 287.627 269.503C287.568 269.503 287.449 269.562 287.39 269.562C287.33 269.562 287.271 269.621 287.212 269.621C286.737 269.74 286.322 269.799 285.906 269.918C285.432 270.037 285.016 270.155 284.542 270.215C284.364 270.274 284.127 270.333 283.889 270.393C282.881 270.571 281.872 270.749 280.863 270.986C279.974 271.164 279.024 271.283 278.075 271.461C277.897 271.461 277.719 271.461 277.541 271.461C277.363 271.52 277.185 271.52 277.007 271.579C276.71 271.579 276.473 271.639 276.176 271.698C275.998 271.757 275.761 271.757 275.524 271.757C275.227 271.817 274.99 271.876 274.693 271.876C274.515 271.876 274.337 271.935 274.159 271.935C273.922 271.995 273.625 271.995 273.388 272.054C273.091 272.054 272.795 272.113 272.557 272.113C271.964 272.173 271.371 272.291 270.778 272.291C270.244 272.351 269.769 272.41 269.294 272.469C268.82 272.469 268.345 272.529 267.87 272.529C267.692 272.529 267.455 272.529 267.218 272.529C266.743 272.588 266.269 272.588 265.735 272.588C265.319 272.647 264.904 272.647 264.489 272.647C264.073 272.707 263.658 272.707 263.243 272.707C262.768 272.707 262.294 272.707 261.819 272.766H258.912C258.437 272.707 257.963 272.707 257.488 272.707C256.717 272.707 255.945 272.647 255.174 272.588H254.64C253.987 272.588 253.335 272.529 252.742 272.469H251.911C250.962 272.351 250.072 272.232 249.123 272.173H248.826C248.826 272.173 248.589 272.173 248.47 272.173C248.292 272.173 248.055 272.113 247.877 272.113C247.402 272.054 246.987 271.995 246.571 271.935H246.512C246.037 271.876 245.563 271.817 245.088 271.757C244.97 271.757 244.91 271.698 244.792 271.698C244.436 271.639 244.139 271.579 243.783 271.579C242.715 271.401 241.647 271.223 240.579 271.045C239.927 270.927 239.274 270.808 238.621 270.689C238.562 270.63 238.503 270.63 238.443 270.63C238.087 270.571 237.731 270.511 237.435 270.393C237.079 270.393 236.723 270.274 236.367 270.155C235.121 269.918 233.934 269.621 232.748 269.325C231.621 269.028 230.434 268.732 229.307 268.376C228.417 268.138 227.586 267.842 226.756 267.604C225.866 267.308 225.035 267.07 224.204 266.774C223.611 266.536 222.959 266.358 222.425 266.121C221.594 265.824 220.763 265.528 219.992 265.172C219.755 265.172 219.518 265.053 219.34 264.934C219.221 264.875 219.162 264.875 219.102 264.875C219.043 264.816 218.984 264.816 218.924 264.816C218.746 264.697 218.509 264.638 218.331 264.519C218.153 264.46 217.916 264.4 217.738 264.282C216.966 263.985 216.254 263.689 215.542 263.333C214.712 262.977 213.822 262.561 212.932 262.205L212.576 262.027C212.576 262.027 212.339 261.909 212.279 261.849C212.22 261.849 212.161 261.849 212.161 261.849C211.923 261.731 211.627 261.612 211.389 261.493C211.033 261.315 210.737 261.197 210.381 261.019H210.322C209.728 260.722 209.135 260.425 208.542 260.07C207.83 259.714 207.118 259.358 206.465 258.942C205.753 258.586 205.041 258.171 204.389 257.815C203.677 257.4 203.024 256.984 202.312 256.569C201.778 256.272 201.244 255.916 200.651 255.561C200.236 255.264 199.761 254.967 199.286 254.671C198.99 254.493 198.693 254.255 198.337 254.018C197.685 253.603 197.032 253.128 196.379 252.713C195.015 251.704 193.65 250.755 192.345 249.687C191.811 249.272 191.277 248.856 190.743 248.441C190.15 247.966 189.556 247.492 188.963 247.017C188.963 246.958 188.904 246.958 188.904 246.958H188.845C187.717 245.949 186.59 244.941 185.463 243.991C185.344 243.813 185.166 243.695 184.988 243.517C183.98 242.627 182.971 241.678 182.022 240.669C181.903 240.61 181.784 240.491 181.666 240.372L181.132 239.779C180.123 238.77 179.115 237.762 178.165 236.694C177.987 236.516 177.809 236.338 177.631 236.16C177.275 235.745 176.86 235.329 176.504 234.855C176.148 234.499 175.792 234.083 175.436 233.668C175.318 233.55 175.258 233.431 175.14 233.372C174.843 232.956 174.546 232.6 174.19 232.244C174.131 232.126 174.012 232.007 173.953 231.888C172.766 230.464 171.639 229.041 170.571 227.557C169.919 226.727 169.325 225.837 168.732 225.006C168.139 224.116 167.545 223.286 166.952 222.396C166.359 221.506 165.825 220.616 165.291 219.726C164.816 219.014 164.401 218.302 163.986 217.59C163.63 217.056 163.333 216.463 163.037 215.929C162.74 215.395 162.384 214.802 162.087 214.268C161.613 213.318 161.138 212.369 160.604 211.42C159.714 209.64 158.824 207.742 158.053 205.843C157.756 205.25 157.46 204.597 157.222 204.004C156.985 203.411 156.688 202.758 156.451 202.165C156.451 202.105 156.392 201.987 156.392 201.927C155.739 200.325 155.146 198.664 154.552 197.003C154.552 197.003 154.493 196.825 154.493 196.706C154.137 195.698 153.841 194.689 153.544 193.681C153.544 193.562 153.425 193.443 153.425 193.325C153.188 192.613 153.01 191.901 152.773 191.189C152.713 191.011 152.654 190.773 152.595 190.536C152.357 189.706 152.179 188.756 151.942 187.866C151.883 187.629 151.823 187.392 151.764 187.154C151.527 186.205 151.289 185.197 151.111 184.247C151.052 184.069 151.052 183.891 150.993 183.713C150.874 183.298 150.815 182.823 150.755 182.349C150.696 182.111 150.637 181.815 150.577 181.518C150.577 181.34 150.577 181.162 150.459 181.044C150.281 179.857 150.044 178.73 149.925 177.543C149.806 176.831 149.688 176.119 149.628 175.407C149.569 174.933 149.51 174.458 149.45 174.043C149.391 173.272 149.272 172.56 149.213 171.788C149.154 171.373 149.154 170.958 149.094 170.542C149.094 170.127 149.094 169.712 148.976 169.296C148.976 168.881 148.976 168.525 148.916 168.11C148.916 167.754 148.857 167.339 148.857 166.983V166.864C148.798 165.974 148.798 165.025 148.738 164.076V58.589H192.523V114.477H192.582V174.992C192.582 180.391 194.777 185.315 198.278 188.816C198.752 189.29 199.227 189.706 199.761 190.18C200.295 190.596 200.829 191.011 201.482 191.367C203.736 192.909 206.465 193.977 209.313 194.333C209.669 194.452 210.025 194.452 210.381 194.511C210.974 194.571 211.508 194.571 212.161 194.571H224.264C225.035 194.63 225.866 194.689 226.696 194.689C240.342 194.571 254.047 194.571 267.692 194.571C271.964 194.571 276.236 194.63 280.507 194.63H297.238C307.324 194.571 314.977 188.4 316.995 178.611C319.664 165.618 322.216 152.566 324.826 139.573L325.894 134.055C326.606 130.555 327.377 127.054 328.089 123.554C328.208 122.961 328.267 122.367 328.267 121.774C328.267 120.054 327.792 118.274 326.606 116.969C325.004 115.189 322.69 114.477 319.902 114.417H309.46C297.179 114.477 285.016 114.417 272.795 114.417H257.013C254.047 114.417 251.08 114.417 248.114 114.477C242.656 114.417 237.197 114.477 231.739 114.477C225.45 114.417 219.221 114.477 212.932 114.477C212.754 114.477 212.635 114.477 212.457 114.417L201.541 114.477V66.4797C202.431 65.8865 203.38 65.2932 204.329 64.8185C206.88 63.2167 209.55 61.8521 212.22 60.5469C212.279 60.5469 212.398 60.5469 212.457 60.4282C213.822 59.7756 215.186 59.123 216.61 58.589C222.959 55.8599 229.663 53.6647 236.545 52.1222C237.731 51.8849 238.918 51.6476 240.164 51.4102C240.757 51.2916 241.35 51.1729 241.944 51.1136C242.952 50.9356 243.902 50.7576 244.91 50.639C246.453 50.4017 247.995 50.2237 249.538 50.0457L252.03 49.8677H252.326C252.742 49.8084 253.098 49.749 253.513 49.749C253.928 49.749 254.284 49.6897 254.699 49.6897H254.877C255.352 49.6897 255.767 49.6304 256.183 49.6304C256.717 49.6304 257.191 49.6304 257.725 49.571C258.674 49.5117 260.276 49.5117 261.226 49.5117C261.582 49.5117 261.938 49.571 262.353 49.571C262.827 49.571 263.361 49.5711 263.836 49.6304H265.497C266.15 49.6897 266.803 49.6897 267.455 49.749H267.574C267.93 49.749 268.286 49.749 268.642 49.749C268.76 49.8084 268.879 49.8084 268.998 49.8084H269.176C269.888 49.8677 270.6 49.927 271.371 49.9864C271.727 50.0457 272.023 50.105 272.379 50.105C272.676 50.1643 272.973 50.1643 273.269 50.2237C273.744 50.2237 274.219 50.3423 274.634 50.4017C274.99 50.4017 275.287 50.4017 275.583 50.5203H275.761C275.761 50.5203 275.939 50.5203 276.058 50.5796C276.295 50.5796 276.532 50.639 276.71 50.639C276.948 50.6983 277.185 50.6983 277.422 50.7576C278.253 50.8763 279.024 50.9949 279.796 51.1729C279.973 51.1729 280.151 51.1729 280.329 51.1729C281.219 51.3509 282.05 51.5289 282.94 51.7069C283.118 51.7069 283.296 51.7662 283.533 51.8255C283.652 51.8255 283.771 51.8255 283.889 51.8255C285.016 52.0629 286.203 52.3595 287.33 52.6561C287.686 52.7155 288.042 52.8341 288.398 52.8935C288.635 52.8935 288.932 53.0121 289.169 53.0714C289.763 53.2494 290.356 53.4274 291.009 53.6054C292.789 54.1394 294.509 54.614 296.23 55.2073C296.764 55.3853 297.298 55.6226 297.831 55.8006C298.187 55.9192 298.484 56.0379 298.84 56.1565C299.493 56.3939 300.086 56.6312 300.739 56.8685C301.925 57.3431 303.112 57.8177 304.298 58.3517C305.426 58.8263 306.553 59.301 307.621 59.7756C307.68 59.8349 307.799 59.8943 307.858 59.8943C308.392 60.1316 308.926 60.4282 309.46 60.6655C310.053 60.9622 310.646 61.2588 311.24 61.5555C312.367 62.1487 313.435 62.6827 314.503 63.3353C315.215 63.6913 315.927 64.1066 316.579 64.5219C317.173 64.8185 317.766 65.1745 318.3 65.5305L320.614 66.9544C320.614 66.9544 320.97 67.1917 321.148 67.3103C321.148 67.3103 321.385 67.4883 321.504 67.607C322.156 67.963 322.809 68.4376 323.461 68.8529H323.521C323.817 69.0902 324.114 69.2682 324.411 69.5055C325.004 69.9208 325.538 70.2768 326.131 70.6921C326.191 70.7514 326.309 70.8701 326.428 70.9294C326.843 71.226 327.318 71.582 327.792 71.938C328.089 72.1753 328.445 72.472 328.801 72.7093C328.979 72.8873 329.098 73.0059 329.276 73.1246C329.75 73.4212 330.166 73.7772 330.64 74.1925C330.878 74.3705 331.174 74.6078 331.412 74.7858C331.768 75.1417 332.183 75.4384 332.598 75.7944C332.776 75.9723 333.013 76.1503 333.251 76.3283C333.429 76.5063 333.666 76.6843 333.844 76.8623C334.259 77.2183 334.615 77.5742 334.971 77.9302C335.327 78.1675 335.624 78.4642 335.98 78.7608C336.277 79.0574 336.632 79.3541 336.929 79.6507L337.107 79.8287C337.107 79.8287 337.285 80.066 337.404 80.1254C338.056 80.778 338.709 81.3713 339.302 82.0239L339.658 82.3799C340.37 83.0325 340.963 83.6851 341.675 84.397C341.853 84.575 341.972 84.753 342.15 84.931C342.743 85.5836 343.337 86.2362 343.871 86.8295H343.93C344.405 87.4228 344.879 88.0161 345.354 88.55C345.65 88.8467 345.888 89.1433 346.184 89.4993C346.244 89.618 346.362 89.7366 346.481 89.8553C347.312 90.8639 348.142 91.8725 348.914 92.9404C349.685 93.8896 350.397 94.8389 351.109 95.8475C351.227 96.0255 351.287 96.1441 351.405 96.3221C352.117 97.2714 352.711 98.1613 353.363 99.1106C353.541 99.4072 353.778 99.7632 353.956 100.06C354.609 101.068 355.262 102.018 355.855 103.086C356.626 104.331 357.338 105.577 358.109 106.883C358.228 107.12 358.406 107.417 358.525 107.713C359.118 108.781 359.711 109.849 360.245 110.917C360.483 111.451 360.779 111.985 361.017 112.578C361.254 113.112 361.551 113.646 361.788 114.18C362.262 115.248 362.796 116.375 363.271 117.502C363.627 118.333 363.924 119.164 364.28 119.994C364.636 120.825 364.932 121.715 365.288 122.545C365.585 123.435 365.882 124.266 366.178 125.156C366.771 126.876 367.305 128.656 367.78 130.377C368.077 131.267 368.255 132.157 368.492 133.047C368.729 133.877 368.907 134.648 369.085 135.479C369.501 137.081 369.797 138.683 370.094 140.344C370.272 141.056 370.391 141.768 370.509 142.48V142.717C370.628 143.429 370.746 144.141 370.865 144.794C370.984 145.565 371.102 146.336 371.162 147.108C371.34 148.353 371.458 149.599 371.577 150.905C371.696 151.913 371.755 152.922 371.814 153.99C371.874 154.702 371.933 155.473 371.933 156.303C371.933 156.897 371.992 157.549 371.992 158.202C371.992 159.092 372.052 160.041 372.052 160.931V161.168Z" fill="black"/>
<path d="M816.356 120.104C815.11 115.951 812.974 112.57 810.008 109.959C807.041 107.289 803.126 105.391 798.261 104.264C793.396 103.136 787.344 102.543 780.106 102.543H687.197L665.127 122.062L640.09 144.251L632.021 151.371L643.769 162.228L668.271 184.891L689.036 204.054H721.43V175.043H780.106C787.522 175.043 793.692 174.568 798.557 173.619C803.422 172.67 807.279 171.008 810.245 168.635C813.152 166.262 815.229 163.118 816.415 159.143C817.602 155.168 818.195 150.125 818.195 144.073V135.292C818.195 129.36 817.543 124.317 816.356 120.104ZM795.591 143.183C795.591 148.582 794.404 152.142 792.15 153.981C789.895 155.82 785.742 156.769 779.809 156.769H721.43V122.062H779.513C785.564 122.062 789.717 123.071 792.09 125.029C794.404 127.046 795.591 130.724 795.591 136.182V143.183Z" fill="black"/>
<path d="M795.593 136.177V143.178C795.593 148.577 794.406 152.136 792.152 153.976C789.897 155.815 785.744 156.764 779.811 156.764H721.432V122.057H779.515C785.566 122.057 789.719 123.065 792.092 125.023C794.406 127.04 795.593 130.719 795.593 136.177Z" fill="#FEEE00"/>
<path d="M893.484 169.703H911.342C918.283 169.703 924.335 169.228 929.378 168.339C934.421 167.449 938.633 165.906 941.955 163.652C945.278 161.456 947.71 158.431 949.312 154.574C950.914 150.777 951.685 145.912 951.685 140.098V133.097C951.685 127.046 950.973 122.003 949.49 118.028C947.948 114.053 945.634 110.968 942.371 108.654C939.167 106.399 935.014 104.797 929.971 103.908C924.928 103.018 918.817 102.543 911.638 102.543H832.197V204.054H854.683V167.152L914.012 204.054H953.05L893.484 169.703ZM854.683 121.647H910.155C913.834 121.647 916.919 121.765 919.411 122.062C921.902 122.359 923.801 122.952 925.225 123.842C926.589 124.732 927.598 126.037 928.191 127.698C928.784 129.419 929.081 131.614 929.081 134.284V139.801C929.081 142.531 928.784 144.785 928.191 146.446C927.598 148.167 926.589 149.472 925.106 150.362C923.682 151.252 921.784 151.845 919.351 152.142C916.919 152.438 913.834 152.557 910.155 152.557H854.683V121.647Z" fill="black"/>
<path d="M929.082 134.287V139.805C929.082 142.534 928.785 144.789 928.192 146.45C927.599 148.17 926.59 149.476 925.107 150.366C923.683 151.255 921.784 151.849 919.352 152.145C916.92 152.442 913.834 152.561 910.156 152.561H854.684V121.65H910.156C913.834 121.65 916.919 121.769 919.411 122.066C921.903 122.362 923.802 122.956 925.225 123.846C926.59 124.735 927.599 126.041 928.192 127.702C928.785 129.422 929.082 131.618 929.082 134.287Z" fill="#FEEE00"/>
<path d="M987.404 137.369V144.251H1073.9V162.228H987.404V169.406C987.404 172.492 987.641 174.983 988.116 177.001C988.531 178.958 989.361 180.56 990.548 181.747C991.735 182.933 993.396 183.764 995.532 184.179C997.667 184.654 1000.34 184.891 1003.66 184.891H1074.5V204.054H1003.66C996.184 204.054 990.014 203.461 985.03 202.215C980.047 200.969 976.131 199.012 973.105 196.282C970.139 193.553 968.062 189.934 966.817 185.544C965.571 181.154 964.918 175.695 964.918 169.229V137.369C964.918 131.021 965.571 125.622 966.817 121.172C968.062 116.723 970.139 113.103 973.105 110.374C976.131 107.645 980.047 105.687 985.03 104.441C990.014 103.196 996.184 102.543 1003.66 102.543H1074.5V122.003L1003.66 121.765C1000.34 121.765 997.667 122.062 995.591 122.596C993.514 123.13 991.853 124.02 990.607 125.207C989.361 126.393 988.531 127.995 988.116 129.953C987.641 131.911 987.404 134.403 987.404 137.369Z" fill="black"/>
<path d="M1106.95 131.911V135.174C1106.95 138.318 1107.66 140.573 1109.15 141.937C1110.63 143.243 1113.24 143.954 1116.92 143.954H1164.38C1170.02 143.954 1174.82 144.429 1178.74 145.378C1182.65 146.328 1185.86 147.811 1188.35 149.887C1190.84 151.964 1192.62 154.634 1193.69 157.956C1194.82 161.219 1195.35 165.135 1195.35 169.703V177.713C1195.35 182.518 1194.82 186.552 1193.69 189.875C1192.62 193.197 1190.84 195.867 1188.35 197.944C1185.86 200.079 1182.65 201.563 1178.74 202.571C1174.82 203.58 1170.02 204.054 1164.38 204.054H1086.07V184.891H1163.19C1167.23 184.891 1170.19 184.298 1171.97 183.171C1173.75 182.044 1174.64 179.73 1174.64 176.229V170.712C1174.64 167.567 1173.75 165.313 1171.97 163.948C1170.19 162.643 1167.29 161.931 1163.31 161.931H1114.96C1109.32 161.931 1104.64 161.456 1100.9 160.389C1097.16 159.321 1094.25 157.778 1092.06 155.642C1089.86 153.506 1088.32 150.837 1087.49 147.573C1086.66 144.37 1086.24 140.573 1086.24 136.182V131.139C1086.24 125.978 1086.78 121.587 1087.91 117.909C1088.97 114.231 1090.63 111.264 1092.95 109.069C1095.2 106.815 1098.17 105.153 1101.85 104.145C1105.53 103.077 1109.92 102.543 1114.96 102.543H1195.35V121.647L1117.04 121.765C1113.59 121.765 1111.04 122.418 1109.38 123.783C1107.72 125.088 1106.95 127.817 1106.95 131.911Z" fill="black"/>
<path d="M1227.33 131.911V135.174C1227.33 138.318 1228.1 140.573 1229.58 141.937C1231.06 143.243 1233.62 143.954 1237.29 143.954H1284.76C1290.45 143.954 1295.2 144.429 1299.11 145.378C1303.09 146.328 1306.23 147.811 1308.73 149.887C1311.22 151.964 1313 154.634 1314.12 157.956C1315.19 161.219 1315.73 165.135 1315.73 169.703V177.713C1315.73 182.518 1315.19 186.552 1314.12 189.875C1313 193.197 1311.22 195.867 1308.73 197.944C1306.23 200.079 1303.09 201.563 1299.11 202.571C1295.2 203.58 1290.45 204.054 1284.76 204.054H1206.5V184.891H1283.57C1287.66 184.891 1290.57 184.298 1292.35 183.171C1294.13 182.044 1295.02 179.73 1295.02 176.229V170.712C1295.02 167.567 1294.13 165.313 1292.35 163.948C1290.57 162.643 1287.72 161.931 1283.75 161.931H1235.34C1229.7 161.931 1225.01 161.456 1221.27 160.389C1217.6 159.321 1214.63 157.778 1212.43 155.642C1210.24 153.506 1208.76 150.837 1207.93 147.573C1207.04 144.37 1206.62 140.573 1206.62 136.182V131.139C1206.62 125.978 1207.15 121.587 1208.28 117.909C1209.35 114.231 1211.07 111.264 1213.32 109.069C1215.64 106.815 1218.61 105.153 1222.28 104.145C1225.96 103.077 1230.29 102.543 1235.34 102.543H1315.73V121.647L1237.47 121.765C1233.97 121.765 1231.42 122.418 1229.76 123.783C1228.16 125.088 1227.33 127.817 1227.33 131.911Z" fill="black"/>
<path d="M566.285 122.062H534.069L463.231 121.765C461.392 121.765 459.73 121.884 458.307 122.062H426.15C426.21 121.765 426.328 121.469 426.388 121.172C427.634 116.723 429.71 113.103 432.736 110.374C435.702 107.645 439.677 105.687 444.602 104.441C449.585 103.196 455.815 102.543 463.231 102.543H544.333L566.285 122.062Z" fill="black"/>
<path d="M562.374 184.898L541.075 204.062H463.236C455.82 204.062 449.59 203.468 444.607 202.222C439.683 200.977 435.707 199.019 432.741 196.29C429.715 193.56 427.639 189.941 426.393 185.551C426.334 185.314 426.274 185.136 426.215 184.898H562.374Z" fill="black"/>
<path d="M599.393 151.545L587.527 162.225H424.551V144.248H591.205L599.393 151.545Z" fill="black"/>
<path d="M656.112 204.057H572.637L593.224 184.894L614.286 165.256L635.466 184.894L656.112 204.057Z" fill="black"/>
<path d="M656.407 102.545L634.336 122.064L615.648 138.557L597.909 122.064L576.906 102.545H656.407Z" fill="black"/>
</g>
<defs>
<clipPath id="clip0_1050_83737">
<rect width="1384.73" height="304.772" fill="white" transform="translate(0 0.919922)"/>
</clipPath>
</defs>
</svg>
