<svg width="2544" height="560" viewBox="0 0 2544 560" fill="none" xmlns="http://www.w3.org/2000/svg">
<g clip-path="url(#clip0_517_27916)">
<path d="M2469.99 0H209.597L96.0215 279.905L209.597 559.92H2469.99C2510.86 559.92 2543.99 526.894 2543.99 486.02V74.0093C2543.99 33.1352 2510.86 0 2469.99 0ZM1205.94 186.713L1165.4 222.573L1131.06 252.874L1098.47 222.573L1059.89 186.713H1205.94ZM783.359 220.938C785.648 212.763 789.463 206.114 795.022 201.1C800.472 196.086 807.775 192.489 816.821 190.201C825.977 187.912 837.422 186.713 851.047 186.713H1000.05L1040.38 222.573H981.19L851.047 222.028C847.668 222.028 844.616 222.246 842 222.573H782.923C783.032 222.028 783.25 221.483 783.359 220.938ZM242.95 60.2756H353.691V87.5249H242.95V60.2756ZM683.409 299.634C683.409 300.942 683.3 302.25 683.3 303.558C683.191 304.757 683.191 305.847 683.082 306.937C682.973 308.463 682.864 309.989 682.755 311.624C682.537 314.131 682.319 316.638 681.992 319.144C681.992 320.561 681.665 321.869 681.447 323.177C681.229 324.594 681.12 325.902 680.902 327.21L680.248 331.134C680.248 331.134 680.139 331.679 680.03 332.006C679.812 333.314 679.594 334.622 679.267 335.821C679.267 336.257 679.267 336.802 679.049 337.238C678.94 337.674 678.831 338.11 678.722 338.655C678.504 339.418 678.286 340.29 678.177 341.162C678.068 341.162 678.068 341.271 678.068 341.271C678.068 341.489 677.959 341.816 677.959 342.034C677.85 342.143 677.85 342.252 677.85 342.361C677.741 342.579 677.741 342.797 677.741 343.015C677.414 344.323 676.978 345.74 676.651 347.048C676.651 347.266 676.542 347.375 676.542 347.484C676.106 349.119 675.67 350.754 675.125 352.389C675.016 353.152 674.798 353.697 674.58 354.133C674.253 355.332 673.926 356.422 673.49 357.512C673.272 358.384 673.054 359.256 672.727 360.018C672.509 360.89 672.182 361.653 671.855 362.525V362.743C671.31 364.051 670.874 365.25 670.438 366.558C670.329 366.885 670.22 367.103 670.111 367.43C670.002 367.648 670.002 367.866 669.893 368.084C669.348 369.283 668.912 370.482 668.476 371.681C668.367 371.681 668.258 372.008 668.149 372.226C667.604 373.861 666.95 375.387 666.187 377.022C665.424 378.548 664.77 380.183 664.007 381.709C663.789 382.363 663.462 382.908 663.135 383.562C662.699 384.543 662.263 385.415 661.827 386.396C661.391 387.159 661.064 387.922 660.628 388.685C660.192 389.448 659.865 390.102 659.429 390.865C658.557 392.391 657.685 393.917 656.922 395.443C653.543 401.438 649.837 407.214 645.913 412.773C644.823 414.408 643.625 415.934 642.426 417.569C641.663 418.55 641.009 419.422 640.246 420.294C638.72 422.365 637.085 424.436 635.341 426.398C635.014 426.834 634.687 427.27 634.36 427.597C633.379 428.687 632.507 429.777 631.635 430.758C631.199 431.303 630.654 431.848 630.218 432.393C630.218 432.393 630 432.611 629.891 432.611C628.365 434.355 626.73 435.99 625.204 437.625C624.768 437.952 624.441 438.388 624.114 438.606C622.697 440.132 621.28 441.549 619.863 442.857L619.536 443.184C619.536 443.184 619.209 443.402 619.209 443.511C618.228 444.492 617.247 445.363 616.266 446.235C615.503 446.998 614.74 447.652 613.977 448.306C612.996 449.178 611.906 450.05 610.816 451.031C610.38 451.358 610.053 451.685 609.617 452.012C608.636 452.884 607.546 453.647 606.565 454.519C606.347 454.628 606.238 454.846 606.02 454.955C605.693 455.173 605.366 455.5 605.148 455.718C605.039 455.718 604.93 455.827 604.821 455.936C604.712 456.045 604.603 456.045 604.494 456.154L604.167 456.481C603.513 456.808 603.077 457.244 602.532 457.68C600.244 459.424 597.955 461.059 595.557 462.694C594.685 463.348 593.813 463.893 592.941 464.547C591.633 465.419 590.325 466.291 589.017 467.163C587.709 467.926 586.292 468.798 584.984 469.67C584.548 469.888 584.112 470.215 583.676 470.433C582.15 471.414 580.515 472.286 578.88 473.158C578.008 473.703 577.027 474.248 576.155 474.684C575.283 475.229 574.411 475.665 573.43 476.101C572.122 476.864 570.814 477.518 569.506 478.172C567.762 479.044 565.909 479.916 564.165 480.788C562.421 481.551 560.568 482.423 558.716 483.186C557.19 483.84 555.664 484.494 554.029 485.148C552.394 485.802 550.541 486.456 548.797 487.109C548.252 487.327 547.707 487.546 547.271 487.763C546.726 487.872 546.181 488.091 545.636 488.199C545.309 488.418 544.982 488.527 544.546 488.635C544.219 488.745 544.001 488.853 543.674 488.962C543.347 489.071 543.02 489.18 542.802 489.289C542.148 489.507 541.603 489.616 540.949 489.834C540.731 489.943 540.513 490.052 540.295 490.052C540.295 490.161 540.077 490.161 540.077 490.161C539.859 490.27 539.641 490.27 539.314 490.379C537.57 490.924 535.717 491.469 533.864 492.014C532.447 492.341 531.03 492.777 529.613 493.213H529.395C529.395 493.213 528.741 493.322 528.414 493.431C528.305 493.431 528.087 493.54 527.978 493.54C527.869 493.54 527.76 493.649 527.651 493.649C526.779 493.867 526.016 493.976 525.253 494.194C524.381 494.412 523.618 494.63 522.746 494.739C522.419 494.848 521.983 494.957 521.547 495.066C519.694 495.393 517.841 495.72 515.989 496.156C514.354 496.483 512.61 496.701 510.866 497.028C510.539 497.028 510.212 497.028 509.885 497.028C509.558 497.137 509.231 497.137 508.904 497.246C508.359 497.246 507.923 497.355 507.378 497.464C507.051 497.573 506.615 497.573 506.179 497.573C505.634 497.682 505.198 497.791 504.653 497.791C504.326 497.791 503.999 497.9 503.672 497.9C503.236 498.009 502.691 498.009 502.255 498.118C501.71 498.118 501.165 498.227 500.729 498.227C499.639 498.336 498.549 498.554 497.459 498.554C496.478 498.663 495.606 498.772 494.734 498.881C493.862 498.881 492.99 498.99 492.118 498.99C491.791 498.99 491.355 498.99 490.919 498.99C490.047 499.099 489.175 499.099 488.194 499.099C487.431 499.208 486.668 499.208 485.905 499.208C485.142 499.317 484.379 499.317 483.616 499.317C482.744 499.317 481.872 499.317 481 499.426H475.659C474.788 499.317 473.916 499.317 473.044 499.317C471.627 499.317 470.21 499.208 468.793 499.099H467.812C466.613 499.099 465.414 498.99 464.324 498.881H462.798C461.054 498.663 459.419 498.445 457.675 498.336H457.13C457.13 498.336 456.694 498.336 456.476 498.336C456.149 498.336 455.713 498.227 455.386 498.227C454.514 498.118 453.751 498.009 452.988 497.9H452.879C452.007 497.791 451.135 497.682 450.263 497.573C450.045 497.573 449.936 497.464 449.718 497.464C449.064 497.355 448.519 497.246 447.865 497.246C445.903 496.919 443.941 496.592 441.979 496.265C440.78 496.047 439.581 495.829 438.382 495.611C438.273 495.502 438.164 495.502 438.055 495.502C437.401 495.393 436.747 495.284 436.202 495.066C435.548 495.066 434.894 494.848 434.24 494.63C431.952 494.194 429.772 493.649 427.592 493.104C425.521 492.559 423.341 492.014 421.27 491.36C419.635 490.924 418.109 490.379 416.583 489.943C414.948 489.398 413.422 488.962 411.896 488.418C410.806 487.982 409.607 487.655 408.626 487.219C407.1 486.674 405.574 486.129 404.157 485.475C403.721 485.475 403.285 485.257 402.958 485.039C402.74 484.93 402.631 484.93 402.522 484.93C402.413 484.821 402.304 484.821 402.195 484.821C401.868 484.603 401.432 484.494 401.105 484.276C400.778 484.167 400.342 484.058 400.015 483.84C398.598 483.295 397.29 482.75 395.982 482.096C394.456 481.442 392.821 480.679 391.186 480.025L390.533 479.698C390.533 479.698 390.096 479.48 389.987 479.371C389.879 479.371 389.77 479.371 389.77 479.371C389.334 479.153 388.789 478.935 388.353 478.717C387.699 478.39 387.154 478.172 386.5 477.845H386.391C385.301 477.3 384.211 476.755 383.121 476.101C381.813 475.447 380.505 474.793 379.306 474.03C377.998 473.376 376.69 472.613 375.491 471.959C374.183 471.196 372.984 470.433 371.676 469.67C370.695 469.125 369.714 468.471 368.624 467.817C367.861 467.272 366.989 466.727 366.117 466.182C365.572 465.855 365.027 465.419 364.373 464.983C363.174 464.22 361.975 463.348 360.776 462.585C358.269 460.732 355.762 458.988 353.364 457.026C352.383 456.263 351.402 455.5 350.421 454.737C349.331 453.865 348.242 452.993 347.152 452.121C347.152 452.012 347.043 452.012 347.043 452.012H346.934C344.863 450.159 342.792 448.306 340.721 446.562C340.503 446.236 340.176 446.017 339.849 445.69C337.996 444.056 336.143 442.312 334.399 440.459C334.181 440.35 333.963 440.132 333.745 439.914L332.764 438.824C330.911 436.971 329.058 435.118 327.314 433.156C326.987 432.829 326.66 432.502 326.333 432.175C325.679 431.412 324.916 430.649 324.262 429.777C323.608 429.123 322.954 428.36 322.3 427.597C322.082 427.379 321.973 427.161 321.755 427.052C321.21 426.289 320.665 425.635 320.011 424.981C319.902 424.763 319.684 424.545 319.575 424.327C317.395 421.711 315.324 419.095 313.362 416.37C312.163 414.844 311.073 413.209 309.983 411.683C308.893 410.048 307.803 408.522 306.713 406.887C305.624 405.252 304.643 403.617 303.662 401.983C302.79 400.675 302.027 399.367 301.264 398.059C300.61 397.078 300.065 395.988 299.52 395.007C298.975 394.026 298.321 392.936 297.776 391.955C296.904 390.211 296.032 388.467 295.051 386.723C293.416 383.453 291.781 379.965 290.364 376.477C289.819 375.387 289.274 374.188 288.838 373.098C288.402 372.008 287.857 370.809 287.421 369.719C287.421 369.61 287.312 369.392 287.312 369.283C286.113 366.34 285.023 363.288 283.933 360.237C283.933 360.237 283.824 359.91 283.824 359.692C283.17 357.839 282.625 355.986 282.08 354.133C282.08 353.915 281.862 353.697 281.862 353.479C281.426 352.171 281.099 350.863 280.663 349.555C280.554 349.228 280.445 348.792 280.336 348.356C279.9 346.83 279.573 345.086 279.137 343.451C279.028 343.015 278.919 342.579 278.81 342.143C278.374 340.399 277.938 338.546 277.611 336.802C277.502 336.475 277.502 336.148 277.393 335.821C277.175 335.058 277.066 334.186 276.957 333.314C276.848 332.878 276.739 332.333 276.63 331.788C276.63 331.461 276.63 331.134 276.412 330.916C276.085 328.736 275.649 326.665 275.431 324.485C275.213 323.177 274.995 321.869 274.886 320.561C274.777 319.689 274.668 318.817 274.559 318.055C274.45 316.638 274.232 315.33 274.123 313.913C274.014 313.15 274.014 312.387 273.905 311.624C273.905 310.861 273.905 310.098 273.687 309.335C273.687 308.572 273.687 307.918 273.578 307.155C273.578 306.501 273.469 305.738 273.469 305.084V304.866C273.36 303.231 273.36 301.487 273.251 299.743V105.946H353.691V208.621H353.8V319.798C353.8 329.717 357.833 338.764 364.264 345.195C365.136 346.067 366.008 346.83 366.989 347.702C367.97 348.465 368.951 349.228 370.15 349.882C374.292 352.716 379.306 354.678 384.538 355.332C385.192 355.55 385.846 355.55 386.5 355.659C387.59 355.768 388.571 355.768 389.77 355.768H412.005C413.422 355.877 414.948 355.986 416.474 355.986C441.543 355.768 466.722 355.768 491.791 355.768C499.639 355.768 507.487 355.877 515.335 355.877H546.072C564.601 355.768 578.662 344.432 582.368 326.447C587.273 302.577 591.96 278.597 596.756 254.727L598.718 244.59C600.026 238.159 601.443 231.729 602.75 225.298C602.968 224.208 603.077 223.118 603.077 222.028C603.077 218.867 602.205 215.597 600.026 213.199C597.083 209.929 592.832 208.621 587.709 208.512H568.525C545.963 208.621 523.618 208.512 501.165 208.512H472.172C466.722 208.512 461.272 208.512 455.822 208.621C445.794 208.512 435.766 208.621 425.739 208.621C414.185 208.512 402.74 208.621 391.186 208.621C390.859 208.621 390.642 208.621 390.315 208.512L370.259 208.621V120.442C371.894 119.352 373.638 118.262 375.382 117.39C380.069 114.447 384.974 111.94 389.879 109.542C389.988 109.542 390.206 109.542 390.315 109.324C392.821 108.125 395.328 106.926 397.944 105.946C409.607 100.932 421.924 96.8987 434.567 94.0648C436.747 93.6288 438.927 93.1928 441.216 92.7568C442.306 92.5388 443.396 92.3208 444.486 92.2118C446.339 91.8848 448.083 91.5578 449.936 91.3399C452.77 90.9039 455.604 90.5769 458.438 90.2499L463.016 89.9229H463.561C464.324 89.8139 464.978 89.7049 465.741 89.7049C466.504 89.7049 467.158 89.5959 467.921 89.5959H468.248C469.12 89.5959 469.883 89.4869 470.646 89.4869C471.627 89.4869 472.499 89.4869 473.48 89.3779C475.223 89.2689 478.166 89.2689 479.91 89.2689C480.564 89.2689 481.218 89.3779 481.981 89.3779C482.853 89.3779 483.834 89.3779 484.706 89.4869H487.758C488.957 89.5959 490.156 89.5959 491.355 89.7049H491.573C492.227 89.7049 492.881 89.7049 493.535 89.7049C493.753 89.8139 493.971 89.8139 494.189 89.8139H494.516C495.824 89.9229 497.132 90.0319 498.549 90.1409C499.203 90.2499 499.748 90.3589 500.402 90.3589C500.947 90.4679 501.492 90.4679 502.037 90.5769C502.909 90.5769 503.781 90.7949 504.544 90.9039C505.198 90.9039 505.743 90.9039 506.288 91.1218H506.615C506.615 91.1218 506.942 91.1218 507.16 91.2309C507.596 91.2309 508.032 91.3399 508.359 91.3399C508.795 91.4488 509.231 91.4488 509.667 91.5578C511.193 91.7758 512.61 91.9938 514.027 92.3208C514.354 92.3208 514.681 92.3208 515.008 92.3208C516.643 92.6478 518.168 92.9748 519.803 93.3018C520.13 93.3018 520.457 93.4108 520.893 93.5198C521.111 93.5198 521.329 93.5198 521.547 93.5198C523.618 93.9558 525.798 94.5008 527.869 95.0458C528.523 95.1548 529.177 95.3728 529.831 95.4818C530.267 95.4818 530.812 95.6997 531.248 95.8087C532.338 96.1357 533.428 96.4627 534.627 96.7897C537.897 97.7707 541.058 98.6427 544.219 99.7326C545.2 100.06 546.181 100.496 547.162 100.823C547.816 101.041 548.361 101.259 549.015 101.477C550.214 101.913 551.304 102.349 552.503 102.785C554.683 103.657 556.863 104.529 559.043 105.51C561.113 106.381 563.184 107.253 565.146 108.125C565.255 108.234 565.473 108.343 565.582 108.343C566.563 108.779 567.544 109.324 568.525 109.76C569.615 110.305 570.705 110.85 571.795 111.395C573.866 112.485 575.828 113.466 577.79 114.665C579.098 115.319 580.406 116.082 581.605 116.845C582.695 117.39 583.785 118.044 584.766 118.698L589.017 121.314C589.017 121.314 589.671 121.75 589.998 121.968C589.998 121.968 590.434 122.295 590.652 122.513C591.851 123.167 593.05 124.039 594.249 124.802H594.358C594.903 125.238 595.448 125.565 595.993 126.001C597.083 126.764 598.064 127.418 599.154 128.181C599.263 128.29 599.481 128.508 599.699 128.617C600.462 129.162 601.334 129.816 602.206 130.47C602.75 130.906 603.404 131.451 604.058 131.887C604.385 132.214 604.603 132.432 604.93 132.65C605.802 133.195 606.565 133.849 607.437 134.612C607.873 134.939 608.418 135.375 608.854 135.702C609.508 136.356 610.271 136.901 611.034 137.555C611.361 137.882 611.797 138.209 612.233 138.536C612.56 138.863 612.996 139.19 613.323 139.517C614.086 140.171 614.74 140.825 615.394 141.479C616.048 141.915 616.593 142.46 617.247 143.005C617.792 143.55 618.446 144.095 618.991 144.64L619.318 144.967C619.318 144.967 619.645 145.403 619.863 145.512C621.062 146.711 622.261 147.801 623.351 148.999L624.005 149.653C625.313 150.852 626.403 152.051 627.711 153.359C628.038 153.686 628.256 154.013 628.583 154.34C629.673 155.539 630.763 156.738 631.744 157.828H631.853C632.725 158.918 633.597 160.008 634.469 160.989C635.014 161.534 635.45 162.079 635.995 162.733C636.104 162.951 636.322 163.169 636.54 163.387C638.066 165.24 639.592 167.093 641.009 169.055C642.426 170.799 643.734 172.543 645.042 174.396C645.259 174.723 645.368 174.941 645.586 175.268C646.894 177.012 647.984 178.647 649.183 180.391C649.51 180.936 649.946 181.59 650.273 182.135C651.472 183.988 652.671 185.732 653.761 187.694C655.178 189.983 656.486 192.271 657.903 194.669C658.121 195.105 658.448 195.65 658.666 196.195C659.756 198.157 660.846 200.119 661.827 202.081C662.263 203.062 662.808 204.043 663.244 205.133C663.68 206.114 664.225 207.095 664.661 208.076C665.533 210.038 666.514 212.109 667.386 214.18C668.04 215.706 668.585 217.232 669.239 218.758C669.893 220.284 670.438 221.919 671.092 223.445C671.637 225.08 672.182 226.606 672.727 228.241C673.817 231.402 674.798 234.671 675.67 237.832C676.215 239.467 676.542 241.102 676.978 242.737C677.414 244.263 677.741 245.68 678.068 247.206C678.831 250.149 679.376 253.092 679.921 256.144C680.248 257.452 680.466 258.76 680.684 260.068V260.504C680.902 261.812 681.12 263.12 681.338 264.319C681.556 265.736 681.774 267.153 681.883 268.57C682.21 270.859 682.428 273.148 682.646 275.546C682.864 277.398 682.973 279.251 683.082 281.213C683.191 282.521 683.3 283.938 683.3 285.464C683.3 286.554 683.409 287.753 683.409 288.952C683.409 290.587 683.518 292.331 683.518 293.966C683.518 295.71 683.409 297.454 683.409 299.198V299.634ZM779.98 263.338H1086.15L1101.2 276.744L1079.4 296.364H779.98V263.338ZM994.051 373.207H851.047C837.422 373.207 825.977 372.117 816.821 369.828C807.775 367.539 800.472 363.942 795.022 358.929C789.463 353.915 785.648 347.266 783.359 339.2C783.25 338.764 783.141 338.437 783.032 338.001H1033.18L994.051 373.207ZM1052.04 373.207L1089.86 338.001L1128.55 301.923L1167.47 338.001L1205.4 373.207H1052.04ZM1503.18 263.011C1503.18 274.129 1502.09 283.393 1499.91 290.696C1497.73 297.999 1493.91 303.776 1488.57 308.136C1483.12 312.496 1476.04 315.548 1467.1 317.292C1458.16 319.035 1446.83 319.907 1433.2 319.907H1325.4V373.207H1265.89L1227.74 338.001L1182.73 296.364L1161.14 276.417L1175.97 263.338L1221.96 222.573L1262.51 186.713H1433.2C1446.5 186.713 1457.62 187.803 1466.56 189.874C1475.49 191.944 1482.69 195.432 1488.14 200.337C1493.59 205.133 1497.51 211.346 1499.8 218.976C1501.98 226.715 1503.18 235.979 1503.18 246.879V263.011ZM1679.21 373.207L1570.21 305.411V373.207H1528.9V186.713H1674.85C1688.04 186.713 1699.26 187.585 1708.53 189.22C1717.79 190.855 1725.42 193.797 1731.31 197.939C1737.3 202.19 1741.56 207.858 1744.39 215.161C1747.11 222.464 1748.42 231.729 1748.42 242.846V255.708C1748.42 266.39 1747.01 275.328 1744.06 282.303C1741.12 289.388 1736.65 294.947 1730.55 298.98C1724.44 303.122 1716.7 305.956 1707.44 307.591C1698.17 309.226 1687.06 310.098 1674.3 310.098H1641.5L1750.93 373.207H1679.21ZM1974.05 222.464L1843.9 222.028C1837.8 222.028 1832.9 222.573 1829.08 223.554C1825.27 224.535 1822.21 226.17 1819.92 228.35C1817.64 230.53 1816.11 233.473 1815.35 237.069C1814.47 240.666 1814.04 245.244 1814.04 250.694V263.338H1972.96V296.364H1814.04V309.553C1814.04 315.221 1814.47 319.798 1815.35 323.504C1816.11 327.101 1817.64 330.044 1819.82 332.224C1822 334.404 1825.05 335.93 1828.97 336.693C1832.9 337.565 1837.8 338.001 1843.9 338.001H1974.05V373.207H1843.9C1830.17 373.207 1818.83 372.117 1809.68 369.828C1800.52 367.539 1793.33 363.942 1787.77 358.929C1782.32 353.915 1778.51 347.266 1776.22 339.2C1773.93 331.134 1772.73 321.106 1772.73 309.226V250.694C1772.73 239.031 1773.93 229.113 1776.22 220.938C1778.51 212.763 1782.32 206.114 1787.77 201.1C1793.33 196.086 1800.52 192.489 1809.68 190.201C1818.83 187.912 1830.17 186.713 1843.9 186.713H1974.05V222.464ZM2196.07 221.81L2052.2 222.028C2045.88 222.028 2041.19 223.227 2038.14 225.734C2035.09 228.132 2033.67 233.146 2033.67 240.666V246.661C2033.67 252.438 2034.98 256.58 2037.7 259.087C2040.43 261.485 2045.22 262.793 2051.98 262.793H2139.18C2149.53 262.793 2158.36 263.665 2165.56 265.409C2172.75 267.153 2178.64 269.878 2183.21 273.693C2187.79 277.507 2191.06 282.412 2193.02 288.516C2195.09 294.511 2196.07 301.705 2196.07 310.098V324.812C2196.07 333.641 2195.09 341.053 2193.02 347.157C2191.06 353.261 2187.79 358.166 2183.21 361.98C2178.64 365.904 2172.75 368.629 2165.56 370.482C2158.36 372.335 2149.53 373.207 2139.18 373.207H1995.3V338.001H2137C2144.41 338.001 2149.86 336.911 2153.13 334.84C2156.4 332.769 2158.03 328.518 2158.03 322.087V311.951C2158.03 306.174 2156.4 302.032 2153.13 299.525C2149.86 297.127 2144.52 295.819 2137.22 295.819H2048.38C2038.03 295.819 2029.42 294.947 2022.55 292.985C2015.68 291.023 2010.34 288.189 2006.31 284.265C2002.28 280.341 1999.44 275.436 1997.92 269.442C1996.39 263.556 1995.63 256.58 1995.63 248.514V239.249C1995.63 229.767 1996.61 221.701 1998.68 214.943C2000.64 208.185 2003.69 202.735 2007.95 198.702C2012.09 194.56 2017.54 191.508 2024.29 189.656C2031.05 187.694 2039.12 186.713 2048.38 186.713H2196.07V221.81ZM2417.23 221.81L2273.46 222.028C2267.03 222.028 2262.35 223.227 2259.29 225.734C2256.35 228.132 2254.82 233.146 2254.82 240.666V246.661C2254.82 252.438 2256.24 256.58 2258.97 259.087C2261.69 261.485 2266.38 262.793 2273.14 262.793H2360.33C2370.8 262.793 2379.52 263.665 2386.71 265.409C2394.01 267.153 2399.79 269.878 2404.37 273.693C2408.95 277.507 2412.22 282.412 2414.29 288.516C2416.25 294.511 2417.23 301.705 2417.23 310.098V324.812C2417.23 333.641 2416.25 341.053 2414.29 347.157C2412.22 353.261 2408.95 358.166 2404.37 361.98C2399.79 365.904 2394.01 368.629 2386.71 370.482C2379.52 372.335 2370.8 373.207 2360.33 373.207H2216.57V338.001H2358.15C2365.67 338.001 2371.02 336.911 2374.29 334.84C2377.56 332.769 2379.19 328.518 2379.19 322.087V311.951C2379.19 306.174 2377.56 302.032 2374.29 299.525C2371.02 297.127 2365.78 295.819 2358.48 295.819H2269.54C2259.18 295.819 2250.57 294.947 2243.71 292.985C2236.95 291.023 2231.5 288.189 2227.47 284.265C2223.43 280.341 2220.71 275.436 2219.18 269.442C2217.55 263.556 2216.78 256.58 2216.78 248.514V239.249C2216.78 229.767 2217.77 221.701 2219.84 214.943C2221.8 208.185 2224.96 202.735 2229.1 198.702C2233.35 194.56 2238.8 191.508 2245.56 189.656C2252.32 187.694 2260.27 186.713 2269.54 186.713H2417.23V221.81Z" fill="#E53420"/>
<path d="M209.598 559.911H36.2921C10.5687 559.911 -6.97985 533.861 2.72092 509.99L23.7574 458.108L96.0227 280.006L209.598 559.911Z" fill="#F29A90"/>
<path d="M209.598 0L96.0227 279.905L23.3214 100.714L2.72092 49.9208C-6.97985 26.0504 10.5687 0 36.2921 0H209.598Z" fill="#F29A90"/>
<path d="M353.696 60.2734H242.955V87.5228H353.696V60.2734Z" fill="white"/>
<path d="M683.526 294.403C683.526 296.147 683.417 297.891 683.417 299.635C683.417 300.943 683.308 302.251 683.308 303.558C683.199 304.757 683.199 305.847 683.09 306.937C682.981 308.463 682.872 309.989 682.763 311.624C682.545 314.131 682.327 316.638 682 319.145C682 320.562 681.673 321.87 681.455 323.178C681.237 324.595 681.128 325.903 680.91 327.211L680.256 331.135C680.256 331.135 680.147 331.68 680.038 332.007C679.82 333.315 679.602 334.623 679.275 335.822C679.275 336.258 679.275 336.803 679.057 337.239C678.948 337.675 678.839 338.111 678.73 338.656C678.512 339.419 678.294 340.291 678.185 341.163C678.076 341.163 678.076 341.272 678.076 341.272C678.076 341.49 677.967 341.817 677.967 342.035C677.858 342.144 677.858 342.253 677.858 342.362C677.749 342.58 677.749 342.798 677.749 343.016C677.422 344.324 676.986 345.741 676.659 347.048C676.659 347.266 676.55 347.375 676.55 347.484C676.114 349.119 675.678 350.754 675.133 352.389C675.024 353.152 674.806 353.697 674.588 354.133C674.261 355.332 673.934 356.422 673.498 357.512C673.28 358.384 673.062 359.256 672.735 360.019C672.517 360.891 672.19 361.654 671.863 362.526V362.744C671.318 364.052 670.882 365.251 670.446 366.559C670.337 366.886 670.228 367.104 670.119 367.431C670.01 367.649 670.01 367.867 669.901 368.085C669.356 369.284 668.92 370.483 668.484 371.682C668.375 371.682 668.266 372.009 668.157 372.227C667.612 373.862 666.958 375.388 666.195 377.023C665.433 378.549 664.779 380.184 664.016 381.71C663.798 382.364 663.471 382.909 663.144 383.563C662.708 384.544 662.272 385.416 661.836 386.397C661.4 387.16 661.073 387.923 660.637 388.685C660.201 389.448 659.874 390.102 659.438 390.865C658.566 392.391 657.694 393.917 656.931 395.443C653.552 401.438 649.846 407.215 645.922 412.774C644.832 414.409 643.633 415.935 642.434 417.57C641.671 418.551 641.017 419.423 640.254 420.295C638.728 422.366 637.093 424.437 635.349 426.399C635.022 426.835 634.695 427.271 634.368 427.598C633.387 428.688 632.515 429.778 631.643 430.759C631.207 431.303 630.662 431.848 630.226 432.393C630.226 432.393 630.008 432.611 629.899 432.611C628.373 434.355 626.738 435.99 625.212 437.625C624.776 437.952 624.449 438.388 624.122 438.606C622.706 440.132 621.289 441.549 619.872 442.857L619.545 443.184C619.545 443.184 619.218 443.402 619.218 443.511C618.237 444.492 617.256 445.364 616.275 446.236C615.512 446.999 614.749 447.653 613.986 448.307C613.005 449.179 611.915 450.051 610.825 451.032C610.389 451.359 610.062 451.686 609.626 452.013C608.645 452.885 607.555 453.648 606.574 454.52C606.356 454.629 606.247 454.847 606.029 454.956C605.702 455.174 605.375 455.501 605.157 455.719C605.048 455.719 604.939 455.828 604.83 455.937C604.721 456.046 604.612 456.046 604.503 456.155L604.176 456.482C603.522 456.809 603.086 457.245 602.541 457.681C600.252 459.425 597.963 461.06 595.565 462.695C594.693 463.349 593.821 463.894 592.949 464.548C591.641 465.42 590.333 466.292 589.025 467.164C587.717 467.927 586.3 468.799 584.992 469.671C584.556 469.889 584.12 470.216 583.684 470.434C582.158 471.415 580.524 472.287 578.889 473.159C578.017 473.703 577.036 474.248 576.164 474.684C575.292 475.229 574.42 475.665 573.439 476.101C572.131 476.864 570.823 477.518 569.515 478.172C567.771 479.044 565.918 479.916 564.174 480.788C562.43 481.551 560.577 482.423 558.724 483.186C557.198 483.84 555.672 484.494 554.037 485.148C552.402 485.802 550.549 486.456 548.805 487.11C548.26 487.328 547.715 487.546 547.279 487.764C546.734 487.873 546.189 488.091 545.644 488.2C545.317 488.418 544.99 488.527 544.554 488.636C544.227 488.745 544.009 488.854 543.682 488.963C543.355 489.072 543.028 489.181 542.81 489.29C542.156 489.508 541.611 489.617 540.957 489.835C540.739 489.944 540.521 490.053 540.303 490.053C540.303 490.162 540.085 490.162 540.085 490.162C539.867 490.271 539.649 490.271 539.322 490.38C537.579 490.925 535.726 491.47 533.873 492.015C532.456 492.342 531.039 492.778 529.622 493.214H529.404C529.404 493.214 528.75 493.323 528.423 493.432C528.314 493.432 528.096 493.541 527.987 493.541C527.878 493.541 527.769 493.65 527.66 493.65C526.788 493.868 526.025 493.977 525.262 494.195C524.39 494.413 523.627 494.631 522.755 494.74C522.428 494.849 521.992 494.958 521.556 495.067C519.703 495.394 517.85 495.721 515.997 496.157C514.362 496.484 512.618 496.702 510.874 497.029C510.547 497.029 510.22 497.029 509.893 497.029C509.566 497.138 509.239 497.138 508.912 497.247C508.367 497.247 507.931 497.356 507.386 497.465C507.059 497.574 506.623 497.574 506.187 497.574C505.642 497.683 505.206 497.792 504.661 497.792C504.334 497.792 504.007 497.901 503.68 497.901C503.244 498.01 502.699 498.01 502.263 498.119C501.718 498.119 501.173 498.228 500.737 498.228C499.647 498.337 498.557 498.555 497.467 498.555C496.486 498.664 495.615 498.773 494.743 498.882C493.871 498.882 492.999 498.991 492.127 498.991C491.8 498.991 491.364 498.991 490.928 498.991C490.056 499.1 489.184 499.1 488.203 499.1C487.44 499.209 486.677 499.209 485.914 499.209C485.151 499.318 484.388 499.318 483.625 499.318C482.753 499.318 481.881 499.318 481.009 499.427H475.668C474.796 499.318 473.924 499.318 473.052 499.318C471.635 499.318 470.218 499.209 468.801 499.1H467.82C466.621 499.1 465.422 498.991 464.332 498.882H462.806C461.062 498.664 459.427 498.446 457.683 498.337H457.138C457.138 498.337 456.702 498.337 456.484 498.337C456.157 498.337 455.721 498.228 455.394 498.228C454.522 498.119 453.76 498.01 452.997 497.901H452.888C452.016 497.792 451.144 497.683 450.272 497.574C450.054 497.574 449.945 497.465 449.727 497.465C449.073 497.356 448.528 497.247 447.874 497.247C445.912 496.92 443.95 496.593 441.988 496.266C440.789 496.048 439.59 495.83 438.391 495.612C438.282 495.503 438.173 495.503 438.064 495.503C437.41 495.394 436.756 495.285 436.211 495.067C435.557 495.067 434.903 494.849 434.249 494.631C431.96 494.195 429.78 493.65 427.6 493.105C425.529 492.56 423.349 492.015 421.278 491.361C419.643 490.925 418.117 490.38 416.591 489.944C414.956 489.399 413.43 488.963 411.905 488.418C410.815 487.982 409.616 487.655 408.635 487.219C407.109 486.674 405.583 486.129 404.166 485.475C403.73 485.475 403.294 485.257 402.967 485.039C402.749 484.93 402.64 484.93 402.531 484.93C402.422 484.821 402.313 484.821 402.204 484.821C401.877 484.603 401.441 484.494 401.114 484.276C400.787 484.167 400.351 484.058 400.024 483.84C398.607 483.295 397.299 482.75 395.991 482.096C394.465 481.442 392.83 480.679 391.195 480.025L390.541 479.698C390.541 479.698 390.105 479.48 389.996 479.371C389.887 479.371 389.778 479.371 389.778 479.371C389.342 479.153 388.797 478.935 388.361 478.717C387.707 478.39 387.162 478.172 386.508 477.845H386.399C385.309 477.3 384.219 476.755 383.129 476.101C381.821 475.447 380.513 474.793 379.314 474.03C378.006 473.377 376.698 472.613 375.499 471.96C374.191 471.197 372.992 470.434 371.684 469.671C370.703 469.126 369.722 468.472 368.633 467.818C367.87 467.273 366.998 466.728 366.126 466.183C365.581 465.856 365.036 465.42 364.382 464.984C363.183 464.221 361.984 463.349 360.785 462.586C358.278 460.733 355.771 458.989 353.373 457.027C352.392 456.264 351.411 455.501 350.43 454.738C349.34 453.866 348.25 452.994 347.16 452.122C347.16 452.013 347.051 452.013 347.051 452.013H346.942C344.871 450.16 342.8 448.307 340.729 446.563C340.511 446.236 340.184 446.018 339.857 445.691C338.004 444.056 336.151 442.312 334.407 440.459C334.189 440.35 333.971 440.132 333.753 439.914L332.772 438.824C330.919 436.971 329.066 435.118 327.323 433.156C326.996 432.829 326.669 432.502 326.342 432.175C325.688 431.413 324.925 430.65 324.271 429.778C323.617 429.124 322.963 428.361 322.309 427.598C322.091 427.38 321.982 427.162 321.764 427.053C321.219 426.29 320.674 425.636 320.02 424.982C319.911 424.764 319.693 424.546 319.584 424.328C317.404 421.712 315.333 419.096 313.371 416.371C312.172 414.845 311.082 413.21 309.992 411.684C308.902 410.049 307.812 408.523 306.722 406.888C305.632 405.253 304.651 403.618 303.67 401.983C302.798 400.675 302.035 399.367 301.272 398.059C300.618 397.078 300.073 395.988 299.528 395.007C298.983 394.026 298.329 392.936 297.784 391.955C296.912 390.211 296.04 388.467 295.059 386.724C293.424 383.454 291.789 379.966 290.372 376.478C289.827 375.388 289.282 374.189 288.846 373.099C288.41 372.009 287.865 370.81 287.429 369.72C287.429 369.611 287.32 369.393 287.32 369.284C286.121 366.341 285.031 363.289 283.942 360.237C283.942 360.237 283.833 359.91 283.833 359.692C283.179 357.839 282.634 355.986 282.089 354.133C282.089 353.915 281.871 353.697 281.871 353.479C281.435 352.171 281.108 350.863 280.672 349.555C280.563 349.228 280.454 348.792 280.345 348.356C279.909 346.83 279.582 345.087 279.146 343.452C279.037 343.016 278.928 342.58 278.819 342.144C278.383 340.4 277.947 338.547 277.62 336.803C277.511 336.476 277.511 336.149 277.402 335.822C277.184 335.059 277.075 334.187 276.966 333.315C276.857 332.879 276.748 332.334 276.639 331.789C276.639 331.462 276.639 331.135 276.421 330.917C276.094 328.737 275.658 326.666 275.44 324.486C275.222 323.178 275.004 321.87 274.895 320.562C274.786 319.69 274.677 318.818 274.568 318.055C274.459 316.638 274.241 315.33 274.132 313.913C274.023 313.15 274.023 312.387 273.914 311.624C273.914 310.861 273.914 310.098 273.696 309.335C273.696 308.572 273.696 307.918 273.587 307.155C273.587 306.501 273.478 305.738 273.478 305.084V304.866C273.369 303.231 273.369 301.488 273.26 299.744V105.946H353.7V208.622H353.809V319.799C353.809 329.718 357.842 338.765 364.273 345.195C365.145 346.067 366.017 346.83 366.998 347.702C367.979 348.465 368.96 349.228 370.158 349.882C374.3 352.716 379.314 354.678 384.546 355.332C385.2 355.55 385.854 355.55 386.508 355.659C387.598 355.768 388.579 355.768 389.778 355.768H412.013C413.43 355.877 414.956 355.986 416.482 355.986C441.552 355.768 466.73 355.768 491.8 355.768C499.647 355.768 507.495 355.877 515.343 355.877H546.08C564.61 355.768 578.671 344.433 582.376 326.448C587.281 302.578 591.968 278.598 596.764 254.728L598.726 244.591C600.034 238.16 601.451 231.729 602.759 225.298C602.977 224.208 603.086 223.118 603.086 222.028C603.086 218.867 602.214 215.598 600.034 213.2C597.091 209.93 592.84 208.622 587.717 208.513H568.534C545.971 208.622 523.627 208.513 501.173 208.513H472.18C466.73 208.513 461.28 208.513 455.83 208.622C445.803 208.513 435.775 208.622 425.747 208.622C414.193 208.513 402.749 208.622 391.195 208.622C390.868 208.622 390.65 208.622 390.323 208.513L370.267 208.622V120.443C371.902 119.353 373.646 118.263 375.39 117.391C380.077 114.448 384.982 111.941 389.887 109.543C389.996 109.543 390.214 109.543 390.323 109.325C392.83 108.126 395.337 106.927 397.953 105.946C409.616 100.932 421.932 96.8994 434.576 94.0654C436.756 93.6294 438.936 93.1934 441.225 92.7575C442.315 92.5395 443.405 92.3215 444.495 92.2125C446.348 91.8855 448.092 91.5585 449.945 91.3405C452.779 90.9045 455.612 90.5775 458.446 90.2505L463.024 89.9235H463.569C464.332 89.8145 464.986 89.7055 465.749 89.7055C466.512 89.7055 467.166 89.5965 467.929 89.5965H468.256C469.128 89.5965 469.891 89.4875 470.654 89.4875C471.635 89.4875 472.507 89.4875 473.488 89.3785C475.232 89.2695 478.175 89.2695 479.919 89.2695C480.573 89.2695 481.227 89.3785 481.99 89.3785C482.862 89.3785 483.843 89.3785 484.715 89.4875H487.767C488.966 89.5965 490.165 89.5965 491.364 89.7055H491.582C492.236 89.7055 492.89 89.7055 493.544 89.7055C493.762 89.8145 493.98 89.8145 494.198 89.8145H494.525C495.833 89.9235 497.141 90.0325 498.557 90.1415C499.211 90.2505 499.756 90.3595 500.41 90.3595C500.955 90.4685 501.5 90.4685 502.045 90.5775C502.917 90.5775 503.789 90.7955 504.552 90.9045C505.206 90.9045 505.751 90.9045 506.296 91.1225H506.623C506.623 91.1225 506.95 91.1225 507.168 91.2315C507.604 91.2315 508.04 91.3405 508.367 91.3405C508.803 91.4495 509.239 91.4495 509.675 91.5585C511.201 91.7765 512.618 91.9945 514.035 92.3215C514.362 92.3215 514.689 92.3215 515.016 92.3215C516.651 92.6485 518.177 92.9755 519.812 93.3024C520.139 93.3024 520.466 93.4114 520.902 93.5204C521.12 93.5204 521.338 93.5204 521.556 93.5204C523.627 93.9564 525.807 94.5014 527.878 95.0464C528.532 95.1554 529.186 95.3734 529.84 95.4824C530.276 95.4824 530.821 95.7004 531.257 95.8094C532.347 96.1364 533.437 96.4634 534.636 96.7904C537.906 97.7713 541.066 98.6433 544.227 99.7333C545.208 100.06 546.189 100.496 547.17 100.823C547.824 101.041 548.369 101.259 549.023 101.477C550.222 101.913 551.312 102.349 552.511 102.785C554.691 103.657 556.871 104.529 559.051 105.51C561.122 106.382 563.193 107.254 565.155 108.126C565.264 108.235 565.482 108.344 565.591 108.344C566.572 108.78 567.553 109.325 568.534 109.761C569.624 110.306 570.714 110.851 571.804 111.396C573.875 112.486 575.837 113.467 577.799 114.666C579.107 115.32 580.415 116.083 581.613 116.846C582.703 117.391 583.793 118.045 584.774 118.699L589.025 121.315C589.025 121.315 589.679 121.751 590.006 121.969C590.006 121.969 590.442 122.296 590.66 122.514C591.859 123.168 593.058 124.04 594.257 124.803H594.366C594.911 125.239 595.456 125.566 596.001 126.002C597.091 126.765 598.072 127.419 599.162 128.182C599.271 128.291 599.489 128.509 599.707 128.618C600.47 129.163 601.342 129.817 602.214 130.471C602.759 130.907 603.413 131.452 604.067 131.888C604.394 132.215 604.612 132.433 604.939 132.651C605.811 133.195 606.574 133.849 607.446 134.612C607.882 134.939 608.427 135.375 608.863 135.702C609.517 136.356 610.28 136.901 611.043 137.555C611.37 137.882 611.806 138.209 612.242 138.536C612.569 138.863 613.005 139.19 613.332 139.517C614.095 140.171 614.749 140.825 615.403 141.479C616.057 141.915 616.602 142.46 617.256 143.005C617.801 143.55 618.455 144.095 619 144.64L619.327 144.967C619.327 144.967 619.654 145.403 619.872 145.512C621.071 146.711 622.27 147.801 623.359 149L624.013 149.654C625.321 150.853 626.411 152.052 627.719 153.36C628.046 153.687 628.264 154.014 628.591 154.341C629.681 155.54 630.771 156.739 631.752 157.829H631.861C632.733 158.919 633.605 160.009 634.477 160.99C635.022 161.535 635.458 162.08 636.003 162.734C636.112 162.952 636.33 163.17 636.548 163.388C638.074 165.241 639.6 167.094 641.017 169.056C642.434 170.8 643.742 172.544 645.05 174.397C645.268 174.724 645.377 174.942 645.595 175.269C646.903 177.012 647.993 178.647 649.192 180.391C649.519 180.936 649.955 181.59 650.282 182.135C651.481 183.988 652.68 185.732 653.77 187.694C655.187 189.983 656.495 192.272 657.912 194.67C658.13 195.106 658.457 195.651 658.675 196.196C659.765 198.158 660.855 200.12 661.836 202.082C662.272 203.063 662.817 204.044 663.253 205.134C663.689 206.115 664.234 207.096 664.67 208.077C665.542 210.039 666.522 212.11 667.394 214.181C668.048 215.707 668.593 217.233 669.247 218.758C669.901 220.284 670.446 221.919 671.1 223.445C671.645 225.08 672.19 226.606 672.735 228.241C673.825 231.402 674.806 234.672 675.678 237.833C676.223 239.468 676.55 241.103 676.986 242.738C677.422 244.264 677.749 245.681 678.076 247.207C678.839 250.15 679.384 253.093 679.929 256.145C680.256 257.453 680.474 258.761 680.692 260.069V260.505C680.91 261.812 681.128 263.12 681.346 264.319C681.564 265.736 681.782 267.153 681.891 268.57C682.218 270.859 682.436 273.148 682.654 275.546C682.872 277.399 682.981 279.252 683.09 281.214C683.199 282.522 683.308 283.939 683.308 285.465C683.308 286.555 683.417 287.754 683.417 288.953C683.417 290.588 683.526 292.332 683.526 293.967V294.403Z" fill="white"/>
<path d="M1499.8 218.962C1497.51 211.333 1493.58 205.12 1488.13 200.324C1482.68 195.419 1475.49 191.931 1466.55 189.86C1457.62 187.789 1446.5 186.699 1433.2 186.699H1262.51L1221.96 222.559L1175.97 263.324L1161.14 276.404L1182.72 296.351L1227.74 337.988L1265.89 373.194H1325.4V319.894H1433.2C1446.82 319.894 1458.16 319.022 1467.1 317.278C1476.04 315.534 1483.12 312.482 1488.57 308.122C1493.91 303.762 1497.73 297.986 1499.91 290.683C1502.09 283.38 1503.18 274.115 1503.18 262.997V246.866C1503.18 235.966 1501.98 226.701 1499.8 218.962ZM1461.65 261.362C1461.65 271.281 1459.47 277.821 1455.33 281.2C1451.18 284.579 1443.55 286.323 1432.66 286.323H1325.4V222.559H1432.11C1443.23 222.559 1450.86 224.412 1455.22 228.009C1459.47 231.715 1461.65 238.473 1461.65 248.501V261.362Z" fill="white"/>
<path d="M1461.65 248.492V261.354C1461.65 271.273 1459.47 277.812 1455.33 281.191C1451.19 284.57 1443.56 286.314 1432.66 286.314H1325.4V222.551H1432.11C1443.23 222.551 1450.86 224.404 1455.22 228.001C1459.47 231.707 1461.65 238.464 1461.65 248.492Z" fill="#E53420"/>
<path d="M1641.5 310.084H1674.3C1687.06 310.084 1698.18 309.212 1707.44 307.577C1716.7 305.942 1724.44 303.108 1730.55 298.967C1736.65 294.934 1741.12 289.375 1744.06 282.29C1747.01 275.314 1748.42 266.376 1748.42 255.695V242.833C1748.42 231.715 1747.12 222.45 1744.39 215.148C1741.56 207.845 1737.31 202.177 1731.31 197.926C1725.42 193.784 1717.79 190.841 1708.53 189.206C1699.27 187.571 1688.04 186.699 1674.85 186.699H1528.9V373.194H1570.21V305.397L1679.21 373.194H1750.93L1641.5 310.084ZM1570.21 221.796H1672.12C1678.88 221.796 1684.55 222.014 1689.13 222.559C1693.71 223.104 1697.19 224.194 1699.81 225.829C1702.32 227.464 1704.17 229.862 1705.26 232.914C1706.35 236.075 1706.9 240.108 1706.9 245.013V255.15C1706.9 260.163 1706.35 264.305 1705.26 267.357C1704.17 270.518 1702.32 272.916 1699.59 274.551C1696.98 276.186 1693.49 277.276 1689.02 277.821C1684.55 278.366 1678.88 278.584 1672.12 278.584H1570.21V221.796Z" fill="white"/>
<path d="M1706.9 245.017V255.154C1706.9 260.168 1706.35 264.31 1705.26 267.362C1704.17 270.523 1702.32 272.921 1699.59 274.556C1696.98 276.191 1693.49 277.28 1689.02 277.825C1684.55 278.37 1678.88 278.588 1672.13 278.588H1570.21V221.801H1672.13C1678.88 221.801 1684.55 222.019 1689.13 222.564C1693.71 223.109 1697.19 224.199 1699.81 225.834C1702.32 227.469 1704.17 229.867 1705.26 232.919C1706.35 236.079 1706.9 240.112 1706.9 245.017Z" fill="#E53420"/>
<path d="M1814.04 250.681V263.324H1972.96V296.351H1814.04V309.539C1814.04 315.207 1814.48 319.785 1815.35 323.491C1816.11 327.088 1817.64 330.031 1819.82 332.211C1822 334.391 1825.05 335.917 1828.97 336.68C1832.9 337.552 1837.8 337.988 1843.91 337.988H1974.05V373.194H1843.91C1830.17 373.194 1818.84 372.104 1809.68 369.815C1800.52 367.526 1793.33 363.929 1787.77 358.915C1782.32 353.901 1778.51 347.252 1776.22 339.187C1773.93 331.121 1772.73 321.093 1772.73 309.212V250.681C1772.73 239.018 1773.93 229.099 1776.22 220.924C1778.51 212.75 1782.32 206.101 1787.77 201.087C1793.33 196.073 1800.52 192.476 1809.68 190.187C1818.84 187.898 1830.17 186.699 1843.91 186.699H1974.05V222.45L1843.91 222.014C1837.8 222.014 1832.9 222.559 1829.08 223.54C1825.27 224.521 1822.22 226.156 1819.93 228.336C1817.64 230.516 1816.11 233.459 1815.35 237.056C1814.48 240.653 1814.04 245.231 1814.04 250.681Z" fill="white"/>
<path d="M2033.67 240.653V246.648C2033.67 252.425 2034.98 256.567 2037.7 259.074C2040.43 261.471 2045.23 262.779 2051.98 262.779H2139.18C2149.54 262.779 2158.36 263.651 2165.56 265.395C2172.75 267.139 2178.64 269.864 2183.22 273.679C2187.79 277.494 2191.06 282.399 2193.03 288.503C2195.1 294.498 2196.08 301.692 2196.08 310.084V324.799C2196.08 333.628 2195.1 341.04 2193.03 347.143C2191.06 353.247 2187.79 358.152 2183.22 361.967C2178.64 365.891 2172.75 368.616 2165.56 370.469C2158.36 372.322 2149.54 373.194 2139.18 373.194H1995.3V337.988H2137C2144.41 337.988 2149.86 336.898 2153.13 334.827C2156.4 332.756 2158.04 328.505 2158.04 322.074V311.937C2158.04 306.16 2156.4 302.019 2153.13 299.512C2149.86 297.114 2144.52 295.806 2137.22 295.806H2048.39C2038.03 295.806 2029.42 294.934 2022.55 292.972C2015.69 291.01 2010.35 288.176 2006.31 284.252C2002.28 280.328 1999.45 275.423 1997.92 269.428C1996.39 263.542 1995.63 256.567 1995.63 248.501V239.236C1995.63 229.753 1996.61 221.687 1998.68 214.93C2000.65 208.172 2003.7 202.722 2007.95 198.689C2012.09 194.547 2017.54 191.495 2024.3 189.642C2031.06 187.68 2039.12 186.699 2048.39 186.699H2196.08V221.796L2052.2 222.014C2045.88 222.014 2041.19 223.213 2038.14 225.72C2035.09 228.118 2033.67 233.132 2033.67 240.653Z" fill="white"/>
<path d="M2254.82 240.653V246.648C2254.82 252.425 2256.24 256.567 2258.97 259.074C2261.69 261.471 2266.38 262.779 2273.14 262.779H2360.33C2370.8 262.779 2379.52 263.651 2386.71 265.395C2394.01 267.139 2399.79 269.864 2404.37 273.679C2408.95 277.494 2412.22 282.399 2414.29 288.503C2416.25 294.498 2417.23 301.692 2417.23 310.084V324.799C2417.23 333.628 2416.25 341.04 2414.29 347.143C2412.22 353.247 2408.95 358.152 2404.37 361.967C2399.79 365.891 2394.01 368.616 2386.71 370.469C2379.52 372.322 2370.8 373.194 2360.33 373.194H2216.57V337.988H2358.15C2365.67 337.988 2371.02 336.898 2374.29 334.827C2377.56 332.756 2379.19 328.505 2379.19 322.074V311.937C2379.19 306.16 2377.56 302.019 2374.29 299.512C2371.02 297.114 2365.78 295.806 2358.48 295.806H2269.54C2259.18 295.806 2250.57 294.934 2243.71 292.972C2236.95 291.01 2231.5 288.176 2227.47 284.252C2223.43 280.328 2220.71 275.423 2219.18 269.428C2217.55 263.542 2216.78 256.567 2216.78 248.501V239.236C2216.78 229.753 2217.77 221.687 2219.84 214.93C2221.8 208.172 2224.96 202.722 2229.1 198.689C2233.35 194.547 2238.8 191.495 2245.56 189.642C2252.32 187.68 2260.27 186.699 2269.54 186.699H2417.23V221.796L2273.46 222.014C2267.03 222.014 2262.35 223.213 2259.29 225.72C2256.35 228.118 2254.82 233.132 2254.82 240.653Z" fill="white"/>
<path d="M1040.37 222.559H981.184L851.041 222.014C847.662 222.014 844.611 222.232 841.995 222.559H782.918C783.027 222.014 783.245 221.469 783.354 220.924C785.643 212.75 789.458 206.101 795.017 201.087C800.467 196.073 807.769 192.476 816.816 190.187C825.972 187.898 837.417 186.699 851.041 186.699H1000.04L1040.37 222.559Z" fill="white"/>
<path d="M1033.19 338L994.056 373.206H851.052C837.427 373.206 825.982 372.116 816.826 369.827C807.78 367.538 800.477 363.941 795.027 358.928C789.468 353.914 785.653 347.265 783.364 339.199C783.255 338.763 783.146 338.436 783.037 338H1033.19Z" fill="white"/>
<path d="M1101.2 276.723L1079.4 296.343H779.98V263.316H1086.15L1101.2 276.723Z" fill="white"/>
<path d="M1205.4 373.198H1052.04L1089.86 337.992L1128.55 301.914L1167.47 337.992L1205.4 373.198Z" fill="white"/>
<path d="M1205.94 186.701L1165.39 222.561L1131.06 252.863L1098.47 222.561L1059.88 186.701H1205.94Z" fill="white"/>
</g>
<defs>
<clipPath id="clip0_517_27916">
<rect width="2544" height="559.92" fill="white"/>
</clipPath>
</defs>
</svg>
