<svg width="20" height="20" viewBox="0 0 20 20" fill="none" xmlns="http://www.w3.org/2000/svg">
<path d="M12.7049 14.5904H7.29688V4.68164H12.705L12.7049 14.5904Z" fill="#FF5F00"/>
<path d="M7.63913 9.63572C7.63913 7.62574 8.56222 5.83523 9.99966 4.68135C8.91159 3.80664 7.56582 3.3319 6.1802 3.33399C2.76688 3.33399 0 6.15533 0 9.63572C0 13.1161 2.76688 15.9375 6.1802 15.9375C7.56586 15.9396 8.91167 15.4648 9.99976 14.5901C8.56242 13.4364 7.63913 11.6458 7.63913 9.63572Z" fill="#EB001B"/>
<path d="M20.0003 9.63572C20.0003 13.1161 17.2334 15.9375 13.8201 15.9375C12.4343 15.9395 11.0883 15.4648 10 14.5901C11.4378 13.4362 12.3609 11.6458 12.3609 9.63572C12.3609 7.62564 11.4378 5.83523 10 4.68136C11.0883 3.80667 12.4342 3.33194 13.82 3.33399C17.2333 3.33399 20.0002 6.15533 20.0002 9.63572" fill="#F79E1B"/>
</svg>
