<svg width="56" height="52" viewBox="0 0 56 52" fill="none" xmlns="http://www.w3.org/2000/svg">
<path d="M50.28 0H5C2.23858 0 0 2.23858 0 5V46.37C0 49.1314 2.23858 51.37 5 51.37H50.28C53.0414 51.37 55.28 49.1314 55.28 46.37V5C55.28 2.23858 53.0414 0 50.28 0Z" fill="#FEEE00"/>
<path d="M17.5897 5.5293H7.42969V8.0293H17.5897V5.5293Z" fill="black"/>
<path d="M47.8505 27.0095C47.8505 27.1695 47.8405 27.3295 47.8405 27.4895C47.8405 27.6095 47.8305 27.7295 47.8305 27.8495C47.8205 27.9595 47.8205 28.0595 47.8105 28.1595C47.8105 28.2995 47.7905 28.4395 47.7805 28.5895C47.7605 28.8195 47.7405 29.0494 47.7105 29.2794C47.7005 29.4094 47.6805 29.5295 47.6605 29.6495C47.6405 29.7795 47.6305 29.8995 47.6105 30.0195C47.5905 30.1395 47.5705 30.2595 47.5505 30.3795C47.5405 30.3995 47.5405 30.4295 47.5305 30.4595C47.5105 30.5795 47.4905 30.6995 47.4605 30.8095C47.4505 30.8495 47.4505 30.8995 47.4405 30.9395C47.4305 30.9795 47.4205 31.0195 47.4105 31.0695C47.3905 31.1395 47.3705 31.2195 47.3605 31.2995C47.3505 31.2995 47.3505 31.3095 47.3505 31.3095C47.3505 31.3295 47.3405 31.3595 47.3405 31.3795C47.3305 31.3895 47.3305 31.3995 47.3305 31.4095C47.3205 31.4295 47.3205 31.4495 47.3205 31.4695C47.2905 31.5895 47.2505 31.7195 47.2205 31.8395C47.2205 31.8595 47.2105 31.8695 47.2105 31.8795C47.1705 32.0295 47.1305 32.1795 47.0805 32.3295C47.0705 32.3995 47.0505 32.4495 47.0305 32.4895C47.0005 32.5995 46.9705 32.6995 46.9305 32.7995C46.9105 32.8795 46.8905 32.9594 46.8605 33.0294C46.8405 33.1094 46.8105 33.1795 46.7805 33.2595V33.2794C46.7305 33.3995 46.6905 33.5095 46.6505 33.6295C46.6405 33.6595 46.6305 33.6795 46.6205 33.7095C46.6205 33.7295 46.6205 33.7495 46.6005 33.7695C46.5505 33.8795 46.5105 33.9895 46.4705 34.0995C46.4605 34.0995 46.4505 34.1295 46.4405 34.1495C46.3905 34.2995 46.3305 34.4395 46.2605 34.5895C46.1905 34.7295 46.1305 34.8795 46.0605 35.0195C46.0405 35.0795 46.0105 35.1295 45.9805 35.1895C45.9405 35.2795 45.9005 35.3595 45.8605 35.4495C45.8205 35.5195 45.7905 35.5895 45.7505 35.6595C45.7105 35.7295 45.6805 35.7895 45.6405 35.8595C45.5605 35.9995 45.4805 36.1395 45.4105 36.2794C45.1005 36.8294 44.7605 37.3595 44.4005 37.8695C44.3005 38.0195 44.1905 38.1595 44.0805 38.3095C44.0105 38.3995 43.9505 38.4795 43.8805 38.5595C43.7405 38.7495 43.5905 38.9395 43.4305 39.1195C43.4005 39.1595 43.3705 39.1995 43.3405 39.2295C43.2505 39.3295 43.1705 39.4295 43.0905 39.5195C43.0505 39.5695 43.0005 39.6195 42.9605 39.6695C42.9505 39.6795 42.9405 39.6895 42.9305 39.6895C42.7905 39.8495 42.6405 39.9995 42.5005 40.1495C42.4605 40.1795 42.4305 40.2195 42.4005 40.2395C42.2705 40.3795 42.1405 40.5095 42.0105 40.6295L41.9805 40.6595C41.9805 40.6595 41.9505 40.6795 41.9505 40.6895C41.8605 40.7795 41.7705 40.8595 41.6805 40.9395C41.6105 41.0095 41.5405 41.0695 41.4705 41.1295C41.3805 41.2095 41.2805 41.2895 41.1805 41.3795C41.1405 41.4095 41.1105 41.4395 41.0705 41.4695C40.9805 41.5495 40.8805 41.6195 40.7905 41.6995C40.7705 41.7095 40.7605 41.7295 40.7405 41.7395C40.7105 41.7595 40.6805 41.7895 40.6605 41.8095C40.6505 41.8095 40.6405 41.8195 40.6305 41.8295C40.6205 41.8395 40.6105 41.8395 40.6005 41.8495L40.5705 41.8795C40.5105 41.9095 40.4705 41.9495 40.4205 41.9895C40.2105 42.1495 40.0005 42.2995 39.7805 42.4495C39.7005 42.5095 39.6205 42.5595 39.5405 42.6195C39.4205 42.6995 39.3005 42.7794 39.1805 42.8595C39.0605 42.9295 38.9305 43.0095 38.8105 43.0895C38.7705 43.1095 38.7305 43.1395 38.6905 43.1595C38.5505 43.2495 38.4005 43.3295 38.2505 43.4095C38.1705 43.4595 38.0805 43.5095 38.0005 43.5495C37.9205 43.5995 37.8405 43.6395 37.7505 43.6795C37.6305 43.7495 37.5105 43.8095 37.3905 43.8695C37.2305 43.9495 37.0605 44.0294 36.9005 44.1095C36.7405 44.1795 36.5705 44.2595 36.4005 44.3295C36.2605 44.3895 36.1205 44.4495 35.9705 44.5095C35.8205 44.5695 35.6505 44.6295 35.4905 44.6895C35.4405 44.7095 35.3905 44.7295 35.3505 44.7495C35.3005 44.7594 35.2505 44.7795 35.2005 44.7895C35.1705 44.8095 35.1405 44.8195 35.1005 44.8295C35.0705 44.8395 35.0505 44.8495 35.0205 44.8595C34.9905 44.8694 34.9605 44.8795 34.9405 44.8895C34.8805 44.9095 34.8305 44.9195 34.7705 44.9395C34.7505 44.9495 34.7305 44.9595 34.7105 44.9595C34.7005 44.9695 34.6905 44.9695 34.6905 44.9695C34.6705 44.9795 34.6505 44.9795 34.6205 44.9895C34.4605 45.0395 34.2905 45.0895 34.1205 45.1395C33.9905 45.1694 33.8605 45.2094 33.7305 45.2495H33.7105C33.7105 45.2495 33.6505 45.2595 33.6205 45.2695C33.6205 45.2695 33.5905 45.2794 33.5805 45.2794C33.5705 45.2794 33.5605 45.2895 33.5505 45.2895C33.4705 45.3095 33.4005 45.3195 33.3305 45.3395C33.2505 45.3595 33.1805 45.3795 33.1005 45.3895C33.0705 45.3994 33.0305 45.4095 32.9905 45.4195C32.8205 45.4495 32.6505 45.4795 32.4805 45.5195C32.3305 45.5495 32.1705 45.5695 32.0105 45.5995C31.9805 45.5995 31.9505 45.5995 31.9205 45.5995C31.8905 45.6095 31.8605 45.6095 31.8305 45.6195C31.7805 45.6195 31.7405 45.6295 31.6905 45.6395C31.6605 45.6494 31.6205 45.6495 31.5805 45.6495C31.5305 45.6495 31.4905 45.6695 31.4405 45.6695C31.4105 45.6695 31.3805 45.6795 31.3505 45.6795C31.3105 45.6895 31.2605 45.6895 31.2205 45.6995C31.1705 45.6995 31.1205 45.7095 31.0805 45.7095C30.9805 45.7195 30.8805 45.7395 30.7805 45.7395C30.6905 45.7495 30.6105 45.7595 30.5305 45.7695C30.4505 45.7695 30.3705 45.7794 30.2905 45.7794C30.2605 45.7794 30.2205 45.7794 30.1805 45.7794C30.1005 45.7894 30.0205 45.7895 29.9305 45.7895C29.8605 45.7995 29.7905 45.7995 29.7205 45.7995C29.6505 45.8095 29.5805 45.8095 29.5105 45.8095C29.4305 45.8095 29.3505 45.8095 29.2705 45.8195H28.7805C28.7005 45.8095 28.6205 45.8095 28.5405 45.8095C28.4105 45.8095 28.2805 45.7995 28.1505 45.7895H28.0605C27.9505 45.7895 27.8405 45.7795 27.7405 45.7695H27.6005C27.4405 45.7495 27.2905 45.7295 27.1305 45.7195H27.0805C27.0805 45.7195 27.0405 45.7195 27.0205 45.7195C26.9905 45.7195 26.9505 45.7095 26.9205 45.7095C26.8405 45.6995 26.7705 45.6895 26.7005 45.6795H26.6905C26.6105 45.6695 26.5305 45.6595 26.4505 45.6495C26.4305 45.6495 26.4205 45.6395 26.4005 45.6395C26.3405 45.6295 26.2905 45.6195 26.2305 45.6195C26.0505 45.5895 25.8705 45.5594 25.6905 45.5294C25.5805 45.5094 25.4705 45.4895 25.3605 45.4695C25.3505 45.4595 25.3405 45.4595 25.3305 45.4595C25.2705 45.4495 25.2105 45.4395 25.1605 45.4195C25.1005 45.4095 25.0405 45.3995 24.9805 45.3795C24.7705 45.3395 24.5705 45.2895 24.3705 45.2395C24.1805 45.1895 23.9805 45.1395 23.7905 45.0795C23.6405 45.0395 23.5005 44.9895 23.3605 44.9495C23.2105 44.8995 23.0705 44.8595 22.9305 44.8095C22.8305 44.7695 22.7205 44.7395 22.6305 44.6995C22.4905 44.6495 22.3505 44.5995 22.2205 44.5395C22.1805 44.5395 22.1405 44.5195 22.1105 44.4995C22.0905 44.4895 22.0805 44.4895 22.0705 44.4895C22.0605 44.4795 22.0505 44.4795 22.0405 44.4795C22.0105 44.4595 21.9705 44.4495 21.9405 44.4295C21.9105 44.4195 21.8705 44.4095 21.8405 44.3895C21.7105 44.3395 21.5905 44.2895 21.4705 44.2295C21.3305 44.1695 21.1805 44.0995 21.0305 44.0395C21.0105 44.0395 20.9905 44.0195 20.9705 44.0095C20.9505 43.9995 20.9305 43.9895 20.9205 43.9795C20.9105 43.9795 20.9005 43.9795 20.9005 43.9795C20.8605 43.9595 20.8105 43.9395 20.7705 43.9195C20.7105 43.8895 20.6605 43.8695 20.6005 43.8395H20.5905C20.4905 43.7895 20.3905 43.7395 20.2905 43.6795C20.1705 43.6195 20.0505 43.5595 19.9405 43.4895C19.8205 43.4295 19.7005 43.3595 19.5905 43.2995C19.4705 43.2295 19.3605 43.1595 19.2405 43.0895C19.1505 43.0395 19.0605 42.9795 18.9605 42.9195C18.8905 42.8695 18.8105 42.8195 18.7305 42.7695C18.6805 42.7395 18.6305 42.6995 18.5705 42.6595C18.4605 42.5895 18.3505 42.5095 18.2405 42.4395C18.0105 42.2695 17.7805 42.1095 17.5605 41.9295C17.4705 41.8595 17.3805 41.7895 17.2905 41.7195C17.1905 41.6395 17.0905 41.5595 16.9905 41.4795C16.9905 41.4695 16.9905 41.4695 16.9905 41.4695H16.9805C16.7905 41.2995 16.6005 41.1295 16.4105 40.9695C16.3905 40.9395 16.3605 40.9194 16.3305 40.8895C16.1605 40.7394 15.9905 40.5795 15.8305 40.4095C15.8105 40.3995 15.7905 40.3795 15.7705 40.3595L15.6805 40.2595C15.5105 40.0895 15.3405 39.9195 15.1805 39.7395C15.1505 39.7095 15.1205 39.6795 15.0905 39.6495C15.0305 39.5795 14.9605 39.5095 14.9005 39.4295C14.8405 39.3695 14.7805 39.2995 14.7205 39.2295C14.7005 39.2095 14.6905 39.1895 14.6705 39.1795C14.6205 39.1095 14.5705 39.0495 14.5105 38.9895C14.5005 38.9695 14.4805 38.9495 14.4705 38.9295C14.2705 38.6895 14.0805 38.4495 13.9005 38.1995C13.7905 38.0595 13.6905 37.9095 13.5905 37.7695C13.4905 37.6195 13.3905 37.4795 13.2905 37.3295C13.1905 37.1795 13.1005 37.0295 13.0105 36.8795C12.9305 36.7595 12.8605 36.6395 12.7905 36.5195C12.7305 36.4295 12.6805 36.3295 12.6305 36.2395C12.5805 36.1495 12.5205 36.0495 12.4705 35.9595C12.3905 35.7995 12.3105 35.6395 12.2205 35.4795C12.0705 35.1795 11.9205 34.8595 11.7905 34.5395C11.7405 34.4395 11.6905 34.3295 11.6505 34.2295C11.6105 34.1295 11.5605 34.0195 11.5205 33.9195C11.5205 33.9195 11.5105 33.8895 11.5105 33.8795C11.4005 33.6095 11.3005 33.3295 11.2005 33.0495C11.2005 33.0495 11.1905 33.0195 11.1905 32.9995C11.1305 32.8295 11.0805 32.6595 11.0305 32.4895C11.0205 32.4695 11.0105 32.4495 11.0105 32.4295C10.9705 32.3095 10.9405 32.1895 10.9005 32.0695C10.8905 32.0395 10.8805 31.9995 10.8705 31.9595C10.8305 31.8195 10.8005 31.6595 10.7605 31.5095C10.7505 31.4695 10.7405 31.4295 10.7305 31.3895C10.6905 31.2295 10.6505 31.0595 10.6205 30.8995C10.6105 30.8695 10.6105 30.8395 10.6005 30.8095C10.5805 30.7395 10.5705 30.6595 10.5605 30.5795C10.5505 30.5395 10.5405 30.4895 10.5305 30.4395C10.5205 30.4095 10.5205 30.3795 10.5105 30.3595C10.4805 30.1595 10.4405 29.9695 10.4205 29.7695C10.4005 29.6495 10.3805 29.5295 10.3705 29.4095C10.3605 29.3295 10.3505 29.2495 10.3405 29.1795C10.3305 29.0495 10.3105 28.9295 10.3005 28.7995C10.2905 28.7295 10.2905 28.6595 10.2805 28.5895C10.2705 28.5195 10.2705 28.4495 10.2605 28.3795C10.2605 28.3095 10.2605 28.2495 10.2505 28.1795C10.2505 28.1195 10.2505 28.0495 10.2505 27.9895V27.9695C10.2405 27.8195 10.2405 27.6595 10.2305 27.4995V9.71945H17.6105V19.1395H17.6205V29.3395C17.6205 30.2495 17.9905 31.0795 18.5805 31.6695C18.6605 31.7495 18.7405 31.8195 18.8305 31.8995C18.9205 31.9695 19.0105 32.0395 19.1205 32.0995C19.5005 32.3595 19.9605 32.5395 20.4405 32.5995C20.5005 32.6195 20.5605 32.6195 20.6205 32.6295C20.7205 32.6395 20.8105 32.6395 20.9205 32.6395H22.9605C23.0905 32.6495 23.2305 32.6595 23.3705 32.6595C25.6705 32.6395 27.9805 32.6395 30.2805 32.6395C31.0005 32.6395 31.7205 32.6495 32.4405 32.6495H35.2605C36.9605 32.6395 38.2505 31.5995 38.5905 29.9495C39.0405 27.7595 39.4705 25.5595 39.9105 23.3695L40.0905 22.4395C40.2105 21.8495 40.3405 21.2595 40.4605 20.6695C40.4805 20.5695 40.4905 20.4695 40.4905 20.3695C40.4905 20.0795 40.4105 19.7795 40.2105 19.5595C39.9405 19.2595 39.5505 19.1395 39.0805 19.1295H37.3205C35.2505 19.1395 33.2005 19.1295 31.1405 19.1295H28.4805C27.9805 19.1295 27.4805 19.1294 26.9805 19.1395H26.9705C26.0505 19.1294 25.1305 19.1395 24.2105 19.1395C23.1505 19.1294 22.1005 19.1395 21.0405 19.1395C21.0105 19.1395 20.9905 19.1395 20.9605 19.1295L19.1205 19.1395V11.0495C19.2705 10.9495 19.4305 10.8495 19.5905 10.7695C20.0205 10.4995 20.4705 10.2695 20.9205 10.0495C20.9305 10.0495 20.9505 10.0494 20.9605 10.0294C21.1905 9.91945 21.4205 9.80945 21.6605 9.71945C22.7305 9.25945 23.8605 8.88946 25.0205 8.62946C25.2205 8.58946 25.4205 8.54946 25.6305 8.50946C25.7305 8.48946 25.8305 8.46946 25.9305 8.45946C26.1005 8.42946 26.2605 8.39946 26.4305 8.37946C26.6905 8.33946 26.9505 8.30945 27.2105 8.27945L27.6305 8.24945H27.6805C27.7505 8.23945 27.8105 8.22946 27.8805 8.22946C27.9505 8.22946 28.0105 8.21945 28.0805 8.21945H28.1105C28.1905 8.21945 28.2605 8.20946 28.3305 8.20946C28.4205 8.20946 28.5005 8.20946 28.5905 8.19946C28.7505 8.18946 29.0205 8.18945 29.1805 8.18945C29.2405 8.18945 29.3005 8.19946 29.3705 8.19946C29.4505 8.19946 29.5405 8.19946 29.6205 8.20946H29.9005C30.0105 8.21946 30.1205 8.21946 30.2305 8.22946H30.2505C30.3105 8.22946 30.3705 8.22946 30.4305 8.22946C30.4505 8.23946 30.4705 8.23946 30.4905 8.23946H30.5205C30.6405 8.24946 30.7605 8.25945 30.8905 8.26945C30.9505 8.27945 31.0005 8.28946 31.0605 8.28946C31.1105 8.29946 31.1605 8.29946 31.2105 8.30946C31.2905 8.30946 31.3705 8.32946 31.4405 8.33946C31.5005 8.33946 31.5505 8.33945 31.6005 8.35945H31.6305C31.6305 8.35945 31.6605 8.35946 31.6805 8.36946C31.7205 8.36946 31.7605 8.37946 31.7905 8.37946C31.8305 8.38946 31.8705 8.38946 31.9105 8.39946C32.0505 8.41946 32.1805 8.43945 32.3105 8.46945C32.3405 8.46945 32.3705 8.46945 32.4005 8.46945C32.5505 8.49945 32.6905 8.52946 32.8405 8.55946C32.8705 8.55946 32.9005 8.56945 32.9405 8.57945C32.9605 8.57945 32.9805 8.57945 33.0005 8.57945C33.1905 8.61945 33.3905 8.66945 33.5805 8.71945C33.6405 8.72945 33.7005 8.74946 33.7605 8.75946C33.8005 8.75946 33.8505 8.77946 33.8905 8.78946C33.9905 8.81946 34.0905 8.84946 34.2005 8.87946C34.5005 8.96946 34.7905 9.04946 35.0805 9.14946C35.1705 9.17946 35.2605 9.21945 35.3505 9.24945C35.4105 9.26945 35.4605 9.28946 35.5205 9.30946C35.6305 9.34946 35.7305 9.38946 35.8405 9.42946C36.0405 9.50946 36.2405 9.58946 36.4405 9.67946C36.6305 9.75946 36.8205 9.83946 37.0005 9.91946C37.0005 9.92946 37.0305 9.93945 37.0405 9.93945C37.1305 9.97945 37.2205 10.0295 37.3105 10.0695C37.4105 10.1195 37.5105 10.1695 37.6105 10.2195C37.8005 10.3195 37.9805 10.4095 38.1605 10.5195C38.2805 10.5795 38.4005 10.6495 38.5105 10.7195C38.6105 10.7695 38.7105 10.8295 38.8005 10.8895L39.1905 11.1295C39.1905 11.1295 39.2505 11.1695 39.2805 11.1895H39.2905C39.2905 11.1895 39.3305 11.2195 39.3505 11.2395C39.4605 11.2995 39.5705 11.3795 39.6805 11.4495H39.6905C39.7405 11.4895 39.7905 11.5195 39.8405 11.5595C39.9405 11.6295 40.0305 11.6895 40.1305 11.7595C40.1305 11.7695 40.1605 11.7895 40.1805 11.7995C40.2505 11.8495 40.3305 11.9095 40.4105 11.9695C40.4605 12.0095 40.5205 12.0595 40.5805 12.0995C40.6105 12.1295 40.6305 12.1495 40.6605 12.1695C40.7405 12.2195 40.8105 12.2795 40.8905 12.3495C40.9305 12.3795 40.9805 12.4195 41.0205 12.4495C41.0805 12.5095 41.1505 12.5595 41.2205 12.6195C41.2505 12.6495 41.2905 12.6795 41.3305 12.7095C41.3605 12.7395 41.4005 12.7695 41.4305 12.7995C41.5005 12.8595 41.5605 12.9195 41.6205 12.9795C41.6805 13.0195 41.7305 13.0695 41.7905 13.1195C41.8405 13.1695 41.9005 13.2195 41.9505 13.2695L41.9805 13.2995C41.9805 13.2995 42.0105 13.3395 42.0305 13.3495C42.1405 13.4595 42.2505 13.5595 42.3505 13.6695L42.4105 13.7295C42.5305 13.8395 42.6305 13.9495 42.7505 14.0695C42.7805 14.0995 42.8005 14.1295 42.8305 14.1595C42.9305 14.2695 43.0305 14.3795 43.1205 14.4795H43.1305C43.2105 14.5795 43.2905 14.6795 43.3705 14.7695C43.4205 14.8195 43.4605 14.8695 43.5105 14.9295C43.5205 14.9495 43.5405 14.9695 43.5605 14.9895C43.7005 15.1595 43.8405 15.3295 43.9705 15.5095C44.1005 15.6695 44.2205 15.8295 44.3405 15.9995C44.3605 16.0295 44.3705 16.0495 44.3905 16.0795C44.5105 16.2395 44.6105 16.3895 44.7205 16.5495C44.7505 16.5995 44.7905 16.6595 44.8205 16.7095C44.9305 16.8795 45.0405 17.0395 45.1405 17.2195C45.2705 17.4295 45.3905 17.6395 45.5205 17.8595C45.5405 17.8995 45.5705 17.9495 45.5905 17.9995C45.6905 18.1795 45.7905 18.3595 45.8805 18.5395C45.9205 18.6295 45.9705 18.7195 46.0105 18.8195C46.0505 18.9095 46.1005 18.9995 46.1405 19.0895C46.2205 19.2695 46.3105 19.4595 46.3905 19.6495C46.4505 19.7895 46.5005 19.9295 46.5605 20.0695C46.6205 20.2095 46.6705 20.3595 46.7305 20.4995C46.7805 20.6495 46.8305 20.7895 46.8805 20.9395C46.9805 21.2295 47.0705 21.5295 47.1505 21.8195C47.2005 21.9695 47.2305 22.1195 47.2705 22.2695C47.3105 22.4095 47.3405 22.5395 47.3705 22.6795C47.4405 22.9495 47.4905 23.2195 47.5405 23.4995C47.5705 23.6195 47.5905 23.7395 47.6105 23.8595V23.8995C47.6305 24.0195 47.6505 24.1395 47.6705 24.2495C47.6905 24.3794 47.7105 24.5095 47.7205 24.6395C47.7505 24.8494 47.7705 25.0595 47.7905 25.2794C47.8105 25.4494 47.8205 25.6195 47.8305 25.7995C47.8405 25.9195 47.8505 26.0495 47.8505 26.1895C47.8505 26.2895 47.8605 26.3995 47.8605 26.5095C47.8605 26.6595 47.8705 26.8195 47.8705 26.9695L47.8505 27.0095Z" fill="black"/>
</svg>
