<svg width="274" height="52" viewBox="0 0 274 52" fill="none" xmlns="http://www.w3.org/2000/svg">
<path d="M268.55 0H5C2.23858 0 0 2.23858 0 5V46.37C0 49.1314 2.23858 51.37 5 51.37H268.55C271.311 51.37 273.55 49.1314 273.55 46.37V5C273.55 2.23858 271.311 0 268.55 0Z" fill="#FEEE00"/>
<path d="M28.8709 5.5293H18.7109V8.0293H28.8709V5.5293Z" fill="#404553"/>
<path d="M59.1317 27.0095C59.1317 27.1695 59.1217 27.3295 59.1217 27.4895C59.1217 27.6095 59.1217 27.7295 59.1217 27.8495C59.1117 27.9595 59.1117 28.0595 59.1017 28.1595C59.0917 28.2995 59.0817 28.4395 59.0717 28.5895C59.0517 28.8195 59.0317 29.0495 59.0017 29.2795C58.9917 29.4095 58.9717 29.5295 58.9517 29.6495C58.9317 29.7795 58.9217 29.8995 58.9017 30.0195C58.8817 30.1395 58.8617 30.2595 58.8417 30.3795C58.8317 30.3995 58.8317 30.4295 58.8217 30.4595C58.8017 30.5795 58.7817 30.6995 58.7517 30.8095C58.7417 30.8495 58.7417 30.8995 58.7317 30.9395C58.7217 30.9795 58.7117 31.0195 58.7017 31.0695C58.6717 31.1695 58.6517 31.2795 58.6317 31.3795C58.6317 31.3895 58.6317 31.3995 58.6317 31.4095C58.6217 31.4295 58.6217 31.4495 58.6217 31.4695C58.5917 31.5895 58.5517 31.7195 58.5217 31.8395C58.5217 31.8595 58.5117 31.8695 58.5117 31.8795C58.4717 32.0295 58.4317 32.1795 58.3817 32.3295C58.3717 32.3995 58.3517 32.4495 58.3317 32.4895C58.3017 32.5995 58.2717 32.6995 58.2317 32.7995C58.2117 32.8795 58.1917 32.9595 58.1617 33.0295C58.1417 33.1095 58.1117 33.1795 58.0817 33.2595V33.2795C58.0317 33.3995 57.9917 33.5095 57.9517 33.6295C57.9517 33.6595 57.9317 33.6795 57.9217 33.7095C57.9117 33.7295 57.9117 33.7495 57.9017 33.7695C57.8517 33.8795 57.8117 33.9895 57.7717 34.0995C57.7617 34.1095 57.7517 34.1295 57.7417 34.1495C57.6917 34.2995 57.6317 34.4395 57.5617 34.5895C57.4917 34.7295 57.4317 34.8795 57.3617 35.0195C57.3417 35.0795 57.3117 35.1295 57.2817 35.1895C57.2417 35.2795 57.2017 35.3595 57.1617 35.4495C57.1217 35.5195 57.0917 35.5895 57.0517 35.6595C57.0117 35.7295 56.9817 35.7895 56.9417 35.8595C56.8617 35.9995 56.7817 36.1395 56.7117 36.2795C56.4017 36.8295 56.0617 37.3595 55.7017 37.8695C55.6017 38.0195 55.4917 38.1595 55.3817 38.3095C55.3117 38.3995 55.2517 38.4795 55.1817 38.5595C55.0417 38.7495 54.8917 38.9395 54.7317 39.1195C54.7017 39.1595 54.6717 39.1995 54.6417 39.2295C54.5517 39.3295 54.4717 39.4295 54.3917 39.5195C54.3517 39.5695 54.3017 39.6195 54.2617 39.6695C54.2517 39.6795 54.2417 39.6895 54.2317 39.6895C54.0917 39.8495 53.9417 39.9995 53.8017 40.1495C53.7617 40.1795 53.7317 40.2195 53.7017 40.2395C53.5717 40.3795 53.4417 40.5095 53.3117 40.6295L53.2817 40.6595C53.2817 40.6595 53.2517 40.6795 53.2517 40.6895C53.1617 40.7795 53.0717 40.8595 52.9817 40.9395C52.9117 41.0095 52.8417 41.0695 52.7717 41.1295C52.6817 41.2095 52.5817 41.2895 52.4817 41.3795C52.4417 41.4095 52.4117 41.4395 52.3717 41.4695C52.2817 41.5495 52.1817 41.6195 52.0917 41.6995C52.0717 41.7095 52.0617 41.7295 52.0417 41.7395C52.0117 41.7595 51.9817 41.7895 51.9617 41.8095C51.9517 41.8095 51.9417 41.8095 51.9317 41.8295C51.9217 41.8495 51.9117 41.8395 51.9017 41.8495C51.8917 41.8595 51.8817 41.8695 51.8717 41.8795C51.8117 41.9095 51.7717 41.9495 51.7217 41.9895C51.5117 42.1495 51.3017 42.2995 51.0817 42.4495C51.0017 42.5095 50.9217 42.5595 50.8417 42.6195C50.7217 42.6995 50.6017 42.7795 50.4817 42.8595C50.3617 42.9295 50.2317 43.0095 50.1117 43.0895C50.0717 43.1095 50.0317 43.1395 49.9917 43.1595C49.8517 43.2495 49.7017 43.3295 49.5517 43.4095C49.4717 43.4595 49.3817 43.5095 49.3017 43.5495C49.2217 43.5995 49.1417 43.6395 49.0517 43.6795C48.9317 43.7495 48.8117 43.8095 48.6917 43.8695C48.5317 43.9495 48.3617 44.0295 48.2017 44.1095C48.0417 44.1795 47.8717 44.2595 47.7017 44.3295C47.5617 44.3895 47.4217 44.4495 47.2717 44.5095C47.1217 44.5695 46.9517 44.6295 46.7917 44.6895C46.7417 44.7095 46.6917 44.7295 46.6517 44.7495C46.6017 44.7495 46.5517 44.7795 46.5017 44.7895C46.4717 44.8095 46.4417 44.8195 46.4017 44.8295C46.3717 44.8395 46.3517 44.8495 46.3217 44.8595C46.2917 44.8695 46.2617 44.8795 46.2417 44.8895C46.1817 44.9095 46.1317 44.9195 46.0717 44.9395C46.0517 44.9495 46.0317 44.9595 46.0117 44.9595C46.0017 44.9695 45.9917 44.9695 45.9917 44.9695C45.9717 44.9795 45.9517 44.9795 45.9217 44.9895C45.7617 45.0395 45.5917 45.0895 45.4217 45.1395C45.2517 45.1795 45.0917 45.2295 44.9217 45.2695C44.9117 45.2695 44.8917 45.2795 44.8817 45.2795C44.8717 45.2795 44.8617 45.2895 44.8517 45.2895C44.7717 45.3095 44.7017 45.3195 44.6317 45.3395C44.5517 45.3595 44.4817 45.3795 44.4017 45.3895C44.3717 45.3995 44.3317 45.4095 44.2917 45.4195C44.1217 45.4495 43.9517 45.4795 43.7817 45.5195C43.6317 45.5495 43.4717 45.5695 43.3117 45.5995C43.2817 45.6095 43.2517 45.6095 43.2217 45.6095C43.1917 45.6195 43.1617 45.6195 43.1317 45.6295C43.0817 45.6295 43.0417 45.6395 42.9917 45.6495C42.9617 45.6595 42.9217 45.6595 42.8817 45.6595C42.8317 45.6695 42.7917 45.6795 42.7417 45.6795C42.7117 45.6795 42.6817 45.6795 42.6517 45.6795C42.6117 45.6895 42.5617 45.6895 42.5217 45.6995C42.4717 45.6995 42.4217 45.7095 42.3817 45.7095C42.2817 45.7195 42.1817 45.7395 42.0817 45.7395C41.9917 45.7395 41.9117 45.7595 41.8317 45.7695C41.7517 45.7695 41.6717 45.7795 41.5917 45.7795C41.5617 45.7895 41.5217 45.7895 41.4817 45.7895C41.4017 45.7995 41.3217 45.7995 41.2317 45.7995C41.1617 45.7995 41.0917 45.7995 41.0217 45.7995C40.9517 45.8095 40.8817 45.8095 40.8117 45.8095C40.7317 45.8095 40.6517 45.8095 40.5717 45.8195H40.0817C40.0017 45.8095 39.9217 45.8095 39.8417 45.8095C39.7117 45.8095 39.5817 45.7995 39.4517 45.7895H39.3617C39.2517 45.7895 39.1417 45.7795 39.0417 45.7695H38.9017C38.7417 45.7495 38.5917 45.7295 38.4317 45.7195H38.3817C38.3817 45.7195 38.3417 45.7095 38.3217 45.7095C38.2917 45.7095 38.2517 45.6995 38.2217 45.6995C38.1417 45.6895 38.0717 45.6795 38.0017 45.6695H37.9917C37.9117 45.6695 37.8317 45.6495 37.7517 45.6395C37.7317 45.6395 37.7217 45.6295 37.7017 45.6295C37.6417 45.6195 37.5917 45.6095 37.5317 45.6095C37.3517 45.5795 37.1717 45.5495 36.9917 45.5195C36.8817 45.4995 36.7717 45.4795 36.6617 45.4595C36.6517 45.4495 36.6417 45.4495 36.6317 45.4495C36.5717 45.4395 36.5117 45.4295 36.4617 45.4095C36.4017 45.3995 36.3417 45.3895 36.2817 45.3695C36.0717 45.3295 35.8717 45.2795 35.6717 45.2295C35.4817 45.1795 35.2817 45.1295 35.0917 45.0695C34.9417 45.0295 34.8017 44.9795 34.6617 44.9395C34.5117 44.8895 34.3717 44.8495 34.2317 44.7995C34.1317 44.7595 34.0217 44.7295 33.9317 44.6895C33.7917 44.6395 33.6517 44.5895 33.5217 44.5295C33.4817 44.5195 33.4417 44.5095 33.4117 44.4895C33.3917 44.4895 33.3817 44.4895 33.3717 44.4895C33.3617 44.4795 33.3517 44.4795 33.3417 44.4795C33.3117 44.4595 33.2717 44.4495 33.2417 44.4295C33.2117 44.4295 33.1717 44.4095 33.1417 44.3895C33.0117 44.3395 32.8917 44.2895 32.7717 44.2295C32.6317 44.1695 32.4817 44.0995 32.3317 44.0395L32.2717 44.0095C32.2717 44.0095 32.2317 43.9895 32.2217 43.9795C32.2117 43.9795 32.2017 43.9795 32.2017 43.9695C32.1617 43.9495 32.1117 43.9295 32.0717 43.9095C32.0117 43.8795 31.9617 43.8595 31.9017 43.8295H31.8917C31.7917 43.7795 31.6917 43.7295 31.5917 43.6695C31.4717 43.6095 31.3517 43.5495 31.2417 43.4795C31.1217 43.4195 31.0017 43.3495 30.8917 43.2895C30.7717 43.2195 30.6617 43.1495 30.5417 43.0795C30.4517 43.0295 30.3617 42.9695 30.2617 42.9095C30.1917 42.8595 30.1117 42.8095 30.0317 42.7595C29.9817 42.7295 29.9317 42.6895 29.8717 42.6495C29.7617 42.5795 29.6517 42.4995 29.5417 42.4295C29.3117 42.2595 29.0817 42.0995 28.8617 41.9195C28.7717 41.8495 28.6817 41.7795 28.5917 41.7095C28.4917 41.6295 28.3917 41.5495 28.2917 41.4695C28.2917 41.4595 28.2817 41.4595 28.2817 41.4595H28.2717C28.0817 41.2895 27.8917 41.1195 27.7017 40.9595C27.6817 40.9295 27.6517 40.9095 27.6217 40.8795C27.4517 40.7295 27.2817 40.5695 27.1217 40.3995C27.1017 40.3895 27.0817 40.3695 27.0617 40.3495L26.9717 40.2495C26.8017 40.0795 26.6317 39.9095 26.4717 39.7295C26.4417 39.6995 26.4117 39.6695 26.3817 39.6395C26.3217 39.5695 26.2517 39.4995 26.1917 39.4195C26.1317 39.3595 26.0717 39.2895 26.0117 39.2195C25.9917 39.1995 25.9817 39.1795 25.9617 39.1695C25.9117 39.0995 25.8617 39.0395 25.8017 38.9795C25.7917 38.9595 25.7717 38.9395 25.7617 38.9195C25.5617 38.6795 25.3717 38.4395 25.1917 38.1895C25.0817 38.0495 24.9817 37.8995 24.8817 37.7595C24.7817 37.6095 24.6817 37.4695 24.5817 37.3195C24.4817 37.1695 24.3917 37.0195 24.3017 36.8695C24.2217 36.7495 24.1517 36.6295 24.0817 36.5095C24.0217 36.4195 23.9717 36.3195 23.9217 36.2295C23.8717 36.1395 23.8117 36.0395 23.7617 35.9495C23.6817 35.7895 23.6017 35.6295 23.5117 35.4695C23.3617 35.1695 23.2117 34.8495 23.0817 34.5295C23.0317 34.4295 22.9817 34.3195 22.9417 34.2195C22.9017 34.1195 22.8517 34.0095 22.8117 33.9095C22.8117 33.8995 22.8017 33.8795 22.8017 33.8695C22.6917 33.5995 22.5917 33.3195 22.4917 33.0395C22.4917 33.0295 22.4817 33.0095 22.4817 32.9895C22.4217 32.8195 22.3717 32.6495 22.3217 32.4795C22.3117 32.4595 22.3017 32.4395 22.3017 32.4195C22.2617 32.2995 22.2317 32.1795 22.1917 32.0595C22.1817 32.0295 22.1717 31.9895 22.1617 31.9495C22.1217 31.8095 22.0917 31.6495 22.0517 31.4995C22.0417 31.4595 22.0317 31.4195 22.0217 31.3795C21.9817 31.2195 21.9417 31.0495 21.9117 30.8895C21.9017 30.8595 21.9017 30.8295 21.8917 30.7995C21.8717 30.7295 21.8617 30.6495 21.8517 30.5695C21.8417 30.5295 21.8317 30.4795 21.8217 30.4295C21.8117 30.3995 21.8117 30.3695 21.8017 30.3495C21.7717 30.1495 21.7317 29.9595 21.7117 29.7595C21.6917 29.6395 21.6717 29.5195 21.6617 29.3995C21.6517 29.3195 21.6417 29.2395 21.6317 29.1695C21.6217 29.0395 21.6017 28.9195 21.5917 28.7895C21.5817 28.7195 21.5817 28.6495 21.5717 28.5795C21.5617 28.5095 21.5617 28.4395 21.5517 28.3695C21.5517 28.2995 21.5517 28.2395 21.5417 28.1695C21.5417 28.1095 21.5317 28.0395 21.5317 27.9795V27.9595C21.5217 27.8095 21.5217 27.6495 21.5117 27.4895V9.71945H28.8917V19.1395H28.9017V29.3395C28.9017 30.2495 29.2717 31.0795 29.8617 31.6695C29.9417 31.7495 30.0217 31.8195 30.1117 31.8995C30.2017 31.9695 30.2917 32.0395 30.4017 32.0995C30.8317 32.3895 31.3517 32.5795 31.9017 32.6295C32.0017 32.6395 32.0917 32.6395 32.2017 32.6395H34.2417C34.3717 32.6495 34.5117 32.6595 34.6517 32.6595C38.6117 32.6195 42.5717 32.6495 46.5317 32.6495C48.2317 32.6395 49.5317 31.5995 49.8717 29.9495C50.3217 27.7595 50.7517 25.5595 51.1917 23.3695C51.2517 23.0595 51.3117 22.7495 51.3717 22.4395C51.4917 21.8495 51.6217 21.2595 51.7417 20.6695C51.7617 20.5695 51.7717 20.4695 51.7717 20.3695C51.7717 20.0795 51.6917 19.7795 51.4917 19.5595C51.2017 19.2395 50.7817 19.1195 50.2617 19.1295H48.6017C46.5317 19.1395 44.4817 19.1295 42.4217 19.1295C40.1117 19.1295 37.8017 19.1295 35.4917 19.1395C34.4317 19.1295 33.3817 19.1395 32.3217 19.1395C32.2917 19.1395 32.2717 19.1395 32.2417 19.1295L30.4017 19.1395V11.0495C30.9717 10.6795 31.5817 10.3495 32.2017 10.0495C32.2117 10.0495 32.2317 10.0395 32.2417 10.0295C33.5217 9.41945 34.8817 8.94945 36.3017 8.62945C36.5017 8.58945 36.7017 8.54945 36.9117 8.50945C37.0117 8.48945 37.1117 8.46945 37.2117 8.45945C37.3817 8.42945 37.5417 8.39945 37.7117 8.37945C37.9717 8.33945 38.2317 8.30945 38.4917 8.27945C38.6317 8.26945 38.7717 8.25945 38.9117 8.24945H38.9617C39.0317 8.23945 39.0917 8.22945 39.1617 8.22945C39.2317 8.22945 39.2917 8.21945 39.3617 8.21945H39.3917C39.4717 8.21945 39.5417 8.20945 39.6117 8.20945C39.7017 8.20945 39.7817 8.20945 39.8717 8.19945C40.0317 8.18945 40.3017 8.18945 40.4617 8.18945C40.5217 8.18945 40.5817 8.19945 40.6517 8.19945C40.7317 8.19945 40.8217 8.19945 40.9017 8.20945H41.1817C41.2917 8.21945 41.4017 8.21945 41.5117 8.22945H41.5317C41.5917 8.22945 41.6517 8.23945 41.7117 8.23945C41.7317 8.24945 41.7517 8.24945 41.7717 8.24945H41.8017C41.9217 8.24945 42.0417 8.26945 42.1717 8.27945C42.2317 8.28945 42.2817 8.29945 42.3417 8.29945C42.3917 8.30945 42.4417 8.30945 42.4917 8.31945C42.5717 8.31945 42.6517 8.33945 42.7217 8.34945C42.7817 8.34945 42.8317 8.35945 42.8817 8.36945H42.9117C42.9117 8.36945 42.9417 8.36945 42.9617 8.36945C43.0017 8.36945 43.0417 8.37945 43.0717 8.37945C43.1117 8.38945 43.1517 8.38945 43.1917 8.39945C43.3317 8.41945 43.4617 8.43945 43.5917 8.46945C43.6217 8.46945 43.6517 8.47945 43.6817 8.47945C43.8317 8.50945 43.9717 8.53945 44.1217 8.56945C44.1517 8.56945 44.1817 8.57945 44.2217 8.58945C44.2417 8.58945 44.2617 8.59945 44.2817 8.59945C44.4717 8.63945 44.6717 8.68945 44.8617 8.73945C44.9617 8.75945 45.0717 8.78945 45.1717 8.80945C45.2717 8.83945 45.3717 8.86945 45.4817 8.89945C45.7817 8.98945 46.0717 9.06945 46.3617 9.16945C46.4517 9.19945 46.5417 9.23945 46.6317 9.26945C46.6917 9.28945 46.7417 9.30945 46.8017 9.32945C46.9117 9.36945 47.0117 9.40945 47.1217 9.44945C47.3217 9.52945 47.5217 9.60945 47.7217 9.69945C47.9117 9.77945 48.1017 9.85945 48.2817 9.93945C48.2917 9.94945 48.3117 9.95945 48.3217 9.95945C48.4117 9.99945 48.5017 10.0495 48.5917 10.0895C48.6917 10.1395 48.7917 10.1895 48.8917 10.2395C49.0817 10.3395 49.2617 10.4295 49.4417 10.5395C49.5617 10.5995 49.6817 10.6695 49.7917 10.7395C49.8917 10.7895 49.9917 10.8495 50.0817 10.9095C50.2117 10.9895 50.3417 11.0695 50.4717 11.1495C50.5017 11.1695 50.5317 11.1895 50.5617 11.2095H50.5717C50.5717 11.2095 50.6117 11.2395 50.6317 11.2595C50.7417 11.3195 50.8517 11.3995 50.9617 11.4695C50.9617 11.4795 50.9717 11.4795 50.9717 11.4795C51.0217 11.5195 51.0717 11.5495 51.1217 11.5895C51.2217 11.6595 51.3117 11.7195 51.4117 11.7895C51.4217 11.7995 51.4417 11.8195 51.4617 11.8295C51.5317 11.8795 51.6117 11.9395 51.6917 11.9995C51.7417 12.0395 51.8017 12.0895 51.8617 12.1295C51.8917 12.1595 51.9117 12.1795 51.9417 12.1995C52.0217 12.2495 52.0917 12.3095 52.1717 12.3795C52.2117 12.4095 52.2617 12.4495 52.3017 12.4795C52.3617 12.5395 52.4317 12.5895 52.5017 12.6495C52.5317 12.6795 52.5717 12.7095 52.6117 12.7395C52.6417 12.7695 52.6817 12.7995 52.7117 12.8295C52.7817 12.8895 52.8417 12.9495 52.9017 13.0095C52.9617 13.0495 53.0117 13.0995 53.0717 13.1495C53.1217 13.1995 53.1817 13.2495 53.2317 13.2995C53.2417 13.2995 53.2517 13.3195 53.2617 13.3295C53.2817 13.3495 53.2917 13.3695 53.3117 13.3795C53.4217 13.4895 53.5317 13.5895 53.6317 13.6995L53.6917 13.7595C53.8117 13.8695 53.9117 13.9795 54.0317 14.0995C54.0617 14.1295 54.0817 14.1595 54.1117 14.1895C54.2117 14.2995 54.3117 14.4095 54.4017 14.5095H54.4117C54.4917 14.6095 54.5717 14.7095 54.6517 14.7995C54.7017 14.8495 54.7417 14.8995 54.7917 14.9595C54.8017 14.9795 54.8217 14.9995 54.8417 15.0195C54.9817 15.1895 55.1217 15.3595 55.2517 15.5395C55.3817 15.6995 55.5017 15.8595 55.6217 16.0295C55.6417 16.0595 55.6517 16.0795 55.6717 16.1095C55.7917 16.2695 55.8917 16.4195 56.0017 16.5795C56.0317 16.6295 56.0717 16.6895 56.1017 16.7395C56.2117 16.9095 56.3217 17.0695 56.4217 17.2495C56.5517 17.4595 56.6717 17.6695 56.8017 17.8895C56.8217 17.9295 56.8517 17.9795 56.8717 18.0295C56.9717 18.2095 57.0717 18.3895 57.1617 18.5695C57.2017 18.6595 57.2517 18.7495 57.2917 18.8495C57.4217 19.1195 57.5517 19.3895 57.6717 19.6795C57.7317 19.8195 57.7817 19.9595 57.8417 20.0995C57.9017 20.2395 57.9517 20.3895 58.0117 20.5295C58.0617 20.6795 58.1117 20.8195 58.1617 20.9695C58.2617 21.2595 58.3517 21.5595 58.4317 21.8495C58.4817 21.9995 58.5117 22.1495 58.5517 22.2995C58.5917 22.4395 58.6217 22.5695 58.6517 22.7095C58.7217 22.9795 58.7717 23.2495 58.8217 23.5295C58.8517 23.6495 58.8717 23.7695 58.8917 23.8895V23.9295C58.9117 24.0495 58.9317 24.1695 58.9517 24.2795C58.9717 24.4095 58.9917 24.5395 59.0017 24.6695C59.0317 24.8795 59.0517 25.0895 59.0717 25.3095C59.0917 25.4795 59.1017 25.6495 59.1117 25.8295C59.1217 25.9495 59.1317 26.0795 59.1317 26.2195C59.1317 26.3195 59.1317 26.4295 59.1317 26.5395C59.1317 26.6895 59.1417 26.8495 59.1417 26.9995L59.1317 27.0095Z" fill="#404553"/>
<path d="M73.9419 34.6592V27.5992L65.1719 19.6992H69.6719L75.7019 25.0292L81.8419 19.6992H86.1019L77.2819 27.6392V34.6592H73.9519H73.9419Z" fill="#404553"/>
<path d="M91.7115 34.659C90.6115 34.659 89.7015 34.569 88.9715 34.389C88.2415 34.209 87.6515 33.919 87.2215 33.509C86.7815 33.109 86.4715 32.579 86.2915 31.929C86.1115 31.279 86.0215 30.479 86.0215 29.529V24.839C86.0215 23.899 86.1115 23.109 86.2915 22.449C86.4715 21.789 86.7815 21.259 87.2215 20.859C87.6615 20.459 88.2415 20.169 88.9715 19.979C89.7015 19.789 90.6215 19.709 91.7115 19.709H97.3915C98.5015 19.709 99.4215 19.799 100.151 19.979C100.881 20.159 101.471 20.449 101.901 20.859C102.331 21.269 102.651 21.789 102.831 22.449C103.011 23.109 103.101 23.909 103.101 24.839V29.529C103.101 30.479 103.011 31.279 102.831 31.929C102.651 32.579 102.341 33.109 101.901 33.509C101.461 33.909 100.881 34.209 100.151 34.389C99.4215 34.569 98.5015 34.659 97.3915 34.659H91.7115ZM99.7815 24.989C99.7815 24.519 99.7415 24.139 99.6615 23.829C99.5815 23.519 99.4415 23.269 99.2515 23.079C99.0615 22.889 98.8015 22.759 98.4715 22.679C98.1415 22.609 97.7315 22.569 97.2515 22.569H91.8515C91.3215 22.569 90.9015 22.609 90.5715 22.679C90.2415 22.749 89.9815 22.879 89.7915 23.079C89.6015 23.269 89.4715 23.519 89.4115 23.829C89.3515 24.139 89.3115 24.529 89.3115 24.989V29.399C89.3115 29.879 89.3415 30.279 89.4115 30.599C89.4815 30.919 89.6015 31.159 89.7915 31.349C89.9815 31.529 90.2415 31.659 90.5715 31.719C90.9015 31.789 91.3315 31.819 91.8515 31.819H97.2515C97.7315 31.819 98.1415 31.789 98.4715 31.719C98.8015 31.649 99.0615 31.529 99.2515 31.349C99.4415 31.169 99.5815 30.919 99.6615 30.599C99.7415 30.279 99.7815 29.889 99.7815 29.399V24.989Z" fill="#404553"/>
<path d="M111.022 34.6592C109.922 34.6592 109.012 34.5692 108.282 34.3892C107.552 34.2092 106.962 33.9192 106.532 33.5092C106.092 33.1092 105.782 32.5792 105.602 31.9292C105.422 31.2792 105.332 30.4792 105.332 29.5292V19.6992H108.692V29.4192C108.692 29.8892 108.742 30.2692 108.832 30.5692C108.922 30.8692 109.072 31.1092 109.282 31.3092C109.482 31.4992 109.762 31.6292 110.102 31.6992C110.442 31.7692 110.862 31.8092 111.362 31.8092H116.382C116.882 31.8092 117.302 31.7692 117.642 31.6992C117.982 31.6292 118.262 31.4992 118.462 31.3092C118.662 31.1192 118.812 30.8692 118.912 30.5592C119.012 30.2492 119.052 29.8692 119.052 29.3992V19.6992H122.362V29.5292C122.362 30.4792 122.272 31.2792 122.092 31.9292C121.912 32.5792 121.602 33.1092 121.162 33.5092C120.722 33.9092 120.142 34.2092 119.412 34.3892C118.682 34.5692 117.762 34.6592 116.652 34.6592H111.032H111.022Z" fill="#404553"/>
<path d="M136.902 34.6592L128.152 29.2192V34.6592H124.842V19.6992H136.552C137.602 19.6992 138.502 19.7692 139.252 19.8992C140.002 20.0292 140.612 20.2692 141.082 20.5992C141.552 20.9392 141.902 21.3992 142.122 21.9792C142.342 22.5592 142.452 23.2992 142.452 24.1992V25.2292C142.452 26.0892 142.332 26.8092 142.102 27.3692C141.872 27.9292 141.502 28.3792 141.012 28.7092C140.522 29.0392 139.902 29.2692 139.162 29.3992C138.412 29.5292 137.532 29.5992 136.512 29.5992H133.882L142.662 34.6692H136.912L136.902 34.6592ZM139.122 24.3692C139.122 23.9792 139.082 23.6492 138.992 23.4092C138.902 23.1692 138.762 22.9692 138.552 22.8392C138.342 22.7092 138.062 22.6192 137.692 22.5792C137.322 22.5392 136.872 22.5092 136.332 22.5092H128.152V27.0692H136.332C136.872 27.0692 137.322 27.0492 137.682 26.9992C138.042 26.9592 138.322 26.8692 138.542 26.7392C138.752 26.6092 138.902 26.4192 138.992 26.1692C139.082 25.9192 139.122 25.5892 139.122 25.1792V24.3692Z" fill="#404553"/>
<path d="M144.752 19.6992H157.362C158.212 19.6992 158.932 19.7592 159.532 19.8792C160.132 19.9992 160.622 20.1892 160.992 20.4592C161.362 20.7292 161.642 21.0792 161.812 21.5092C161.992 21.9392 162.072 22.4692 162.072 23.0992V24.3292C162.072 25.2092 161.922 25.8392 161.612 26.2192C161.302 26.5992 160.922 26.8592 160.452 26.9892C160.712 27.0492 160.962 27.1392 161.182 27.2592C161.412 27.3792 161.602 27.5592 161.762 27.7992C161.922 28.0292 162.052 28.3392 162.132 28.7092C162.222 29.0792 162.262 29.5492 162.262 30.0992V31.4192C162.262 32.0192 162.182 32.5192 162.012 32.9292C161.842 33.3392 161.572 33.6692 161.202 33.9292C160.832 34.1892 160.342 34.3692 159.742 34.4892C159.142 34.6092 158.422 34.6692 157.572 34.6692H144.742V19.7092L144.752 19.6992ZM148.082 22.4192V25.8592H157.432C158.012 25.8592 158.422 25.7692 158.642 25.5692C158.862 25.3792 158.972 25.0392 158.972 24.5392V23.5992C158.972 23.1492 158.832 22.8392 158.562 22.6692C158.292 22.4992 157.802 22.4192 157.102 22.4192H148.082ZM148.082 28.2792V31.9392H157.402C158.032 31.9392 158.482 31.8592 158.752 31.6892C159.022 31.5192 159.162 31.1992 159.162 30.7392V29.8192C159.162 29.2092 159.042 28.7992 158.802 28.5892C158.562 28.3892 158.132 28.2792 157.522 28.2792H148.092H148.082Z" fill="#404553"/>
<path d="M178.802 31.2094H168.452L166.322 34.6494H162.482L171.172 20.8294C171.432 20.4094 171.752 20.0594 172.112 19.7794C172.482 19.4994 173.002 19.3594 173.692 19.3594C174.382 19.3594 174.882 19.4994 175.252 19.7794C175.622 20.0594 175.932 20.4094 176.192 20.8294L184.832 34.6494H180.972L178.802 31.2094ZM170.002 28.6394H177.242L173.622 22.7394L170.002 28.6394Z" fill="#404553"/>
<path d="M185.861 34.659V31.829H197.221C197.821 31.829 198.251 31.749 198.511 31.579C198.771 31.409 198.901 31.069 198.901 30.559V29.749C198.901 29.279 198.771 28.949 198.511 28.749C198.251 28.549 197.821 28.449 197.241 28.449H190.111C189.281 28.449 188.591 28.369 188.041 28.219C187.491 28.069 187.061 27.829 186.731 27.519C186.411 27.209 186.191 26.809 186.061 26.339C185.941 25.869 185.871 25.309 185.871 24.659V23.909C185.871 23.149 185.951 22.499 186.111 21.959C186.271 21.419 186.521 20.979 186.861 20.659C187.201 20.329 187.631 20.089 188.181 19.939C188.721 19.789 189.361 19.709 190.111 19.709H201.961V22.479L190.421 22.539C189.911 22.539 189.531 22.639 189.291 22.839C189.051 23.039 188.931 23.439 188.931 24.039V24.519C188.931 24.989 189.041 25.319 189.261 25.519C189.481 25.719 189.861 25.819 190.401 25.819H197.401C198.231 25.819 198.941 25.889 199.521 26.029C200.101 26.169 200.571 26.389 200.941 26.699C201.311 27.009 201.571 27.399 201.731 27.889C201.891 28.369 201.971 28.949 201.971 29.619V30.799C201.971 31.499 201.891 32.099 201.731 32.589C201.571 33.079 201.311 33.479 200.941 33.789C200.571 34.099 200.101 34.319 199.521 34.469C198.941 34.619 198.241 34.689 197.401 34.689H185.861V34.659Z" fill="#404553"/>
<path d="M215.703 34.6592L207.363 27.3592V34.6592H204.053V19.6992H207.363V26.8492L215.523 19.6992H220.023L211.463 26.9592L220.263 34.6592H215.703Z" fill="#404553"/>
<path d="M226.583 34.659C225.483 34.659 224.573 34.569 223.843 34.389C223.113 34.209 222.523 33.919 222.093 33.509C221.653 33.109 221.343 32.579 221.163 31.929C220.983 31.279 220.893 30.479 220.893 29.529V24.839C220.893 23.899 220.983 23.109 221.163 22.449C221.343 21.789 221.653 21.259 222.093 20.859C222.533 20.459 223.113 20.169 223.843 19.979C224.573 19.789 225.493 19.709 226.583 19.709H237.023V22.539H226.583C226.103 22.539 225.703 22.579 225.403 22.659C225.103 22.739 224.853 22.869 224.663 23.039C224.483 23.219 224.353 23.449 224.293 23.739C224.223 24.029 224.193 24.399 224.193 24.839V25.849H236.943V28.509H224.193V29.559C224.193 30.009 224.223 30.389 224.293 30.679C224.363 30.969 224.483 31.209 224.653 31.379C224.823 31.549 225.073 31.679 225.383 31.739C225.693 31.799 226.093 31.839 226.583 31.839H237.023V34.669H226.583V34.659Z" fill="#404553"/>
<path d="M245.221 34.6592V22.5692H238.951V19.6992H254.851V22.5692H248.581V34.6592H245.221Z" fill="#404553"/>
</svg>
