<svg width="56" height="53" viewBox="0 0 56 53" fill="none" xmlns="http://www.w3.org/2000/svg">
<path d="M50.28 0.728516H5C2.23858 0.728516 0 2.96709 0 5.72852V47.0985C0 49.8599 2.23858 52.0985 5 52.0985H50.28C53.0414 52.0985 55.28 49.8599 55.28 47.0985V5.72852C55.28 2.96709 53.0414 0.728516 50.28 0.728516Z" fill="#FEEE00"/>
<path d="M17.5897 6.25781H7.42969V8.75781H17.5897V6.25781Z" fill="black"/>
<path d="M47.8505 27.738C47.8505 27.898 47.8405 28.058 47.8405 28.218C47.8405 28.338 47.8305 28.458 47.8305 28.578C47.8205 28.688 47.8205 28.788 47.8105 28.888C47.8105 29.028 47.7905 29.168 47.7805 29.318C47.7605 29.548 47.7405 29.778 47.7105 30.008C47.7005 30.138 47.6805 30.258 47.6605 30.378C47.6405 30.508 47.6305 30.628 47.6105 30.748C47.5905 30.868 47.5705 30.988 47.5505 31.108C47.5405 31.128 47.5405 31.158 47.5305 31.188C47.5105 31.308 47.4905 31.428 47.4605 31.538C47.4505 31.578 47.4505 31.628 47.4405 31.668C47.4305 31.708 47.4205 31.748 47.4105 31.798C47.3905 31.868 47.3705 31.948 47.3605 32.028C47.3505 32.028 47.3505 32.038 47.3505 32.038C47.3505 32.058 47.3405 32.088 47.3405 32.108C47.3305 32.118 47.3305 32.128 47.3305 32.138C47.3205 32.158 47.3205 32.178 47.3205 32.198C47.2905 32.318 47.2505 32.448 47.2205 32.568C47.2205 32.588 47.2105 32.598 47.2105 32.608C47.1705 32.758 47.1305 32.908 47.0805 33.058C47.0705 33.128 47.0505 33.178 47.0305 33.218C47.0005 33.328 46.9705 33.428 46.9305 33.528C46.9105 33.608 46.8905 33.688 46.8605 33.758C46.8405 33.838 46.8105 33.908 46.7805 33.988V34.008C46.7305 34.128 46.6905 34.238 46.6505 34.358C46.6405 34.388 46.6305 34.408 46.6205 34.438C46.6205 34.458 46.6205 34.478 46.6005 34.498C46.5505 34.608 46.5105 34.718 46.4705 34.828C46.4605 34.828 46.4505 34.858 46.4405 34.878C46.3905 35.028 46.3305 35.168 46.2605 35.318C46.1905 35.458 46.1305 35.608 46.0605 35.748C46.0405 35.808 46.0105 35.858 45.9805 35.918C45.9405 36.008 45.9005 36.088 45.8605 36.178C45.8205 36.248 45.7905 36.318 45.7505 36.388C45.7105 36.458 45.6805 36.518 45.6405 36.588C45.5605 36.728 45.4805 36.868 45.4105 37.008C45.1005 37.558 44.7605 38.088 44.4005 38.598C44.3005 38.748 44.1905 38.888 44.0805 39.038C44.0105 39.128 43.9505 39.208 43.8805 39.288C43.7405 39.478 43.5905 39.668 43.4305 39.848C43.4005 39.888 43.3705 39.928 43.3405 39.958C43.2505 40.058 43.1705 40.158 43.0905 40.248C43.0505 40.298 43.0005 40.348 42.9605 40.398C42.9505 40.408 42.9405 40.418 42.9305 40.418C42.7905 40.578 42.6405 40.728 42.5005 40.878C42.4605 40.908 42.4305 40.948 42.4005 40.968C42.2705 41.108 42.1405 41.238 42.0105 41.358L41.9805 41.388C41.9805 41.388 41.9505 41.408 41.9505 41.418C41.8605 41.508 41.7705 41.588 41.6805 41.668C41.6105 41.738 41.5405 41.798 41.4705 41.858C41.3805 41.938 41.2805 42.018 41.1805 42.108C41.1405 42.138 41.1105 42.168 41.0705 42.198C40.9805 42.278 40.8805 42.348 40.7905 42.428C40.7705 42.438 40.7605 42.458 40.7405 42.468C40.7105 42.488 40.6805 42.518 40.6605 42.538C40.6505 42.538 40.6405 42.548 40.6305 42.558C40.6205 42.568 40.6105 42.568 40.6005 42.578L40.5705 42.608C40.5105 42.638 40.4705 42.678 40.4205 42.718C40.2105 42.878 40.0005 43.028 39.7805 43.178C39.7005 43.238 39.6205 43.288 39.5405 43.348C39.4205 43.428 39.3005 43.508 39.1805 43.588C39.0605 43.658 38.9305 43.738 38.8105 43.818C38.7705 43.838 38.7305 43.868 38.6905 43.888C38.5505 43.978 38.4005 44.058 38.2505 44.138C38.1705 44.188 38.0805 44.238 38.0005 44.278C37.9205 44.328 37.8405 44.368 37.7505 44.408C37.6305 44.478 37.5105 44.538 37.3905 44.598C37.2305 44.678 37.0605 44.758 36.9005 44.838C36.7405 44.908 36.5705 44.988 36.4005 45.058C36.2605 45.118 36.1205 45.178 35.9705 45.238C35.8205 45.298 35.6505 45.358 35.4905 45.418C35.4405 45.438 35.3905 45.458 35.3505 45.478C35.3005 45.488 35.2505 45.508 35.2005 45.518C35.1705 45.538 35.1405 45.548 35.1005 45.558C35.0705 45.568 35.0505 45.578 35.0205 45.588C34.9905 45.598 34.9605 45.608 34.9405 45.618C34.8805 45.638 34.8305 45.648 34.7705 45.668C34.7505 45.678 34.7305 45.688 34.7105 45.688C34.7005 45.698 34.6905 45.698 34.6905 45.698C34.6705 45.708 34.6505 45.708 34.6205 45.718C34.4605 45.768 34.2905 45.818 34.1205 45.868C33.9905 45.898 33.8605 45.938 33.7305 45.978H33.7105C33.7105 45.978 33.6505 45.988 33.6205 45.998C33.6205 45.998 33.5905 46.008 33.5805 46.008C33.5705 46.008 33.5605 46.018 33.5505 46.018C33.4705 46.038 33.4005 46.048 33.3305 46.068C33.2505 46.088 33.1805 46.108 33.1005 46.118C33.0705 46.128 33.0305 46.138 32.9905 46.148C32.8205 46.178 32.6505 46.208 32.4805 46.248C32.3305 46.278 32.1705 46.298 32.0105 46.328C31.9805 46.328 31.9505 46.328 31.9205 46.328C31.8905 46.338 31.8605 46.338 31.8305 46.348C31.7805 46.348 31.7405 46.358 31.6905 46.368C31.6605 46.378 31.6205 46.378 31.5805 46.378C31.5305 46.378 31.4905 46.398 31.4405 46.398C31.4105 46.398 31.3805 46.408 31.3505 46.408C31.3105 46.418 31.2605 46.418 31.2205 46.428C31.1705 46.428 31.1205 46.438 31.0805 46.438C30.9805 46.448 30.8805 46.468 30.7805 46.468C30.6905 46.478 30.6105 46.488 30.5305 46.498C30.4505 46.498 30.3705 46.508 30.2905 46.508C30.2605 46.508 30.2205 46.508 30.1805 46.508C30.1005 46.518 30.0205 46.518 29.9305 46.518C29.8605 46.528 29.7905 46.528 29.7205 46.528C29.6505 46.538 29.5805 46.538 29.5105 46.538C29.4305 46.538 29.3505 46.538 29.2705 46.548H28.7805C28.7005 46.538 28.6205 46.538 28.5405 46.538C28.4105 46.538 28.2805 46.528 28.1505 46.518H28.0605C27.9505 46.518 27.8405 46.508 27.7405 46.498H27.6005C27.4405 46.478 27.2905 46.458 27.1305 46.448H27.0805C27.0805 46.448 27.0405 46.448 27.0205 46.448C26.9905 46.448 26.9505 46.438 26.9205 46.438C26.8405 46.428 26.7705 46.418 26.7005 46.408H26.6905C26.6105 46.398 26.5305 46.388 26.4505 46.378C26.4305 46.378 26.4205 46.368 26.4005 46.368C26.3405 46.358 26.2905 46.348 26.2305 46.348C26.0505 46.318 25.8705 46.288 25.6905 46.258C25.5805 46.238 25.4705 46.218 25.3605 46.198C25.3505 46.188 25.3405 46.188 25.3305 46.188C25.2705 46.178 25.2105 46.168 25.1605 46.148C25.1005 46.138 25.0405 46.128 24.9805 46.108C24.7705 46.068 24.5705 46.018 24.3705 45.968C24.1805 45.918 23.9805 45.868 23.7905 45.808C23.6405 45.768 23.5005 45.718 23.3605 45.678C23.2105 45.628 23.0705 45.588 22.9305 45.538C22.8305 45.498 22.7205 45.468 22.6305 45.428C22.4905 45.378 22.3505 45.328 22.2205 45.268C22.1805 45.268 22.1405 45.248 22.1105 45.228C22.0905 45.218 22.0805 45.218 22.0705 45.218C22.0605 45.208 22.0505 45.208 22.0405 45.208C22.0105 45.188 21.9705 45.178 21.9405 45.158C21.9105 45.148 21.8705 45.138 21.8405 45.118C21.7105 45.068 21.5905 45.018 21.4705 44.958C21.3305 44.898 21.1805 44.828 21.0305 44.768C21.0105 44.768 20.9905 44.748 20.9705 44.738C20.9505 44.728 20.9305 44.718 20.9205 44.708C20.9105 44.708 20.9005 44.708 20.9005 44.708C20.8605 44.688 20.8105 44.668 20.7705 44.648C20.7105 44.618 20.6605 44.598 20.6005 44.568H20.5905C20.4905 44.518 20.3905 44.468 20.2905 44.408C20.1705 44.348 20.0505 44.288 19.9405 44.218C19.8205 44.158 19.7005 44.088 19.5905 44.028C19.4705 43.958 19.3605 43.888 19.2405 43.818C19.1505 43.768 19.0605 43.708 18.9605 43.648C18.8905 43.598 18.8105 43.548 18.7305 43.498C18.6805 43.468 18.6305 43.428 18.5705 43.388C18.4605 43.318 18.3505 43.238 18.2405 43.168C18.0105 42.998 17.7805 42.838 17.5605 42.658C17.4705 42.588 17.3805 42.518 17.2905 42.448C17.1905 42.368 17.0905 42.288 16.9905 42.208C16.9905 42.198 16.9905 42.198 16.9905 42.198H16.9805C16.7905 42.028 16.6005 41.858 16.4105 41.698C16.3905 41.668 16.3605 41.648 16.3305 41.618C16.1605 41.468 15.9905 41.308 15.8305 41.138C15.8105 41.128 15.7905 41.108 15.7705 41.088L15.6805 40.988C15.5105 40.818 15.3405 40.648 15.1805 40.468C15.1505 40.438 15.1205 40.408 15.0905 40.378C15.0305 40.308 14.9605 40.238 14.9005 40.158C14.8405 40.098 14.7805 40.028 14.7205 39.958C14.7005 39.938 14.6905 39.918 14.6705 39.908C14.6205 39.838 14.5705 39.778 14.5105 39.718C14.5005 39.698 14.4805 39.678 14.4705 39.658C14.2705 39.418 14.0805 39.178 13.9005 38.928C13.7905 38.788 13.6905 38.638 13.5905 38.498C13.4905 38.348 13.3905 38.208 13.2905 38.058C13.1905 37.908 13.1005 37.758 13.0105 37.608C12.9305 37.488 12.8605 37.368 12.7905 37.248C12.7305 37.158 12.6805 37.058 12.6305 36.968C12.5805 36.878 12.5205 36.778 12.4705 36.688C12.3905 36.528 12.3105 36.368 12.2205 36.208C12.0705 35.908 11.9205 35.588 11.7905 35.268C11.7405 35.168 11.6905 35.058 11.6505 34.958C11.6105 34.858 11.5605 34.748 11.5205 34.648C11.5205 34.648 11.5105 34.618 11.5105 34.608C11.4005 34.338 11.3005 34.058 11.2005 33.778C11.2005 33.778 11.1905 33.748 11.1905 33.728C11.1305 33.558 11.0805 33.388 11.0305 33.218C11.0205 33.198 11.0105 33.178 11.0105 33.158C10.9705 33.038 10.9405 32.918 10.9005 32.798C10.8905 32.768 10.8805 32.728 10.8705 32.688C10.8305 32.548 10.8005 32.388 10.7605 32.238C10.7505 32.198 10.7405 32.158 10.7305 32.118C10.6905 31.958 10.6505 31.788 10.6205 31.628C10.6105 31.598 10.6105 31.568 10.6005 31.538C10.5805 31.468 10.5705 31.388 10.5605 31.308C10.5505 31.268 10.5405 31.218 10.5305 31.168C10.5205 31.138 10.5205 31.108 10.5105 31.088C10.4805 30.888 10.4405 30.698 10.4205 30.498C10.4005 30.378 10.3805 30.258 10.3705 30.138C10.3605 30.058 10.3505 29.978 10.3405 29.908C10.3305 29.778 10.3105 29.658 10.3005 29.528C10.2905 29.458 10.2905 29.388 10.2805 29.318C10.2705 29.248 10.2705 29.178 10.2605 29.108C10.2605 29.038 10.2605 28.978 10.2505 28.908C10.2505 28.848 10.2505 28.778 10.2505 28.718V28.698C10.2405 28.548 10.2405 28.388 10.2305 28.228V10.448H17.6105V19.868H17.6205V30.068C17.6205 30.978 17.9905 31.808 18.5805 32.398C18.6605 32.478 18.7405 32.548 18.8305 32.628C18.9205 32.698 19.0105 32.768 19.1205 32.828C19.5005 33.088 19.9605 33.268 20.4405 33.328C20.5005 33.348 20.5605 33.348 20.6205 33.358C20.7205 33.368 20.8105 33.368 20.9205 33.368H22.9605C23.0905 33.378 23.2305 33.388 23.3705 33.388C25.6705 33.368 27.9805 33.368 30.2805 33.368C31.0005 33.368 31.7205 33.378 32.4405 33.378H35.2605C36.9605 33.368 38.2505 32.328 38.5905 30.678C39.0405 28.488 39.4705 26.288 39.9105 24.098L40.0905 23.168C40.2105 22.578 40.3405 21.988 40.4605 21.398C40.4805 21.298 40.4905 21.198 40.4905 21.098C40.4905 20.808 40.4105 20.508 40.2105 20.288C39.9405 19.988 39.5505 19.868 39.0805 19.858H37.3205C35.2505 19.868 33.2005 19.858 31.1405 19.858H28.4805C27.9805 19.858 27.4805 19.858 26.9805 19.868H26.9705C26.0505 19.858 25.1305 19.868 24.2105 19.868C23.1505 19.858 22.1005 19.868 21.0405 19.868C21.0105 19.868 20.9905 19.868 20.9605 19.858L19.1205 19.868V11.778C19.2705 11.678 19.4305 11.578 19.5905 11.498C20.0205 11.228 20.4705 10.998 20.9205 10.778C20.9305 10.778 20.9505 10.778 20.9605 10.758C21.1905 10.648 21.4205 10.538 21.6605 10.448C22.7305 9.98797 23.8605 9.61797 25.0205 9.35797C25.2205 9.31797 25.4205 9.27796 25.6305 9.23796C25.7305 9.21796 25.8305 9.19797 25.9305 9.18797C26.1005 9.15797 26.2605 9.12797 26.4305 9.10797C26.6905 9.06797 26.9505 9.03797 27.2105 9.00797L27.6305 8.97797H27.6805C27.7505 8.96797 27.8105 8.95796 27.8805 8.95796C27.9505 8.95796 28.0105 8.94797 28.0805 8.94797H28.1105C28.1905 8.94797 28.2605 8.93797 28.3305 8.93797C28.4205 8.93797 28.5005 8.93796 28.5905 8.92796C28.7505 8.91796 29.0205 8.91797 29.1805 8.91797C29.2405 8.91797 29.3005 8.92796 29.3705 8.92796C29.4505 8.92796 29.5405 8.92797 29.6205 8.93797H29.9005C30.0105 8.94797 30.1205 8.94796 30.2305 8.95796H30.2505C30.3105 8.95796 30.3705 8.95796 30.4305 8.95796C30.4505 8.96796 30.4705 8.96797 30.4905 8.96797H30.5205C30.6405 8.97797 30.7605 8.98797 30.8905 8.99797C30.9505 9.00797 31.0005 9.01796 31.0605 9.01796C31.1105 9.02796 31.1605 9.02796 31.2105 9.03796C31.2905 9.03796 31.3705 9.05796 31.4405 9.06796C31.5005 9.06796 31.5505 9.06797 31.6005 9.08797H31.6305C31.6305 9.08797 31.6605 9.08796 31.6805 9.09796C31.7205 9.09796 31.7605 9.10797 31.7905 9.10797C31.8305 9.11797 31.8705 9.11796 31.9105 9.12796C32.0505 9.14796 32.1805 9.16797 32.3105 9.19797C32.3405 9.19797 32.3705 9.19797 32.4005 9.19797C32.5505 9.22797 32.6905 9.25796 32.8405 9.28796C32.8705 9.28796 32.9005 9.29797 32.9405 9.30797C32.9605 9.30797 32.9805 9.30797 33.0005 9.30797C33.1905 9.34797 33.3905 9.39797 33.5805 9.44797C33.6405 9.45797 33.7005 9.47796 33.7605 9.48796C33.8005 9.48796 33.8505 9.50796 33.8905 9.51796C33.9905 9.54796 34.0905 9.57797 34.2005 9.60797C34.5005 9.69797 34.7905 9.77796 35.0805 9.87796C35.1705 9.90796 35.2605 9.94797 35.3505 9.97797C35.4105 9.99797 35.4605 10.018 35.5205 10.038C35.6305 10.078 35.7305 10.118 35.8405 10.158C36.0405 10.238 36.2405 10.318 36.4405 10.408C36.6305 10.488 36.8205 10.568 37.0005 10.648C37.0005 10.658 37.0305 10.668 37.0405 10.668C37.1305 10.708 37.2205 10.758 37.3105 10.798C37.4105 10.848 37.5105 10.898 37.6105 10.948C37.8005 11.048 37.9805 11.138 38.1605 11.248C38.2805 11.308 38.4005 11.378 38.5105 11.448C38.6105 11.498 38.7105 11.558 38.8005 11.618L39.1905 11.858C39.1905 11.858 39.2505 11.898 39.2805 11.918H39.2905C39.2905 11.918 39.3305 11.948 39.3505 11.968C39.4605 12.028 39.5705 12.108 39.6805 12.178H39.6905C39.7405 12.218 39.7905 12.248 39.8405 12.288C39.9405 12.358 40.0305 12.418 40.1305 12.488C40.1305 12.498 40.1605 12.518 40.1805 12.528C40.2505 12.578 40.3305 12.638 40.4105 12.698C40.4605 12.738 40.5205 12.788 40.5805 12.828C40.6105 12.858 40.6305 12.878 40.6605 12.898C40.7405 12.948 40.8105 13.008 40.8905 13.078C40.9305 13.108 40.9805 13.148 41.0205 13.178C41.0805 13.238 41.1505 13.288 41.2205 13.348C41.2505 13.378 41.2905 13.408 41.3305 13.438C41.3605 13.468 41.4005 13.498 41.4305 13.528C41.5005 13.588 41.5605 13.648 41.6205 13.708C41.6805 13.748 41.7305 13.798 41.7905 13.848C41.8405 13.898 41.9005 13.948 41.9505 13.998L41.9805 14.028C41.9805 14.028 42.0105 14.068 42.0305 14.078C42.1405 14.188 42.2505 14.288 42.3505 14.398L42.4105 14.458C42.5305 14.568 42.6305 14.678 42.7505 14.798C42.7805 14.828 42.8005 14.858 42.8305 14.888C42.9305 14.998 43.0305 15.108 43.1205 15.208H43.1305C43.2105 15.308 43.2905 15.408 43.3705 15.498C43.4205 15.548 43.4605 15.598 43.5105 15.658C43.5205 15.678 43.5405 15.698 43.5605 15.718C43.7005 15.888 43.8405 16.058 43.9705 16.238C44.1005 16.398 44.2205 16.558 44.3405 16.728C44.3605 16.758 44.3705 16.778 44.3905 16.808C44.5105 16.968 44.6105 17.118 44.7205 17.278C44.7505 17.328 44.7905 17.388 44.8205 17.438C44.9305 17.608 45.0405 17.768 45.1405 17.948C45.2705 18.158 45.3905 18.368 45.5205 18.588C45.5405 18.628 45.5705 18.678 45.5905 18.728C45.6905 18.908 45.7905 19.088 45.8805 19.268C45.9205 19.358 45.9705 19.448 46.0105 19.548C46.0505 19.638 46.1005 19.728 46.1405 19.818C46.2205 19.998 46.3105 20.188 46.3905 20.378C46.4505 20.518 46.5005 20.658 46.5605 20.798C46.6205 20.938 46.6705 21.088 46.7305 21.228C46.7805 21.378 46.8305 21.518 46.8805 21.668C46.9805 21.958 47.0705 22.258 47.1505 22.548C47.2005 22.698 47.2305 22.848 47.2705 22.998C47.3105 23.138 47.3405 23.268 47.3705 23.408C47.4405 23.678 47.4905 23.948 47.5405 24.228C47.5705 24.348 47.5905 24.468 47.6105 24.588V24.628C47.6305 24.748 47.6505 24.868 47.6705 24.978C47.6905 25.108 47.7105 25.238 47.7205 25.368C47.7505 25.578 47.7705 25.788 47.7905 26.008C47.8105 26.178 47.8205 26.348 47.8305 26.528C47.8405 26.648 47.8505 26.778 47.8505 26.918C47.8505 27.018 47.8605 27.128 47.8605 27.238C47.8605 27.388 47.8705 27.548 47.8705 27.698L47.8505 27.738Z" fill="black"/>
</svg>
