<svg width="56" height="52" viewBox="0 0 56 52" fill="none" xmlns="http://www.w3.org/2000/svg">
<path d="M50.28 0.367188H5C2.24 0.367188 0 2.60719 0 5.36719V46.7372C0 49.5072 2.24 51.7372 5 51.7372H50.28C53.05 51.7372 55.28 49.5072 55.28 46.7372V5.36719C55.28 2.60719 53.05 0.367188 50.28 0.367188ZM7.43 5.89719H17.59V8.39719H7.43V5.89719ZM47.84 27.8572C47.84 27.9772 47.83 28.0972 47.83 28.2172C47.82 28.3272 47.82 28.4272 47.81 28.5272C47.8 28.6672 47.79 28.8072 47.78 28.9572C47.76 29.1872 47.74 29.4172 47.71 29.6472C47.7 29.7772 47.68 29.8972 47.66 30.0172C47.64 30.1472 47.63 30.2672 47.61 30.3872C47.59 30.5072 47.57 30.6272 47.55 30.7472C47.54 30.7672 47.54 30.7972 47.53 30.8272C47.51 30.9472 47.49 31.0672 47.46 31.1772C47.45 31.2172 47.45 31.2672 47.44 31.3072C47.43 31.3472 47.42 31.3872 47.41 31.4372C47.39 31.5072 47.37 31.5872 47.36 31.6672C47.35 31.6672 47.35 31.6772 47.35 31.6772C47.35 31.6972 47.34 31.7272 47.34 31.7472C47.33 31.7472 47.33 31.7672 47.33 31.7772C47.32 31.7972 47.32 31.8172 47.32 31.8372C47.29 31.9572 47.25 32.0872 47.22 32.2072C47.22 32.2272 47.21 32.2372 47.21 32.2472C47.17 32.3972 47.13 32.5472 47.08 32.6972C47.07 32.7672 47.05 32.8172 47.03 32.8572C47 32.9672 46.97 33.0672 46.93 33.1672C46.91 33.2472 46.89 33.3272 46.86 33.3972C46.84 33.4772 46.81 33.5472 46.78 33.6272V33.6472C46.73 33.7672 46.69 33.8772 46.65 33.9972C46.64 34.0272 46.63 34.0472 46.62 34.0772C46.61 34.0972 46.61 34.1172 46.6 34.1372C46.55 34.2472 46.51 34.3572 46.47 34.4672C46.46 34.4772 46.45 34.4972 46.44 34.5172C46.39 34.6672 46.33 34.8072 46.26 34.9572C46.19 35.0972 46.13 35.2472 46.06 35.3872C46.04 35.4472 46.01 35.4972 45.98 35.5572C45.94 35.6472 45.9 35.7272 45.86 35.8172C45.82 35.8872 45.79 35.9572 45.75 36.0272C45.71 36.0972 45.68 36.1572 45.64 36.2272C45.56 36.3672 45.48 36.5072 45.41 36.6472C45.1 37.1972 44.76 37.7272 44.4 38.2372C44.3 38.3872 44.19 38.5272 44.08 38.6772C44.01 38.7672 43.95 38.8472 43.88 38.9272C43.74 39.1172 43.59 39.3072 43.43 39.4872C43.4 39.5272 43.37 39.5672 43.34 39.5972C43.25 39.6972 43.17 39.7972 43.09 39.8872C43.05 39.9372 43 39.9872 42.96 40.0372C42.95 40.0472 42.94 40.0572 42.93 40.0572C42.79 40.2172 42.64 40.3672 42.5 40.5172C42.46 40.5472 42.43 40.5872 42.4 40.6072C42.27 40.7472 42.14 40.8772 42.01 40.9972L41.98 41.0272C41.98 41.0272 41.95 41.0472 41.95 41.0572C41.86 41.1472 41.77 41.2272 41.68 41.3072C41.61 41.3772 41.54 41.4372 41.47 41.4972C41.38 41.5772 41.28 41.6572 41.18 41.7472C41.14 41.7772 41.11 41.8072 41.07 41.8372C40.98 41.9172 40.88 41.9872 40.79 42.0672C40.77 42.0772 40.76 42.0972 40.74 42.1072C40.71 42.1272 40.68 42.1572 40.66 42.1772C40.65 42.1772 40.64 42.1872 40.63 42.1972C40.63 42.2072 40.61 42.2072 40.6 42.2172L40.57 42.2472C40.51 42.2772 40.47 42.3172 40.42 42.3572C40.21 42.5172 40 42.6672 39.78 42.8172C39.7 42.8772 39.62 42.9272 39.54 42.9872C39.42 43.0672 39.3 43.1472 39.18 43.2272C39.06 43.2972 38.93 43.3772 38.81 43.4572C38.77 43.4772 38.73 43.5072 38.69 43.5272C38.55 43.6172 38.4 43.6972 38.25 43.7772C38.17 43.8272 38.08 43.8772 38 43.9172C37.92 43.9672 37.84 44.0072 37.75 44.0472C37.63 44.1172 37.51 44.1772 37.39 44.2372C37.23 44.3172 37.06 44.3972 36.9 44.4772C36.74 44.5472 36.57 44.6272 36.4 44.6972C36.26 44.7572 36.12 44.8172 35.97 44.8772C35.82 44.9372 35.65 44.9972 35.49 45.0572C35.44 45.0772 35.39 45.0972 35.35 45.1172C35.3 45.1172 35.25 45.1472 35.2 45.1572C35.17 45.1772 35.14 45.1872 35.1 45.1972C35.07 45.2072 35.05 45.2172 35.02 45.2272C34.99 45.2372 34.96 45.2472 34.94 45.2572C34.88 45.2772 34.83 45.2872 34.77 45.3072C34.75 45.3072 34.73 45.3272 34.71 45.3272C34.7 45.3372 34.69 45.3372 34.69 45.3372C34.67 45.3472 34.65 45.3472 34.62 45.3572C34.46 45.4072 34.29 45.4572 34.12 45.5072C33.99 45.5372 33.86 45.5772 33.73 45.6172H33.71C33.71 45.6172 33.65 45.6172 33.62 45.6372C33.61 45.6372 33.59 45.6472 33.58 45.6472C33.57 45.6472 33.56 45.6572 33.55 45.6572C33.47 45.6772 33.4 45.6872 33.33 45.7072C33.25 45.7272 33.18 45.7472 33.1 45.7572C33.07 45.7672 33.03 45.7772 32.99 45.7872C32.82 45.8172 32.65 45.8472 32.48 45.8872C32.33 45.9172 32.17 45.9372 32.01 45.9672C31.98 45.9772 31.95 45.9772 31.92 45.9772C31.89 45.9872 31.86 45.9872 31.83 45.9972C31.78 45.9972 31.74 45.9972 31.69 46.0172C31.66 46.0272 31.62 46.0272 31.58 46.0272C31.53 46.0372 31.49 46.0472 31.44 46.0472C31.41 46.0472 31.38 46.0572 31.35 46.0572C31.31 46.0572 31.26 46.0572 31.22 46.0772C31.17 46.0772 31.12 46.0872 31.08 46.0872C30.98 46.0972 30.88 46.1172 30.78 46.1172C30.69 46.1172 30.61 46.1372 30.53 46.1472C30.45 46.1472 30.37 46.1572 30.29 46.1572C30.26 46.1672 30.22 46.1672 30.18 46.1672C30.1 46.1772 30.02 46.1772 29.93 46.1772C29.86 46.1872 29.79 46.1872 29.72 46.1872C29.65 46.1872 29.58 46.1872 29.51 46.1872C29.43 46.1872 29.35 46.1872 29.27 46.1972H28.78C28.7 46.1872 28.62 46.1872 28.54 46.1872C28.41 46.1872 28.28 46.1872 28.15 46.1672H28.06C27.95 46.1672 27.84 46.1572 27.74 46.1472H27.6C27.44 46.1272 27.29 46.1072 27.13 46.0972H27.08C27.08 46.0972 27.04 46.0872 27.02 46.0872C26.99 46.0872 26.95 46.0772 26.92 46.0772C26.84 46.0672 26.77 46.0572 26.7 46.0472L26.46 46.0172C26.46 46.0172 26.43 46.0072 26.41 46.0072C26.35 45.9972 26.3 45.9872 26.24 45.9872C26.06 45.9572 25.88 45.9272 25.7 45.8972C25.59 45.8772 25.48 45.8572 25.37 45.8372C25.36 45.8272 25.35 45.8272 25.34 45.8272C25.28 45.8172 25.22 45.8072 25.17 45.7872C25.11 45.7772 25.05 45.7672 24.99 45.7472C24.78 45.7072 24.58 45.6572 24.38 45.6072C24.19 45.5572 23.99 45.5072 23.8 45.4472C23.65 45.4072 23.51 45.3572 23.37 45.3172C23.22 45.2672 23.08 45.2272 22.94 45.1772C22.84 45.1372 22.73 45.1072 22.64 45.0672C22.5 45.0172 22.36 44.9672 22.23 44.9072C22.19 44.8972 22.15 44.8872 22.12 44.8672C22.1 44.8672 22.09 44.8672 22.08 44.8672C22.08 44.8572 22.06 44.8572 22.05 44.8572C22.02 44.8372 21.98 44.8272 21.95 44.8072C21.92 44.7972 21.88 44.7872 21.85 44.7672C21.72 44.7172 21.6 44.6672 21.48 44.6072C21.34 44.5472 21.19 44.4772 21.04 44.4172C21.02 44.4072 21 44.3972 20.98 44.3872C20.96 44.3772 20.94 44.3672 20.93 44.3572C20.92 44.3572 20.91 44.3572 20.91 44.3472C20.87 44.3272 20.82 44.3072 20.78 44.2872C20.72 44.2572 20.67 44.2372 20.61 44.2072H20.6C20.5 44.1572 20.4 44.1072 20.3 44.0472C20.18 43.9872 20.06 43.9272 19.95 43.8572C19.83 43.7972 19.71 43.7272 19.6 43.6672C19.48 43.5972 19.37 43.5272 19.25 43.4572C19.16 43.4072 19.07 43.3472 18.97 43.2872C18.9 43.2372 18.82 43.1872 18.74 43.1372C18.69 43.1072 18.64 43.0672 18.58 43.0272C18.47 42.9572 18.36 42.8772 18.25 42.8072C18.02 42.6372 17.79 42.4772 17.57 42.2972C17.48 42.2272 17.39 42.1572 17.3 42.0872C17.2 42.0072 17.1 41.9272 17 41.8472C17 41.8372 16.99 41.8372 16.99 41.8372H16.98C16.79 41.6672 16.6 41.4972 16.41 41.3372C16.39 41.3072 16.36 41.2872 16.33 41.2572C16.16 41.1072 15.99 40.9472 15.83 40.7772C15.81 40.7672 15.79 40.7472 15.77 40.7272L15.68 40.6272C15.51 40.4572 15.34 40.2872 15.18 40.1072L15.09 40.0172C15.03 39.9472 14.96 39.8772 14.9 39.7972C14.84 39.7372 14.78 39.6672 14.72 39.5972C14.7 39.5772 14.69 39.5572 14.67 39.5472C14.62 39.4772 14.57 39.4172 14.51 39.3572C14.5 39.3372 14.48 39.3172 14.47 39.2972C14.27 39.0572 14.08 38.8172 13.9 38.5672C13.79 38.4272 13.69 38.2772 13.59 38.1372C13.49 37.9872 13.39 37.8472 13.29 37.6972C13.19 37.5472 13.1 37.3972 13.01 37.2472C12.93 37.1272 12.86 37.0072 12.79 36.8872C12.73 36.7972 12.68 36.6972 12.63 36.6072C12.58 36.5172 12.52 36.4172 12.47 36.3272C12.39 36.1672 12.31 36.0072 12.22 35.8472C12.07 35.5472 11.92 35.2272 11.79 34.9072C11.74 34.8072 11.69 34.6972 11.65 34.5972C11.61 34.4972 11.56 34.3872 11.52 34.2872C11.52 34.2772 11.52 34.2572 11.52 34.2472C11.41 33.9772 11.31 33.6972 11.21 33.4172C11.21 33.4072 11.2 33.3872 11.2 33.3672C11.14 33.1972 11.09 33.0272 11.04 32.8572C11.03 32.8372 11.02 32.8172 11.02 32.7972C10.98 32.6772 10.95 32.5572 10.91 32.4372C10.9 32.4072 10.89 32.3672 10.88 32.3272C10.84 32.1872 10.81 32.0272 10.77 31.8772C10.76 31.8372 10.75 31.7972 10.74 31.7572C10.7 31.5972 10.66 31.4272 10.63 31.2672C10.62 31.2372 10.62 31.2072 10.61 31.1772C10.59 31.1072 10.58 31.0272 10.57 30.9472C10.56 30.9072 10.55 30.8572 10.54 30.8072C10.53 30.7772 10.53 30.7472 10.52 30.7272C10.49 30.5272 10.45 30.3372 10.43 30.1372C10.41 30.0172 10.39 29.8972 10.38 29.7772C10.37 29.6972 10.36 29.6172 10.35 29.5472C10.34 29.4172 10.32 29.2972 10.31 29.1672C10.3 29.0972 10.3 29.0272 10.29 28.9572C10.28 28.8872 10.28 28.8172 10.27 28.7472C10.27 28.6772 10.27 28.6172 10.26 28.5472C10.26 28.4872 10.25 28.4172 10.25 28.3572V28.3372C10.24 28.1872 10.24 28.0272 10.23 27.8672V10.0872H17.61V19.5072H17.62V29.7072C17.62 30.6172 17.99 31.4472 18.58 32.0372C18.66 32.1172 18.74 32.1872 18.83 32.2672C18.92 32.3372 19.01 32.4072 19.12 32.4672C19.5 32.7272 19.96 32.9072 20.44 32.9672C20.5 32.9872 20.56 32.9872 20.62 32.9972C20.72 32.9972 20.81 32.9972 20.92 32.9972H22.96C23.09 33.0072 23.23 33.0172 23.37 33.0172C25.67 32.9972 27.98 32.9972 30.28 32.9972C31 32.9972 31.72 33.0072 32.44 33.0072H35.26C36.96 32.9972 38.25 31.9572 38.59 30.3072C39.04 28.1172 39.47 25.9172 39.91 23.7272L40.09 22.7972C40.21 22.2072 40.34 21.6172 40.46 21.0272C40.48 20.9272 40.49 20.8272 40.49 20.7272C40.49 20.4372 40.41 20.1372 40.21 19.9172C39.94 19.6172 39.55 19.4972 39.08 19.4872H37.32C35.25 19.4872 33.2 19.4872 31.14 19.4872H28.48C27.98 19.4872 27.48 19.4872 26.98 19.4872H26.97C26.05 19.4872 25.13 19.4872 24.21 19.4872C23.15 19.4872 22.1 19.4872 21.04 19.4872C21.01 19.4872 20.99 19.4872 20.96 19.4872H19.12V11.3972C19.27 11.2972 19.43 11.1972 19.59 11.1172C20.02 10.8472 20.47 10.6172 20.92 10.3972C20.93 10.3972 20.95 10.3872 20.96 10.3772C21.19 10.2672 21.42 10.1572 21.66 10.0672C22.73 9.60718 23.86 9.23719 25.02 8.97719C25.22 8.93719 25.42 8.89719 25.63 8.85719C25.73 8.83719 25.83 8.81719 25.93 8.80719C26.1 8.77719 26.26 8.74719 26.43 8.72719C26.69 8.68719 26.95 8.65718 27.21 8.62718L27.63 8.59718H27.68C27.75 8.58718 27.81 8.57719 27.88 8.57719C27.95 8.57719 28.01 8.56718 28.08 8.56718H28.11C28.19 8.56718 28.26 8.55719 28.33 8.55719C28.42 8.55719 28.5 8.5572 28.59 8.5472C28.75 8.5472 29.02 8.5472 29.18 8.5472C29.24 8.5472 29.3 8.5472 29.37 8.5472C29.45 8.5472 29.54 8.54719 29.62 8.55719H29.9C30.01 8.56719 30.12 8.56719 30.23 8.57719H30.25C30.31 8.57719 30.37 8.58719 30.43 8.58719C30.45 8.59719 30.47 8.59718 30.49 8.59718H30.52C30.64 8.59718 30.76 8.61718 30.89 8.62718C30.95 8.63718 31 8.64719 31.06 8.64719C31.11 8.65719 31.16 8.65719 31.21 8.66719C31.29 8.66719 31.37 8.68719 31.44 8.69719C31.5 8.69719 31.55 8.70719 31.6 8.71719H31.63C31.63 8.71719 31.66 8.71719 31.68 8.72719C31.72 8.72719 31.76 8.72719 31.79 8.72719C31.83 8.73719 31.87 8.73719 31.91 8.74719C32.05 8.76719 32.18 8.78718 32.31 8.81718C32.34 8.81718 32.37 8.82719 32.4 8.82719C32.55 8.85719 32.69 8.88719 32.84 8.91719C32.87 8.91719 32.9 8.92719 32.94 8.93719C32.96 8.93719 32.98 8.94719 33 8.94719C33.19 8.98719 33.39 9.03719 33.58 9.08719C33.64 9.08719 33.7 9.11718 33.76 9.12718C33.8 9.13718 33.85 9.14718 33.89 9.15718C33.99 9.18718 34.09 9.21719 34.2 9.24719C34.5 9.33719 34.79 9.41718 35.08 9.51718C35.17 9.54718 35.26 9.58719 35.35 9.61719C35.41 9.63719 35.46 9.65718 35.52 9.67719C35.63 9.71719 35.73 9.7572 35.84 9.7972C36.04 9.8772 36.24 9.9572 36.44 10.0472C36.63 10.1272 36.82 10.2072 37 10.2872C37.01 10.2972 37.03 10.3072 37.04 10.3072C37.13 10.3472 37.22 10.3972 37.31 10.4372C37.41 10.4872 37.51 10.5372 37.61 10.5872C37.8 10.6872 37.98 10.7772 38.16 10.8872C38.28 10.9472 38.4 11.0172 38.51 11.0872C38.61 11.1372 38.71 11.1972 38.8 11.2572L39.19 11.4972C39.19 11.4972 39.25 11.5372 39.28 11.5572H39.29C39.29 11.5572 39.33 11.5872 39.35 11.6072C39.46 11.6672 39.57 11.7472 39.68 11.8172C39.68 11.8272 39.69 11.8272 39.69 11.8272C39.74 11.8672 39.79 11.8972 39.84 11.9372C39.94 12.0072 40.03 12.0672 40.13 12.1372C40.14 12.1472 40.16 12.1672 40.18 12.1772C40.25 12.2272 40.33 12.2872 40.41 12.3472C40.46 12.3872 40.52 12.4372 40.58 12.4772C40.61 12.5072 40.63 12.5272 40.66 12.5472C40.74 12.5972 40.81 12.6572 40.89 12.7272C40.93 12.7572 40.98 12.7972 41.02 12.8272C41.08 12.8872 41.15 12.9372 41.22 12.9972C41.25 13.0272 41.29 13.0572 41.33 13.0872C41.36 13.1172 41.4 13.1472 41.43 13.1772C41.5 13.2372 41.56 13.2972 41.62 13.3572C41.68 13.3972 41.73 13.4472 41.79 13.4972C41.84 13.5472 41.9 13.5972 41.95 13.6472L41.98 13.6772C41.98 13.6772 42.01 13.7172 42.03 13.7272C42.14 13.8372 42.25 13.9372 42.35 14.0472L42.41 14.1072C42.53 14.2172 42.63 14.3272 42.75 14.4472C42.78 14.4772 42.8 14.5072 42.83 14.5372C42.93 14.6472 43.03 14.7572 43.12 14.8572H43.13C43.21 14.9572 43.29 15.0572 43.37 15.1472C43.42 15.1972 43.46 15.2472 43.51 15.3072C43.52 15.3272 43.54 15.3472 43.56 15.3672C43.7 15.5372 43.84 15.7072 43.97 15.8872C44.1 16.0472 44.22 16.2072 44.34 16.3772C44.36 16.4072 44.37 16.4272 44.39 16.4572C44.51 16.6172 44.61 16.7672 44.72 16.9272C44.75 16.9772 44.79 17.0372 44.82 17.0872C44.93 17.2572 45.04 17.4172 45.14 17.5972C45.27 17.8072 45.39 18.0172 45.52 18.2372C45.54 18.2772 45.57 18.3272 45.59 18.3772C45.69 18.5572 45.79 18.7372 45.88 18.9172C45.92 19.0072 45.97 19.0972 46.01 19.1972C46.05 19.2872 46.1 19.3772 46.14 19.4672C46.22 19.6472 46.31 19.8372 46.39 20.0272C46.45 20.1672 46.5 20.3072 46.56 20.4472C46.62 20.5872 46.67 20.7372 46.73 20.8772C46.78 21.0272 46.83 21.1672 46.88 21.3172C46.98 21.6072 47.07 21.9072 47.15 22.1972C47.2 22.3472 47.23 22.4972 47.27 22.6472C47.31 22.7872 47.34 22.9172 47.37 23.0572C47.44 23.3272 47.49 23.5972 47.54 23.8772C47.57 23.9972 47.59 24.1172 47.61 24.2372V24.2772C47.63 24.3972 47.65 24.5172 47.67 24.6272C47.69 24.7572 47.71 24.8872 47.72 25.0172C47.75 25.2272 47.77 25.4372 47.79 25.6572C47.81 25.8272 47.82 25.9972 47.83 26.1772C47.83 26.2972 47.85 26.4272 47.85 26.5672C47.85 26.6672 47.86 26.7772 47.86 26.8872C47.86 27.0372 47.87 27.1972 47.87 27.3472C47.87 27.5072 47.86 27.6672 47.86 27.8272L47.84 27.8572Z" fill="#FEEE00"/>
<path d="M17.5897 5.89648H7.42969V8.39648H17.5897V5.89648Z" fill="#404553"/>
<path d="M47.8505 27.3769C47.8505 27.5369 47.8405 27.6969 47.8405 27.8569C47.8405 27.9769 47.8305 28.0969 47.8305 28.2169C47.8205 28.3269 47.8205 28.4269 47.8105 28.5269C47.8005 28.6669 47.7905 28.8069 47.7805 28.9569C47.7605 29.1869 47.7405 29.4169 47.7105 29.6469C47.7005 29.7769 47.6805 29.8969 47.6605 30.0169C47.6405 30.1469 47.6305 30.2669 47.6105 30.3869C47.5905 30.5069 47.5705 30.6269 47.5505 30.7469C47.5405 30.7669 47.5405 30.7969 47.5305 30.8269C47.5105 30.9469 47.4905 31.0669 47.4605 31.1769C47.4505 31.2169 47.4505 31.2669 47.4405 31.3069C47.4305 31.3469 47.4205 31.3869 47.4105 31.4369C47.3905 31.5069 47.3705 31.5869 47.3605 31.6669C47.3505 31.6669 47.3505 31.6769 47.3505 31.6769C47.3505 31.6969 47.3405 31.7269 47.3405 31.7469C47.3305 31.7469 47.3305 31.7669 47.3305 31.7769C47.3205 31.7969 47.3205 31.8169 47.3205 31.8369C47.2905 31.9569 47.2505 32.0869 47.2205 32.2069C47.2205 32.2269 47.2105 32.2369 47.2105 32.2469C47.1705 32.3969 47.1305 32.5469 47.0805 32.6969C47.0705 32.7669 47.0505 32.8169 47.0305 32.8569C47.0005 32.9669 46.9705 33.0669 46.9305 33.1669C46.9105 33.2469 46.8905 33.3269 46.8605 33.3969C46.8405 33.4769 46.8105 33.5469 46.7805 33.6269V33.6469C46.7305 33.7669 46.6905 33.8769 46.6505 33.9969C46.6405 34.0269 46.6305 34.0469 46.6205 34.0769C46.6105 34.0969 46.6105 34.1169 46.6005 34.1369C46.5505 34.2469 46.5105 34.3569 46.4705 34.4669C46.4605 34.4769 46.4505 34.4969 46.4405 34.5169C46.3905 34.6669 46.3305 34.8069 46.2605 34.9569C46.1905 35.0969 46.1305 35.2469 46.0605 35.3869C46.0405 35.4469 46.0105 35.4969 45.9805 35.5569C45.9405 35.6469 45.9005 35.7269 45.8605 35.8169C45.8205 35.8869 45.7905 35.9569 45.7505 36.0269C45.7105 36.0969 45.6805 36.1569 45.6405 36.2269C45.5605 36.3669 45.4805 36.5069 45.4105 36.6469C45.1005 37.1969 44.7605 37.7269 44.4005 38.2369C44.3005 38.3869 44.1905 38.5269 44.0805 38.6769C44.0105 38.7669 43.9505 38.8469 43.8805 38.9269C43.7405 39.1169 43.5905 39.3069 43.4305 39.4869C43.4005 39.5269 43.3705 39.5669 43.3405 39.5969C43.2505 39.6969 43.1705 39.7969 43.0905 39.8869C43.0505 39.9369 43.0005 39.9869 42.9605 40.0369C42.9505 40.0469 42.9405 40.0569 42.9305 40.0569C42.7905 40.2169 42.6405 40.3669 42.5005 40.5169C42.4605 40.5469 42.4305 40.5869 42.4005 40.6069C42.2705 40.7469 42.1405 40.8769 42.0105 40.9969L41.9805 41.0269C41.9805 41.0269 41.9505 41.0469 41.9505 41.0569C41.8605 41.1469 41.7705 41.2269 41.6805 41.3069C41.6105 41.3769 41.5405 41.4369 41.4705 41.4969C41.3805 41.5769 41.2805 41.6569 41.1805 41.7469C41.1405 41.7769 41.1105 41.8069 41.0705 41.8369C40.9805 41.9169 40.8805 41.9869 40.7905 42.0669C40.7705 42.0769 40.7605 42.0969 40.7405 42.1069C40.7105 42.1269 40.6805 42.1569 40.6605 42.1769C40.6505 42.1769 40.6405 42.1869 40.6305 42.1969C40.6305 42.2069 40.6105 42.2069 40.6005 42.2169L40.5705 42.2469C40.5105 42.2769 40.4705 42.3169 40.4205 42.3569C40.2105 42.5169 40.0005 42.6669 39.7805 42.8169C39.7005 42.8769 39.6205 42.9269 39.5405 42.9869C39.4205 43.0669 39.3005 43.1469 39.1805 43.2269C39.0605 43.2969 38.9305 43.3769 38.8105 43.4569C38.7705 43.4769 38.7305 43.5069 38.6905 43.5269C38.5505 43.6169 38.4005 43.6969 38.2505 43.7769C38.1705 43.8269 38.0805 43.8769 38.0005 43.9169C37.9205 43.9669 37.8405 44.0069 37.7505 44.0469C37.6305 44.1169 37.5105 44.1769 37.3905 44.2369C37.2305 44.3169 37.0605 44.3969 36.9005 44.4769C36.7405 44.5469 36.5705 44.6269 36.4005 44.6969C36.2605 44.7569 36.1205 44.8169 35.9705 44.8769C35.8205 44.9369 35.6505 44.9969 35.4905 45.0569C35.4405 45.0769 35.3905 45.0969 35.3505 45.1169C35.3005 45.1169 35.2505 45.1469 35.2005 45.1569C35.1705 45.1769 35.1405 45.1869 35.1005 45.1969C35.0705 45.2069 35.0505 45.2169 35.0205 45.2269C34.9905 45.2369 34.9605 45.2469 34.9405 45.2569C34.8805 45.2769 34.8305 45.2869 34.7705 45.3069C34.7505 45.3069 34.7305 45.3269 34.7105 45.3269C34.7005 45.3369 34.6905 45.3369 34.6905 45.3369C34.6705 45.3469 34.6505 45.3469 34.6205 45.3569C34.4605 45.4069 34.2905 45.4569 34.1205 45.5069C33.9905 45.5369 33.8605 45.5769 33.7305 45.6169H33.7105C33.7105 45.6169 33.6505 45.6169 33.6205 45.6369C33.6105 45.6369 33.5905 45.6469 33.5805 45.6469C33.5705 45.6469 33.5605 45.6569 33.5505 45.6569C33.4705 45.6769 33.4005 45.6869 33.3305 45.7069C33.2505 45.7269 33.1805 45.7469 33.1005 45.7569C33.0705 45.7669 33.0305 45.7769 32.9905 45.7869C32.8205 45.8169 32.6505 45.8469 32.4805 45.8869C32.3305 45.9169 32.1705 45.9369 32.0105 45.9669C31.9805 45.9769 31.9505 45.9769 31.9205 45.9769C31.8905 45.9869 31.8605 45.9869 31.8305 45.9969C31.7805 45.9969 31.7405 45.9969 31.6905 46.0169C31.6605 46.0269 31.6205 46.0269 31.5805 46.0269C31.5305 46.0369 31.4905 46.0469 31.4405 46.0469C31.4105 46.0469 31.3805 46.0569 31.3505 46.0569C31.3105 46.0569 31.2605 46.0569 31.2205 46.0769C31.1705 46.0769 31.1205 46.0869 31.0805 46.0869C30.9805 46.0969 30.8805 46.1169 30.7805 46.1169C30.6905 46.1169 30.6105 46.1369 30.5305 46.1469C30.4505 46.1469 30.3705 46.1569 30.2905 46.1569C30.2605 46.1669 30.2205 46.1669 30.1805 46.1669C30.1005 46.1769 30.0205 46.1769 29.9305 46.1769C29.8605 46.1869 29.7905 46.1869 29.7205 46.1869C29.6505 46.1869 29.5805 46.1869 29.5105 46.1869C29.4305 46.1869 29.3505 46.1869 29.2705 46.1969H28.7805C28.7005 46.1869 28.6205 46.1869 28.5405 46.1869C28.4105 46.1869 28.2805 46.1869 28.1505 46.1669H28.0605C27.9505 46.1669 27.8405 46.1569 27.7405 46.1469H27.6005C27.4405 46.1269 27.2905 46.1069 27.1305 46.0969H27.0805C27.0805 46.0969 27.0405 46.0869 27.0205 46.0869C26.9905 46.0869 26.9505 46.0769 26.9205 46.0769C26.8405 46.0669 26.7705 46.0569 26.7005 46.0469L26.4605 46.0169C26.4605 46.0169 26.4305 46.0069 26.4105 46.0069C26.3505 45.9969 26.3005 45.9869 26.2405 45.9869C26.0605 45.9569 25.8805 45.9269 25.7005 45.8969C25.5905 45.8769 25.4805 45.8569 25.3705 45.8369C25.3605 45.8269 25.3505 45.8269 25.3405 45.8269C25.2805 45.8169 25.2205 45.8069 25.1705 45.7869C25.1105 45.7769 25.0505 45.7669 24.9905 45.7469C24.7805 45.7069 24.5805 45.6569 24.3805 45.6069C24.1905 45.5569 23.9905 45.5069 23.8005 45.4469C23.6505 45.4069 23.5105 45.3569 23.3705 45.3169C23.2205 45.2669 23.0805 45.2269 22.9405 45.1769C22.8405 45.1369 22.7305 45.1069 22.6405 45.0669C22.5005 45.0169 22.3605 44.9669 22.2305 44.9069C22.1905 44.8969 22.1505 44.8869 22.1205 44.8669C22.1005 44.8669 22.0905 44.8669 22.0805 44.8669C22.0805 44.8569 22.0605 44.8569 22.0505 44.8569C22.0205 44.8369 21.9805 44.8269 21.9505 44.8069C21.9205 44.7969 21.8805 44.7869 21.8505 44.7669C21.7205 44.7169 21.6005 44.6669 21.4805 44.6069C21.3405 44.5469 21.1905 44.4769 21.0405 44.4169C21.0205 44.4069 21.0005 44.3969 20.9805 44.3869C20.9605 44.3769 20.9405 44.3669 20.9305 44.3569C20.9205 44.3569 20.9105 44.3569 20.9105 44.3469C20.8705 44.3269 20.8205 44.3069 20.7805 44.2869C20.7205 44.2569 20.6705 44.2369 20.6105 44.2069H20.6005C20.5005 44.1569 20.4005 44.1069 20.3005 44.0469C20.1805 43.9869 20.0605 43.9269 19.9505 43.8569C19.8305 43.7969 19.7105 43.7269 19.6005 43.6669C19.4805 43.5969 19.3705 43.5269 19.2505 43.4569C19.1605 43.4069 19.0705 43.3469 18.9705 43.2869C18.9005 43.2369 18.8205 43.1869 18.7405 43.1369C18.6905 43.1069 18.6405 43.0669 18.5805 43.0269C18.4705 42.9569 18.3605 42.8769 18.2505 42.8069C18.0205 42.6369 17.7905 42.4769 17.5705 42.2969C17.4805 42.2269 17.3905 42.1569 17.3005 42.0869C17.2005 42.0069 17.1005 41.9269 17.0005 41.8469C17.0005 41.8369 16.9905 41.8369 16.9905 41.8369H16.9805C16.7905 41.6669 16.6005 41.4969 16.4105 41.3369C16.3905 41.3069 16.3605 41.2869 16.3305 41.2569C16.1605 41.1069 15.9905 40.9469 15.8305 40.7769C15.8105 40.7669 15.7905 40.7469 15.7705 40.7269L15.6805 40.6269C15.5105 40.4569 15.3405 40.2869 15.1805 40.1069L15.0905 40.0169C15.0305 39.9469 14.9605 39.8769 14.9005 39.7969C14.8405 39.7369 14.7805 39.6669 14.7205 39.5969C14.7005 39.5769 14.6905 39.5569 14.6705 39.5469C14.6205 39.4769 14.5705 39.4169 14.5105 39.3569C14.5005 39.3369 14.4805 39.3169 14.4705 39.2969C14.2705 39.0569 14.0805 38.8169 13.9005 38.5669C13.7905 38.4269 13.6905 38.2769 13.5905 38.1369C13.4905 37.9869 13.3905 37.8469 13.2905 37.6969C13.1905 37.5469 13.1005 37.3969 13.0105 37.2469C12.9305 37.1269 12.8605 37.0069 12.7905 36.8869C12.7305 36.7969 12.6805 36.6969 12.6305 36.6069C12.5805 36.5169 12.5205 36.4169 12.4705 36.3269C12.3905 36.1669 12.3105 36.0069 12.2205 35.8469C12.0705 35.5469 11.9205 35.2269 11.7905 34.9069C11.7405 34.8069 11.6905 34.6969 11.6505 34.5969C11.6105 34.4969 11.5605 34.3869 11.5205 34.2869C11.5205 34.2769 11.5205 34.2569 11.5205 34.2469C11.4105 33.9769 11.3105 33.6969 11.2105 33.4169C11.2105 33.4069 11.2005 33.3869 11.2005 33.3669C11.1405 33.1969 11.0905 33.0269 11.0405 32.8569C11.0305 32.8369 11.0205 32.8169 11.0205 32.7969C10.9805 32.6769 10.9505 32.5569 10.9105 32.4369C10.9005 32.4069 10.8905 32.3669 10.8805 32.3269C10.8405 32.1869 10.8105 32.0269 10.7705 31.8769C10.7605 31.8369 10.7505 31.7969 10.7405 31.7569C10.7005 31.5969 10.6605 31.4269 10.6305 31.2669C10.6205 31.2369 10.6205 31.2069 10.6105 31.1769C10.5905 31.1069 10.5805 31.0269 10.5705 30.9469C10.5605 30.9069 10.5505 30.8569 10.5405 30.8069C10.5305 30.7769 10.5305 30.7469 10.5205 30.7269C10.4905 30.5269 10.4505 30.3369 10.4305 30.1369C10.4105 30.0169 10.3905 29.8969 10.3805 29.7769C10.3705 29.6969 10.3605 29.6169 10.3505 29.5469C10.3405 29.4169 10.3205 29.2969 10.3105 29.1669C10.3005 29.0969 10.3005 29.0269 10.2905 28.9569C10.2805 28.8869 10.2805 28.8169 10.2705 28.7469C10.2705 28.6769 10.2705 28.6169 10.2605 28.5469C10.2605 28.4869 10.2505 28.4169 10.2505 28.3569V28.3369C10.2405 28.1869 10.2405 28.0269 10.2305 27.8669V10.0869H17.6105V19.5069H17.6205V29.7069C17.6205 30.6169 17.9905 31.4469 18.5805 32.0369C18.6605 32.1169 18.7405 32.1869 18.8305 32.2669C18.9205 32.3369 19.0105 32.4069 19.1205 32.4669C19.5005 32.7269 19.9605 32.9069 20.4405 32.9669C20.5005 32.9869 20.5605 32.9869 20.6205 32.9969C20.7205 32.9969 20.8105 32.9969 20.9205 32.9969H22.9605C23.0905 33.0069 23.2305 33.0169 23.3705 33.0169C25.6705 32.9969 27.9805 32.9969 30.2805 32.9969C31.0005 32.9969 31.7205 33.0069 32.4405 33.0069H35.2605C36.9605 32.9969 38.2505 31.9569 38.5905 30.3069C39.0405 28.1169 39.4705 25.9169 39.9105 23.7269L40.0905 22.7969C40.2105 22.2069 40.3405 21.6169 40.4605 21.0269C40.4805 20.9269 40.4905 20.8269 40.4905 20.7269C40.4905 20.4369 40.4105 20.1369 40.2105 19.9169C39.9405 19.6169 39.5505 19.4969 39.0805 19.4869H37.3205C35.2505 19.4869 33.2005 19.4869 31.1405 19.4869H28.4805C27.9805 19.4869 27.4805 19.4869 26.9805 19.4869H26.9705C26.0505 19.4869 25.1305 19.4869 24.2105 19.4869C23.1505 19.4869 22.1005 19.4869 21.0405 19.4869C21.0105 19.4869 20.9905 19.4869 20.9605 19.4869H19.1205V11.3969C19.2705 11.2969 19.4305 11.1969 19.5905 11.1169C20.0205 10.8469 20.4705 10.6169 20.9205 10.3969C20.9305 10.3969 20.9505 10.3869 20.9605 10.3769C21.1905 10.2669 21.4205 10.1569 21.6605 10.0669C22.7305 9.60686 23.8605 9.23687 25.0205 8.97687C25.2205 8.93687 25.4205 8.89687 25.6305 8.85687C25.7305 8.83687 25.8305 8.81687 25.9305 8.80687C26.1005 8.77687 26.2605 8.74687 26.4305 8.72687C26.6905 8.68687 26.9505 8.65686 27.2105 8.62686L27.6305 8.59686H27.6805C27.7505 8.58686 27.8105 8.57687 27.8805 8.57687C27.9505 8.57687 28.0105 8.56686 28.0805 8.56686H28.1105C28.1905 8.56686 28.2605 8.55687 28.3305 8.55687C28.4205 8.55687 28.5005 8.55687 28.5905 8.54688C28.7505 8.54688 29.0205 8.54688 29.1805 8.54688C29.2405 8.54688 29.3005 8.54688 29.3705 8.54688C29.4505 8.54688 29.5405 8.54687 29.6205 8.55687H29.9005C30.0105 8.56687 30.1205 8.56687 30.2305 8.57687H30.2505C30.3105 8.57687 30.3705 8.58687 30.4305 8.58687C30.4505 8.59687 30.4705 8.59686 30.4905 8.59686H30.5205C30.6405 8.59686 30.7605 8.61686 30.8905 8.62686C30.9505 8.63686 31.0005 8.64687 31.0605 8.64687C31.1105 8.65687 31.1605 8.65687 31.2105 8.66687C31.2905 8.66687 31.3705 8.68687 31.4405 8.69687C31.5005 8.69687 31.5505 8.70687 31.6005 8.71687H31.6305C31.6305 8.71687 31.6605 8.71687 31.6805 8.72687C31.7205 8.72687 31.7605 8.72687 31.7905 8.72687C31.8305 8.73687 31.8705 8.73687 31.9105 8.74687C32.0505 8.76687 32.1805 8.78686 32.3105 8.81686C32.3405 8.81686 32.3705 8.82687 32.4005 8.82687C32.5505 8.85687 32.6905 8.88687 32.8405 8.91687C32.8705 8.91687 32.9005 8.92687 32.9405 8.93687C32.9605 8.93687 32.9805 8.94687 33.0005 8.94687C33.1905 8.98687 33.3905 9.03687 33.5805 9.08687C33.6405 9.08687 33.7005 9.11686 33.7605 9.12686C33.8005 9.13686 33.8505 9.14686 33.8905 9.15686C33.9905 9.18686 34.0905 9.21687 34.2005 9.24687C34.5005 9.33687 34.7905 9.41686 35.0805 9.51686C35.1705 9.54686 35.2605 9.58687 35.3505 9.61687C35.4105 9.63687 35.4605 9.65686 35.5205 9.67686C35.6305 9.71686 35.7305 9.75688 35.8405 9.79688C36.0405 9.87688 36.2405 9.95687 36.4405 10.0469C36.6305 10.1269 36.8205 10.2069 37.0005 10.2869C37.0105 10.2969 37.0305 10.3069 37.0405 10.3069C37.1305 10.3469 37.2205 10.3969 37.3105 10.4369C37.4105 10.4869 37.5105 10.5369 37.6105 10.5869C37.8005 10.6869 37.9805 10.7769 38.1605 10.8869C38.2805 10.9469 38.4005 11.0169 38.5105 11.0869C38.6105 11.1369 38.7105 11.1969 38.8005 11.2569L39.1905 11.4969C39.1905 11.4969 39.2505 11.5369 39.2805 11.5569H39.2905C39.2905 11.5569 39.3305 11.5869 39.3505 11.6069C39.4605 11.6669 39.5705 11.7469 39.6805 11.8169C39.6805 11.8269 39.6905 11.8269 39.6905 11.8269C39.7405 11.8669 39.7905 11.8969 39.8405 11.9369C39.9405 12.0069 40.0305 12.0669 40.1305 12.1369C40.1405 12.1469 40.1605 12.1669 40.1805 12.1769C40.2505 12.2269 40.3305 12.2869 40.4105 12.3469C40.4605 12.3869 40.5205 12.4369 40.5805 12.4769C40.6105 12.5069 40.6305 12.5269 40.6605 12.5469C40.7405 12.5969 40.8105 12.6569 40.8905 12.7269C40.9305 12.7569 40.9805 12.7969 41.0205 12.8269C41.0805 12.8869 41.1505 12.9369 41.2205 12.9969C41.2505 13.0269 41.2905 13.0569 41.3305 13.0869C41.3605 13.1169 41.4005 13.1469 41.4305 13.1769C41.5005 13.2369 41.5605 13.2969 41.6205 13.3569C41.6805 13.3969 41.7305 13.4469 41.7905 13.4969C41.8405 13.5469 41.9005 13.5969 41.9505 13.6469L41.9805 13.6769C41.9805 13.6769 42.0105 13.7169 42.0305 13.7269C42.1405 13.8369 42.2505 13.9369 42.3505 14.0469L42.4105 14.1069C42.5305 14.2169 42.6305 14.3269 42.7505 14.4469C42.7805 14.4769 42.8005 14.5069 42.8305 14.5369C42.9305 14.6469 43.0305 14.7569 43.1205 14.8569H43.1305C43.2105 14.9569 43.2905 15.0569 43.3705 15.1469C43.4205 15.1969 43.4605 15.2469 43.5105 15.3069C43.5205 15.3269 43.5405 15.3469 43.5605 15.3669C43.7005 15.5369 43.8405 15.7069 43.9705 15.8869C44.1005 16.0469 44.2205 16.2069 44.3405 16.3769C44.3605 16.4069 44.3705 16.4269 44.3905 16.4569C44.5105 16.6169 44.6105 16.7669 44.7205 16.9269C44.7505 16.9769 44.7905 17.0369 44.8205 17.0869C44.9305 17.2569 45.0405 17.4169 45.1405 17.5969C45.2705 17.8069 45.3905 18.0169 45.5205 18.2369C45.5405 18.2769 45.5705 18.3269 45.5905 18.3769C45.6905 18.5569 45.7905 18.7369 45.8805 18.9169C45.9205 19.0069 45.9705 19.0969 46.0105 19.1969C46.0505 19.2869 46.1005 19.3769 46.1405 19.4669C46.2205 19.6469 46.3105 19.8369 46.3905 20.0269C46.4505 20.1669 46.5005 20.3069 46.5605 20.4469C46.6205 20.5869 46.6705 20.7369 46.7305 20.8769C46.7805 21.0269 46.8305 21.1669 46.8805 21.3169C46.9805 21.6069 47.0705 21.9069 47.1505 22.1969C47.2005 22.3469 47.2305 22.4969 47.2705 22.6469C47.3105 22.7869 47.3405 22.9169 47.3705 23.0569C47.4405 23.3269 47.4905 23.5969 47.5405 23.8769C47.5705 23.9969 47.5905 24.1169 47.6105 24.2369V24.2769C47.6305 24.3969 47.6505 24.5169 47.6705 24.6269C47.6905 24.7569 47.7105 24.8869 47.7205 25.0169C47.7505 25.2269 47.7705 25.4369 47.7905 25.6569C47.8105 25.8269 47.8205 25.9969 47.8305 26.1769C47.8305 26.2969 47.8505 26.4269 47.8505 26.5669C47.8505 26.6669 47.8605 26.7769 47.8605 26.8869C47.8605 27.0369 47.8705 27.1969 47.8705 27.3469L47.8505 27.3769Z" fill="#404553"/>
</svg>
