<svg width="56" height="52" viewBox="0 0 56 52" fill="none" xmlns="http://www.w3.org/2000/svg">
<path d="M50.28 0.0976562H5C2.24 0.0976562 0 2.33766 0 5.09766V46.4677C0 49.2377 2.24 51.4677 5 51.4677H50.28C53.05 51.4677 55.28 49.2377 55.28 46.4677V5.09766C55.28 2.33766 53.05 0.0976562 50.28 0.0976562ZM7.43 5.62766H17.59V8.12766H7.43V5.62766ZM47.84 27.5877C47.84 27.7077 47.83 27.8277 47.83 27.9477C47.82 28.0577 47.82 28.1577 47.81 28.2577C47.8 28.3977 47.79 28.5377 47.78 28.6877C47.76 28.9177 47.74 29.1477 47.71 29.3777C47.7 29.5077 47.68 29.6276 47.66 29.7477C47.64 29.8776 47.63 29.9977 47.61 30.1177C47.59 30.2377 47.57 30.3577 47.55 30.4777C47.54 30.4977 47.54 30.5277 47.53 30.5577C47.51 30.6777 47.49 30.7977 47.46 30.9077C47.45 30.9477 47.45 30.9977 47.44 31.0377C47.43 31.0777 47.42 31.1177 47.41 31.1677C47.39 31.2377 47.37 31.3177 47.36 31.3977C47.35 31.3977 47.35 31.4077 47.35 31.4077C47.35 31.4277 47.34 31.4577 47.34 31.4777C47.33 31.4777 47.33 31.4977 47.33 31.5077C47.32 31.5277 47.32 31.5477 47.32 31.5677C47.29 31.6877 47.25 31.8177 47.22 31.9377C47.22 31.9577 47.21 31.9677 47.21 31.9777C47.17 32.1277 47.13 32.2777 47.08 32.4277C47.07 32.4977 47.05 32.5477 47.03 32.5877C47 32.6977 46.97 32.7977 46.93 32.8977C46.91 32.9777 46.89 33.0577 46.86 33.1277C46.84 33.2077 46.81 33.2776 46.78 33.3577V33.3777C46.73 33.4977 46.69 33.6077 46.65 33.7277C46.64 33.7577 46.63 33.7777 46.62 33.8077C46.61 33.8277 46.61 33.8477 46.6 33.8677C46.55 33.9777 46.51 34.0877 46.47 34.1977C46.46 34.2077 46.45 34.2276 46.44 34.2477C46.39 34.3977 46.33 34.5377 46.26 34.6877C46.19 34.8277 46.13 34.9777 46.06 35.1177C46.04 35.1777 46.01 35.2277 45.98 35.2877C45.94 35.3777 45.9 35.4577 45.86 35.5477C45.82 35.6177 45.79 35.6877 45.75 35.7577C45.71 35.8277 45.68 35.8877 45.64 35.9577C45.56 36.0977 45.48 36.2377 45.41 36.3777C45.1 36.9277 44.76 37.4577 44.4 37.9677C44.3 38.1177 44.19 38.2577 44.08 38.4077C44.01 38.4977 43.95 38.5777 43.88 38.6577C43.74 38.8477 43.59 39.0377 43.43 39.2177C43.4 39.2577 43.37 39.2977 43.34 39.3277C43.25 39.4277 43.17 39.5277 43.09 39.6177C43.05 39.6677 43 39.7177 42.96 39.7677C42.95 39.7777 42.94 39.7877 42.93 39.7877C42.79 39.9477 42.64 40.0976 42.5 40.2477C42.46 40.2776 42.43 40.3177 42.4 40.3377C42.27 40.4777 42.14 40.6077 42.01 40.7277L41.98 40.7577C41.98 40.7577 41.95 40.7777 41.95 40.7877C41.86 40.8777 41.77 40.9577 41.68 41.0377C41.61 41.1077 41.54 41.1677 41.47 41.2277C41.38 41.3077 41.28 41.3877 41.18 41.4777C41.14 41.5077 41.11 41.5377 41.07 41.5677C40.98 41.6477 40.88 41.7177 40.79 41.7977C40.77 41.8077 40.76 41.8277 40.74 41.8377C40.71 41.8577 40.68 41.8877 40.66 41.9077C40.65 41.9077 40.64 41.9177 40.63 41.9277C40.63 41.9377 40.61 41.9377 40.6 41.9477L40.57 41.9777C40.51 42.0077 40.47 42.0477 40.42 42.0877C40.21 42.2477 40 42.3977 39.78 42.5477C39.7 42.6077 39.62 42.6576 39.54 42.7177C39.42 42.7977 39.3 42.8777 39.18 42.9577C39.06 43.0277 38.93 43.1077 38.81 43.1877C38.77 43.2077 38.73 43.2377 38.69 43.2577C38.55 43.3477 38.4 43.4277 38.25 43.5077C38.17 43.5577 38.08 43.6077 38 43.6477C37.92 43.6977 37.84 43.7377 37.75 43.7777C37.63 43.8477 37.51 43.9076 37.39 43.9677C37.23 44.0477 37.06 44.1277 36.9 44.2077C36.74 44.2777 36.57 44.3577 36.4 44.4277C36.26 44.4877 36.12 44.5476 35.97 44.6077C35.82 44.6677 35.65 44.7277 35.49 44.7877C35.44 44.8077 35.39 44.8277 35.35 44.8477C35.3 44.8477 35.25 44.8777 35.2 44.8876C35.17 44.9076 35.14 44.9177 35.1 44.9277C35.07 44.9377 35.05 44.9477 35.02 44.9577C34.99 44.9677 34.96 44.9777 34.94 44.9877C34.88 45.0077 34.83 45.0177 34.77 45.0377C34.75 45.0377 34.73 45.0577 34.71 45.0577C34.7 45.0677 34.69 45.0677 34.69 45.0677C34.67 45.0777 34.65 45.0777 34.62 45.0877C34.46 45.1377 34.29 45.1877 34.12 45.2377C33.99 45.2677 33.86 45.3077 33.73 45.3477H33.71C33.71 45.3477 33.65 45.3477 33.62 45.3677C33.61 45.3677 33.59 45.3777 33.58 45.3777C33.57 45.3777 33.56 45.3876 33.55 45.3876C33.47 45.4076 33.4 45.4177 33.33 45.4377C33.25 45.4577 33.18 45.4777 33.1 45.4877C33.07 45.4977 33.03 45.5077 32.99 45.5177C32.82 45.5477 32.65 45.5777 32.48 45.6177C32.33 45.6477 32.17 45.6677 32.01 45.6977C31.98 45.7077 31.95 45.7077 31.92 45.7077C31.89 45.7177 31.86 45.7177 31.83 45.7277C31.78 45.7277 31.74 45.7276 31.69 45.7477C31.66 45.7576 31.62 45.7577 31.58 45.7577C31.53 45.7677 31.49 45.7777 31.44 45.7777C31.41 45.7777 31.38 45.7877 31.35 45.7877C31.31 45.7877 31.26 45.7877 31.22 45.8077C31.17 45.8077 31.12 45.8177 31.08 45.8177C30.98 45.8277 30.88 45.8477 30.78 45.8477C30.69 45.8477 30.61 45.8677 30.53 45.8777C30.45 45.8777 30.37 45.8876 30.29 45.8876C30.26 45.8976 30.22 45.8977 30.18 45.8977C30.1 45.9077 30.02 45.9077 29.93 45.9077C29.86 45.9177 29.79 45.9177 29.72 45.9177C29.65 45.9177 29.58 45.9177 29.51 45.9177C29.43 45.9177 29.35 45.9177 29.27 45.9277H28.78C28.7 45.9177 28.62 45.9177 28.54 45.9177C28.41 45.9177 28.28 45.9177 28.15 45.8977H28.06C27.95 45.8977 27.84 45.8877 27.74 45.8777H27.6C27.44 45.8577 27.29 45.8377 27.13 45.8277H27.08C27.08 45.8277 27.04 45.8177 27.02 45.8177C26.99 45.8177 26.95 45.8077 26.92 45.8077C26.84 45.7977 26.77 45.7877 26.7 45.7777L26.46 45.7477C26.46 45.7477 26.43 45.7377 26.41 45.7377C26.35 45.7277 26.3 45.7177 26.24 45.7177C26.06 45.6877 25.88 45.6577 25.7 45.6277C25.59 45.6077 25.48 45.5877 25.37 45.5677C25.36 45.5577 25.35 45.5577 25.34 45.5577C25.28 45.5477 25.22 45.5377 25.17 45.5177C25.11 45.5077 25.05 45.4977 24.99 45.4777C24.78 45.4377 24.58 45.3877 24.38 45.3377C24.19 45.2877 23.99 45.2377 23.8 45.1777C23.65 45.1377 23.51 45.0877 23.37 45.0477C23.22 44.9977 23.08 44.9577 22.94 44.9077C22.84 44.8677 22.73 44.8377 22.64 44.7977C22.5 44.7477 22.36 44.6977 22.23 44.6376C22.19 44.6277 22.15 44.6177 22.12 44.5977C22.1 44.5977 22.09 44.5977 22.08 44.5977C22.08 44.5877 22.06 44.5877 22.05 44.5877C22.02 44.5677 21.98 44.5577 21.95 44.5377C21.92 44.5277 21.88 44.5177 21.85 44.4977C21.72 44.4477 21.6 44.3977 21.48 44.3377C21.34 44.2777 21.19 44.2077 21.04 44.1477C21.02 44.1377 21 44.1277 20.98 44.1177C20.96 44.1077 20.94 44.0977 20.93 44.0877C20.92 44.0877 20.91 44.0877 20.91 44.0777C20.87 44.0577 20.82 44.0377 20.78 44.0177C20.72 43.9877 20.67 43.9677 20.61 43.9377H20.6C20.5 43.8877 20.4 43.8377 20.3 43.7777C20.18 43.7177 20.06 43.6577 19.95 43.5877C19.83 43.5277 19.71 43.4577 19.6 43.3977C19.48 43.3277 19.37 43.2577 19.25 43.1877C19.16 43.1377 19.07 43.0777 18.97 43.0177C18.9 42.9677 18.82 42.9177 18.74 42.8677C18.69 42.8377 18.64 42.7977 18.58 42.7577C18.47 42.6877 18.36 42.6077 18.25 42.5377C18.02 42.3677 17.79 42.2077 17.57 42.0277C17.48 41.9577 17.39 41.8877 17.3 41.8177C17.2 41.7377 17.1 41.6577 17 41.5777C17 41.5677 16.99 41.5677 16.99 41.5677H16.98C16.79 41.3977 16.6 41.2277 16.41 41.0677C16.39 41.0377 16.36 41.0177 16.33 40.9877C16.16 40.8377 15.99 40.6777 15.83 40.5077C15.81 40.4977 15.79 40.4777 15.77 40.4577L15.68 40.3577C15.51 40.1877 15.34 40.0177 15.18 39.8377L15.09 39.7477C15.03 39.6777 14.96 39.6077 14.9 39.5277C14.84 39.4677 14.78 39.3977 14.72 39.3277C14.7 39.3077 14.69 39.2877 14.67 39.2777C14.62 39.2077 14.57 39.1477 14.51 39.0877C14.5 39.0677 14.48 39.0477 14.47 39.0277C14.27 38.7877 14.08 38.5477 13.9 38.2977C13.79 38.1577 13.69 38.0077 13.59 37.8677C13.49 37.7177 13.39 37.5777 13.29 37.4277C13.19 37.2777 13.1 37.1277 13.01 36.9777C12.93 36.8577 12.86 36.7377 12.79 36.6177C12.73 36.5277 12.68 36.4277 12.63 36.3377C12.58 36.2477 12.52 36.1477 12.47 36.0577C12.39 35.8977 12.31 35.7377 12.22 35.5777C12.07 35.2777 11.92 34.9576 11.79 34.6376C11.74 34.5377 11.69 34.4277 11.65 34.3277C11.61 34.2277 11.56 34.1177 11.52 34.0177C11.52 34.0077 11.52 33.9877 11.52 33.9777C11.41 33.7077 11.31 33.4277 11.21 33.1477C11.21 33.1377 11.2 33.1177 11.2 33.0977C11.14 32.9277 11.09 32.7577 11.04 32.5877C11.03 32.5677 11.02 32.5477 11.02 32.5277C10.98 32.4077 10.95 32.2877 10.91 32.1677C10.9 32.1377 10.89 32.0977 10.88 32.0577C10.84 31.9177 10.81 31.7577 10.77 31.6077C10.76 31.5676 10.75 31.5277 10.74 31.4877C10.7 31.3277 10.66 31.1576 10.63 30.9977C10.62 30.9676 10.62 30.9377 10.61 30.9077C10.59 30.8377 10.58 30.7577 10.57 30.6777C10.56 30.6377 10.55 30.5877 10.54 30.5377C10.53 30.5077 10.53 30.4777 10.52 30.4577C10.49 30.2577 10.45 30.0677 10.43 29.8677C10.41 29.7477 10.39 29.6277 10.38 29.5077C10.37 29.4277 10.36 29.3477 10.35 29.2777C10.34 29.1477 10.32 29.0277 10.31 28.8977C10.3 28.8277 10.3 28.7577 10.29 28.6877C10.28 28.6177 10.28 28.5477 10.27 28.4777C10.27 28.4077 10.27 28.3477 10.26 28.2777C10.26 28.2177 10.25 28.1477 10.25 28.0877V28.0677C10.24 27.9177 10.24 27.7577 10.23 27.5977V9.81766H17.61V19.2377H17.62V29.4377C17.62 30.3477 17.99 31.1777 18.58 31.7677C18.66 31.8477 18.74 31.9177 18.83 31.9977C18.92 32.0676 19.01 32.1377 19.12 32.1977C19.5 32.4577 19.96 32.6377 20.44 32.6977C20.5 32.7177 20.56 32.7177 20.62 32.7277C20.72 32.7277 20.81 32.7277 20.92 32.7277H22.96C23.09 32.7377 23.23 32.7477 23.37 32.7477C25.67 32.7276 27.98 32.7277 30.28 32.7277C31 32.7277 31.72 32.7377 32.44 32.7377H35.26C36.96 32.7277 38.25 31.6877 38.59 30.0377C39.04 27.8477 39.47 25.6477 39.91 23.4577L40.09 22.5277C40.21 21.9377 40.34 21.3477 40.46 20.7577C40.48 20.6577 40.49 20.5577 40.49 20.4577C40.49 20.1677 40.41 19.8677 40.21 19.6477C39.94 19.3477 39.55 19.2277 39.08 19.2177H37.32C35.25 19.2177 33.2 19.2177 31.14 19.2177H28.48C27.98 19.2177 27.48 19.2177 26.98 19.2177H26.97C26.05 19.2177 25.13 19.2177 24.21 19.2177C23.15 19.2177 22.1 19.2177 21.04 19.2177C21.01 19.2177 20.99 19.2177 20.96 19.2177H19.12V11.1277C19.27 11.0277 19.43 10.9277 19.59 10.8477C20.02 10.5777 20.47 10.3477 20.92 10.1277C20.93 10.1277 20.95 10.1177 20.96 10.1077C21.19 9.99765 21.42 9.88765 21.66 9.79765C22.73 9.33765 23.86 8.96766 25.02 8.70766C25.22 8.66766 25.42 8.62766 25.63 8.58766C25.73 8.56766 25.83 8.54766 25.93 8.53766C26.1 8.50766 26.26 8.47766 26.43 8.45766C26.69 8.41766 26.95 8.38765 27.21 8.35765L27.63 8.32765H27.68C27.75 8.31765 27.81 8.30766 27.88 8.30766C27.95 8.30766 28.01 8.29765 28.08 8.29765H28.11C28.19 8.29765 28.26 8.28766 28.33 8.28766C28.42 8.28766 28.5 8.28766 28.59 8.27766C28.75 8.27766 29.02 8.27766 29.18 8.27766C29.24 8.27766 29.3 8.27766 29.37 8.27766C29.45 8.27766 29.54 8.27766 29.62 8.28766H29.9C30.01 8.29766 30.12 8.29766 30.23 8.30766H30.25C30.31 8.30766 30.37 8.31766 30.43 8.31766C30.45 8.32766 30.47 8.32765 30.49 8.32765H30.52C30.64 8.32765 30.76 8.34765 30.89 8.35765C30.95 8.36765 31 8.37766 31.06 8.37766C31.11 8.38766 31.16 8.38766 31.21 8.39766C31.29 8.39766 31.37 8.41766 31.44 8.42766C31.5 8.42766 31.55 8.43766 31.6 8.44766H31.63C31.63 8.44766 31.66 8.44766 31.68 8.45766C31.72 8.45766 31.76 8.45766 31.79 8.45766C31.83 8.46766 31.87 8.46766 31.91 8.47766C32.05 8.49766 32.18 8.51765 32.31 8.54765C32.34 8.54765 32.37 8.55766 32.4 8.55766C32.55 8.58766 32.69 8.61766 32.84 8.64766C32.87 8.64766 32.9 8.65766 32.94 8.66766C32.96 8.66766 32.98 8.67766 33 8.67766C33.19 8.71766 33.39 8.76766 33.58 8.81766C33.64 8.81766 33.7 8.84765 33.76 8.85765C33.8 8.86765 33.85 8.87765 33.89 8.88765C33.99 8.91765 34.09 8.94766 34.2 8.97766C34.5 9.06766 34.79 9.14765 35.08 9.24765C35.17 9.27765 35.26 9.31766 35.35 9.34766C35.41 9.36766 35.46 9.38765 35.52 9.40765C35.63 9.44765 35.73 9.48766 35.84 9.52766C36.04 9.60766 36.24 9.68766 36.44 9.77766C36.63 9.85766 36.82 9.93765 37 10.0177C37.01 10.0277 37.03 10.0377 37.04 10.0377C37.13 10.0777 37.22 10.1277 37.31 10.1677C37.41 10.2177 37.51 10.2677 37.61 10.3177C37.8 10.4177 37.98 10.5077 38.16 10.6177C38.28 10.6777 38.4 10.7477 38.51 10.8177C38.61 10.8677 38.71 10.9277 38.8 10.9877L39.19 11.2277C39.19 11.2277 39.25 11.2677 39.28 11.2877H39.29C39.29 11.2877 39.33 11.3177 39.35 11.3377C39.46 11.3977 39.57 11.4777 39.68 11.5477C39.68 11.5577 39.69 11.5577 39.69 11.5577C39.74 11.5977 39.79 11.6277 39.84 11.6677C39.94 11.7377 40.03 11.7977 40.13 11.8677C40.14 11.8777 40.16 11.8977 40.18 11.9077C40.25 11.9577 40.33 12.0177 40.41 12.0777C40.46 12.1177 40.52 12.1677 40.58 12.2077C40.61 12.2377 40.63 12.2577 40.66 12.2777C40.74 12.3277 40.81 12.3877 40.89 12.4577C40.93 12.4877 40.98 12.5277 41.02 12.5577C41.08 12.6177 41.15 12.6677 41.22 12.7277C41.25 12.7577 41.29 12.7877 41.33 12.8177C41.36 12.8477 41.4 12.8777 41.43 12.9077C41.5 12.9677 41.56 13.0277 41.62 13.0877C41.68 13.1277 41.73 13.1777 41.79 13.2277C41.84 13.2777 41.9 13.3277 41.95 13.3777L41.98 13.4077C41.98 13.4077 42.01 13.4477 42.03 13.4577C42.14 13.5677 42.25 13.6677 42.35 13.7777L42.41 13.8377C42.53 13.9477 42.63 14.0577 42.75 14.1777C42.78 14.2077 42.8 14.2377 42.83 14.2677C42.93 14.3777 43.03 14.4877 43.12 14.5877H43.13C43.21 14.6877 43.29 14.7877 43.37 14.8777C43.42 14.9277 43.46 14.9777 43.51 15.0377C43.52 15.0577 43.54 15.0777 43.56 15.0977C43.7 15.2677 43.84 15.4377 43.97 15.6177C44.1 15.7777 44.22 15.9377 44.34 16.1077C44.36 16.1377 44.37 16.1577 44.39 16.1877C44.51 16.3477 44.61 16.4977 44.72 16.6577C44.75 16.7077 44.79 16.7677 44.82 16.8177C44.93 16.9877 45.04 17.1477 45.14 17.3277C45.27 17.5377 45.39 17.7477 45.52 17.9677C45.54 18.0077 45.57 18.0577 45.59 18.1077C45.69 18.2877 45.79 18.4677 45.88 18.6477C45.92 18.7377 45.97 18.8277 46.01 18.9277C46.05 19.0177 46.1 19.1077 46.14 19.1977C46.22 19.3777 46.31 19.5677 46.39 19.7577C46.45 19.8977 46.5 20.0377 46.56 20.1777C46.62 20.3177 46.67 20.4677 46.73 20.6077C46.78 20.7577 46.83 20.8977 46.88 21.0477C46.98 21.3377 47.07 21.6377 47.15 21.9277C47.2 22.0777 47.23 22.2277 47.27 22.3777C47.31 22.5177 47.34 22.6477 47.37 22.7877C47.44 23.0577 47.49 23.3277 47.54 23.6077C47.57 23.7277 47.59 23.8477 47.61 23.9677V24.0077C47.63 24.1277 47.65 24.2477 47.67 24.3577C47.69 24.4876 47.71 24.6177 47.72 24.7477C47.75 24.9576 47.77 25.1677 47.79 25.3876C47.81 25.5576 47.82 25.7277 47.83 25.9077C47.83 26.0277 47.85 26.1577 47.85 26.2977C47.85 26.3977 47.86 26.5077 47.86 26.6177C47.86 26.7677 47.87 26.9277 47.87 27.0777C47.87 27.2377 47.86 27.3977 47.86 27.5577L47.84 27.5877Z" fill="#FEEE00"/>
<path d="M17.5897 5.62695H7.42969V8.12695H17.5897V5.62695Z" fill="#404553"/>
<path d="M47.8505 27.1073C47.8505 27.2673 47.8405 27.4273 47.8405 27.5873C47.8405 27.7073 47.8305 27.8273 47.8305 27.9473C47.8205 28.0573 47.8205 28.1573 47.8105 28.2573C47.8005 28.3973 47.7905 28.5373 47.7805 28.6873C47.7605 28.9173 47.7405 29.1473 47.7105 29.3773C47.7005 29.5073 47.6805 29.6273 47.6605 29.7473C47.6405 29.8773 47.6305 29.9973 47.6105 30.1173C47.5905 30.2373 47.5705 30.3573 47.5505 30.4773C47.5405 30.4973 47.5405 30.5273 47.5305 30.5573C47.5105 30.6773 47.4905 30.7973 47.4605 30.9073C47.4505 30.9473 47.4505 30.9973 47.4405 31.0373C47.4305 31.0773 47.4205 31.1173 47.4105 31.1673C47.3905 31.2373 47.3705 31.3173 47.3605 31.3973C47.3505 31.3973 47.3505 31.4073 47.3505 31.4073C47.3505 31.4273 47.3405 31.4573 47.3405 31.4773C47.3305 31.4773 47.3305 31.4973 47.3305 31.5073C47.3205 31.5273 47.3205 31.5473 47.3205 31.5673C47.2905 31.6873 47.2505 31.8173 47.2205 31.9373C47.2205 31.9573 47.2105 31.9673 47.2105 31.9773C47.1705 32.1273 47.1305 32.2773 47.0805 32.4273C47.0705 32.4973 47.0505 32.5473 47.0305 32.5873C47.0005 32.6973 46.9705 32.7973 46.9305 32.8973C46.9105 32.9773 46.8905 33.0573 46.8605 33.1273C46.8405 33.2073 46.8105 33.2773 46.7805 33.3573V33.3773C46.7305 33.4973 46.6905 33.6073 46.6505 33.7273C46.6405 33.7573 46.6305 33.7773 46.6205 33.8073C46.6105 33.8273 46.6105 33.8473 46.6005 33.8673C46.5505 33.9773 46.5105 34.0873 46.4705 34.1973C46.4605 34.2073 46.4505 34.2273 46.4405 34.2473C46.3905 34.3973 46.3305 34.5373 46.2605 34.6873C46.1905 34.8273 46.1305 34.9773 46.0605 35.1173C46.0405 35.1773 46.0105 35.2273 45.9805 35.2873C45.9405 35.3773 45.9005 35.4573 45.8605 35.5473C45.8205 35.6173 45.7905 35.6873 45.7505 35.7573C45.7105 35.8273 45.6805 35.8873 45.6405 35.9573C45.5605 36.0973 45.4805 36.2373 45.4105 36.3773C45.1005 36.9273 44.7605 37.4573 44.4005 37.9673C44.3005 38.1173 44.1905 38.2573 44.0805 38.4073C44.0105 38.4973 43.9505 38.5773 43.8805 38.6573C43.7405 38.8473 43.5905 39.0373 43.4305 39.2173C43.4005 39.2573 43.3705 39.2973 43.3405 39.3273C43.2505 39.4273 43.1705 39.5273 43.0905 39.6173C43.0505 39.6673 43.0005 39.7173 42.9605 39.7673C42.9505 39.7773 42.9405 39.7873 42.9305 39.7873C42.7905 39.9473 42.6405 40.0973 42.5005 40.2473C42.4605 40.2773 42.4305 40.3173 42.4005 40.3373C42.2705 40.4773 42.1405 40.6073 42.0105 40.7273L41.9805 40.7573C41.9805 40.7573 41.9505 40.7773 41.9505 40.7873C41.8605 40.8773 41.7705 40.9573 41.6805 41.0373C41.6105 41.1073 41.5405 41.1673 41.4705 41.2273C41.3805 41.3073 41.2805 41.3873 41.1805 41.4773C41.1405 41.5073 41.1105 41.5373 41.0705 41.5673C40.9805 41.6473 40.8805 41.7173 40.7905 41.7973C40.7705 41.8073 40.7605 41.8273 40.7405 41.8373C40.7105 41.8573 40.6805 41.8873 40.6605 41.9073C40.6505 41.9073 40.6405 41.9173 40.6305 41.9273C40.6305 41.9373 40.6105 41.9373 40.6005 41.9473L40.5705 41.9773C40.5105 42.0073 40.4705 42.0473 40.4205 42.0873C40.2105 42.2473 40.0005 42.3973 39.7805 42.5473C39.7005 42.6073 39.6205 42.6573 39.5405 42.7173C39.4205 42.7973 39.3005 42.8773 39.1805 42.9573C39.0605 43.0273 38.9305 43.1073 38.8105 43.1873C38.7705 43.2073 38.7305 43.2373 38.6905 43.2573C38.5505 43.3473 38.4005 43.4273 38.2505 43.5073C38.1705 43.5573 38.0805 43.6073 38.0005 43.6473C37.9205 43.6973 37.8405 43.7373 37.7505 43.7773C37.6305 43.8473 37.5105 43.9073 37.3905 43.9673C37.2305 44.0473 37.0605 44.1273 36.9005 44.2073C36.7405 44.2773 36.5705 44.3573 36.4005 44.4273C36.2605 44.4873 36.1205 44.5473 35.9705 44.6073C35.8205 44.6673 35.6505 44.7273 35.4905 44.7873C35.4405 44.8073 35.3905 44.8273 35.3505 44.8473C35.3005 44.8473 35.2505 44.8773 35.2005 44.8873C35.1705 44.9073 35.1405 44.9173 35.1005 44.9273C35.0705 44.9373 35.0505 44.9473 35.0205 44.9573C34.9905 44.9673 34.9605 44.9773 34.9405 44.9873C34.8805 45.0073 34.8305 45.0173 34.7705 45.0373C34.7505 45.0373 34.7305 45.0573 34.7105 45.0573C34.7005 45.0673 34.6905 45.0673 34.6905 45.0673C34.6705 45.0773 34.6505 45.0773 34.6205 45.0873C34.4605 45.1373 34.2905 45.1873 34.1205 45.2373C33.9905 45.2673 33.8605 45.3073 33.7305 45.3473H33.7105C33.7105 45.3473 33.6505 45.3473 33.6205 45.3673C33.6105 45.3673 33.5905 45.3773 33.5805 45.3773C33.5705 45.3773 33.5605 45.3873 33.5505 45.3873C33.4705 45.4073 33.4005 45.4173 33.3305 45.4373C33.2505 45.4573 33.1805 45.4773 33.1005 45.4873C33.0705 45.4973 33.0305 45.5073 32.9905 45.5173C32.8205 45.5473 32.6505 45.5773 32.4805 45.6173C32.3305 45.6473 32.1705 45.6673 32.0105 45.6973C31.9805 45.7073 31.9505 45.7073 31.9205 45.7073C31.8905 45.7173 31.8605 45.7173 31.8305 45.7273C31.7805 45.7273 31.7405 45.7273 31.6905 45.7473C31.6605 45.7573 31.6205 45.7573 31.5805 45.7573C31.5305 45.7673 31.4905 45.7773 31.4405 45.7773C31.4105 45.7773 31.3805 45.7873 31.3505 45.7873C31.3105 45.7873 31.2605 45.7873 31.2205 45.8073C31.1705 45.8073 31.1205 45.8173 31.0805 45.8173C30.9805 45.8273 30.8805 45.8473 30.7805 45.8473C30.6905 45.8473 30.6105 45.8673 30.5305 45.8773C30.4505 45.8773 30.3705 45.8873 30.2905 45.8873C30.2605 45.8973 30.2205 45.8973 30.1805 45.8973C30.1005 45.9073 30.0205 45.9073 29.9305 45.9073C29.8605 45.9173 29.7905 45.9173 29.7205 45.9173C29.6505 45.9173 29.5805 45.9173 29.5105 45.9173C29.4305 45.9173 29.3505 45.9173 29.2705 45.9273H28.7805C28.7005 45.9173 28.6205 45.9173 28.5405 45.9173C28.4105 45.9173 28.2805 45.9173 28.1505 45.8973H28.0605C27.9505 45.8973 27.8405 45.8873 27.7405 45.8773H27.6005C27.4405 45.8573 27.2905 45.8373 27.1305 45.8273H27.0805C27.0805 45.8273 27.0405 45.8173 27.0205 45.8173C26.9905 45.8173 26.9505 45.8073 26.9205 45.8073C26.8405 45.7973 26.7705 45.7873 26.7005 45.7773L26.4605 45.7473C26.4605 45.7473 26.4305 45.7373 26.4105 45.7373C26.3505 45.7273 26.3005 45.7173 26.2405 45.7173C26.0605 45.6873 25.8805 45.6573 25.7005 45.6273C25.5905 45.6073 25.4805 45.5873 25.3705 45.5673C25.3605 45.5573 25.3505 45.5573 25.3405 45.5573C25.2805 45.5473 25.2205 45.5373 25.1705 45.5173C25.1105 45.5073 25.0505 45.4973 24.9905 45.4773C24.7805 45.4373 24.5805 45.3873 24.3805 45.3373C24.1905 45.2873 23.9905 45.2373 23.8005 45.1773C23.6505 45.1373 23.5105 45.0873 23.3705 45.0473C23.2205 44.9973 23.0805 44.9573 22.9405 44.9073C22.8405 44.8673 22.7305 44.8373 22.6405 44.7973C22.5005 44.7473 22.3605 44.6973 22.2305 44.6373C22.1905 44.6273 22.1505 44.6173 22.1205 44.5973C22.1005 44.5973 22.0905 44.5973 22.0805 44.5973C22.0805 44.5873 22.0605 44.5873 22.0505 44.5873C22.0205 44.5673 21.9805 44.5573 21.9505 44.5373C21.9205 44.5273 21.8805 44.5173 21.8505 44.4973C21.7205 44.4473 21.6005 44.3973 21.4805 44.3373C21.3405 44.2773 21.1905 44.2073 21.0405 44.1473C21.0205 44.1373 21.0005 44.1273 20.9805 44.1173C20.9605 44.1073 20.9405 44.0973 20.9305 44.0873C20.9205 44.0873 20.9105 44.0873 20.9105 44.0773C20.8705 44.0573 20.8205 44.0373 20.7805 44.0173C20.7205 43.9873 20.6705 43.9673 20.6105 43.9373H20.6005C20.5005 43.8873 20.4005 43.8373 20.3005 43.7773C20.1805 43.7173 20.0605 43.6573 19.9505 43.5873C19.8305 43.5273 19.7105 43.4573 19.6005 43.3973C19.4805 43.3273 19.3705 43.2573 19.2505 43.1873C19.1605 43.1373 19.0705 43.0773 18.9705 43.0173C18.9005 42.9673 18.8205 42.9173 18.7405 42.8673C18.6905 42.8373 18.6405 42.7973 18.5805 42.7573C18.4705 42.6873 18.3605 42.6073 18.2505 42.5373C18.0205 42.3673 17.7905 42.2073 17.5705 42.0273C17.4805 41.9573 17.3905 41.8873 17.3005 41.8173C17.2005 41.7373 17.1005 41.6573 17.0005 41.5773C17.0005 41.5673 16.9905 41.5673 16.9905 41.5673H16.9805C16.7905 41.3973 16.6005 41.2273 16.4105 41.0673C16.3905 41.0373 16.3605 41.0173 16.3305 40.9873C16.1605 40.8373 15.9905 40.6773 15.8305 40.5073C15.8105 40.4973 15.7905 40.4773 15.7705 40.4573L15.6805 40.3573C15.5105 40.1873 15.3405 40.0173 15.1805 39.8373L15.0905 39.7473C15.0305 39.6773 14.9605 39.6073 14.9005 39.5273C14.8405 39.4673 14.7805 39.3973 14.7205 39.3273C14.7005 39.3073 14.6905 39.2873 14.6705 39.2773C14.6205 39.2073 14.5705 39.1473 14.5105 39.0873C14.5005 39.0673 14.4805 39.0473 14.4705 39.0273C14.2705 38.7873 14.0805 38.5473 13.9005 38.2973C13.7905 38.1573 13.6905 38.0073 13.5905 37.8673C13.4905 37.7173 13.3905 37.5773 13.2905 37.4273C13.1905 37.2773 13.1005 37.1273 13.0105 36.9773C12.9305 36.8573 12.8605 36.7373 12.7905 36.6173C12.7305 36.5273 12.6805 36.4273 12.6305 36.3373C12.5805 36.2473 12.5205 36.1473 12.4705 36.0573C12.3905 35.8973 12.3105 35.7373 12.2205 35.5773C12.0705 35.2773 11.9205 34.9573 11.7905 34.6373C11.7405 34.5373 11.6905 34.4273 11.6505 34.3273C11.6105 34.2273 11.5605 34.1173 11.5205 34.0173C11.5205 34.0073 11.5205 33.9873 11.5205 33.9773C11.4105 33.7073 11.3105 33.4273 11.2105 33.1473C11.2105 33.1373 11.2005 33.1173 11.2005 33.0973C11.1405 32.9273 11.0905 32.7573 11.0405 32.5873C11.0305 32.5673 11.0205 32.5473 11.0205 32.5273C10.9805 32.4073 10.9505 32.2873 10.9105 32.1673C10.9005 32.1373 10.8905 32.0973 10.8805 32.0573C10.8405 31.9173 10.8105 31.7573 10.7705 31.6073C10.7605 31.5673 10.7505 31.5273 10.7405 31.4873C10.7005 31.3273 10.6605 31.1573 10.6305 30.9973C10.6205 30.9673 10.6205 30.9373 10.6105 30.9073C10.5905 30.8373 10.5805 30.7573 10.5705 30.6773C10.5605 30.6373 10.5505 30.5873 10.5405 30.5373C10.5305 30.5073 10.5305 30.4773 10.5205 30.4573C10.4905 30.2573 10.4505 30.0673 10.4305 29.8673C10.4105 29.7473 10.3905 29.6273 10.3805 29.5073C10.3705 29.4273 10.3605 29.3473 10.3505 29.2773C10.3405 29.1473 10.3205 29.0273 10.3105 28.8973C10.3005 28.8273 10.3005 28.7573 10.2905 28.6873C10.2805 28.6173 10.2805 28.5473 10.2705 28.4773C10.2705 28.4073 10.2705 28.3473 10.2605 28.2773C10.2605 28.2173 10.2505 28.1473 10.2505 28.0873V28.0673C10.2405 27.9173 10.2405 27.7573 10.2305 27.5973V9.81734H17.6105V19.2373H17.6205V29.4373C17.6205 30.3473 17.9905 31.1773 18.5805 31.7673C18.6605 31.8473 18.7405 31.9173 18.8305 31.9973C18.9205 32.0673 19.0105 32.1373 19.1205 32.1973C19.5005 32.4573 19.9605 32.6373 20.4405 32.6973C20.5005 32.7173 20.5605 32.7173 20.6205 32.7273C20.7205 32.7273 20.8105 32.7273 20.9205 32.7273H22.9605C23.0905 32.7373 23.2305 32.7473 23.3705 32.7473C25.6705 32.7273 27.9805 32.7273 30.2805 32.7273C31.0005 32.7273 31.7205 32.7373 32.4405 32.7373H35.2605C36.9605 32.7273 38.2505 31.6873 38.5905 30.0373C39.0405 27.8473 39.4705 25.6473 39.9105 23.4573L40.0905 22.5273C40.2105 21.9373 40.3405 21.3473 40.4605 20.7573C40.4805 20.6573 40.4905 20.5573 40.4905 20.4573C40.4905 20.1673 40.4105 19.8673 40.2105 19.6473C39.9405 19.3473 39.5505 19.2273 39.0805 19.2173H37.3205C35.2505 19.2173 33.2005 19.2173 31.1405 19.2173H28.4805C27.9805 19.2173 27.4805 19.2173 26.9805 19.2173H26.9705C26.0505 19.2173 25.1305 19.2173 24.2105 19.2173C23.1505 19.2173 22.1005 19.2173 21.0405 19.2173C21.0105 19.2173 20.9905 19.2173 20.9605 19.2173H19.1205V11.1273C19.2705 11.0273 19.4305 10.9273 19.5905 10.8473C20.0205 10.5773 20.4705 10.3473 20.9205 10.1273C20.9305 10.1273 20.9505 10.1173 20.9605 10.1073C21.1905 9.99733 21.4205 9.88733 21.6605 9.79733C22.7305 9.33733 23.8605 8.96734 25.0205 8.70734C25.2205 8.66734 25.4205 8.62734 25.6305 8.58734C25.7305 8.56734 25.8305 8.54734 25.9305 8.53734C26.1005 8.50734 26.2605 8.47734 26.4305 8.45734C26.6905 8.41734 26.9505 8.38733 27.2105 8.35733L27.6305 8.32733H27.6805C27.7505 8.31733 27.8105 8.30734 27.8805 8.30734C27.9505 8.30734 28.0105 8.29733 28.0805 8.29733H28.1105C28.1905 8.29733 28.2605 8.28734 28.3305 8.28734C28.4205 8.28734 28.5005 8.28734 28.5905 8.27734C28.7505 8.27734 29.0205 8.27734 29.1805 8.27734C29.2405 8.27734 29.3005 8.27734 29.3705 8.27734C29.4505 8.27734 29.5405 8.27734 29.6205 8.28734H29.9005C30.0105 8.29734 30.1205 8.29734 30.2305 8.30734H30.2505C30.3105 8.30734 30.3705 8.31734 30.4305 8.31734C30.4505 8.32734 30.4705 8.32733 30.4905 8.32733H30.5205C30.6405 8.32733 30.7605 8.34733 30.8905 8.35733C30.9505 8.36733 31.0005 8.37733 31.0605 8.37733C31.1105 8.38733 31.1605 8.38734 31.2105 8.39734C31.2905 8.39734 31.3705 8.41734 31.4405 8.42734C31.5005 8.42734 31.5505 8.43734 31.6005 8.44734H31.6305C31.6305 8.44734 31.6605 8.44734 31.6805 8.45734C31.7205 8.45734 31.7605 8.45734 31.7905 8.45734C31.8305 8.46734 31.8705 8.46734 31.9105 8.47734C32.0505 8.49734 32.1805 8.51733 32.3105 8.54733C32.3405 8.54733 32.3705 8.55734 32.4005 8.55734C32.5505 8.58734 32.6905 8.61734 32.8405 8.64734C32.8705 8.64734 32.9005 8.65734 32.9405 8.66734C32.9605 8.66734 32.9805 8.67734 33.0005 8.67734C33.1905 8.71734 33.3905 8.76734 33.5805 8.81734C33.6405 8.81734 33.7005 8.84733 33.7605 8.85733C33.8005 8.86733 33.8505 8.87733 33.8905 8.88733C33.9905 8.91733 34.0905 8.94734 34.2005 8.97734C34.5005 9.06734 34.7905 9.14733 35.0805 9.24733C35.1705 9.27733 35.2605 9.31734 35.3505 9.34734C35.4105 9.36734 35.4605 9.38733 35.5205 9.40733C35.6305 9.44733 35.7305 9.48734 35.8405 9.52734C36.0405 9.60734 36.2405 9.68734 36.4405 9.77734C36.6305 9.85734 36.8205 9.93733 37.0005 10.0173C37.0105 10.0273 37.0305 10.0373 37.0405 10.0373C37.1305 10.0773 37.2205 10.1273 37.3105 10.1673C37.4105 10.2173 37.5105 10.2673 37.6105 10.3173C37.8005 10.4173 37.9805 10.5073 38.1605 10.6173C38.2805 10.6773 38.4005 10.7473 38.5105 10.8173C38.6105 10.8673 38.7105 10.9273 38.8005 10.9873L39.1905 11.2273C39.1905 11.2273 39.2505 11.2673 39.2805 11.2873H39.2905C39.2905 11.2873 39.3305 11.3173 39.3505 11.3373C39.4605 11.3973 39.5705 11.4773 39.6805 11.5473C39.6805 11.5573 39.6905 11.5573 39.6905 11.5573C39.7405 11.5973 39.7905 11.6273 39.8405 11.6673C39.9405 11.7373 40.0305 11.7973 40.1305 11.8673C40.1405 11.8773 40.1605 11.8973 40.1805 11.9073C40.2505 11.9573 40.3305 12.0173 40.4105 12.0773C40.4605 12.1173 40.5205 12.1673 40.5805 12.2073C40.6105 12.2373 40.6305 12.2573 40.6605 12.2773C40.7405 12.3273 40.8105 12.3873 40.8905 12.4573C40.9305 12.4873 40.9805 12.5273 41.0205 12.5573C41.0805 12.6173 41.1505 12.6673 41.2205 12.7273C41.2505 12.7573 41.2905 12.7873 41.3305 12.8173C41.3605 12.8473 41.4005 12.8773 41.4305 12.9073C41.5005 12.9673 41.5605 13.0273 41.6205 13.0873C41.6805 13.1273 41.7305 13.1773 41.7905 13.2273C41.8405 13.2773 41.9005 13.3273 41.9505 13.3773L41.9805 13.4073C41.9805 13.4073 42.0105 13.4473 42.0305 13.4573C42.1405 13.5673 42.2505 13.6673 42.3505 13.7773L42.4105 13.8373C42.5305 13.9473 42.6305 14.0573 42.7505 14.1773C42.7805 14.2073 42.8005 14.2373 42.8305 14.2673C42.9305 14.3773 43.0305 14.4873 43.1205 14.5873H43.1305C43.2105 14.6873 43.2905 14.7873 43.3705 14.8773C43.4205 14.9273 43.4605 14.9773 43.5105 15.0373C43.5205 15.0573 43.5405 15.0773 43.5605 15.0973C43.7005 15.2673 43.8405 15.4373 43.9705 15.6173C44.1005 15.7773 44.2205 15.9373 44.3405 16.1073C44.3605 16.1373 44.3705 16.1573 44.3905 16.1873C44.5105 16.3473 44.6105 16.4973 44.7205 16.6573C44.7505 16.7073 44.7905 16.7673 44.8205 16.8173C44.9305 16.9873 45.0405 17.1473 45.1405 17.3273C45.2705 17.5373 45.3905 17.7473 45.5205 17.9673C45.5405 18.0073 45.5705 18.0573 45.5905 18.1073C45.6905 18.2873 45.7905 18.4673 45.8805 18.6473C45.9205 18.7373 45.9705 18.8273 46.0105 18.9273C46.0505 19.0173 46.1005 19.1073 46.1405 19.1973C46.2205 19.3773 46.3105 19.5673 46.3905 19.7573C46.4505 19.8973 46.5005 20.0373 46.5605 20.1773C46.6205 20.3173 46.6705 20.4673 46.7305 20.6073C46.7805 20.7573 46.8305 20.8973 46.8805 21.0473C46.9805 21.3373 47.0705 21.6373 47.1505 21.9273C47.2005 22.0773 47.2305 22.2273 47.2705 22.3773C47.3105 22.5173 47.3405 22.6473 47.3705 22.7873C47.4405 23.0573 47.4905 23.3273 47.5405 23.6073C47.5705 23.7273 47.5905 23.8473 47.6105 23.9673V24.0073C47.6305 24.1273 47.6505 24.2473 47.6705 24.3573C47.6905 24.4873 47.7105 24.6173 47.7205 24.7473C47.7505 24.9573 47.7705 25.1673 47.7905 25.3873C47.8105 25.5573 47.8205 25.7273 47.8305 25.9073C47.8305 26.0273 47.8505 26.1573 47.8505 26.2973C47.8505 26.3973 47.8605 26.5073 47.8605 26.6173C47.8605 26.7673 47.8705 26.9273 47.8705 27.0773L47.8505 27.1073Z" fill="#404553"/>
</svg>
