<svg width="53" height="36" viewBox="0 0 53 36" fill="none" xmlns="http://www.w3.org/2000/svg">
    <g clip-path="url(#clip0_654_2141)">
        <path d="M49.5 35.9999H4C3.07174 35.9999 2.1815 35.6206 1.52513 34.9455C0.868749 34.2704 0.5 33.3547 0.5 32.3999L0.5 17.2559H3.02146L3.59021 15.8399H4.86333L5.43062 17.2499H10.3919V16.1774L10.8352 17.2574H13.4106L13.854 16.1594V17.2544H26.1812V14.9384H26.4146C26.5808 14.9444 26.629 14.9594 26.629 15.2444V17.2574H33.0062V16.7189C33.6581 17.0594 34.4267 17.2589 35.2419 17.2589L35.3804 17.2574H35.3731H38.0565L38.631 15.8474H39.9042L40.4656 17.2574H45.6369V15.9164L46.4185 17.2574H50.5544V8.40143H46.4608V9.44693L45.8877 8.40143H41.679V9.44693L41.1525 8.40143H35.4694C34.6083 8.35668 33.7504 8.53894 32.9771 8.93093L33.0077 8.91743V8.40143H29.0877V8.91743C28.6132 8.53276 28.0139 8.34875 27.4121 8.40293H27.4208H13.0956L12.1346 10.6904L11.1473 8.40293H6.63521V9.44843L6.13792 8.40293H2.28792L0.504375 12.6029V3.60293C0.504375 2.64815 0.873124 1.73248 1.5295 1.05735C2.18588 0.382214 3.07612 0.00292969 4.00437 0.00292969H49.5044C50.4326 0.00292969 51.3229 0.382214 51.9792 1.05735C52.6356 1.73248 53.0044 2.64815 53.0044 3.60293V19.3229H50.2729C50.2292 19.3199 50.1767 19.3199 50.1256 19.3199C49.4927 19.3199 48.905 19.5149 48.415 19.8494L48.4267 19.8419V19.3229H44.3871C43.756 19.2871 43.1316 19.4715 42.6152 19.8464L42.624 19.8404V19.3214H35.411V19.8404C34.8206 19.4979 34.1537 19.3191 33.4758 19.3214H33.419H33.4219H28.6633V19.8404C28.0416 19.4308 27.3039 19.2485 26.5692 19.3229L26.5823 19.3214H21.2579L20.0387 20.6774L18.8983 19.3214H10.9446V28.1834H18.7496L20.0052 26.8064L21.1879 28.1834H25.999V26.1089H26.6698C27.3148 26.1349 27.9582 26.0241 28.5598 25.7834L28.5277 25.7954V28.1864H32.4944V25.8779H32.6854C32.9275 25.8779 32.9523 25.8869 32.9523 26.1389V28.1879H45.0069L45.1542 28.1909C45.8454 28.1909 46.49 27.9779 47.0267 27.6134L47.0135 27.6209V28.1879H50.8373L51.0196 28.1909C51.7356 28.1909 52.4167 28.0394 53.035 27.7649L53.0015 27.7784V32.4014C53.0015 33.3562 52.6327 34.2719 51.9763 34.947C51.32 35.6221 50.4297 36.0014 49.5015 36.0014L49.5 35.9999ZM31.2781 26.9414H29.7935V20.5889H33.2002C33.8155 20.5303 34.435 20.6367 34.9983 20.8979L34.975 20.8889C35.4315 21.1469 35.7362 21.6389 35.7362 22.2029L35.7333 22.3034V22.2989L35.7348 22.3559C35.7348 23.0849 35.3075 23.7119 34.695 23.9849L34.6833 23.9894C34.9765 24.0974 35.2215 24.2819 35.4037 24.5204L35.4067 24.5234C35.6126 24.874 35.6988 25.2852 35.6517 25.6919L35.6531 25.6829V26.9399H34.1715V26.1449C34.2416 25.7121 34.1572 25.2678 33.9338 24.8939L33.9381 24.9014C33.7842 24.7812 33.6081 24.6944 33.4207 24.6462C33.2332 24.598 33.0381 24.5894 32.8473 24.6209L32.856 24.6194H31.2781V26.9399V26.9414ZM31.2781 21.9014V23.3279H33.0719C33.3252 23.352 33.5801 23.3054 33.8098 23.1929L33.801 23.1974C33.8949 23.1351 33.9721 23.0496 34.0256 22.9487C34.079 22.8479 34.1071 22.7348 34.1073 22.6199L34.1058 22.5854C34.1131 22.4708 34.0885 22.3579 34.0351 22.257C33.9817 22.1561 33.9015 22.0729 33.804 22.0169L33.801 22.0154C33.5797 21.9136 33.3366 21.8723 33.0952 21.8954H33.101L31.2781 21.9014ZM18.1167 26.9399H12.2731V20.5889H18.2085L20.0242 22.6709L21.901 20.5889H26.6158C28.29 20.5889 29.1037 21.2744 29.1037 22.6814C29.1037 24.1139 28.2623 24.8099 26.5371 24.8099H24.6923V26.9384H21.8237L20.0067 24.8399L18.1181 26.9399H18.1167ZM23.2223 21.2699L20.956 23.7749L23.2223 26.3609V21.2699ZM13.7446 24.3524V25.6154H17.3729L19.05 23.7524L17.4371 21.9014H13.7431V23.0564H16.9835V24.3509L13.7446 24.3524ZM24.6923 21.9029V23.5199H26.5983C27.1817 23.5199 27.5171 23.2139 27.5171 22.6799C27.5171 22.1699 27.205 21.9014 26.6144 21.9014L24.6923 21.9029ZM50.9977 26.9429H48.1481V25.5779H50.986C51.1984 25.608 51.4137 25.5509 51.5854 25.4189L51.584 25.4204C51.6387 25.3682 51.6824 25.3048 51.7123 25.2343C51.7422 25.1639 51.7576 25.0878 51.7575 25.0109V24.9869C51.7576 24.911 51.7416 24.836 51.7106 24.7671C51.6797 24.6982 51.6344 24.637 51.5781 24.5879C51.4272 24.4757 51.2411 24.4255 51.056 24.4469H51.059L50.7862 24.4379C49.4533 24.4019 47.944 24.3599 47.944 22.4804C47.944 21.5654 48.501 20.5889 50.06 20.5889H53.0015V21.9419H50.3108C50.103 21.918 49.8931 21.961 49.71 22.0649L49.7158 22.0619C49.6438 22.1107 49.5859 22.1785 49.5482 22.2582C49.5105 22.3379 49.4943 22.4266 49.5015 22.5149V22.5134V22.5299C49.5014 22.631 49.5325 22.7295 49.5901 22.8114C49.6477 22.8933 49.7289 22.9543 49.8223 22.9859L49.8252 22.9874C50.0101 23.0461 50.2037 23.0704 50.3969 23.0594H50.3925L51.1931 23.0804C51.7966 23.0185 52.3996 23.2033 52.8717 23.5949L52.8673 23.5919C52.911 23.6279 52.949 23.6669 52.9825 23.7104L52.984 23.7119L53.0015 26.1299C52.7562 26.4247 52.4442 26.6529 52.093 26.7944C51.7418 26.9359 51.3621 26.9864 50.9875 26.9414L50.9977 26.9429ZM45.2387 26.9429H42.3629V25.5779H45.2242C45.4383 25.6068 45.6549 25.5498 45.8294 25.4189L45.8265 25.4204C45.8809 25.368 45.9243 25.3045 45.9539 25.2341C45.9835 25.1636 45.9987 25.0877 45.9985 25.0109V24.9959C45.9985 24.9187 45.9824 24.8424 45.9515 24.7721C45.9206 24.7017 45.8755 24.639 45.8192 24.5879C45.6655 24.4756 45.4771 24.4254 45.2898 24.4469H45.2927L45.0215 24.4379C43.6929 24.4019 42.185 24.3599 42.185 22.4804C42.185 21.5654 42.7392 20.5889 44.2952 20.5889H47.2527V21.9419H44.546C44.3396 21.9183 44.1312 21.9612 43.9496 22.0649L43.9554 22.0619C43.8788 22.1162 43.8179 22.1907 43.779 22.2776C43.7402 22.3645 43.7249 22.4606 43.7347 22.5557C43.7446 22.6508 43.7792 22.7414 43.835 22.8179C43.8908 22.8944 43.9657 22.954 44.0517 22.9904L44.0546 22.9919C44.2419 23.051 44.4379 23.0754 44.6335 23.0639H44.6292L45.424 23.0849C46.0307 23.0248 46.6363 23.2099 47.1127 23.6009L47.1083 23.5964C47.2686 23.7782 47.3905 23.9921 47.4663 24.2247C47.5421 24.4573 47.5702 24.7036 47.5487 24.9479V24.9404C47.5531 26.2649 46.7729 26.9399 45.2344 26.9399L45.2387 26.9429ZM41.4792 26.9429H36.55V20.5874H41.4748V21.8999H38.0229V23.0549H41.3946V24.3494H38.0229V25.6124L41.4792 25.6184V26.9384V26.9429ZM44.3521 16.0139H41.3465L40.7719 14.5979H37.7065L37.1494 16.0139H35.4227C34.6473 16.056 33.8837 15.8047 33.276 15.3074L33.2833 15.3119C32.9946 14.9842 32.7755 14.5982 32.6399 14.1785C32.5043 13.7588 32.4553 13.3147 32.4958 12.8744L32.4944 12.8864C32.4568 12.4381 32.5083 11.9865 32.6457 11.5592C32.7831 11.1319 33.0035 10.7379 33.2935 10.4009L33.2906 10.4039C33.5969 10.1285 33.9549 9.92085 34.3426 9.79389C34.7302 9.66693 35.1391 9.62337 35.5438 9.66593L35.5321 9.66443H36.9613V11.0189H35.5612C35.3564 10.9918 35.1482 11.0115 34.9516 11.0765C34.755 11.1416 34.5748 11.2505 34.4237 11.3954L34.4252 11.3939C34.1134 11.8046 33.962 12.3204 34.0008 12.8399V12.8324C33.9544 13.3662 34.1002 13.899 34.4106 14.3294L34.4062 14.3234C34.6962 14.5671 35.0673 14.6845 35.4402 14.6504H35.4344H36.0965L38.1833 9.65543H40.4L42.8981 15.6554V9.65543H45.1454L47.7383 14.0774V9.65543H49.255V16.0034H47.1492L44.3492 11.2364V16.0034L44.3521 16.0139ZM39.2494 10.7369L38.2329 13.2689H40.2702L39.2494 10.7369ZM24.9592 16.0109H23.4833V9.65993H26.8783C27.4981 9.59379 28.1236 9.70215 28.6881 9.97343L28.6662 9.96443C28.8932 10.0935 29.0824 10.2828 29.2143 10.5125C29.3461 10.7423 29.4157 11.0042 29.4158 11.2709L29.4129 11.3759V11.3714V11.4179C29.413 11.7644 29.3159 12.1035 29.1333 12.3945C28.9507 12.6856 28.6903 12.9163 28.3833 13.0589L28.3717 13.0634C28.6648 13.1774 28.9112 13.3604 29.0994 13.5944L29.1023 13.5974C29.3104 13.9493 29.3962 14.3634 29.3458 14.7719L29.3473 14.7629V16.0094H27.8583L27.8525 15.2084V15.0884C27.9055 14.6968 27.8212 14.2985 27.6148 13.9649L27.6192 13.9724C27.4647 13.8557 27.2893 13.7716 27.1031 13.725C26.9168 13.6784 26.7235 13.6702 26.5342 13.7009L26.5429 13.6994H24.9606V16.0094L24.9592 16.0109ZM24.9592 10.9814V12.3914H26.75C27.003 12.4197 27.2585 12.3728 27.4865 12.2564L27.4792 12.2594C27.5726 12.201 27.6498 12.1189 27.7035 12.0209C27.7571 11.9229 27.7853 11.8124 27.7854 11.6999L27.784 11.6579C27.7914 11.544 27.7662 11.4317 27.7115 11.3323C27.6568 11.2329 27.575 11.1521 27.4762 11.0999L27.4733 11.0984C27.2514 11.0005 27.0097 10.9593 26.769 10.9784H26.7733L24.9592 10.9814ZM9.33167 16.0109H6.33333L5.76604 14.5949H2.69187L2.12021 16.0109H0.516042L3.16 9.65993H5.35187L7.86167 15.6704V9.65993H10.2694L12.2002 13.9664L13.975 9.65993H16.4323V16.0079H14.9156L14.9127 11.0399L12.7733 16.0094H11.4783L9.33313 11.0324V16.0094L9.33167 16.0109ZM4.22167 10.7369L3.21687 13.2689H5.23229L4.22167 10.7369ZM31.7667 16.0094H30.2617V9.65993H31.7681V16.0079L31.7667 16.0094ZM22.4537 16.0094H17.5333V9.65993H22.4625V10.9799H19.0092V12.1244H22.3794V13.4279H19.0062V14.6969H22.4596V16.0079L22.4537 16.0094Z"
              fill="black"/>
    </g>
    <defs>
        <clipPath id="clip0_654_2141">
            <rect x="0.5" width="52.5" height="36" rx="6" fill="white"/>
        </clipPath>
    </defs>
</svg>
