<svg width="24" height="25" viewBox="0 0 24 25" fill="none" xmlns="http://www.w3.org/2000/svg">
    <path d="M13.4099 12.4924L17.7099 8.20237C17.8982 8.01407 18.004 7.75867 18.004 7.49237C18.004 7.22607 17.8982 6.97068 17.7099 6.78237C17.5216 6.59407 17.2662 6.48828 16.9999 6.48828C16.7336 6.48828 16.4782 6.59407 16.2899 6.78237L11.9999 11.0824L7.70994 6.78237C7.52164 6.59407 7.26624 6.48828 6.99994 6.48828C6.73364 6.48828 6.47824 6.59407 6.28994 6.78237C6.10164 6.97068 5.99585 7.22607 5.99585 7.49237C5.99585 7.75867 6.10164 8.01407 6.28994 8.20237L10.5899 12.4924L6.28994 16.7824C6.19621 16.8753 6.12182 16.9859 6.07105 17.1078C6.02028 17.2297 5.99414 17.3604 5.99414 17.4924C5.99414 17.6244 6.02028 17.7551 6.07105 17.8769C6.12182 17.9988 6.19621 18.1094 6.28994 18.2024C6.3829 18.2961 6.4935 18.3705 6.61536 18.4213C6.73722 18.472 6.86793 18.4982 6.99994 18.4982C7.13195 18.4982 7.26266 18.472 7.38452 18.4213C7.50638 18.3705 7.61698 18.2961 7.70994 18.2024L11.9999 13.9024L16.2899 18.2024C16.3829 18.2961 16.4935 18.3705 16.6154 18.4213C16.7372 18.472 16.8679 18.4982 16.9999 18.4982C17.132 18.4982 17.2627 18.472 17.3845 18.4213C17.5064 18.3705 17.617 18.2961 17.7099 18.2024C17.8037 18.1094 17.8781 17.9988 17.9288 17.8769C17.9796 17.7551 18.0057 17.6244 18.0057 17.4924C18.0057 17.3604 17.9796 17.2297 17.9288 17.1078C17.8781 16.9859 17.8037 16.8753 17.7099 16.7824L13.4099 12.4924Z"
          fill="black"/>
</svg>
