<svg width="53" height="36" viewBox="0 0 53 36" fill="none" xmlns="http://www.w3.org/2000/svg">
    <rect x="0.5" y="0.5" width="51.5" height="35" rx="5.5" fill="white"/>
    <rect x="0.5" y="0.5" width="51.5" height="35" rx="5.5" stroke="#D9D9D9"/>
    <path fill-rule="evenodd" clip-rule="evenodd"
          d="M26.5461 26.0714C24.7588 27.6138 22.4403 28.5449 19.9068 28.5449C14.2538 28.5449 9.67114 23.909 9.67114 18.1904C9.67114 12.4718 14.2538 7.83594 19.9068 7.83594C22.4403 7.83594 24.7588 8.76706 26.5461 10.3095C28.3335 8.76706 30.652 7.83594 33.1855 7.83594C38.8385 7.83594 43.4211 12.4718 43.4211 18.1904C43.4211 23.909 38.8385 28.5449 33.1855 28.5449C30.652 28.5449 28.3335 27.6138 26.5461 26.0714Z"
          fill="#ED0006"/>
    <path fill-rule="evenodd" clip-rule="evenodd"
          d="M26.5461 26.0713C28.7469 24.1721 30.1425 21.3461 30.1425 18.1904C30.1425 15.0347 28.7469 12.2087 26.5461 10.3095C28.3335 8.76706 30.652 7.83594 33.1855 7.83594C38.8385 7.83594 43.4211 12.4718 43.4211 18.1904C43.4211 23.909 38.8385 28.5449 33.1855 28.5449C30.652 28.5449 28.3335 27.6138 26.5461 26.0713Z"
          fill="#F9A000"/>
    <path fill-rule="evenodd" clip-rule="evenodd"
          d="M26.5462 10.3096C28.747 12.2088 30.1425 15.0348 30.1425 18.1905C30.1425 21.3462 28.747 24.1722 26.5462 26.0714C24.3454 24.1722 22.95 21.3462 22.95 18.1905C22.95 15.0348 24.3454 12.2088 26.5462 10.3096Z"
          fill="#FF5E00"/>
</svg>
