<svg width="24" height="24" viewBox="0 0 24 24" fill="none" xmlns="http://www.w3.org/2000/svg">
    <path d="M20.6167 9.49078C20.8156 9.49078 21.0064 9.41177 21.147 9.27111C21.2877 9.13046 21.3667 8.93969 21.3667 8.74078C21.3667 8.54187 21.2877 8.35111 21.147 8.21045C21.0064 8.0698 20.8156 7.99078 20.6167 7.99078H16.5707L22.2907 2.27078C22.4273 2.12927 22.5028 1.93978 22.501 1.74313C22.4992 1.54648 22.4202 1.35841 22.2811 1.21942C22.142 1.08043 21.9538 1.00164 21.7572 1.00003C21.5605 0.99841 21.3711 1.0741 21.2297 1.21078L15.5097 6.93078V2.88278C15.5097 2.68387 15.4307 2.49311 15.29 2.35245C15.1494 2.2118 14.9586 2.13278 14.7597 2.13278C14.5608 2.13278 14.37 2.2118 14.2294 2.35245C14.0887 2.49311 14.0097 2.68387 14.0097 2.88278V8.74078C14.0097 9.15478 14.3457 9.49078 14.7597 9.49078H20.6167ZM2.90271 13.9908C2.7038 13.9908 2.51303 14.0698 2.37238 14.2105C2.23173 14.3511 2.15271 14.5419 2.15271 14.7408C2.15271 14.9397 2.23173 15.1305 2.37238 15.2711C2.51303 15.4118 2.7038 15.4908 2.90271 15.4908H6.94871L1.22871 21.2108C1.15711 21.28 1.10001 21.3628 1.06075 21.4543C1.02149 21.5458 1.00084 21.6443 1.00003 21.7438C0.999207 21.8434 1.01823 21.9422 1.05598 22.0343C1.09374 22.1265 1.14947 22.2102 1.21992 22.2806C1.29037 22.351 1.37414 22.4066 1.46633 22.4443C1.55852 22.482 1.65728 22.5009 1.75687 22.5C1.85645 22.4991 1.95486 22.4783 2.04634 22.439C2.13783 22.3996 2.22056 22.3424 2.28971 22.2708L8.00971 16.5508V20.5978C8.00971 20.7967 8.08873 20.9875 8.22938 21.1281C8.37003 21.2688 8.5608 21.3478 8.75971 21.3478C8.95862 21.3478 9.14939 21.2688 9.29004 21.1281C9.43069 20.9875 9.50971 20.7967 9.50971 20.5978V14.7408C9.50971 14.5419 9.43069 14.3511 9.29004 14.2105C9.14939 14.0698 8.95862 13.9908 8.75971 13.9908H2.90271Z"
          fill="black"/>
</svg>
