<svg width="28" height="28" viewBox="0 0 28 28" fill="none" xmlns="http://www.w3.org/2000/svg">
    <g filter="url(#filter0_d_654_4260)">
        <path d="M7.44235 14.5C7.31818 14.5 7.20953 14.425 7.11641 14.275C7.0388 14.125 7 13.9375 7 13.7125C7 13.5125 7.0388 13.35 7.11641 13.225C7.20953 13.075 7.31818 13 7.44235 13H20.5576C20.6818 13 20.7827 13.075 20.8603 13.225C20.9534 13.375 21 13.5625 21 13.7875C21 13.9875 20.9534 14.1625 20.8603 14.3125C20.7827 14.4375 20.6818 14.5 20.5576 14.5C20.4335 14.5 7.44235 14.5 7.44235 14.5Z"
              fill="black" fill-opacity="0.38"/>
    </g>
    <defs>
        <filter id="filter0_d_654_4260" x="0" y="0" width="28" height="29" filterUnits="userSpaceOnUse"
                color-interpolation-filters="sRGB">
            <feFlood flood-opacity="0" result="BackgroundImageFix"/>
            <feColorMatrix in="SourceAlpha" type="matrix" values="0 0 0 0 0 0 0 0 0 0 0 0 0 0 0 0 0 0 127 0"
                           result="hardAlpha"/>
            <feOffset dy="1"/>
            <feComposite in2="hardAlpha" operator="out"/>
            <feColorMatrix type="matrix" values="0 0 0 0 0 0 0 0 0 0 0 0 0 0 0 0 0 0 0.05 0"/>
            <feBlend mode="normal" in2="BackgroundImageFix" result="effect1_dropShadow_654_4260"/>
            <feBlend mode="normal" in="SourceGraphic" in2="effect1_dropShadow_654_4260" result="shape"/>
        </filter>
    </defs>
</svg>
