<svg width="53" height="36" viewBox="0 0 53 36" fill="none" xmlns="http://www.w3.org/2000/svg">
    <rect x="1" y="0.5" width="51.5" height="35" rx="5.5" fill="white"/>
    <rect x="1" y="0.5" width="51.5" height="35" rx="5.5" stroke="#DCDCDC"/>
    <path d="M22.8678 8.14491C22.8678 7.78799 22.5528 7.5 22.1624 7.5C21.772 7.5 21.457 7.78799 21.457 8.14491V9.34201C21.3942 9.33053 21.3314 9.33053 21.2686 9.33053H15.1518C14.2705 9.33053 13.5535 9.98692 13.5535 10.7918V27.1123C13.5535 27.918 14.2714 28.5736 15.1518 28.5736H21.2695C22.1507 28.5736 22.8678 27.9172 22.8678 27.1123V10.7812C22.8678 10.6663 22.8552 10.5506 22.8301 10.4472C22.8552 10.3783 22.8678 10.3094 22.8678 10.2281V8.14491ZM22.0251 18.6645C22.0251 19.7114 21.1061 20.5516 19.961 20.5516H16.4862C15.3411 20.5516 14.4222 19.7114 14.4222 18.6645V13.3469C14.4222 12.2999 15.3411 11.4597 16.4862 11.4597H19.961C21.1061 11.4597 22.0251 12.2999 22.0251 13.3469V18.6645Z"
          fill="#D1E187"/>
    <path fill-rule="evenodd" clip-rule="evenodd"
          d="M16.4476 11.4595H19.9727C21.0927 11.4595 22.0116 12.2997 22.0116 13.3236V18.6872C22.0116 19.7112 21.0927 20.5514 19.9727 20.5514H16.4476C15.3276 20.5514 14.4087 19.7112 14.4087 18.6872V13.3236C14.4087 12.2997 15.3276 11.4595 16.4476 11.4595Z"
          fill="white"/>
    <path fill-rule="evenodd" clip-rule="evenodd"
          d="M43.4625 20.6557H45.5526V15.8911H47.29V20.6557H49.3164V13.8538C49.2787 12.4729 48.1075 11.6098 46.4716 11.5983C44.596 11.5868 43.5262 12.3925 43.45 13.7734V20.6557H43.4625ZM45.5526 13.3705C45.6154 12.8643 45.8048 12.6567 46.4087 12.5993C47.0253 12.6108 47.2523 12.9447 47.29 13.4395V14.8204H45.5526V13.3705Z"
          fill="#8BC53F"/>
    <path fill-rule="evenodd" clip-rule="evenodd"
          d="M16.0331 15.0972C16.3858 15.8455 16.8515 16.1909 17.4304 16.2024C16.5365 16.812 15.5673 17.1919 14.5479 17.4225C13.9062 17.388 13.3014 17.2387 12.71 17.0885C14.2078 16.8235 15.3277 16.1679 16.0331 15.0972Z"
          fill="#81211C"/>
    <path fill-rule="evenodd" clip-rule="evenodd"
          d="M19.9475 13.1631L24.1519 15.1085C22.0116 17.6865 18.3986 17.7554 14.5469 17.4223C17.1278 16.8463 18.9029 15.408 19.9475 13.1631Z"
          fill="#EB2026"/>
    <path d="M12.0548 12.4273C11.3754 11.2991 10.1289 11.2646 8.51714 11.967C7.54792 11.1727 6.62897 11.5182 5.40758 12.0014L5.38246 11.4263H3.36865V20.4378H5.43271V12.3469C5.52066 12.3469 5.59604 12.3354 5.67232 12.3354C6.28885 12.3354 6.7923 12.7957 6.7923 13.3594V20.4378H8.86982V12.3469C8.90751 12.3469 8.95777 12.3469 8.99546 12.3469C9.32302 12.3354 9.63711 12.4502 9.86416 12.6578C10.1038 12.8646 10.2294 13.1526 10.2294 13.4406C10.2294 14.4071 10.2294 16.3985 10.2294 20.4386H12.2683V13.3027C12.2683 13.0377 12.2055 12.785 12.105 12.5545C12.0924 12.4962 12.0799 12.4617 12.0548 12.4273Z"
          fill="#8BC53F"/>
    <path d="M29.9177 12.8874C29.5776 12.231 28.848 11.8052 28.0547 11.8052H24.3035V20.4376H26.3298V16.5362H27.6894C28.9485 16.5362 30.0057 15.6845 30.169 14.5448C30.1816 14.4759 30.1816 14.407 30.1941 14.338C30.2067 13.7735 30.1187 13.2788 29.9177 12.8874ZM26.3801 15.6607V12.6913C27.3367 12.565 28.0672 12.8062 28.1175 14.1879C28.0924 15.4195 27.3744 15.7304 26.3801 15.6607Z"
          fill="#8BC53F"/>
    <path d="M34.6633 19.8271C34.6507 19.8271 34.6005 19.8271 34.5879 19.8156C33.9839 19.7467 33.6187 19.4243 33.493 18.8146C33.4805 18.7342 33.4679 18.6538 33.4679 18.5726L33.4805 15.8215H35.5948H35.9852H36.048V14.6473H33.4796V13.4847C33.4796 13.1393 33.7192 12.8168 34.071 12.7019C34.0835 12.7019 34.0961 12.6905 34.1087 12.6905C34.2092 12.656 34.3097 12.6445 34.4111 12.6445L36.2239 12.656L36.2365 11.6895L33.782 11.7009C32.2717 11.7469 31.4532 12.3106 31.4155 13.4502V18.4684C31.4155 18.8368 31.5035 19.2167 31.6677 19.5506C31.7431 19.7 31.8185 19.8386 31.8813 19.9305C32.2717 20.4942 32.8128 20.6903 33.4419 20.7133L33.6815 20.7248H36.5012V19.8271H34.6633Z"
          fill="#8BC53F"/>
    <path fill-rule="evenodd" clip-rule="evenodd"
          d="M41.184 20.6788C40.8188 20.8511 40.2902 20.9668 39.6988 20.9668C38.9809 20.9668 38.3518 20.806 38.0117 20.5525C37.6967 20.3572 37.458 20.0692 37.2686 19.7008C37.1304 19.4128 37.0164 19.0674 36.9536 18.6768H38.8795C38.9046 18.7802 38.9297 18.8836 38.9549 18.9763C38.9925 19.1027 39.0554 19.2069 39.1182 19.2988C39.2564 19.4711 39.4332 19.5868 39.6845 19.6212C39.7975 19.6327 39.898 19.6212 40.012 19.5982C40.2256 19.5408 40.4024 19.4604 40.528 19.3447C40.8305 19.0682 40.8933 18.6424 40.6662 18.1361C40.5657 17.8941 40.3889 17.6873 40.1753 17.515C38.8158 16.4795 37.3054 15.4777 37.1412 14.1313C37.0407 12.9916 37.4436 12.382 38.0727 12.0595C38.9288 11.6222 39.9483 11.5418 40.8672 11.8405C41.5466 12.0595 42.0124 12.5313 42.2268 13.3018C42.2645 13.4511 42.3022 13.6127 42.3273 13.785H40.4266C40.3387 13.1869 39.9232 12.8644 39.4574 12.9104C39.2689 12.9334 39.0922 13.0138 38.9791 13.1524C38.866 13.2903 38.8158 13.4634 38.8534 13.6357C39.0168 14.5333 40.6914 15.673 41.4972 16.2711C41.5726 16.3286 41.875 16.5591 41.9504 16.6395C42.9843 17.7209 42.7958 19.9191 41.184 20.6788Z"
          fill="#8BC53F"/>
</svg>
