<svg width="16" height="18" viewBox="0 0 16 18" fill="none" xmlns="http://www.w3.org/2000/svg">
    <path d="M0.736842 9.44737C0.526316 9.44737 0.350877 9.37719 0.210526 9.23684C0.0701754 9.09649 0 8.92105 0 8.71053C0 8.52339 0.0701754 8.37135 0.210526 8.25439C0.350877 8.11403 0.526316 8.04386 0.736842 8.04386H15.2632C15.4737 8.04386 15.6491 8.11403 15.7895 8.25439C15.9298 8.39474 16 8.57018 16 8.7807C16 8.94444 15.9298 9.09649 15.7895 9.23684C15.6491 9.37719 15.4737 9.44737 15.2632 9.44737H0.736842ZM8 17.2719C7.78947 17.2719 7.61404 17.2018 7.47368 17.0614C7.33333 16.9211 7.26316 16.7456 7.26316 16.5351V1.27193C7.26316 1.03801 7.33333 0.850877 7.47368 0.710526C7.61404 0.570175 7.78947 0.5 8 0.5C8.23392 0.5 8.40936 0.570175 8.52631 0.710526C8.66667 0.850877 8.73684 1.02632 8.73684 1.23684V16.5C8.73684 16.7339 8.66667 16.9211 8.52631 17.0614C8.38596 17.2018 8.21053 17.2719 8 17.2719Z"
          fill="white"/>
</svg>
