<svg width="53" height="36" viewBox="0 0 53 36" fill="none" xmlns="http://www.w3.org/2000/svg">
    <rect x="0.5" y="0.5" width="51.5" height="35" rx="5.5" fill="white"/>
    <rect x="0.5" y="0.5" width="51.5" height="35" rx="5.5" stroke="#DCDCDC"/>
    <rect x="0.5" y="0.5" width="51.5" height="35" rx="5.5" fill="#1F72CD" stroke="#D9D9D9"/>
    <path fill-rule="evenodd" clip-rule="evenodd"
          d="M9.41201 12.75L4.5 23.6201H10.3804L11.1094 21.887H12.7757L13.5047 23.6201H19.9773V22.2973L20.554 23.6201H23.9022L24.479 22.2694V23.6201H37.9403L39.5771 21.932L41.1097 23.6201L48.0238 23.6341L43.0962 18.2154L48.0238 12.75H41.217L39.6236 14.4069L38.1392 12.75H23.4951L22.2376 15.5557L20.9506 12.75H15.0825V14.0278L14.4297 12.75H9.41201ZM10.5498 14.2936H13.4162L16.6743 21.6647V14.2936H19.8143L22.3308 19.5786L24.6501 14.2936H27.7744V22.0936H25.8733L25.8578 15.9815L23.0863 22.0936H21.3857L18.5986 15.9815V22.0936H14.6877L13.9462 20.3449H9.94052L9.20061 22.0921H7.10518L10.5498 14.2936ZM37.2438 14.2936H29.5137V22.089H37.1242L39.5771 19.5055L41.9414 22.089H44.4129L40.8206 18.2139L44.4129 14.2936H42.0486L39.6081 16.8474L37.2438 14.2936ZM11.9442 15.6133L10.6245 18.7284H13.2624L11.9442 15.6133ZM31.4226 17.3324V15.9086V15.9072H36.246L38.3506 18.1844L36.1527 20.474H31.4226V18.9195H35.6397V17.3324H31.4226Z"
          fill="white"/>
</svg>
