<svg width="53" height="36" viewBox="0 0 53 36" fill="none" xmlns="http://www.w3.org/2000/svg">
    <rect x="0.5" y="0.5" width="51.5" height="35" rx="5.5" fill="white" stroke="#D9D9D9"/>
    <path d="M16.2416 7.50098H24.5153C25.6702 7.50098 26.3885 8.44234 26.1191 9.6011L22.2671 26.1392C21.9953 27.2939 20.8389 28.2361 19.6832 28.2361H11.4104C10.257 28.2361 9.53709 27.2939 9.80652 26.1392L13.6601 9.6011C13.9295 8.44234 15.0853 7.50098 16.2416 7.50098Z"
          fill="#E21836"/>
    <path d="M23.8263 7.5H33.3408C34.4955 7.5 33.9748 8.44137 33.7032 9.60013L29.8518 26.1382C29.5816 27.2929 29.6659 28.2351 28.5087 28.2351H18.9942C17.8371 28.2351 17.121 27.2929 17.3928 26.1382L21.244 9.60013C21.5174 8.44137 22.6708 7.5 23.8263 7.5Z"
          fill="#00447C"/>
    <path d="M32.9636 7.5H41.2373C42.3938 7.5 43.1121 8.44137 42.8405 9.60013L38.9891 26.1382C38.7173 27.2929 37.5601 28.2351 36.4038 28.2351H28.134C26.9768 28.2351 26.2591 27.2929 26.5301 26.1382L30.3821 9.60013C30.6515 8.44137 31.8065 7.5 32.9636 7.5Z"
          fill="#007B84"/>
    <path d="M18.4019 12.7997C17.5511 12.8084 17.2998 12.7997 17.2196 12.7808C17.1887 12.9274 16.6146 15.5758 16.613 15.578C16.4894 16.1139 16.3994 16.4958 16.0939 16.7424C15.9205 16.8858 15.718 16.955 15.4833 16.955C15.1059 16.955 14.8861 16.7676 14.8492 16.4123L14.8422 16.2903C14.8422 16.2903 14.9571 15.5726 14.9571 15.5686C14.9571 15.5686 15.5597 13.155 15.6676 12.836C15.6732 12.8179 15.6748 12.8084 15.6762 12.7997C14.5034 12.81 14.2955 12.7997 14.2811 12.7808C14.2733 12.8068 14.2442 12.9564 14.2442 12.9564L13.629 15.6766L13.5761 15.9073L13.4739 16.662C13.4739 16.8858 13.5178 17.0685 13.6054 17.223C13.8857 17.7128 14.6853 17.7863 15.1376 17.7863C15.7204 17.7863 16.2671 17.6624 16.6366 17.4364C17.2779 17.0574 17.4456 16.4652 17.5953 15.9388L17.6647 15.6688C17.6647 15.6688 18.2854 13.1621 18.3908 12.836C18.3949 12.8179 18.3965 12.8084 18.4019 12.7997ZM20.5139 14.8219C20.3643 14.8219 20.0908 14.8582 19.8452 14.9786C19.7561 15.0243 19.6718 15.0772 19.5828 15.1298L19.6631 14.84L19.6191 14.7912C19.0982 14.8967 18.9817 14.9108 18.5005 14.9786L18.4602 15.0054C18.4043 15.4686 18.3547 15.8169 18.1476 16.7274C18.0687 17.063 17.9869 17.4018 17.9048 17.7365L17.927 17.7791C18.42 17.7531 18.5697 17.7531 18.9982 17.7601L19.0329 17.7224C19.0873 17.4435 19.0944 17.3782 19.215 16.8133C19.2717 16.5455 19.3898 15.957 19.4481 15.7475C19.5552 15.6979 19.6609 15.6491 19.7617 15.6491C20.0019 15.6491 19.9726 15.8586 19.9634 15.9421C19.9531 16.0823 19.8656 16.54 19.7758 16.9331L19.7159 17.1868C19.6742 17.3741 19.6284 17.5562 19.5867 17.742L19.6048 17.7791C20.0908 17.7531 20.239 17.7531 20.6541 17.7601L20.7029 17.7224C20.7779 17.2868 20.7999 17.1702 20.933 16.536L20.9999 16.2446C21.13 15.6743 21.1953 15.3851 21.0969 15.1496C20.9929 14.8856 20.7432 14.8219 20.5139 14.8219ZM22.8732 15.419C22.6149 15.4686 22.4501 15.5017 22.2864 15.523C22.124 15.5491 21.9657 15.5726 21.7161 15.6073L21.6963 15.6253L21.6781 15.6396C21.6521 15.8255 21.634 15.9863 21.5995 16.1752C21.5703 16.3706 21.5253 16.5927 21.4521 16.9117C21.3954 17.1559 21.3662 17.241 21.3339 17.3269C21.3024 17.4128 21.2678 17.4963 21.204 17.7365L21.219 17.7587L21.2315 17.7791C21.4648 17.768 21.6174 17.7601 21.7743 17.7587C21.931 17.753 22.0934 17.7587 22.3446 17.7601L22.3666 17.7421L22.3902 17.7224C22.4265 17.5058 22.432 17.4475 22.4542 17.3418C22.4761 17.2285 22.514 17.0716 22.607 16.6526C22.651 16.4557 22.7 16.2595 22.7456 16.0587C22.7929 15.8586 22.8426 15.6616 22.8897 15.4648L22.8827 15.441L22.8732 15.419ZM22.8787 14.6139C22.644 14.4754 22.232 14.5193 21.9547 14.7107C21.6782 14.8982 21.6468 15.1644 21.8807 15.3048C22.1114 15.4395 22.525 15.3994 22.7999 15.2064C23.0757 15.0148 23.1102 14.751 22.8787 14.6139ZM24.2983 17.8225C24.7732 17.8225 25.2601 17.6916 25.6265 17.3032C25.9084 16.9882 26.0377 16.5195 26.0824 16.3265C26.2283 15.6868 26.1147 15.3882 25.9721 15.2063C25.7556 14.929 25.3728 14.8401 24.9757 14.8401C24.7369 14.8401 24.1683 14.8637 23.724 15.2732C23.405 15.5687 23.2575 15.9696 23.1686 16.354C23.0789 16.7456 22.9756 17.4506 23.624 17.713C23.824 17.7989 24.1124 17.8225 24.2983 17.8225ZM24.2612 16.3832C24.3707 15.8988 24.5 15.4922 24.8299 15.4922C25.0884 15.4922 25.1072 15.7947 24.9923 16.2807C24.9717 16.3886 24.8773 16.7897 24.7497 16.9606C24.6605 17.0866 24.555 17.163 24.4385 17.163C24.4038 17.163 24.1975 17.163 24.1943 16.8567C24.1927 16.7055 24.2235 16.551 24.2612 16.3832ZM27.2696 17.7602L27.3068 17.7225C27.3594 17.4436 27.3681 17.378 27.4846 16.8134C27.5429 16.5456 27.6635 15.9571 27.7202 15.7476C27.8274 15.6978 27.9313 15.649 28.0354 15.649C28.2739 15.649 28.2449 15.8585 28.2354 15.942C28.2267 16.0823 28.1392 16.5399 28.0479 16.933L27.9912 17.1866C27.9478 17.3742 27.9007 17.5561 27.8589 17.742L27.8771 17.7791C28.3647 17.7531 28.5073 17.7531 28.9247 17.7602L28.9751 17.7225C29.0483 17.2867 29.0681 17.1701 29.2052 16.5361L29.2706 16.2445C29.4012 15.6742 29.4674 15.3852 29.3706 15.1496C29.2635 14.8857 29.0122 14.8219 28.7862 14.8219C28.6363 14.8219 28.3615 14.858 28.1172 14.9786C28.0299 15.0244 27.9424 15.077 27.8565 15.1299L27.9313 14.8401L27.8912 14.7911C27.3705 14.8968 27.2515 14.9109 26.7709 14.9786L26.734 15.0054C26.6757 15.4687 26.6284 15.8167 26.4212 16.7275C26.3424 17.063 26.2605 17.4018 26.1786 17.7366L26.2006 17.7791C26.6945 17.7531 26.8419 17.7531 27.2696 17.7602ZM30.8523 17.779C30.883 17.6294 31.0651 16.7425 31.0667 16.7425C31.0667 16.7425 31.2218 16.0917 31.2312 16.0681C31.2312 16.0681 31.28 16.0004 31.3288 15.9735H31.4006C32.078 15.9735 32.8429 15.9735 33.4425 15.5325C33.8504 15.23 34.1293 14.7833 34.2538 14.2404C34.286 14.1073 34.3098 13.949 34.3098 13.7907C34.3098 13.5828 34.2681 13.3771 34.1475 13.2164C33.8418 12.7887 33.2329 12.7808 32.5301 12.7776C32.5279 12.7776 32.1837 12.7808 32.1837 12.7808C31.2841 12.7919 30.9233 12.7887 30.7751 12.7705C30.7626 12.836 30.739 12.9526 30.739 12.9526C30.739 12.9526 30.4167 14.4461 30.4167 14.4486C30.4167 14.4486 29.6455 17.624 29.6092 17.7736C30.3947 17.7641 30.7168 17.7641 30.8523 17.779ZM31.4494 15.1259C31.4494 15.1259 31.7921 13.6354 31.7904 13.6411L31.8015 13.5647L31.8064 13.5064L31.9433 13.5205C31.9433 13.5205 32.6499 13.5812 32.6665 13.5828C32.9454 13.6907 33.0603 13.9688 32.9801 14.3318C32.9069 14.6635 32.6917 14.9424 32.4152 15.0771C32.1875 15.1913 31.9086 15.2008 31.6213 15.2008H31.4353L31.4494 15.1259ZM33.5827 16.4108C33.4922 16.7968 33.3881 17.5018 34.0332 17.7531C34.2389 17.8406 34.4233 17.8666 34.6106 17.8571C34.8084 17.8464 34.9917 17.7472 35.1615 17.6045C35.1462 17.6631 35.1309 17.7218 35.1156 17.7807L35.1448 17.8184C35.6088 17.7989 35.7528 17.7989 36.2556 17.8027L36.3011 17.768C36.3745 17.3364 36.4437 16.9174 36.6345 16.0918C36.7275 15.6963 36.8202 15.3047 36.9156 14.9108L36.9007 14.8675C36.3816 14.9637 36.2429 14.9842 35.7435 15.055L35.7056 15.0859C35.7006 15.126 35.6953 15.1645 35.6905 15.203C35.6129 15.0776 35.5003 14.9705 35.3267 14.9038C35.1047 14.8164 34.5832 14.929 34.1349 15.3371C33.8199 15.6285 33.6686 16.0278 33.5827 16.4108ZM34.6729 16.4344C34.784 15.9587 34.9117 15.5562 35.2424 15.5562C35.4515 15.5562 35.5616 15.7491 35.5393 16.0783C35.5215 16.1603 35.5024 16.2469 35.4796 16.3447C35.4465 16.486 35.4106 16.6262 35.3757 16.7665C35.3402 16.8625 35.2989 16.9531 35.2535 17.0134C35.1684 17.134 34.9659 17.2088 34.8494 17.2088C34.8163 17.2088 34.6122 17.2088 34.6052 16.9079C34.6035 16.7581 34.6344 16.6038 34.6729 16.4344ZM40.366 14.8636L40.3259 14.8178C39.8122 14.9219 39.7192 14.9384 39.2474 15.0022L39.2127 15.0368C39.2111 15.0425 39.2096 15.0512 39.2072 15.059L39.2056 15.0512C38.8543 15.8617 38.8646 15.6868 38.5786 16.3249C38.577 16.2958 38.577 16.2777 38.5754 16.2468L38.5038 14.8636L38.4588 14.8178C37.9208 14.9219 37.9081 14.9384 37.4112 15.0022L37.3725 15.0368C37.367 15.0534 37.367 15.0715 37.3638 15.0913L37.367 15.0984C37.4292 15.4158 37.4142 15.345 37.4765 15.8459C37.5056 16.0918 37.5443 16.339 37.5733 16.5818C37.6223 16.9881 37.6498 17.1882 37.7097 17.8083C37.3741 18.3621 37.2946 18.5716 36.9716 19.0576L36.9738 19.0625L36.7463 19.4222C36.7203 19.4601 36.6967 19.4862 36.6636 19.4972C36.6273 19.5152 36.5801 19.5184 36.5146 19.5184H36.3886L36.2012 20.1416L36.8439 20.1527C37.2212 20.151 37.4584 19.9746 37.586 19.7374L37.9902 19.0449H37.9837L38.0263 18.9961C38.2981 18.4109 40.366 14.8636 40.366 14.8636ZM33.5827 23.0476H33.31L34.3192 19.7099H34.6539L34.7602 19.3661L34.7705 19.7484C34.758 19.9848 34.9439 20.1943 35.4324 20.1596H35.9972L36.1916 19.5169H35.9791C35.8569 19.5169 35.8002 19.4861 35.8072 19.4199L35.797 19.0309H34.7509V19.0329C34.4127 19.04 33.4028 19.0654 33.1983 19.1198C32.9509 19.1836 32.6901 19.3711 32.6901 19.3711L32.7926 19.0269H31.8141L31.6102 19.7099L30.5876 23.0987H30.3891L30.1945 23.7367H32.1434L32.0781 23.9495H33.0384L33.1021 23.7367H33.3716L33.5827 23.0476ZM32.7831 20.3881C32.6264 20.4315 32.3348 20.5629 32.3348 20.5629L32.5941 19.7099H33.3716L33.184 20.3314C33.184 20.3314 32.9438 20.3455 32.7831 20.3881ZM32.798 21.6068C32.798 21.6068 32.5538 21.6374 32.3931 21.6737C32.2348 21.7217 31.9379 21.8729 31.9379 21.8729L32.2057 20.9852H32.9872L32.798 21.6068ZM32.3624 23.0555H31.5826L31.8087 22.3063H32.5861L32.3624 23.0555ZM34.2404 20.9852H35.3645L35.203 21.5083H34.064L33.893 22.0803H34.8896L34.135 23.1428C34.0821 23.2209 34.0347 23.2485 33.9821 23.2705C33.9293 23.2973 33.8599 23.3288 33.7796 23.3288H33.5032L33.3132 23.9551H34.0364C34.4123 23.9551 34.6343 23.7841 34.7982 23.5597L35.3157 22.8514L35.4268 23.5706C35.4504 23.7053 35.5472 23.7841 35.6128 23.8148C35.6852 23.8511 35.76 23.9134 35.8657 23.9227C35.979 23.9275 36.0609 23.9313 36.1153 23.9313H36.4706L36.684 23.2303H36.5438C36.4634 23.2303 36.3248 23.2168 36.3012 23.1916C36.2777 23.161 36.2777 23.1138 36.2649 23.042L36.1522 22.3212H35.6906L35.8931 22.0803H37.0299L37.2047 21.5083H36.1522L36.3162 20.9852H37.3654L37.56 20.3401H34.4318L34.2404 20.9852ZM24.7465 23.2012L25.0088 22.3284H26.0871L26.2842 21.6792H25.2048L25.3696 21.142H26.4243L26.6197 20.5134H23.9807L23.7894 21.142H24.3889L24.229 21.6792H23.6278L23.4286 22.3395H24.0279L23.6783 23.4942C23.6311 23.647 23.7004 23.7053 23.7444 23.7763C23.7894 23.8455 23.8349 23.8913 23.9374 23.9173C24.0431 23.9409 24.1155 23.955 24.2139 23.955H25.4295L25.6461 23.2359L25.1072 23.3099C25.0032 23.3099 24.715 23.2974 24.7465 23.2012ZM24.8701 19.0229L24.5969 19.5168C24.5384 19.6247 24.4858 19.6917 24.4384 19.7225C24.3966 19.7485 24.314 19.7594 24.1942 19.7594H24.0516L23.861 20.3912H24.3345C24.5622 20.3912 24.737 20.3077 24.8205 20.266C24.9103 20.218 24.9339 20.2454 25.0032 20.1785L25.1632 20.0399H26.6418L26.838 19.3821H25.7557L25.9446 19.0229H24.8701ZM27.053 23.2139C27.0278 23.1776 27.046 23.1136 27.0845 22.9805L27.4886 21.6429H28.9263C29.1358 21.6399 29.2871 21.6374 29.3855 21.6304C29.4912 21.6193 29.6061 21.5816 29.7313 21.5138C29.8606 21.4428 29.9268 21.368 29.9826 21.2821C30.0449 21.1964 30.1449 21.0089 30.2309 20.7197L30.7388 19.0269L29.2469 19.0356C29.2469 19.0356 28.7875 19.1033 28.5853 19.1782C28.3812 19.2616 28.0896 19.4948 28.0896 19.4948L28.2243 19.0307H27.3027L26.0125 23.3098C25.9667 23.476 25.936 23.5966 25.929 23.669C25.9265 23.7471 26.0274 23.8243 26.0927 23.8826C26.17 23.9409 26.2841 23.9314 26.3936 23.9409C26.5087 23.9495 26.6725 23.955 26.8986 23.955H27.6068L27.8242 23.2209L27.1902 23.2808C27.1224 23.2808 27.0734 23.2445 27.053 23.2139ZM27.7494 20.7394H29.2594L29.1635 21.0403C29.1499 21.0474 29.1177 21.0254 28.964 21.0435H27.6564L27.7494 20.7394ZM28.0519 19.7303H29.5746L29.4651 20.0927C29.4651 20.0927 28.7474 20.0856 28.6325 20.1068C28.1267 20.1943 27.8313 20.4646 27.8313 20.4646L28.0519 19.7303ZM29.1973 22.0479C29.1847 22.0929 29.165 22.1203 29.1374 22.1409C29.1067 22.1606 29.0571 22.1677 28.9831 22.1677H28.7679L28.7806 21.8013H27.8856L27.8493 23.5926C27.8479 23.7219 27.8604 23.7967 27.955 23.8566C28.0496 23.9314 28.341 23.9409 28.7332 23.9409H29.294L29.4965 23.2704L29.0083 23.2972L28.846 23.3067C28.8238 23.2972 28.8026 23.2885 28.779 23.2649C28.7584 23.2446 28.7237 23.2571 28.7294 23.1278L28.7332 22.6686L29.2452 22.6474C29.5217 22.6474 29.6399 22.5575 29.7407 22.4718C29.8369 22.3897 29.8684 22.2953 29.9047 22.1677L29.9906 21.7611H29.287L29.1973 22.0479Z"
          fill="#FEFEFE"/>
</svg>
