<svg width="53" height="36" viewBox="0 0 53 36" fill="none" xmlns="http://www.w3.org/2000/svg">
    <rect x="1" y="0.5" width="51.5" height="35" rx="5.5" fill="white"/>
    <rect x="1" y="0.5" width="51.5" height="35" rx="5.5" stroke="#DCDCDC"/>
    <path fill-rule="evenodd" clip-rule="evenodd"
          d="M16.4379 24.3874H13.2574L10.8724 15.2886C10.7592 14.87 10.5189 14.5 10.1653 14.3256C9.28297 13.8873 8.31068 13.5386 7.25 13.3626V13.0123H12.3735C13.0806 13.0123 13.611 13.5386 13.6994 14.1497L14.9368 20.713L18.1157 13.0123H21.2078L16.4379 24.3874ZM22.9756 24.3874H19.9719L22.4453 13.0123H25.449L22.9756 24.3874ZM29.335 16.1636C29.4234 15.5509 29.9538 15.2006 30.5725 15.2006C31.5448 15.1127 32.6039 15.2886 33.4878 15.7253L34.0182 13.2762C33.1343 12.9259 32.162 12.75 31.2796 12.75C28.3643 12.75 26.243 14.3256 26.243 16.5124C26.243 18.1759 27.7456 19.0494 28.8063 19.5756C29.9538 20.1003 30.3957 20.4506 30.3073 20.9753C30.3073 21.7624 29.4234 22.1127 28.5411 22.1127C27.4804 22.1127 26.4197 21.8503 25.449 21.4121L24.9187 23.8627C25.9793 24.2994 27.1269 24.4753 28.1875 24.4753C31.4564 24.5618 33.4878 22.9877 33.4878 20.625C33.4878 17.6497 29.335 17.4753 29.335 16.1636ZM44 24.3874L41.615 13.0123H39.0533C38.5229 13.0123 37.9926 13.3626 37.8158 13.8873L33.3994 24.3874H36.4915L37.1087 22.7253H40.9079L41.2615 24.3874H44ZM39.4952 16.0756L40.3776 20.3627H37.9042L39.4952 16.0756Z"
          fill="#172B85"/>
</svg>
