<svg width="32" height="32" viewBox="0 0 32 32" fill="none" xmlns="http://www.w3.org/2000/svg">
<path fill-rule="evenodd" clip-rule="evenodd" d="M6.14062 13.6996C6.14062 13.3682 6.40925 13.0996 6.74063 13.0996H20.9706C21.302 13.0996 21.5706 13.3682 21.5706 13.6996V22.5396C21.5706 22.871 21.302 23.1396 20.9706 23.1396C20.6393 23.1396 20.3706 22.871 20.3706 22.5396V14.2996H7.34063V21.9396H14.0506C14.382 21.9396 14.6506 22.2082 14.6506 22.5396C14.6506 22.871 14.382 23.1396 14.0506 23.1396H6.74063C6.40925 23.1396 6.14062 22.871 6.14062 22.5396V13.6996Z" fill="#232323"/>
<path fill-rule="evenodd" clip-rule="evenodd" d="M13.6504 5.62667C13.8566 5.36764 14.2337 5.32466 14.493 5.53062L25.633 14.3806C25.7577 14.4797 25.8379 14.6242 25.8559 14.7824C25.874 14.9406 25.8284 15.0995 25.7292 15.2241L21.4392 20.6141C21.2329 20.8733 20.8554 20.9162 20.5961 20.7099C20.3368 20.5035 20.294 20.126 20.5003 19.8668L24.4163 14.9466L14.2158 6.84302L9.45296 12.8247L9.96342 13.231C10.2227 13.4373 10.2656 13.8148 10.0592 14.0741C9.85286 14.3333 9.47539 14.3762 9.21612 14.1699L8.23612 13.3899C8.1116 13.2908 8.03155 13.1462 8.0136 12.9881C7.99564 12.83 8.04125 12.6712 8.14039 12.5467L13.6504 5.62667Z" fill="#232323"/>
<path fill-rule="evenodd" clip-rule="evenodd" d="M17.5092 19.6805C15.9297 19.6805 14.6492 20.9609 14.6492 22.5405C14.6492 24.12 15.9297 25.4005 17.5092 25.4005C19.0888 25.4005 20.3692 24.12 20.3692 22.5405C20.3692 20.9609 19.0888 19.6805 17.5092 19.6805ZM13.4492 22.5405C13.4492 20.2982 15.2669 18.4805 17.5092 18.4805C19.7515 18.4805 21.5692 20.2982 21.5692 22.5405C21.5692 24.7827 19.7515 26.6005 17.5092 26.6005C15.2669 26.6005 13.4492 24.7827 13.4492 22.5405Z" fill="#232323"/>
<path fill-rule="evenodd" clip-rule="evenodd" d="M17.5102 20.4395C17.8415 20.4395 18.1102 20.7081 18.1102 21.0395V24.0395C18.1102 24.3708 17.8415 24.6395 17.5102 24.6395C17.1788 24.6395 16.9102 24.3708 16.9102 24.0395V21.0395C16.9102 20.7081 17.1788 20.4395 17.5102 20.4395Z" fill="#232323"/>
<path fill-rule="evenodd" clip-rule="evenodd" d="M15.4102 22.5395C15.4102 22.2081 15.6788 21.9395 16.0102 21.9395H19.0102C19.3415 21.9395 19.6102 22.2081 19.6102 22.5395C19.6102 22.8708 19.3415 23.1395 19.0102 23.1395H16.0102C15.6788 23.1395 15.4102 22.8708 15.4102 22.5395Z" fill="#232323"/>
<path fill-rule="evenodd" clip-rule="evenodd" d="M6.14062 16.7602C6.14062 16.4288 6.40925 16.1602 6.74063 16.1602H20.9706C21.302 16.1602 21.5706 16.4288 21.5706 16.7602C21.5706 17.0915 21.302 17.3602 20.9706 17.3602H6.74063C6.40925 17.3602 6.14062 17.0915 6.14062 16.7602Z" fill="#232323"/>
</svg>
