<svg width="20" height="20" viewBox="0 0 20 20" fill="none" xmlns="http://www.w3.org/2000/svg">
<path fill-rule="evenodd" clip-rule="evenodd" d="M10.0261 5.38314C9.88196 3.21149 11.6708 1.42513 13.7284 1.25C14.0114 3.75441 11.4145 5.62833 10.0261 5.38314ZM11.9484 18.3885C12.963 18.8229 14.0274 18.9665 14.9921 18.0453L14.9903 18.0575C16.2078 16.9892 16.934 15.5444 17.5 14.082C14.6717 12.9612 13.9419 8.96812 17.0212 7.14674C16.2736 6.10119 15.1541 5.51975 13.6572 5.40066C12.8607 5.34468 12.1181 5.59714 11.3819 5.84743C10.9663 5.98868 10.5529 6.12924 10.1329 6.21328C9.79808 6.19006 9.43624 6.05736 9.02777 5.90757C8.48087 5.707 7.8504 5.47579 7.08927 5.43568C1.60712 5.7159 0.895156 13.1591 5.71873 18.0453C6.57309 18.8159 7.32599 18.991 8.74459 18.3885C9.88374 17.9174 10.8698 17.9455 11.9484 18.3885Z" fill="black"/>
</svg>
