<svg width="140" height="64" viewBox="0 0 140 64" fill="none" xmlns="http://www.w3.org/2000/svg">
<rect x="0.5" y="0.5" width="139" height="63" rx="4.5" stroke="#9747FF" stroke-dasharray="10 5"/>
<path d="M30.5 41C31.3284 41 32 40.3284 32 39.5C32 38.6716 31.3284 38 30.5 38C29.6716 38 29 38.6716 29 39.5C29 40.3284 29.6716 41 30.5 41Z" fill="#232323"/>
<path d="M37.5 41C38.3284 41 39 40.3284 39 39.5C39 38.6716 38.3284 38 37.5 38C36.6716 38 36 38.6716 36 39.5C36 40.3284 36.6716 41 37.5 41Z" fill="#232323"/>
<path d="M20 23H24.55L28.2625 34.7548H39.375L44 23" stroke="#232323" stroke-width="1.2" stroke-linecap="round" stroke-linejoin="round"/>
<path d="M106.5 42C107.328 42 108 41.3284 108 40.5C108 39.6716 107.328 39 106.5 39C105.672 39 105 39.6716 105 40.5C105 41.3284 105.672 42 106.5 42Z" fill="#232323"/>
<path d="M113.5 42C114.328 42 115 41.3284 115 40.5C115 39.6716 114.328 39 113.5 39C112.672 39 112 39.6716 112 40.5C112 41.3284 112.672 42 113.5 42Z" fill="#232323"/>
<path d="M96 24H100.55L104.262 35.7548H115.375L120 24" stroke="#232323" stroke-width="1.2" stroke-linecap="round" stroke-linejoin="round"/>
<rect x="104.5" y="18" width="11.6364" height="11.6364" rx="5.81818" fill="#0072BC"/>
<path d="M110.274 20.9548C110.51 20.9566 110.742 20.9996 110.971 21.084C111.2 21.1683 111.407 21.3061 111.591 21.4972C111.777 21.6883 111.925 21.9466 112.035 22.272C112.147 22.5957 112.204 22.9986 112.206 23.4807C112.206 23.9438 112.159 24.3562 112.066 24.7177C111.974 25.0776 111.84 25.3815 111.666 25.6294C111.494 25.8774 111.285 26.0659 111.039 26.195C110.792 26.3242 110.515 26.3887 110.207 26.3887C109.892 26.3887 109.612 26.3267 109.368 26.2028C109.123 26.0788 108.924 25.9075 108.771 25.6888C108.618 25.4684 108.522 25.2153 108.484 24.9295H109.272C109.324 25.1568 109.429 25.341 109.587 25.4822C109.747 25.6217 109.954 25.6914 110.207 25.6914C110.594 25.6914 110.897 25.5227 111.113 25.1852C111.33 24.846 111.44 24.3725 111.441 23.7648H111.4C111.311 23.9128 111.199 24.0402 111.064 24.147C110.932 24.2537 110.783 24.3364 110.618 24.3949C110.452 24.4535 110.276 24.4827 110.088 24.4827C109.783 24.4827 109.506 24.4078 109.257 24.258C109.007 24.1082 108.808 23.9025 108.66 23.6408C108.512 23.3791 108.438 23.0804 108.438 22.7446C108.438 22.4106 108.514 22.1076 108.665 21.8355C108.818 21.5635 109.032 21.3483 109.306 21.1899C109.581 21.0297 109.904 20.9514 110.274 20.9548ZM110.277 21.6263C110.075 21.6263 109.894 21.6763 109.732 21.7761C109.572 21.8743 109.445 22.0077 109.352 22.1764C109.259 22.3434 109.213 22.5294 109.213 22.7343C109.213 22.9392 109.257 23.1251 109.347 23.2921C109.438 23.4574 109.562 23.5891 109.719 23.6873C109.877 23.7837 110.058 23.8319 110.261 23.8319C110.413 23.8319 110.554 23.8026 110.685 23.7441C110.816 23.6856 110.93 23.6046 111.028 23.5013C111.126 23.3963 111.203 23.2775 111.258 23.1449C111.313 23.0123 111.341 22.8729 111.341 22.7265C111.341 22.532 111.294 22.3512 111.201 22.1842C111.11 22.0172 110.984 21.8829 110.824 21.7813C110.664 21.678 110.482 21.6263 110.277 21.6263Z" fill="white"/>
</svg>
