<svg width="32" height="32" viewBox="0 0 32 32" fill="none" xmlns="http://www.w3.org/2000/svg">
<path d="M21.4281 14.9999H21.3681C21.3985 14.8078 21.4185 14.6142 21.4281 14.4199C21.4175 13.1388 20.9289 11.9078 20.058 10.9682C19.1871 10.0286 17.9967 9.44808 16.7201 9.34045C15.4435 9.23281 14.1727 9.60581 13.1568 10.3863C12.1408 11.1669 11.453 12.2987 11.2281 13.5599C9.82034 13.6093 8.48711 14.2048 7.51086 15.2202C6.5346 16.2357 5.99203 17.5913 5.9981 18.9999C5.99855 19.4618 6.05564 19.9219 6.1681 20.3699C6.36365 21.066 6.78306 21.6783 7.36148 22.1121C7.93989 22.5459 8.64511 22.7771 9.3681 22.7699H15.3681V17.5699L12.9981 19.9999C12.9431 20.0571 12.877 20.1026 12.804 20.1336C12.731 20.1647 12.6525 20.1807 12.5731 20.1807C12.4937 20.1807 12.4152 20.1647 12.3422 20.1336C12.2691 20.1026 12.2031 20.0571 12.1481 19.9999C12.0912 19.9458 12.0459 19.8806 12.015 19.8084C11.9841 19.7362 11.9681 19.6585 11.9681 19.5799C11.9681 19.5014 11.9841 19.4236 12.015 19.3515C12.0459 19.2793 12.0912 19.2141 12.1481 19.1599L15.4981 15.8199C15.5634 15.7207 15.6577 15.6439 15.7681 15.5999C15.9156 15.5399 16.0806 15.5399 16.2281 15.5999C16.3385 15.6439 16.4328 15.7207 16.4981 15.8199L19.8481 19.1599C19.924 19.2445 19.9742 19.3489 19.9931 19.461C20.012 19.573 19.9986 19.6881 19.9546 19.7929C19.9106 19.8976 19.8378 19.9877 19.7446 20.0527C19.6514 20.1177 19.5416 20.1549 19.4281 20.1599C19.2694 20.1646 19.1151 20.1072 18.9981 19.9999L16.5981 17.5999V22.7599H22.6781C23.5377 22.7761 24.3688 22.452 24.9906 21.8583C25.6124 21.2646 25.9745 20.4493 25.9981 19.5899C26.0007 18.9881 25.8845 18.3917 25.656 17.8349C25.4275 17.2782 25.0913 16.772 24.6667 16.3455C24.242 15.919 23.7374 15.5806 23.1816 15.3497C22.6258 15.1188 22.0299 14.9999 21.4281 14.9999Z" fill="#232323"/>
<path d="M21.8691 14.5608C21.8737 14.5142 21.8737 14.4673 21.8691 14.4208C21.8602 13.0597 21.3542 11.7487 20.4463 10.7347C19.5383 9.72068 18.291 9.07348 16.9391 8.91495C15.5872 8.75641 14.224 9.09746 13.1061 9.87391C11.9882 10.6504 11.1926 11.8087 10.8691 13.1308C9.40683 13.2615 8.04744 13.938 7.06158 15.0258C6.07571 16.1136 5.5357 17.5328 5.54907 19.0008C5.54693 19.5003 5.61082 19.998 5.73907 20.4808C5.95428 21.2756 6.42778 21.9762 7.08498 22.4723C7.74218 22.9683 8.54574 23.2317 9.36907 23.2208H15.3691V22.3208H9.36907C8.74436 22.3317 8.13384 22.1341 7.634 21.7592C7.13416 21.3843 6.77351 20.8536 6.60907 20.2508C6.49998 19.8432 6.44617 19.4227 6.44907 19.0008C6.44804 17.7086 6.94728 16.4663 7.84213 15.5341C8.73699 14.602 9.95796 14.0525 11.2491 14.0008C11.3517 13.9994 11.4505 13.9613 11.5275 13.8935C11.6045 13.8256 11.6548 13.7325 11.6691 13.6308C11.8708 12.476 12.4977 11.4387 13.4262 10.7231C14.3547 10.0075 15.5176 9.66557 16.6856 9.76469C17.8537 9.86381 18.9423 10.3968 19.737 11.2586C20.5317 12.1204 20.9748 13.2485 20.9791 14.4208C20.9791 14.5308 20.9791 14.6508 20.9791 14.7608V14.9408C20.9761 15.0096 20.9879 15.0783 21.0138 15.1421C21.0397 15.206 21.079 15.2635 21.1291 15.3108C21.1793 15.3586 21.2392 15.395 21.3048 15.4174C21.3704 15.4399 21.4401 15.4479 21.5091 15.4408C22.6027 15.4487 23.6485 15.8901 24.4171 16.6681C25.1857 17.4461 25.6144 18.4972 25.6091 19.5908C25.5804 20.3264 25.2631 21.0212 24.726 21.5247C24.1888 22.0281 23.475 22.2998 22.7391 22.2808H16.5991V23.1808H22.6791C23.6572 23.1943 24.6013 22.822 25.3069 22.1444C26.0125 21.4669 26.4229 20.5387 26.4491 19.5608C26.4535 18.3044 25.9848 17.0923 25.1361 16.1658C24.2874 15.2393 23.1211 14.6663 21.8691 14.5608Z" fill="#232323"/>
<path d="M16.2295 15.5699C16.0821 15.5099 15.917 15.5099 15.7695 15.5699C15.8417 15.5367 15.9201 15.5195 15.9995 15.5195C16.0789 15.5195 16.1574 15.5367 16.2295 15.5699Z" fill="white"/>
</svg>
