<svg width="32" height="32" viewBox="0 0 32 32" fill="none" xmlns="http://www.w3.org/2000/svg">
<path d="M6.73047 26H25.2705" stroke="#232323" stroke-width="1.2" stroke-linecap="round" stroke-linejoin="round"/>
<path fill-rule="evenodd" clip-rule="evenodd" d="M23.7709 6.84988C23.5024 6.58108 23.1837 6.36783 22.8328 6.22234C22.4819 6.07684 22.1057 6.00195 21.7259 6.00195C21.346 6.00195 20.9698 6.07684 20.6189 6.22234C20.268 6.36783 19.9493 6.58108 19.6809 6.84988L10.3809 16.1399C9.44473 17.064 8.75684 18.2093 8.38086 19.4699L7.38086 23.2499L11.1509 22.1899C12.417 21.8268 13.5655 21.137 14.4809 20.1899L23.7709 10.9999C24.0488 10.7305 24.2697 10.408 24.4206 10.0515C24.5715 9.69507 24.6493 9.31195 24.6493 8.92488C24.6493 8.53781 24.5715 8.15468 24.4206 7.79824C24.2697 7.4418 24.0488 7.1193 23.7709 6.84988V6.84988Z" stroke="#232323" stroke-width="1.2" stroke-linecap="round" stroke-linejoin="round"/>
<path d="M18.8613 7.66992C18.9075 8.73796 19.3622 9.74746 20.1313 10.4899C20.8881 11.2693 21.9158 11.7276 23.0013 11.7699" stroke="#232323" stroke-width="1.2" stroke-linecap="round" stroke-linejoin="round"/>
</svg>
