<svg width="32" height="32" viewBox="0 0 32 32" fill="none" xmlns="http://www.w3.org/2000/svg">
<path d="M23.25 8.75L21.13 10.87L20.77 11.23L20.58 11.42L17.98 14.02L17.7 14.3L14.17 17.83L13.87 18.13L11.42 20.58L11.23 20.77L10.87 21.13L8.75 23.25" stroke="#232323" stroke-width="1.2" stroke-linecap="round" stroke-linejoin="round"/>
<path d="M22.7795 12.2207C23.9921 13.3551 25.0723 14.6232 25.9995 16.0007C25.9995 16.0007 21.5195 23.0007 15.9995 23.0007C14.8789 22.9879 13.7754 22.7248 12.7695 22.2307" stroke="#232323" stroke-width="1.2" stroke-linecap="round" stroke-linejoin="round"/>
<path d="M10.87 21.13C8.96969 19.7061 7.32325 17.9717 6 16C6 16 10.48 9 16 9C17.8624 9.07706 19.6549 9.73047 21.13 10.87" stroke="#232323" stroke-width="1.2" stroke-linecap="round" stroke-linejoin="round"/>
<path d="M17.7006 14.3001L14.1706 17.8301L13.8706 18.1301C13.4082 17.6058 13.1554 16.9292 13.1606 16.2301C13.1504 15.6651 13.305 15.1093 13.6054 14.6306C13.9058 14.1519 14.3392 13.7711 14.8524 13.5346C15.3657 13.2981 15.9367 13.2162 16.4958 13.2989C17.0549 13.3815 17.5778 13.6252 18.0006 14.0001L17.7006 14.3001Z" fill="#232323"/>
</svg>
