<svg width="32" height="32" viewBox="0 0 32 32" fill="none" xmlns="http://www.w3.org/2000/svg">
<path d="M10.9805 9.32812H25.9805" stroke="#232323" stroke-width="1.2" stroke-linecap="round" stroke-linejoin="round"/>
<path d="M10.9805 16H25.9805" stroke="#232323" stroke-width="1.2" stroke-linecap="round" stroke-linejoin="round"/>
<path d="M10.9805 22.668H25.9805" stroke="#232323" stroke-width="1.2" stroke-linecap="round" stroke-linejoin="round"/>
<path d="M6.00078 10.5289C6.31904 10.5289 6.62427 10.4025 6.84931 10.1774C7.07435 9.95239 7.20078 9.64717 7.20078 9.32891C7.20078 9.01065 7.07435 8.70542 6.84931 8.48038C6.62427 8.25533 6.31904 8.12891 6.00078 8.12891C5.68252 8.12891 5.3773 8.25533 5.15225 8.48038C4.92721 8.70542 4.80078 9.01065 4.80078 9.32891C4.80078 9.64717 4.92721 9.95239 5.15225 10.1774C5.3773 10.4025 5.68252 10.5289 6.00078 10.5289Z" fill="#232323"/>
<path d="M6.00078 17.2008C6.31904 17.2008 6.62427 17.0744 6.84931 16.8493C7.07435 16.6243 7.20078 16.319 7.20078 16.0008C7.20078 15.6825 7.07435 15.3773 6.84931 15.1523C6.62427 14.9272 6.31904 14.8008 6.00078 14.8008C5.68252 14.8008 5.3773 14.9272 5.15225 15.1523C4.92721 15.3773 4.80078 15.6825 4.80078 16.0008C4.80078 16.319 4.92721 16.6243 5.15225 16.8493C5.3773 17.0744 5.68252 17.2008 6.00078 17.2008Z" fill="#232323"/>
<path d="M6.00078 23.8688C6.31904 23.8688 6.62427 23.7423 6.84931 23.5173C7.07435 23.2922 7.20078 22.987 7.20078 22.6688C7.20078 22.3505 7.07435 22.0453 6.84931 21.8202C6.62427 21.5952 6.31904 21.4688 6.00078 21.4688C5.68252 21.4688 5.3773 21.5952 5.15225 21.8202C4.92721 22.0453 4.80078 22.3505 4.80078 22.6688C4.80078 22.987 4.92721 23.2922 5.15225 23.5173C5.3773 23.7423 5.68252 23.8688 6.00078 23.8688Z" fill="#232323"/>
</svg>
