<svg width="32" height="32" viewBox="0 0 32 32" fill="none" xmlns="http://www.w3.org/2000/svg">
<path d="M22.8093 17.92C22.6162 17.7077 22.3818 17.5369 22.1205 17.4183C21.8591 17.2997 21.5763 17.2356 21.2893 17.23C21.0012 17.2371 20.7173 17.3018 20.4546 17.4203C20.1918 17.5388 19.9554 17.7087 19.7593 17.92L18.3393 19.33L17.9993 19.15C17.8393 19.07 17.6793 18.99 17.5493 18.91C16.1475 17.9983 14.9044 16.8633 13.8693 15.55C13.3863 14.9675 12.9796 14.3256 12.6593 13.64C13.0293 13.31 13.3693 12.96 13.6593 12.64L14.0293 12.26C14.2502 12.0667 14.4272 11.8283 14.5485 11.561C14.6697 11.2937 14.7325 11.0035 14.7325 10.71C14.7325 10.4165 14.6697 10.1263 14.5485 9.85899C14.4272 9.59167 14.2502 9.35335 14.0293 9.16L12.8493 7.92L12.4293 7.49C12.1693 7.21 11.8793 6.93 11.5893 6.66C11.396 6.45551 11.1636 6.29177 10.906 6.17843C10.6484 6.06508 10.3707 6.00441 10.0893 6C9.51577 6.01242 8.96999 6.2494 8.56932 6.66V6.66L6.99932 8.2C6.42284 8.75182 6.06731 9.49488 5.99932 10.29C5.95096 11.4255 6.14882 12.5581 6.57932 13.61C7.37993 15.7001 8.53709 17.6355 9.99932 19.33C11.9205 21.6346 14.3056 23.5086 16.9993 24.83C18.2474 25.4677 19.6044 25.8646 20.9993 26H21.2793C21.7639 26.0114 22.2452 25.9181 22.6905 25.7266C23.1357 25.535 23.5344 25.2497 23.8593 24.89V24.89C24.1045 24.6029 24.3685 24.3323 24.6493 24.08L25.2293 23.5C25.456 23.3029 25.6408 23.0625 25.7731 22.7929C25.9053 22.5232 25.9823 22.2298 25.9993 21.93C25.993 21.6402 25.9287 21.3547 25.8102 21.0902C25.6916 20.8257 25.5214 20.5876 25.3093 20.39L22.8093 17.92Z" stroke="#232323" stroke-width="1.2" stroke-linecap="round" stroke-linejoin="round"/>
<path d="M24.7597 12.0192H19.9297V7.19922" stroke="#232323" stroke-width="1.2" stroke-linecap="round" stroke-linejoin="round"/>
<path d="M25.9597 6L19.9297 12.02" stroke="#232323" stroke-width="1.2" stroke-linecap="round" stroke-linejoin="round"/>
</svg>
