<svg width="32" height="32" viewBox="0 0 32 32" fill="none" xmlns="http://www.w3.org/2000/svg">
<path d="M15.9986 17.7999C18.0365 17.7999 19.6886 16.1479 19.6886 14.1099C19.6886 12.072 18.0365 10.4199 15.9986 10.4199C13.9607 10.4199 12.3086 12.072 12.3086 14.1099C12.3086 16.1479 13.9607 17.7999 15.9986 17.7999Z" stroke="#232323" stroke-width="1.2" stroke-linecap="round" stroke-linejoin="round"/>
<path d="M24.1092 14.11C24.1092 17.57 19.2792 23.16 17.1092 25.53C16.9716 25.6791 16.8046 25.798 16.6187 25.8794C16.4328 25.9608 16.2321 26.0028 16.0292 26.0028C15.8263 26.0028 15.6256 25.9608 15.4397 25.8794C15.2539 25.798 15.0869 25.6791 14.9492 25.53C12.7492 23.16 7.94922 17.53 7.94922 14.11C7.94922 11.9591 8.80366 9.89628 10.3246 8.37536C11.8455 6.85444 13.9083 6 16.0592 6C18.2101 6 20.2729 6.85444 21.7939 8.37536C23.3148 9.89628 24.1692 11.9591 24.1692 14.11H24.1092Z" stroke="#232323" stroke-width="1.2" stroke-linecap="round" stroke-linejoin="round"/>
</svg>
