<svg width="32" height="32" viewBox="0 0 32 32" fill="none" xmlns="http://www.w3.org/2000/svg">
<path d="M17.3405 24.1H25.5205L22.6705 20.76V14.57C22.6707 13.051 22.151 11.5777 21.1977 10.3952C20.2443 9.21262 18.9149 8.39207 17.4305 8.07V7.43C17.4305 7.05074 17.2798 6.68701 17.0116 6.41884C16.7435 6.15066 16.3797 6 16.0005 6C15.6212 6 15.2575 6.15066 14.9893 6.41884C14.7211 6.68701 14.5705 7.05074 14.5705 7.43V8.07C13.086 8.39207 11.7566 9.21262 10.8033 10.3952C9.84994 11.5777 9.33019 13.051 9.33047 14.57V20.76L6.48047 24.1H17.3405Z" stroke="#232323" stroke-width="1.2" stroke-linecap="round" stroke-linejoin="round"/>
<path d="M17.4303 24.5696C17.4303 24.9489 17.2797 25.3126 17.0115 25.5808C16.7433 25.8489 16.3796 25.9996 16.0003 25.9996C15.6211 25.9996 15.2574 25.8489 14.9892 25.5808C14.721 25.3126 14.5703 24.9489 14.5703 24.5696C14.5693 24.4086 14.5999 24.2489 14.6603 24.0996H17.3403C17.4008 24.2489 17.4314 24.4086 17.4303 24.5696Z" fill="#232323"/>
</svg>
