<svg width="32" height="32" viewBox="0 0 32 32" fill="none" xmlns="http://www.w3.org/2000/svg">
<path d="M21.4301 14.6777H21.3701C21.4004 14.4855 21.4205 14.2919 21.4301 14.0977C21.4195 12.8166 20.9309 11.5856 20.06 10.6459C19.1891 9.70633 17.9987 9.12582 16.7221 9.01818C15.4454 8.91055 14.1746 9.28354 13.1587 10.0641C12.1428 10.8446 11.455 11.9764 11.23 13.2377C9.8223 13.287 8.48906 13.8825 7.51281 14.898C6.53656 15.9134 5.99399 17.2691 6.00005 18.6777C6.0005 19.1396 6.0576 19.5997 6.17005 20.0477C6.3656 20.7437 6.78501 21.356 7.36343 21.7898C7.94185 22.2236 8.64706 22.4548 9.37005 22.4477H22.68C23.5413 22.4638 24.3739 22.1384 24.996 21.5425C25.6181 20.9467 25.9791 20.1288 26 19.2677V19.2677C26.0027 18.6658 25.8864 18.0694 25.6579 17.5127C25.4295 16.9559 25.0932 16.4497 24.6686 16.0232C24.244 15.5968 23.7393 15.2583 23.1835 15.0274C22.6278 14.7965 22.0319 14.6777 21.4301 14.6777V14.6777Z" stroke="#232323" stroke-width="1.2" stroke-linecap="round" stroke-linejoin="round"/>
<path d="M12.5703 18.2269L16.0003 14.7969L19.4303 18.2269" stroke="#232323" stroke-width="1.2" stroke-linecap="round" stroke-linejoin="round"/>
<path d="M16 22.4069V14.7969" stroke="#232323" stroke-width="1.2" stroke-linecap="round" stroke-linejoin="round"/>
</svg>
