<svg width="32" height="32" viewBox="0 0 32 32" fill="none" xmlns="http://www.w3.org/2000/svg">
<path d="M6 9.07812H26" stroke="#232323" stroke-width="1.2" stroke-linecap="round" stroke-linejoin="round"/>
<path d="M22.9201 13.6914V22.7814C22.9201 23.2043 22.8368 23.623 22.675 24.0136C22.5132 24.4043 22.276 24.7593 21.977 25.0583C21.678 25.3573 21.323 25.5945 20.9323 25.7563C20.5417 25.9181 20.1229 26.0014 19.7001 26.0014H12.3001C11.4461 26.0014 10.6271 25.6622 10.0232 25.0583C9.41933 24.4544 9.08008 23.6354 9.08008 22.7814V13.6914" stroke="#232323" stroke-width="1.2" stroke-linecap="round" stroke-linejoin="round"/>
<path d="M16 26.0014V13.6914" stroke="#232323" stroke-width="1.2" stroke-linecap="round" stroke-linejoin="round"/>
<path d="M17.41 9C17.4705 8.84028 17.501 8.67078 17.5 8.5C17.5 8.10218 17.342 7.72064 17.0607 7.43934C16.7794 7.15804 16.3978 7 16 7C15.6022 7 15.2207 7.15804 14.9394 7.43934C14.6581 7.72064 14.5 8.10218 14.5 8.5C14.4991 8.67078 14.5296 8.84028 14.59 9" fill="#232323"/>
</svg>
