<svg width="32" height="32" viewBox="0 0 32 32" fill="none" xmlns="http://www.w3.org/2000/svg">
<path d="M16 7L6 24.78H26L16 7Z" stroke="#232323" stroke-width="1.2" stroke-linecap="round" stroke-linejoin="round"/>
<path d="M16.5984 13.7812L16.5504 19.7012H15.4464L15.3984 13.7812H16.5984Z" fill="#232323"/>
<path d="M15.999 21.7363C16.2277 21.7363 16.4471 21.6455 16.6088 21.4838C16.7705 21.3221 16.8613 21.1027 16.8613 20.874C16.8613 20.6453 16.7705 20.426 16.6088 20.2643C16.4471 20.1026 16.2277 20.0117 15.999 20.0117C15.7703 20.0117 15.551 20.1026 15.3893 20.2643C15.2276 20.426 15.1367 20.6453 15.1367 20.874C15.1367 21.1027 15.2276 21.3221 15.3893 21.4838C15.551 21.6455 15.7703 21.7363 15.999 21.7363Z" fill="#232323"/>
</svg>
