<svg width="106" height="34" viewBox="0 0 106 34" fill="none" xmlns="http://www.w3.org/2000/svg">
<g filter="url(#filter0_d_685_50230)">
<rect x="2" y="1" width="101.25" height="30" rx="5" fill="white"/>
<rect x="2.5" y="1.5" width="100.25" height="29" rx="4.5" stroke="#404553" stroke-opacity="0.3"/>
<path d="M14 11.25H15.5833M15.5833 11.25H28.25M15.5833 11.25V22.3333C15.5833 22.7533 15.7501 23.156 16.0471 23.4529C16.344 23.7498 16.7467 23.9167 17.1667 23.9167H25.0833C25.5033 23.9167 25.906 23.7498 26.2029 23.4529C26.4999 23.156 26.6667 22.7533 26.6667 22.3333V11.25H15.5833ZM17.9583 11.25V9.66666C17.9583 9.24674 18.1251 8.84401 18.4221 8.54708C18.719 8.25014 19.1217 8.08333 19.5417 8.08333H22.7083C23.1283 8.08333 23.531 8.25014 23.8279 8.54708C24.1249 8.84401 24.2917 9.24674 24.2917 9.66666V11.25M19.5417 15.2083V19.9583M22.7083 15.2083V19.9583" stroke="#FA3434" stroke-width="2" stroke-linecap="round" stroke-linejoin="round"/>
<path d="M41.9177 21V10.878H45.9357C46.6871 10.878 47.3101 10.9947 47.8047 11.228C48.2994 11.4567 48.6681 11.7833 48.9107 12.208C49.1534 12.6327 49.2747 13.1343 49.2747 13.713C49.2747 14.259 49.1814 14.714 48.9947 15.078C48.8127 15.442 48.5747 15.7383 48.2807 15.967C47.9914 16.1957 47.6857 16.3753 47.3637 16.506L49.3237 21H47.7487L45.9567 16.765H43.4157V21H41.9177ZM43.4157 15.554H45.5297C46.2344 15.554 46.7804 15.4023 47.1677 15.099C47.5551 14.791 47.7487 14.3523 47.7487 13.783C47.7487 13.223 47.5714 12.7983 47.2167 12.509C46.8667 12.2197 46.3907 12.075 45.7887 12.075H43.4157V15.554ZM54.0983 21.14C53.4123 21.14 52.8079 20.993 52.2853 20.699C51.7626 20.4003 51.3543 19.9757 51.0603 19.425C50.7709 18.8743 50.6263 18.2187 50.6263 17.458C50.6263 16.7067 50.7593 16.044 51.0253 15.47C51.2913 14.8913 51.6763 14.4387 52.1803 14.112C52.6843 13.7853 53.2909 13.622 54.0003 13.622C54.6956 13.622 55.2836 13.7713 55.7643 14.07C56.2449 14.3687 56.6089 14.7887 56.8563 15.33C57.1036 15.8667 57.2273 16.5013 57.2273 17.234V17.731H52.1313C52.1266 18.165 52.1966 18.5547 52.3413 18.9C52.4859 19.2407 52.7006 19.5113 52.9853 19.712C53.2746 19.908 53.6339 20.006 54.0633 20.006C54.4973 20.006 54.8706 19.908 55.1833 19.712C55.5006 19.516 55.7083 19.2243 55.8063 18.837H57.1923C57.1083 19.3317 56.9099 19.7517 56.5973 20.097C56.2846 20.4423 55.9089 20.7037 55.4703 20.881C55.0316 21.0537 54.5743 21.14 54.0983 21.14ZM52.1313 16.758H55.7993C55.7993 16.38 55.7339 16.037 55.6033 15.729C55.4726 15.4163 55.2719 15.1713 55.0013 14.994C54.7353 14.812 54.3993 14.721 53.9933 14.721C53.5779 14.721 53.2326 14.8213 52.9573 15.022C52.6819 15.2227 52.4743 15.4793 52.3343 15.792C52.1989 16.1047 52.1313 16.4267 52.1313 16.758ZM58.933 21V13.762H60.389V14.805C60.5943 14.4877 60.8743 14.2123 61.229 13.979C61.5836 13.741 62.041 13.622 62.601 13.622C62.8623 13.622 63.126 13.6663 63.392 13.755C63.6626 13.8437 63.91 13.9767 64.134 14.154C64.3626 14.3267 64.5423 14.5413 64.673 14.798C64.9016 14.4527 65.2073 14.1703 65.59 13.951C65.9726 13.7317 66.402 13.622 66.878 13.622C67.1346 13.622 67.4006 13.664 67.676 13.748C67.9513 13.8273 68.2056 13.965 68.439 14.161C68.677 14.3523 68.8683 14.6183 69.013 14.959C69.1623 15.2997 69.237 15.7313 69.237 16.254V21H67.732V16.415C67.732 16.0183 67.6643 15.708 67.529 15.484C67.3983 15.26 67.2256 15.1037 67.011 15.015C66.801 14.9217 66.577 14.875 66.339 14.875C66.1243 14.875 65.9003 14.917 65.667 15.001C65.4336 15.085 65.2353 15.225 65.072 15.421C64.9086 15.617 64.827 15.883 64.827 16.219V21H63.329V16.093C63.329 15.827 63.2566 15.603 63.112 15.421C62.972 15.239 62.7946 15.1037 62.58 15.015C62.37 14.9217 62.16 14.875 61.95 14.875C61.7166 14.875 61.4833 14.9217 61.25 15.015C61.0166 15.1083 60.8206 15.2553 60.662 15.456C60.508 15.652 60.431 15.9063 60.431 16.219V21H58.933ZM74.1236 21.14C73.447 21.14 72.8566 20.9953 72.3526 20.706C71.8486 20.412 71.4566 19.9873 71.1766 19.432C70.8966 18.8767 70.7566 18.2047 70.7566 17.416C70.7566 16.6553 70.8896 15.9903 71.1556 15.421C71.4216 14.8517 71.8043 14.4107 72.3036 14.098C72.8076 13.7807 73.4166 13.622 74.1306 13.622C74.812 13.622 75.4023 13.7713 75.9016 14.07C76.401 14.364 76.7883 14.7957 77.0636 15.365C77.339 15.9297 77.4766 16.6133 77.4766 17.416C77.4766 18.1487 77.3483 18.795 77.0916 19.355C76.835 19.915 76.457 20.3537 75.9576 20.671C75.463 20.9837 74.8516 21.14 74.1236 21.14ZM74.1306 19.985C74.546 19.985 74.8913 19.8777 75.1666 19.663C75.442 19.4437 75.6496 19.138 75.7896 18.746C75.9296 18.3493 75.9996 17.892 75.9996 17.374C75.9996 16.8933 75.9366 16.457 75.8106 16.065C75.6893 15.6683 75.491 15.3533 75.2156 15.12C74.945 14.8867 74.5833 14.77 74.1306 14.77C73.7153 14.77 73.3653 14.8773 73.0806 15.092C72.8006 15.302 72.5906 15.603 72.4506 15.995C72.3106 16.3823 72.2406 16.842 72.2406 17.374C72.2406 17.8453 72.3036 18.2793 72.4296 18.676C72.5556 19.0727 72.7563 19.39 73.0316 19.628C73.3116 19.866 73.678 19.985 74.1306 19.985ZM80.8736 21L78.2276 13.762H79.6136L81.4476 19.103H81.5456L83.3796 13.762H84.7656L82.1336 21H80.8736ZM89.0436 21.14C88.3576 21.14 87.7532 20.993 87.2306 20.699C86.7079 20.4003 86.2996 19.9757 86.0056 19.425C85.7162 18.8743 85.5716 18.2187 85.5716 17.458C85.5716 16.7067 85.7046 16.044 85.9706 15.47C86.2366 14.8913 86.6216 14.4387 87.1256 14.112C87.6296 13.7853 88.2362 13.622 88.9456 13.622C89.6409 13.622 90.2289 13.7713 90.7096 14.07C91.1902 14.3687 91.5542 14.7887 91.8016 15.33C92.0489 15.8667 92.1726 16.5013 92.1726 17.234V17.731H87.0766C87.0719 18.165 87.1419 18.5547 87.2866 18.9C87.4312 19.2407 87.6459 19.5113 87.9306 19.712C88.2199 19.908 88.5792 20.006 89.0086 20.006C89.4426 20.006 89.8159 19.908 90.1286 19.712C90.4459 19.516 90.6536 19.2243 90.7516 18.837H92.1376C92.0536 19.3317 91.8552 19.7517 91.5426 20.097C91.2299 20.4423 90.8542 20.7037 90.4156 20.881C89.9769 21.0537 89.5196 21.14 89.0436 21.14ZM87.0766 16.758H90.7446C90.7446 16.38 90.6792 16.037 90.5486 15.729C90.4179 15.4163 90.2172 15.1713 89.9466 14.994C89.6806 14.812 89.3446 14.721 88.9386 14.721C88.5232 14.721 88.1779 14.8213 87.9026 15.022C87.6272 15.2227 87.4196 15.4793 87.2796 15.792C87.1442 16.1047 87.0766 16.4267 87.0766 16.758Z" fill="#FA3434"/>
</g>
<defs>
<filter id="filter0_d_685_50230" x="0" y="0" width="105.25" height="34" filterUnits="userSpaceOnUse" color-interpolation-filters="sRGB">
<feFlood flood-opacity="0" result="BackgroundImageFix"/>
<feColorMatrix in="SourceAlpha" type="matrix" values="0 0 0 0 0 0 0 0 0 0 0 0 0 0 0 0 0 0 127 0" result="hardAlpha"/>
<feOffset dy="1"/>
<feGaussianBlur stdDeviation="1"/>
<feColorMatrix type="matrix" values="0 0 0 0 0.220833 0 0 0 0 0.220833 0 0 0 0 0.220833 0 0 0 0.08 0"/>
<feBlend mode="normal" in2="BackgroundImageFix" result="effect1_dropShadow_685_50230"/>
<feBlend mode="normal" in="SourceGraphic" in2="effect1_dropShadow_685_50230" result="shape"/>
</filter>
</defs>
</svg>
