<svg width="29" height="29" viewBox="0 0 29 29" fill="none" xmlns="http://www.w3.org/2000/svg">
<path fill-rule="evenodd" clip-rule="evenodd" d="M17.4167 13.3329H21.2225C21.7995 13.3329 22.2529 12.8558 22.2529 12.2805C22.2529 11.6911 21.7995 11.2281 21.2225 11.2281H17.4167C16.8397 11.2281 16.3863 11.6911 16.3863 12.2805C16.3863 12.8558 16.8397 13.3329 17.4167 13.3329ZM25.7428 6.03763C26.5809 6.03763 27.1305 6.3323 27.68 6.97778C28.2296 7.62325 28.3258 8.54936 28.2021 9.38988L26.8969 18.5949C26.6496 20.3643 25.1657 21.6679 23.4209 21.6679H8.43128C6.60396 21.6679 5.09264 20.238 4.9415 18.3858L3.67749 3.08951L1.60286 2.72468C1.05328 2.62645 0.668584 2.0792 0.764759 1.51792C0.860934 0.944016 1.39677 0.563749 1.96008 0.649344L5.2369 1.15309C5.70403 1.23869 6.04752 1.63018 6.08873 2.10727L6.34978 5.25044C6.391 5.70086 6.74822 6.03763 7.18788 6.03763H25.7428ZM8.21114 23.8856C7.05704 23.8856 6.12277 24.8398 6.12277 26.0185C6.12277 27.1832 7.05704 28.1373 8.21114 28.1373C9.35151 28.1373 10.2858 27.1832 10.2858 26.0185C10.2858 24.8398 9.35151 23.8856 8.21114 23.8856ZM23.6678 23.8856C22.5137 23.8856 21.5794 24.8398 21.5794 26.0185C21.5794 27.1832 22.5137 28.1373 23.6678 28.1373C24.8082 28.1373 25.7424 27.1832 25.7424 26.0185C25.7424 24.8398 24.8082 23.8856 23.6678 23.8856Z" fill="#FEEE00"/>
<path d="M27.68 6.97778L27.7682 6.90272H27.7682L27.68 6.97778ZM28.2021 9.38988L28.0876 9.37303L28.0875 9.37362L28.2021 9.38988ZM26.8969 18.5949L26.7823 18.5786L26.7822 18.5788L26.8969 18.5949ZM4.9415 18.3858L5.05689 18.3764L5.05688 18.3763L4.9415 18.3858ZM3.67749 3.08951L3.79287 3.07997L3.78551 2.99096L3.69754 2.97549L3.67749 3.08951ZM1.60286 2.72468L1.58249 2.83864L1.5828 2.8387L1.60286 2.72468ZM0.764759 1.51792L0.878868 1.53748L0.878939 1.53706L0.764759 1.51792ZM1.96008 0.649344L1.97767 0.534917L1.97747 0.534886L1.96008 0.649344ZM5.2369 1.15309L5.25777 1.03917L5.25449 1.03867L5.2369 1.15309ZM6.08873 2.10727L6.20411 2.09769L6.20408 2.0973L6.08873 2.10727ZM6.34978 5.25044L6.2344 5.26002L6.23449 5.26099L6.34978 5.25044ZM21.2225 13.2171H17.4167V13.4486H21.2225V13.2171ZM22.1372 12.2805C22.1372 12.7952 21.7323 13.2171 21.2225 13.2171V13.4486C21.8668 13.4486 22.3687 12.9164 22.3687 12.2805H22.1372ZM21.2225 11.3438C21.7333 11.3438 22.1372 11.7528 22.1372 12.2805H22.3687C22.3687 11.6295 21.8658 11.1123 21.2225 11.1123V11.3438ZM17.4167 11.3438H21.2225V11.1123H17.4167V11.3438ZM16.502 12.2805C16.502 11.7528 16.9059 11.3438 17.4167 11.3438V11.1123C16.7734 11.1123 16.2705 11.6295 16.2705 12.2805H16.502ZM17.4167 13.2171C16.9069 13.2171 16.502 12.7952 16.502 12.2805H16.2705C16.2705 12.9164 16.7724 13.4486 17.4167 13.4486V13.2171ZM27.7682 6.90272C27.4868 6.57222 27.2002 6.32536 26.8711 6.16196C26.5413 5.99821 26.1761 5.92186 25.7428 5.92186V6.1534C26.1476 6.1534 26.4762 6.22439 26.7681 6.36934C27.0608 6.51465 27.3237 6.73786 27.5919 7.05283L27.7682 6.90272ZM28.3167 9.40673C28.4425 8.55108 28.3488 7.58471 27.7682 6.90272L27.5919 7.05283C28.1104 7.66179 28.209 8.54764 28.0876 9.37303L28.3167 9.40673ZM27.0115 18.6111L28.3167 9.40613L28.0875 9.37362L26.7823 18.5786L27.0115 18.6111ZM23.4209 21.7836C25.2249 21.7836 26.7565 20.4361 27.0115 18.6109L26.7822 18.5788C26.5427 20.2925 25.1066 21.5521 23.4209 21.5521V21.7836ZM8.43128 21.7836H23.4209V21.5521H8.43128V21.7836ZM4.82612 18.3952C4.98196 20.3052 6.54139 21.7836 8.43128 21.7836V21.5521C6.66653 21.5521 5.20331 20.1708 5.05689 18.3764L4.82612 18.3952ZM3.56211 3.09904L4.82613 18.3953L5.05688 18.3763L3.79287 3.07997L3.56211 3.09904ZM1.5828 2.8387L3.65744 3.20353L3.69754 2.97549L1.62291 2.61065L1.5828 2.8387ZM0.65065 1.49837C0.543853 2.12164 0.969585 2.7291 1.58249 2.83864L1.62322 2.61071C1.13698 2.52381 0.793315 2.03677 0.878868 1.53748L0.65065 1.49837ZM1.97747 0.534886C1.35206 0.439856 0.757281 0.862066 0.650579 1.49879L0.878939 1.53706C0.964587 1.02597 1.44147 0.687643 1.94269 0.763802L1.97747 0.534886ZM5.25449 1.03867L1.97767 0.534917L1.94249 0.763772L5.21931 1.26752L5.25449 1.03867ZM6.20408 2.0973C6.15856 1.57051 5.7784 1.13462 5.25776 1.03922L5.21603 1.26697C5.62967 1.34276 5.93647 1.68985 5.97339 2.11723L6.20408 2.0973ZM6.46516 5.24085L6.20411 2.09769L5.97336 2.11685L6.23441 5.26002L6.46516 5.24085ZM7.18788 5.92186C6.81115 5.92186 6.50112 5.63383 6.46507 5.23989L6.23449 5.26099C6.28088 5.7679 6.68529 6.1534 7.18788 6.1534V5.92186ZM25.7428 5.92186H7.18788V6.1534H25.7428V5.92186ZM6.23854 26.0185C6.23854 24.9014 7.12327 24.0014 8.21114 24.0014V23.7699C6.99082 23.7699 6.007 24.7782 6.007 26.0185H6.23854ZM8.21114 28.0216C7.12278 28.0216 6.23854 27.121 6.23854 26.0185H6.007C6.007 27.2453 6.99131 28.2531 8.21114 28.2531V28.0216ZM10.17 26.0185C10.17 27.1215 9.28528 28.0216 8.21114 28.0216V28.2531C9.41773 28.2531 10.4016 27.2448 10.4016 26.0185H10.17ZM8.21114 24.0014C9.28479 24.0014 10.17 24.9009 10.17 26.0185H10.4016C10.4016 24.7787 9.41823 23.7699 8.21114 23.7699V24.0014ZM21.6952 26.0185C21.6952 24.9014 22.5799 24.0014 23.6678 24.0014V23.7699C22.4475 23.7699 21.4637 24.7782 21.4637 26.0185H21.6952ZM23.6678 28.0216C22.5794 28.0216 21.6952 27.121 21.6952 26.0185H21.4637C21.4637 27.2453 22.448 28.2531 23.6678 28.2531V28.0216ZM25.6267 26.0185C25.6267 27.1215 24.7419 28.0216 23.6678 28.0216V28.2531C24.8744 28.2531 25.8582 27.2448 25.8582 26.0185H25.6267ZM23.6678 24.0014C24.7415 24.0014 25.6267 24.9009 25.6267 26.0185H25.8582C25.8582 24.7787 24.8749 23.7699 23.6678 23.7699V24.0014Z" fill="#535864"/>
</svg>
