<svg width="34" height="34" viewBox="0 0 34 34" fill="none" xmlns="http://www.w3.org/2000/svg">
<circle cx="17" cy="17" r="16.5952" fill="#FFFCCC" stroke="#666A75" stroke-width="0.809524"/>
<path d="M27.93 16.65L27.87 16.54C27.8528 16.4906 27.8292 16.4435 27.8 16.4L25.4 13.2C25.1206 12.8275 24.7582 12.525 24.3416 12.3168C23.9251 12.1085 23.4657 12 23 12H21V11C21 10.2044 20.6839 9.44133 20.1213 8.87873C19.5587 8.31612 18.7956 8.00005 18 8.00005H9C8.20435 8.00005 7.44129 8.31612 6.87868 8.87873C6.31607 9.44133 6 10.2044 6 11V22C6 22.2653 6.10536 22.5196 6.29289 22.7072C6.48043 22.8947 6.73478 23 7 23H8C8 23.7957 8.31607 24.5588 8.87868 25.1214C9.44129 25.684 10.2044 26 11 26C11.7956 26 12.5587 25.684 13.1213 25.1214C13.6839 24.5588 14 23.7957 14 23H20C20 23.7957 20.3161 24.5588 20.8787 25.1214C21.4413 25.684 22.2044 26 23 26C23.7956 26 24.5587 25.684 25.1213 25.1214C25.6839 24.5588 26 23.7957 26 23H27C27.2652 23 27.5196 22.8947 27.7071 22.7072C27.8946 22.5196 28 22.2653 28 22V17C27.9978 16.8801 27.9741 16.7616 27.93 16.65ZM11 24C10.8022 24 10.6089 23.9414 10.4444 23.8315C10.28 23.7216 10.1518 23.5655 10.0761 23.3827C10.0004 23.2 9.98063 22.9989 10.0192 22.805C10.0578 22.611 10.153 22.4328 10.2929 22.2929C10.4327 22.1531 10.6109 22.0578 10.8049 22.0193C10.9989 21.9807 11.2 22.0005 11.3827 22.0762C11.5654 22.1519 11.7216 22.28 11.8315 22.4445C11.9414 22.6089 12 22.8023 12 23C12 23.2653 11.8946 23.5196 11.7071 23.7072C11.5196 23.8947 11.2652 24 11 24ZM19 21H13.22C12.9388 20.6907 12.5961 20.4435 12.2138 20.2744C11.8315 20.1052 11.418 20.0179 11 20.0179C10.582 20.0179 10.1685 20.1052 9.78622 20.2744C9.40391 20.4435 9.06118 20.6907 8.78 21H8V11C8 10.7348 8.10536 10.4805 8.29289 10.2929C8.48043 10.1054 8.73478 10 9 10H18C18.2652 10 18.5196 10.1054 18.7071 10.2929C18.8946 10.4805 19 10.7348 19 11V21ZM21 14H23C23.1552 14 23.3084 14.0362 23.4472 14.1056C23.5861 14.175 23.7069 14.2758 23.8 14.4L25 16H21V14ZM23 24C22.8022 24 22.6089 23.9414 22.4444 23.8315C22.28 23.7216 22.1518 23.5655 22.0761 23.3827C22.0004 23.2 21.9806 22.9989 22.0192 22.805C22.0578 22.611 22.153 22.4328 22.2929 22.2929C22.4327 22.1531 22.6109 22.0578 22.8049 22.0193C22.9989 21.9807 23.2 22.0005 23.3827 22.0762C23.5654 22.1519 23.7216 22.28 23.8315 22.4445C23.9414 22.6089 24 22.8023 24 23C24 23.2653 23.8946 23.5196 23.7071 23.7072C23.5196 23.8947 23.2652 24 23 24ZM26 21H25.22C24.6879 20.4141 23.9457 20.0622 23.1553 20.021C22.3649 19.9798 21.5902 20.2526 21 20.78V18H26V21Z" fill="#404553"/>
</svg>
