<svg width="14" height="14" viewBox="0 0 14 14" fill="none" xmlns="http://www.w3.org/2000/svg">
<path fill-rule="evenodd" clip-rule="evenodd" d="M12.6001 5.09739L13.0803 5.57739C13.4604 5.95072 13.6672 6.45739 13.6672 6.99072C13.6738 7.52405 13.4671 8.03139 13.0936 8.41072C13.0892 8.41561 13.0847 8.4199 13.0803 8.4242C13.0781 8.42635 13.0758 8.4285 13.0736 8.43072L12.6001 8.90405C12.4134 9.09072 12.3067 9.34405 12.3067 9.61139V10.2974C12.3067 11.4041 11.4063 12.3047 10.2993 12.3047H9.61236C9.3456 12.3047 9.09217 12.4107 8.90544 12.5974L8.42526 13.0774C8.03179 13.4714 7.51827 13.6641 7.00475 13.6641C6.49123 13.6641 5.97771 13.4714 5.58423 13.0847L5.09739 12.5974C4.91065 12.4107 4.65723 12.3047 4.39047 12.3047H3.70355C2.59648 12.3047 1.69616 11.4041 1.69616 10.2974V9.61139C1.69616 9.34405 1.58945 9.09072 1.40272 8.89739L0.922542 8.42405C0.142259 7.64472 0.13559 6.37072 0.915873 5.58472L1.40272 5.09739C1.58945 4.91072 1.69616 4.65739 1.69616 4.38405V3.70405C1.69616 2.59739 2.59648 1.69805 3.70355 1.69805H4.39047C4.65723 1.69805 4.91065 1.59072 5.09739 1.40405L5.57756 0.924053C6.35785 0.138053 7.63164 0.138053 8.41859 0.918053L8.90544 1.40405C9.09217 1.59072 9.3456 1.69805 9.61236 1.69805H10.2993C11.4063 1.69805 12.3067 2.59739 12.3067 3.70405V4.39139C12.3067 4.65739 12.4134 4.91072 12.6001 5.09739ZM5.28423 9.29739C5.44429 9.29739 5.59101 9.23739 5.69772 9.12406L9.12563 5.69806C9.35237 5.47139 9.35237 5.09739 9.12563 4.87072C8.89888 4.64472 8.53208 4.64472 8.30533 4.87072L4.87742 8.29739C4.65067 8.52406 4.65067 8.89739 4.87742 9.12406C4.98412 9.23739 5.13084 9.29739 5.28423 9.29739ZM8.13184 8.71073C8.13184 9.03739 8.39193 9.29739 8.71872 9.29739C9.03883 9.29739 9.29893 9.03739 9.29893 8.71073C9.29893 8.39139 9.03883 8.13073 8.71872 8.13073C8.39193 8.13073 8.13184 8.39139 8.13184 8.71073ZM5.29066 4.70405C5.61077 4.70405 5.87087 4.96405 5.87087 5.28405C5.87087 5.61138 5.61077 5.87072 5.29066 5.87072C4.97054 5.87072 4.70378 5.61138 4.70378 5.28405C4.70378 4.96405 4.97054 4.70405 5.29066 4.70405Z" fill="#2ABF2D"/>
</svg>
