<svg width="137" height="30" viewBox="0 0 137 30" fill="none" xmlns="http://www.w3.org/2000/svg">
<g clip-path="url(#clip0_1813_14906)">
<path d="M132.878 0H11.7689L5.68359 14.9971L11.7689 30H132.878C135.068 30 136.844 28.2305 136.844 26.0405V3.96535C136.844 1.77536 135.068 0 132.878 0ZM65.1522 10.0039L62.9797 11.9252L61.1401 13.5488L59.3939 11.9252L57.3266 10.0039H65.1522ZM42.5105 11.8376C42.6332 11.3996 42.8376 11.0434 43.1354 10.7748C43.4274 10.5061 43.8187 10.3134 44.3034 10.1908C44.794 10.0681 45.4072 10.0039 46.1372 10.0039H54.1204L56.2812 11.9252H53.1101L46.1372 11.896C45.9561 11.896 45.7926 11.9077 45.6524 11.9252H42.4872C42.493 11.896 42.5047 11.8668 42.5105 11.8376ZM13.5559 3.22951H19.4893V4.68951H13.5559V3.22951ZM37.1553 16.0541C37.1553 16.1242 37.1494 16.1943 37.1494 16.2644C37.1436 16.3286 37.1436 16.387 37.1377 16.4454C37.1319 16.5272 37.1261 16.6089 37.1202 16.6965C37.1085 16.8308 37.0969 16.9652 37.0793 17.0995C37.0793 17.1754 37.0618 17.2455 37.0501 17.3156C37.0385 17.3915 37.0326 17.4616 37.021 17.5316L36.9859 17.7419C36.9859 17.7419 36.9801 17.7711 36.9742 17.7886C36.9625 17.8587 36.9509 17.9288 36.9333 17.993C36.9333 18.0164 36.9333 18.0456 36.9217 18.0689C36.9158 18.0923 36.91 18.1156 36.9042 18.1448C36.8925 18.1857 36.8808 18.2324 36.875 18.2792C36.8691 18.2792 36.8691 18.285 36.8691 18.285C36.8691 18.2967 36.8633 18.3142 36.8633 18.3259C36.8574 18.3317 36.8574 18.3376 36.8574 18.3434C36.8516 18.3551 36.8516 18.3668 36.8516 18.3784C36.8341 18.4485 36.8107 18.5244 36.7932 18.5945C36.7932 18.6062 36.7873 18.612 36.7873 18.6179C36.764 18.7055 36.7406 18.7931 36.7114 18.8807C36.7056 18.9216 36.6939 18.9508 36.6822 18.9741C36.6647 19.0384 36.6472 19.0967 36.6238 19.1551C36.6122 19.2019 36.6005 19.2486 36.583 19.2895C36.5713 19.3362 36.5538 19.3771 36.5362 19.4238V19.4355C36.507 19.5055 36.4837 19.5698 36.4603 19.6399C36.4545 19.6574 36.4486 19.6691 36.4428 19.6866C36.437 19.6983 36.437 19.7099 36.4311 19.7216C36.4019 19.7859 36.3786 19.8501 36.3552 19.9143C36.3494 19.9143 36.3435 19.9319 36.3377 19.9435C36.3085 20.0311 36.2734 20.1129 36.2326 20.2005C36.1917 20.2823 36.1566 20.3699 36.1158 20.4516C36.1041 20.4867 36.0866 20.5159 36.069 20.5509C36.0457 20.6035 36.0223 20.6502 35.999 20.7027C35.9756 20.7436 35.9581 20.7845 35.9347 20.8254C35.9114 20.8663 35.8938 20.9013 35.8705 20.9422C35.8238 21.0239 35.777 21.1057 35.7362 21.1875C35.5551 21.5087 35.3566 21.8182 35.1463 22.116C35.0879 22.2036 35.0237 22.2854 34.9594 22.373C34.9186 22.4255 34.8835 22.4723 34.8426 22.519C34.7609 22.6299 34.6733 22.7409 34.5798 22.846C34.5623 22.8694 34.5448 22.8927 34.5273 22.9103C34.4747 22.9687 34.428 23.0271 34.3813 23.0796C34.3579 23.1088 34.3287 23.138 34.3054 23.1672C34.3054 23.1672 34.2937 23.1789 34.2878 23.1789C34.2061 23.2723 34.1185 23.3599 34.0367 23.4475C34.0134 23.4651 33.9958 23.4884 33.9783 23.5001C33.9024 23.5819 33.8265 23.6578 33.7506 23.7279L33.733 23.7454C33.733 23.7454 33.7155 23.7571 33.7155 23.7629C33.663 23.8155 33.6104 23.8622 33.5578 23.9089C33.517 23.9498 33.4761 23.9848 33.4352 24.0199C33.3826 24.0666 33.3242 24.1133 33.2658 24.1659C33.2425 24.1834 33.225 24.2009 33.2016 24.2184C33.149 24.2651 33.0906 24.306 33.0381 24.3527C33.0264 24.3586 33.0206 24.3703 33.0089 24.3761C32.9914 24.3878 32.9738 24.4053 32.9622 24.417C32.9563 24.417 32.9505 24.4228 32.9446 24.4287C32.9388 24.4345 32.933 24.4345 32.9271 24.4403L32.9096 24.4579C32.8746 24.4754 32.8512 24.4987 32.822 24.5221C32.6994 24.6155 32.5767 24.7031 32.4482 24.7907C32.4015 24.8258 32.3548 24.855 32.3081 24.89C32.238 24.9367 32.1679 24.9835 32.0978 25.0302C32.0278 25.0711 31.9518 25.1178 31.8818 25.1645C31.8584 25.1762 31.835 25.1937 31.8117 25.2054C31.7299 25.2579 31.6423 25.3047 31.5547 25.3514C31.508 25.3806 31.4554 25.4098 31.4087 25.4331C31.362 25.4623 31.3153 25.4857 31.2627 25.5091C31.1926 25.5499 31.1226 25.585 31.0525 25.62C30.959 25.6667 30.8598 25.7135 30.7663 25.7602C30.6729 25.8011 30.5736 25.8478 30.4743 25.8887C30.3926 25.9237 30.3108 25.9587 30.2232 25.9938C30.1356 26.0288 30.0363 26.0639 29.9429 26.0989C29.9137 26.1106 29.8845 26.1222 29.8611 26.1339C29.8319 26.1398 29.8027 26.1515 29.7735 26.1573C29.756 26.169 29.7385 26.1748 29.7151 26.1807C29.6976 26.1865 29.6859 26.1923 29.6684 26.1982C29.6509 26.204 29.6334 26.2099 29.6217 26.2157C29.5866 26.2274 29.5574 26.2332 29.5224 26.2449C29.5107 26.2507 29.4991 26.2566 29.4874 26.2566C29.4874 26.2624 29.4757 26.2624 29.4757 26.2624C29.464 26.2683 29.4523 26.2683 29.4348 26.2741C29.3414 26.3033 29.2421 26.3325 29.1428 26.3617C29.0669 26.3792 28.991 26.4026 28.9151 26.4259H28.9034C28.9034 26.4259 28.8683 26.4318 28.8508 26.4376C28.845 26.4376 28.8333 26.4434 28.8274 26.4434C28.8216 26.4434 28.8158 26.4493 28.8099 26.4493C28.7632 26.461 28.7223 26.4668 28.6814 26.4785C28.6347 26.4902 28.5939 26.5018 28.5471 26.5077C28.5296 26.5135 28.5063 26.5194 28.4829 26.5252C28.3836 26.5427 28.2843 26.5602 28.1851 26.5836C28.0975 26.6011 28.004 26.6128 27.9106 26.6303C27.8931 26.6303 27.8755 26.6303 27.858 26.6303C27.8405 26.6362 27.823 26.6362 27.8055 26.642C27.7763 26.642 27.7529 26.6478 27.7237 26.6537C27.7062 26.6595 27.6828 26.6595 27.6595 26.6595C27.6303 26.6654 27.6069 26.6712 27.5777 26.6712C27.5602 26.6712 27.5427 26.677 27.5251 26.677C27.5018 26.6829 27.4726 26.6829 27.4492 26.6887C27.42 26.6887 27.3908 26.6946 27.3675 26.6946C27.3091 26.7004 27.2507 26.7121 27.1923 26.7121C27.1397 26.7179 27.093 26.7238 27.0463 26.7296C26.9995 26.7296 26.9528 26.7354 26.9061 26.7354C26.8886 26.7354 26.8652 26.7354 26.8419 26.7354C26.7951 26.7413 26.7484 26.7413 26.6959 26.7413C26.655 26.7471 26.6141 26.7471 26.5732 26.7471C26.5323 26.753 26.4915 26.753 26.4506 26.753C26.4039 26.753 26.3571 26.753 26.3104 26.7588H26.0243C25.9775 26.753 25.9308 26.753 25.8841 26.753C25.8082 26.753 25.7323 26.7471 25.6563 26.7413H25.6038C25.5395 26.7413 25.4753 26.7354 25.4169 26.7296H25.3351C25.2417 26.7179 25.1541 26.7062 25.0607 26.7004H25.0315C25.0315 26.7004 25.0081 26.7004 24.9964 26.7004C24.9789 26.7004 24.9555 26.6946 24.938 26.6946C24.8913 26.6887 24.8504 26.6829 24.8095 26.677H24.8037C24.757 26.6712 24.7103 26.6654 24.6635 26.6595C24.6519 26.6595 24.646 26.6537 24.6343 26.6537C24.5993 26.6478 24.5701 26.642 24.5351 26.642C24.4299 26.6245 24.3248 26.607 24.2197 26.5894C24.1555 26.5778 24.0912 26.5661 24.027 26.5544C24.0211 26.5486 24.0153 26.5486 24.0095 26.5486C23.9744 26.5427 23.9394 26.5369 23.9102 26.5252C23.8751 26.5252 23.8401 26.5135 23.8051 26.5019C23.6824 26.4785 23.5656 26.4493 23.4488 26.4201C23.3379 26.3909 23.2211 26.3617 23.1101 26.3267C23.0225 26.3033 22.9407 26.2741 22.859 26.2507C22.7714 26.2215 22.6896 26.1982 22.6079 26.169C22.5495 26.1456 22.4852 26.1281 22.4327 26.1047C22.3509 26.0755 22.2691 26.0463 22.1932 26.0113C22.1699 26.0113 22.1465 25.9996 22.129 25.9879C22.1173 25.9821 22.1115 25.9821 22.1056 25.9821C22.0998 25.9763 22.094 25.9762 22.0881 25.9762C22.0706 25.9646 22.0472 25.9587 22.0297 25.9471C22.0122 25.9412 21.9888 25.9354 21.9713 25.9237C21.8954 25.8945 21.8253 25.8653 21.7552 25.8303C21.6735 25.7952 21.5859 25.7543 21.4983 25.7193L21.4632 25.7018C21.4632 25.7018 21.4399 25.6901 21.434 25.6843C21.4282 25.6843 21.4223 25.6843 21.4223 25.6843C21.399 25.6726 21.3698 25.6609 21.3464 25.6492C21.3114 25.6317 21.2822 25.62 21.2472 25.6025H21.2413C21.1829 25.5733 21.1245 25.5441 21.0661 25.5091C20.996 25.474 20.926 25.439 20.8617 25.3981C20.7916 25.3631 20.7216 25.3222 20.6573 25.2871C20.5872 25.2463 20.523 25.2054 20.4529 25.1645C20.4004 25.1353 20.3478 25.1003 20.2894 25.0652C20.2485 25.036 20.2018 25.0068 20.1551 24.9776C20.1259 24.9601 20.0967 24.9367 20.0616 24.9134C19.9974 24.8725 19.9332 24.8258 19.8689 24.7849C19.7346 24.6856 19.6003 24.5922 19.4718 24.4871C19.4192 24.4462 19.3667 24.4053 19.3141 24.3644C19.2557 24.3177 19.1973 24.271 19.1389 24.2243C19.1389 24.2184 19.1331 24.2184 19.1331 24.2184H19.1272C19.0163 24.1191 18.9053 24.0199 18.7944 23.9264C18.7827 23.9089 18.7652 23.8972 18.7476 23.8797C18.6484 23.7921 18.5491 23.6987 18.4556 23.5994C18.444 23.5935 18.4323 23.5819 18.4206 23.5702L18.368 23.5118C18.2688 23.4125 18.1695 23.3132 18.076 23.2081C18.0585 23.1906 18.041 23.1731 18.0235 23.1555C17.9884 23.1147 17.9476 23.0738 17.9125 23.0271C17.8775 22.992 17.8424 22.9511 17.8074 22.9103C17.7957 22.8986 17.7899 22.8869 17.7782 22.8811C17.749 22.8402 17.7198 22.8051 17.6848 22.7701C17.6789 22.7584 17.6672 22.7467 17.6614 22.7351C17.5446 22.5949 17.4336 22.4547 17.3285 22.3087C17.2643 22.227 17.2059 22.1394 17.1475 22.0576C17.0891 21.97 17.0307 21.8883 16.9723 21.8007C16.9139 21.7131 16.8613 21.6255 16.8088 21.5379C16.762 21.4678 16.7212 21.3977 16.6803 21.3276C16.6452 21.2751 16.616 21.2167 16.5868 21.1641C16.5576 21.1115 16.5226 21.0531 16.4934 21.0006C16.4467 20.9071 16.4 20.8137 16.3474 20.7203C16.2598 20.5451 16.1722 20.3582 16.0963 20.1713C16.0671 20.1129 16.0379 20.0487 16.0145 19.9903C15.9912 19.9319 15.962 19.8676 15.9386 19.8092C15.9386 19.8034 15.9328 19.7917 15.9328 19.7859C15.8685 19.6282 15.8101 19.4647 15.7517 19.3011C15.7517 19.3011 15.7459 19.2836 15.7459 19.2719C15.7108 19.1727 15.6816 19.0734 15.6524 18.9741C15.6524 18.9624 15.6408 18.9508 15.6408 18.9391C15.6174 18.869 15.5999 18.7989 15.5765 18.7288C15.5707 18.7113 15.5648 18.688 15.559 18.6646C15.5356 18.5828 15.5181 18.4894 15.4948 18.4018C15.4889 18.3784 15.4831 18.3551 15.4772 18.3317C15.4539 18.2383 15.4305 18.139 15.413 18.0456C15.4072 18.028 15.4072 18.0105 15.4013 17.993C15.3896 17.9521 15.3838 17.9054 15.378 17.8587C15.3721 17.8353 15.3663 17.8061 15.3604 17.7769C15.3604 17.7594 15.3604 17.7419 15.3488 17.7302C15.3312 17.6134 15.3079 17.5024 15.2962 17.3856C15.2845 17.3156 15.2728 17.2455 15.267 17.1754C15.2612 17.1287 15.2553 17.082 15.2495 17.0411C15.2436 16.9652 15.232 16.8951 15.2261 16.8192C15.2203 16.7783 15.2203 16.7374 15.2144 16.6965C15.2144 16.6556 15.2144 16.6148 15.2028 16.5739C15.2028 16.533 15.2028 16.498 15.1969 16.4571C15.1969 16.422 15.1911 16.3812 15.1911 16.3461V16.3344C15.1852 16.2468 15.1852 16.1534 15.1794 16.06V5.67647H19.4893V11.1777H19.4952V17.1345C19.4952 17.666 19.7112 18.1507 20.0558 18.4952C20.1025 18.542 20.1492 18.5828 20.2018 18.6296C20.2544 18.6704 20.3069 18.7113 20.3712 18.7463C20.5931 18.8982 20.8617 19.0033 21.142 19.0383C21.1771 19.05 21.2121 19.05 21.2472 19.0559C21.3056 19.0617 21.3581 19.0617 21.4223 19.0617H22.6137C22.6896 19.0675 22.7714 19.0734 22.8531 19.0734C24.1963 19.0617 25.5454 19.0617 26.8886 19.0617C27.3091 19.0617 27.7295 19.0676 28.15 19.0676H29.7969C30.7897 19.0617 31.543 18.4544 31.7416 17.4908C32.0044 16.2118 32.2555 14.927 32.5125 13.648L32.6176 13.1049C32.6877 12.7604 32.7636 12.4158 32.8337 12.0712C32.8454 12.0128 32.8512 11.9544 32.8512 11.896C32.8512 11.7267 32.8045 11.5515 32.6877 11.423C32.53 11.2478 32.3022 11.1777 32.0278 11.1719H30.9999C29.791 11.1777 28.5939 11.1719 27.3908 11.1719H25.8374C25.5454 11.1719 25.2534 11.1719 24.9614 11.1777C24.4241 11.1719 23.8868 11.1777 23.3495 11.1777C22.7305 11.1719 22.1173 11.1777 21.4983 11.1777C21.4808 11.1777 21.4691 11.1777 21.4516 11.1719L20.377 11.1777V6.45318C20.4646 6.39478 20.558 6.33638 20.6515 6.28966C20.9026 6.13198 21.1654 5.99766 21.4282 5.86918C21.434 5.86918 21.4457 5.86918 21.4516 5.8575C21.5859 5.79326 21.7202 5.72902 21.8603 5.67647C22.4852 5.40783 23.1451 5.19175 23.8226 5.03991C23.9394 5.01655 24.0562 4.99319 24.1788 4.96983C24.2372 4.95815 24.2956 4.94647 24.354 4.94063C24.4533 4.92311 24.5467 4.90559 24.646 4.89391C24.7979 4.87055 24.9497 4.85303 25.1015 4.83551L25.3468 4.81799H25.376C25.4169 4.81215 25.4519 4.80631 25.4928 4.80631C25.5337 4.80631 25.5687 4.80047 25.6096 4.80047H25.6271C25.6739 4.80047 25.7147 4.79463 25.7556 4.79463C25.8082 4.79463 25.8549 4.79463 25.9075 4.78879C26.0009 4.78295 26.1586 4.78295 26.252 4.78295C26.2871 4.78295 26.3221 4.78879 26.363 4.78879C26.4097 4.78879 26.4623 4.78879 26.509 4.79463H26.6725C26.7367 4.80047 26.801 4.80047 26.8652 4.80631H26.8769C26.9119 4.80631 26.947 4.80631 26.982 4.80631C26.9937 4.81215 27.0054 4.81215 27.0171 4.81215H27.0346C27.1047 4.81799 27.1747 4.82383 27.2507 4.82967C27.2857 4.83551 27.3149 4.84135 27.3499 4.84135C27.3791 4.84719 27.4083 4.84719 27.4375 4.85303C27.4843 4.85303 27.531 4.86471 27.5719 4.87055C27.6069 4.87055 27.6361 4.87055 27.6653 4.88223H27.6828C27.6828 4.88223 27.7003 4.88223 27.712 4.88807C27.7354 4.88807 27.7587 4.89391 27.7763 4.89391C27.7996 4.89975 27.823 4.89975 27.8463 4.90559C27.9281 4.91727 28.004 4.92895 28.0799 4.94647C28.0975 4.94647 28.115 4.94647 28.1325 4.94647C28.2201 4.96399 28.3019 4.98151 28.3895 4.99903C28.407 4.99903 28.4245 5.00487 28.4479 5.01071C28.4595 5.01071 28.4712 5.01071 28.4829 5.01071C28.5939 5.03407 28.7107 5.06327 28.8216 5.09247C28.8567 5.09831 28.8917 5.10999 28.9267 5.11583C28.9501 5.11583 28.9793 5.12751 29.0027 5.13335C29.0611 5.15087 29.1194 5.16839 29.1837 5.18591C29.3589 5.23847 29.5282 5.28519 29.6976 5.34359C29.7502 5.36111 29.8027 5.38447 29.8553 5.40199C29.8903 5.41367 29.9195 5.42535 29.9546 5.43703C30.0188 5.46039 30.0772 5.48375 30.1414 5.50711C30.2582 5.55383 30.375 5.60055 30.4918 5.65311C30.6028 5.69982 30.7138 5.74654 30.8189 5.79326C30.8247 5.7991 30.8364 5.80494 30.8422 5.80494C30.8948 5.8283 30.9474 5.8575 30.9999 5.88086C31.0583 5.91006 31.1167 5.93926 31.1751 5.96846C31.2861 6.02686 31.3912 6.07942 31.4963 6.14366C31.5664 6.1787 31.6365 6.21958 31.7007 6.26046C31.7591 6.28966 31.8175 6.3247 31.8701 6.35974L32.0978 6.4999C32.0978 6.4999 32.1329 6.52326 32.1504 6.53494C32.1504 6.53494 32.1738 6.55246 32.1854 6.56414C32.2497 6.59918 32.3139 6.6459 32.3782 6.68678H32.384C32.4132 6.71014 32.4424 6.72766 32.4716 6.75102C32.53 6.7919 32.5826 6.82694 32.641 6.86782C32.6468 6.87366 32.6585 6.88534 32.6702 6.89118C32.711 6.92038 32.7578 6.95542 32.8045 6.99046C32.8337 7.01382 32.8687 7.04302 32.9038 7.06638C32.9213 7.0839 32.933 7.09558 32.9505 7.10726C32.9972 7.13646 33.0381 7.1715 33.0848 7.21238C33.1082 7.2299 33.1374 7.25326 33.1607 7.27078C33.1958 7.30582 33.2366 7.33502 33.2775 7.37006C33.295 7.38758 33.3184 7.4051 33.3418 7.42262C33.3593 7.44014 33.3826 7.45766 33.4002 7.47518C33.441 7.51022 33.4761 7.54526 33.5111 7.5803C33.5462 7.60366 33.5754 7.63286 33.6104 7.66206C33.6396 7.69126 33.6746 7.72046 33.7038 7.74966L33.7214 7.76718C33.7214 7.76718 33.7389 7.79054 33.7506 7.79638C33.8148 7.86062 33.879 7.91902 33.9374 7.98326L33.9725 8.0183C34.0426 8.08254 34.101 8.14678 34.171 8.21686C34.1886 8.23438 34.2002 8.2519 34.2178 8.26942C34.2762 8.33366 34.3346 8.3979 34.3871 8.4563H34.393C34.4397 8.5147 34.4864 8.5731 34.5331 8.62566C34.5623 8.65486 34.5857 8.68406 34.6149 8.7191C34.6207 8.73078 34.6324 8.74246 34.6441 8.75414C34.7258 8.85342 34.8076 8.9527 34.8835 9.05782C34.9594 9.15126 35.0295 9.2447 35.0996 9.34398C35.1113 9.3615 35.1171 9.37317 35.1288 9.39069C35.1989 9.48413 35.2573 9.57173 35.3215 9.66517C35.339 9.69437 35.3624 9.72941 35.3799 9.75861C35.4442 9.85789 35.5084 9.95133 35.5668 10.0565C35.6427 10.1791 35.7128 10.3017 35.7887 10.4302C35.8004 10.4536 35.8179 10.4828 35.8296 10.512C35.888 10.6171 35.9464 10.7222 35.999 10.8273C36.0223 10.8799 36.0515 10.9325 36.0749 10.9909C36.0982 11.0434 36.1274 11.096 36.1508 11.1485C36.1975 11.2536 36.2501 11.3646 36.2968 11.4756C36.3318 11.5573 36.361 11.6391 36.3961 11.7208C36.4311 11.8026 36.4603 11.8902 36.4953 11.972C36.5246 12.0596 36.5538 12.1413 36.583 12.2289C36.6414 12.3983 36.6939 12.5735 36.7406 12.7428C36.7698 12.8304 36.7873 12.918 36.8107 13.0056C36.8341 13.0874 36.8516 13.1633 36.8691 13.2451C36.91 13.4028 36.9392 13.5604 36.9684 13.724C36.9859 13.794 36.9976 13.8641 37.0093 13.9342V13.9576C37.021 14.0276 37.0326 14.0977 37.0443 14.162C37.056 14.2379 37.0677 14.3138 37.0735 14.3897C37.091 14.5124 37.1027 14.635 37.1144 14.7635C37.1261 14.8628 37.1319 14.962 37.1377 15.0672C37.1436 15.1372 37.1494 15.2132 37.1494 15.2949C37.1494 15.3533 37.1553 15.4176 37.1553 15.4818C37.1553 15.5694 37.1611 15.6628 37.1611 15.7504C37.1611 15.8439 37.1553 15.9373 37.1553 16.0308V16.0541ZM42.3295 14.1094H58.734L59.5399 14.8277L58.3719 15.8789H42.3295V14.1094ZM53.7992 19.9961H46.1372C45.4072 19.9961 44.794 19.9377 44.3034 19.8151C43.8187 19.6924 43.4274 19.4997 43.1354 19.2311C42.8376 18.9624 42.6332 18.6062 42.5105 18.174C42.5047 18.1507 42.4989 18.1332 42.493 18.1098H55.8958L53.7992 19.9961ZM56.9061 19.9961L58.9326 18.1098L61.0058 16.1768L63.0906 18.1098L65.123 19.9961H56.9061ZM81.0778 14.0919C81.0778 14.6876 81.0194 15.184 80.9026 15.5752C80.7858 15.9665 80.5814 16.276 80.2952 16.5096C80.0032 16.7432 79.6236 16.9068 79.1448 17.0002C78.6659 17.0936 78.0585 17.1404 77.3285 17.1404H71.5528V19.9961H68.3641L66.3202 18.1098L63.9082 15.8789L62.7519 14.8102L63.5462 14.1094L66.0106 11.9252L68.1831 10.0039H77.3285C78.041 10.0039 78.6367 10.0623 79.1156 10.1733C79.5944 10.2842 79.9799 10.4711 80.2719 10.7339C80.5639 10.9909 80.7741 11.3237 80.8968 11.7325C81.0136 12.1472 81.0778 12.6436 81.0778 13.2276V14.0919ZM90.5094 19.9961L84.6694 16.3636V19.9961H82.456V10.0039H90.2758C90.9824 10.0039 91.5839 10.0506 92.0803 10.1382C92.5767 10.2258 92.9855 10.3835 93.3009 10.6054C93.6221 10.8332 93.8498 11.1369 94.0017 11.5281C94.1477 11.9194 94.2178 12.4158 94.2178 13.0115V13.7006C94.2178 14.2729 94.1418 14.7518 93.9842 15.1256C93.8265 15.5052 93.587 15.803 93.26 16.0191C92.933 16.241 92.5183 16.3928 92.0219 16.4804C91.5255 16.568 90.9298 16.6148 90.2466 16.6148H88.4887L94.3521 19.9961H90.5094ZM106.307 11.9194L99.3336 11.896C99.0065 11.896 98.7437 11.9252 98.5393 11.9778C98.3349 12.0304 98.1714 12.118 98.0488 12.2348C97.9261 12.3516 97.8444 12.5092 97.8035 12.702C97.7568 12.8947 97.7334 13.14 97.7334 13.432V14.1094H106.248V15.8789H97.7334V16.5856C97.7334 16.8892 97.7568 17.1345 97.8035 17.3331C97.8444 17.5258 97.9262 17.6835 98.043 17.8003C98.1598 17.9171 98.3233 17.9988 98.5335 18.0397C98.7438 18.0864 99.0065 18.1098 99.3336 18.1098H106.307V19.9961H99.3336C98.5977 19.9961 97.9904 19.9377 97.4998 19.8151C97.0093 19.6924 96.6238 19.4997 96.326 19.2311C96.034 18.9624 95.8296 18.6062 95.707 18.174C95.5843 17.7419 95.5201 17.2046 95.5201 16.568V13.432C95.5201 12.8071 95.5843 12.2756 95.707 11.8376C95.8296 11.3996 96.034 11.0434 96.326 10.7748C96.6238 10.5061 97.0093 10.3134 97.4998 10.1908C97.9904 10.0681 98.5977 10.0039 99.3336 10.0039H106.307V11.9194ZM118.203 11.8844L110.494 11.896C110.155 11.896 109.904 11.9603 109.74 12.0946C109.577 12.2231 109.501 12.4917 109.501 12.8947V13.2159C109.501 13.5254 109.571 13.7473 109.717 13.8816C109.863 14.0101 110.12 14.0802 110.482 14.0802H115.154C115.709 14.0802 116.182 14.1269 116.567 14.2204C116.953 14.3138 117.268 14.4598 117.513 14.6642C117.759 14.8686 117.934 15.1314 118.039 15.4584C118.15 15.7796 118.203 16.1651 118.203 16.6148V17.4032C118.203 17.8762 118.15 18.2733 118.039 18.6004C117.934 18.9274 117.759 19.1902 117.513 19.3946C117.268 19.6048 116.953 19.7508 116.567 19.8501C116.182 19.9494 115.709 19.9961 115.154 19.9961H107.445V18.1098H115.037C115.434 18.1098 115.726 18.0514 115.902 17.9404C116.077 17.8295 116.164 17.6017 116.164 17.2572V16.714C116.164 16.4045 116.077 16.1826 115.902 16.0483C115.726 15.9198 115.44 15.8497 115.049 15.8497H110.289C109.735 15.8497 109.273 15.803 108.905 15.6979C108.537 15.5928 108.251 15.4409 108.035 15.2307C107.819 15.0204 107.667 14.7576 107.585 14.4364C107.504 14.1211 107.463 13.7473 107.463 13.3152V12.8188C107.463 12.3107 107.515 11.8785 107.626 11.5164C107.731 11.1544 107.895 10.8624 108.123 10.6463C108.345 10.4244 108.637 10.2609 108.999 10.1616C109.361 10.0565 109.793 10.0039 110.289 10.0039H118.203V11.8844ZM130.052 11.8844L122.349 11.896C122.004 11.896 121.753 11.9603 121.59 12.0946C121.432 12.2231 121.35 12.4917 121.35 12.8947V13.2159C121.35 13.5254 121.426 13.7473 121.572 13.8816C121.718 14.0101 121.969 14.0802 122.331 14.0802H127.003C127.564 14.0802 128.031 14.1269 128.417 14.2204C128.808 14.3138 129.118 14.4598 129.363 14.6642C129.608 14.8686 129.783 15.1314 129.894 15.4584C129.999 15.7796 130.052 16.1651 130.052 16.6148V17.4032C130.052 17.8762 129.999 18.2733 129.894 18.6004C129.783 18.9274 129.608 19.1902 129.363 19.3946C129.118 19.6048 128.808 19.7508 128.417 19.8501C128.031 19.9494 127.564 19.9961 127.003 19.9961H119.3V18.1098H126.887C127.29 18.1098 127.576 18.0514 127.751 17.9404C127.926 17.8295 128.014 17.6017 128.014 17.2572V16.714C128.014 16.4045 127.926 16.1826 127.751 16.0483C127.576 15.9198 127.295 15.8497 126.904 15.8497H122.139C121.584 15.8497 121.123 15.803 120.755 15.6979C120.393 15.5928 120.101 15.4409 119.884 15.2307C119.668 15.0204 119.522 14.7576 119.441 14.4364C119.353 14.1211 119.312 13.7473 119.312 13.3152V12.8188C119.312 12.3107 119.365 11.8785 119.476 11.5164C119.581 11.1544 119.75 10.8624 119.972 10.6463C120.2 10.4244 120.492 10.2609 120.854 10.1616C121.216 10.0565 121.642 10.0039 122.139 10.0039H130.052V11.8844Z" fill="#E53420"/>
<path d="M11.7705 29.9996H2.48489C1.10665 29.9996 0.166414 28.6038 0.686172 27.3249L1.81329 24.5451L5.6852 15.0025L11.7705 29.9996Z" fill="#F29A90"/>
<path d="M11.7705 0L5.6852 14.9971L1.78993 5.39615L0.686172 2.67471C0.166414 1.39576 1.10665 0 2.48489 0H11.7705Z" fill="#F29A90"/>
<path d="M19.4901 3.2292H13.5566V4.6892H19.4901V3.2292Z" fill="white"/>
<path d="M37.1614 15.7737C37.1614 15.8671 37.1556 15.9606 37.1556 16.054C37.1556 16.1241 37.1497 16.1942 37.1497 16.2642C37.1439 16.3285 37.1439 16.3869 37.138 16.4453C37.1322 16.527 37.1263 16.6088 37.1205 16.6964C37.1088 16.8307 37.0971 16.965 37.0796 17.0994C37.0796 17.1753 37.0621 17.2454 37.0504 17.3154C37.0387 17.3914 37.0329 17.4614 37.0212 17.5315L36.9862 17.7418C36.9862 17.7418 36.9803 17.771 36.9745 17.7885C36.9628 17.8586 36.9511 17.9286 36.9336 17.9929C36.9336 18.0162 36.9336 18.0454 36.9219 18.0688C36.9161 18.0922 36.9103 18.1155 36.9044 18.1447C36.8927 18.1856 36.8811 18.2323 36.8752 18.279C36.8694 18.279 36.8694 18.2849 36.8694 18.2849C36.8694 18.2966 36.8636 18.3141 36.8636 18.3258C36.8577 18.3316 36.8577 18.3374 36.8577 18.3433C36.8519 18.355 36.8519 18.3666 36.8519 18.3783C36.8344 18.4484 36.811 18.5243 36.7935 18.5944C36.7935 18.6061 36.7876 18.6119 36.7876 18.6178C36.7643 18.7054 36.7409 18.793 36.7117 18.8806C36.7059 18.9214 36.6942 18.9506 36.6825 18.974C36.665 19.0382 36.6475 19.0966 36.6241 19.155C36.6124 19.2018 36.6008 19.2485 36.5832 19.2894C36.5716 19.3361 36.554 19.377 36.5365 19.4237V19.4354C36.5073 19.5054 36.4839 19.5697 36.4606 19.6398C36.4548 19.6573 36.4489 19.669 36.4431 19.6865C36.4372 19.6982 36.4372 19.7098 36.4314 19.7215C36.4022 19.7858 36.3788 19.85 36.3555 19.9142C36.3496 19.9142 36.3438 19.9318 36.338 19.9434C36.3088 20.031 36.2737 20.1128 36.2328 20.2004C36.192 20.2822 36.1569 20.3698 36.116 20.4515C36.1044 20.4866 36.0868 20.5158 36.0693 20.5508C36.046 20.6034 36.0226 20.6501 35.9992 20.7026C35.9759 20.7435 35.9584 20.7844 35.935 20.8253C35.9116 20.8662 35.8941 20.9012 35.8708 20.9421C35.824 21.0238 35.7773 21.1056 35.7364 21.1874C35.5554 21.5086 35.3568 21.8181 35.1466 22.1159C35.0882 22.2035 35.024 22.2853 34.9597 22.3729C34.9188 22.4254 34.8838 22.4721 34.8429 22.5189C34.7612 22.6298 34.6736 22.7408 34.5801 22.8459C34.5626 22.8693 34.5451 22.8926 34.5276 22.9101C34.475 22.9685 34.4283 23.0269 34.3816 23.0795C34.3582 23.1087 34.329 23.1379 34.3056 23.1671C34.3056 23.1671 34.294 23.1788 34.2881 23.1788C34.2064 23.2722 34.1188 23.3598 34.037 23.4474C34.0136 23.4649 33.9961 23.4883 33.9786 23.5C33.9027 23.5817 33.8268 23.6577 33.7508 23.7277L33.7333 23.7453C33.7333 23.7453 33.7158 23.7569 33.7158 23.7628C33.6632 23.8153 33.6107 23.8621 33.5581 23.9088C33.5172 23.9497 33.4764 23.9847 33.4355 24.0197C33.3829 24.0665 33.3245 24.1132 33.2661 24.1657C33.2428 24.1833 33.2252 24.2008 33.2019 24.2183C33.1493 24.265 33.0909 24.3059 33.0384 24.3526C33.0267 24.3585 33.0208 24.3701 33.0092 24.376C32.9916 24.3877 32.9741 24.4052 32.9624 24.4169C32.9566 24.4169 32.9508 24.4227 32.9449 24.4285C32.9391 24.4344 32.9332 24.4344 32.9274 24.4402L32.9099 24.4577C32.8748 24.4753 32.8515 24.4986 32.8223 24.522C32.6996 24.6154 32.577 24.703 32.4485 24.7906C32.4018 24.8257 32.3551 24.8549 32.3084 24.8899C32.2383 24.9366 32.1682 24.9833 32.0981 25.0301C32.028 25.0709 31.9521 25.1177 31.882 25.1644C31.8587 25.1761 31.8353 25.1936 31.812 25.2053C31.7302 25.2578 31.6426 25.3045 31.555 25.3513C31.5083 25.3805 31.4557 25.4097 31.409 25.433C31.3623 25.4622 31.3156 25.4856 31.263 25.5089C31.1929 25.5498 31.1228 25.5849 31.0528 25.6199C30.9593 25.6666 30.86 25.7133 30.7666 25.7601C30.6732 25.8009 30.5739 25.8477 30.4746 25.8885C30.3928 25.9236 30.3111 25.9586 30.2235 25.9937C30.1359 26.0287 30.0366 26.0637 29.9432 26.0988C29.914 26.1105 29.8848 26.1221 29.8614 26.1338C29.8322 26.1397 29.803 26.1513 29.7738 26.1572C29.7563 26.1689 29.7388 26.1747 29.7154 26.1805C29.6979 26.1864 29.6862 26.1922 29.6687 26.1981C29.6512 26.2039 29.6336 26.2097 29.622 26.2156C29.5869 26.2273 29.5577 26.2331 29.5227 26.2448C29.511 26.2506 29.4993 26.2565 29.4876 26.2565C29.4876 26.2623 29.476 26.2623 29.476 26.2623C29.4643 26.2681 29.4526 26.2681 29.4351 26.274C29.3417 26.3032 29.2424 26.3324 29.1431 26.3616C29.0672 26.3791 28.9913 26.4025 28.9153 26.4258H28.9037C28.9037 26.4258 28.8686 26.4317 28.8511 26.4375C28.8453 26.4375 28.8336 26.4433 28.8277 26.4433C28.8219 26.4433 28.8161 26.4492 28.8102 26.4492C28.7635 26.4609 28.7226 26.4667 28.6817 26.4784C28.635 26.4901 28.5941 26.5017 28.5474 26.5076C28.5299 26.5134 28.5065 26.5193 28.4832 26.5251C28.3839 26.5426 28.2846 26.5601 28.1853 26.5835C28.0977 26.601 28.0043 26.6127 27.9109 26.6302C27.8933 26.6302 27.8758 26.6302 27.8583 26.6302C27.8408 26.6361 27.8233 26.6361 27.8057 26.6419C27.7765 26.6419 27.7532 26.6477 27.724 26.6536C27.7065 26.6594 27.6831 26.6594 27.6597 26.6594C27.6305 26.6653 27.6072 26.6711 27.578 26.6711C27.5605 26.6711 27.5429 26.6769 27.5254 26.6769C27.5021 26.6828 27.4729 26.6828 27.4495 26.6886C27.4203 26.6886 27.3911 26.6945 27.3677 26.6945C27.3093 26.7003 27.2509 26.712 27.1925 26.712C27.14 26.7178 27.0933 26.7237 27.0465 26.7295C26.9998 26.7295 26.9531 26.7353 26.9064 26.7353C26.8889 26.7353 26.8655 26.7353 26.8421 26.7353C26.7954 26.7412 26.7487 26.7412 26.6961 26.7412C26.6553 26.747 26.6144 26.747 26.5735 26.747C26.5326 26.7529 26.4917 26.7529 26.4509 26.7529C26.4041 26.7529 26.3574 26.7529 26.3107 26.7587H26.0245C25.9778 26.7529 25.9311 26.7529 25.8844 26.7529C25.8085 26.7529 25.7325 26.747 25.6566 26.7412H25.6041C25.5398 26.7412 25.4756 26.7353 25.4172 26.7295H25.3354C25.242 26.7178 25.1544 26.7061 25.0609 26.7003H25.0317C25.0317 26.7003 25.0084 26.7003 24.9967 26.7003C24.9792 26.7003 24.9558 26.6945 24.9383 26.6945C24.8916 26.6886 24.8507 26.6828 24.8098 26.6769H24.804C24.7573 26.6711 24.7105 26.6653 24.6638 26.6594C24.6521 26.6594 24.6463 26.6536 24.6346 26.6536C24.5996 26.6477 24.5704 26.6419 24.5353 26.6419C24.4302 26.6244 24.3251 26.6069 24.22 26.5893C24.1557 26.5777 24.0915 26.566 24.0273 26.5543C24.0214 26.5485 24.0156 26.5485 24.0097 26.5485C23.9747 26.5426 23.9397 26.5368 23.9105 26.5251C23.8754 26.5251 23.8404 26.5134 23.8053 26.5017C23.6827 26.4784 23.5659 26.4492 23.4491 26.42C23.3381 26.3908 23.2213 26.3616 23.1104 26.3265C23.0228 26.3032 22.941 26.274 22.8593 26.2506C22.7717 26.2214 22.6899 26.1981 22.6081 26.1689C22.5497 26.1455 22.4855 26.128 22.4329 26.1046C22.3512 26.0754 22.2694 26.0462 22.1935 26.0112C22.1702 26.0112 22.1468 25.9995 22.1293 25.9878C22.1176 25.982 22.1117 25.982 22.1059 25.982C22.1001 25.9761 22.0942 25.9761 22.0884 25.9761C22.0709 25.9645 22.0475 25.9586 22.03 25.9469C22.0125 25.9411 21.9891 25.9353 21.9716 25.9236C21.8957 25.8944 21.8256 25.8652 21.7555 25.8301C21.6738 25.7951 21.5862 25.7542 21.4986 25.7192L21.4635 25.7017C21.4635 25.7017 21.4402 25.69 21.4343 25.6841C21.4285 25.6841 21.4226 25.6841 21.4226 25.6841C21.3993 25.6725 21.3701 25.6608 21.3467 25.6491C21.3117 25.6316 21.2825 25.6199 21.2474 25.6024H21.2416C21.1832 25.5732 21.1248 25.544 21.0664 25.5089C20.9963 25.4739 20.9262 25.4389 20.862 25.398C20.7919 25.3629 20.7218 25.3221 20.6576 25.287C20.5875 25.2461 20.5233 25.2053 20.4532 25.1644C20.4006 25.1352 20.3481 25.1001 20.2897 25.0651C20.2488 25.0359 20.2021 25.0067 20.1554 24.9775C20.1262 24.96 20.097 24.9366 20.0619 24.9133C19.9977 24.8724 19.9334 24.8257 19.8692 24.7848C19.7349 24.6855 19.6006 24.5921 19.4721 24.4869C19.4195 24.4461 19.367 24.4052 19.3144 24.3643C19.256 24.3176 19.1976 24.2709 19.1392 24.2241C19.1392 24.2183 19.1334 24.2183 19.1334 24.2183H19.1275C19.0166 24.119 18.9056 24.0197 18.7946 23.9263C18.783 23.9088 18.7654 23.8971 18.7479 23.8796C18.6486 23.792 18.5494 23.6985 18.4559 23.5993C18.4442 23.5934 18.4326 23.5817 18.4209 23.5701L18.3683 23.5117C18.269 23.4124 18.1698 23.3131 18.0763 23.208C18.0588 23.1905 18.0413 23.1729 18.0238 23.1554C17.9887 23.1145 17.9478 23.0737 17.9128 23.0269C17.8778 22.9919 17.8427 22.951 17.8077 22.9101C17.796 22.8985 17.7902 22.8868 17.7785 22.8809C17.7493 22.8401 17.7201 22.805 17.685 22.77C17.6792 22.7583 17.6675 22.7466 17.6617 22.7349C17.5449 22.5948 17.4339 22.4546 17.3288 22.3086C17.2646 22.2269 17.2062 22.1393 17.1478 22.0575C17.0894 21.9699 17.031 21.8882 16.9726 21.8006C16.9142 21.713 16.8616 21.6254 16.809 21.5378C16.7623 21.4677 16.7214 21.3976 16.6806 21.3275C16.6455 21.275 16.6163 21.2166 16.5871 21.164C16.5579 21.1114 16.5229 21.053 16.4937 21.0005C16.447 20.907 16.4002 20.8136 16.3477 20.7202C16.2601 20.545 16.1725 20.3581 16.0966 20.1712C16.0674 20.1128 16.0382 20.0486 16.0148 19.9902C15.9914 19.9318 15.9622 19.8675 15.9389 19.8091C15.9389 19.8033 15.933 19.7916 15.933 19.7858C15.8688 19.6281 15.8104 19.4646 15.752 19.301C15.752 19.301 15.7462 19.2835 15.7462 19.2718C15.7111 19.1726 15.6819 19.0733 15.6527 18.974C15.6527 18.9623 15.641 18.9506 15.641 18.939C15.6177 18.8689 15.6002 18.7988 15.5768 18.7287C15.571 18.7112 15.5651 18.6878 15.5593 18.6645C15.5359 18.5827 15.5184 18.4893 15.495 18.4017C15.4892 18.3783 15.4834 18.355 15.4775 18.3316C15.4542 18.2382 15.4308 18.1389 15.4133 18.0454C15.4074 18.0279 15.4074 18.0104 15.4016 17.9929C15.3899 17.952 15.3841 17.9053 15.3782 17.8586C15.3724 17.8352 15.3666 17.806 15.3607 17.7768C15.3607 17.7593 15.3607 17.7418 15.349 17.7301C15.3315 17.6133 15.3082 17.5023 15.2965 17.3855C15.2848 17.3154 15.2731 17.2454 15.2673 17.1753C15.2614 17.1286 15.2556 17.0818 15.2498 17.041C15.2439 16.965 15.2322 16.895 15.2264 16.819C15.2206 16.7782 15.2206 16.7373 15.2147 16.6964C15.2147 16.6555 15.2147 16.6146 15.203 16.5738C15.203 16.5329 15.203 16.4978 15.1972 16.457C15.1972 16.4219 15.1914 16.381 15.1914 16.346V16.3343C15.1855 16.2467 15.1855 16.1533 15.1797 16.0598V5.67635H19.4896V11.1776H19.4954V17.1344C19.4954 17.6658 19.7115 18.1506 20.0561 18.4951C20.1028 18.5418 20.1495 18.5827 20.2021 18.6294C20.2546 18.6703 20.3072 18.7112 20.3714 18.7462C20.5934 18.8981 20.862 19.0032 21.1423 19.0382C21.1774 19.0499 21.2124 19.0499 21.2474 19.0558C21.3058 19.0616 21.3584 19.0616 21.4226 19.0616H22.614C22.6899 19.0674 22.7717 19.0733 22.8534 19.0733C24.1966 19.0616 25.5457 19.0616 26.8889 19.0616C27.3093 19.0616 27.7298 19.0674 28.1503 19.0674H29.7972C30.79 19.0616 31.5433 18.4542 31.7419 17.4906C32.0047 16.2117 32.2558 14.9269 32.5128 13.6479L32.6179 13.1048C32.688 12.7603 32.7639 12.4157 32.834 12.0711C32.8456 12.0127 32.8515 11.9543 32.8515 11.8959C32.8515 11.7266 32.8048 11.5514 32.688 11.4229C32.5303 11.2477 32.3025 11.1776 32.028 11.1718H31.0002C29.7913 11.1776 28.5941 11.1718 27.3911 11.1718H25.8377C25.5457 11.1718 25.2537 11.1718 24.9617 11.1776C24.4244 11.1718 23.8871 11.1776 23.3498 11.1776C22.7308 11.1718 22.1176 11.1776 21.4986 11.1776C21.481 11.1776 21.4694 11.1776 21.4518 11.1718L20.3773 11.1776V6.45307C20.4649 6.39467 20.5583 6.33627 20.6518 6.28955C20.9029 6.13187 21.1657 5.99755 21.4285 5.86907C21.4343 5.86907 21.446 5.86907 21.4518 5.85739C21.5862 5.79315 21.7205 5.72891 21.8606 5.67635C22.4855 5.40772 23.1454 5.19164 23.8229 5.0398C23.9397 5.01644 24.0565 4.99308 24.1791 4.96972C24.2375 4.95804 24.2959 4.94636 24.3543 4.94052C24.4536 4.923 24.547 4.90548 24.6463 4.8938C24.7981 4.87044 24.95 4.85292 25.1018 4.8354L25.3471 4.81788H25.3763C25.4172 4.81204 25.4522 4.8062 25.4931 4.8062C25.534 4.8062 25.569 4.80036 25.6099 4.80036H25.6274C25.6741 4.80036 25.715 4.79452 25.7559 4.79452C25.8085 4.79452 25.8552 4.79452 25.9077 4.78868C26.0012 4.78284 26.1589 4.78284 26.2523 4.78284C26.2873 4.78284 26.3224 4.78868 26.3633 4.78868C26.41 4.78868 26.4625 4.78868 26.5093 4.79452H26.6728C26.737 4.80036 26.8013 4.80036 26.8655 4.8062H26.8772C26.9122 4.8062 26.9473 4.8062 26.9823 4.8062C26.994 4.81204 27.0057 4.81204 27.0173 4.81204H27.0349C27.1049 4.81788 27.175 4.82372 27.2509 4.82956C27.286 4.8354 27.3152 4.84124 27.3502 4.84124C27.3794 4.84708 27.4086 4.84708 27.4378 4.85292C27.4845 4.85292 27.5313 4.8646 27.5721 4.87044C27.6072 4.87044 27.6364 4.87044 27.6656 4.88212H27.6831C27.6831 4.88212 27.7006 4.88212 27.7123 4.88796C27.7357 4.88796 27.759 4.8938 27.7765 4.8938C27.7999 4.89964 27.8233 4.89964 27.8466 4.90548C27.9284 4.91716 28.0043 4.92884 28.0802 4.94636C28.0977 4.94636 28.1153 4.94636 28.1328 4.94636C28.2204 4.96388 28.3021 4.9814 28.3897 4.99892C28.4073 4.99892 28.4248 5.00476 28.4481 5.0106C28.4598 5.0106 28.4715 5.0106 28.4832 5.0106C28.5941 5.03396 28.7109 5.06316 28.8219 5.09236C28.8569 5.0982 28.892 5.10988 28.927 5.11572C28.9504 5.11572 28.9796 5.1274 29.0029 5.13324C29.0613 5.15076 29.1197 5.16828 29.184 5.1858C29.3592 5.23836 29.5285 5.28508 29.6979 5.34348C29.7504 5.361 29.803 5.38436 29.8556 5.40188C29.8906 5.41356 29.9198 5.42524 29.9548 5.43692C30.0191 5.46028 30.0775 5.48364 30.1417 5.507C30.2585 5.55372 30.3753 5.60044 30.4921 5.65299C30.6031 5.69971 30.714 5.74643 30.8192 5.79315C30.825 5.79899 30.8367 5.80483 30.8425 5.80483C30.8951 5.82819 30.9476 5.85739 31.0002 5.88075C31.0586 5.90995 31.117 5.93915 31.1754 5.96835C31.2864 6.02675 31.3915 6.07931 31.4966 6.14355C31.5667 6.17859 31.6368 6.21947 31.701 6.26035C31.7594 6.28955 31.8178 6.32459 31.8704 6.35963L32.0981 6.49979C32.0981 6.49979 32.1332 6.52315 32.1507 6.53483C32.1507 6.53483 32.174 6.55235 32.1857 6.56403C32.25 6.59907 32.3142 6.64579 32.3784 6.68667H32.3843C32.4135 6.71003 32.4427 6.72755 32.4719 6.75091C32.5303 6.79179 32.5828 6.82683 32.6412 6.86771C32.6471 6.87355 32.6588 6.88523 32.6704 6.89107C32.7113 6.92027 32.758 6.95531 32.8048 6.99035C32.834 7.01371 32.869 7.04291 32.904 7.06627C32.9216 7.08379 32.9332 7.09547 32.9508 7.10715C32.9975 7.13635 33.0384 7.17139 33.0851 7.21227C33.1084 7.22979 33.1376 7.25315 33.161 7.27067C33.196 7.30571 33.2369 7.33491 33.2778 7.36995C33.2953 7.38747 33.3187 7.40499 33.342 7.42251C33.3596 7.44003 33.3829 7.45755 33.4004 7.47507C33.4413 7.51011 33.4764 7.54515 33.5114 7.58019C33.5464 7.60355 33.5756 7.63275 33.6107 7.66195C33.6399 7.69115 33.6749 7.72035 33.7041 7.74955L33.7216 7.76707C33.7216 7.76707 33.7392 7.79043 33.7508 7.79627C33.8151 7.86051 33.8793 7.91891 33.9377 7.98315L33.9728 8.01819C34.0428 8.08243 34.1012 8.14667 34.1713 8.21675C34.1888 8.23427 34.2005 8.25179 34.218 8.26931C34.2764 8.33355 34.3348 8.39779 34.3874 8.45619H34.3932C34.44 8.51459 34.4867 8.57299 34.5334 8.62555C34.5626 8.65475 34.586 8.68395 34.6152 8.71899C34.621 8.73067 34.6327 8.74235 34.6444 8.75403C34.7261 8.85331 34.8079 8.95259 34.8838 9.05771C34.9597 9.15114 35.0298 9.24458 35.0999 9.34386C35.1116 9.36138 35.1174 9.37306 35.1291 9.39058C35.1992 9.48402 35.2576 9.57162 35.3218 9.66506C35.3393 9.69426 35.3627 9.7293 35.3802 9.7585C35.4444 9.85778 35.5087 9.95122 35.5671 10.0563C35.643 10.179 35.7131 10.3016 35.789 10.4301C35.8007 10.4535 35.8182 10.4827 35.8299 10.5119C35.8883 10.617 35.9467 10.7221 35.9992 10.8272C36.0226 10.8798 36.0518 10.9323 36.0752 10.9907C36.0985 11.0433 36.1277 11.0959 36.1511 11.1484C36.1978 11.2535 36.2504 11.3645 36.2971 11.4755C36.3321 11.5572 36.3613 11.639 36.3964 11.7207C36.4314 11.8025 36.4606 11.8901 36.4956 11.9719C36.5248 12.0595 36.554 12.1412 36.5832 12.2288C36.6416 12.3982 36.6942 12.5734 36.7409 12.7427C36.7701 12.8303 36.7876 12.9179 36.811 13.0055C36.8344 13.0873 36.8519 13.1632 36.8694 13.245C36.9103 13.4027 36.9395 13.5603 36.9687 13.7239C36.9862 13.7939 36.9979 13.864 37.0096 13.9341V13.9575C37.0212 14.0275 37.0329 14.0976 37.0446 14.1619C37.0563 14.2378 37.0679 14.3137 37.0738 14.3896C37.0913 14.5122 37.103 14.6349 37.1147 14.7634C37.1264 14.8626 37.1322 14.9619 37.138 15.067C37.1439 15.1371 37.1497 15.213 37.1497 15.2948C37.1497 15.3532 37.1556 15.4174 37.1556 15.4817C37.1556 15.5693 37.1614 15.6627 37.1614 15.7503V15.7737Z" fill="white"/>
<path d="M80.8968 11.7325C80.7741 11.3237 80.5639 10.9908 80.2719 10.7338C79.9799 10.471 79.5945 10.2841 79.1156 10.1732C78.6367 10.0622 78.041 10.0038 77.3286 10.0038H68.1831L66.0107 11.9252L63.5462 14.1093L62.752 14.8101L63.9083 15.8788L66.3202 18.1097L68.3642 19.996H71.5528V17.1403H77.3286C78.0586 17.1403 78.6659 17.0936 79.1448 17.0001C79.6237 16.9067 80.0033 16.7432 80.2953 16.5096C80.5814 16.276 80.7858 15.9664 80.9026 15.5752C81.0194 15.1839 81.0778 14.6875 81.0778 14.0918V13.2275C81.0778 12.6435 81.0136 12.1471 80.8968 11.7325ZM78.8528 14.0042C78.8528 14.5356 78.736 14.886 78.5141 15.0671C78.2922 15.2481 77.8834 15.3416 77.2994 15.3416H71.5528V11.9252H77.2702C77.8658 11.9252 78.2746 12.0244 78.5082 12.2172C78.736 12.4157 78.8528 12.7778 78.8528 13.3151V14.0042Z" fill="white"/>
<path d="M78.8527 13.3146V14.0037C78.8527 14.5351 78.7359 14.8855 78.514 15.0666C78.2921 15.2476 77.8833 15.3411 77.2993 15.3411H71.5527V11.9247H77.2701C77.8658 11.9247 78.2746 12.0239 78.5082 12.2167C78.7359 12.4152 78.8527 12.7773 78.8527 13.3146Z" fill="#E53420"/>
<path d="M88.4897 16.6147H90.2476C90.9308 16.6147 91.5265 16.568 92.0229 16.4804C92.5193 16.3928 92.934 16.2409 93.261 16.019C93.588 15.8029 93.8275 15.5051 93.9852 15.1255C94.1428 14.7517 94.2188 14.2728 94.2188 13.7005V13.0114C94.2188 12.4157 94.1487 11.9193 94.0027 11.5281C93.8508 11.1368 93.6231 10.8331 93.3019 10.6053C92.9865 10.3834 92.5777 10.2257 92.0813 10.1381C91.5849 10.0505 90.9834 10.0038 90.2768 10.0038H82.457V19.996H84.6704V16.3636L90.5104 19.996H94.3531L88.4897 16.6147ZM84.6704 11.8843H90.1308C90.4928 11.8843 90.7965 11.896 91.0418 11.9252C91.2871 11.9544 91.474 12.0128 91.6141 12.1004C91.7484 12.188 91.8477 12.3164 91.9061 12.48C91.9645 12.6493 91.9937 12.8654 91.9937 13.1282V13.6713C91.9937 13.94 91.9645 14.1619 91.9061 14.3254C91.8477 14.4948 91.7484 14.6232 91.6024 14.7108C91.4623 14.7984 91.2754 14.8568 91.036 14.886C90.7965 14.9152 90.4928 14.9269 90.1308 14.9269H84.6704V11.8843Z" fill="white"/>
<path d="M91.9933 13.1285V13.6716C91.9933 13.9402 91.9641 14.1622 91.9057 14.3257C91.8473 14.495 91.748 14.6235 91.602 14.7111C91.4618 14.7987 91.2749 14.8571 91.0355 14.8863C90.7961 14.9155 90.4924 14.9272 90.1303 14.9272H84.6699V11.8846H90.1303C90.4924 11.8846 90.7961 11.8963 91.0413 11.9255C91.2866 11.9547 91.4735 12.0131 91.6137 12.1007C91.748 12.1883 91.8473 12.3167 91.9057 12.4803C91.9641 12.6496 91.9933 12.8657 91.9933 13.1285Z" fill="#E53420"/>
<path d="M97.7329 13.4319V14.1093H106.248V15.8788H97.7329V16.5855C97.7329 16.8892 97.7562 17.1344 97.803 17.333C97.8438 17.5257 97.9256 17.6834 98.0424 17.8002C98.1592 17.917 98.3227 17.9988 98.533 18.0396C98.7432 18.0864 99.006 18.1097 99.333 18.1097H106.306V19.996H99.333C98.5972 19.996 97.9898 19.9376 97.4993 19.815C97.0087 19.6923 96.6233 19.4996 96.3255 19.231C96.0335 18.9624 95.8291 18.6061 95.7064 18.174C95.5838 17.7418 95.5195 17.2045 95.5195 16.568V13.4319C95.5195 12.807 95.5838 12.2756 95.7064 11.8376C95.8291 11.3996 96.0335 11.0433 96.3255 10.7747C96.6233 10.5061 97.0087 10.3133 97.4993 10.1907C97.9898 10.0681 98.5972 10.0038 99.333 10.0038H106.306V11.9193L99.333 11.896C99.006 11.896 98.7432 11.9252 98.5388 11.9777C98.3344 12.0303 98.1709 12.1179 98.0482 12.2347C97.9256 12.3515 97.8438 12.5092 97.803 12.7019C97.7562 12.8946 97.7329 13.1399 97.7329 13.4319Z" fill="white"/>
<path d="M109.501 12.8946V13.2158C109.501 13.5253 109.571 13.7472 109.717 13.8816C109.863 14.01 110.12 14.0801 110.482 14.0801H115.154C115.709 14.0801 116.182 14.1268 116.567 14.2203C116.953 14.3137 117.268 14.4597 117.513 14.6641C117.759 14.8685 117.934 15.1313 118.039 15.4584C118.15 15.7796 118.203 16.165 118.203 16.6147V17.4031C118.203 17.8761 118.15 18.2732 118.039 18.6003C117.934 18.9273 117.759 19.1901 117.513 19.3945C117.268 19.6047 116.953 19.7507 116.567 19.85C116.182 19.9493 115.709 19.996 115.154 19.996H107.445V18.1097H115.037C115.434 18.1097 115.726 18.0513 115.902 17.9404C116.077 17.8294 116.164 17.6016 116.164 17.2571V16.714C116.164 16.4044 116.077 16.1825 115.902 16.0482C115.726 15.9197 115.44 15.8496 115.049 15.8496H110.289C109.735 15.8496 109.273 15.8029 108.905 15.6978C108.537 15.5927 108.251 15.4408 108.035 15.2306C107.819 15.0204 107.667 14.7576 107.585 14.4364C107.504 14.121 107.463 13.7472 107.463 13.3151V12.8187C107.463 12.3106 107.515 11.8784 107.626 11.5164C107.731 11.1543 107.895 10.8623 108.123 10.6462C108.345 10.4243 108.637 10.2608 108.999 10.1615C109.361 10.0564 109.793 10.0038 110.289 10.0038H118.203V11.8843L110.494 11.896C110.155 11.896 109.904 11.9602 109.74 12.0945C109.577 12.223 109.501 12.4916 109.501 12.8946Z" fill="white"/>
<path d="M121.351 12.8946V13.2158C121.351 13.5253 121.427 13.7472 121.573 13.8816C121.719 14.01 121.97 14.0801 122.332 14.0801H127.004C127.564 14.0801 128.032 14.1268 128.417 14.2203C128.808 14.3137 129.118 14.4597 129.363 14.6641C129.608 14.8685 129.784 15.1313 129.895 15.4584C130 15.7796 130.052 16.165 130.052 16.6147V17.4031C130.052 17.8761 130 18.2732 129.895 18.6003C129.784 18.9273 129.608 19.1901 129.363 19.3945C129.118 19.6047 128.808 19.7507 128.417 19.85C128.032 19.9493 127.564 19.996 127.004 19.996H119.301V18.1097H126.887C127.29 18.1097 127.576 18.0513 127.751 17.9404C127.926 17.8294 128.014 17.6016 128.014 17.2571V16.714C128.014 16.4044 127.926 16.1825 127.751 16.0482C127.576 15.9197 127.296 15.8496 126.904 15.8496H122.139C121.584 15.8496 121.123 15.8029 120.755 15.6978C120.393 15.5927 120.101 15.4408 119.885 15.2306C119.669 15.0204 119.523 14.7576 119.441 14.4364C119.353 14.121 119.312 13.7472 119.312 13.3151V12.8187C119.312 12.3106 119.365 11.8784 119.476 11.5164C119.581 11.1543 119.75 10.8623 119.972 10.6462C120.2 10.4243 120.492 10.2608 120.854 10.1615C121.216 10.0564 121.643 10.0038 122.139 10.0038H130.052V11.8843L122.349 11.896C122.005 11.896 121.754 11.9602 121.59 12.0945C121.432 12.223 121.351 12.4916 121.351 12.8946Z" fill="white"/>
<path d="M56.2823 11.9249H53.1112L46.1383 11.8957C45.9572 11.8957 45.7937 11.9074 45.6536 11.9249H42.4883C42.4941 11.8957 42.5058 11.8665 42.5116 11.8373C42.6343 11.3993 42.8387 11.0431 43.1365 10.7744C43.4285 10.5058 43.8198 10.3131 44.3045 10.1905C44.7951 10.0678 45.4083 10.0036 46.1383 10.0036H54.1215L56.2823 11.9249Z" fill="white"/>
<path d="M55.8969 18.1101L53.8004 19.9964H46.1383C45.4083 19.9964 44.7951 19.938 44.3045 19.8154C43.8198 19.6927 43.4285 19.5 43.1365 19.2314C42.8387 18.9627 42.6343 18.6065 42.5117 18.1743C42.5058 18.151 42.5 18.1334 42.4941 18.1101H55.8969Z" fill="white"/>
<path d="M59.5405 14.827L58.3725 15.8782H42.3301V14.1087H58.7346L59.5405 14.827Z" fill="white"/>
<path d="M65.1231 19.9958H56.9062L58.9327 18.1095L61.0059 16.1764L63.0908 18.1095L65.1231 19.9958Z" fill="white"/>
<path d="M65.1537 10.0035L62.9812 11.9248L61.1416 13.5484L59.3955 11.9248L57.3281 10.0035H65.1537Z" fill="white"/>
</g>
<defs>
<clipPath id="clip0_1813_14906">
<rect width="136.305" height="30" fill="white" transform="translate(0.539062)"/>
</clipPath>
</defs>
</svg>
