<svg width="42" height="26" viewBox="0 0 42 26" fill="none" xmlns="http://www.w3.org/2000/svg">
<path fill-rule="evenodd" clip-rule="evenodd" d="M28.7128 25.241C35.5863 25.241 41.1583 19.7353 41.1583 12.9436C41.1583 6.15196 35.5863 0.64624 28.7128 0.64624C25.6322 0.64624 22.8131 1.75217 20.6398 3.58414C18.4665 1.75218 15.6474 0.646255 12.5668 0.646255C5.69337 0.646255 0.121338 6.15198 0.121338 12.9436C0.121338 19.7353 5.69337 25.241 12.5668 25.241C15.6474 25.241 18.4665 24.1351 20.6398 22.3031C22.8131 24.1351 25.6322 25.241 28.7128 25.241Z" fill="#ED0006"/>
<path fill-rule="evenodd" clip-rule="evenodd" d="M20.6404 22.3032C23.3163 20.0477 25.0131 16.6914 25.0131 12.9436C25.0131 9.19575 23.3163 5.83949 20.6404 3.58393C22.8136 1.75207 25.6327 0.64621 28.7132 0.64621C35.5866 0.64621 41.1586 6.15193 41.1586 12.9436C41.1586 19.7352 35.5866 25.241 28.7132 25.241C25.6327 25.241 22.8136 24.1351 20.6404 22.3032Z" fill="#F9A000"/>
<path fill-rule="evenodd" clip-rule="evenodd" d="M20.641 22.3034C23.317 20.0479 25.0138 16.6915 25.0138 12.9436C25.0138 9.19567 23.317 5.83934 20.641 3.58377C17.9649 5.83934 16.2681 9.19567 16.2681 12.9436C16.2681 16.6915 17.9649 20.0479 20.641 22.3034Z" fill="#FF5E00"/>
</svg>
