<svg width="86" height="19" viewBox="0 0 86 19" fill="none" xmlns="http://www.w3.org/2000/svg">
<rect x="0.612793" width="84.6129" height="18.5376" rx="3.26882" fill="#535864"/>
<path d="M11.3557 13.2688V6.17876H13.6357C14.4987 6.17876 15.1508 6.3373 15.5921 6.65438C16.0367 6.97145 16.2589 7.42909 16.2589 8.02728C16.2589 8.40319 16.1609 8.72517 15.9647 8.99322C15.7719 9.26126 15.4319 9.4819 14.9449 9.65515C15.2227 9.71399 15.4564 9.79898 15.646 9.91012C15.8389 10.0213 15.9925 10.152 16.1069 10.3024C16.2246 10.4495 16.308 10.6129 16.357 10.7927C16.4093 10.9725 16.4354 11.1621 16.4354 11.3615C16.4354 12.0022 16.2066 12.481 15.749 12.7981C15.2946 13.1119 14.6147 13.2688 13.7093 13.2688H11.3557ZM12.2628 12.5137H13.6994C14.2911 12.5137 14.7406 12.4173 15.0478 12.2244C15.3584 12.0283 15.5136 11.7276 15.5136 11.3222C15.5136 11.0248 15.4368 10.7845 15.2832 10.6015C15.1328 10.4152 14.9285 10.2795 14.6703 10.1945C14.412 10.1095 14.1244 10.067 13.8073 10.067H12.2628V12.5137ZM12.2628 9.29722H13.8073C13.9936 9.29722 14.1783 9.27924 14.3614 9.24328C14.5444 9.20732 14.7128 9.14522 14.8664 9.05696C15.0201 8.9687 15.1443 8.85102 15.2391 8.70393C15.3339 8.55356 15.3813 8.3656 15.3813 8.14006C15.3813 7.72818 15.2227 7.42418 14.9056 7.22805C14.5918 7.02866 14.1832 6.92896 13.6798 6.92896H12.2628V9.29722ZM18.0019 13.2688V6.17876H22.4736L22.4687 6.97799H18.9139V9.29231H22.1157V10.0866H18.909V12.45L22.5668 12.4598V13.2688H18.0019ZM26.5239 13.3669C26.1774 13.3669 25.8489 13.326 25.5384 13.2443C25.2278 13.1593 24.9451 13.0335 24.6901 12.8668C24.4384 12.7001 24.2292 12.4941 24.0625 12.249C23.8991 12.0005 23.7961 11.7129 23.7536 11.386H24.7048C24.7637 11.654 24.8797 11.8796 25.0529 12.0626C25.2295 12.2457 25.4468 12.383 25.7051 12.4745C25.9666 12.566 26.2526 12.6118 26.5631 12.6118C26.8639 12.6118 27.1401 12.5644 27.3918 12.4696C27.6468 12.3748 27.8511 12.2375 28.0047 12.0577C28.1583 11.8747 28.2351 11.6557 28.2351 11.4007C28.2351 11.1196 28.1436 10.894 27.9606 10.7241C27.7775 10.5508 27.4948 10.4119 27.1123 10.3073L25.6511 9.92973C25.321 9.84801 25.0284 9.7336 24.7735 9.58651C24.5218 9.43614 24.324 9.24001 24.1802 8.99812C24.0363 8.75296 23.9644 8.44896 23.9644 8.08612C23.9644 7.68405 24.0756 7.33429 24.2978 7.03683C24.5201 6.7361 24.8209 6.50401 25.2 6.34057C25.5825 6.17386 26.014 6.09051 26.4945 6.09051C27.0502 6.09051 27.5176 6.18694 27.8968 6.3798C28.2793 6.57266 28.5686 6.82599 28.7647 7.1398C28.9608 7.4536 29.0589 7.78866 29.0589 8.14496H28.1273C28.0978 7.82135 28.0031 7.56638 27.8429 7.38005C27.6827 7.19046 27.4833 7.05481 27.2447 6.97309C27.0061 6.8881 26.7462 6.8456 26.4651 6.8456C25.9584 6.8456 25.5743 6.96165 25.3128 7.19373C25.0546 7.42255 24.9255 7.6955 24.9255 8.01257C24.9255 8.3035 25.0186 8.53231 25.2049 8.69902C25.3913 8.86573 25.6658 8.99485 26.0287 9.08638L27.4506 9.45412C27.8723 9.55218 28.2074 9.69438 28.4558 9.8807C28.7075 10.067 28.8873 10.2844 28.9951 10.5328C29.1063 10.778 29.1618 11.0444 29.1618 11.3321C29.1618 11.7243 29.0523 12.0741 28.8333 12.3813C28.6143 12.6886 28.3071 12.9305 27.9115 13.107C27.5193 13.2803 27.0567 13.3669 26.5239 13.3669ZM32.1165 13.2688V7.01231H29.8267V6.17876H35.1908V7.01231H33.0285V13.2688H32.1165ZM41.1474 13.3669C40.8009 13.3669 40.4724 13.326 40.1619 13.2443C39.8513 13.1593 39.5686 13.0335 39.3136 12.8668C39.0619 12.7001 38.8527 12.4941 38.686 12.249C38.5225 12.0005 38.4196 11.7129 38.3771 11.386H39.3283C39.3871 11.654 39.5032 11.8796 39.6764 12.0626C39.8529 12.2457 40.0703 12.383 40.3286 12.4745C40.5901 12.566 40.8761 12.6118 41.1866 12.6118C41.4874 12.6118 41.7636 12.5644 42.0153 12.4696C42.2702 12.3748 42.4745 12.2375 42.6282 12.0577C42.7818 11.8747 42.8586 11.6557 42.8586 11.4007C42.8586 11.1196 42.7671 10.894 42.584 10.7241C42.401 10.5508 42.1182 10.4119 41.7358 10.3073L40.2746 9.92973C39.9445 9.84801 39.6519 9.7336 39.3969 9.58651C39.1453 9.43614 38.9475 9.24001 38.8037 8.99812C38.6598 8.75296 38.5879 8.44896 38.5879 8.08612C38.5879 7.68405 38.6991 7.33429 38.9213 7.03683C39.1436 6.7361 39.4443 6.50401 39.8235 6.34057C40.206 6.17386 40.6375 6.09051 41.118 6.09051C41.6737 6.09051 42.1411 6.18694 42.5203 6.3798C42.9028 6.57266 43.192 6.82599 43.3882 7.1398C43.5843 7.4536 43.6824 7.78866 43.6824 8.14496H42.7508C42.7213 7.82135 42.6265 7.56638 42.4664 7.38005C42.3062 7.19046 42.1068 7.05481 41.8682 6.97309C41.6296 6.8881 41.3697 6.8456 41.0886 6.8456C40.5819 6.8456 40.1978 6.96165 39.9363 7.19373C39.6781 7.42255 39.5489 7.6955 39.5489 8.01257C39.5489 8.3035 39.6421 8.53231 39.8284 8.69902C40.0148 8.86573 40.2893 8.99485 40.6522 9.08638L42.0741 9.45412C42.4958 9.55218 42.8308 9.69438 43.0793 9.8807C43.331 10.067 43.5108 10.2844 43.6186 10.5328C43.7298 10.778 43.7853 11.0444 43.7853 11.3321C43.7853 11.7243 43.6758 12.0741 43.4568 12.3813C43.2378 12.6886 42.9305 12.9305 42.535 13.107C42.1428 13.2803 41.6802 13.3669 41.1474 13.3669ZM45.2761 13.2688V6.17876H49.7478L49.7429 6.97799H46.1881V9.29231H49.3899V10.0866H46.1832V12.45L49.841 12.4598V13.2688H45.2761ZM51.4243 13.2688L51.4292 6.17876H52.3559V12.4549H55.7048V13.2688H51.4243ZM57.084 13.2688L57.0889 6.17876H58.0156V12.4549H61.3646V13.2688H57.084ZM62.7438 13.2688V6.17876H67.2156L67.2107 6.97799H63.6558V9.29231H66.8576V10.0866H63.6509V12.45L67.3087 12.4598V13.2688H62.7438ZM68.892 13.2688V6.17876H71.6378C72.1477 6.17876 72.5743 6.25722 72.9175 6.41412C73.2608 6.56775 73.5174 6.79003 73.6874 7.08096C73.8573 7.36861 73.9423 7.71347 73.9423 8.11554C73.9423 8.50126 73.8737 8.8216 73.7364 9.07657C73.6024 9.33154 73.4308 9.53747 73.2215 9.69438C73.0123 9.84801 72.795 9.96732 72.5694 10.0523L73.9619 13.2688H73.0009L71.7065 10.2141H69.7991V13.2688H68.892ZM69.7991 9.46393H71.3436C71.8764 9.46393 72.2883 9.35605 72.5792 9.14031C72.8701 8.9213 73.0156 8.59769 73.0156 8.16947C73.0156 7.75107 72.8849 7.43889 72.6234 7.23296C72.3651 7.02375 72.0105 6.91915 71.5594 6.91915H69.7991V9.46393Z" fill="#FAFAFA"/>
</svg>
