<svg width="179" height="33" viewBox="0 0 179 33" fill="none" xmlns="http://www.w3.org/2000/svg">
<path d="M167.469 31.2517C167.925 31.2517 168.375 31.2221 168.816 31.1645L168.784 30.9149C169.672 30.799 170.523 30.5675 171.323 30.2359L171.42 30.4684C172.259 30.1204 173.042 29.6649 173.752 29.1192L173.599 28.9195C174.297 28.3835 174.922 27.7581 175.458 27.0605L175.658 27.2139C176.203 26.5037 176.659 25.7204 177.007 24.8811L176.774 24.7847C177.106 23.985 177.337 23.1333 177.453 22.2453L177.703 22.2779C177.761 21.8366 177.79 21.3868 177.79 20.9301V19.6844H177.538V17.1932H177.79V14.7019H177.538V12.2107H177.79V9.71941H177.538V7.22815H177.79V4.73689H177.538V2.24563H177.79V1V0.748252H177.538H176.277V1H173.755V0.748252H171.233V1H168.711V0.748252H166.188V1H163.666V0.748252H161.144V1H158.622V0.748252H156.099V1H153.577V0.748252H151.055V1H148.533V0.748252H146.01V1H143.488V0.748252H140.966V1H138.444V0.748252H135.921V1H133.399V0.748252H130.877V1H128.355V0.748252H125.832V1H123.31V0.748252H120.788V1H118.266V0.748252H115.743V1H113.221V0.748252H110.699V1H108.177V0.748252H105.654V1H103.132V0.748252H100.61V1H98.0876V0.748252H95.5653V1H93.0431V0.748252H90.5208V1H87.9986V0.748252H85.4763V1H82.9541V0.748252H80.4318V1H77.9096V0.748252H75.3873V1H72.8651V0.748252H70.3428V1H67.8206V0.748252H65.2983V1H62.7761V0.748252H60.2539V1H57.7316V0.748252H55.2094V1H52.6871V0.748252H50.1649V1H47.6426V0.748252H45.1204V1H42.5981V0.748252H40.0759V1H37.5536V0.748252H35.0314V1H32.5091V0.748252H29.9869V1H27.4646V0.748252H24.9424V1H22.4201V0.748252H19.8979V1H17.3757V0.748252H14.8534V1H12.3312V0.748252H11.0699C10.6132 0.748252 10.1634 0.777926 9.72214 0.835481L9.7547 1.08511C8.86666 1.20095 8.01498 1.43249 7.21528 1.76411L7.11885 1.53157C6.27959 1.87959 5.49629 2.3351 4.78612 2.88084L4.93952 3.08045C4.24192 3.61653 3.61653 4.24192 3.08045 4.93952L2.88084 4.78612C2.3351 5.49629 1.87959 6.27959 1.53156 7.11885L1.76411 7.21529C1.43249 8.01498 1.20095 8.86666 1.08511 9.75471L0.83548 9.72214C0.777926 10.1634 0.748252 10.6132 0.748252 11.0699V12.3156H1V14.8068H0.748252V17.2981H1V19.7893H0.748252V22.2806H1V24.7719H0.748252V27.2631H1V29.7544H0.748252V31V31.2517H1H2.26113V31H4.78338V31.2517H7.30563V31H9.82788V31.2517H12.3501V31H14.8724V31.2517H17.3946V31H19.9169V31.2517H22.4391V31H24.9614V31.2517H27.4836V31H30.0059V31.2517H32.5281V31H35.0504V31.2517H37.5726V31H40.0949V31.2517H42.6171V31H45.1394V31.2517H47.6616V31H50.1839V31.2517H52.7061V31H55.2284V31.2517H57.7506V31H60.2729V31.2517H62.7951V31H65.3174V31.2517H67.8396V31H70.3619V31.2517H72.8841V31H75.4064V31.2517H77.9286V31H80.4509V31.2517H82.9731V31H85.4954V31.2517H88.0176V31H90.5399V31.2517H93.0621V31H95.5844V31.2517H98.1066V31H100.629V31.2517H103.151V31H105.673V31.2517H108.196V31H110.718V31.2517H113.24V31H115.762V31.2517H118.285V31H120.807V31.2517H123.329V31H125.851V31.2517H128.374V31H130.896V31.2517H133.418V31H135.94V31.2517H138.463V31H140.985V31.2517H143.507V31H146.029V31.2517H148.552V31H151.074V31.2517H153.596V31H156.118V31.2517H158.641V31H161.163V31.2517H163.685V31H166.207V31.2517H167.469Z" fill="#EAF9EA" stroke="#2ABF2D" stroke-width="0.503497" stroke-miterlimit="6.59042" stroke-dasharray="2.52 2.52"/>
<path fill-rule="evenodd" clip-rule="evenodd" d="M27.2511 14.5572L27.7705 15.0764C28.1817 15.4803 28.4053 16.0284 28.4053 16.6053C28.4125 17.1822 28.1889 17.731 27.7849 18.1413C27.7801 18.1466 27.7753 18.1513 27.7705 18.1559C27.7681 18.1583 27.7657 18.1606 27.7633 18.163L27.2511 18.675C27.0491 18.8769 26.9336 19.151 26.9336 19.4401V20.1822C26.9336 21.3793 25.9597 22.3536 24.7622 22.3536H24.0191C23.7306 22.3536 23.4564 22.4683 23.2544 22.6702L22.735 23.1894C22.3094 23.6156 21.7539 23.824 21.1984 23.824C20.6429 23.824 20.0874 23.6156 19.6618 23.1974L19.1351 22.6702C18.9331 22.4683 18.659 22.3536 18.3704 22.3536H17.6274C16.4298 22.3536 15.4559 21.3793 15.4559 20.1822V19.4401C15.4559 19.151 15.3405 18.8769 15.1385 18.6678L14.6191 18.1558C13.775 17.3127 13.7678 15.9346 14.6119 15.0844L15.1385 14.5572C15.3405 14.3553 15.4559 14.0813 15.4559 13.7856V13.05C15.4559 11.8529 16.4298 10.8801 17.6274 10.8801H18.3704C18.659 10.8801 18.9331 10.7639 19.1351 10.562L19.6546 10.0428C20.4986 9.19255 21.8765 9.19255 22.7278 10.0363L23.2544 10.562C23.4564 10.7639 23.7306 10.8801 24.0191 10.8801H24.7622C25.9597 10.8801 26.9336 11.8529 26.9336 13.05V13.7935C26.9336 14.0813 27.0491 14.3553 27.2511 14.5572ZM19.3373 19.1005C19.5104 19.1005 19.6691 19.0356 19.7845 18.913L23.4926 15.207C23.7379 14.9618 23.7379 14.5572 23.4926 14.312C23.2473 14.0676 22.8505 14.0676 22.6053 14.312L18.8972 18.0188C18.6519 18.2639 18.6519 18.6678 18.8972 18.913C19.0126 19.0356 19.1713 19.1005 19.3373 19.1005ZM22.4176 18.4659C22.4176 18.8192 22.6989 19.1005 23.0524 19.1005C23.3987 19.1005 23.6801 18.8192 23.6801 18.4659C23.6801 18.1204 23.3987 17.8385 23.0524 17.8385C22.6989 17.8385 22.4176 18.1204 22.4176 18.4659ZM19.3442 14.1317C19.6905 14.1317 19.9718 14.413 19.9718 14.7591C19.9718 15.1132 19.6905 15.3938 19.3442 15.3938C18.9979 15.3938 18.7094 15.1132 18.7094 14.7591C18.7094 14.413 18.9979 14.1317 19.3442 14.1317Z" fill="#2ABF2D"/>
<path d="M35.3075 14.6154V7.94154H39.6183L39.6137 8.8H36.2998V10.8262H39.2583V11.6708H36.2952V13.7431L39.6967 13.7477V14.6154H35.3075ZM45.1587 14.6154H44.1018L42.7818 12.8292L41.4664 14.6154H40.4002L42.2371 12.1323L40.5525 9.84308H41.6141L42.7818 11.4262L43.9541 9.84308H45.0202L43.3218 12.1323L45.1587 14.6154ZM48.5615 10.5538H47.4908L47.4954 13.4015C47.4954 13.5585 47.5108 13.6738 47.5415 13.7477C47.5754 13.8185 47.6308 13.8646 47.7077 13.8862C47.7877 13.9046 47.8954 13.9138 48.0308 13.9138H48.5892V14.5554C48.5277 14.58 48.4354 14.6015 48.3123 14.62C48.1923 14.6385 48.0369 14.6477 47.8461 14.6477C47.4923 14.6477 47.2169 14.6 47.02 14.5046C46.8261 14.4092 46.6908 14.2723 46.6138 14.0938C46.54 13.9123 46.5031 13.6938 46.5031 13.4385V10.5538H45.7277V9.84308H46.5308L46.7754 8.44H47.4908V9.83846H48.5615V10.5538ZM49.7265 14.6154V9.84308H50.6726V10.8215C50.7526 10.5877 50.8634 10.3923 51.0049 10.2354C51.1496 10.0754 51.3172 9.95539 51.508 9.87539C51.6988 9.79231 51.9003 9.75077 52.1126 9.75077C52.1772 9.75077 52.2388 9.75539 52.2972 9.76462C52.3557 9.77077 52.4019 9.78308 52.4357 9.80154V10.7523C52.3957 10.7338 52.3434 10.7215 52.2788 10.7154C52.2172 10.7092 52.1634 10.7046 52.1172 10.7015C51.908 10.6862 51.7172 10.6969 51.5449 10.7338C51.3726 10.7708 51.2234 10.8323 51.0972 10.9185C50.9742 11.0046 50.8788 11.1169 50.8111 11.2554C50.7465 11.3938 50.7142 11.5569 50.7142 11.7446V14.6154H49.7265ZM54.5896 14.7077C54.2819 14.7077 54.008 14.6523 53.768 14.5415C53.5311 14.4308 53.345 14.2708 53.2096 14.0615C53.0742 13.8523 53.0065 13.6 53.0065 13.3046C53.0065 12.7754 53.1942 12.38 53.5696 12.1185C53.945 11.8569 54.5434 11.7185 55.365 11.7031L56.1496 11.68V11.3338C56.1496 11.06 56.068 10.8446 55.905 10.6877C55.7419 10.5308 55.4911 10.4538 55.1527 10.4569C54.8973 10.4569 54.6696 10.5154 54.4696 10.6323C54.2727 10.7492 54.1434 10.9415 54.0819 11.2092H53.2234C53.2419 10.8923 53.3327 10.6262 53.4957 10.4108C53.6619 10.1923 53.8896 10.0277 54.1788 9.91692C54.468 9.80616 54.808 9.75077 55.1988 9.75077C55.6327 9.75077 55.9896 9.81077 56.2696 9.93077C56.5496 10.0477 56.7573 10.22 56.8927 10.4477C57.0311 10.6754 57.1003 10.9523 57.1003 11.2785V14.6154H56.265L56.1865 13.7385C56.008 14.1046 55.7819 14.3585 55.508 14.5C55.2373 14.6385 54.9311 14.7077 54.5896 14.7077ZM54.8988 14.02C55.0496 14.02 55.1988 13.9938 55.3465 13.9415C55.4942 13.8862 55.628 13.8123 55.748 13.72C55.868 13.6246 55.9634 13.5185 56.0342 13.4015C56.108 13.2846 56.1465 13.1646 56.1496 13.0415V12.2523L55.5034 12.2662C55.1742 12.2692 54.8942 12.3031 54.6634 12.3677C54.4357 12.4323 54.2603 12.5323 54.1373 12.6677C54.0173 12.8031 53.9573 12.9831 53.9573 13.2077C53.9573 13.4631 54.0465 13.6631 54.225 13.8077C54.4034 13.9492 54.628 14.02 54.8988 14.02ZM61.5862 14.6154V9.39077H60.3216V8.77692C60.7154 8.77692 61.0247 8.74616 61.2493 8.68462C61.477 8.62 61.6401 8.52616 61.7385 8.40308C61.8401 8.27692 61.897 8.12308 61.9093 7.94154H62.597V14.6154H61.5862ZM64.7949 7.94154H68.8611L68.8288 8.77692H65.6118L65.4549 10.7846C65.6826 10.6 65.9226 10.4677 66.1749 10.3877C66.4272 10.3046 66.7011 10.2631 66.9965 10.2631C67.4118 10.2631 67.7903 10.3462 68.1318 10.5123C68.4765 10.6785 68.7518 10.9231 68.958 11.2462C69.1641 11.5662 69.2672 11.9615 69.2672 12.4323C69.2672 12.8969 69.1657 13.3 68.9626 13.6415C68.7595 13.9831 68.4718 14.2477 68.0995 14.4354C67.7303 14.6231 67.2949 14.7169 66.7934 14.7169C66.3749 14.7169 65.9872 14.6462 65.6303 14.5046C65.2734 14.36 64.9657 14.1631 64.7072 13.9138C64.4518 13.6615 64.2626 13.3708 64.1395 13.0415L64.9657 12.6492C65.0765 12.8892 65.2134 13.1046 65.3765 13.2954C65.5395 13.4831 65.7318 13.6308 65.9534 13.7385C66.1749 13.8431 66.4288 13.8954 66.7149 13.8954C67.1672 13.8954 67.5318 13.7677 67.8088 13.5123C68.0857 13.2538 68.2241 12.9046 68.2241 12.4646C68.2241 12.1908 68.1595 11.9508 68.0303 11.7446C67.9011 11.5385 67.7272 11.3785 67.5088 11.2646C67.2903 11.1477 67.0457 11.0892 66.7749 11.0892C66.6057 11.0892 66.4472 11.1046 66.2995 11.1354C66.1518 11.1631 66.0041 11.22 65.8565 11.3062C65.7118 11.3892 65.558 11.5138 65.3949 11.68C65.3703 11.6923 65.3518 11.6985 65.3395 11.6985C65.3303 11.6985 65.3103 11.6908 65.2795 11.6754L64.4903 11.3892L64.7949 7.94154ZM71.7954 7.84C72.1001 7.84 72.3724 7.92 72.6124 8.08C72.8554 8.24 73.0462 8.46462 73.1847 8.75385C73.3231 9.04 73.3924 9.37231 73.3924 9.75077C73.3924 10.1292 73.3231 10.46 73.1847 10.7431C73.0493 11.0262 72.8601 11.2477 72.617 11.4077C72.377 11.5646 72.1031 11.6431 71.7954 11.6431C71.4878 11.6431 71.2124 11.5646 70.9693 11.4077C70.7262 11.2477 70.5339 11.0262 70.3924 10.7431C70.2539 10.46 70.1847 10.1292 70.1847 9.75077C70.1847 9.37231 70.2554 9.04 70.397 8.75385C70.5385 8.46462 70.7308 8.24 70.9739 8.08C71.217 7.92 71.4908 7.84 71.7954 7.84ZM71.7862 11.1077C72.0693 11.1077 72.2831 10.9846 72.4278 10.7385C72.5724 10.4923 72.6447 10.1631 72.6447 9.75077C72.6447 9.33231 72.5708 8.99846 72.4231 8.74923C72.2754 8.49692 72.0631 8.37077 71.7862 8.37077C71.6016 8.37077 71.4462 8.42923 71.3201 8.54616C71.1939 8.66 71.097 8.82154 71.0293 9.03077C70.9616 9.23692 70.9278 9.47692 70.9278 9.75077C70.9278 10.16 71.0016 10.4892 71.1493 10.7385C71.297 10.9846 71.5093 11.1077 71.7862 11.1077ZM76.0278 10.8954C76.3354 10.8954 76.6093 10.9769 76.8493 11.14C77.0924 11.3031 77.2831 11.5277 77.4216 11.8138C77.5601 12.1 77.6293 12.4308 77.6293 12.8062C77.6293 13.1877 77.5601 13.5215 77.4216 13.8077C77.2862 14.0908 77.097 14.3123 76.8539 14.4723C76.6139 14.6292 76.3385 14.7077 76.0278 14.7077C75.7201 14.7077 75.4431 14.6292 75.197 14.4723C74.9539 14.3123 74.7631 14.0908 74.6247 13.8077C74.4862 13.5215 74.417 13.1877 74.417 12.8062C74.417 12.4308 74.4862 12.1 74.6247 11.8138C74.7662 11.5277 74.9585 11.3031 75.2016 11.14C75.4478 10.9769 75.7231 10.8954 76.0278 10.8954ZM76.0185 14.1631C76.2001 14.1631 76.3554 14.1062 76.4847 13.9923C76.6139 13.8785 76.7124 13.7215 76.7801 13.5215C76.8478 13.3185 76.8816 13.0831 76.8816 12.8154C76.8816 12.5415 76.8462 12.3015 76.7754 12.0954C76.7078 11.8892 76.6093 11.7277 76.4801 11.6108C76.3539 11.4938 76.2001 11.4354 76.0185 11.4354C75.8401 11.4354 75.6862 11.4938 75.557 11.6108C75.4308 11.7277 75.3339 11.8908 75.2662 12.1C75.1985 12.3062 75.1647 12.5446 75.1647 12.8154C75.1647 13.0831 75.1985 13.3185 75.2662 13.5215C75.3339 13.7215 75.4308 13.8785 75.557 13.9923C75.6862 14.1062 75.8401 14.1631 76.0185 14.1631ZM76.4108 7.86769L71.9247 14.6523L71.2878 14.6431L75.7924 7.86769H76.4108ZM82.7286 14.7077C82.2825 14.7077 81.8917 14.6123 81.5563 14.4215C81.224 14.2277 80.9656 13.9477 80.7809 13.5815C80.5994 13.2154 80.5086 12.7723 80.5086 12.2523C80.5086 11.7508 80.5948 11.3123 80.7671 10.9369C80.9425 10.5615 81.1963 10.2708 81.5286 10.0646C81.8609 9.85539 82.2625 9.75077 82.7333 9.75077C83.1825 9.75077 83.5717 9.84923 83.9009 10.0462C84.2302 10.24 84.4856 10.5246 84.6671 10.9C84.8486 11.2723 84.9394 11.7231 84.9394 12.2523C84.9394 12.7354 84.8533 13.1615 84.6809 13.5308C84.5117 13.9 84.2625 14.1892 83.9333 14.3985C83.6071 14.6046 83.2056 14.7077 82.7286 14.7077ZM82.7333 13.9462C83.004 13.9462 83.2302 13.8754 83.4117 13.7338C83.5963 13.5892 83.7348 13.3877 83.8271 13.1292C83.9194 12.8677 83.9656 12.5662 83.9656 12.2246C83.9656 11.9077 83.924 11.62 83.8409 11.3615C83.7609 11.1 83.6302 10.8923 83.4486 10.7385C83.2671 10.5846 83.0286 10.5077 82.7333 10.5077C82.4563 10.5077 82.2256 10.5785 82.0409 10.72C81.8563 10.8585 81.7163 11.0569 81.6209 11.3154C81.5286 11.5708 81.4825 11.8738 81.4825 12.2246C81.4825 12.5354 81.524 12.8215 81.6071 13.0831C81.6902 13.3446 81.824 13.5538 82.0086 13.7108C82.1933 13.8677 82.4348 13.9462 82.7333 13.9462ZM88.5846 9.84308V10.5538H87.4677V14.6154H86.4754V10.5538H85.5015V9.84308H86.4754V9.11846C86.4754 8.73692 86.5769 8.44616 86.78 8.24616C86.9831 8.04308 87.2816 7.94154 87.6754 7.94154H88.6262L88.6308 8.62462H87.9431C87.7523 8.62462 87.6216 8.67539 87.5508 8.77692C87.4831 8.87539 87.4492 9.02769 87.4492 9.23385V9.84308H88.5846ZM92.1814 9.84308V10.5538H91.0645V14.6154H90.0722V10.5538H89.0983V9.84308H90.0722V9.11846C90.0722 8.73692 90.1737 8.44616 90.3768 8.24616C90.5798 8.04308 90.8783 7.94154 91.2722 7.94154H92.2229L92.2275 8.62462H91.5398C91.3491 8.62462 91.2183 8.67539 91.1475 8.77692C91.0798 8.87539 91.046 9.02769 91.046 9.23385V9.84308H92.1814Z" fill="#2ABF2D"/>
<path d="M37.8321 18.8492C38.3121 18.8492 38.7383 18.9477 39.1106 19.1446C39.4829 19.3415 39.7814 19.6062 40.006 19.9385C40.2337 20.2708 40.369 20.6385 40.4121 21.0415H39.3598C39.3137 20.7892 39.2244 20.5615 39.0921 20.3585C38.9629 20.1523 38.7906 19.9908 38.5752 19.8738C38.3598 19.7538 38.1044 19.6938 37.809 19.6938C37.4306 19.6938 37.109 19.7831 36.8444 19.9615C36.5798 20.14 36.3783 20.4185 36.2398 20.7969C36.1044 21.1754 36.0367 21.6631 36.0367 22.26C36.0367 23.1615 36.189 23.8215 36.4937 24.24C36.7983 24.6554 37.2367 24.8631 37.809 24.8631C38.1044 24.8631 38.3598 24.8 38.5752 24.6738C38.7906 24.5446 38.9629 24.3738 39.0921 24.1615C39.2244 23.9462 39.3137 23.7123 39.3598 23.46H40.4121C40.3752 23.7523 40.2983 24.0338 40.1814 24.3046C40.0644 24.5723 39.9014 24.8123 39.6921 25.0246C39.486 25.2369 39.229 25.4046 38.9214 25.5277C38.6137 25.6477 38.2506 25.7077 37.8321 25.7077C37.229 25.7077 36.7121 25.5692 36.2814 25.2923C35.8506 25.0123 35.5198 24.6154 35.289 24.1015C35.0614 23.5846 34.9475 22.9662 34.9475 22.2462C34.9475 21.5292 35.0614 20.9185 35.289 20.4138C35.5167 19.9062 35.846 19.5185 36.2767 19.2508C36.7075 18.9831 37.226 18.8492 37.8321 18.8492ZM44.324 25.7077C43.7179 25.7077 43.1933 25.5738 42.7502 25.3062C42.3102 25.0354 41.9702 24.6462 41.7302 24.1385C41.4933 23.6277 41.3748 23.0123 41.3748 22.2923C41.3748 21.5662 41.4948 20.9477 41.7348 20.4369C41.9779 19.9231 42.3194 19.5308 42.7594 19.26C43.2025 18.9862 43.724 18.8492 44.324 18.8492C44.9209 18.8492 45.4379 18.9862 45.8748 19.26C46.3148 19.5308 46.6533 19.9231 46.8902 20.4369C47.1302 20.9477 47.2502 21.5662 47.2502 22.2923C47.2502 23.0123 47.1317 23.6262 46.8948 24.1338C46.6579 24.6415 46.3194 25.0308 45.8794 25.3015C45.4425 25.5723 44.924 25.7077 44.324 25.7077ZM44.324 24.8631C44.7117 24.8631 45.0425 24.7738 45.3163 24.5954C45.5933 24.4169 45.804 24.1385 45.9486 23.76C46.0933 23.3815 46.1656 22.8969 46.1656 22.3062C46.1656 21.7 46.0917 21.2046 45.944 20.82C45.7994 20.4354 45.5886 20.1523 45.3117 19.9708C45.0379 19.7862 44.7086 19.6938 44.324 19.6938C43.9394 19.6938 43.6071 19.7862 43.3271 19.9708C43.0502 20.1554 42.8363 20.44 42.6856 20.8246C42.5348 21.2092 42.4594 21.7031 42.4594 22.3062C42.4594 22.9 42.5348 23.3862 42.6856 23.7646C42.8363 24.14 43.0502 24.4169 43.3271 24.5954C43.6071 24.7738 43.9394 24.8631 44.324 24.8631ZM48.5767 18.9415C48.6014 18.9415 48.6737 18.9431 48.7937 18.9462C48.9167 18.9462 49.0644 18.9462 49.2367 18.9462C49.409 18.9431 49.5844 18.9431 49.7629 18.9462C49.9444 18.9462 50.106 18.9477 50.2475 18.9508C51.0629 18.9631 51.726 19.0985 52.2367 19.3569C52.7475 19.6154 53.1214 19.9877 53.3583 20.4738C53.5983 20.9569 53.7183 21.5462 53.7183 22.2415C53.7183 22.9646 53.5906 23.5785 53.3352 24.0831C53.0798 24.5846 52.689 24.9662 52.1629 25.2277C51.6398 25.4862 50.9767 25.6154 50.1737 25.6154H48.5767V18.9415ZM49.5829 19.7723V24.7846H50.1829C50.6875 24.7846 51.126 24.7031 51.4983 24.54C51.8737 24.3738 52.1644 24.1062 52.3706 23.7369C52.5767 23.3646 52.6798 22.8677 52.6798 22.2462C52.6798 21.6369 52.5814 21.1523 52.3844 20.7923C52.1875 20.4292 51.9044 20.1692 51.5352 20.0123C51.169 19.8523 50.7275 19.7723 50.2106 19.7723H49.5829ZM55.0401 25.6154V18.9415H59.3509L59.3462 19.8H56.0324V21.8262H58.9909V22.6708H56.0278V24.7431L59.4293 24.7477V25.6154H55.0401ZM61.5941 21.0138V22.1954H60.4495V21.0138H61.5941ZM61.5941 24.4108V25.5877H60.4495V24.4108H61.5941ZM65.019 25.6154V18.9415H67.239C68.0667 18.9415 68.6898 19.0908 69.1083 19.3892C69.5298 19.6877 69.7406 20.1185 69.7406 20.6815C69.7406 21.0292 69.6498 21.3292 69.4683 21.5815C69.2898 21.8308 68.976 22.04 68.5267 22.2092C68.7914 22.2677 69.0129 22.3523 69.1914 22.4631C69.3698 22.5708 69.5098 22.6954 69.6114 22.8369C69.716 22.9785 69.7898 23.1323 69.8329 23.2985C69.879 23.4646 69.9021 23.6369 69.9021 23.8154C69.9021 24.4215 69.6883 24.8738 69.2606 25.1723C68.836 25.4677 68.1883 25.6154 67.3175 25.6154H65.019ZM66.0067 24.8123H67.3221C67.839 24.8123 68.2314 24.7246 68.499 24.5492C68.7667 24.3708 68.9006 24.1046 68.9006 23.7508C68.9006 23.4954 68.8344 23.2862 68.7021 23.1231C68.5698 22.96 68.3914 22.84 68.1667 22.7631C67.9421 22.6862 67.6914 22.6477 67.4144 22.6477H66.0067V24.8123ZM66.0067 21.8308H67.4144C67.5806 21.8308 67.7437 21.8138 67.9037 21.78C68.0637 21.7462 68.2098 21.6908 68.3421 21.6138C68.4744 21.5338 68.5806 21.4277 68.6606 21.2954C68.7406 21.1631 68.7806 21.0015 68.7806 20.8108C68.7806 20.4477 68.6437 20.1785 68.3698 20.0031C68.096 19.8277 67.7406 19.74 67.3037 19.74H66.0067V21.8308ZM71.3201 18.9415H72.3078V25.6154H71.3201V18.9415ZM76.5174 25.7077C75.9236 25.7077 75.4113 25.5723 74.9805 25.3015C74.5497 25.0308 74.2174 24.6415 73.9836 24.1338C73.7528 23.6231 73.6374 23.0108 73.6374 22.2969C73.6374 21.5769 73.7559 20.96 73.9928 20.4462C74.2328 19.9292 74.5728 19.5338 75.0128 19.26C75.4528 18.9862 75.9697 18.8492 76.5636 18.8492C76.9174 18.8492 77.2451 18.9092 77.5466 19.0292C77.8513 19.1492 78.119 19.3123 78.3497 19.5185C78.5836 19.7246 78.7682 19.9585 78.9036 20.22C79.039 20.4815 79.1159 20.7554 79.1343 21.0415H78.082C78.039 20.8046 77.9466 20.5862 77.8051 20.3862C77.6666 20.1831 77.4897 20.02 77.2743 19.8969C77.059 19.7738 76.8159 19.7123 76.5451 19.7123C76.1851 19.7123 75.8666 19.8015 75.5897 19.98C75.3128 20.1585 75.0959 20.4369 74.939 20.8154C74.7851 21.1908 74.7082 21.6769 74.7082 22.2738C74.7082 22.7385 74.7559 23.1338 74.8513 23.46C74.9497 23.7862 75.0836 24.0492 75.2528 24.2492C75.422 24.4492 75.6205 24.5954 75.8482 24.6877C76.0759 24.7769 76.319 24.8215 76.5774 24.8215C76.8328 24.8215 77.0574 24.7769 77.2513 24.6877C77.4451 24.5985 77.6066 24.4831 77.7359 24.3415C77.8682 24.2 77.9697 24.0477 78.0405 23.8846C78.1143 23.7185 78.1574 23.5585 78.1697 23.4046L78.202 22.8646H76.642V22.1538L79.2313 22.1631V25.6154H78.5159V24.6369C78.399 24.8185 78.2528 24.9908 78.0774 25.1538C77.902 25.3169 77.6866 25.4508 77.4313 25.5554C77.1759 25.6569 76.8713 25.7077 76.5174 25.7077ZM80.8303 25.6154V18.9415H83.0503C83.878 18.9415 84.5011 19.0908 84.9196 19.3892C85.3411 19.6877 85.5519 20.1185 85.5519 20.6815C85.5519 21.0292 85.4611 21.3292 85.2796 21.5815C85.1011 21.8308 84.7873 22.04 84.338 22.2092C84.6027 22.2677 84.8242 22.3523 85.0027 22.4631C85.1811 22.5708 85.3211 22.6954 85.4227 22.8369C85.5273 22.9785 85.6011 23.1323 85.6442 23.2985C85.6903 23.4646 85.7134 23.6369 85.7134 23.8154C85.7134 24.4215 85.4996 24.8738 85.0719 25.1723C84.6473 25.4677 83.9996 25.6154 83.1288 25.6154H80.8303ZM81.818 24.8123H83.1334C83.6503 24.8123 84.0427 24.7246 84.3103 24.5492C84.578 24.3708 84.7119 24.1046 84.7119 23.7508C84.7119 23.4954 84.6457 23.2862 84.5134 23.1231C84.3811 22.96 84.2027 22.84 83.978 22.7631C83.7534 22.6862 83.5027 22.6477 83.2257 22.6477H81.818V24.8123ZM81.818 21.8308H83.2257C83.3919 21.8308 83.555 21.8138 83.715 21.78C83.875 21.7462 84.0211 21.6908 84.1534 21.6138C84.2857 21.5338 84.3919 21.4277 84.4719 21.2954C84.5519 21.1631 84.5919 21.0015 84.5919 20.8108C84.5919 20.4477 84.455 20.1785 84.1811 20.0031C83.9073 19.8277 83.5519 19.74 83.115 19.74H81.818V21.8308ZM92.0145 25.6154H90.976L89.7945 22.8231H88.1191V25.6154H87.1314V18.9415H89.7807C90.276 18.9415 90.6868 19.0185 91.013 19.1723C91.3391 19.3231 91.5822 19.5385 91.7422 19.8185C91.9022 20.0985 91.9822 20.4292 91.9822 20.8108C91.9822 21.1708 91.9207 21.4708 91.7976 21.7108C91.6776 21.9508 91.5207 22.1462 91.3268 22.2969C91.136 22.4477 90.9345 22.5662 90.7222 22.6523L92.0145 25.6154ZM89.513 22.0246C89.9776 22.0246 90.3376 21.9246 90.593 21.7246C90.8484 21.5215 90.976 21.2323 90.976 20.8569C90.976 20.4877 90.8591 20.2077 90.6253 20.0169C90.3945 19.8262 90.0807 19.7308 89.6837 19.7308H88.1191V22.0246H89.513ZM92.9611 25.6154L95.3703 18.9415H96.4596L98.8642 25.6154H97.8672L97.2396 23.8662H94.6042L93.9626 25.6154H92.9611ZM94.8396 22.9708H96.9857L95.9196 19.9108L94.8396 22.9708ZM104.41 18.9415H105.403V25.6154H104.517L101.046 20.5338V25.6154H100.058V18.9415H101.014L104.41 23.9169V18.9415ZM107.089 18.9415C107.114 18.9415 107.186 18.9431 107.306 18.9462C107.429 18.9462 107.577 18.9462 107.749 18.9462C107.922 18.9431 108.097 18.9431 108.276 18.9462C108.457 18.9462 108.619 18.9477 108.76 18.9508C109.576 18.9631 110.239 19.0985 110.749 19.3569C111.26 19.6154 111.634 19.9877 111.871 20.4738C112.111 20.9569 112.231 21.5462 112.231 22.2415C112.231 22.9646 112.103 23.5785 111.848 24.0831C111.592 24.5846 111.202 24.9662 110.676 25.2277C110.152 25.4862 109.489 25.6154 108.686 25.6154H107.089V18.9415ZM108.096 19.7723V24.7846H108.696C109.2 24.7846 109.639 24.7031 110.011 24.54C110.386 24.3738 110.677 24.1062 110.883 23.7369C111.089 23.3646 111.192 22.8677 111.192 22.2462C111.192 21.6369 111.094 21.1523 110.897 20.7923C110.7 20.4292 110.417 20.1692 110.048 20.0123C109.682 19.8523 109.24 19.7723 108.723 19.7723H108.096Z" fill="#2ABF2D"/>
<path fill-rule="evenodd" clip-rule="evenodd" d="M149.613 16.6148C149.613 12.3695 153.059 8.92254 157.306 8.92254C161.559 8.92254 164.998 12.3695 164.998 16.6148C164.998 20.8618 161.559 24.3072 157.306 24.3072C153.059 24.3072 149.613 20.8618 149.613 16.6148ZM156.628 13.6995C156.628 13.331 156.936 13.0225 157.305 13.0225C157.674 13.0225 157.974 13.331 157.974 13.6995V17.0995C157.974 17.4695 157.674 17.7687 157.305 17.7687C156.936 17.7687 156.628 17.4695 156.628 17.0995V13.6995ZM157.314 20.2156C156.937 20.2156 156.637 19.9079 156.637 19.5387C156.637 19.1695 156.937 18.8695 157.306 18.8695C157.683 18.8695 157.983 19.1695 157.983 19.5387C157.983 19.9079 157.683 20.2156 157.314 20.2156Z" fill="#2ABF2D"/>
</svg>
