<svg width="128" height="26" viewBox="0 0 128 26" fill="none" xmlns="http://www.w3.org/2000/svg">
<rect x="0.528809" y="0.537628" width="37.4713" height="25" rx="12.5" fill="#2ABF2D"/>
<path d="M10.4473 15.9183V14.6612L14.1504 8.81036H15.1987V10.6001H14.5595L12.0666 14.5504V14.6186H17.2357V15.9183H10.4473ZM14.6107 17.5376V15.5348L14.6277 14.9723V8.81036H16.1192V17.5376H14.6107ZM19.3784 17.6314C19.1199 17.6314 18.8983 17.5405 18.7136 17.3587C18.529 17.1768 18.4381 16.9552 18.4409 16.6939C18.4381 16.4382 18.529 16.2194 18.7136 16.0376C18.8983 15.8558 19.1199 15.7649 19.3784 15.7649C19.6284 15.7649 19.8457 15.8558 20.0304 16.0376C20.2179 16.2194 20.3131 16.4382 20.3159 16.6939C20.3131 16.8672 20.2676 17.0248 20.1795 17.1669C20.0943 17.3089 19.9807 17.4226 19.8386 17.5078C19.6994 17.5902 19.546 17.6314 19.3784 17.6314ZM24.7907 17.6569C24.177 17.6569 23.6316 17.5518 23.1543 17.3416C22.6799 17.1314 22.3049 16.8388 22.0293 16.4638C21.7537 16.0888 21.6074 15.6555 21.5904 15.164H23.1927C23.2069 15.3998 23.285 15.6058 23.427 15.7819C23.5691 15.9552 23.758 16.0902 23.9938 16.1868C24.2296 16.2834 24.4938 16.3317 24.7864 16.3317C25.0989 16.3317 25.3759 16.2777 25.6174 16.1697C25.8589 16.0589 26.0478 15.9055 26.1841 15.7095C26.3205 15.5135 26.3873 15.2876 26.3844 15.0319C26.3873 14.7677 26.3191 14.5348 26.1799 14.3331C26.0407 14.1314 25.839 13.9737 25.5748 13.8601C25.3134 13.7464 24.9981 13.6896 24.6287 13.6896H23.8574V12.4709H24.6287C24.9327 12.4709 25.1983 12.4183 25.4256 12.3132C25.6557 12.2081 25.8361 12.0604 25.9668 11.87C26.0975 11.6768 26.1614 11.4538 26.1586 11.201C26.1614 10.9538 26.106 10.7393 25.9924 10.5575C25.8816 10.3729 25.7239 10.2294 25.5194 10.1271C25.3177 10.0248 25.0804 9.97371 24.8077 9.97371C24.5407 9.97371 24.2935 10.022 24.0662 10.1186C23.839 10.2152 23.6557 10.353 23.5165 10.5319C23.3773 10.7081 23.3035 10.9183 23.2949 11.1626H21.7736C21.785 10.674 21.9256 10.245 22.1955 9.8757C22.4682 9.50354 22.8319 9.21376 23.2864 9.00638C23.741 8.79615 24.2509 8.69104 24.8162 8.69104C25.3986 8.69104 25.9043 8.80041 26.3333 9.01916C26.7651 9.23507 27.0989 9.52626 27.3347 9.89274C27.5705 10.2592 27.6884 10.664 27.6884 11.1072C27.6912 11.5987 27.5464 12.0106 27.2537 12.343C26.964 12.6754 26.5833 12.8927 26.1117 12.995V13.0632C26.7253 13.1484 27.1955 13.3757 27.5222 13.745C27.8517 14.1115 28.0151 14.5675 28.0123 15.1129C28.0123 15.6015 27.8731 16.039 27.5946 16.4254C27.3191 16.8089 26.9384 17.1101 26.4526 17.3288C25.9696 17.5476 25.4157 17.6569 24.7907 17.6569Z" fill="white"/>
<path opacity="0.5" d="M46.312 19.1916C45.584 19.187 44.9493 19.0586 44.408 18.8066C43.8667 18.55 43.4443 18.1883 43.141 17.7216C42.8377 17.255 42.6767 16.7043 42.658 16.0696H44.135C44.233 16.681 44.4803 17.1453 44.877 17.4626C45.2783 17.7753 45.7707 17.9316 46.354 17.9316C46.83 17.9316 47.2407 17.8593 47.586 17.7146C47.936 17.5653 48.2067 17.3623 48.398 17.1056C48.5893 16.8443 48.685 16.541 48.685 16.1956C48.685 15.8223 48.58 15.505 48.37 15.2436C48.1647 14.9823 47.88 14.784 47.516 14.6486C47.1567 14.5086 46.753 14.434 46.305 14.4246L45.374 14.4036V13.1576L46.242 13.1296C46.6667 13.1203 47.0423 13.041 47.369 12.8916C47.7003 12.7376 47.9593 12.537 48.146 12.2896C48.3327 12.0423 48.426 11.7693 48.426 11.4706C48.426 11.2 48.342 10.9526 48.174 10.7286C48.0107 10.5046 47.7727 10.3273 47.46 10.1966C47.152 10.0613 46.781 9.99363 46.347 9.99363C45.997 9.99363 45.6633 10.059 45.346 10.1896C45.0333 10.3203 44.7743 10.528 44.569 10.8126C44.3683 11.0926 44.2587 11.459 44.24 11.9116H42.77C42.77 11.235 42.931 10.6656 43.253 10.2036C43.5797 9.73696 44.0137 9.38229 44.555 9.13963C45.101 8.89696 45.7053 8.77563 46.368 8.77563C47.082 8.77563 47.7143 8.87596 48.265 9.07663C48.8157 9.27729 49.2473 9.57363 49.56 9.96563C49.8773 10.3576 50.036 10.8406 50.036 11.4146C50.036 11.914 49.8797 12.3643 49.567 12.7656C49.259 13.1623 48.7783 13.4726 48.125 13.6966C48.5497 13.8133 48.9253 13.986 49.252 14.2146C49.5787 14.4386 49.833 14.7186 50.015 15.0546C50.2017 15.3906 50.295 15.7803 50.295 16.2236C50.295 16.695 50.1947 17.115 49.994 17.4836C49.7933 17.8523 49.5133 18.165 49.154 18.4216C48.7947 18.6783 48.3723 18.872 47.887 19.0026C47.4017 19.1333 46.8767 19.1963 46.312 19.1916ZM56.3037 19.0376V16.5456H51.5647V15.2296L56.2547 8.91563H57.7597V15.2506H59.4047V16.5456H57.7597V19.0376H56.3037ZM52.9787 15.2506H56.2827V10.8196L52.9787 15.2506ZM62.3831 19.0376V11.1136H60.4651V10.1826C61.0625 10.1826 61.5315 10.136 61.8721 10.0426C62.2175 9.94463 62.4648 9.80229 62.6141 9.61563C62.7681 9.42429 62.8545 9.19096 62.8731 8.91563H63.9161V19.0376H62.3831ZM69.9486 19.0376V11.7996H71.3836V13.2836C71.5049 12.929 71.6729 12.6326 71.8876 12.3946C72.1069 12.152 72.3613 11.97 72.6506 11.8486C72.9399 11.7226 73.2456 11.6596 73.5676 11.6596C73.6656 11.6596 73.7589 11.6666 73.8476 11.6806C73.9363 11.69 74.0063 11.7086 74.0576 11.7366V13.1786C73.9969 13.1506 73.9176 13.132 73.8196 13.1226C73.7263 13.1133 73.6446 13.1063 73.5746 13.1016C73.2573 13.0783 72.9679 13.0946 72.7066 13.1506C72.4453 13.2066 72.2189 13.3 72.0276 13.4306C71.8409 13.5613 71.6963 13.7316 71.5936 13.9416C71.4956 14.1516 71.4466 14.399 71.4466 14.6836V19.0376H69.9486ZM78.5533 19.1776C77.8673 19.1776 77.263 19.0306 76.7403 18.7366C76.2177 18.438 75.8093 18.0133 75.5153 17.4626C75.226 16.912 75.0813 16.2563 75.0813 15.4956C75.0813 14.7443 75.2143 14.0816 75.4803 13.5076C75.7463 12.929 76.1313 12.4763 76.6353 12.1496C77.1393 11.823 77.746 11.6596 78.4553 11.6596C79.1507 11.6596 79.7387 11.809 80.2193 12.1076C80.7 12.4063 81.064 12.8263 81.3113 13.3676C81.5587 13.9043 81.6823 14.539 81.6823 15.2716V15.7686H76.5863C76.5817 16.2026 76.6517 16.5923 76.7963 16.9376C76.941 17.2783 77.1557 17.549 77.4403 17.7496C77.7297 17.9456 78.089 18.0436 78.5183 18.0436C78.9523 18.0436 79.3257 17.9456 79.6383 17.7496C79.9557 17.5536 80.1633 17.262 80.2613 16.8746H81.6473C81.5633 17.3693 81.365 17.7893 81.0523 18.1346C80.7397 18.48 80.364 18.7413 79.9253 18.9186C79.4867 19.0913 79.0293 19.1776 78.5533 19.1776ZM76.5863 14.7956H80.2543C80.2543 14.4176 80.189 14.0746 80.0583 13.7666C79.9277 13.454 79.727 13.209 79.4563 13.0316C79.1903 12.8496 78.8543 12.7586 78.4483 12.7586C78.033 12.7586 77.6877 12.859 77.4123 13.0596C77.137 13.2603 76.9293 13.517 76.7893 13.8296C76.654 14.1423 76.5863 14.4643 76.5863 14.7956ZM85.149 19.0376L82.503 11.7996H83.889L85.723 17.1406H85.821L87.655 11.7996H89.041L86.409 19.0376H85.149ZM90.382 19.0376V11.7996H91.824V19.0376H90.382ZM90.347 10.3996V8.92263H91.852V10.3996H90.347ZM97.024 19.1776C96.338 19.1776 95.7337 19.0306 95.211 18.7366C94.6884 18.438 94.28 18.0133 93.986 17.4626C93.6967 16.912 93.552 16.2563 93.552 15.4956C93.552 14.7443 93.685 14.0816 93.951 13.5076C94.217 12.929 94.602 12.4763 95.106 12.1496C95.61 11.823 96.2167 11.6596 96.926 11.6596C97.6214 11.6596 98.2094 11.809 98.69 12.1076C99.1707 12.4063 99.5347 12.8263 99.782 13.3676C100.029 13.9043 100.153 14.539 100.153 15.2716V15.7686H95.057C95.0524 16.2026 95.1224 16.5923 95.267 16.9376C95.4117 17.2783 95.6264 17.549 95.911 17.7496C96.2004 17.9456 96.5597 18.0436 96.989 18.0436C97.423 18.0436 97.7964 17.9456 98.109 17.7496C98.4264 17.5536 98.634 17.262 98.732 16.8746H100.118C100.034 17.3693 99.8357 17.7893 99.523 18.1346C99.2104 18.48 98.8347 18.7413 98.396 18.9186C97.9574 19.0913 97.5 19.1776 97.024 19.1776ZM95.057 14.7956H98.725C98.725 14.4176 98.6597 14.0746 98.529 13.7666C98.3984 13.454 98.1977 13.209 97.927 13.0316C97.661 12.8496 97.325 12.7586 96.919 12.7586C96.5037 12.7586 96.1584 12.859 95.883 13.0596C95.6077 13.2603 95.4 13.517 95.26 13.8296C95.1247 14.1423 95.057 14.4643 95.057 14.7956ZM103.311 19.0376L101.043 11.7996H102.408L103.99 17.0706H104.088L105.635 11.7996H106.748L108.344 17.0566H108.442L109.968 11.7996H111.354L109.107 19.0376H107.735L106.167 13.9556L104.662 19.0376H103.311ZM115.218 19.1776C114.714 19.1776 114.24 19.0983 113.797 18.9396C113.358 18.781 112.989 18.5313 112.691 18.1906C112.397 17.85 112.212 17.4136 112.138 16.8816H113.475C113.535 17.157 113.65 17.3856 113.818 17.5676C113.99 17.745 114.196 17.878 114.434 17.9666C114.676 18.0506 114.935 18.0926 115.211 18.0926C115.668 18.0926 116.039 18.011 116.324 17.8476C116.608 17.6796 116.751 17.423 116.751 17.0776C116.751 16.8303 116.674 16.632 116.52 16.4826C116.366 16.3333 116.125 16.2236 115.799 16.1536L114.357 15.8106C113.759 15.6706 113.281 15.449 112.922 15.1456C112.562 14.8376 112.38 14.4083 112.376 13.8576C112.376 13.433 112.481 13.055 112.691 12.7236C112.905 12.3923 113.223 12.1333 113.643 11.9466C114.067 11.7553 114.59 11.6596 115.211 11.6596C116.027 11.6596 116.683 11.8416 117.178 12.2056C117.677 12.5696 117.934 13.097 117.948 13.7876H116.653C116.606 13.4563 116.454 13.1973 116.198 13.0106C115.946 12.8193 115.612 12.7236 115.197 12.7236C114.767 12.7236 114.415 12.81 114.14 12.9826C113.864 13.1506 113.727 13.4096 113.727 13.7596C113.727 13.9976 113.827 14.1866 114.028 14.3266C114.233 14.462 114.534 14.574 114.931 14.6626L116.303 15.0056C116.657 15.099 116.949 15.2226 117.178 15.3766C117.406 15.526 117.586 15.6916 117.717 15.8736C117.847 16.0556 117.938 16.2446 117.99 16.4406C118.046 16.6366 118.074 16.821 118.074 16.9936C118.074 17.451 117.957 17.843 117.724 18.1696C117.495 18.4916 117.168 18.7413 116.744 18.9186C116.319 19.0913 115.81 19.1776 115.218 19.1776Z" fill="#404553"/>
</svg>
