<svg width="98" height="26" viewBox="0 0 98 26" fill="none" xmlns="http://www.w3.org/2000/svg">
<path d="M0 9.2649C0 4.44496 3.90733 0.537628 8.72727 0.537628H97.4545V17.174C97.4545 21.9939 93.5472 25.9013 88.7273 25.9013H0V9.2649Z" fill="#E53420"/>
<path d="M14.784 19.894C14.1557 19.894 13.5535 19.8184 12.9775 19.6671C12.4015 19.51 11.8749 19.2802 11.3978 18.9776C10.9266 18.6693 10.5367 18.2882 10.2284 17.8344C9.92002 17.3747 9.73093 16.8394 9.66111 16.2285H11.8604C11.9535 16.6533 12.1367 17.0111 12.4102 17.302C12.6895 17.5929 13.0415 17.814 13.4662 17.9653C13.8909 18.1165 14.3651 18.1922 14.8887 18.1922C15.3542 18.1922 15.7877 18.1224 16.1891 17.9827C16.5906 17.8431 16.9164 17.6365 17.1666 17.3631C17.4167 17.0838 17.5418 16.7405 17.5418 16.3333C17.5418 15.8736 17.3789 15.5158 17.0531 15.2598C16.7331 14.998 16.2735 14.7914 15.6742 14.6402L13.2044 14.0554C12.5644 13.91 12.0058 13.6976 11.5287 13.4184C11.0575 13.1391 10.6909 12.7725 10.4291 12.3187C10.1673 11.8591 10.0364 11.2976 10.0364 10.6344C10.0364 9.87799 10.2429 9.22345 10.656 8.67072C11.0749 8.11799 11.6422 7.69326 12.3578 7.39654C13.0735 7.09399 13.8793 6.94272 14.7753 6.94272C15.7993 6.94272 16.6633 7.11435 17.3673 7.45763C18.0713 7.79508 18.6066 8.2489 18.9731 8.81908C19.3397 9.38926 19.5258 10.0147 19.5317 10.6954H17.3848C17.3382 10.1893 17.1898 9.79072 16.9397 9.49981C16.6895 9.20308 16.3724 8.98781 15.9884 8.85399C15.6044 8.72017 15.1797 8.65326 14.7142 8.65326C13.888 8.65326 13.2742 8.83072 12.8727 9.18563C12.4713 9.54054 12.2706 9.95654 12.2706 10.4336C12.2706 10.8816 12.4189 11.2365 12.7157 11.4984C13.0124 11.7602 13.4662 11.9638 14.0771 12.1093L16.4247 12.6591C17.2102 12.822 17.8415 13.0722 18.3186 13.4096C18.7957 13.7471 19.1418 14.1485 19.3571 14.614C19.5782 15.0736 19.6888 15.5827 19.6888 16.1413C19.6888 16.8744 19.4793 17.5231 19.0604 18.0874C18.6473 18.6518 18.0742 19.094 17.3411 19.414C16.608 19.734 15.7557 19.894 14.784 19.894ZM24.4238 19.894C23.8478 19.894 23.33 19.7893 22.8704 19.5798C22.4166 19.3645 22.0587 19.0591 21.7969 18.6634C21.5409 18.262 21.4129 17.7762 21.4129 17.206C21.4129 16.2111 21.7707 15.4605 22.4864 14.9544C23.2078 14.4482 24.354 14.1834 25.9249 14.1602L27.2777 14.1253V13.5144C27.2777 13.0373 27.1351 12.6649 26.85 12.3973C26.5708 12.1238 26.1344 11.99 25.5409 11.9958C25.0988 12.0016 24.6973 12.1064 24.3366 12.31C23.9758 12.5078 23.7373 12.8424 23.6209 13.3136H21.8144C21.8493 12.6969 22.0267 12.182 22.3468 11.7689C22.6726 11.35 23.1177 11.0387 23.682 10.8351C24.2464 10.6256 24.898 10.5209 25.6369 10.5209C26.498 10.5209 27.1991 10.6344 27.7402 10.8613C28.2813 11.0882 28.6798 11.4169 28.9358 11.8474C29.1918 12.2722 29.3198 12.7871 29.3198 13.3922V19.7194H27.5308L27.3562 18.0962C27.0362 18.7769 26.626 19.2482 26.1257 19.51C25.6311 19.766 25.0638 19.894 24.4238 19.894ZM25.1133 18.454C25.3751 18.454 25.634 18.4074 25.89 18.3144C26.146 18.2154 26.3758 18.0845 26.5795 17.9216C26.7889 17.7529 26.9548 17.5667 27.0769 17.3631C27.2049 17.1594 27.2718 16.9471 27.2777 16.726V15.3034L26.1693 15.3209C25.6224 15.3267 25.1424 15.3849 24.7293 15.4954C24.322 15.606 24.0049 15.7834 23.778 16.0278C23.5511 16.2664 23.4377 16.5864 23.4377 16.9878C23.4377 17.4474 23.5977 17.8082 23.9177 18.07C24.2377 18.326 24.6362 18.454 25.1133 18.454ZM33.8055 19.7194L30.4717 10.6954H32.4179L34.5823 17.014H34.6957L36.8513 10.6954H38.8063L35.4812 19.7194H33.8055ZM44.1648 19.894C43.2979 19.894 42.5328 19.7107 41.8695 19.3442C41.2121 18.9718 40.6972 18.4424 40.3248 17.7558C39.9583 17.0693 39.775 16.2518 39.775 15.3034C39.775 14.3784 39.9408 13.558 40.2724 12.8424C40.6099 12.1209 41.0957 11.5536 41.7299 11.1405C42.3699 10.7274 43.1408 10.5209 44.0426 10.5209C44.9328 10.5209 45.6804 10.71 46.2855 11.0882C46.8906 11.4664 47.3503 11.9958 47.6644 12.6765C47.9786 13.3514 48.1357 14.1427 48.1357 15.0504V15.6962H41.8957C41.8899 16.2082 41.9713 16.662 42.1401 17.0576C42.3088 17.4533 42.559 17.7645 42.8906 17.9914C43.2223 18.2125 43.6324 18.3231 44.1212 18.3231C44.6215 18.3231 45.055 18.2125 45.4215 17.9914C45.7939 17.7645 46.0412 17.4213 46.1633 16.9616H48.1008C47.9961 17.59 47.7459 18.1224 47.3503 18.5587C46.9604 18.9951 46.4833 19.3267 45.919 19.5536C45.3604 19.7805 44.7757 19.894 44.1648 19.894ZM41.887 14.3784H46.1284C46.1284 13.942 46.0499 13.5493 45.8928 13.2002C45.7415 12.8453 45.5117 12.566 45.2033 12.3624C44.895 12.1529 44.5052 12.0482 44.0339 12.0482C43.5684 12.0482 43.1757 12.1616 42.8557 12.3885C42.5357 12.6154 42.2943 12.9093 42.1313 13.27C41.9684 13.6249 41.887 13.9944 41.887 14.3784ZM56.2395 19.7194V9.99726H53.9006V8.73181C54.6395 8.73181 55.2242 8.67072 55.6548 8.54854C56.0912 8.42054 56.4082 8.23435 56.6061 7.98999C56.8097 7.74563 56.9261 7.4489 56.9552 7.09981H58.4039V19.7194H56.2395ZM65.9782 19.9114C65.0298 19.9056 64.2124 19.7427 63.5258 19.4227C62.8393 19.1027 62.304 18.646 61.92 18.0525C61.5418 17.4591 61.344 16.7551 61.3266 15.9405H63.3949C63.5171 16.6911 63.8138 17.2496 64.2851 17.6162C64.7622 17.9769 65.3411 18.1573 66.0218 18.1573C66.5862 18.1573 67.0749 18.0729 67.488 17.9042C67.9011 17.7296 68.2182 17.4911 68.4393 17.1885C68.6662 16.886 68.7797 16.534 68.7797 16.1325C68.7797 15.7078 68.6575 15.3442 68.4131 15.0416C68.1746 14.7391 67.8458 14.5064 67.4269 14.3434C67.008 14.1805 66.5368 14.0933 66.0131 14.0816L64.8437 14.0467V12.3187L65.9258 12.2751C66.4262 12.2576 66.8655 12.1616 67.2437 11.9871C67.6277 11.8125 67.9273 11.5827 68.1426 11.2976C68.3578 11.0125 68.4655 10.6925 68.4655 10.3376C68.4655 10.0118 68.3637 9.71799 68.16 9.45617C67.9622 9.19435 67.68 8.99072 67.3135 8.84526C66.9469 8.69399 66.5135 8.61835 66.0131 8.61835C65.5884 8.61835 65.1898 8.69399 64.8175 8.84526C64.4451 8.99654 64.1367 9.2409 63.8924 9.57835C63.6538 9.90999 63.5229 10.3464 63.4997 10.8874H61.44C61.44 10.0264 61.6466 9.30199 62.0597 8.71435C62.4727 8.1209 63.0255 7.67581 63.7178 7.37908C64.416 7.07654 65.1898 6.92526 66.0393 6.92526C66.9528 6.92526 67.7615 7.05035 68.4655 7.30054C69.1753 7.5449 69.7309 7.91435 70.1324 8.4089C70.5397 8.90345 70.7433 9.51726 70.7433 10.2504C70.7433 10.8729 70.5542 11.4285 70.176 11.9173C69.7978 12.406 69.2015 12.79 68.3869 13.0693C68.8931 13.2089 69.3469 13.4184 69.7484 13.6976C70.1498 13.9711 70.4669 14.3144 70.6997 14.7274C70.9382 15.1405 71.0575 15.6264 71.0575 16.1849C71.0575 16.7842 70.9266 17.3165 70.6648 17.782C70.4088 18.2474 70.048 18.6402 69.5826 18.9602C69.1229 19.2744 68.5848 19.5129 67.968 19.6758C67.3513 19.8329 66.688 19.9114 65.9782 19.9114ZM74.9396 19.7893L83.4662 6.96017H84.7491L76.2662 19.7893H74.9396ZM75.9171 14.0904C75.3236 14.0904 74.7913 13.9362 74.32 13.6278C73.8545 13.3136 73.4851 12.8889 73.2116 12.3536C72.944 11.8184 72.8102 11.2074 72.8102 10.5209C72.8102 9.82854 72.9469 9.21181 73.2203 8.67072C73.4938 8.12381 73.8633 7.69326 74.3287 7.37908C74.8 7.0649 75.3294 6.90781 75.9171 6.90781C76.4989 6.90781 77.0225 7.0649 77.488 7.37908C77.9534 7.69326 78.32 8.12381 78.5876 8.67072C78.8553 9.21181 78.9891 9.82854 78.9891 10.5209C78.9891 11.2074 78.8553 11.8184 78.5876 12.3536C78.3258 12.8889 77.9622 13.3136 77.4967 13.6278C77.0313 13.9362 76.5047 14.0904 75.9171 14.0904ZM75.8996 12.9645C76.4058 12.9645 76.784 12.758 77.0342 12.3449C77.2843 11.926 77.4094 11.318 77.4094 10.5209C77.4094 9.70054 77.2814 9.07799 77.0254 8.65326C76.7694 8.22854 76.3942 8.01617 75.8996 8.01617C75.4051 8.01617 75.0298 8.23145 74.7738 8.66199C74.5178 9.08672 74.3898 9.70636 74.3898 10.5209C74.3898 11.3122 74.5149 11.9173 74.7651 12.3362C75.0211 12.7551 75.3993 12.9645 75.8996 12.9645ZM84.0247 19.894C83.4313 19.894 82.8989 19.7427 82.4276 19.4402C81.9563 19.1318 81.5869 18.71 81.3193 18.1747C81.0516 17.6336 80.9178 17.0111 80.9178 16.3071C80.9178 15.6147 81.0516 14.998 81.3193 14.4569C81.5927 13.91 81.9651 13.4794 82.4363 13.1653C82.9076 12.8511 83.4371 12.694 84.0247 12.694C84.6123 12.694 85.1389 12.8511 85.6043 13.1653C86.0698 13.4794 86.4363 13.91 86.704 14.4569C86.9716 14.998 87.1054 15.6147 87.1054 16.3071C87.1054 17.0111 86.9716 17.6336 86.704 18.1747C86.4422 18.71 86.0785 19.1318 85.6131 19.4402C85.1476 19.7427 84.6182 19.894 84.0247 19.894ZM84.0073 18.7682C84.5134 18.7682 84.8916 18.5616 85.1418 18.1485C85.392 17.7296 85.5171 17.1216 85.5171 16.3245C85.5171 15.51 85.3891 14.8904 85.1331 14.4656C84.8771 14.0351 84.5018 13.8198 84.0073 13.8198C83.5127 13.8198 83.1374 14.0351 82.8814 14.4656C82.6313 14.8962 82.5062 15.5158 82.5062 16.3245C82.5062 17.1158 82.6313 17.7209 82.8814 18.1398C83.1316 18.5587 83.5069 18.7682 84.0073 18.7682Z" fill="white"/>
</svg>
