<svg width="104" height="30" viewBox="0 0 104 30" fill="none" xmlns="http://www.w3.org/2000/svg">
<path d="M0.84375 12.4675C0.84375 5.58191 6.42565 0 13.3113 0H103.779V17.5325C103.779 24.4181 98.1969 30 91.3113 30H0.84375V12.4675Z" fill="#E53420"/>
<path d="M19.2677 21.1714C18.6677 21.1714 18.082 21.0971 17.5105 20.9486C16.9391 20.7943 16.4191 20.5686 15.9505 20.2714C15.4877 19.9686 15.102 19.5943 14.7934 19.1486C14.4848 18.6971 14.2963 18.1714 14.2277 17.5714H16.3877C16.4791 17.9886 16.6591 18.34 16.9277 18.6257C17.1963 18.9114 17.5305 19.1286 17.9305 19.2771C18.3363 19.4257 18.7791 19.5 19.2591 19.5C19.7734 19.5 20.2363 19.4314 20.6477 19.2943C21.0648 19.1571 21.3934 18.9571 21.6334 18.6943C21.8791 18.4314 22.002 18.1086 22.002 17.7257C22.002 17.3886 21.9134 17.1029 21.7363 16.8686C21.5591 16.6343 21.3105 16.4429 20.9905 16.2943C20.6763 16.14 20.3077 16.0171 19.8848 15.9257L17.6048 15.4286C16.6848 15.24 15.9563 14.8743 15.4191 14.3314C14.882 13.7886 14.6077 13.0657 14.5963 12.1629C14.5905 11.4143 14.7877 10.7629 15.1877 10.2086C15.5934 9.64857 16.1448 9.21714 16.842 8.91429C17.5391 8.60571 18.3277 8.45143 19.2077 8.45143C20.2363 8.45143 21.102 8.62 21.8048 8.95714C22.5134 9.28857 23.0477 9.73429 23.4077 10.2943C23.7734 10.8543 23.9591 11.4686 23.9648 12.1371H21.8563C21.8048 11.6457 21.6563 11.2543 21.4105 10.9629C21.1705 10.6714 20.862 10.4629 20.4848 10.3371C20.1077 10.2114 19.6905 10.1486 19.2334 10.1486C18.8905 10.1486 18.5705 10.1886 18.2734 10.2686C17.9763 10.3486 17.7163 10.4657 17.4934 10.62C17.2705 10.7743 17.0963 10.9629 16.9705 11.1857C16.8505 11.4029 16.7905 11.6514 16.7905 11.9314C16.7905 12.3314 16.922 12.6571 17.1848 12.9086C17.4534 13.1543 17.9534 13.3629 18.6848 13.5343L20.9134 14.0314C21.6048 14.1686 22.162 14.3743 22.5848 14.6486C23.0077 14.9229 23.3305 15.2371 23.5534 15.5914C23.7763 15.94 23.9248 16.2971 23.9991 16.6629C24.0734 17.0286 24.1105 17.3771 24.1105 17.7086C24.1105 18.3543 23.9105 18.94 23.5105 19.4657C23.1163 19.9914 22.5563 20.4086 21.8305 20.7171C21.1105 21.02 20.2563 21.1714 19.2677 21.1714ZM28.6566 21.1714C28.0909 21.1714 27.5823 21.0686 27.1309 20.8629C26.6852 20.6514 26.3338 20.3514 26.0766 19.9629C25.8252 19.5686 25.6995 19.0914 25.6995 18.5314C25.6995 17.5543 26.0509 16.8171 26.7538 16.32C27.4623 15.8229 28.5909 15.5629 30.1395 15.54L31.4595 15.5057V14.9057C31.4595 14.4371 31.3195 14.0714 31.0395 13.8086C30.7652 13.54 30.3366 13.4086 29.7538 13.4143C29.3252 13.42 28.9309 13.5229 28.5709 13.7229C28.2166 13.9171 27.9823 14.2457 27.868 14.7086H26.0938C26.128 14.1029 26.3023 13.5971 26.6166 13.1914C26.9366 12.78 27.3738 12.4743 27.928 12.2743C28.4823 12.0686 29.1223 11.9657 29.848 11.9657C30.6938 11.9657 31.3823 12.0771 31.9138 12.3C32.4452 12.5229 32.8366 12.8457 33.088 13.2686C33.3395 13.6857 33.4652 14.1914 33.4652 14.7857V21H31.708L31.5452 19.4057C31.2252 20.0743 30.8195 20.5371 30.328 20.7943C29.8423 21.0457 29.2852 21.1714 28.6566 21.1714ZM29.3338 19.7571C29.5909 19.7571 29.8452 19.7114 30.0966 19.62C30.348 19.5229 30.5766 19.3943 30.7823 19.2343C30.988 19.0686 31.1509 18.8857 31.2709 18.6857C31.3966 18.4857 31.4595 18.2771 31.4595 18.06V16.6629L30.3709 16.68C29.8338 16.6857 29.3652 16.7429 28.9652 16.8514C28.5652 16.96 28.2509 17.1343 28.0223 17.3743C27.7995 17.6086 27.688 17.9229 27.688 18.3171C27.688 18.7686 27.8452 19.1229 28.1595 19.38C28.4738 19.6314 28.8652 19.7571 29.3338 19.7571ZM42.9068 12.1371L39.641 21H37.9953L34.721 12.1371H36.6325L38.7582 18.3429H38.8696L40.9868 12.1371H42.9068ZM45.6953 17.0486C45.6896 17.5514 45.7696 17.9971 45.9353 18.3857C46.101 18.7743 46.3467 19.08 46.6724 19.3029C46.9981 19.52 47.401 19.6286 47.881 19.6286C48.3724 19.6286 48.7981 19.52 49.1581 19.3029C49.5239 19.08 49.7667 18.7429 49.8867 18.2914H51.7981C51.6953 18.9086 51.4496 19.4314 51.061 19.86C50.6724 20.2886 50.201 20.6143 49.6467 20.8371C49.0981 21.06 48.5267 21.1714 47.9324 21.1714C47.0753 21.1714 46.321 20.9914 45.6696 20.6314C45.0238 20.2657 44.5181 19.7457 44.1524 19.0714C43.7924 18.3971 43.6124 17.5943 43.6124 16.6629C43.6124 15.7543 43.7781 14.9486 44.1096 14.2457C44.441 13.5371 44.9181 12.98 45.541 12.5743C46.1696 12.1686 46.9239 11.9657 47.8039 11.9657C48.6781 11.9657 49.4124 12.1514 50.0067 12.5229C50.6067 12.8943 51.0581 13.4143 51.361 14.0829C51.6696 14.7457 51.8238 15.5229 51.8238 16.4143V17.0486H45.6953ZM45.6953 15.7543H49.8524C49.8524 15.3257 49.7781 14.94 49.6296 14.5971C49.481 14.2486 49.2524 13.9743 48.9438 13.7743C48.641 13.5686 48.2581 13.4657 47.7953 13.4657C47.3381 13.4657 46.9524 13.5771 46.6381 13.8C46.3238 14.0229 46.0867 14.3114 45.9267 14.6657C45.7667 15.0143 45.6896 15.3771 45.6953 15.7543ZM59.3449 21V11.4514H57.0477V10.2086C57.7734 10.2086 58.3477 10.1486 58.7706 10.0286C59.1992 9.90286 59.5106 9.72 59.7049 9.48C59.9049 9.24 60.0192 8.94857 60.0477 8.60571H61.4706V21H59.3449ZM64.3668 12.3257C64.3668 11.48 64.5697 10.7686 64.9754 10.1914C65.3811 9.60857 65.9239 9.17143 66.6039 8.88C67.2897 8.58286 68.0497 8.43429 68.8839 8.43429C69.7811 8.43429 70.5754 8.55714 71.2668 8.80286C71.9639 9.04286 72.5097 9.40571 72.9039 9.89143C73.3039 10.3771 73.5039 10.98 73.5039 11.7C73.5039 12.3114 73.3182 12.8571 72.9468 13.3371C72.5754 13.8171 71.9897 14.1943 71.1897 14.4686C71.6868 14.6057 72.1325 14.8114 72.5268 15.0857C72.9211 15.3543 73.2325 15.6914 73.4611 16.0971C73.6954 16.5029 73.8125 16.98 73.8125 17.5286C73.8125 18.1171 73.6839 18.64 73.4268 19.0971C73.1754 19.5543 72.8211 19.94 72.3639 20.2543C71.9125 20.5629 71.3839 20.7971 70.7782 20.9571C70.1725 21.1114 69.5211 21.1886 68.8239 21.1886C67.8925 21.1829 67.0897 21.0229 66.4154 20.7086C65.7411 20.3943 65.2154 19.9457 64.8382 19.3629C64.4668 18.78 64.2725 18.0886 64.2554 17.2886H66.2868C66.4068 18.0257 66.6982 18.5743 67.1611 18.9343C67.6297 19.2886 68.1982 19.4657 68.8668 19.4657C69.4211 19.4657 69.9011 19.3829 70.3068 19.2171C70.7125 19.0457 71.0239 18.8114 71.2411 18.5143C71.4639 18.2171 71.5754 17.8714 71.5754 17.4771C71.5754 17.06 71.4554 16.7029 71.2154 16.4057C70.9811 16.1086 70.6582 15.88 70.2468 15.72C69.8354 15.56 69.3725 15.4743 68.8582 15.4629L67.7097 15.4286V13.7314L68.7725 13.6886C69.2639 13.6714 69.6954 13.5771 70.0668 13.4057C70.4439 13.2343 70.7382 13.0086 70.9497 12.7286C71.1611 12.4486 71.2668 12.1343 71.2668 11.7857C71.2668 11.4657 71.1668 11.1771 70.9668 10.92C70.7725 10.6629 70.4954 10.4629 70.1354 10.32C69.7754 10.1714 69.3497 10.0971 68.8582 10.0971C68.4411 10.0971 68.0497 10.1714 67.6839 10.32C67.3182 10.4686 67.0154 10.7086 66.7754 11.04C66.5411 11.3657 66.4125 11.7943 66.3897 12.3257H64.3668ZM78.4996 8.41714C79.071 8.41714 79.5853 8.57143 80.0425 8.88C80.4996 9.18286 80.8596 9.6 81.1225 10.1314C81.3853 10.6629 81.5168 11.2743 81.5168 11.9657C81.5168 12.6514 81.3853 13.2571 81.1225 13.7829C80.8653 14.3086 80.5082 14.7229 80.051 15.0257C79.5939 15.3229 79.0768 15.4714 78.4996 15.4714C77.9168 15.4714 77.3939 15.3229 76.931 15.0257C76.4739 14.7229 76.111 14.3086 75.8425 13.7829C75.5796 13.2571 75.4482 12.6514 75.4482 11.9657C75.4482 11.2743 75.5825 10.6629 75.851 10.1314C76.1196 9.6 76.4825 9.18286 76.9396 8.88C77.4025 8.57143 77.9225 8.41714 78.4996 8.41714ZM78.4825 14.3657C78.9739 14.3657 79.3425 14.1514 79.5882 13.7229C79.8339 13.2886 79.9568 12.7029 79.9568 11.9657C79.9568 11.2114 79.831 10.6143 79.5796 10.1743C79.3339 9.72857 78.9682 9.50571 78.4825 9.50571C78.1625 9.50571 77.891 9.60857 77.6682 9.81429C77.451 10.0143 77.2853 10.3 77.171 10.6714C77.0568 11.0371 76.9996 11.4686 76.9996 11.9657C76.9996 12.6971 77.1253 13.28 77.3768 13.7143C77.6282 14.1486 77.9968 14.3657 78.4825 14.3657ZM86.4625 14.1C87.0396 14.1 87.5568 14.2543 88.0139 14.5629C88.471 14.8714 88.831 15.2943 89.0939 15.8314C89.3568 16.3629 89.4882 16.9686 89.4882 17.6486C89.4882 18.34 89.3568 18.9514 89.0939 19.4829C88.8368 20.0086 88.4796 20.4229 88.0225 20.7257C87.5653 21.0229 87.0453 21.1714 86.4625 21.1714C85.8796 21.1714 85.3568 21.0229 84.8939 20.7257C84.431 20.4229 84.0682 20.0086 83.8053 19.4829C83.5425 18.9514 83.411 18.34 83.411 17.6486C83.411 16.9686 83.5425 16.3629 83.8053 15.8314C84.0739 15.2943 84.4396 14.8714 84.9025 14.5629C85.3653 14.2543 85.8853 14.1 86.4625 14.1ZM86.4453 20.0571C86.7653 20.0571 87.0339 19.9571 87.251 19.7571C87.4739 19.5571 87.6396 19.28 87.7482 18.9257C87.8625 18.5657 87.9196 18.1457 87.9196 17.6657C87.9196 17.1743 87.8625 16.7457 87.7482 16.38C87.6339 16.0086 87.4653 15.72 87.2425 15.5143C87.0253 15.3086 86.7596 15.2057 86.4453 15.2057C86.131 15.2057 85.8653 15.3114 85.6482 15.5229C85.431 15.7286 85.2625 16.0171 85.1425 16.3886C85.0282 16.7543 84.971 17.18 84.971 17.6657C84.971 18.1457 85.0282 18.5657 85.1425 18.9257C85.2568 19.28 85.4225 19.5571 85.6396 19.7571C85.8568 19.9571 86.1253 20.0571 86.4453 20.0571ZM87.1739 8.46857L78.8425 21.0686L77.5482 21.0514L85.9139 8.46857H87.1739Z" fill="white"/>
</svg>
