<svg width="30" height="30" viewBox="0 0 30 30" fill="none" xmlns="http://www.w3.org/2000/svg">
<path fill-rule="evenodd" clip-rule="evenodd" d="M8.505 -0.000183105H21.51C26.595 -0.000183105 30 3.56982 30 8.87982V21.1363C30 26.4298 26.595 29.9998 21.51 29.9998H8.505C3.42 29.9998 0 26.4298 0 21.1363V8.87982C0 3.56982 3.42 -0.000183105 8.505 -0.000183105ZM14.1471 19.4848L21.2721 12.3598C21.7821 11.8498 21.7821 11.0248 21.2721 10.4998C20.7621 9.98981 19.9221 9.98981 19.4121 10.4998L13.2171 16.6948L10.5921 14.0698C10.0821 13.5598 9.24211 13.5598 8.73211 14.0698C8.22211 14.5798 8.22211 15.4048 8.73211 15.9298L12.3021 19.4848C12.5571 19.7398 12.8871 19.8598 13.2171 19.8598C13.5621 19.8598 13.8921 19.7398 14.1471 19.4848Z" fill="#3866DF"/>
</svg>
