<svg width="60" height="20" viewBox="0 0 60 20" fill="none" xmlns="http://www.w3.org/2000/svg">
<path fill-rule="evenodd" clip-rule="evenodd" d="M14.8609 19.5559H9.71667L5.8591 4.40614C5.676 3.70926 5.28723 3.09317 4.71537 2.8028C3.28822 2.07309 1.71559 1.49235 0 1.19945V0.616191H8.28701C9.43074 0.616191 10.2885 1.49235 10.4315 2.5099L12.433 13.4379L17.5748 0.616191H22.5761L14.8609 19.5559ZM25.4359 19.5559H20.5775L24.5781 0.616191H29.4364L25.4359 19.5559ZM35.7212 5.86287C35.8642 4.84279 36.722 4.25952 37.7228 4.25952C39.2954 4.11307 41.0085 4.40597 42.4381 5.13316L43.2959 1.05536C41.8663 0.472094 40.2936 0.179199 38.8665 0.179199C34.1511 0.179199 30.7199 2.80262 30.7199 6.44361C30.7199 9.21348 33.1503 10.6678 34.8659 11.544C36.722 12.4176 37.4368 13.0009 37.2939 13.8745C37.2939 15.185 35.8642 15.7683 34.437 15.7683C32.7215 15.7683 31.0059 15.3314 29.4357 14.6017L28.5779 18.682C30.2935 19.4092 32.1496 19.7021 33.8652 19.7021C39.1524 19.8461 42.4381 17.2251 42.4381 13.2913C42.4381 8.33732 35.7212 8.04695 35.7212 5.86287ZM59.4416 19.5559L55.5841 0.616191H51.4406C50.5828 0.616191 49.725 1.19945 49.439 2.07309L42.2957 19.5559H47.2971L48.2953 16.7885H54.4403L55.0122 19.5559H59.4416ZM52.1545 5.71659L53.5816 12.8546H49.5811L52.1545 5.71659Z" fill="#172B85"/>
</svg>
