<svg width="36" height="36" viewBox="0 0 36 36" fill="none" xmlns="http://www.w3.org/2000/svg">
    <rect width="36" height="36" rx="18" fill="#F4AC3D"/>
    <path
            d="M18.0007 10C15.8281 10 15.5554 10.0095 14.702 10.0483C13.8504 10.0873 13.269 10.2222 12.7604 10.42C12.2342 10.6243 11.7879 10.8977 11.3432 11.3425C10.8982 11.7872 10.6248 12.2335 10.4198 12.7595C10.2215 13.2684 10.0865 13.8499 10.0482 14.7012C10.01 15.5546 10 15.8274 10 18.0001C10 20.1728 10.0097 20.4446 10.0483 21.298C10.0875 22.1496 10.2223 22.731 10.42 23.2396C10.6245 23.7658 10.8978 24.2121 11.3427 24.6568C11.7872 25.1018 12.2335 25.3758 12.7594 25.5802C13.2684 25.778 13.8499 25.9128 14.7014 25.9518C15.5547 25.9907 15.8272 26.0002 17.9998 26.0002C20.1726 26.0002 20.4444 25.9907 21.2978 25.9518C22.1495 25.9128 22.7315 25.778 23.2405 25.5802C23.7665 25.3758 24.2121 25.1018 24.6567 24.6568C25.1017 24.2121 25.375 23.7658 25.58 23.2398C25.7767 22.731 25.9117 22.1495 25.9517 21.2981C25.99 20.4448 26 20.1728 26 18.0001C26 15.8274 25.99 15.5547 25.9517 14.7014C25.9117 13.8497 25.7767 13.2684 25.58 12.7597C25.375 12.2335 25.1017 11.7872 24.6567 11.3425C24.2116 10.8975 23.7666 10.6242 23.24 10.42C22.73 10.2222 22.1483 10.0873 21.2966 10.0483C20.4433 10.0095 20.1716 10 17.9982 10H18.0007ZM17.2831 11.4417C17.4961 11.4413 17.7337 11.4417 18.0007 11.4417C20.1368 11.4417 20.3899 11.4493 21.2335 11.4877C22.0135 11.5233 22.4368 11.6537 22.7188 11.7632C23.0921 11.9082 23.3583 12.0815 23.6381 12.3615C23.9181 12.6415 24.0915 12.9082 24.2368 13.2815C24.3463 13.5632 24.4768 13.9865 24.5123 14.7665C24.5507 15.6099 24.559 15.8632 24.559 17.9982C24.559 20.1333 24.5507 20.3866 24.5123 21.2299C24.4767 22.01 24.3463 22.4333 24.2368 22.715C24.0918 23.0883 23.9181 23.3541 23.6381 23.634C23.3581 23.914 23.0923 24.0873 22.7188 24.2323C22.4371 24.3423 22.0135 24.4723 21.2335 24.508C20.3901 24.5463 20.1368 24.5547 18.0007 24.5547C15.8646 24.5547 15.6114 24.5463 14.768 24.508C13.988 24.472 13.5647 24.3416 13.2825 24.2321C12.9092 24.0871 12.6425 23.9138 12.3625 23.6338C12.0825 23.3538 11.9092 23.0878 11.7639 22.7143C11.6544 22.4326 11.5238 22.0093 11.4883 21.2293C11.45 20.3859 11.4423 20.1326 11.4423 17.9962C11.4423 15.8599 11.45 15.6079 11.4883 14.7645C11.524 13.9845 11.6544 13.5612 11.7639 13.2792C11.9089 12.9059 12.0825 12.6392 12.3625 12.3592C12.6425 12.0792 12.9092 11.9059 13.2825 11.7605C13.5645 11.6505 13.988 11.5205 14.768 11.4847C15.5061 11.4513 15.7921 11.4413 17.2831 11.4397V11.4417ZM22.2711 12.77C21.7411 12.77 21.3111 13.1995 21.3111 13.7297C21.3111 14.2597 21.7411 14.6897 22.2711 14.6897C22.8011 14.6897 23.2311 14.2597 23.2311 13.7297C23.2311 13.1997 22.8011 12.7697 22.2711 12.7697V12.77ZM18.0007 13.8917C15.7319 13.8917 13.8924 15.7312 13.8924 18.0001C13.8924 20.2689 15.7319 22.1076 18.0007 22.1076C20.2696 22.1076 22.1085 20.2689 22.1085 18.0001C22.1085 15.7312 20.2694 13.8917 18.0006 13.8917H18.0007ZM18.0007 15.3334C19.4734 15.3334 20.6674 16.5272 20.6674 18.0001C20.6674 19.4728 19.4734 20.6668 18.0007 20.6668C16.5279 20.6668 15.3341 19.4728 15.3341 18.0001C15.3341 16.5272 16.5279 15.3334 18.0007 15.3334Z"
            fill="#161616"/>
</svg>
