<svg width="36" height="36" viewBox="0 0 36 36" fill="none" xmlns="http://www.w3.org/2000/svg">
    <rect width="36" height="36" rx="18" fill="#F4AC3D"/>
    <path
            d="M10 11.1461C10 10.5133 10.526 10 11.1749 10H24.8251C25.474 10 26 10.5133 26 11.1461V24.8539C26 25.4869 25.474 26 24.8251 26L11.1749 26C10.526 26 10 25.4869 10 24.8539V11.1461ZM14.9434 23.3937V16.1688H12.542V23.3937H14.9434ZM13.7427 15.1823C14.5801 15.1823 15.1013 14.6275 15.1013 13.9342C15.0857 13.2253 14.5801 12.6859 13.7585 12.6859C12.9371 12.6859 12.4 13.2253 12.4 13.9342C12.4 14.6275 12.9211 15.1823 13.727 15.1823H13.7427ZM18.6514 23.3937V19.359C18.6514 19.143 18.667 18.9273 18.7304 18.773C18.904 18.3415 19.2991 17.8947 19.9625 17.8947C20.8315 17.8947 21.1791 18.5572 21.1791 19.5285V23.3937H23.5803V19.251C23.5803 17.0318 22.3956 15.9992 20.8156 15.9992C19.5418 15.9992 18.9706 16.6994 18.6515 17.1917V17.2166H18.6354C18.6407 17.2083 18.646 17.2 18.6515 17.1917V16.1688H16.2501C16.2816 16.8467 16.2501 23.3937 16.2501 23.3937H18.6514Z"
            fill="#161616"/>
</svg>
