<svg width="36" height="36" viewBox="0 0 36 36" fill="none" xmlns="http://www.w3.org/2000/svg">
    <rect width="36" height="36" rx="18" fill="#F4AC3D"/>
    <path
            d="M13.7249 28C22.404 28 27.1531 20.688 27.1531 14.3578C27.1531 14.1521 27.1531 13.9464 27.1439 13.7406C28.0642 13.0674 28.8649 12.2165 29.5 11.2534C28.6533 11.6368 27.7421 11.8893 26.7849 12.0108C27.7605 11.4218 28.506 10.4774 28.8649 9.35531C27.9538 9.90699 26.9414 10.2997 25.8645 10.5148C24.9994 9.57972 23.7753 9 22.4224 9C19.8177 9 17.7009 11.1506 17.7009 13.7968C17.7009 14.1708 17.7469 14.5354 17.8205 14.8907C13.8998 14.6944 10.4208 12.7776 8.09224 9.87894C7.68728 10.5896 7.45718 11.4124 7.45718 12.2913C7.45718 13.9557 8.29472 15.4237 9.55562 16.284C8.78251 16.2559 8.05542 16.0408 7.42037 15.6855C7.42037 15.7042 7.42037 15.7229 7.42037 15.751C7.42037 18.0699 9.04942 20.0148 11.2031 20.4542C10.8073 20.5664 10.3932 20.6225 9.96058 20.6225C9.65686 20.6225 9.36234 20.5945 9.07703 20.5384C9.67527 22.4459 11.424 23.8297 13.4856 23.8671C11.8657 25.1575 9.83173 25.9242 7.62285 25.9242C7.2455 25.9242 6.86815 25.9055 6.5 25.8588C8.58003 27.2052 11.065 28 13.7249 28Z"
            fill="#161616"/>
</svg>
